<?xml version="1.0" encoding="utf-8"?>
<!-- Generator: Adobe Illustrator 15.1.0, SVG Export Plug-In . SVG Version: 6.00 Build 0)  -->
<!DOCTYPE svg PUBLIC "-//W3C//DTD SVG 1.1//EN" "http://www.w3.org/Graphics/SVG/1.1/DTD/svg11.dtd">
<svg version="1.1" id="Layer_1" xmlns="http://www.w3.org/2000/svg" xmlns:xlink="http://www.w3.org/1999/xlink" x="0px" y="0px"
	 width="1024px" height="600px" viewBox="0 0 1024 600" enable-background="new 0 0 1024 600" xml:space="preserve">
<g>
	<circle fill="#EDDAAB" stroke="#1C1C1C" stroke-width="4" stroke-miterlimit="10" cx="306.427" cy="267.466" r="59.334"/>
	<rect x="287.246" y="253.978" fill="none" width="45.694" height="26.309"/>
	<text transform="matrix(1 0 0 1 284.8835 309.906)" fill="#009FE3" font-family="'HoboStd'" font-size="105.1049">?</text>
	<g enable-background="new    ">
		<path fill="none" stroke="#050505" stroke-width="3" stroke-miterlimit="10" d="M298.757,270.282
			c0-15.45,15.976-13.873,15.976-26.906c0-4.309-2.312-9.038-7.252-9.038c-5.991,0-7.462,6.516-9.144,6.516
			c-1.156,0-8.198-8.093-8.198-9.354c0-3.363,7.988-10.615,17.657-10.615c13.348,0,22.282,11.981,22.282,24.699
			c0,19.023-20.811,23.438-20.811,31.53c0,4.624-0.946,3.994-5.57,3.994c-3.469,0-4.94,0.63-4.94-3.259V270.282z M292.556,299.816
			c0-6.307,5.255-11.456,11.562-11.456c6.622,0,11.981,5.045,11.981,11.562c0,6.516-5.36,11.561-11.876,11.561
			S292.556,306.227,292.556,299.816z"/>
	</g>
</g>
</svg>
