<?xml version="1.0" encoding="utf-8"?>
<!-- Generator: Adobe Illustrator 16.0.0, SVG Export Plug-In . SVG Version: 6.00 Build 0)  -->
<!DOCTYPE svg PUBLIC "-//W3C//DTD SVG 1.1//EN" "http://www.w3.org/Graphics/SVG/1.1/DTD/svg11.dtd">
<svg version="1.1" id="Ebene_1" xmlns="http://www.w3.org/2000/svg" xmlns:xlink="http://www.w3.org/1999/xlink" x="0px" y="0px"
	 width="150px" height="150px" viewBox="0 0 150 150" enable-background="new 0 0 150 150" xml:space="preserve">
<g>
	<circle fill="#EDDAAB" stroke="#000000" stroke-width="8" stroke-miterlimit="10" cx="75" cy="75" r="59.333"/>
	<rect x="53.819" y="62.513" fill="none" width="45.695" height="26.309"/>
	<path fill="none" stroke="#072172" stroke-width="4" stroke-miterlimit="10" d="M107.667,39"/>
	<path fill="none" stroke="#072172" stroke-width="4" stroke-miterlimit="10" d="M40,39"/>
	<path fill="none" stroke="#072172" stroke-width="4" stroke-miterlimit="10" d="M116.667,56"/>
	<path fill="none" stroke="#072172" stroke-width="4" stroke-miterlimit="10" d="M28.333,56"/>
	<path fill="none" stroke="#072172" stroke-width="4" stroke-miterlimit="10" d="M117.333,65.333"/>
	<path fill="none" stroke="#072172" stroke-width="4" stroke-miterlimit="10" d="M36,65.333"/>
	<path fill="none" stroke="#072172" stroke-width="4" stroke-miterlimit="10" d="M113.333,75"/>
	<path fill="none" stroke="#072172" stroke-width="4" stroke-miterlimit="10" d="M34,75"/>
	<path fill="none" stroke="#072172" stroke-width="4" stroke-miterlimit="10" d="M116,86.667"/>
	<path fill="none" stroke="#072172" stroke-width="4" stroke-miterlimit="10" d="M31.667,86.667"/>
	<path fill="none" stroke="#072172" stroke-width="4" stroke-miterlimit="10" d="M120.333,102"/>
	<path fill="none" stroke="#072172" stroke-width="4" stroke-miterlimit="10" d="M43,102"/>
	<path fill="none" stroke="#072172" stroke-width="4" stroke-miterlimit="10" d="M117.333,110.333"/>
	<path fill="none" stroke="#072172" stroke-width="4" stroke-miterlimit="10" d="M34,110.333"/>
	<g>
		<path fill="#004A99" d="M107.037,94.11c5.117,6.873,2.673,10.221-5.432,7.439c-8.104-2.782-15.751,1.88-16.993,10.358
			s-5.337,9.117-9.102,1.419c-3.765-7.697-12.468-9.808-19.341-4.691c-6.873,5.117-10.22,2.673-7.439-5.432
			s-1.88-15.751-10.358-16.993c-8.478-1.241-9.117-5.337-1.419-9.101s9.809-12.467,4.691-19.34s-2.673-10.221,5.432-7.439
			c8.104,2.782,15.751-1.88,16.993-10.358s5.337-9.117,9.102-1.419c3.765,7.697,12.468,9.808,19.341,4.691
			c6.873-5.117,10.22-2.673,7.439,5.432s1.88,15.751,10.358,16.993c8.478,1.241,9.117,5.337,1.419,9.101
			S101.92,87.237,107.037,94.11z"/>
		<path fill="none" stroke="#000000" stroke-width="3" stroke-miterlimit="10" d="M107.037,94.11
			c5.117,6.873,2.673,10.221-5.432,7.439c-8.104-2.782-15.751,1.88-16.993,10.358s-5.337,9.117-9.102,1.419
			c-3.765-7.697-12.468-9.808-19.341-4.691c-6.873,5.117-10.22,2.673-7.439-5.432s-1.88-15.751-10.358-16.993
			c-8.478-1.241-9.117-5.337-1.419-9.101s9.809-12.467,4.691-19.34s-2.673-10.221,5.432-7.439
			c8.104,2.782,15.751-1.88,16.993-10.358s5.337-9.117,9.102-1.419c3.765,7.697,12.468,9.808,19.341,4.691
			c6.873-5.117,10.22-2.673,7.439,5.432s1.88,15.751,10.358,16.993c8.478,1.241,9.117,5.337,1.419,9.101
			S101.92,87.237,107.037,94.11z"/>
	</g>
	<circle fill="#EDDAAB" stroke="#000000" stroke-width="3" stroke-miterlimit="10" cx="74" cy="76.332" r="18.666"/>
</g>
</svg>
