<?xml version="1.0" encoding="utf-8"?>
<!-- Generator: Adobe Illustrator 16.0.0, SVG Export Plug-In . SVG Version: 6.00 Build 0)  -->
<!DOCTYPE svg PUBLIC "-//W3C//DTD SVG 1.1//EN" "http://www.w3.org/Graphics/SVG/1.1/DTD/svg11.dtd">
<svg version="1.1" id="Calque_1" xmlns="http://www.w3.org/2000/svg" xmlns:xlink="http://www.w3.org/1999/xlink" x="0px" y="0px"
	 width="250px" height="250px" viewBox="0 0 250 250" enable-background="new 0 0 250 250" xml:space="preserve">
<g>
	<g>
		<g>
			<path d="M180.567,80.207c3.158,3.315,6.797,4.358,11.542,8.787c0,0,33.818,28.85,31.473,59.27
				c-2.346,30.415-16.652,53.253-63.945,69.109c-30.504,7.997-59.961,2.066-71.506-14.438c-12.707-0.156-28.2-7.435-35.396-13.48
				c-18.506-15.546-28.518-36.281-26.066-59.678c0,0,4.78-30.35,27.586-48.136c22.802-17.793,39.052-20.905,62.229-20.618
				c-4.431-6.307-5.37-12.263-5.561-15.235c-0.197-2.968-3.554-9.253-15.924-10.627c-2.689-0.331-2.086-3.021,4.145-4.214
				c6.228-1.202,45.229-8.352,52.436,16.899c0,0,3.177,10.677,2.23,16.319c11.994-8.989,28.916-5.24,28.916-5.24L165.775,70.52
				L180.567,80.207z"/>
		</g>
		<linearGradient id="SVGID_1_" gradientUnits="userSpaceOnUse" x1="61.7358" y1="84.123" x2="190.122" y2="195.7274">
			<stop  offset="0" style="stop-color:#FFFFFF"/>
			<stop  offset="1" style="stop-color:#FFFFFF"/>
		</linearGradient>
		<path fill="url(#SVGID_1_)" d="M128.01,212.253c0,0-31.789-0.458-35.34-19.236c-3.795,2.92-22.116,0-30.775-7.123
			c-29.058-23.906-28.884-43.508-25.161-63.432c3.727-19.939,29.645-46.031,52.62-50.763c22.982-4.725,52.61-0.077,63.556,5.441
			c10.945,5.507,21.579,12.138,23.695,15.545c-0.698-3.946-7.375-12.498-9.778-15.628c3.592,0.896,30.54,19.023,41.009,38.888
			c10.464,19.86,8.495,54.19-14.485,75.532C170.373,212.817,141.666,211.613,128.01,212.253z"/>
		<g>
			<path fill="#FFFFFF" d="M143.918,41.962c-7.259-8.94-25.105-12.607-38.377-7.344c-0.169,0.002-0.35-0.022-0.517-0.013
				c16.811,3.968,3.078,28.038,43.434,29.818c0,0-1.45-3.162,0,0C148.458,64.424,148.847,48.034,143.918,41.962z"/>
		</g>
		<g>
			<path d="M190.665,142.672c0,0,0.316,24.685-19.512,35.942c-19.826,11.262-24.617,10.242-28.905,13.144
				c-4.278,2.908-2.456,2.049-2.456,2.049s12.388-2.108,17.508-2.587c5.131-0.482,20.786-0.705,30.728-13.7
				C197.971,164.514,193.506,149.655,190.665,142.672z"/>
		</g>
		<g>
			<path d="M101.582,34.404c0,0,16.235,0.696,27.333,10.856c11.097,10.159,11.311,12.483,14.018,14.698
				c2.709,2.208,1.806,1.28,1.806,1.28s-3.681-6.177-4.944-8.717c-1.267-2.544-4.308-10.268-14.722-15.614
				C114.648,31.557,105.666,33.245,101.582,34.404z"/>
		</g>
	</g>
	<g>
		<path d="M150.972,70.972c0,0,1.64-21.487,4.167-23.486c2.31-1.826,9.143-1.882,9.546,2.556c0.403,4.437-9.68,21.915-9.68,21.915
			L150.972,70.972z"/>
	</g>
	<g>
		<path fill="#FFFFFF" d="M153.034,68.432c-1.291,0.583,2.683-18.309,3.449-19.605c0.785-1.326,6.133-1.263,6.403,1.713
			C163.156,53.517,154.325,67.849,153.034,68.432z"/>
	</g>
</g>
</svg>
