<?xml version="1.0" encoding="utf-8"?>
<!-- Generator: Adobe Illustrator 16.0.0, SVG Export Plug-In . SVG Version: 6.00 Build 0)  -->
<!DOCTYPE svg PUBLIC "-//W3C//DTD SVG 1.1//EN" "http://www.w3.org/Graphics/SVG/1.1/DTD/svg11.dtd">
<svg version="1.1" id="Calque_1" xmlns="http://www.w3.org/2000/svg" xmlns:xlink="http://www.w3.org/1999/xlink" x="0px" y="0px"
	 width="250px" height="250px" viewBox="0 0 250 250" enable-background="new 0 0 250 250" xml:space="preserve">
<g>
	<g>
		<path fill="#FFFFFF" d="M113.432,28.585c-20.581-0.563-46.334,19.379-54.647,43.511c-0.196,0.231-0.436,0.45-0.617,0.688
			c24.953-18.188,41.619,28.466,91.02-24.206c0,0-5.979-1.716,0,0C149.187,48.577,127.404,28.966,113.432,28.585z"/>
		<path d="M103.676,77.183c-7.166,0-13.47-1.895-19.028-3.565c-4.703-1.413-9.147-2.749-13.409-2.749
			c-4.159,0-7.833,1.267-11.563,3.985c-1.029,0.748-2.453,0.631-3.342-0.282c-0.891-0.912-0.976-2.339-0.198-3.35
			c0.123-0.161,0.262-0.318,0.407-0.473c8.629-24.306,34.167-44.738,56.033-44.738c0.308,0,0.619,0.005,0.924,0.013
			c14.154,0.387,34.743,18.289,37.189,20.462c0.656,0.464,1.083,1.229,1.083,2.092c0,0.794-0.359,1.503-0.926,1.973
			C133.753,68.717,118.757,77.183,103.676,77.183z M71.238,65.743c5.017,0,9.809,1.441,14.885,2.966
			c5.477,1.646,11.141,3.349,17.553,3.349c12.879,0,25.975-7.163,41.004-22.482c-0.483-0.444-0.818-1.097-0.694-2.071
			c-7.623-6.235-21.554-16.11-30.625-16.358C95.28,30.631,73.309,47.017,63.663,66.99C66.098,66.155,68.609,65.743,71.238,65.743z"
			/>
	</g>
	<g>
		<path d="M59.435,72.567c0,0,18.055-19.295,42.344-22.229c24.287-2.935,27.386-0.735,32.983-1.733
			c5.594-1.004,3.49-0.871,3.49-0.871s-11.518-1.999-15.99-3.132c-4.481-1.13-17.232-5.557-34.858,1.632
			C69.761,53.431,62.331,66.302,59.435,72.567z"/>
	</g>
	<g>
		<g>
			<path d="M100.584,141.835c0,0,16.157,4.314,20.288,15.021c4.129,10.707,2.975,20.781-10.519,33.824
				c-14.831,12.536-32.023,10.122-40.824,7.843c-8.803-2.282-16.588-8.067-19.549-16.41c0,0-4.057-11.452,1.802-21.818
				C58.969,147.575,79.069,135.637,100.584,141.835z"/>
			<path d="M83.336,201.494c-4.558,0-9.299-0.629-14.092-1.871c-9.831-2.55-17.431-8.953-20.335-17.129
				c-0.169-0.488-4.159-12.065,1.885-22.758c5.64-9.982,19.902-20.726,37.897-20.726c4.111,0,8.217,0.584,12.209,1.732
				c0.66,0.177,16.74,4.585,21.029,15.705c4.852,12.57,1.624,23.054-10.785,35.049C103.279,198.147,93.942,201.494,83.336,201.494z
				 M88.691,141.282c-17.084,0-30.595,10.146-35.921,19.57c-5.522,9.775-1.757,20.772-1.718,20.884
				c2.649,7.463,9.662,13.327,18.761,15.688c4.607,1.192,9.159,1.796,13.522,1.796c10.054,0,18.897-3.164,26.284-9.407
				c11.752-11.363,14.72-20.808,10.191-32.548c-3.878-10.053-19.364-14.291-19.52-14.332
				C96.484,141.835,92.589,141.282,88.691,141.282z"/>
		</g>
	</g>
	<linearGradient id="SVGID_1_" gradientUnits="userSpaceOnUse" x1="52.1865" y1="170.2524" x2="119.3604" y2="170.2524">
		<stop  offset="0" style="stop-color:#FFFFFF"/>
		<stop  offset="1" style="stop-color:#FFFFFF"/>
	</linearGradient>
	<path fill="url(#SVGID_1_)" d="M98.651,194.609c0,0-12.867,4.496-26.942,1.92c-14.072-2.581-17.057-10.008-19.053-17.303
		c-1.999-7.295,2.604-20.199,9.705-25.453c7.1-5.26,18.027-8.424,22.687-8.318c4.663,0.104,9.397,0.635,10.684,1.443
		c-0.89-1.216-4.58-3.021-5.922-3.693c1.378-0.271,13.601,1.521,20.455,6.527c6.857,5.005,11.817,16.852,7.449,27.69
		C113.341,188.265,103.228,192.213,98.651,194.609z"/>
	<g>
		<g>
			<path d="M179.038,164.331c0,0,16.157,4.313,20.287,15.021c4.13,10.706,2.976,20.78-10.518,33.823
				c-14.832,12.536-32.024,10.122-40.825,7.843c-8.802-2.282-16.587-8.067-19.549-16.41c0,0-4.056-11.452,1.803-21.818
				C137.423,170.07,157.523,158.132,179.038,164.331z"/>
			<path d="M161.79,223.989c-4.558,0-9.299-0.629-14.092-1.871c-9.831-2.549-17.432-8.952-20.335-17.129
				c-0.17-0.487-4.159-12.064,1.885-22.758c5.639-9.982,19.902-20.726,37.897-20.726c4.11,0,8.216,0.584,12.209,1.733
				c0.66,0.177,16.74,4.584,21.029,15.704c4.851,12.57,1.623,23.054-10.785,35.049C181.732,220.644,172.396,223.989,161.79,223.989z
				 M167.146,163.777c-17.085,0-30.595,10.146-35.921,19.57c-5.522,9.775-1.758,20.772-1.719,20.884
				c2.65,7.463,9.663,13.327,18.762,15.688c4.607,1.192,9.158,1.797,13.522,1.797c10.054,0,18.897-3.165,26.284-9.407
				c11.752-11.364,14.72-20.808,10.19-32.549c-3.878-10.053-19.363-14.291-19.519-14.332
				C174.938,164.331,171.043,163.777,167.146,163.777z"/>
		</g>
	</g>
	<linearGradient id="SVGID_2_" gradientUnits="userSpaceOnUse" x1="130.6406" y1="192.7476" x2="197.8145" y2="192.7476">
		<stop  offset="0" style="stop-color:#FFFFFF"/>
		<stop  offset="1" style="stop-color:#FFFFFF"/>
	</linearGradient>
	<path fill="url(#SVGID_2_)" d="M177.105,217.104c0,0-12.867,4.496-26.942,1.92c-14.072-2.581-17.057-10.008-19.054-17.303
		c-1.998-7.295,2.604-20.198,9.705-25.453c7.101-5.26,18.027-8.424,22.688-8.318c4.663,0.104,9.396,0.635,10.683,1.443
		c-0.89-1.216-4.579-3.021-5.921-3.693c1.378-0.271,13.601,1.522,20.455,6.527c6.857,5.005,11.817,16.852,7.449,27.69
		C191.794,210.76,181.682,214.708,177.105,217.104z"/>
	<g>
		<path d="M108.146,157.745c0,0,4.102,8.328-0.806,15.36c-4.908,7.04-6.701,7.469-7.684,9.146c-0.985,1.682-0.503,1.096-0.503,1.096
			s3.867-2.722,5.528-3.713c1.662-0.995,6.941-3.608,8.213-9.632C114.164,163.977,110.243,159.655,108.146,157.745z"/>
	</g>
	<g>
		<path d="M186.348,184.476c0,0,4.103,8.328-0.805,15.36c-4.908,7.039-6.701,7.468-7.684,9.146
			c-0.985,1.682-0.503,1.097-0.503,1.097s3.867-2.723,5.528-3.714c1.662-0.995,6.941-3.608,8.212-9.632
			C192.365,190.706,188.445,186.385,186.348,184.476z"/>
	</g>
	<g>
		<path fill="#FFFFFF" d="M88.834,140.33c14.485-4.337,47.88-59.195,51.113-84.15c3.605-27.833,5.208-10.415,7.731-9.279
			c1.87,0.844,7.472,0.983,9.554,5.711c2.104,4.786,10.684,99.448,23.687,115.865c13.004,16.417-15.793-3.032-15.793-3.032
			s-13.26-106.237-15.805-106.366c-0.507-0.025-31.12,81.661-36.817,88.16C105.103,136.111,72.491,145.669,88.834,140.33z"/>
		<path d="M183.297,177.334c-4.292,0.002-15.965-7.659-19.443-10.007l-0.855-0.577l-0.126-1.024
			c-4.072-32.624-10.747-82.669-13.968-99.682c-1.122,2.844-2.542,6.48-4.058,10.368c-13.313,34.101-26.646,67.774-30.633,72.324
			l-1.957,2.23l-1.645-2.471c-2.044-3.071-7.367-4.695-15.397-4.695c-3.149,0-6.099,0.246-8.051,0.409
			c-1.117,0.094-1.919,0.161-2.456,0.161c-2.215,0-2.591-1.656-2.645-1.988c-0.339-2.121,0.893-2.521,6.064-4.212
			c12.577-3.767,46.273-56.881,49.567-82.284c1.96-15.123,3.238-17.679,6.083-17.679c2.227,0,3.138,2.216,4.103,4.562
			c0.27,0.656,0.699,1.701,0.982,2.152c0.304,0.097,0.752,0.208,1.159,0.31c2.706,0.676,7.239,1.806,9.289,6.465
			c0.643,1.463,1.318,6.267,3.24,20.751c3.857,29.047,11.034,83.113,20.148,94.619c3.484,4.399,4.448,6.721,3.558,8.567
			C186.009,176.144,185.225,177.334,183.297,177.334z M183.297,172.791v2.271V172.791
			C183.297,172.791,183.297,172.791,183.297,172.791L183.297,172.791z M167.25,164.134c4.719,3.134,10.131,6.314,13.419,7.798
			c-0.387-0.559-0.886-1.232-1.53-2.044c-9.126-11.522-15.672-56.029-21.092-96.842c-1.247-9.392-2.424-18.262-2.907-19.545
			c-1.141-2.595-3.954-3.297-6.217-3.86c-0.839-0.21-1.562-0.391-2.178-0.668c-1.302-0.585-2.017-1.979-2.728-3.661
			c-0.471,2.072-1.083,5.498-1.817,11.159c-2.995,23.106-30.261,69.604-47.046,82.786c7.846-0.029,13.531,1.436,17.025,4.296
			c5.578-10.249,20.769-49.158,28.435-68.798c1.907-4.886,3.521-9.017,4.673-11.925c2.347-5.91,2.392-6.023,4.034-6.023
			c2.639,0.131,3.587,0.178,11.105,55.195C163.622,135.363,166.604,158.982,167.25,164.134z"/>
	</g>
</g>
</svg>
