<?xml version="1.0" encoding="utf-8"?>
<!-- Generator: Adobe Illustrator 16.0.0, SVG Export Plug-In . SVG Version: 6.00 Build 0)  -->
<!DOCTYPE svg PUBLIC "-//W3C//DTD SVG 1.1//EN" "http://www.w3.org/Graphics/SVG/1.1/DTD/svg11.dtd">
<svg version="1.1" id="Calque_1" xmlns="http://www.w3.org/2000/svg" xmlns:xlink="http://www.w3.org/1999/xlink" x="0px" y="0px"
	 width="250px" height="250px" viewBox="0 0 250 250" enable-background="new 0 0 250 250" xml:space="preserve">
<g>
	<path fill-rule="evenodd" clip-rule="evenodd" fill="#FFFFFF" stroke="#000000" stroke-width="3" stroke-miterlimit="10" d="
		M78.665,60.396c0,0-34.295,11.432-42.234,54.935c0,0-6.352-4.712-8.582,4.422c-2.213,9.063,20.77,55.009,39.385,50.832
		c18.615-4.178,38.922-64.779,38.922-64.779L91.868,61.001L78.665,60.396z"/>
	<linearGradient id="SVGID_1_" gradientUnits="userSpaceOnUse" x1="67.6719" y1="116.2715" x2="219.6855" y2="116.2715">
		<stop  offset="0" style="stop-color:#FFFFFF"/>
		<stop  offset="1" style="stop-color:#FFFFFF"/>
	</linearGradient>
	
		<path fill-rule="evenodd" clip-rule="evenodd" fill="url(#SVGID_1_)" stroke="#000000" stroke-width="3" stroke-miterlimit="10" d="
		M186.312,38.484c0,0-60.969-6.351-107.646,21.911c0,0,7.596,5.481,7.303,8.732c-0.293,3.25-3.117,14.763-2.986,16.987
		c0.129,2.225,1.293,6.669,4.893,19.371c1.398,4.936-6.889,16.945-4.859,20.119c6.764,10.577-10.066,21.162-9.113,27.513
		c0.953,6.352-7.621,13.02-6.033,18.418c0,0,33.025,34.295,109.553,19.37c0,0-31.438-14.925-25.721-55.57
		c0,0,29.85-9.208,67.953,30.802c0,0,2.859-37.471-45.09-51.124c0,0,32.072-25.087,37.787-52.078c0,0-17.148,21.594-62.238,37.788
		C150.112,100.724,136.458,55.949,186.312,38.484z"/>
	<path fill-rule="evenodd" clip-rule="evenodd" fill="#FFFFFF" stroke="#000000" stroke-width="1.9053" stroke-miterlimit="10" d="
		M222.3,137.048"/>
	<path fill-rule="evenodd" clip-rule="evenodd" fill="#FFFFFF" stroke="#000000" stroke-width="3" stroke-miterlimit="10" d="
		M134.058,40.906c0,0-8.117,47.534,0,53.993c8.115,6.459,16.314-56.091,16.314-56.091L134.058,40.906z"/>
	<path fill-rule="evenodd" clip-rule="evenodd" fill="#FFFFFF" stroke="#000000" stroke-width="3" stroke-miterlimit="10" d="
		M113.933,45.4c0,0-1.291,36.905,2.203,43.256c3.492,6.352,7.875-42.418,8.699-45.978L113.933,45.4z"/>
	<path fill-rule="evenodd" clip-rule="evenodd" fill="#FFFFFF" stroke="#000000" stroke-width="3" stroke-miterlimit="10" d="
		M94.429,52.297c0,0-0.205,25.563,2.654,31.279c2.857,5.716,10.205-33.119,9.072-35.771"/>
	<path fill-rule="evenodd" clip-rule="evenodd" fill="#FFFFFF" stroke="#000000" stroke-width="3" stroke-miterlimit="10" d="
		M79.116,179.787c0,0,2.406-19.683,10.027-27.939c7.621-8.256,0,33.024,0,33.024L79.116,179.787z"/>
	<path fill-rule="evenodd" clip-rule="evenodd" fill="#FFFFFF" stroke="#000000" stroke-width="3" stroke-miterlimit="10" d="
		M104.036,190.07c0,0-1.555-35.364,5.432-48.384c6.984-13.02,6.529,51.002,6.529,51.002L104.036,190.07z"/>
	<path fill-rule="evenodd" clip-rule="evenodd" fill="#FFFFFF" stroke="#000000" stroke-width="3" stroke-miterlimit="10" d="
		M129.155,192.688c0,0-5.082-53.611,0-55.641c5.08-2.029,14.441,51.707,14.523,55.641S129.155,192.688,129.155,192.688z"/>
	<path fill-rule="evenodd" clip-rule="evenodd" fill="#FFFFFF" stroke="#000000" stroke-width="3" stroke-miterlimit="10" d="
		M60.3,83.576l0.637,23.499c0,0-11.168,2.539-14.344-0.318C43.417,103.898,55.591,83.576,60.3,83.576z"/>
	<linearGradient id="SVGID_2_" gradientUnits="userSpaceOnUse" x1="87.2246" y1="176.0332" x2="113.4717" y2="176.0332">
		<stop  offset="0" style="stop-color:#FFFFFF"/>
		<stop  offset="1" style="stop-color:#FFFFFF"/>
	</linearGradient>
	
		<path fill-rule="evenodd" clip-rule="evenodd" fill="url(#SVGID_2_)" stroke="#000000" stroke-width="3" stroke-miterlimit="10" d="
		M100.368,178.466c0,14.396,6.361,24.296,12.385,32.39c0.051,0.07,1.359,0.917,0.316,1.271
		c-16.836-5.247-28.275-23.914-25.402-49.22c0.965-8.514,3.359-17.359,7.938-22.227c10.406-4.276,7.971,11.063,6.986,18.733
		L100.368,178.466z"/>
	<path fill-rule="evenodd" clip-rule="evenodd" stroke="#000000" stroke-width="3" stroke-miterlimit="10" d="M50.667,108.114
		c0,0,2.828-15.097,9.844-13.019l-0.582,11.75"/>
	<g>
		<path d="M38.265,118.686c0,0,0.158,0.063,0.454,0.182c0.287,0.126,0.736,0.255,1.28,0.451c0.565,0.155,1.229,0.376,2.016,0.542
			c0.772,0.205,1.668,0.328,2.622,0.499c0.478,0.081,0.99,0.098,1.507,0.151c0.258,0.027,0.521,0.055,0.787,0.083
			c0.268,0.017,0.542,0.014,0.817,0.021c0.552,0.007,1.116,0.032,1.691,0.027c0.578-0.052,1.165-0.077,1.76-0.114
			c0.597-0.011,1.197-0.105,1.805-0.202c0.606-0.09,1.221-0.181,1.839-0.272c0.61-0.148,1.225-0.297,1.842-0.446
			c0.619-0.135,1.24-0.273,1.838-0.511c1.206-0.426,2.45-0.74,3.594-1.3c1.149-0.533,2.347-0.921,3.396-1.547
			c1.064-0.589,2.151-1.067,3.125-1.632c0.947-0.607,1.868-1.152,2.726-1.655c0.868-0.488,1.626-0.997,2.291-1.462
			c0.665-0.463,1.27-0.845,1.764-1.166c0.991-0.639,1.588-0.983,1.588-0.983s-0.414,0.533-1.191,1.429
			c-0.39,0.446-0.86,0.997-1.426,1.603c-0.281,0.307-0.581,0.633-0.896,0.977c-0.323,0.337-0.71,0.635-1.09,0.978
			c-0.769,0.674-1.609,1.404-2.525,2.146c-0.933,0.719-1.991,1.384-3.073,2.094c-1.057,0.753-2.306,1.276-3.526,1.888
			c-1.203,0.66-2.565,1.024-3.878,1.5c-0.654,0.245-1.341,0.393-2.026,0.534c-0.685,0.141-1.365,0.28-2.042,0.419
			c-0.685,0.094-1.373,0.135-2.047,0.193c-0.675,0.062-1.341,0.119-2.002,0.068c-0.659-0.024-1.306-0.037-1.936-0.077
			c-0.629-0.075-1.241-0.182-1.834-0.269c-0.595-0.075-1.167-0.192-1.711-0.354c-0.543-0.158-1.073-0.274-1.564-0.452
			c-0.986-0.348-1.87-0.695-2.616-1.095c-0.765-0.342-1.372-0.773-1.881-1.081C38.744,119.173,38.265,118.686,38.265,118.686z"/>
	</g>
</g>
</svg>
