<?xml version="1.0" encoding="utf-8"?>
<!-- Generator: Adobe Illustrator 16.0.0, SVG Export Plug-In . SVG Version: 6.00 Build 0)  -->
<!DOCTYPE svg PUBLIC "-//W3C//DTD SVG 1.1//EN" "http://www.w3.org/Graphics/SVG/1.1/DTD/svg11.dtd">
<svg version="1.1" id="Calque_1" xmlns="http://www.w3.org/2000/svg" xmlns:xlink="http://www.w3.org/1999/xlink" x="0px" y="0px"
	 width="250px" height="250px" viewBox="0 0 250 250" enable-background="new 0 0 250 250" xml:space="preserve">
<g>
	<g id="schuhe">
		<g id="XMLID_6_">
			<g>
				<path fill="#FFFFFF" d="M112.352,232.513l0.02-0.028l6.672-3.399l11.457,0.252l-0.629,6.547c0,0-6.17,1.008-8.057,1.134
					c-1.889,0.126-6.674,2.645-9.947,3.652c-2.576,0.792-5.227-0.13-6.977-1.782c-0.475-0.45-0.883-0.954-1.209-1.492
					c-1.51-2.519,1.889-5.414,4.281-6.044C109.484,230.952,111.262,231.824,112.352,232.513z"/>
				<path fill="#FFFFFF" d="M129.871,235.884l-0.504,1.008l-3.775,1.385c0,0-5.541,0.378-7.053,0.881
					c-1.51,0.505-4.027,2.393-4.783,2.645s-7.932,0-7.932,0l-0.934-2.915c1.75,1.653,4.4,2.575,6.977,1.782
					c3.273-1.007,8.059-3.525,9.947-3.651C123.701,236.892,129.871,235.884,129.871,235.884z"/>
			</g>
			<g>
				<path fill="none" stroke="#000000" stroke-miterlimit="10" d="M113.377,233.24c0,0-0.4-0.334-1.025-0.728
					c-1.09-0.688-2.867-1.561-4.389-1.161c-2.391,0.63-5.791,3.525-4.279,6.044c0.324,0.538,0.732,1.042,1.207,1.491
					c1.75,1.653,4.4,2.575,6.977,1.783c3.273-1.008,8.059-3.526,9.947-3.652c1.887-0.126,8.057-1.134,8.057-1.134l0.629-6.547
					l-11.457-0.252l-6.672,3.399"/>
				<path fill="none" stroke="#000000" stroke-miterlimit="10" d="M104.816,238.654l0.074,0.232l0.934,2.915
					c0,0,7.176,0.253,7.932,0c0.756-0.252,3.273-2.14,4.783-2.644c1.512-0.504,7.053-0.882,7.053-0.882l3.775-1.385l0.504-1.006"/>
			</g>
		</g>
	</g>
	<g id="Ebene_11">
		<g id="XMLID_5_">
			<g>
				<path fill="#FFFFFF" d="M130.551,236.174l0.076-0.541l4.281-6.8l13.725-0.504l-1.135,5.919c0,0-4.406,0.503-6.043,1.385
					c-1.357,0.729-1.59,2.064-2.131,3.43c-0.111,0.284-0.236,0.571-0.387,0.851c-0.883,1.637-4.281,3.147-8.438,4.281
					c-3.232,0.881-5.549-0.066-6.832-1.417c-0.369-0.387-0.652-0.81-0.848-1.228c-0.881-1.888,2.268-5.036,5.918-5.414
					C129.367,236.07,129.979,236.093,130.551,236.174z"/>
				<path fill="#FFFFFF" d="M139.324,239.063c0.541-1.365,0.773-2.699,2.131-3.43c1.637-0.882,6.043-1.384,6.043-1.384v1.763
					l-7.051,1.762c0,0-0.279,0.678-0.613,1.496L139.324,239.063z"/>
				<path fill="#FFFFFF" d="M130.5,244.194c4.156-1.134,7.555-2.645,8.438-4.281c0.15-0.28,0.275-0.566,0.387-0.851l0.51,0.206
					c-0.258,0.632-0.551,1.353-0.771,1.903c-0.504,1.26-1.889,2.015-4.406,3.399s-11.205,1.134-11.205,1.134l0.125-2.771l0.09-0.157
					C124.951,244.128,127.268,245.075,130.5,244.194z"/>
			</g>
			<g>
				<path fill="none" stroke="#000000" stroke-miterlimit="10" d="M135.285,238.276c0,0-1.979-1.722-4.734-2.103
					c-0.572-0.081-1.184-0.104-1.813-0.038c-3.65,0.378-6.799,3.526-5.918,5.414c0.195,0.418,0.479,0.841,0.848,1.228
					c1.283,1.351,3.6,2.298,6.832,1.417c4.156-1.134,7.555-2.645,8.438-4.281c0.15-0.28,0.275-0.566,0.387-0.851
					c0.541-1.365,0.773-2.7,2.131-3.43c1.637-0.882,6.043-1.385,6.043-1.385l1.135-5.919l-13.725,0.504l-4.281,6.8"/>
				<path fill="none" stroke="#000000" stroke-miterlimit="10" d="M123.576,242.935l-0.125,2.771c0,0,8.688,0.251,11.205-1.134
					c2.518-1.384,3.902-2.14,4.406-3.399c0.221-0.551,0.514-1.271,0.771-1.903c0.334-0.819,0.613-1.496,0.613-1.496l7.051-1.763
					v-1.762"/>
			</g>
		</g>
		<path fill="#FFFFFF" d="M108.566,234.223c2.08-0.229,4.045,0.624,5.41,2.135c0.002-0.176-0.006-0.354-0.025-0.531
			c-0.283-2.578-2.67-4.431-5.328-4.139c-2.574,0.285-4.455,2.479-4.314,4.958C105.34,235.322,106.832,234.414,108.566,234.223z"/>
		<path fill="#FFFFFF" d="M128.299,239.145c2.561-0.281,4.955,0.524,6.594,2.004c0.004-0.177,0.002-0.354-0.02-0.531
			c-0.283-2.578-3.168-4.376-6.441-4.015c-3.172,0.35-5.539,2.596-5.426,5.079C124.305,240.329,126.162,239.38,128.299,239.145z"/>
	</g>
	<g id="fuesse">
		<path fill="#FFFFFF" stroke="#000000" stroke-width="0.3409" stroke-miterlimit="10" d="M77.297,196.454
			c0,0,1.072,13.936,1.656,19.394c0.584,5.457,1.17,15.104,1.461,15.299c0.293,0.195,0.977,1.169,2.145,0.975
			c1.17-0.195,2.338-0.975,2.535-1.949c0.193-0.974,0.193-25.435,0.291-25.824s0.098-7.406,0.098-7.406L77.297,196.454z"/>
		<path fill="#FFFFFF" stroke="#000000" stroke-width="0.3409" stroke-miterlimit="10" d="M85.482,196.941l7.99-1.56
			c0,0-2.338,18.905-2.629,21.927c-0.293,3.021-1.268,12.961-1.268,12.961s-1.17,0.683-1.852,0.584
			c-0.684-0.096-2.631-0.682-2.631-0.682l0.291-32.646L85.482,196.941z"/>
	</g>
	<g id="schuhe_1_">
		<path fill="#FFFFFF" stroke="#000000" stroke-linejoin="round" stroke-miterlimit="10" d="M80.219,230.854l-1.947,2.632
			c0,0-3.605-1.364-4.191,0.389c-0.584,1.754,0.195,4.191,2.826,3.898c2.631-0.292,4.484-1.364,5.457-1.559
			c0.975-0.195,3.119-0.488,3.119-0.488l-0.293-5.555c0,0-1.07,1.56-2.143,1.755C81.975,232.121,80.512,231.731,80.219,230.854z"/>
		<path fill="#FFFFFF" stroke="#000000" stroke-linecap="round" stroke-linejoin="round" stroke-miterlimit="10" d="M85.189,230.172
			c0,0,0.586,0.488,1.656,0.488c1.072,0,2.438-0.293,2.438-0.293l3.41,1.657c0,0,1.561-0.683,2.729-0.194
			c1.17,0.486,3.314,2.045,2.533,3.702c-0.779,1.657-2.533,1.56-3.701,1.268c-1.17-0.292-3.803-0.976-4.875-1.071
			c-1.07-0.099-3.896,0-3.896,0L85.189,230.172z"/>
		<path fill="#FFFFFF" stroke="#000000" stroke-miterlimit="10" d="M78.271,233.486c0,0,1.168,0.194,1.461,0.974"/>
		<path fill="#FFFFFF" stroke="#000000" stroke-miterlimit="10" d="M92.693,232.023c0,0-1.268,0.781-1.559,1.463"/>
	</g>
	<g id="hand_x5F_li">
		<path fill="#FFFFFF" stroke="#000000" stroke-width="0.3409" stroke-miterlimit="10" d="M69.793,127.557
			c0,0-6.822,19.588-6.236,20.952c0.584,1.364,8.186,13.739,8.186,14.131c0,0.39,1.17-8.674,1.17-8.674s-2.145-2.533-2.633-3.509
			c-0.486-0.974-1.559-4.482-1.559-4.482s1.947-5.165,2.436-6.433c0.488-1.267,2.145-5.359,2.145-5.359L69.793,127.557z"/>
		<path fill="#FFFFFF" stroke="#000000" stroke-width="0.3409" stroke-miterlimit="10" d="M60.535,135.256"/>
		<path fill="#FFFFFF" stroke="#000000" stroke-width="0.3409" stroke-miterlimit="10" d="M68.721,145.975
			c0,0-1.363,2.729-1.461,3.216"/>
	</g>
	<g id="hose">
		<path fill="#FFFFFF" stroke="#000000" stroke-miterlimit="10" d="M114.133,134.11c0,0.314,0.945,7.554,0.84,9.651
			c-0.105,2.1-0.314,8.604-0.105,10.912c0.211,2.309,0.42,10.283,0.314,11.962c-0.104,1.68-1.469,6.504-1.258,8.288
			c0.209,1.784,0.84,5.876,0.84,7.66c0,1.783,0.104,5.666,0.314,6.61c0.209,0.944,0.523,2.308-0.105,3.358
			c-0.631,1.049-1.469,1.782-0.84,2.832c0.631,1.049,1.26,0.629,0.945,1.889c-0.314,1.259-1.469,1.573-0.525,2.938
			c0.945,1.363,1.26,4.826,1.26,6.819c0,1.994,0.84,4.722,0.629,7.241c-0.209,2.518,0.105,10.701,0.105,11.75
			s-0.314,2.518,0.105,3.148c0.418,0.629,10.176,2.623,12.693,1.889c2.52-0.734,4.514-2.938,4.514-2.938s-2.1-4.407-1.994-5.979
			c0.105-1.575,0-6.296-0.42-7.45s-1.051-3.253-0.84-3.987s-0.314-10.178-0.523-12.066c-0.211-1.888-0.316-3.882-0.316-4.512
			s0.84-1.783,0.42-2.727c-0.42-0.945-0.84-1.785-0.734-2.519c0.105-0.735,0.42-3.358,0.42-4.092c0-0.735,0-2.31,0-2.31
			s1.469-0.734,1.26-5.979c-0.209-5.247-0.209-7.975-0.209-7.975s-0.945-0.525-0.631-1.05c0.314-0.523,1.574-1.889,1.574-3.463
			c0-1.573-0.105-9.022-0.314-10.281c-0.211-1.26,0-5.981,0.734-6.401c0.734-0.418,1.572-0.209,1.783,1.47
			c0.209,1.679-0.629,4.092-0.209,5.561c0.418,1.469,0.943,2.203,0.523,3.357c-0.42,1.155-1.469,4.197-1.154,4.826
			c0.316,0.631,1.258,2.099,1.154,3.148c-0.105,1.049-0.838,2.203-0.629,3.356c0.209,1.155,0.629,3.673,0.42,5.352
			c-0.211,1.679-0.314,3.882,0.418,5.036c0.736,1.155,0.631,1.05,0.211,1.889c-0.42,0.84,0.105,1.154,0.211,2.1
			c0.104,0.943-0.84,1.154-0.211,2.412c0.629,1.26,0.525,1.365,0.945,1.994c0.418,0.629,0.209,1.993-0.105,5.352
			c-0.314,3.357-0.84,20.564-1.154,23.082c-0.314,2.519,0.209,8.184,0,9.339c-0.211,1.154-0.42,3.777-0.42,3.777
			s6.191,2.308,10.072,1.469c3.883-0.84,6.086-3.043,6.086-3.043s-0.943-6.716-1.154-9.442c-0.209-2.729-0.105-11.438-0.105-12.067
			s0.525-4.722,0.316-5.245c-0.211-0.525-1.262-3.987-1.051-4.617c0.211-0.629,1.994-5.035,1.994-6.295
			c0-1.259,0.42-4.512,0.105-5.456s-0.314-2.204-0.105-3.672c0.211-1.47,0.523-4.617,0.314-5.771
			c-0.209-1.154-0.943-12.697-0.734-15.529c0.211-2.833,1.154-12.591,0.943-15.528c-0.209-2.938,0-7.765,0.105-9.129
			c0.105-1.363-0.418-6.19-0.418-6.19l-32.736,3.673L114.133,134.11z"/>
		<path fill="#FFFFFF" stroke="#000000" stroke-miterlimit="10" d="M199.016,240.396"/>
	</g>
	<g id="kleid">
		<path fill="#FFFFFF" stroke="#000000" stroke-miterlimit="10" d="M78.758,119.76l-8.867,7.309c0,0,1.363,3.802,1.754,4.776
			c0.389,0.974,1.072,4.093,1.072,4.093l2.729-1.657c0,0-2.826,13.351-3.217,16.469c-0.389,3.119-3.313,22.316-2.533,32.159
			s2.047,13.546,2.047,13.546s7.99,0.877,13.352,0.682c5.359-0.195,12.082-1.948,12.473-2.436c0.389-0.488,0.975-14.91,0.584-21.439
			s-2.242-23.194-3.508-28.358c-1.268-5.164-2.533-10.622-2.533-10.622l3.508-8.868c0,0-6.725-6.236-8.381-6.627
			c-1.658-0.389-2.826,0-2.826,0l0.195,2.047l-3.412,2.437l-2.436-0.976V119.76z"/>
	</g>
	<g id="stift">
		<g>
			<polyline fill="#FFFFFF" stroke="#000000" stroke-width="0.3409" stroke-miterlimit="10" points="86.193,171.595 89.23,173.262 
				88.658,169.875 			"/>
			<path fill="none" stroke="#000000" stroke-width="0.3409" stroke-miterlimit="10" d="M82.9,159.37"/>
			<polygon fill="#FFFFFF" stroke="#000000" stroke-width="0.3409" stroke-miterlimit="10" points="80.916,158.807 88.658,169.875 
				86.193,171.595 78.48,160.196 			"/>
			<polygon stroke="#000000" stroke-width="0.3409" stroke-miterlimit="10" points="87.994,172.583 88.98,171.781 89.23,173.262 			
				"/>
			
				<line fill="none" stroke="#000000" stroke-width="0.3409" stroke-miterlimit="10" x1="80.754" y1="160.125" x2="87.895" y2="170.407"/>
			
				<line fill="none" stroke="#000000" stroke-width="0.3409" stroke-miterlimit="10" x1="79.563" y1="160.146" x2="86.932" y2="171.079"/>
			<polygon fill="#FFFFFF" stroke="#000000" stroke-width="0.3409" stroke-miterlimit="10" points="78.611,158.952 79.648,158.104 
				80.982,158.743 80.793,160.367 79.801,160.87 78.455,160.312 			"/>
		</g>
	</g>
	<g id="Ebene_9">
		<path fill="none" stroke="#000000" stroke-miterlimit="10" d="M129.996,136.922c0,0-0.881,4.91-0.125,6.547
			s1.889,2.393,1.889,2.393"/>
		<line fill="none" stroke="#000000" stroke-miterlimit="10" x1="134.277" y1="136.04" x2="134.277" y2="144.602"/>
		<path fill="none" stroke="#000000" stroke-miterlimit="10" d="M146.365,141.957c0,0,3.146,3.4,3.775,3.652"/>
		<path fill="none" stroke="#000000" stroke-miterlimit="10" d="M115.014,149.89c0,0,2.141-2.393,2.393-3.273
			s0.756-3.147,0.756-3.147"/>
	</g>
	<g id="Ebene_4">
		<polygon fill="#FFFFFF" points="122.814,66.515 126.238,74.048 130.9,71.319 131.922,64.384 129.193,63.133 		"/>
		<polygon fill="#FFFFFF" points="126.238,72.797 120.705,63.975 118.166,66.203 119.986,74.843 		"/>
		<polygon fill="#FFFFFF" points="130.9,71.319 131.922,63.702 136.697,68.591 134.537,72.455 		"/>
	</g>
	<g id="pollunder">
		<g id="XMLID_4_">
			<g>
				<path fill="#FFFFFF" d="M152.053,98.26c-0.273-0.743-0.758-2.078-1.275-3.677c-0.799-2.479-1.676-7.348-1.756-8.308
					c-0.053-0.627-0.037-1.9-0.021-2.709c0.012-0.429,0.021-0.725,0.021-0.725s0.238-9.264,0.316-10.859
					c0.084-1.596,0.723-7.986,0.723-7.986s6.469,12.22,7.188,14.454c0.717,2.235,2.314,7.747,2.715,8.943
					c0.396,1.199,1.914,5.911,2.314,7.907c0.398,1.995,0.721,5.75,0.639,6.149c-0.078,0.396-0.16,1.039-0.879,1.278
					c0,0-5.83,5.03-7.107,5.987c-0.912,0.685-3.871,2.354-5.889,3.509c-0.803,0.46-1.457,0.837-1.775,1.043
					c-1.121,0.721-6.072,3.594-7.508,4.554c-0.762,0.507-3.67,2.312-6.238,3.896c-2.285,1.414-4.303,2.652-4.303,2.652
					s-2.156-4.552-2.234-5.032c-0.082-0.481-1.518-2.795-1.361-3.594c0.127-0.63,0.4-1.454,0.977-1.968
					c0.158-0.144,0.338-0.264,0.541-0.349c0.961-0.4,5.83-1.836,6.391-2.396c0.561-0.561,10.781-6.309,11.498-6.868
					c0.484-0.374,2.15-1.539,3.314-2.336c0.572-0.393,1.027-0.698,1.158-0.777C149.891,100.817,151.955,98.376,152.053,98.26z"/>
				<path fill="#FFFFFF" d="M150.457,124.607l1.121,6.23c0,0-5.273,0.56-6.311,0.8c-1.037,0.238-8.145,1.116-14.373,1.596
					c-6.229,0.478-17.17,1.995-17.17,1.995l-0.08-5.348c0,0,10.766,0.065,18.398-0.356c0.684-0.038,1.342-0.079,1.963-0.126
					C141.594,128.841,150.457,124.607,150.457,124.607z"/>
				<path fill="#FFFFFF" d="M149.58,119.496c0.16,1.278,0.877,5.111,0.877,5.111s-8.863,4.233-16.451,4.791
					c-0.621,0.047-1.279,0.088-1.963,0.126l-0.031-0.604c0,0,0.316-3.514,0.479-4.313c0.16-0.8,1.039-2.873,1.039-2.873l-0.01-0.017
					c2.568-1.586,5.477-3.39,6.238-3.896c1.436-0.96,6.387-3.833,7.508-4.554c0.318-0.206,0.973-0.583,1.775-1.043l0.141,0.246
					C149.182,112.471,149.422,118.219,149.58,119.496z"/>
				<path fill="#FFFFFF" d="M147.822,63.279l2.238,0.717c0,0-0.639,6.391-0.723,7.986c-0.078,1.596-0.316,10.859-0.316,10.859
					s-0.961-2.074-1.279-3.674c-0.32-1.596-1.438-9.024-1.516-10.541c-0.082-1.518,0.078-5.51,0.078-5.51L147.822,63.279z"/>
				<path fill="#FFFFFF" d="M111.529,98.036c-0.361-0.961-0.867-2.387-0.918-2.897c-0.082-0.796,0.479-4.47,0.479-5.429
					c0-0.957-0.801-4.473-0.721-5.109c0.082-0.639,1.52-4.072,1.678-5.433c0.16-1.356,1.037-9.663,0.959-10.3
					c-0.063-0.481-0.031-1.787-0.012-2.395c0.006-0.198,0.012-0.321,0.012-0.321l4.375-1.835l-0.223,0.158
					c0,0-0.322,5.429,1.277,7.106c1.596,1.679,8.146,5.512,12.219,3.195c4.07-2.316,5.592-5.03,6.148-6.068
					c0.561-1.04,2.555-7.108,2.555-7.108l1.119-0.32l5.828,1.837c0,0-0.16,3.992-0.078,5.51c0.078,1.517,1.195,8.945,1.518,10.541
					c0.318,1.6,1.277,3.674,1.277,3.674s-0.01,0.296-0.023,0.725l-0.059-0.004c0,0-0.955,7.187-0.955,8.942s0.316,9.264,0.316,9.264
					l0.041,0.06c-1.164,0.797-2.828,1.962-3.314,2.336c-0.717,0.56-10.938,6.308-11.496,6.868c-0.563,0.56-5.432,1.995-6.393,2.396
					c-0.203,0.085-0.383,0.205-0.541,0.349c-0.604-0.198-2.957-0.878-3.928,0.371c-1.121,1.437-2.555,5.271-1.359,8.144
					c1.199,2.877,2.238,4.234,2.795,4.473c0.561,0.239,3.516,0.8,4.473,0.96c0.957,0.158,3.436,1.197,3.436,1.197l0.031,0.604
					c-7.633,0.422-18.398,0.356-18.398,0.356l-2.238-18.289c0-0.96-0.238-10.063-0.238-10.38c0-0.322,0.16-2.239,0.16-2.239
					L111.529,98.036z"/>
				<path fill="#FFFFFF" d="M117.381,64.317l1.135-0.799l0.082,1.675c0,0,0.639,4.233,3.113,5.988
					c2.477,1.757,5.828,0.722,8.385-0.478c2.555-1.195,3.434-1.836,4.232-3.834c0.797-1.995,2.314-5.03,2.314-5.03l2.717-0.239
					c0,0-1.996,6.068-2.557,7.108c-0.557,1.038-2.078,3.752-6.148,6.068c-4.072,2.316-10.621-1.517-12.219-3.195
					c-1.6-1.678-1.275-7.106-1.275-7.106L117.381,64.317z"/>
				<path fill="#D9D9D9" d="M133.52,121.718l0.01,0.017c0,0-0.879,2.073-1.039,2.873c-0.162,0.8-0.479,4.313-0.479,4.313
					l-2.795-4.551C129.217,124.37,131.234,123.132,133.52,121.718z"/>
				<path fill="#FFFFFF" d="M129.217,124.37l2.795,4.551c0,0-2.477-1.039-3.434-1.197c-0.957-0.16-3.912-0.721-4.475-0.96
					c-0.555-0.238-1.594-1.596-2.793-4.473c-1.197-2.873,0.238-6.707,1.359-8.144c0.969-1.249,3.324-0.569,3.928-0.371
					c-0.576,0.514-0.85,1.338-0.977,1.968c-0.156,0.799,1.279,3.112,1.361,3.594C127.061,119.818,129.217,124.37,129.217,124.37z"/>
				<path fill="#FFFFFF" d="M113.006,68.868c0.078,0.637-0.799,8.943-0.959,10.3c-0.158,1.36-1.596,4.794-1.678,5.433
					c0,0,0.082-5.351,0-7.188c-0.07-1.634-0.838-8.962-1.004-10.555c-0.02-0.194-0.033-0.305-0.033-0.305l3.662-0.079
					C112.975,67.081,112.943,68.387,113.006,68.868z"/>
				<path fill="#FFFFFF" d="M110.369,77.412c0.082,1.838,0,7.188,0,7.188l-4.23,4.152L95.197,99.852l-11.5,10.623l-1.438,8.386
					l-3.99,2.952l-7.668,1.518l6.148-12.059l32.502-44.401l0.113-0.013C109.531,68.45,110.299,75.778,110.369,77.412z"/>
			</g>
			<g>
				<path fill="none" stroke="#000000" stroke-miterlimit="10" d="M150.061,63.996c0,0,6.469,12.22,7.188,14.454
					c0.717,2.235,2.314,7.747,2.715,8.943c0.396,1.199,1.914,5.911,2.314,7.907c0.398,1.995,0.721,5.75,0.639,6.149
					c-0.078,0.396-0.16,1.039-0.879,1.278c-0.717,0.24-2.074,0.317-2.473,0.639c-0.4,0.318-0.961,1.037-0.961,1.037"/>
				<path fill="none" stroke="#000000" stroke-miterlimit="10" d="M162.037,102.729c0,0-5.83,5.03-7.107,5.987
					c-0.912,0.685-3.873,2.354-5.889,3.509c-0.803,0.46-1.457,0.837-1.775,1.043c-1.121,0.721-6.072,3.594-7.508,4.554
					c-0.762,0.507-3.67,2.311-6.238,3.896c-2.285,1.414-4.303,2.652-4.303,2.652s-2.156-4.552-2.234-5.032
					c-0.082-0.481-1.518-2.795-1.361-3.594c0.127-0.63,0.4-1.454,0.977-1.968c0.158-0.144,0.338-0.264,0.541-0.349
					c0.961-0.4,5.83-1.836,6.391-2.396c0.561-0.561,10.781-6.309,11.498-6.868c0.484-0.374,2.15-1.539,3.314-2.336
					c0.572-0.393,1.027-0.698,1.158-0.777c0.391-0.233,2.455-2.675,2.553-2.791c0.004-0.004,0.004-0.004,0.004-0.004"/>
				<path fill="none" stroke="#000000" stroke-miterlimit="10" d="M155.49,101.29l-3.195-2.396c0,0-0.09-0.229-0.242-0.635
					c-0.273-0.743-0.758-2.078-1.275-3.677c-0.799-2.479-1.676-7.348-1.756-8.308c-0.053-0.627-0.037-1.9-0.021-2.709
					c0.012-0.429,0.021-0.725,0.021-0.725"/>
				<path fill="none" stroke="#000000" stroke-miterlimit="10" d="M148.939,83.563c0,0-0.955,7.187-0.955,8.942
					s0.316,9.264,0.316,9.264"/>
				<path fill="none" stroke="#000000" stroke-miterlimit="10" d="M149.182,112.471c0,0,0.24,5.748,0.398,7.025
					c0.16,1.278,0.877,5.111,0.877,5.111s-8.863,4.233-16.449,4.791c-0.623,0.047-1.281,0.088-1.965,0.126
					c-7.633,0.422-18.398,0.356-18.398,0.356l-2.236-18.289c0-0.96-0.24-10.063-0.24-10.38c0-0.322,0.162-2.239,0.162-2.239
					l0.201-0.937l0.037-0.181"/>
				<path fill="none" stroke="#000000" stroke-miterlimit="10" d="M113.725,104.724c0,0,0-1.517-0.24-2.077
					c-0.238-0.557-1.596-3.674-1.596-3.674s-0.154-0.396-0.359-0.937c-0.361-0.961-0.867-2.387-0.918-2.897
					c-0.082-0.796,0.479-4.47,0.479-5.429c0-0.957-0.801-4.473-0.721-5.109c0.082-0.639,1.52-4.072,1.678-5.433
					c0.16-1.356,1.037-9.663,0.959-10.3c-0.063-0.481-0.031-1.787-0.012-2.395c0.006-0.198,0.012-0.321,0.012-0.321l4.375-1.835
					l0.576-0.242"/>
				<path fill="none" stroke="#000000" stroke-miterlimit="10" d="M139.359,61.601l-2.717,0.239c0,0-1.518,3.035-2.314,5.03
					c-0.799,1.998-1.678,2.639-4.232,3.834c-2.557,1.199-5.908,2.234-8.387,0.478c-2.473-1.755-3.111-5.988-3.111-5.988
					l-0.082-1.675l-1.135,0.799l-0.223,0.158c0,0-0.322,5.429,1.277,7.106c1.596,1.679,8.146,5.512,12.219,3.195
					c4.07-2.316,5.592-5.03,6.148-6.068C137.363,67.669,139.359,61.601,139.359,61.601l1.117-0.32l5.828,1.837
					c0,0-0.16,3.992-0.078,5.51c0.078,1.517,1.197,8.945,1.518,10.541c0.318,1.6,1.277,3.674,1.277,3.674s0.24-9.264,0.318-10.859
					c0.082-1.596,0.721-7.986,0.721-7.986l-2.238-0.717l-1.518-0.162"/>
				<path fill="none" stroke="#000000" stroke-miterlimit="10" d="M126.74,113.827c0,0-0.051-0.019-0.143-0.051
					c-0.604-0.198-2.959-0.878-3.928,0.371c-1.121,1.437-2.555,5.271-1.359,8.144c1.199,2.877,2.238,4.234,2.795,4.473
					c0.561,0.239,3.516,0.8,4.473,0.96c0.957,0.158,3.434,1.197,3.434,1.197l-2.795-4.551"/>
				<path fill="none" stroke="#000000" stroke-miterlimit="10" d="M132.012,128.921c0,0,0.318-3.514,0.479-4.313
					s1.039-2.873,1.039-2.873"/>
				<path fill="none" stroke="#000000" stroke-miterlimit="10" d="M113.645,129.881l0.08,5.348c0,0,10.941-1.518,17.17-1.995
					c6.229-0.479,13.336-1.357,14.373-1.596c1.037-0.24,6.311-0.8,6.311-0.8l-1.121-6.23"/>
				<path fill="none" stroke="#000000" stroke-miterlimit="10" d="M109.252,66.87L76.75,111.271l-6.148,12.059l7.668-1.518
					l3.99-2.952l1.438-8.386l11.5-10.623l10.941-11.099l4.23-4.152c0,0,0.082-5.351,0-7.188c-0.07-1.634-0.838-8.962-1.004-10.556
					c-0.02-0.193-0.033-0.304-0.033-0.304l3.662-0.079l0.09-0.003"/>
			</g>
		</g>
	</g>
	<g id="kopf">
		<g>
			<polyline fill="#FFFFFF" points="122.934,66.587 123.791,61.627 122.756,53.689 124.654,55.147 131.313,54.811 133.818,52.66 
				134.551,56.999 135.986,60.261 137.525,61.649 			"/>
			<polygon fill="#FFFFFF" points="137.432,61.753 135.869,60.344 134.414,57.021 133.721,52.928 131.367,54.946 124.609,55.289 
				122.883,53.964 123.928,61.67 123.055,66.659 122.814,66.515 123.652,61.586 122.627,53.414 124.697,55.005 131.256,54.672 
				133.914,52.395 134.686,56.957 136.102,60.176 137.619,61.546 			"/>
		</g>
		<g>
			<polyline fill="#FFFFFF" points="122.934,66.587 123.791,61.627 122.756,53.689 124.654,55.147 131.313,54.811 133.818,52.66 
				134.551,56.999 135.986,60.261 137.525,61.649 			"/>
			<polygon points="137.432,61.753 135.869,60.344 134.414,57.021 133.721,52.928 131.367,54.946 124.609,55.289 122.883,53.964 
				123.928,61.67 123.055,66.659 122.814,66.515 123.652,61.586 122.627,53.414 124.697,55.005 131.256,54.672 133.914,52.395 
				134.686,56.957 136.102,60.176 137.619,61.546 			"/>
		</g>
		<path fill="#FFFFFF" d="M112.207,36.392c0,0,2.053-7.978,2.189-8.733c0.135-0.757,2.111-6.801,2.111-6.801l14.412-1.41
			l6.225,5.739l1.713,8.78l0.814,0.381c0,0,2.41,1.499,1.199,2.719c-2.912,2.934-1.318-0.317-1.893,1.434
			c-1.125,3.435-2.168,10.258-2.168,10.258l-3.633,4.257l-1.65,1.669L124.975,55l-8.328-6.741l-2.287-7.628
			c0,0-1.598-0.171-2.193-0.691c-0.596-0.52-0.615-2.198-0.615-2.198L112.207,36.392z"/>
		<path fill="#FFFFFF" d="M131.25,61.607c-0.234,2.069-2.025-5.09-2.025-5.09l4.572-4.462l0.559,5.796
			C134.355,57.852,131.482,59.538,131.25,61.607"/>
		<path fill="#FFFFFF" d="M124.588,20.124l6.303-0.612l6.236,5.427c0,0-5.76-1.166-8.016-1.387c-2.254-0.22-7.621-2.285-7.621-2.285
			l2.18-0.894"/>
		<path fill="#FFFFFF" d="M128.742,47.218c0,0,2.58-1.106,3.271-1.9c0.693-0.793-0.773,1.466-1.82,3.109
			c-1.576,2.472-2.873,2.621-2.873,2.621l-4.143-2.396L128.742,47.218z"/>
		<path fill="#FFFFFF" d="M136.385,33.264c0,0-2.713-1.416-3.938-1.166c-2.27,0.466-3.787,2.248-3.787,2.248
			s1.438,1.644,3.902,1.291C136.572,35.062,136.385,33.264,136.385,33.264z"/>
		
			<ellipse transform="matrix(-0.0673 -0.9977 0.9977 -0.0673 107.5976 168.0419)" fill="#FFFFFF" cx="132.347" cy="33.727" rx="1.583" ry="1.955"/>
		<path fill="#FFFFFF" d="M112.244,36.015l-3.092-11.363c0,0,4.859-8.479,5.406-8.702c0.545-0.225-0.234-1.602-0.234-1.602
			s-1.045-2.604-1.096-3.348c-0.051-0.744,0.182-3.745,0.182-3.745l1.674,1.754l2.656,1.562c0,0-1.121-2.476-1.172-3.219
			c-0.049-0.742,0.527-2.648,0.527-2.648l2.145,2.282l2.576,2.188l0.004-1.741l2.725,2.554l3.875,3.035l-0.832-2.184l-0.209-2.164
			l4.377,3.064l4.494,2.993l6.197,7.919l-3.342,11.3c0,0-1.594-3.938-1.508-5.436c0.086-1.499-0.227-3.344-0.227-3.344l-6.148-5.554
			l-0.496-0.096l-14.076,1.45l-2.613,7.519L112.244,36.015z"/>
		<path fill="#FFFFFF" d="M123.93,34.479c0,0-2.713-1.416-3.936-1.165c-2.27,0.464-3.789,2.247-3.789,2.247s1.439,1.645,3.904,1.291
			C124.117,36.277,123.93,34.479,123.93,34.479z"/>
		
			<ellipse transform="matrix(-0.0666 -0.9978 0.9978 -0.0666 93.2821 157.2877)" fill="#FFFFFF" cx="120.209" cy="35.013" rx="1.583" ry="1.956"/>
		<path fill="#FFFFFF" d="M112.207,36.392c0,0,2.053-7.978,2.189-8.733c0.135-0.757,2.111-6.801,2.111-6.801l14.412-1.41
			l6.225,5.739l1.713,8.78l0.814,0.381c0,0,2.41,1.499,1.199,2.719c-2.912,2.934-1.318-0.317-1.893,1.434
			c-1.125,3.435-2.168,10.258-2.168,10.258l-3.633,4.257l-1.65,1.669L124.975,55l-8.328-6.741l-2.287-7.628
			c0,0-1.598-0.171-2.193-0.691c-0.596-0.52-0.615-2.198-0.615-2.198L112.207,36.392z"/>
		<path fill="#FFFFFF" d="M124.588,20.124l6.303-0.612l6.236,5.427c0,0-5.76-1.166-8.016-1.387c-2.254-0.22-7.621-2.285-7.621-2.285
			l2.18-0.894"/>
		<path fill="#FFFFFF" d="M128.742,47.218c0,0,2.58-1.106,3.271-1.9c0.693-0.793-0.773,1.466-1.82,3.109
			c-1.576,2.472-2.873,2.621-2.873,2.621l-4.143-2.396L128.742,47.218z"/>
		<path fill="#FFFFFF" d="M136.385,33.264c0,0-2.713-1.416-3.938-1.166c-2.27,0.466-3.787,2.248-3.787,2.248
			s1.438,1.644,3.902,1.291C136.572,35.062,136.385,33.264,136.385,33.264z"/>
		
			<ellipse transform="matrix(-0.0673 -0.9977 0.9977 -0.0673 107.5976 168.0419)" fill="#FFFFFF" cx="132.347" cy="33.727" rx="1.583" ry="1.955"/>
		<path fill="#FFFFFF" d="M112.244,36.015l-3.092-11.363c0,0,4.859-8.479,5.406-8.702c0.545-0.225-0.234-1.602-0.234-1.602
			s-1.045-2.604-1.096-3.348c-0.051-0.744,0.182-3.745,0.182-3.745l1.674,1.754l2.656,1.562c0,0-1.121-2.476-1.172-3.219
			c-0.049-0.742,0.527-2.648,0.527-2.648l2.145,2.282l2.576,2.188l0.004-1.741l2.725,2.554l3.875,3.035l-0.832-2.184l-0.209-2.164
			l4.377,3.064l4.494,2.993l6.197,7.919l-3.342,11.3c0,0-1.594-3.938-1.508-5.436c0.086-1.499-0.227-3.344-0.227-3.344l-6.148-5.554
			l-0.496-0.096l-13.918,2.123l-2.502,7.139L112.244,36.015z"/>
		<path fill="#FFFFFF" d="M133.682,12.959l-2.885,1.501l2.43,0.021c0,0-1.424,1.03-2.713,1.305
			c-1.287,0.273-2.896,1.315-2.896,1.315s5.275,0.764,5.809,0.354c0.533-0.409,3.443-1.539,3.443-1.539L133.682,12.959z"/>
		<path fill="#FFFFFF" d="M123.93,34.479c0,0-2.713-1.416-3.936-1.165c-2.27,0.464-3.789,2.247-3.789,2.247s1.439,1.645,3.904,1.291
			C124.117,36.277,123.93,34.479,123.93,34.479z"/>
		
			<ellipse transform="matrix(-0.0666 -0.9978 0.9978 -0.0666 93.2821 157.2877)" fill="#FFFFFF" cx="120.209" cy="35.013" rx="1.583" ry="1.956"/>
		<path d="M129.17,55.102c-1.988,0.135-3.836,0.236-4.135,0.178c-0.516-0.104-7.154-5.778-8.48-6.915l-0.031-0.026l-2.297-7.666
			l0.268-0.08l2.273,7.588c3.133,2.686,7.914,6.7,8.326,6.826c0.131,0.026,0.984,0.049,6.031-0.322
			c0.068-0.004,0.119-0.009,0.15-0.011c0.189-0.13,1.281-1.239,2.777-2.872c1.711-1.866,2.553-2.891,2.619-3.063
			c0.02-0.187,0.279-1.35,0.729-3.355c0.582-2.609,1.465-6.553,1.441-6.854c0,0,0,0.011,0.008,0.025l0.258-0.106
			c0.066,0.164-0.229,1.604-1.436,6.997c-0.367,1.641-0.715,3.188-0.723,3.323c-0.012,0.203-0.924,1.295-2.709,3.242
			c-0.674,0.735-1.359,1.464-1.877,1.997c-0.908,0.935-0.973,0.938-1.041,0.943c-0.021,0.002-0.082,0.007-0.178,0.014
			C130.506,55.01,129.83,55.058,129.17,55.102z"/>
		<path d="M126.771,52.806l-0.092-0.264c0.404-0.139,2.443-0.821,2.938-0.66l-0.086,0.266
			C129.217,52.046,127.672,52.497,126.771,52.806z"/>
		<path d="M123.104,48.627c-0.055,0.003-0.092,0.005-0.107,0.006l-0.018-0.371c0.059-0.003,6.016-0.348,9.09-3.188l0.252,0.273
			C129.34,48.101,123.961,48.568,123.104,48.627z"/>
		<path d="M127.666,51.199c-1.803,0.121-4.666-2.488-4.805-2.615l0.252-0.273c1.02,0.938,3.918,3.186,5.055,2.336
			c0.813-0.606,1.725-2.133,2.459-3.359c0.732-1.228,1.166-1.93,1.521-2.092l0.154,0.34c-0.268,0.121-0.822,1.047-1.357,1.943
			c-0.789,1.32-1.684,2.816-2.555,3.467C128.182,51.102,127.936,51.18,127.666,51.199z"/>
		<path d="M127.029,42.692c-1.352,0.091-1.938-0.82-1.945-0.832l0.314-0.196c0.037,0.056,0.895,1.354,3.133,0.172l0.174,0.33
			C128.051,42.511,127.494,42.66,127.029,42.692z"/>
		<path d="M116.535,35.661l-0.412-0.218c0.023-0.045,0.584-1.087,1.848-1.776c1.158-0.635,3.145-1.078,6.033,0.42l-0.215,0.413
			c-2.162-1.121-4.039-1.268-5.576-0.437C117.066,34.685,116.541,35.651,116.535,35.661z"/>
		<path d="M119.908,36.924c-1.609,0.108-2.596-0.439-2.662-0.478l0.139-0.242c0.025,0.016,2.6,1.429,6.234-0.895l0.15,0.235
			C122.273,36.501,120.957,36.852,119.908,36.924z"/>
		<path d="M128.865,34.455l-0.412-0.22c0.023-0.043,0.586-1.086,1.848-1.776c1.158-0.635,3.145-1.076,6.033,0.421l-0.215,0.413
			c-2.162-1.121-4.039-1.268-5.574-0.437C129.396,33.478,128.871,34.445,128.865,34.455z"/>
		<path d="M132.238,35.717c-1.607,0.107-2.596-0.438-2.662-0.477l0.137-0.242c0.027,0.014,2.602,1.427,6.236-0.895l0.15,0.235
			C134.604,35.293,133.287,35.646,132.238,35.717z"/>
		<g>
			<path d="M123.566,30.771c0,0-4.561-1.186-5.105-0.962c-0.545,0.225-3.307,2.184-3.307,2.184l0.764,0.229
				c0,0,1.85-1.619,2.408-1.656c0.557-0.037,3.723,1.241,4.547,1C123.695,31.321,123.566,30.771,123.566,30.771z"/>
			<path d="M115.951,32.377l-1.109-0.333l0.232-0.166c0.113-0.08,2.781-1.972,3.334-2.198c0.047-0.02,0.104-0.031,0.178-0.035
				c0.941-0.064,4.848,0.946,5.014,0.99l0.082,0.021l0.02,0.082c0,0.006,0.15,0.685-0.789,0.96
				c-0.059,0.017-0.125,0.027-0.199,0.032l0,0c-0.619,0.042-1.811-0.318-2.861-0.638c-0.65-0.197-1.324-0.401-1.518-0.388
				c-0.371,0.024-1.623,1.008-2.324,1.621L115.951,32.377z M115.471,31.941l0.412,0.124c0.359-0.312,1.885-1.604,2.434-1.641
				c0.232-0.016,0.766,0.142,1.617,0.399c0.977,0.298,2.193,0.666,2.76,0.628l0,0c0.055-0.004,0.102-0.011,0.139-0.022
				c0.508-0.148,0.592-0.418,0.6-0.549c-0.619-0.159-4.008-1.014-4.826-0.958c-0.061,0.005-0.086,0.013-0.092,0.016
				C118.127,30.097,116.469,31.236,115.471,31.941z"/>
		</g>
		<g>
			<path d="M128.037,27.854c0,0,4.359-1.788,4.93-1.64c0.568,0.148,3.568,1.719,3.568,1.719l-0.725,0.328
				c0,0-2.051-1.354-2.607-1.316c-0.559,0.037-3.523,1.731-4.373,1.602C127.982,28.418,128.037,27.854,128.037,27.854z"/>
			<path d="M135.797,28.421l-0.063-0.042c-0.779-0.514-2.152-1.318-2.523-1.295c-0.193,0.013-0.832,0.307-1.449,0.589
				c-1,0.458-2.133,0.977-2.75,1.019c-0.076,0.005-0.143,0.003-0.201-0.006c-0.969-0.147-0.912-0.838-0.912-0.846l0.008-0.083
				l0.078-0.032c0.158-0.064,3.893-1.594,4.834-1.656c0.074-0.005,0.135-0.002,0.182,0.011c0.58,0.151,3.477,1.665,3.6,1.73
				l0.252,0.132L135.797,28.421z M133.191,26.807c0.549-0.038,2.234,1.038,2.631,1.297l0.395-0.179
				c-1.086-0.564-2.881-1.47-3.285-1.574c-0.008-0.002-0.033-0.007-0.094-0.003c-0.82,0.055-4.066,1.359-4.656,1.599
				c0.025,0.131,0.143,0.383,0.67,0.463c0.037,0.006,0.086,0.006,0.141,0.003c0.566-0.037,1.723-0.566,2.652-0.992
				C132.453,27.05,132.959,26.822,133.191,26.807z"/>
		</g>
		<path d="M139.461,34.611c-1.309-0.548-2.223-9.345-2.229-9.432c-0.113-0.429-3.938-3.639-6.355-5.586
			c-4.514,0.575-13.168,1.761-14.006,2.177c-0.186,0.093-0.816,1.011-2.635,7.488c-1.002,3.575-1.885,7.131-1.893,7.166
			l-0.271-0.067c0.008-0.035,0.893-3.595,1.895-7.174c2.047-7.297,2.58-7.563,2.779-7.663c1.094-0.544,13.623-2.144,14.156-2.212
			l0.057-0.007l0.049,0.037c0.016,0.013,1.621,1.309,3.215,2.654c3.262,2.762,3.281,3.036,3.289,3.167
			c0.016,0.234,0.256,2.426,0.652,4.67c0.674,3.834,1.207,4.44,1.406,4.522L139.461,34.611z"/>
		<rect x="139.257" y="35.551" transform="matrix(-0.9834 -0.1813 0.1813 -0.9834 269.8631 97.6926)" width="0.28" height="1.918"/>
		<path d="M114.332,40.769c-0.422-0.084-2.543-0.534-2.791-1.214c-0.736-1.991,0.557-3.074,0.57-3.086l0.176,0.218l-0.088-0.108
			l0.088,0.108c-0.047,0.039-1.148,0.973-0.486,2.771c0.154,0.413,1.668,0.856,2.588,1.037L114.332,40.769z"/>
		<path d="M113.498,39.378c-0.191-0.577-0.441-0.935-0.73-1.036c-0.238-0.083-0.426,0.037-0.434,0.042l-0.154-0.233
			c0.012-0.008,0.305-0.201,0.676-0.073c0.379,0.13,0.686,0.538,0.908,1.214L113.498,39.378z"/>
		<path d="M112.063,36.612l-3.059-11.979l0.027-0.049c0.012-0.022,1.268-2.285,2.57-4.514c2.676-4.582,2.93-4.561,3.082-4.549
			c0.072,0.005,0.129,0.051,0.154,0.121l-0.262,0.095c0.006,0.019,0.023,0.042,0.053,0.055c0.031,0.013,0.059,0.007,0.064,0.003
			c-0.455,0.211-3.537,5.535-5.391,8.876l3.031,11.872L112.063,36.612z"/>
		<path d="M139.232,34.201c-0.236-1.589,1.262-5.901,2.252-8.753c0.428-1.228,0.832-2.387,0.82-2.572
			c-0.055-0.525-4.586-5.993-6.301-7.981c-0.457-0.533-5.721-4.086-8.645-6.027c0.035,0.45,0.111,1.313,0.199,1.634
			c0.121,0.448,0.691,2.072,0.699,2.089l0.148,0.422l-0.363-0.262c-0.023-0.018-2.363-1.713-3.418-2.377
			c-0.842-0.527-2.111-2.048-2.672-2.747l0.152,2.238l-0.262-0.257c-0.016-0.017-1.691-1.649-2.252-1.971
			c-0.52-0.297-2.004-2.265-2.453-2.869c-0.133,0.262-0.365,0.829-0.486,1.766c-0.178,1.354,0.975,3.654,0.986,3.677l0.221,0.442
			l-0.42-0.26c-0.014-0.008-1.373-0.846-2.611-1.498c-0.748-0.392-1.133-0.992-1.326-1.442c-0.117,0.898-0.287,2.592-0.08,3.736
			c0.293,1.626,1.943,5.584,1.961,5.624l-0.258,0.107c-0.068-0.164-1.68-4.026-1.979-5.683c-0.299-1.663,0.15-4.333,0.17-4.446
			l0.15-0.885l0.125,0.89c0.002,0.013,0.189,1.233,1.365,1.851c0.842,0.443,1.734,0.969,2.234,1.268
			c-0.334-0.749-0.959-2.33-0.816-3.417c0.188-1.431,0.617-2.039,0.635-2.064l0.113-0.155l0.113,0.154
			c0.539,0.735,2.037,2.701,2.494,2.963c0.455,0.262,1.543,1.28,2.047,1.762l-0.164-2.421l0.281,0.366
			c0.02,0.023,1.84,2.382,2.877,3.036c0.813,0.511,2.373,1.622,3.076,2.127c-0.18-0.521-0.473-1.374-0.559-1.69
			c-0.127-0.466-0.225-1.911-0.23-1.973l-0.018-0.281l0.236,0.156c0.34,0.226,8.326,5.522,8.939,6.235
			c0.064,0.072,6.314,7.386,6.365,8.146c0.016,0.229-0.258,1.032-0.832,2.681c-0.982,2.826-2.467,7.1-2.242,8.621L139.232,34.201z"
			/>
		<path d="M120.336,36.822c-1.051,0.07-1.959-0.664-2.025-1.637c-0.064-0.975,0.734-1.823,1.785-1.895s1.959,0.663,2.023,1.637
			C122.186,35.9,121.385,36.75,120.336,36.822z M120.115,33.569c-0.896,0.062-1.58,0.777-1.525,1.597
			c0.055,0.82,0.83,1.437,1.725,1.376c0.898-0.061,1.582-0.776,1.527-1.596C121.785,34.127,121.01,33.509,120.115,33.569z"/>
		<g>
			<ellipse transform="matrix(-0.0667 -0.9978 0.9978 -0.0667 92.7095 157.689)" cx="120.102" cy="35.487" rx="1.024" ry="1.071"/>
			<path d="M120.184,36.645c-0.668,0.046-1.244-0.438-1.287-1.079c-0.043-0.64,0.465-1.199,1.129-1.243
				c0.666-0.046,1.242,0.439,1.287,1.079C121.355,36.042,120.85,36.6,120.184,36.645z M120.045,34.601
				c-0.512,0.035-0.902,0.459-0.869,0.945c0.033,0.487,0.477,0.854,0.988,0.82c0.514-0.035,0.902-0.459,0.869-0.944
				C121,34.935,120.557,34.566,120.045,34.601z"/>
		</g>
		<circle fill="#FFFFFF" cx="120.295" cy="35.082" r="0.419"/>
		<path d="M132.477,35.596c-1.049,0.071-1.957-0.663-2.023-1.637c-0.066-0.973,0.736-1.822,1.785-1.894s1.959,0.663,2.023,1.637
			C134.328,34.676,133.527,35.525,132.477,35.596z M132.258,32.345c-0.896,0.06-1.582,0.776-1.525,1.596
			c0.055,0.819,0.83,1.437,1.727,1.376s1.58-0.776,1.525-1.596C133.928,32.9,133.154,32.283,132.258,32.345z"/>
		<g>
			
				<ellipse transform="matrix(-0.0677 -0.9977 0.9977 -0.0677 107.0168 168.5205)" cx="132.243" cy="34.261" rx="1.024" ry="1.072"/>
			<path d="M132.326,35.42c-0.666,0.045-1.244-0.44-1.287-1.08c-0.045-0.641,0.463-1.198,1.129-1.243s1.244,0.439,1.287,1.079
				C133.498,34.816,132.992,35.374,132.326,35.42z M132.188,33.375c-0.514,0.035-0.902,0.459-0.869,0.946
				c0.031,0.486,0.475,0.854,0.988,0.819c0.512-0.035,0.902-0.459,0.869-0.945S132.699,33.341,132.188,33.375z"/>
		</g>
		<circle fill="#FFFFFF" cx="132.438" cy="33.856" r="0.419"/>
		<circle fill="#FFFFFF" cx="120.875" cy="35.548" r="0.198"/>
		<path fill="#FFFFFF" d="M133.236,34.27c0.008,0.109-0.074,0.202-0.186,0.211c-0.107,0.006-0.201-0.076-0.211-0.185
			c-0.006-0.109,0.076-0.204,0.186-0.21C133.135,34.078,133.229,34.16,133.236,34.27z"/>
		<path d="M128.52,60.871c-0.443-0.054-0.764-0.225-0.951-0.509c-0.297-0.449-0.137-1.011-0.129-1.034l0.268,0.079l-0.135-0.04
			l0.135,0.04c-0.002,0.005-0.131,0.462,0.098,0.804c0.139,0.212,0.391,0.342,0.748,0.384L128.52,60.871z"/>
		<path fill="#FFFFFF" d="M122.432,66.54c0,0,0.725-1.415,0.801-2.494c0.027-0.369,0.518-1.75,0.42-2.46
			c-0.279-2.021-0.432-2.951-0.52-3.664c-0.189-1.51-0.186-1.607-0.186-1.607l-0.104,0.106l-4.467,4.329L122.432,66.54z"/>
		<path fill="none" stroke="#000000" stroke-miterlimit="10" d="M130.785,70.637c0.223-1.164,1.15-5.187,1.117-5.684
			c-0.033-0.498-0.482-1.967-0.482-1.967"/>
		<path fill="none" stroke="#000000" stroke-miterlimit="10" d="M123.023,56.786l-4.646,3.964c0,0,3.627,4.871,4.713,6.896
			s2.467,4.354,2.467,4.354"/>
		<path fill="#FFFFFF" stroke="#000000" stroke-miterlimit="10" d="M131.498,63.256l4.797-6.496l4.059,4.597
			c0,0-2.174,1.873-2.895,3.021c-0.723,1.147-2.398,3.909-2.398,3.909L131.498,63.256z"/>
		<path fill="#C7C7C7" stroke="#000000" stroke-linecap="square" stroke-linejoin="bevel" stroke-miterlimit="10" d="M118.377,60.75
			l-1.037,6.836c0,0,1.305-2.137,1.969-2.681c0.662-0.545,1.396-0.931,1.396-0.931L118.377,60.75z"/>
		<path d="M138.914,38.78l-0.111-0.271c0.021-0.01,2.139-0.888,2.262-1.972c0.121-1.064-0.256-1.746-1.123-2.025
			c-0.063-0.02-0.178-0.057-0.16-0.184c0.016-0.129,0.119-0.133,0.273-0.141l0.039-0.001l0.002,0.067
			c1.211,0.425,1.355,1.49,1.26,2.317C141.213,37.827,139.008,38.742,138.914,38.78z"/>
	</g>
	<g id="hand">
		<path fill="#FFFFFF" stroke="#000000" stroke-width="0.5" stroke-miterlimit="10" d="M123.373,125.364c0,0-4.42,0.416-6.107,0.562
			s-5.033,1.281-5.586,1.6c-0.553,0.321-1.602,0.757-2.619,0.757s-5.266-0.582-6.576-0.96c-1.309-0.378-4.248-0.961-3.986-1.746
			s1.164-1.688,2.619-2.153c1.455-0.465,8.467-0.32,10.563-0.872c2.096-0.554,10.445-1.893,10.445-1.893"/>
		<g id="XMLID_2_">
			<g>
				<path fill="#FFFFFF" d="M73.619,129.156c-0.088,0.35-0.611,0.551-1.076,0.494c-0.465-0.06-0.959-0.494-0.959-0.494l-0.023-0.003
					c-0.01,0.069-0.021,0.129-0.037,0.176c-0.146,0.438-0.783,0.146-1.018-0.204c-0.232-0.349-0.494-1.338-0.932-2.326
					c-0.438-0.989-0.057-2.299,0.029-3.085c0.086-0.787,1.631-1.863,1.891-2.064c0.262-0.205,7.189-2.651,7.189-2.651l0.084,1.719
					c0,0-1.131,0.555-1.365,0.96c-0.232,0.407-0.145,1.165-0.232,1.571s-0.145,2.823-0.088,3.639
					c0.061,0.813-0.205,1.804-0.641,2.064c-0.436,0.262-1.047-1.252-1.047-1.252l-0.072-0.007c-0.088,0.941-0.418,1.694-0.715,1.898
					C74.23,129.855,73.619,129.156,73.619,129.156z"/>
			</g>
			<g>
				<path fill="none" stroke="#000000" stroke-width="0.5" stroke-miterlimit="10" d="M71.584,129.156c0,0,0.494,0.435,0.959,0.494
					c0.465,0.057,0.988-0.145,1.076-0.494s-0.088-1.834-0.205-2.27c-0.115-0.437-0.289-1.69-0.377-1.951
					c-0.09-0.262-0.205-1.716-0.205-1.716"/>
				<path fill="none" stroke="#000000" stroke-width="0.5" stroke-miterlimit="10" d="M73.619,129.156c0,0,0.611,0.699,0.988,0.435
					c0.297-0.204,0.627-0.957,0.715-1.898c0.025-0.265,0.031-0.548,0.014-0.837c-0.086-1.309-0.291-2.704-0.291-2.704l-0.35-1.427"
					/>
				<path fill="none" stroke="#000000" stroke-width="0.5" stroke-miterlimit="10" d="M75.395,127.699c0,0,0.611,1.514,1.047,1.252
					c0.436-0.261,0.701-1.252,0.641-2.064c-0.057-0.815,0-3.232,0.088-3.639s0-1.164,0.232-1.571c0.234-0.405,1.365-0.96,1.365-0.96
					l-0.084-1.719c0,0-6.928,2.446-7.189,2.651c-0.26,0.201-1.805,1.277-1.891,2.064c-0.086,0.786-0.467,2.096-0.029,3.085
					c0.438,0.988,0.699,1.978,0.932,2.326c0.234,0.35,0.871,0.643,1.018,0.204c0.016-0.047,0.027-0.106,0.037-0.176
					c0.086-0.604-0.012-2.023-0.066-2.442c-0.055-0.466-0.172-2.009-0.172-2.009l-0.088-0.727"/>
			</g>
		</g>
	</g>
	<g id="Ebene_12">
		<path fill="#FFFFFF" stroke="#000000" stroke-width="0.3409" stroke-miterlimit="10" d="M78.855,115.181
			c0,0,0.391,3.216,0.195,4.385c-0.195,1.17-0.293,3.313-0.293,3.313l2.533,0.877l3.314-2.826l-0.486-5.652L78.855,115.181z"/>
		<path fill="#FFFFFF" stroke="#000000" stroke-width="0.5" stroke-miterlimit="10" d="M95.568,104.169
			c0,7.023-4.889,11.793-13.205,11.793c-5.719,0-10.506-3.085-12.941-7.296c-1.105-1.912-3.721-4.351-3.721-6.544
			c0-7.023,8.348-11.596,16.662-11.596c7.498,0,12.211,5.383,13.064,11.59C95.521,102.793,95.568,103.479,95.568,104.169z"/>
		<path fill="#FFFFFF" d="M85.432,101.347c0,0,0.975-2.533,2.631-2.437c1.656,0.098,3.703,0.78,3.996,1.462
			c0.293,0.683,0.389,2.339-1.998,2.827c-2.389,0.486-3.742-0.023-4.043-0.488C85.715,102.248,85.432,101.347,85.432,101.347z"/>
		<path fill="#FFFFFF" d="M73.594,102.025c0,0,0.975-2.534,2.631-2.437s3.703,0.78,3.994,1.462c0.295,0.682,0.391,2.339-1.996,2.826
			c-2.389,0.488-3.742-0.022-4.045-0.487C73.877,102.926,73.594,102.025,73.594,102.025z"/>
		<path fill="#FFFFFF" stroke="#000000" stroke-width="0.75" stroke-miterlimit="10" d="M67.844,105.533
			c0,0-2.436-3.896-1.072-4.774s1.559-0.975,2.631-0.39c0.098-1.462,0.293-1.852,1.266-2.631c-0.193,1.363,0.197,2.143,0.488,2.338
			c0.293,0.195,0.682,1.754,0.779,0.78c-0.098-1.656-0.486-5.262,0.977-7.212c-0.197,1.95,3.703,3.217,5.359,3.217
			c-1.072-1.267-2.924-3.021-2.535-4.289c1.656,1.949,7.406,4.483,9.551,4.679c2.145,0.194,5.068-0.292,7.016-1.853
			c0.799,1.277,1.887,3.857,2.709,5.941c0.393-1.226,0.605-2.514,0.605-3.846c0-7.992-7.525-14.471-16.811-14.471
			s-16.811,6.479-16.811,14.471c0,5.383,3.418,10.077,8.484,12.57L67.844,105.533z"/>
		<path fill="#FFFFFF" stroke="#000000" stroke-width="0.75" stroke-miterlimit="10" d="M64.35,89.799
			c0.582-1.912-1.145-4.217-4.064-5.775c-1.406-0.228-3.111-0.44-3.551-0.222c0.682,0.39,1.363,1.269,1.363,1.269
			s-4.678-0.586-5.943,0.682c1.949,0,3.215,1.754,3.215,1.754s-2.729,0.195-4.384,1.17c2.046,0.291,4.289,0.584,4.289,0.584
			l-3.021,0.195c0,0,0.559,0.918,1.428,1.86c0.406,0.163,0.826,0.313,1.264,0.446C59.396,93.115,63.609,92.237,64.35,89.799z"/>
		<path fill="#FFFFFF" stroke="#000000" stroke-width="0.3409" stroke-miterlimit="10" d="M83.377,110.18
			c-2.359,0-4.422-0.672-5.586-1.679c0,0.034-0.025,0.073-0.008,0.103c0.488,0.827,2.826,2.971,5.215,3.557
			c2.574,0.631,4.834-1.35,5.164-3.098C86.963,109.75,85.266,110.18,83.377,110.18z"/>
		<path fill="none" stroke="#000000" stroke-width="0.3409" stroke-miterlimit="10" d="M84.822,105.333
			c0.223,0.747-0.307,1.566-1.184,1.829c-0.877,0.262-1.768-0.133-1.992-0.881"/>
		<path fill="none" stroke="#000000" stroke-width="0.3409" stroke-miterlimit="10" d="M73.705,101.225
			c0.627-0.971,1.912-1.635,3.396-1.636c0.926,0,1.771,0.258,2.432,0.687"/>
		<path fill="none" stroke="#000000" stroke-width="0.3409" stroke-miterlimit="10" d="M80.654,102.009
			c-0.441,1.258-1.916,2.183-3.666,2.183c-1.287,0-2.424-0.501-3.111-1.266"/>
		<path fill="none" stroke="#000000" stroke-width="0.3409" stroke-miterlimit="10" d="M73.594,99.881"/>
		<path fill="none" stroke="#000000" stroke-width="0.3409" stroke-miterlimit="10" d="M85.32,100.637
			c0.627-0.971,1.912-1.635,3.396-1.635c0.924,0,1.771,0.258,2.43,0.687"/>
		<path fill="none" stroke="#000000" stroke-width="0.3409" stroke-miterlimit="10" d="M92.268,101.421
			c-0.441,1.259-1.916,2.183-3.664,2.183c-1.287,0-2.426-0.501-3.113-1.266"/>
		
			<ellipse fill="#FFFFFF" stroke="#000000" stroke-width="0.3409" stroke-miterlimit="10" cx="77.709" cy="102.384" rx="2.047" ry="1.666"/>
		<ellipse stroke="#000000" stroke-width="0.3409" stroke-miterlimit="10" cx="78.223" cy="102.659" rx="1.314" ry="1.218"/>
		<ellipse fill="#FFFFFF" cx="78.611" cy="102.903" rx="0.537" ry="0.487"/>
		
			<ellipse transform="matrix(-0.0158 -0.9999 0.9999 -0.0158 -10.9706 192.6109)" fill="#FFFFFF" stroke="#000000" stroke-width="0.3409" stroke-miterlimit="10" cx="89.308" cy="101.705" rx="1.666" ry="2.046"/>
		
			<ellipse transform="matrix(-0.0168 -0.9999 0.9999 -0.0168 -10.6207 193.5009)" stroke="#000000" stroke-width="0.3409" stroke-miterlimit="10" cx="89.825" cy="101.972" rx="1.218" ry="1.316"/>
		
			<ellipse transform="matrix(-0.014 -0.9999 0.9999 -0.014 -10.7149 193.8535)" fill="#FFFFFF" cx="90.218" cy="102.209" rx="0.487" ry="0.536"/>
		<path fill="none" stroke="#FFFFFF" stroke-width="0.3409" stroke-miterlimit="10" d="M68.039,101.245c0,0,0.877,0.976,0.779,1.365
			c-0.098,0.389-0.293,0.779-0.293,0.779"/>
		<path fill="#FFFFFF" d="M76.225,92.181c0,0,5.945,4.288,8.965,4.483c3.021,0.195,5.945-1.071,6.627-1.56
			c-2.729,0.098-4.094,0.878-7.016,0.195C81.875,94.617,76.225,92.181,76.225,92.181z"/>
		<path fill="#FFFFFF" d="M78.631,85.007c7.746,0,14.131,3.861,15.023,8.838c0.006-0.115,0.014-0.23,0.014-0.347
			c0-5.141-6.436-9.308-14.375-9.308c-5.07,0-9.527,1.702-12.086,4.272C69.982,86.348,74.068,85.007,78.631,85.007z"/>
	</g>
	<g id="Ebene_7">
		<g id="XMLID_3_">
			<g>
				<path fill="#FFFFFF" d="M122.08,117.218l-0.676,1.354l-0.031-0.017c0,0-2.281-1.259-3.305-1.495s-6.295-1.259-8.893-1.18
					c-2.598,0.078-3.855,0.314-5.273,1.18c-1.416,0.866-3.146,4.093-3.146,4.093l-0.021,0.503l-0.688-0.031
					c0,0-0.078-3.935,2.912-5.43s5.666-2.36,7.947-1.89C113.189,114.777,122.08,117.218,122.08,117.218z"/>
				<path fill="#FFFFFF" d="M121.404,118.571l-0.441,0.881l-0.061-0.032c0,0-4.25-1.651-5.51-1.966c-1.26-0.315-4.957-0.395-7.869,0
					c-2.912,0.392-5.352,4.17-5.352,4.17l-0.004,0.098l-1.434-0.066l0.021-0.503c0,0,1.73-3.227,3.146-4.093
					c1.418-0.865,2.676-1.102,5.273-1.18c2.598-0.079,7.869,0.943,8.893,1.18s3.305,1.495,3.305,1.495L121.404,118.571z"/>
				<path fill="#FFFFFF" d="M120.963,119.452l-0.219,0.44c0,0-5.43-1.888-7.635-1.652c-2.203,0.236-6.768,0.943-7.789,1.811
					c-1.023,0.865-1.889,1.73-1.889,1.73l-1.264-0.06l0.004-0.098c0,0,2.439-3.778,5.352-4.17c2.912-0.395,6.609-0.315,7.869,0
					c1.26,0.314,5.508,1.966,5.508,1.966L120.963,119.452z"/>
				<path fill="#FFFFFF" d="M97.854,119.182c1.07,0.378,1.918,0.806,2.271,1.262c-0.172,0.391-0.336,0.725-0.486,1.004
					c-0.168-0.15-0.561-0.462-1.244-0.688c-0.943-0.315-6.924-1.023-8.342-0.787c-1.416,0.235-4.643,2.597-5.664,3.54
					c-1.023,0.945-4.172,2.598-4.172,2.598c-0.395-0.551-0.631-2.125-1.023-2.282c0,0,2.598-0.079,3.305-0.787
					c0.121-0.119,0.363-0.343,0.699-0.635c1.67-1.448,5.598-4.56,7.564-4.56C92.363,117.846,95.596,118.392,97.854,119.182z"/>
				<path fill="#FFFFFF" d="M98.395,120.759c0.684,0.227,1.076,0.538,1.244,0.688c-0.096,0.18-0.186,0.337-0.268,0.479
					c-0.16-0.02-0.4-0.058-0.662-0.146c-0.471-0.157-4.328-0.629-5.9-0.629c-1.574,0-5.037,1.651-6.297,2.281
					c-1.258,0.63-4.721,4.249-4.721,4.249l0.02,0.051c-1.053,0.39-1.672,0.579-1.672,0.579s0.473-1.652,0.078-2.203
					c0,0,3.148-1.652,4.172-2.598c1.021-0.943,4.248-3.305,5.664-3.54C91.471,119.735,97.451,120.443,98.395,120.759z"/>
				<path fill="#FFFFFF" d="M98.709,121.781c0.262,0.088,0.502,0.126,0.662,0.146c-0.51,0.844-0.818,1.034-0.818,1.034
					s-5.51-1.494-7.713-0.157c-2.203,1.338-3.541,2.598-6.217,3.778c-1.111,0.491-2.07,0.871-2.813,1.151l-0.02-0.051
					c0,0,3.463-3.619,4.721-4.249c1.26-0.63,4.723-2.281,6.297-2.281C94.381,121.152,98.238,121.624,98.709,121.781z"/>
				<path fill="#C7C7C7" d="M97.854,119.182c-2.258-0.79-5.49-1.336-7.092-1.336c-1.967,0-5.895,3.111-7.564,4.56l-3.059-2.276
					c0,0,1.887-1.652,7.475-3.227C92.422,115.549,96.818,118.328,97.854,119.182z"/>
			</g>
			<g>
				<path fill="none" stroke="#000000" stroke-width="0.3409" stroke-miterlimit="10" d="M100.734,121.655l-0.688-0.031
					c0,0-0.078-3.935,2.912-5.43s5.666-2.36,7.947-1.89c2.283,0.473,11.174,2.913,11.174,2.913l-0.676,1.354l-0.441,0.881
					l-0.219,0.44c0,0-5.43-1.888-7.635-1.652c-2.201,0.236-6.766,0.943-7.789,1.811c-1.023,0.865-1.889,1.73-1.889,1.73l-1.262-0.06
					L100.734,121.655z"/>
				<path fill="none" stroke="#000000" stroke-width="0.3409" stroke-miterlimit="10" d="M80.217,126.109
					c-0.395-0.551-0.631-2.125-1.023-2.282c0,0,2.598-0.079,3.305-0.787c0.121-0.119,0.363-0.343,0.699-0.635
					c1.67-1.448,5.598-4.56,7.564-4.56c1.602,0,4.834,0.546,7.092,1.336c1.07,0.378,1.918,0.806,2.271,1.262
					c-0.172,0.391-0.336,0.725-0.486,1.004c-0.096,0.18-0.186,0.337-0.268,0.479c-0.51,0.844-0.818,1.034-0.818,1.034
					s-5.51-1.494-7.713-0.157c-2.203,1.338-3.541,2.598-6.217,3.778c-1.111,0.491-2.07,0.871-2.813,1.151
					c-1.053,0.39-1.672,0.579-1.672,0.579S80.611,126.66,80.217,126.109z"/>
				<path fill="none" stroke="#000000" stroke-width="0.3409" stroke-miterlimit="10" d="M98.08,119.42
					c0.021-0.009-0.057-0.097-0.227-0.238c-1.035-0.854-5.432-3.633-10.24-2.279c-5.588,1.574-7.475,3.227-7.475,3.227l3.059,2.276
					l0.01,0.005"/>
				<path fill="none" stroke="#000000" stroke-width="0.3409" stroke-miterlimit="10" d="M80.217,126.109
					c0,0,3.148-1.652,4.172-2.598c1.021-0.943,4.248-3.305,5.664-3.54c1.418-0.236,7.398,0.472,8.342,0.787
					c0.684,0.227,1.076,0.538,1.244,0.688c0.066,0.06,0.094,0.099,0.094,0.099"/>
				<path fill="none" stroke="#000000" stroke-width="0.3409" stroke-miterlimit="10" d="M81.791,127.683
					c0,0,3.463-3.619,4.721-4.249c1.26-0.63,4.723-2.281,6.297-2.281c1.572,0,5.43,0.472,5.9,0.629
					c0.262,0.088,0.502,0.126,0.662,0.146c0.129,0.011,0.203,0.011,0.203,0.011"/>
				<path fill="none" stroke="#000000" stroke-width="0.3409" stroke-miterlimit="10" d="M102.172,121.624
					c0,0,2.439-3.778,5.352-4.17c2.912-0.395,6.609-0.315,7.869,0c1.26,0.314,5.508,1.966,5.508,1.966"/>
				<path fill="none" stroke="#000000" stroke-width="0.3409" stroke-miterlimit="10" d="M100.756,121.152
					c0,0,1.73-3.227,3.146-4.093c1.418-0.865,2.676-1.102,5.273-1.18c2.598-0.079,7.869,0.943,8.893,1.18s3.305,1.495,3.305,1.495"
					/>
			</g>
		</g>
	</g>
	<g id="buch">
		
			<ellipse transform="matrix(-0.1834 -0.983 0.983 -0.1834 -1.9577 244.5319)" fill="#FFFFFF" stroke="#000000" stroke-width="0.3409" stroke-miterlimit="10" cx="100.59" cy="123.079" rx="1.534" ry="2.597"/>
		<g>
			
				<rect x="102.802" y="120.136" transform="matrix(0.9882 -0.1534 0.1534 0.9882 -17.2254 18.9902)" fill="#FFFFFF" stroke="#000000" stroke-width="0.5" stroke-miterlimit="10" width="23.293" height="1.966"/>
			
				<rect x="86.348" y="116.685" transform="matrix(-0.2959 -0.9552 0.9552 -0.2959 -8.7301 248.7993)" fill="#FFFFFF" stroke="#000000" stroke-width="0.5" stroke-miterlimit="10" width="1.967" height="21.865"/>
		</g>
		<g>
			<g>
				<path fill="#FFFFFF" stroke="#000000" stroke-width="0.5" stroke-miterlimit="10" d="M100.226,126.009
					c-0.788,0-1.561-0.228-2.237-0.668c-0.923-0.6-1.556-1.522-1.783-2.599l2.668-0.564c0.077,0.363,0.291,0.675,0.603,0.877
					c0.312,0.203,0.682,0.271,1.046,0.195c0.751-0.158,1.232-0.897,1.074-1.647l2.668-0.564c0.47,2.222-0.956,4.411-3.177,4.88
					C100.8,125.979,100.512,126.009,100.226,126.009z"/>
			</g>
		</g>
	</g>
	<g id="hand_x5F_re">
		<path fill="#FFFFFF" stroke="#000000" stroke-width="0.3409" stroke-miterlimit="10" d="M93.182,132.917l2.338-6.627
			c0,0,5.166,11.694,5.652,13.352c0.488,1.656,2.047,5.066,2.047,5.359c0,0.291-5.555,6.335-7.504,8.867
			c-1.949,2.535-6.336,8.575-6.822,9.551c-0.486,0.975-2.826,4.19-3.508,4.872c-0.682,0.683-1.656,1.365-1.852,1.072
			s-0.098-1.072-0.098-1.072s-1.561,0.293-1.363-0.097c0.195-0.391,0.193-0.878,0.193-0.878s-1.559,0.097-1.559-0.194
			c0-0.293,0.779-1.462,0.779-1.462s-1.754-0.585-1.559-1.364c0.193-0.779,2.338-1.949,3.508-2.437s3.41-3.216,6.043-7.113
			c2.631-3.898,6.332-8.382,6.82-8.967c0.488-0.583,1.17-1.461,1.17-1.461L93.182,132.917z"/>
		
			<line fill="none" stroke="#000000" stroke-width="0.3409" stroke-miterlimit="10" x1="97.469" y1="144.318" x2="98.932" y2="143.246"/>
	</g>
	<g id="Ebene_19">
		<g>
			<path fill="#FFFFFF" stroke="#000000" stroke-miterlimit="10" d="M100.635,91.624l1.811-0.659l5.498,6.681l-1.738,0.63
				l-1.076-1.391l-2.824,1.025l0.053,1.765l-1.674,0.609L100.635,91.624z M102.262,96.431l1.963-0.713l-2.066-2.664L102.262,96.431z
				"/>
		</g>
		<g>
			<path fill="#FFFFFF" stroke="#000000" stroke-miterlimit="10" d="M115.764,100.58c0.205,0.374,0.281,0.801,0.223,1.281
				c-0.059,0.494-0.23,0.877-0.516,1.146c-0.16,0.152-0.385,0.282-0.674,0.389c0.396,0.199,0.678,0.475,0.85,0.825
				c0.172,0.353,0.23,0.759,0.176,1.226c-0.059,0.479-0.23,0.896-0.516,1.247c-0.184,0.236-0.398,0.425-0.648,0.569
				c-0.281,0.167-0.604,0.268-0.965,0.298c-0.359,0.03-0.744,0.021-1.158-0.027l-3.648-0.435l0.965-8.098l3.914,0.466
				C114.752,99.601,115.418,99.971,115.764,100.58z M111.301,100.601l-0.213,1.785l1.969,0.234c0.352,0.042,0.645,0.009,0.879-0.098
				c0.236-0.107,0.373-0.332,0.416-0.672c0.043-0.378-0.072-0.645-0.348-0.8c-0.24-0.114-0.555-0.194-0.941-0.241L111.301,100.601z
				 M110.928,103.727l-0.258,2.158l1.967,0.234c0.352,0.043,0.629,0.027,0.838-0.044c0.375-0.134,0.592-0.45,0.652-0.948
				c0.049-0.42-0.088-0.73-0.414-0.93c-0.18-0.11-0.445-0.188-0.791-0.233L110.928,103.727z"/>
		</g>
		<g>
			<path fill="#FFFFFF" stroke="#000000" stroke-miterlimit="10" d="M99.406,103.934c0.658-0.672,1.494-1.007,2.508-1.007
				c1.357,0,2.35,0.449,2.979,1.349c0.346,0.506,0.533,1.014,0.559,1.522h-1.705c-0.107-0.391-0.248-0.686-0.418-0.885
				c-0.303-0.354-0.752-0.532-1.348-0.532c-0.609,0-1.088,0.25-1.438,0.75c-0.352,0.5-0.525,1.208-0.525,2.122
				s0.186,1.6,0.555,2.056s0.84,0.683,1.41,0.683c0.584,0,1.029-0.195,1.336-0.586c0.17-0.21,0.311-0.525,0.422-0.946h1.693
				c-0.145,0.89-0.52,1.611-1.119,2.17c-0.6,0.557-1.369,0.835-2.307,0.835c-1.162,0-2.072-0.377-2.736-1.129
				c-0.664-0.756-0.996-1.792-0.996-3.11C98.273,105.802,98.652,104.704,99.406,103.934z"/>
		</g>
	</g>
</g>
</svg>
