<?xml version="1.0" encoding="utf-8"?>
<!-- Generator: Adobe Illustrator 16.0.0, SVG Export Plug-In . SVG Version: 6.00 Build 0)  -->
<!DOCTYPE svg PUBLIC "-//W3C//DTD SVG 1.1//EN" "http://www.w3.org/Graphics/SVG/1.1/DTD/svg11.dtd">
<svg version="1.1" id="Calque_1" xmlns="http://www.w3.org/2000/svg" xmlns:xlink="http://www.w3.org/1999/xlink" x="0px" y="0px"
	 width="250px" height="250px" viewBox="0 0 250 250" enable-background="new 0 0 250 250" xml:space="preserve">
<g>
	<g id="Ebene_1_1_">
		<g>
			<path fill="#FFFFFF" d="M126.521,51.613c0,0,1.688,3.938,1.691,5.217c0.001,1.283-0.59,4.879-0.59,4.879l3.368,6.59l3.086,2.045
				l1.007,0.639l1.157,0.172l1.439-0.26l1.195-1.729l0.543-7.572c0,0-2.913-1.309-2.982-1.691c-0.068-0.381-0.407-4.654-0.407-4.654
				s-8.288-3.908-8.221-4.07c0.069-0.166-1.094,0.557-1.094,0.557L126.521,51.613z"/>
			<g>
				<path fill="#FFFFFF" d="M127.238,52.1l5.203,3.148c0,0-1.281-0.4-1.952,0.945c-0.672,1.344-0.649,3.893-0.649,3.893
					s-1.181,0.305-1.273,1.008c-0.093,0.707-0.695-0.08-0.695-0.08s0.278-1.484,0.372-3.43c0.04-0.855-0.24-2.051-0.569-3.123
					c-0.419-1.367-0.914-2.533-0.914-2.533L127.238,52.1z"/>
				<path fill="#FFFFFF" d="M128.368,61.527c-0.265,0-0.553-0.357-0.606-0.432l-0.038-0.047l0.012-0.061
					c0.001-0.016,0.277-1.498,0.368-3.412c0.035-0.711-0.156-1.744-0.563-3.074c-0.413-1.344-0.905-2.508-0.91-2.52l-0.123-0.291
					l0.805,0.289l6.177,3.74l-1.09-0.342c0,0-0.161-0.049-0.393-0.049c-0.425,0-1.012,0.162-1.393,0.924
					c-0.648,1.299-0.636,3.807-0.636,3.832l0.002,0.107l-0.104,0.027c-0.304,0.078-1.105,0.393-1.172,0.893
					C128.658,61.475,128.473,61.527,128.368,61.527L128.368,61.527z M128.02,60.977c0.115,0.137,0.273,0.273,0.349,0.273
					c0.003,0,0.004,0,0.004,0s0.038-0.027,0.057-0.172c0.088-0.664,0.966-1,1.271-1.098c0.006-0.502,0.057-2.633,0.665-3.85
					c0.417-0.838,1.068-1.037,1.496-1.072l-4.682-2.834l-0.174-0.061c0.173,0.432,0.508,1.299,0.801,2.258
					c0.417,1.359,0.611,2.424,0.574,3.168C128.3,59.301,128.072,60.67,128.02,60.977z"/>
			</g>
			<path fill="#FFFFFF" d="M137.287,62.908c-0.003-0.014-0.466-1.488-0.83-2.4c-0.376-0.936-0.56-4.438-0.566-4.586l0.277-0.014
				c0.001,0.035,0.188,3.604,0.547,4.498c0.369,0.92,0.833,2.404,0.838,2.42L137.287,62.908z"/>
			<path fill="#FFFFFF" d="M135.468,63.43c-0.39-0.391-0.908-3.018-0.965-3.316l0.272-0.053c0.213,1.094,0.641,2.924,0.888,3.172
				L135.468,63.43z"/>
			<path fill="#FFFFFF" d="M116.55,41.227l-0.627,2.826c0,0,0.572,1.025,1.774,1.607c1.203,0.582,3.07,0.887,3.07,0.887l3.085,2.768
				c0,0,1.464,1.52,1.972,1.863c0.51,0.342,5.627,3.439,5.788,3.525c0.161,0.084,2.754,1.547,3.954,1.162
				c1.2-0.387,1.813-1.018,2.355-1.68c0.541-0.666,4.291-5.639,4.291-5.639s2.182-3.545,2.472-4.057
				c0.292-0.514,1.038-2.674,0.951-4.088c-0.088-1.416-0.46-2.764-0.736-3.414c-0.277-0.652-1.488-3.135-1.615-3.396
				c-0.126-0.262-0.4-1.383-0.317-1.793c0.085-0.412,0.066-0.789,0.066-0.789l-11.208-1.105c0,0-8.414-3.408-8.498-3.412
				c-0.084-0.008-0.879,4.047-0.879,4.047s-0.399,1.201-0.515,1.369c-0.115,0.17-1.87,3.01-1.993,3.279
				c-0.122,0.271-0.789,1.789-0.738,2.652c0.053,0.861,0.533,3.395,1.206,4.424c0.675,1.031,1.932,2.178,1.932,2.178
				s-1.587-0.029-2.036-0.203C119.856,44.063,116.55,41.227,116.55,41.227z"/>
			<g>
				<path fill="#FFFFFF" d="M130.99,47.664l5.146,0.371l2.685-0.371c0,0-1.501,2.256-1.774,2.379
					c-0.272,0.125-3.971-0.281-3.971-0.281L130.99,47.664z"/>
				<path d="M136.776,50.111c-0.906,0-3.679-0.301-3.707-0.303l-0.015-0.004l-2.186-2.197l5.267,0.381l2.782-0.385l-0.059,0.086
					c-0.155,0.232-1.515,2.27-1.793,2.396C137.037,50.098,136.979,50.111,136.776,50.111z M133.098,49.717
					c0.23,0.025,2.813,0.303,3.679,0.303c0.188,0,0.239-0.014,0.252-0.02c0.185-0.082,1.095-1.375,1.698-2.275l-2.588,0.357h-0.004
					l-5.025-0.363L133.098,49.717z"/>
			</g>
			<g>
				<path fill="#FFFFFF" d="M142.898,31.24c0,0-3.31,0.326-4.486,0.146c-1.177-0.178-4.893-0.844-6.441-1.273
					c-1.55-0.434-5.255-1.619-5.255-1.619l4.572,2.516c0,0,6.871,1.783,7.429,1.686c0.559-0.098,3.802,0,3.802,0l0.418-0.143
					L142.898,31.24z"/>
				<path fill="#FFFFFF" d="M138.659,32.84c-0.866,0-7.14-1.629-7.406-1.697l-0.031-0.014l-4.574-2.512l0.109-0.256
					c0.038,0.012,3.722,1.189,5.251,1.617c1.52,0.424,5.239,1.092,6.424,1.271c0.229,0.035,0.558,0.053,0.983,0.053
					c1.424,0,3.451-0.197,3.472-0.201l0.147-0.014l0.044,1.564l-0.539,0.184h-0.024c-0.015,0-1.452-0.043-2.565-0.043
					c-0.805,0-1.101,0.023-1.21,0.041C138.718,32.838,138.69,32.84,138.659,32.84z M131.34,30.879
					c0.368,0.096,6.51,1.682,7.319,1.682c0.013,0,0.024,0,0.033-0.002c0.175-0.029,0.586-0.043,1.257-0.043
					c1.036,0,2.351,0.035,2.549,0.041l0.296-0.102l-0.029-1.061c-0.497,0.045-2.138,0.186-3.35,0.186
					c-0.438,0-0.782-0.02-1.023-0.055c-1.228-0.186-4.903-0.846-6.46-1.279c-0.938-0.264-2.688-0.807-3.91-1.191L131.34,30.879z"/>
			</g>
			<path fill="#FFFFFF" stroke="#000000" stroke-width="0.5" stroke-miterlimit="10" d="M120.408,21.66c0,0-0.07-0.904,0.177-1.156
				c2.098-2.135,6.891-3.795,6.891-3.795s4.661-1.467,7.429-1.014c2.542,0.414,3.22-0.191,6.541,1.676
				c0.74,0.416-0.051,2.154,0.986,2.875c2.293,1.6,6.352,7.402,6.525,9.418c0.433,5.016,0.437,6.42,0.313,7.961
				c-0.173,2.154-0.006,2.645-0.312,4.328c-0.304,1.686-2.373,12.631-2.399,12.805c-0.025,0.176-0.173,3.824-0.173,3.824
				s0.348,2.154,1.298,4.285c0.664,1.488,1.814,4.096,2.443,4.674c0.631,0.576-0.031,0.143-0.031,0.143l-4.453-2.43l-5.11-2.441
				l-0.922-0.432c0,0-1.127-1.248-1.348-1.367c-0.222-0.119-1.77-1.299-1.77-1.299l-0.356-2.238l-0.108-1.563
				c0,0,0.761-0.342,0.989-0.623c0.23-0.281,2.745-3.363,2.745-3.363l2.992-4.195l1.771-2.975c0,0,0.906-1.65,1.006-3.004
				c0.104-1.354,0.152-2.695-0.24-3.732c-0.393-1.035-1.529-3.561-1.655-3.785c-0.125-0.227-0.69-1.221-0.68-1.83
				c0.01-0.609,0.211-1.252,0.211-1.252s-2.836,0.441-4.347,0.301c-1.51-0.139-5.92-1.127-5.92-1.127s-4.915-1.352-5.358-1.52
				c-0.446-0.166-4.217-1.814-4.217-1.814l-0.615,2.229l-0.712,2.576c0,0-1.345,2.057-1.414,2.178
				c-0.071,0.119-1.373,2.338-1.35,3.359c0.022,1.023,0.208,3.197,0.923,4.463c0.715,1.264,2.181,2.643,2.181,2.643
				s-1.57,0.066-2.493-0.342c-0.924-0.406-3.297-2.93-3.297-2.93l-0.557,1.924c0,0-0.313,0.797,0.24,1.395
				c0.552,0.598,1.868,1.441,2.379,1.637c0.511,0.197,2.393,0.637,2.393,0.637s1.051,1.006,1.31,1.254
				c0.26,0.25,2.421,2.238,2.609,2.441c0.189,0.203,1.791,1.275,1.791,1.275l0.907,2.727c0,0,0.514,1.92,0.5,2.627
				c-0.017,0.703,0,1.635,0,1.635s-1.42,1.75-1.601,1.887c-0.181,0.139-1.247,1.264-1.247,1.264l0.069,0.439l-0.717,0.674
				c0,0-1.746,1.969-1.965,2.486c-0.22,0.518-0.835,2.029-0.603,2.627c0.231,0.6,0.548,1.113,0.868,0.832
				c0.319-0.283,0.72-1.375,0.72-1.375l0.171,0.838c0,0-0.271,1.533-0.846,1.6c-0.573,0.068-1.243,0.096-1.679-0.408
				s-0.727-2.158-0.727-2.158l-0.084-1.115l-1.534,1.514l-1.541,1.914l0.827-4.383l-1.604,2.873c0,0,0.438-4.256,0.374-5.361
				c-0.065-1.105-0.739-7.627-0.952-8.75c-0.212-1.125-0.871-3.518-1.289-4.605c-0.421-1.088-1.87-4.832-2.081-5.432
				c-0.21-0.598-1.23-3.303-1.401-5.205c-0.173-1.898-0.2-4.598,0.161-6.18c0.362-1.58,0.839-3.785,1.68-5.047
				c0.842-1.262,2.692-3.393,3.584-4.109c0.889-0.717,2.616-1.879,2.616-1.879S119.774,21.264,120.408,21.66z"/>
			<g>
				<path fill="#FFFFFF" d="M124.33,37.879c0.11,1.406,1.792,2.523,3.854,2.523c1.273,0,2.401-0.428,3.104-1.086
					c-0.891-1.264-2.479-2.105-4.296-2.105C126.017,37.211,125.104,37.457,124.33,37.879z"/>
				<path d="M128.184,40.541c-2.124,0-3.876-1.164-3.992-2.65l-0.007-0.09l0.08-0.043c0.819-0.449,1.762-0.686,2.729-0.686
					c1.806,0,3.453,0.809,4.408,2.164l0.069,0.1l-0.088,0.082C130.621,40.133,129.455,40.541,128.184,40.541z M124.478,37.957
					c0.169,1.299,1.771,2.305,3.706,2.305c1.133,0,2.214-0.357,2.918-0.963c-0.913-1.223-2.438-1.947-4.107-1.947
					C126.104,37.352,125.238,37.561,124.478,37.957z"/>
			</g>
			<g>
				<path fill="#FFFFFF" d="M140.379,35.266c-2.197,0.65-3.697,2.242-3.572,3.689c0.769,0.086,1.634,0.012,2.512-0.248
					c2.197-0.65,3.7-2.24,3.575-3.688C142.124,34.936,141.259,35.008,140.379,35.266z"/>
				<path d="M137.438,39.127L137.438,39.127c-0.219,0-0.437-0.012-0.646-0.035l-0.113-0.014l-0.01-0.113
					c-0.133-1.525,1.445-3.172,3.673-3.832c0.643-0.189,1.289-0.287,1.919-0.287c0.22,0,0.438,0.012,0.648,0.037l0.112,0.012
					l0.01,0.113c0.135,1.525-1.445,3.174-3.672,3.834C138.717,39.031,138.07,39.127,137.438,39.127z M136.938,38.828
					c0.164,0.014,0.331,0.021,0.499,0.021c0.605,0,1.225-0.092,1.843-0.275c2.044-0.605,3.514-2.063,3.48-3.428
					c-0.163-0.014-0.331-0.021-0.501-0.021c-0.604,0-1.225,0.092-1.841,0.275C138.373,36.006,136.904,37.463,136.938,38.828z"/>
			</g>
			<g>
				<path fill="#FFFFFF" d="M127.525,36.424c1.123,0,2.033,0.871,2.033,1.943c0,1.074-0.91,1.943-2.033,1.943
					c-1.12,0-2.029-0.869-2.029-1.943C125.496,37.295,126.405,36.424,127.525,36.424z"/>
				<path d="M127.525,40.451c-1.195,0-2.168-0.936-2.168-2.084s0.973-2.082,2.168-2.082c1.198,0,2.172,0.934,2.172,2.082
					C129.696,39.516,128.724,40.451,127.525,40.451z M127.525,36.563c-1.041,0-1.89,0.809-1.89,1.805s0.849,1.805,1.89,1.805
					c1.045,0,1.894-0.809,1.894-1.805S128.57,36.563,127.525,36.563z"/>
			</g>
			<g>
				<ellipse fill="#FFFFFF" cx="138.817" cy="36.841" rx="2.065" ry="1.856"/>
				<path d="M138.817,38.836c-1.215,0-2.204-0.895-2.204-1.994s0.989-1.996,2.204-1.996c1.217,0,2.206,0.896,2.206,1.996
					S140.034,38.836,138.817,38.836z M138.817,35.125c-1.062,0-1.926,0.77-1.926,1.717s0.864,1.717,1.926,1.717
					c1.063,0,1.928-0.77,1.928-1.717S139.88,35.125,138.817,35.125z"/>
			</g>
			<path fill="#FFFFFF" d="M121.766,44.631c-0.779,0-2.207-0.225-3.698-1.596c-2.146-1.973-2.683-3.359-2.705-3.418l0.261-0.098
				c0.006,0.014,0.543,1.391,2.633,3.311c1.574,1.449,3.09,1.549,3.732,1.512c-0.311-0.252-0.844-0.725-1.381-1.379
				c-0.899-1.09-1.432-2.783-1.539-4.896c-0.107-2.088,1.744-4.771,2.535-5.92c0.085-0.123,0.157-0.23,0.215-0.314
				c0.557-0.836,1.19-4.551,1.197-4.588l0.272,0.047c-0.024,0.154-0.648,3.811-1.239,4.695c-0.058,0.086-0.131,0.191-0.216,0.318
				c-0.776,1.123-2.591,3.754-2.487,5.748c0.105,2.051,0.617,3.689,1.477,4.734c0.789,0.959,1.591,1.535,1.599,1.541l0.251,0.18
				l-0.302,0.068C122.343,44.584,122.123,44.631,121.766,44.631z"/>
			<path d="M117.18,70.254l0.643-3.807l-1.162,2.197l-0.251-0.119c0,0,0.229-0.615,0.454-3.092
				c0.236-2.615-0.607-10.014-1.215-12.664c-0.357-1.561-0.987-3.158-1.716-5.008c-0.571-1.451-1.22-3.098-1.878-5.074
				c-1.516-4.545-1.461-8.689,0.174-13.436c1.596-4.627,7.316-7.932,7.373-7.965l0.055-0.031l0.617,0.211l0.012-0.828l0.278,0.004
				l-0.017,1.211l-0.861-0.293c-0.581,0.344-5.716,3.492-7.193,7.783c-1.615,4.684-1.668,8.773-0.174,13.254
				c0.657,1.969,1.304,3.613,1.875,5.063c0.73,1.859,1.364,3.465,1.726,5.047c0.611,2.666,1.462,10.115,1.223,12.75
				c-0.09,0.992-0.182,1.689-0.259,2.172l1.503-2.836l-0.749,4.432c2.508-3.164,2.711-3.164,2.788-3.164
				c0.202,0,0.214,0.219,0.251,0.869c0.053,0.918,0.151,2.631,0.948,2.848c1.317,0.359,1.681,0.041,1.919-0.719
				c0.109-0.354,0.149-0.689,0.159-0.967c-0.167,0.414-0.427,0.875-0.776,0.988c-0.144,0.045-0.366,0.055-0.618-0.166
				c-0.969-0.84,0.038-3.264,0.494-4.008c0.468-0.758,1.82-2.113,1.878-2.172l0.195,0.197c-0.014,0.014-1.386,1.391-1.837,2.121
				c-0.472,0.768-1.326,2.979-0.549,3.652c0.127,0.107,0.241,0.145,0.35,0.109c0.366-0.117,0.695-0.975,0.816-1.486l0.142-0.6
				l0.13,0.602c0.007,0.035,0.178,0.859-0.12,1.813c-0.317,1.021-0.931,1.266-2.258,0.904c-0.989-0.27-1.09-2.043-1.151-3.102
				c-0.011-0.189-0.021-0.396-0.038-0.529c-0.41,0.389-1.705,1.965-2.843,3.408L117.18,70.254z"/>
			<path fill="#FFFFFF" d="M139.455,31.605c-0.377,0-0.688-0.01-0.881-0.021c-0.871-0.059-5.629-1.041-8.263-1.744
				c-2.576-0.688-5.588-1.918-7.005-2.861c-1.412-0.941-2.892-4.664-2.952-4.822l0.258-0.102c0.015,0.035,1.509,3.799,2.849,4.691
				c1.394,0.93,4.371,2.145,6.922,2.826c2.623,0.697,7.35,1.678,8.211,1.734c0.952,0.064,3.99-0.016,4.514-0.275l0.123,0.248
				C142.75,31.52,140.732,31.605,139.455,31.605z"/>
			<path d="M135.184,56.025c-0.324,0-0.689-0.039-1.098-0.135c-1.975-0.465-5.802-2.986-5.963-3.094
				c-0.108-0.063-2.805-1.641-3.735-2.57c-0.859-0.859-3.138-3.037-3.444-3.33c-0.305-0.035-1.92-0.256-3.318-1.117l-0.17-0.105
				c-1.368-0.838-1.881-1.154-1.635-2.418c0.191-0.984,0.323-1.307,0.39-1.412c0.03-0.098,0.122-0.383,0.241-0.498l0.195,0.199
				c-0.058,0.057-0.139,0.27-0.176,0.398l-0.015,0.049l-0.017,0.01c-0.027,0.047-0.152,0.307-0.345,1.307
				c-0.211,1.076,0.152,1.297,1.506,2.129l0.17,0.105c1.462,0.898,3.23,1.08,3.249,1.08l0.047,0.006l0.034,0.033
				c0.025,0.025,2.564,2.449,3.484,3.367c0.904,0.906,3.656,2.514,3.685,2.531c0.045,0.029,3.953,2.605,5.88,3.059
				c1.81,0.426,2.699-0.357,2.767-0.422l3.59-4.4c0.109-0.158,3.147-4.502,4.105-6.361c0.897-1.742,1-3.945,0.798-5.43
				c-0.167-1.219-1.734-4.449-2.246-5.344c-0.489-0.859-0.37-1.996-0.24-2.326l0.26,0.104c-0.111,0.273-0.208,1.33,0.223,2.084
				c0.471,0.822,2.1,4.129,2.279,5.445c0.209,1.525,0.101,3.797-0.826,5.596c-0.98,1.898-4.098,6.354-4.13,6.396l-0.005,0.008
				l-3.608,4.422C137.086,55.422,136.463,56.025,135.184,56.025z"/>
			<g>
				<path fill="#FFFFFF" d="M130.231,47.342c0,0,0.066,0.018,0.177,0.045c0.387,0.092,1.292,0.303,1.563,0.303
					c0.347,0,3.133-0.637,3.887-0.406c0.755,0.234,0.406,0.35,0.755,0.234c0.348-0.117,0.695-0.348,1.102-0.406
					c0.407-0.059,1.393,0.521,1.393,0.521s-0.348,0.406-0.754,0.465c-0.405,0.059-2.264,0.348-3.423,0.23l-3.007-0.277
					L130.231,47.342z"/>
				<path d="M135.548,48.496c-0.234,0-0.447-0.01-0.631-0.027l-3.026-0.281l-1.714-0.717l0.087-0.262c0,0,0.07,0.016,0.179,0.043
					c0.779,0.188,1.351,0.301,1.529,0.301c0.089,0,0.412-0.057,0.787-0.123c0.758-0.133,1.904-0.334,2.624-0.334
					c0.224,0,0.393,0.02,0.518,0.057c0.384,0.117,0.505,0.213,0.569,0.266c0.022-0.006,0.059-0.018,0.1-0.031
					c0.119-0.041,0.243-0.098,0.372-0.156c0.234-0.107,0.476-0.217,0.754-0.258c0.025-0.002,0.053-0.004,0.082-0.004
					c0.461,0,1.307,0.49,1.401,0.545l0.143,0.084l-0.108,0.127c-0.015,0.018-0.388,0.445-0.84,0.512l-0.092,0.012
					C137.816,48.314,136.587,48.496,135.548,48.496z M131.957,47.914l2.985,0.277c0.178,0.018,0.38,0.025,0.605,0.025
					c1.019,0,2.234-0.178,2.693-0.244l0.092-0.014c0.217-0.029,0.421-0.182,0.547-0.295c-0.309-0.166-0.832-0.418-1.103-0.418
					c-0.016,0-0.03,0-0.044,0.002c-0.236,0.035-0.46,0.137-0.678,0.236c-0.13,0.059-0.265,0.119-0.399,0.166
					c-0.111,0.037-0.158,0.051-0.209,0.051c-0.076,0-0.121-0.037-0.15-0.064c-0.042-0.035-0.131-0.111-0.479-0.219
					c-0.097-0.029-0.242-0.045-0.436-0.045c-0.696,0-1.827,0.199-2.576,0.332c-0.476,0.082-0.726,0.125-0.835,0.125
					c-0.067,0-0.168-0.012-0.287-0.029L131.957,47.914z"/>
			</g>
			<g>
				<path fill="#FFFFFF" d="M130.32,47.457c0,0,1.75,2.633,3.491,3.33c1.739,0.695,2.745,0.479,3.723-0.797
					c0.222-0.289,0.554-0.719,0.722-1.029c0.506-0.943,0.756-1.229,0.756-1.229s-0.309,0.184-0.781,0.748
					c-0.348,0.418-1.12,1.17-1.81,1.293c-1.624,0.289-2.026,0.033-3.014-0.432c-0.468-0.221-1.188-0.656-1.813-1.055
					C130.9,47.848,130.32,47.457,130.32,47.457z"/>
				<path d="M135.478,51.314c-0.483,0-1.044-0.129-1.718-0.398c-1.761-0.705-3.482-3.275-3.556-3.385
					c-0.037-0.055-0.027-0.129,0.019-0.174c0.047-0.047,0.121-0.055,0.176-0.018c0.007,0.004,0.586,0.398,1.271,0.832
					c0.794,0.504,1.418,0.863,1.798,1.045l0.167,0.078c0.586,0.277,0.971,0.461,1.633,0.461c0.306,0,0.675-0.039,1.13-0.121
					c0.637-0.111,1.386-0.834,1.728-1.244c0.483-0.576,0.804-0.771,0.816-0.777c0.06-0.037,0.134-0.023,0.178,0.029
					s0.042,0.127-0.001,0.182c-0.002,0-0.249,0.293-0.739,1.203c-0.165,0.305-0.476,0.709-0.702,1.006l-0.033,0.043
					C136.986,50.932,136.318,51.314,135.478,51.314z M130.888,47.998c0.625,0.814,1.813,2.193,2.976,2.66
					c0.64,0.256,1.167,0.379,1.614,0.379c0.746,0,1.346-0.348,1.945-1.131l0.031-0.043c0.223-0.289,0.524-0.684,0.679-0.969
					c0.047-0.084,0.09-0.164,0.131-0.238c-0.253,0.283-1.046,1.115-1.818,1.254c-0.477,0.086-0.852,0.125-1.179,0.125
					c-0.725,0-1.155-0.205-1.753-0.488l-0.166-0.08c-0.397-0.186-1.011-0.543-1.828-1.063
					C131.291,48.26,131.075,48.121,130.888,47.998z"/>
			</g>
			<g>
				<path d="M136.166,30.363c0,0-1.044,0.926-0.871,1.451c0.175,0.521,0.233,0.869,0.93,0.348c0.694-0.523,1.218-1.625,1.218-1.625
					L136.166,30.363z"/>
				<path d="M135.696,32.557L135.696,32.557c-0.303,0-0.399-0.295-0.503-0.607l-0.029-0.094c-0.199-0.59,0.795-1.496,0.91-1.598
					l0.047-0.043l1.528,0.209l-0.083,0.172c-0.021,0.047-0.544,1.139-1.26,1.678C136.045,32.471,135.855,32.557,135.696,32.557z
					 M136.211,30.51c-0.375,0.344-0.885,0.955-0.782,1.26l0.03,0.094c0.095,0.289,0.146,0.418,0.237,0.418l0,0
					c0.063,0,0.191-0.041,0.445-0.23c0.499-0.377,0.914-1.08,1.087-1.402L136.211,30.51z"/>
			</g>
			<g>
				<path d="M121.875,34.346c0,0,1.857-3.713,4.235-3.307c2.379,0.406,4.874,1.336,4.295,2.031c-0.58,0.697-1.625,0.406-1.916,0.117
					c-0.289-0.289-1.102-0.93-1.565-0.988c-0.465-0.057-1.219-0.58-2.205,0.176c-0.986,0.754-1.973,1.334-2.32,1.74
					C122.049,34.521,121.875,34.346,121.875,34.346z"/>
				<path d="M121.987,34.521c-0.126,0-0.197-0.064-0.209-0.076l-0.071-0.072l0.044-0.088c0.069-0.139,1.734-3.416,3.995-3.416
					c0.129,0,0.261,0.01,0.388,0.031c1.632,0.281,4.166,0.986,4.464,1.793c0.061,0.162,0.031,0.324-0.088,0.465
					c-0.33,0.398-0.769,0.48-1.076,0.48c-0.451,0-0.865-0.178-1.043-0.355c-0.303-0.303-1.079-0.896-1.484-0.945
					c-0.112-0.014-0.238-0.051-0.368-0.092c-0.214-0.064-0.456-0.137-0.728-0.137c-0.349,0-0.678,0.121-1.008,0.375
					c-0.389,0.297-0.78,0.568-1.126,0.811c-0.522,0.363-0.975,0.676-1.174,0.91C122.323,34.416,122.149,34.521,121.987,34.521z
					 M125.746,31.146c-1.766,0-3.211,2.307-3.626,3.041c0.046-0.031,0.104-0.084,0.172-0.164c0.224-0.26,0.665-0.566,1.226-0.957
					c0.344-0.24,0.732-0.51,1.116-0.803c0.382-0.291,0.767-0.434,1.177-0.434c0.313,0,0.587,0.084,0.808,0.15
					c0.125,0.039,0.234,0.07,0.323,0.082c0.542,0.068,1.396,0.775,1.647,1.025c0.133,0.135,0.487,0.275,0.845,0.275
					c0.25,0,0.603-0.068,0.864-0.383c0.054-0.064,0.066-0.121,0.04-0.193c-0.191-0.52-2.1-1.242-4.25-1.611
					C125.976,31.156,125.86,31.146,125.746,31.146z"/>
			</g>
			<g>
				<path d="M143.634,33.533c0.082-0.109,0.167-0.273,0.25-0.463c-0.485,0.063-0.985,0.094-1.497,0.094
					c-0.32,0-0.766-0.012-1.074-0.035c-2.862,0.719-4.757,2.486-4.757,4.555c0,0.352,0.06,0.699,0.173,1.031
					c0.041-0.014,0.083-0.027,0.124-0.039c-0.048-1.418,1.434-2.949,3.579-3.582c0.878-0.26,1.745-0.334,2.513-0.248
					c0.011,0.135,0.009,0.271-0.007,0.408c0.564-0.547,1.054-1.131,1.457-1.746C143.923,33.695,143.426,33.813,143.634,33.533z"/>
				<path d="M136.64,38.885l-0.044-0.127c-0.119-0.354-0.181-0.715-0.181-1.074c0-2.107,1.909-3.947,4.861-4.691l0.023-0.004h0.022
					c0.318,0.025,0.764,0.037,1.064,0.037c0.494,0,0.992-0.031,1.48-0.094l0.242-0.029l-0.098,0.223
					c-0.079,0.18-0.151,0.318-0.22,0.424c0.133-0.023,0.334-0.086,0.55-0.172l0.41-0.164l-0.241,0.369
					c-0.407,0.621-0.903,1.217-1.477,1.771l-0.279,0.27l0.044-0.385c0.011-0.09,0.016-0.18,0.013-0.266
					c-0.163-0.014-0.331-0.023-0.499-0.023c-0.604,0-1.226,0.094-1.842,0.277c-2.03,0.6-3.524,2.08-3.479,3.443l0.003,0.107
					l-0.15,0.045c-0.026,0.008-0.052,0.018-0.077,0.025L136.64,38.885z M141.324,33.268c-2.813,0.715-4.63,2.445-4.63,4.416
					c0,0.182,0.017,0.363,0.052,0.547c0.23-1.361,1.681-2.689,3.646-3.271c0.642-0.189,1.288-0.285,1.92-0.285
					c0.219,0,0.438,0.012,0.647,0.035l0.112,0.014l0.01,0.111c0.003,0.025,0.005,0.051,0.006,0.074
					c0.352-0.363,0.67-0.742,0.953-1.131c-0.125,0.035-0.249,0.061-0.346,0.061c-0.144,0-0.203-0.061-0.23-0.113
					c-0.039-0.078-0.02-0.17,0.058-0.273c0.039-0.053,0.083-0.125,0.128-0.215c-0.417,0.045-0.842,0.068-1.264,0.068
					C142.088,33.303,141.648,33.291,141.324,33.268z"/>
			</g>
			<g>
				<ellipse cx="138.533" cy="37.182" rx="1.484" ry="1.377"/>
				<path d="M138.533,38.697c-0.897,0-1.624-0.68-1.624-1.516s0.727-1.514,1.624-1.514c0.896,0,1.625,0.678,1.625,1.514
					S139.43,38.697,138.533,38.697z M138.533,35.945c-0.743,0-1.347,0.555-1.347,1.236c0,0.684,0.604,1.238,1.347,1.238
					c0.742,0,1.345-0.555,1.345-1.238C139.878,36.5,139.275,35.945,138.533,35.945z"/>
			</g>
			<path d="M131.288,39.316c0,0-1.476-4.252-3.689-4.127c-2.212,0.129-3.226,0.662-3.802,0.576
				c-0.577-0.084-1.095-0.225-1.095-0.225s0.089,0.584,0.245,0.998c0.154,0.414,0.49,0.662,0.49,0.662s-0.358,0.215-0.761,0.139
				c-0.403-0.078-0.092,0.693,0.312,0.77c0.403,0.078,1.266,0.234,1.266,0.234l0.152-0.602c0.792-0.387,1.714-0.588,2.69-0.541
				C128.909,37.287,130.458,38.014,131.288,39.316z"/>
			<g>
				<ellipse cx="127.474" cy="39.059" rx="1.307" ry="1.219"/>
				<path d="M127.476,40.416c-0.797,0-1.445-0.609-1.445-1.357c0-0.75,0.648-1.359,1.445-1.359s1.442,0.609,1.442,1.359
					C128.918,39.807,128.272,40.416,127.476,40.416z M127.476,37.979c-0.645,0-1.167,0.484-1.167,1.08
					c0,0.594,0.522,1.08,1.167,1.08c0.643,0,1.166-0.486,1.166-1.08C128.642,38.463,128.118,37.979,127.476,37.979z"/>
			</g>
			<path fill="#FFFFFF" d="M127.128,38.047c0.229,0,0.416,0.188,0.416,0.416s-0.188,0.412-0.416,0.412
				c-0.228,0-0.412-0.184-0.412-0.412S126.9,38.047,127.128,38.047z"/>
			<circle fill="#FFFFFF" cx="138.821" cy="36.799" r="0.41"/>
			<circle fill="#FFFFFF" cx="127.794" cy="38.194" r="0.171"/>
			<circle fill="#FFFFFF" cx="139.552" cy="37.096" r="0.242"/>
			<g>
				<ellipse fill="#FFFFFF" cx="120.408" cy="46.413" rx="0.975" ry="0.882"/>
				<path fill="#FFFFFF" d="M120.408,47.338c-0.562,0-1.019-0.414-1.019-0.926s0.457-0.928,1.019-0.928
					c0.563,0,1.021,0.416,1.021,0.928S120.972,47.338,120.408,47.338z M120.408,45.576c-0.512,0-0.927,0.375-0.927,0.836
					c0,0.459,0.415,0.834,0.927,0.834s0.927-0.375,0.927-0.834C121.335,45.951,120.92,45.576,120.408,45.576z"/>
			</g>
			
				<linearGradient id="SVGID_1_" gradientUnits="userSpaceOnUse" x1="129.665" y1="-3926.54" x2="144.6445" y2="-3926.54" gradientTransform="matrix(1 0 0 -1 0.04 -3904.8809)">
				<stop  offset="0" style="stop-color:#FFFFFF;stop-opacity:0"/>
				<stop  offset="0.0099" style="stop-color:#FFFFFF;stop-opacity:0.0278"/>
				<stop  offset="0.059" style="stop-color:#FFFFFF;stop-opacity:0.1659"/>
				<stop  offset="0.1128" style="stop-color:#FFFFFF;stop-opacity:0.317"/>
				<stop  offset="0.1728" style="stop-color:#FFFFFF;stop-opacity:0.4858"/>
				<stop  offset="0.2442" style="stop-color:#FFFFFF;stop-opacity:0.6862"/>
				<stop  offset="0.3558" style="stop-color:#FFFFFF"/>
				<stop  offset="0.535" style="stop-color:#FFFFFF;stop-opacity:0.8551"/>
				<stop  offset="0.5996" style="stop-color:#FFFFFF;stop-opacity:0.8029"/>
				<stop  offset="0.6456" style="stop-color:#FFFFFF;stop-opacity:0.7657"/>
				<stop  offset="0.6825" style="stop-color:#FFFFFF;stop-opacity:0.7358"/>
				<stop  offset="0.714" style="stop-color:#FFFFFF;stop-opacity:0.7103"/>
				<stop  offset="0.7178" style="stop-color:#FFFFFF;stop-opacity:0.7073"/>
				<stop  offset="1" style="stop-color:#FFFFFF;stop-opacity:0"/>
			</linearGradient>
			<path fill="url(#SVGID_1_)" d="M132.916,18.045c6.189,0.557,11.057,4.121,11.745,8.301c0.016-0.197,0.023-0.396,0.023-0.6
				c0-4.844-4.536-8.773-10.131-8.773c-1.757,0-3.409,0.387-4.849,1.068C130.737,17.949,131.813,17.947,132.916,18.045z"/>
			<path fill="#FFFFFF" d="M145.24,63.781c-2.462-2.516-3.249-5.842-2.007-7.895c-0.079,0.078-0.156,0.162-0.229,0.248
				c-1.783,2.088-1.273,5.447,1.136,7.506c0.757,0.645,1.61,1.086,2.483,1.322C146.142,64.623,145.679,64.229,145.24,63.781z"/>
			<path fill="#FFFFFF" d="M141.279,61.377c-1.911-1.955-2.521-4.535-1.56-6.129c-0.06,0.061-0.12,0.125-0.177,0.191
				c-1.384,1.621-0.99,4.23,0.881,5.826c0.588,0.502,1.25,0.846,1.927,1.029C141.979,62.031,141.619,61.725,141.279,61.377z"/>
			<path fill="#FFFFFF" d="M120.925,53.939c2.141,3.719,2.4,7.604,0.765,9.279c0.095-0.051,0.19-0.107,0.281-0.17
				c2.205-1.486,2.238-5.293,0.076-8.498c-0.681-1.008-1.495-1.836-2.361-2.451C120.127,52.662,120.544,53.279,120.925,53.939z"/>
			<path fill="#FFFFFF" d="M118.184,55.174c1.692,5.324,1.668,10.01,0.072,11.26c0.092-0.02,0.18-0.045,0.266-0.076
				c2.1-0.775,2.385-5.24,0.639-9.971c-0.549-1.484-1.233-2.818-1.976-3.928C117.547,53.316,117.883,54.227,118.184,55.174z"/>
			
				<linearGradient id="SVGID_2_" gradientUnits="userSpaceOnUse" x1="124.8848" y1="-3928.1846" x2="143.5967" y2="-3928.1846" gradientTransform="matrix(1 0 0 -1 0.04 -3904.8809)">
				<stop  offset="0" style="stop-color:#FFFFFF;stop-opacity:0"/>
				<stop  offset="0.0099" style="stop-color:#FFFFFF;stop-opacity:0.0278"/>
				<stop  offset="0.059" style="stop-color:#FFFFFF;stop-opacity:0.1659"/>
				<stop  offset="0.1128" style="stop-color:#FFFFFF;stop-opacity:0.317"/>
				<stop  offset="0.1728" style="stop-color:#FFFFFF;stop-opacity:0.4858"/>
				<stop  offset="0.2442" style="stop-color:#FFFFFF;stop-opacity:0.6862"/>
				<stop  offset="0.3558" style="stop-color:#FFFFFF"/>
				<stop  offset="0.535" style="stop-color:#FFFFFF;stop-opacity:0.8551"/>
				<stop  offset="0.5996" style="stop-color:#FFFFFF;stop-opacity:0.8029"/>
				<stop  offset="0.6456" style="stop-color:#FFFFFF;stop-opacity:0.7657"/>
				<stop  offset="0.6825" style="stop-color:#FFFFFF;stop-opacity:0.7358"/>
				<stop  offset="0.714" style="stop-color:#FFFFFF;stop-opacity:0.7103"/>
				<stop  offset="0.7178" style="stop-color:#FFFFFF;stop-opacity:0.7073"/>
				<stop  offset="1" style="stop-color:#FFFFFF;stop-opacity:0"/>
			</linearGradient>
			<path fill="url(#SVGID_2_)" d="M143.637,27.34c-0.003-0.201-0.016-0.398-0.038-0.6c-0.016-0.148-0.038-0.295-0.064-0.438
				c-0.035-0.412-0.151-0.809-0.334-1.182c-1.514-3.912-6.75-6.408-12.629-5.748c-2.09,0.232-4.011,0.838-5.646,1.709
				c1.218-0.23,2.498-0.375,3.816-0.424c3.552-0.131,6.82,0.463,9.403,1.561c-0.279-0.023-0.563-0.037-0.853-0.035
				c-1.081,0.008-2.094,0.209-2.976,0.559c0.635-0.051,1.295-0.057,1.971-0.012c2.16,0.143,4.06,0.773,5.38,1.676
				C142.619,25.279,143.299,26.268,143.637,27.34z"/>
			
				<linearGradient id="SVGID_3_" gradientUnits="userSpaceOnUse" x1="123.2871" y1="-3932.4561" x2="143.458" y2="-3932.4561" gradientTransform="matrix(1 0 0 -1 0.04 -3904.8809)">
				<stop  offset="0" style="stop-color:#FFFFFF;stop-opacity:0"/>
				<stop  offset="0.0099" style="stop-color:#FFFFFF;stop-opacity:0.0278"/>
				<stop  offset="0.059" style="stop-color:#FFFFFF;stop-opacity:0.1659"/>
				<stop  offset="0.1128" style="stop-color:#FFFFFF;stop-opacity:0.317"/>
				<stop  offset="0.1728" style="stop-color:#FFFFFF;stop-opacity:0.4858"/>
				<stop  offset="0.2442" style="stop-color:#FFFFFF;stop-opacity:0.6862"/>
				<stop  offset="0.3558" style="stop-color:#FFFFFF"/>
				<stop  offset="0.535" style="stop-color:#FFFFFF;stop-opacity:0.8551"/>
				<stop  offset="0.5996" style="stop-color:#FFFFFF;stop-opacity:0.8029"/>
				<stop  offset="0.6456" style="stop-color:#FFFFFF;stop-opacity:0.7657"/>
				<stop  offset="0.6825" style="stop-color:#FFFFFF;stop-opacity:0.7358"/>
				<stop  offset="0.714" style="stop-color:#FFFFFF;stop-opacity:0.7103"/>
				<stop  offset="0.7178" style="stop-color:#FFFFFF;stop-opacity:0.7073"/>
				<stop  offset="1" style="stop-color:#FFFFFF;stop-opacity:0"/>
			</linearGradient>
			<path fill="url(#SVGID_3_)" d="M143.239,30.523c-2.814,0.109-6.116-0.209-9.57-1.006c-4.085-0.941-7.688-2.393-10.342-4.033
				l0.062,0.063c0.233-0.244,0.308-0.57,0.308-0.906l-0.11-0.035c2.655,1.641,6.257,3.092,10.344,4.033
				c3.453,0.797,6.755,1.115,9.568,1.006l-0.148,0.01c0.001,0.318-0.267,0.551-0.275,0.875"/>
			<path d="M135.667,43.498c-0.369,0-0.733-0.066-1.05-0.193l0.104-0.258c0.284,0.113,0.611,0.174,0.946,0.174
				c0.991,0,1.8-0.514,1.8-1.145c0-0.293-0.18-0.574-0.505-0.789l0.152-0.232c0.406,0.27,0.631,0.631,0.631,1.023
				C137.745,42.861,136.813,43.498,135.667,43.498z"/>
			
				<linearGradient id="SVGID_4_" gradientUnits="userSpaceOnUse" x1="118.9434" y1="-3939.731" x2="119.4724" y2="-3931.1721" gradientTransform="matrix(1 0 0 -1 0.04 -3904.8809)">
				<stop  offset="0" style="stop-color:#FFFFFF;stop-opacity:0"/>
				<stop  offset="0.0099" style="stop-color:#FFFFFF;stop-opacity:0.0278"/>
				<stop  offset="0.059" style="stop-color:#FFFFFF;stop-opacity:0.1659"/>
				<stop  offset="0.1128" style="stop-color:#FFFFFF;stop-opacity:0.317"/>
				<stop  offset="0.1728" style="stop-color:#FFFFFF;stop-opacity:0.4858"/>
				<stop  offset="0.2442" style="stop-color:#FFFFFF;stop-opacity:0.6862"/>
				<stop  offset="0.3558" style="stop-color:#FFFFFF"/>
				<stop  offset="0.535" style="stop-color:#FFFFFF;stop-opacity:0.8551"/>
				<stop  offset="0.5996" style="stop-color:#FFFFFF;stop-opacity:0.8029"/>
				<stop  offset="0.6456" style="stop-color:#FFFFFF;stop-opacity:0.7657"/>
				<stop  offset="0.6825" style="stop-color:#FFFFFF;stop-opacity:0.7358"/>
				<stop  offset="0.714" style="stop-color:#FFFFFF;stop-opacity:0.7103"/>
				<stop  offset="0.7178" style="stop-color:#FFFFFF;stop-opacity:0.7073"/>
				<stop  offset="1" style="stop-color:#FFFFFF;stop-opacity:0"/>
			</linearGradient>
			<path fill="url(#SVGID_4_)" d="M118.281,36.041c-0.385-0.953-0.571-2.119-0.484-3.365c0.121-1.756,0.759-3.285,1.652-4.232
				c0,0-1.606,3.959-0.837,3.799c0.771-0.162,1.715-3.854,1.715-3.854c0.41,1.238,0.342,2.891-0.288,4.535
				c-0.448,1.166-1.108,2.145-1.858,2.848"/>
			
				<ellipse transform="matrix(0.4607 -0.8876 0.8876 0.4607 27.708 145.6706)" fill="#FFFFFF" cx="133.717" cy="50.036" rx="0.289" ry="0.707"/>
			
				<ellipse transform="matrix(0.4608 -0.8875 0.8875 0.4608 28.069 146.8694)" fill="#FFFFFF" cx="134.908" cy="50.334" rx="0.2" ry="0.489"/>
			<path opacity="0.48" fill="#FFFFFF" enable-background="new    " d="M120.632,46.016c0.359,0.146,0.565,0.498,0.521,0.832
				c0.035-0.045,0.065-0.096,0.089-0.15c0.158-0.383-0.057-0.832-0.476-1.006c-0.421-0.174-0.89-0.006-1.048,0.373
				c-0.022,0.059-0.037,0.113-0.044,0.172C119.879,45.967,120.272,45.865,120.632,46.016z"/>
			
				<linearGradient id="SVGID_5_" gradientUnits="userSpaceOnUse" x1="124.7549" y1="-3929.0542" x2="140.8046" y2="-3931.4934" gradientTransform="matrix(1 0 0 -1 0.04 -3904.8809)">
				<stop  offset="0" style="stop-color:#FFFFFF;stop-opacity:0"/>
				<stop  offset="0.0099" style="stop-color:#FFFFFF;stop-opacity:0.0278"/>
				<stop  offset="0.059" style="stop-color:#FFFFFF;stop-opacity:0.1659"/>
				<stop  offset="0.1128" style="stop-color:#FFFFFF;stop-opacity:0.317"/>
				<stop  offset="0.1728" style="stop-color:#FFFFFF;stop-opacity:0.4858"/>
				<stop  offset="0.2442" style="stop-color:#FFFFFF;stop-opacity:0.6862"/>
				<stop  offset="0.3558" style="stop-color:#FFFFFF"/>
				<stop  offset="0.535" style="stop-color:#FFFFFF;stop-opacity:0.8551"/>
				<stop  offset="0.5996" style="stop-color:#FFFFFF;stop-opacity:0.8029"/>
				<stop  offset="0.6456" style="stop-color:#FFFFFF;stop-opacity:0.7657"/>
				<stop  offset="0.6825" style="stop-color:#FFFFFF;stop-opacity:0.7358"/>
				<stop  offset="0.714" style="stop-color:#FFFFFF;stop-opacity:0.7103"/>
				<stop  offset="0.7178" style="stop-color:#FFFFFF;stop-opacity:0.7073"/>
				<stop  offset="1" style="stop-color:#FFFFFF;stop-opacity:0"/>
			</linearGradient>
			<path fill="url(#SVGID_5_)" d="M140.881,26.949c-2.313,0.16-4.996-0.094-7.771-0.816c-3.278-0.855-6.127-2.223-8.186-3.795h0.011
				c0.032,0.332,0.303,1.008-0.278,0.973l-0.011-0.008c2.058,1.572,4.907,2.939,8.188,3.795c0.395,0.104,0.792,0.199,1.191,0.283
				c0.39,0.084,0.783,0.16,1.177,0.229c0.384,0.063,0.769,0.121,1.153,0.168c0.375,0.047,0.751,0.084,1.128,0.113
				c0.366,0.029,0.73,0.049,1.098,0.061c0.354,0.01,0.706,0.014,1.06,0.006c0.174-0.004,0.346-0.01,0.516-0.018
				c0.085-0.004,0.169-0.008,0.254-0.014c0.042,0,0.083-0.004,0.125-0.006c0.03-0.002,0.091,0.002,0.049-0.039
				c-0.012-0.012-0.031-0.016-0.041-0.033c-0.042-0.057-0.047-0.141-0.043-0.209c0.005-0.08,0.025-0.156,0.043-0.236
				c0.008-0.035,0.009-0.063,0.023-0.098c0.021-0.051,0.062-0.096,0.094-0.143c0.019-0.025,0.04-0.057,0.063-0.08
				c0.013-0.012,0.028-0.023,0.042-0.037c0.016-0.016,0.036-0.031,0.053-0.045c0.02-0.016,0.038-0.039,0.06-0.047"/>
			
				<linearGradient id="SVGID_6_" gradientUnits="userSpaceOnUse" x1="117.1514" y1="-3939.8042" x2="117.1514" y2="-3931.6326" gradientTransform="matrix(1 0 0 -1 0.04 -3904.8809)">
				<stop  offset="0" style="stop-color:#FFFFFF;stop-opacity:0"/>
				<stop  offset="0.0099" style="stop-color:#FFFFFF;stop-opacity:0.0278"/>
				<stop  offset="0.059" style="stop-color:#FFFFFF;stop-opacity:0.1659"/>
				<stop  offset="0.1128" style="stop-color:#FFFFFF;stop-opacity:0.317"/>
				<stop  offset="0.1728" style="stop-color:#FFFFFF;stop-opacity:0.4858"/>
				<stop  offset="0.2442" style="stop-color:#FFFFFF;stop-opacity:0.6862"/>
				<stop  offset="0.3558" style="stop-color:#FFFFFF"/>
				<stop  offset="0.535" style="stop-color:#FFFFFF;stop-opacity:0.8551"/>
				<stop  offset="0.5996" style="stop-color:#FFFFFF;stop-opacity:0.8029"/>
				<stop  offset="0.6456" style="stop-color:#FFFFFF;stop-opacity:0.7657"/>
				<stop  offset="0.6825" style="stop-color:#FFFFFF;stop-opacity:0.7358"/>
				<stop  offset="0.714" style="stop-color:#FFFFFF;stop-opacity:0.7103"/>
				<stop  offset="0.7178" style="stop-color:#FFFFFF;stop-opacity:0.7073"/>
				<stop  offset="1" style="stop-color:#FFFFFF;stop-opacity:0"/>
			</linearGradient>
			<path fill="url(#SVGID_6_)" d="M117.303,34.963c-0.386,0-0.771,0-1.159,0l0.132,0.166c-0.385-0.953-0.569-2.119-0.484-3.365
				c0.117-1.684,0.705-3.154,1.539-4.107l0.021,0.078c0.475,0,0.852,0.006,1.251,0.137l0.011-0.223
				c-0.893,0.947-1.53,2.477-1.652,4.234c-0.086,1.244,0.101,2.41,0.484,3.363"/>
			
				<linearGradient id="SVGID_7_" gradientUnits="userSpaceOnUse" x1="114.7803" y1="-3938.667" x2="115.1869" y2="-3930.3552" gradientTransform="matrix(1 0 0 -1 0.04 -3904.8809)">
				<stop  offset="0" style="stop-color:#FFFFFF;stop-opacity:0"/>
				<stop  offset="0.0099" style="stop-color:#FFFFFF;stop-opacity:0.0278"/>
				<stop  offset="0.059" style="stop-color:#FFFFFF;stop-opacity:0.1659"/>
				<stop  offset="0.1128" style="stop-color:#FFFFFF;stop-opacity:0.317"/>
				<stop  offset="0.1728" style="stop-color:#FFFFFF;stop-opacity:0.4858"/>
				<stop  offset="0.2442" style="stop-color:#FFFFFF;stop-opacity:0.6862"/>
				<stop  offset="0.3558" style="stop-color:#FFFFFF"/>
				<stop  offset="0.535" style="stop-color:#FFFFFF;stop-opacity:0.8551"/>
				<stop  offset="0.5996" style="stop-color:#FFFFFF;stop-opacity:0.8029"/>
				<stop  offset="0.6456" style="stop-color:#FFFFFF;stop-opacity:0.7657"/>
				<stop  offset="0.6825" style="stop-color:#FFFFFF;stop-opacity:0.7358"/>
				<stop  offset="0.714" style="stop-color:#FFFFFF;stop-opacity:0.7103"/>
				<stop  offset="0.7178" style="stop-color:#FFFFFF;stop-opacity:0.7073"/>
				<stop  offset="1" style="stop-color:#FFFFFF;stop-opacity:0"/>
			</linearGradient>
			<path fill="url(#SVGID_7_)" d="M113.503,34.082c0.353,0,0.711-0.01,1.061,0.008c0.007,0.107,0.031,0.26,0.006,0.365l0.031,0.131
				c-0.296-1.082-0.351-2.371-0.1-3.711c0.354-1.891,1.239-3.469,2.327-4.383l-0.08,0.035c-0.277-0.225-0.867-0.244-1.252-0.232
				l0.11-0.031c-1.024,0.928-1.851,2.451-2.19,4.262c-0.251,1.342-0.197,2.629,0.1,3.713"/>
			<path d="M150.109,67.779c-0.167-0.271-4.083-6.646-3.906-10.188c0.181-3.586,0.691-5.92,1.23-8.391
				c0.653-2.975,1.392-6.348,1.655-12.578c0.316-7.479-2.518-12.471-5.899-15.996c-2.532-2.643-4.816-4.813-9.179-4.813
				c-4.973,0-9.79,1.771-13.564,4.988l-0.181-0.211c3.826-3.262,8.707-5.055,13.745-5.055c4.442,0,6.085,2.391,8.674,5.09
				c3.434,3.584,7.002,8.451,6.682,16.006c-0.265,6.258-1.006,9.643-1.66,12.627c-0.539,2.459-1.045,4.781-1.226,8.346
				c-0.172,3.455,3.824,9.963,3.864,10.027L150.109,67.779z"/>
		</g>
		<polygon fill="#FFFFFF" points="133.137,66.416 138.634,58.168 146.622,64.963 149.325,70.998 139.245,72.219 		"/>
	</g>
	<g id="Ebene_4_1_">
		<g>
			<path stroke="#000000" stroke-miterlimit="10" d="M136.05,231.229c0,0,1.831,7.678,1.503,8.004
				c-0.328,0.33-0.813,1.568-2.033,1.154c-1.221-0.412-3.413-1.809-3.413-1.809l1.576-6.314L136.05,231.229z"/>
			<path fill="#FFFFFF" stroke="#FFFFFF" stroke-width="0.3365" stroke-miterlimit="10" d="M135.745,230.5
				c0,0,1.83,7.678,1.503,8.006c-0.329,0.328-0.815,1.564-2.035,1.154c-1.22-0.412-3.412-1.811-3.412-1.811l1.575-6.314
				L135.745,230.5z"/>
			<path stroke="#000000" stroke-miterlimit="10" d="M122.32,223.977l4.532,8.516l3.237,2.365l-0.546-6.895l1.49,0.68l2.533,6.408
				c0,0,0.767,3.182,0.426,4.197c-0.339,1.012-2.312,2.027-4.286,1.08c-1.971-0.945-6.393-7.986-6.393-7.986
				s-2.449-3.57-2.381-4.379c0.067-0.807,0.611-3.441,0.611-3.441L122.32,223.977z"/>
			<path fill="#FFFFFF" stroke="#FFFFFF" stroke-width="0.3365" stroke-miterlimit="10" d="M122.642,223.41l4.37,8.273l3.124,2.295
				l-0.527-6.695l1.438,0.658l2.444,6.227c0,0,0.737,3.092,0.411,4.076c-0.329,0.984-2.231,1.969-4.135,1.049
				c-1.903-0.918-6.168-7.758-6.168-7.758s-2.362-3.467-2.296-4.25c0.065-0.785,0.591-3.346,0.591-3.346L122.642,223.41z"/>
			<path d="M120.934,227.963c0,0,0.3,2.078,0.367,2.803c0.068,0.721,0.33,3.682,0.265,4.137s0.853,0,0.853,0
				s0.459-1.842,0.524-2.041c0.067-0.195,0.372-0.52,0.372-0.52"/>
			<path fill="#FFFFFF" d="M133.31,235.486c0,0,0.92,1.445,0.329,2.43s-1.838,1.246-1.838,1.246l-0.755-0.262
				c0,0,1.738-0.918,1.937-1.574C133.18,236.668,133.31,235.486,133.31,235.486z"/>
			<path fill="#FFFFFF" d="M136.738,236.457c0,0,0.767,1.207,0.273,2.027s-1.532,1.039-1.532,1.039l-0.63-0.219
				c0,0,1.45-0.766,1.615-1.313C136.628,237.443,136.738,236.457,136.738,236.457z"/>
			<path fill="#FFFFFF" stroke="#000000" stroke-width="0.673" stroke-miterlimit="10" d="M116.775,169.346
				c0,0,1.967,12.139,2.099,12.928c0.133,0.787,2.166,9.973,2.298,11.35c0.131,1.377,0.655,5.514,0.59,6.234
				c-0.066,0.721-0.054,7.48,0.007,8.793c0.06,1.311,0.584,6.955,0.584,6.955l0.263,6.758c0,0,0,3.02,0.46,4.068
				c0.459,1.051,3.937,6.561,4.266,6.824c0.327,0.262,2.515,1.641,3.226,1.641c0.71,0,1.958-0.264,1.366-1.969
				c-0.454-1.314-2.195-5.357-2.971-7.141c-0.229-0.533-0.375-0.865-0.375-0.865l-0.853-1.641c0,0,0.787-9.58,1.18-11.023
				c0.394-1.443,0.525-8.203,0.723-8.727c0.196-0.523,0.463-3.607,0.463-3.607s0.138-8.859,0-9.318
				c-0.135-0.461,0.478-8.203,0.467-9.188c-0.013-0.984,0.447-13.846,0.447-13.846l0.526-5.184l0.549,2.232l0.698,14.5v12.533
				c0,0,0.063,8.596,0,10.303c-0.066,1.705-0.011,11.09-0.301,12.795c-0.291,1.707-2.387,10.041-2.387,10.041l-0.66,1.18
				l3.377,6.693c0,0,0.822,2.361,1.479,2.23c0.657-0.133,2.166,0.131,1.706-2.494c-0.459-2.625-0.394-4.725-0.262-6.035
				c0.132-1.314,2.1-12.074,2.1-12.074l1.839-8.268c0,0,1.245-7.678,1.312-8.662c0.065-0.982,0.853-7.412,0.919-7.939
				c0.064-0.525,1.115-8.914,1.181-9.641s2.231-17.393,2.231-17.393l-10.762-3.15l-8.925,3.807L116.775,169.346z"/>
		</g>
	</g>
	<g id="mütze">
		<g id="XMLID_9_">
			<g>
				<path fill="#FFFFFF" d="M144.793,21.449c0,0,7.15,1.756,4.991,4.787c-2.159,3.037-11.13,7.287-15.582,7.762
					c-4.452,0.471-16.103,0.344-17.944-0.27c-0.809-0.271-2.292-1.688-2.292-1.688s12.614-8.23,17.941-9.107
					C137.236,22.057,144.793,21.449,144.793,21.449z"/>
				<path fill="#FFFFFF" d="M126.518,9.658c0.938-0.287,2.646-0.402,3.502-0.352c1.077,0.068,5.329,2.631,5.666,3.037
					c0.339,0.402,5.732,1.752,6.273,1.752s1.146,1.217,1.419,1.418c0.268,0.201,0.673,0.402,1.212,0.201
					c0.54-0.201,1.215,0.742,1.215,0.742l-1.754,2.766c0,0-10.727,1.756-14.031,2.699c-3.304,0.943-17.339,8.027-17.339,8.027
					s-1.278-0.742-2.088-0.541c-0.809,0.205-1.351-0.201-1.958-1.482c-0.608-1.281,0.944-3.102,1.958-4.385
					c1.011-1.283,2.088-2.293,3.101-2.902c1.014-0.607,1.148-1.754,1.958-3.371c0.809-1.621,4.182-4.588,5.801-6.207
					c1.617-1.619,5.062-1.418,5.062-1.418L126.518,9.658z"/>
				<path fill="#FFFFFF" d="M144.051,19.223l0.742,2.227c0,0-7.557,0.607-12.886,1.484c-5.327,0.877-17.941,9.107-17.941,9.107
					l-1.285-2.092c0,0,14.033-7.084,17.339-8.027C133.324,20.979,144.051,19.223,144.051,19.223z"/>
			</g>
			<g>
				<path fill="none" stroke="#000000" stroke-miterlimit="10" d="M144.793,21.449l-0.742-2.227c0,0-10.727,1.756-14.031,2.699
					c-3.306,0.943-17.339,8.027-17.339,8.027l1.285,2.092c0,0,12.614-8.23,17.941-9.107
					C137.236,22.057,144.793,21.449,144.793,21.449s7.15,1.756,4.991,4.787c-2.159,3.037-11.13,7.287-15.582,7.762
					c-4.452,0.471-16.103,0.344-17.944-0.27c-0.809-0.271-2.292-1.688-2.292-1.688"/>
				<path fill="none" stroke="#000000" stroke-miterlimit="10" d="M144.051,19.223l1.754-2.766c0,0-0.675-0.943-1.215-0.742
					c-0.539,0.201-0.944,0-1.212-0.201c-0.273-0.201-0.878-1.418-1.419-1.418s-5.935-1.35-6.274-1.752
					c-0.336-0.406-4.588-2.969-5.666-3.037c-0.855-0.051-2.563,0.064-3.501,0.352c-0.243,0.072-0.437,0.158-0.547,0.258
					c-0.54,0.469-0.943,0.674-0.943,0.674"/>
				<path fill="none" stroke="#000000" stroke-miterlimit="10" d="M126.514,9.643c0,0-3.444-0.201-5.062,1.418
					c-1.619,1.619-4.992,4.586-5.802,6.207c-0.809,1.617-0.944,2.764-1.958,3.371c-1.012,0.609-2.089,1.619-3.1,2.902
					c-1.014,1.283-2.566,3.104-1.958,4.385c0.607,1.281,1.149,1.688,1.958,1.482c0.81-0.201,2.088,0.541,2.088,0.541"/>
			</g>
		</g>
		
			<path fill="#FFFFFF" stroke="#000000" stroke-width="0.5" stroke-linecap="round" stroke-linejoin="round" stroke-miterlimit="10" d="
			M136.352,12.287l-5.4,1.424c-0.53-0.529-1.301-0.775-2.057-0.576c-0.798,0.209-1.367,0.859-1.538,1.637l-5.267,1.389l-0.823,0.32
			l1.169,0.459c0,0,0.611-0.195,1.2-0.211c0.59-0.016,0.556,0.516,0.556,0.516s0.947-0.771,1.381-0.85
			c0.433-0.08,0.622,0.777,0.622,0.777s0.32-0.643,0.688-0.703c0.227-0.039,0.749,0.232,1.114,0.445
			c0.529,0.52,1.293,0.758,2.042,0.559c0.783-0.205,1.347-0.834,1.527-1.594c0.215-0.365,0.545-0.883,0.767-0.963
			c0.353-0.127,0.946,0.275,0.946,0.275s-0.257-0.84,0.158-0.984c0.416-0.145,1.622,0.063,1.622,0.063s-0.293-0.447,0.229-0.725
			c0.52-0.275,1.148-0.406,1.148-0.406l0.79-0.975L136.352,12.287z"/>
	</g>
	<g id="Ebene_7_1_">
		<g id="XMLID_8_">
			<g>
				<path fill="#FFFFFF" d="M122.21,30.02c0,0,0.425-0.377,0.873-0.229c0.133,0.043,0.268,0.133,0.395,0.289
					c0.554,0.695,1.687,1.855,1.967,2.832c0.283,0.971,0.275,2.672-0.042,3.258c-0.197,0.357-0.542,0.58-0.859,0.654
					c-0.202,0.055-0.391,0.043-0.524-0.029c-0.332-0.188-0.925-0.539-0.972-0.936c-0.037-0.305-0.122-0.732-0.157-0.912
					c0.091-1.084,0.137-2.393,0.145-2.779C123.05,31.537,122.563,29.943,122.21,30.02z"/>
				<path fill="#FFFFFF" d="M119.589,41.408c-0.371,0.08-2.637,0.027-3.708-0.887c-0.655-0.561-1.104-1.131-1.391-1.869
					c-0.227-0.582-0.349-1.271-0.388-2.145c-0.087-1.975,0.992-3.496,1.301-4.117c0.31-0.611,3.038-2.381,3.301-2.365
					c0.189,0.014,1.004,0.305,1.554,0.691c0.207,0.146,0.378,0.303,0.464,0.469c0.313,0.598,0.322,1.85-0.03,2.629
					c-0.135,0.297-0.354,0.746-0.602,1.174c-0.104,0.314-0.243,0.744-0.335,1.018c-0.158,0.477,0.021,1.143,0.255,1.535
					c0.23,0.391,1.089,0.43,1.535,0.445c0.443,0.018,0.864-0.957,1.113-1.529c0.098-0.219,0.172-0.82,0.231-1.51
					c0.035,0.18,0.12,0.607,0.157,0.912c0.047,0.396,0.64,0.748,0.974,0.936c0.132,0.072,0.32,0.084,0.522,0.029l0.019,0.078
					l0.149,0.705c0,0,0.104,1.012,0.001,1.736c-0.106,0.723-0.895,2.221-1.173,2.648c-0.275,0.43-1.531,1.287-1.929,1.334
					c-0.066,0.008-0.162-0.016-0.276-0.063c-0.562-0.225-1.572-0.982-1.572-0.982L119.589,41.408z"/>
				<path fill="#FFFFFF" d="M127.226,31.387c0.08,0.205,0.458,0.938,0.021,1.139c-0.433,0.205-0.83,0.252-0.974,0.283
					c-0.141,0.031-0.828,0.104-0.828,0.104c-0.28-0.977-1.413-2.137-1.967-2.832c-0.128-0.156-0.262-0.246-0.395-0.289l0.152-0.057
					c0.323-0.002,2.078-0.02,2.414,0.143C126.021,30.059,127.145,31.184,127.226,31.387z"/>
				<path fill="#FFFFFF" d="M119.762,42.281c0,0,1.011,0.758,1.572,0.982l-0.022,0.053c0,0-0.853,0.326-0.959,0.684
					c-0.112,0.355-0.654,2.316-0.654,2.316l-2.92-0.191l-2.445-1.951l-1.524-1.262l-0.269-0.572c0,0,0.674-0.992,0.985-1.611
					c0.31-0.621,0.688-1.107,0.789-1.498c0.074-0.281,0.143-0.486,0.178-0.578c0.286,0.738,0.733,1.309,1.389,1.867
					c1.072,0.916,3.337,0.969,3.71,0.887L119.762,42.281z"/>
				<path fill="#FFFFFF" d="M120.259,30.717c0.327-0.127,1.644-0.631,1.951-0.697c0.353-0.076,0.84,1.518,0.825,2.148
					c-0.008,0.385-0.055,1.695-0.146,2.779c-0.06,0.689-0.134,1.289-0.231,1.51c-0.249,0.572-0.67,1.545-1.113,1.529
					c-0.446-0.018-1.305-0.057-1.535-0.447c-0.233-0.393-0.412-1.059-0.255-1.533c0.092-0.273,0.231-0.703,0.335-1.018
					c0.248-0.43,0.467-0.879,0.602-1.176c0.353-0.777,0.343-2.029,0.031-2.627C120.636,31.02,120.466,30.863,120.259,30.717z"/>
			</g>
			<g>
				<path fill="none" stroke="#000000" stroke-width="0.5" stroke-miterlimit="10" d="M119.644,41.381
					c0.003,0.008-0.017,0.018-0.053,0.027c-0.373,0.08-2.638,0.027-3.71-0.887c-0.655-0.561-1.103-1.131-1.389-1.869
					c-0.229-0.582-0.35-1.271-0.39-2.145c-0.087-1.975,0.992-3.496,1.301-4.117c0.31-0.611,3.038-2.381,3.301-2.365
					c0.189,0.014,1.004,0.305,1.555,0.691c0.207,0.146,0.377,0.303,0.464,0.469c0.313,0.598,0.321,1.85-0.031,2.629
					c-0.135,0.297-0.354,0.746-0.602,1.174c-0.396,0.689-0.854,1.316-1.119,1.146c-0.428-0.277-1.229-0.918-0.992-1.377
					c0.233-0.453,1.15-2.383,1.15-2.383"/>
				<path fill="none" stroke="#000000" stroke-width="0.5" stroke-miterlimit="10" d="M120.187,30.742c0,0,0.026-0.006,0.071-0.025
					c0.327-0.127,1.645-0.631,1.952-0.697c0.351-0.076,0.839,1.518,0.825,2.148c-0.008,0.385-0.055,1.695-0.146,2.779
					c-0.06,0.689-0.134,1.291-0.231,1.51c-0.249,0.572-0.67,1.545-1.113,1.529c-0.447-0.016-1.305-0.055-1.535-0.447
					c-0.233-0.391-0.413-1.059-0.255-1.533c0.092-0.273,0.231-0.703,0.335-1.018c0.078-0.238,0.135-0.412,0.135-0.412"/>
				<path fill="none" stroke="#000000" stroke-width="0.5" stroke-miterlimit="10" d="M122.21,30.02c0,0,0.425-0.377,0.873-0.229
					c0.133,0.043,0.268,0.133,0.395,0.289c0.554,0.695,1.687,1.855,1.967,2.832c0.283,0.971,0.275,2.672-0.042,3.258
					c-0.197,0.357-0.542,0.58-0.859,0.654c-0.202,0.055-0.391,0.043-0.524-0.029c-0.332-0.188-0.925-0.539-0.972-0.936
					c-0.037-0.305-0.122-0.732-0.157-0.912c-0.013-0.055-0.018-0.084-0.018-0.084"/>
				<path fill="none" stroke="#000000" stroke-width="0.5" stroke-miterlimit="10" d="M123.184,29.738c0,0,0.018-0.002,0.052-0.004
					c0.324-0.002,2.078-0.02,2.414,0.143c0.371,0.182,1.495,1.307,1.576,1.51c0.08,0.205,0.458,0.938,0.021,1.139
					c-0.433,0.205-0.83,0.252-0.974,0.283c-0.141,0.031-0.828,0.104-0.828,0.104"/>
				<path fill="none" stroke="#000000" stroke-width="0.5" stroke-miterlimit="10" d="M119.762,42.281c0,0,1.011,0.758,1.572,0.982
					c0.114,0.047,0.21,0.07,0.276,0.063c0.397-0.047,1.653-0.904,1.929-1.334c0.278-0.428,1.067-1.926,1.173-2.648
					c0.104-0.727-0.001-1.736-0.001-1.736l-0.149-0.705"/>
				<path fill="none" stroke="#000000" stroke-width="0.5" stroke-miterlimit="10" d="M121.312,43.316c0,0-0.853,0.326-0.959,0.684
					c-0.112,0.355-0.654,2.316-0.654,2.316l-2.92-0.191l-2.445-1.951l-1.524-1.262l-0.269-0.57c0,0,0.674-0.994,0.985-1.613
					c0.31-0.621,0.688-1.107,0.789-1.498c0.074-0.281,0.143-0.486,0.178-0.578c0.011-0.033,0.019-0.053,0.019-0.053"/>
			</g>
		</g>
	</g>
	<g id="rock">
		<path fill="#FFFFFF" stroke="#000000" stroke-miterlimit="10" d="M146.252,174.293c0,0,4.295-14.41,3.378-19.604
			c-0.915-5.191-19.242-8.857-19.242-8.857l-18.021,10.08c0,0,0.61,8.553,0.916,11.607c0.305,3.053,1.222,4.887,1.222,4.887
			s21.397,3.108,32.072,1.527"/>
	</g>
	<g id="Ebene_3">
		<g id="XMLID_7_">
			<g>
				<polygon fill="#F5F5F5" points="122.088,45.168 119.828,49.695 110.954,44.459 112.18,39.871 				"/>
				<path fill="#FFFFFF" d="M112.754,63.721c0,0-4.433,6.309-4.781,7.176c0.162-0.104,5.325-3.432,7.177-4.441
					c1.877-1.023,3.928-2.393,3.928-2.393l-0.343,8.887l2.734-0.172l-0.855,4.785c0,0,3.76,4.781,4.957,5.979
					c1.194,1.195,11.958,18.623,11.958,18.623s2.905,1.365,2.735,2.051c-0.172,0.686-5.127,32.975-5.811,36.049
					c-0.364,1.635-2.221,7.848-3.883,13.316c-1.467,4.822-2.78,9.064-2.78,9.064s-7.687,0.342-12.475-1.365
					c-4.783-1.707-5.806-2.734-5.806-2.734l4.404-23.219c1.087,0.977,2.715,2.498,2.942,3.061c0.341,0.852,5.979-2.563,5.979-2.563
					l1.708-4.104l-9.311-3l8.113-25.02l-7.518-24.262l-0.092-0.322c-3.399,0.973-10.828,2.971-15.456,3.227
					c-6.147,0.344-9.395-1.193-8.029-4.439c1.368-3.248,12.303-20.674,12.303-20.674l5.575-13.258l0.824,0.486l8.874,5.236
					l0.723,0.428L112.754,63.721z"/>
				<path fill="#FFFFFF" d="M157.347,96.355c0.342,4.27,1.196,12.814,0.342,14.693c-0.756,1.67-6.799,10.922-8.119,12.938
					c-0.454-7.168-1.106-17.771-1.106-19.771c0-3.076,5.299-10.936,5.812-13.84c0.509-2.904-0.685-10.25-0.685-12.813
					c0-1.467,0.727-3.492,1.252-5.213l0.286,0.086C155.126,72.436,157.004,92.082,157.347,96.355z"/>
				<path fill="#FFFFFF" d="M149.569,123.986c0.242,3.854,0.432,6.711,0.432,6.711s-1.023,1.363-2.051,1.537
					c-1.026,0.172-4.954-1.195-4.954-1.195s-1.196,5.979-0.855,6.15c0.344,0.17,6.322,4.102,6.495,3.416
					c0.092-0.359,1.373-1.631,2.563-2.746l0.341,20.002c-0.171,1.881,0,3.246-0.856,3.93c-0.855,0.684-10.592,1.879-10.592,1.879
					l-6.832,0.514c0,0-1.369-7.346-1.712-8.031c-0.343-0.684-0.853-2.563-0.853-2.563l-0.125-0.012
					c1.662-5.467,3.519-11.68,3.883-13.314c0.684-3.074,5.639-35.365,5.811-36.049c0.17-0.686-2.735-2.051-2.735-2.051
					s3.076-8.885,3.932-11.275c0.853-2.393,7.003-16.746,7.003-16.746l-4.102-2.391l3.075-3.586c0,0-2.563-1.541-4.269-2.564
					c0,0,11.615,2.393,12.129,3.758c0.219,0.586-0.062,1.701-0.456,2.99c-0.524,1.719-1.251,3.746-1.251,5.211
					c0,2.563,1.193,9.908,0.684,12.813c-0.514,2.906-5.811,10.764-5.811,13.842C148.463,106.215,149.115,116.818,149.569,123.986z"
					/>
				<path fill="#FFFFFF" d="M151.201,137.859c-1.192,1.115-2.474,2.387-2.565,2.746c-0.173,0.686-6.151-3.246-6.495-3.416
					c-0.341-0.172,0.855-6.15,0.855-6.15s3.928,1.367,4.956,1.195c1.025-0.174,2.049-1.537,2.049-1.537l3.246,5.297
					C153.247,135.994,152.262,136.865,151.201,137.859z"/>
				<path fill="#FFFFFF" d="M139.245,85.539c0.073-0.367,0.127-0.693,0.163-0.975c0.341-2.904,1.025-9.223,0.512-16.398
					c-0.306-4.262-0.91-6.115-1.353-6.916l0.155-0.092c0,0,2.733,3.418,4.445,4.445c1.707,1.023,4.269,2.563,4.269,2.563
					l-3.075,3.586l4.102,2.391c0,0-6.15,14.354-7.003,16.746c-0.855,2.391-3.932,11.275-3.932,11.275s-0.901-3.836-1.698-6.465
					l0.501-0.027C136.331,95.672,138.564,88.971,139.245,85.539z"/>
				<path fill="#FFFFFF" d="M139.92,68.166c0.514,7.176-0.171,13.494-0.512,16.398c-0.036,0.281-0.09,0.607-0.163,0.975
					l-3.424-15.666l0.849-3.408l2.395,1.529l-1.023-7.35c0,0,0.227,0.055,0.526,0.605C139.01,62.051,139.614,63.904,139.92,68.166z"
					/>
				<path fill="#FFFFFF" d="M135.821,69.873l3.424,15.666c-0.681,3.432-2.914,10.133-2.914,10.133l-0.501,0.027
					c-0.184-0.605-0.36-1.148-0.521-1.564c-0.461-1.193-2.06-5.412-3.624-9.422l0.376-0.148l0.855-14.52
					c0,0,1.024-1.025,1.537-0.514C134.965,70.045,135.821,69.873,135.821,69.873z"/>
				<polygon fill="#FFFFFF" points="136.67,66.465 132.916,64.063 138.042,60.645 139.064,67.994 				"/>
				<path fill="#FFFFFF" d="M135.83,95.699c0.797,2.629,1.698,6.465,1.698,6.465s-10.764-17.428-11.958-18.623
					c-1.197-1.197-4.957-5.979-4.957-5.979l0.855-4.785l-2.734,0.172l0.343-8.885l4.782-2.221c0,0,3.418,12.641,4.613,15.033
					c0.554,1.104,1.869,4.393,3.213,7.836c1.564,4.01,3.162,8.229,3.623,9.422C135.471,94.551,135.647,95.094,135.83,95.699z"/>
				<path fill="#FFFFFF" d="M136.67,66.465l-0.849,3.408c0,0-0.856,0.172-1.368-0.342c-0.513-0.512-1.537,0.514-1.537,0.514
					l-2.204-3.395l2.204-2.588L136.67,66.465z"/>
				<polygon fill="#FFFFFF" points="130.712,66.65 128.985,68.676 123.859,61.844 127.106,59.451 132.916,64.063 				"/>
				<path fill="#FFFFFF" d="M130.712,66.65l2.204,3.395l-0.854,14.52l-0.376,0.148c-1.344-3.443-2.66-6.732-3.213-7.836
					c-1.195-2.393-4.613-15.033-4.613-15.033l5.126,6.832L130.712,66.65z"/>
				<path fill="#FFFFFF" d="M115.234,128.721l9.311,3l-1.708,4.102c0,0-5.64,3.416-5.98,2.563c-0.227-0.561-1.854-2.082-2.942-3.059
					c-0.568-0.512-0.989-0.873-0.989-0.873l1.54-5.98L115.234,128.721z"/>
			</g>
			<g>
				<polygon fill="none" stroke="#000000" stroke-miterlimit="10" points="123.859,61.844 127.106,59.451 132.916,64.063 
					130.712,66.65 128.985,68.676 				"/>
				<polygon fill="none" stroke="#000000" stroke-miterlimit="10" points="132.916,64.063 138.042,60.645 139.064,67.994 
					136.67,66.465 				"/>
				<path fill="none" stroke="#000000" stroke-miterlimit="10" d="M130.695,66.627l0.017,0.023l2.204,3.395
					c0,0,1.024-1.025,1.537-0.514c0.514,0.514,1.368,0.342,1.368,0.342l0.849-3.408l0.003-0.01"/>
				<line fill="none" stroke="#000000" stroke-miterlimit="10" x1="132.916" y1="70.045" x2="132.061" y2="84.564"/>
				<polyline fill="none" stroke="#000000" stroke-miterlimit="10" points="135.821,69.873 139.245,85.539 139.408,86.277 				"/>
				<path fill="none" stroke="#000000" stroke-miterlimit="10" d="M136.331,95.672c0,0,2.233-6.701,2.914-10.133
					c0.073-0.367,0.127-0.693,0.163-0.975c0.341-2.904,1.025-9.223,0.512-16.398c-0.306-4.262-0.91-6.115-1.353-6.916
					c-0.3-0.551-0.526-0.605-0.526-0.605"/>
				<path fill="none" stroke="#000000" stroke-miterlimit="10" d="M123.859,61.844c0,0,3.418,12.641,4.613,15.033
					c0.553,1.104,1.869,4.393,3.213,7.836c1.563,4.01,3.162,8.229,3.623,9.422c0.162,0.416,0.339,0.959,0.521,1.564
					c0.797,2.629,1.698,6.465,1.698,6.465s-10.764-17.428-11.958-18.623c-1.197-1.197-4.957-5.979-4.957-5.979l0.856-4.785
					l-2.735,0.172l0.344-8.885L123.859,61.844z"/>
				<path fill="none" stroke="#000000" stroke-miterlimit="10" d="M138.723,61.158c0,0,2.733,3.418,4.445,4.445
					c1.707,1.023,4.269,2.563,4.269,2.563l-3.075,3.586l4.102,2.391c0,0-6.15,14.354-7.003,16.746
					c-0.855,2.391-3.932,11.275-3.932,11.275s2.905,1.365,2.735,2.051c-0.172,0.686-5.126,32.975-5.811,36.049
					c-0.363,1.635-2.221,7.848-3.883,13.316c-1.467,4.822-2.778,9.064-2.778,9.064s-7.688,0.342-12.477-1.365
					c-4.782-1.707-5.806-2.734-5.806-2.734l4.404-23.219l0.037-0.188"/>
				<path fill="none" stroke="#000000" stroke-miterlimit="10" d="M115.234,128.721l-0.77-0.248l-1.54,5.98
					c0,0,0.421,0.361,0.989,0.873c1.089,0.977,2.716,2.498,2.942,3.059c0.341,0.854,5.98-2.563,5.98-2.563l1.708-4.102
					L115.234,128.721z"/>
				<polyline fill="none" stroke="#000000" stroke-miterlimit="10" points="115.149,128.986 115.234,128.721 123.347,103.701 
					115.829,79.439 				"/>
				<path fill="none" stroke="#000000" stroke-miterlimit="10" d="M107.971,70.9c-0.344,0.852-0.171,1.023-0.682,2.391
					c-0.513,1.365-0.854,3.586-0.854,3.586"/>
				<path fill="none" stroke="#000000" stroke-miterlimit="10" d="M117.541,78.588c0,0-0.682,0.211-1.803,0.529
					c-3.4,0.973-10.828,2.971-15.455,3.227c-6.149,0.344-9.396-1.193-8.031-4.439c1.368-3.248,12.304-20.674,12.304-20.674
					l5.574-13.258l0.824,0.486l8.874,5.236l0.724,0.428l-7.798,13.598c0,0-4.433,6.309-4.781,7.176"/>
				<path fill="none" stroke="#000000" stroke-miterlimit="10" d="M107.971,70.9c0,0,0,0,0.002-0.004
					c0.162-0.104,5.325-3.432,7.177-4.441c1.877-1.023,3.928-2.393,3.928-2.393"/>
				<path fill="none" stroke="#000000" stroke-miterlimit="10" d="M150.001,130.697l3.246,5.297c0,0-0.985,0.871-2.046,1.865
					c-1.192,1.115-2.474,2.387-2.565,2.746c-0.173,0.686-6.151-3.246-6.495-3.416c-0.341-0.172,0.855-6.15,0.855-6.15
					s3.928,1.367,4.956,1.195C148.978,132.061,150.001,130.697,150.001,130.697s-0.189-2.857-0.432-6.711
					c-0.454-7.168-1.106-17.771-1.106-19.771c0-3.076,5.298-10.936,5.812-13.84c0.509-2.904-0.685-10.25-0.685-12.813
					c0-1.467,0.727-3.492,1.252-5.213c0.395-1.289,0.675-2.402,0.455-2.99c-0.514-1.365-12.129-3.756-12.129-3.756"/>
				<path fill="none" stroke="#000000" stroke-miterlimit="10" d="M151.198,137.701l0.003,0.16l0.339,20
					c-0.171,1.881,0,3.246-0.855,3.932c-0.856,0.684-10.593,1.877-10.593,1.877l-6.832,0.514c0,0-1.369-7.346-1.712-8.029
					c-0.343-0.686-0.853-2.563-0.853-2.563"/>
				<path fill="none" stroke="#000000" stroke-miterlimit="10" d="M155.126,72.436c0,0,1.878,19.646,2.221,23.92
					c0.342,4.27,1.196,12.814,0.342,14.693c-0.756,1.67-6.799,10.922-8.119,12.938c-0.162,0.25-0.253,0.387-0.253,0.387"/>
				<polyline fill="none" stroke="#000000" stroke-miterlimit="10" points="110.812,44.998 110.954,44.459 112.18,39.871 
					122.088,45.168 119.828,49.695 119.697,49.955 				"/>
			</g>
		</g>
		<g>
			
				<ellipse fill="#FFFFFF" stroke="#000000" stroke-width="0.5" stroke-miterlimit="10" cx="136.332" cy="108.827" rx="1.538" ry="1.71"/>
			<path fill="#FFFFFF" stroke="#000000" stroke-width="0.5" stroke-miterlimit="10" d="M136.332,111.037
				c-1.123,0-2.037-0.991-2.037-2.209c0-1.219,0.914-2.211,2.037-2.211c1.124,0,2.038,0.992,2.038,2.211
				C138.37,110.046,137.456,111.037,136.332,111.037z M136.332,107.617c-0.572,0-1.037,0.543-1.037,1.211
				c0,0.667,0.465,1.209,1.037,1.209s1.038-0.542,1.038-1.209C137.37,108.16,136.904,107.617,136.332,107.617z"/>
		</g>
		<g>
			
				<ellipse fill="#FFFFFF" stroke="#000000" stroke-width="0.5" stroke-miterlimit="10" cx="135.039" cy="119.276" rx="1.537" ry="1.708"/>
			<path fill="#FFFFFF" stroke="#000000" stroke-width="0.5" stroke-miterlimit="10" d="M135.039,121.484
				c-1.124,0-2.038-0.99-2.038-2.207c0-1.218,0.914-2.209,2.038-2.209c1.123,0,2.037,0.991,2.037,2.209
				C137.076,120.494,136.162,121.484,135.039,121.484z M135.039,118.068c-0.572,0-1.038,0.542-1.038,1.209
				c0,0.666,0.466,1.207,1.038,1.207s1.037-0.541,1.037-1.207C136.076,118.61,135.611,118.068,135.039,118.068z"/>
		</g>
		<g>
			
				<ellipse fill="#FFFFFF" stroke="#000000" stroke-width="0.5" stroke-miterlimit="10" cx="133.77" cy="128.477" rx="1.538" ry="1.709"/>
			<path fill="#FFFFFF" stroke="#000000" stroke-width="0.5" stroke-miterlimit="10" d="M133.77,130.686
				c-1.123,0-2.037-0.991-2.037-2.209s0.914-2.209,2.037-2.209c1.124,0,2.038,0.991,2.038,2.209S134.894,130.686,133.77,130.686z
				 M133.77,127.268c-0.572,0-1.037,0.542-1.037,1.209s0.465,1.209,1.037,1.209s1.038-0.542,1.038-1.209
				S134.342,127.268,133.77,127.268z"/>
		</g>
		<g>
			<circle fill="#FFFFFF" stroke="#000000" stroke-width="0.5" stroke-miterlimit="10" cx="110.643" cy="47.048" r="1.282"/>
			<path fill="#FFFFFF" stroke="#000000" stroke-width="0.5" stroke-miterlimit="10" d="M110.643,48.83
				c-0.982,0-1.781-0.799-1.781-1.781c0-0.983,0.799-1.783,1.781-1.783c0.981,0,1.78,0.8,1.78,1.783
				C112.423,48.031,111.624,48.83,110.643,48.83z M110.643,46.266c-0.431,0-0.781,0.352-0.781,0.783
				c0,0.431,0.351,0.781,0.781,0.781s0.78-0.351,0.78-0.781C111.423,46.617,111.073,46.266,110.643,46.266z"/>
		</g>
		<g>
			<circle fill="#FFFFFF" stroke="#000000" stroke-width="0.5" stroke-miterlimit="10" cx="109.446" cy="49.611" r="1.281"/>
			<path fill="#FFFFFF" stroke="#000000" stroke-width="0.5" stroke-miterlimit="10" d="M109.446,51.393
				c-0.982,0-1.782-0.799-1.782-1.781s0.8-1.781,1.782-1.781s1.781,0.799,1.781,1.781S110.429,51.393,109.446,51.393z
				 M109.446,48.83c-0.432,0-0.782,0.351-0.782,0.781s0.351,0.781,0.782,0.781c0.431,0,0.781-0.351,0.781-0.781
				S109.877,48.83,109.446,48.83z"/>
		</g>
		<g>
			<circle fill="#FFFFFF" stroke="#000000" stroke-width="0.5" stroke-miterlimit="10" cx="108.25" cy="52.346" r="1.281"/>
			<path fill="#FFFFFF" stroke="#000000" stroke-width="0.5" stroke-miterlimit="10" d="M108.25,54.127
				c-0.982,0-1.782-0.799-1.782-1.781s0.8-1.781,1.782-1.781c0.981,0,1.78,0.799,1.78,1.781S109.231,54.127,108.25,54.127z
				 M108.25,51.564c-0.432,0-0.782,0.351-0.782,0.781s0.351,0.781,0.782,0.781c0.431,0,0.78-0.351,0.78-0.781
				S108.681,51.564,108.25,51.564z"/>
		</g>
		<g>
			
				<rect x="105.13" y="56.218" transform="matrix(0.8682 0.4962 -0.4962 0.8682 42.364 -46.0588)" fill="#FFFFFF" stroke="#000000" stroke-width="0.5" stroke-miterlimit="10" width="5.51" height="1.001"/>
		</g>
		<g>
			
				<rect x="103.967" y="58.075" transform="matrix(0.8684 0.4959 -0.4959 0.8684 43.1 -45.2174)" fill="#FFFFFF" stroke="#000000" stroke-width="0.5" stroke-miterlimit="10" width="5.509" height="1.001"/>
		</g>
		<g>
			
				<rect x="102.939" y="59.926" transform="matrix(0.8684 0.4959 -0.4959 0.8684 43.8829 -44.4636)" fill="#FFFFFF" stroke="#000000" stroke-width="0.5" stroke-miterlimit="10" width="5.509" height="1.001"/>
		</g>
		<g>
			
				<rect x="102.098" y="61.66" transform="matrix(0.8682 0.4962 -0.4962 0.8682 44.6645 -43.8369)" fill="#FFFFFF" stroke="#000000" stroke-width="0.5" stroke-miterlimit="10" width="5.51" height="1.001"/>
		</g>
		<path fill="#FFFFFF" stroke="#000000" stroke-width="0.5" stroke-miterlimit="10" d="M152.211,83.994h-3.859
			c-0.263-0.445-0.735-0.746-1.274-0.746c-0.569,0-1.065,0.334-1.317,0.826h-3.765l-0.606,0.068l0.699,0.512
			c0,0,0.443-0.021,0.84,0.072c0.397,0.092,0.279,0.443,0.279,0.443s0.77-0.352,1.074-0.328c0.303,0.023,0.28,0.631,0.28,0.631
			s0.325-0.373,0.582-0.352c0.16,0.016,0.462,0.289,0.668,0.494c0.264,0.441,0.731,0.736,1.266,0.736
			c0.562,0,1.05-0.322,1.304-0.797c0.207-0.209,0.52-0.496,0.681-0.51c0.259-0.023,0.585,0.348,0.585,0.348
			s-0.022-0.605,0.279-0.627c0.305-0.023,1.074,0.326,1.074,0.326s-0.117-0.352,0.279-0.445c0.397-0.092,0.84-0.068,0.84-0.068
			l0.7-0.514L152.211,83.994z"/>
	</g>
</g>
</svg>
