<?xml version="1.0" encoding="utf-8"?>
<!-- Generator: Adobe Illustrator 16.0.0, SVG Export Plug-In . SVG Version: 6.00 Build 0)  -->
<!DOCTYPE svg PUBLIC "-//W3C//DTD SVG 1.1//EN" "http://www.w3.org/Graphics/SVG/1.1/DTD/svg11.dtd">
<svg version="1.1" id="Calque_1" xmlns="http://www.w3.org/2000/svg" xmlns:xlink="http://www.w3.org/1999/xlink" x="0px" y="0px"
	 width="250px" height="250px" viewBox="0 0 250 250" enable-background="new 0 0 250 250" xml:space="preserve">
<g>
	<g id="brett">
		<path fill="#FFFFFF" stroke="#000000" stroke-width="0.7186" stroke-miterlimit="10" d="M96.139,92.545
			c0,0-9.455,3.256-10.855,2.885s-1.813,0-1.895-1.111c-0.082-1.115,0-6.291,0.164-8.131c0.164-1.842,0.164-12.637,0.123-13.832
			s0.371-6.881,0.371-6.881l6.758,0.453c0,0-0.453,5.975-0.453,7.006c0,1.029,0.164,5.645,0.33,7.004s0.371,3.955,0.371,3.955
			l2.266-1.277L96.139,92.545z"/>
		<path fill="none" stroke="#000000" stroke-width="0.7186" stroke-miterlimit="10" d="M91.053,83.893c0,0,0.287,3.359,0,4.523"/>
		<polygon fill="#FFFFFF" stroke="#000000" stroke-miterlimit="10" points="82.732,63.652 81.854,67.723 93.924,68.178 
			94.666,64.395 82.867,63.174 		"/>
		
			<rect x="57.688" y="54.56" transform="matrix(-0.9866 -0.1632 0.1632 -0.9866 236.5831 141.5108)" fill="#FFFFFF" stroke="#000000" stroke-miterlimit="10" width="132.834" height="12.955"/>
		<polyline fill="#FFFFFF" stroke="#000000" stroke-linejoin="round" stroke-miterlimit="10" points="190.582,65.982 
			188.602,78.154 57.52,56.617 59.121,59.348 190.205,80.885 188.602,78.154 190.205,80.885 192.48,68.211 190.879,65.48 		"/>
		<path fill="none" stroke="#000000" stroke-width="0.25" stroke-miterlimit="10" d="M81.5,53.689c0,0,4.199,4.771,7.316,5.396
			c3.119,0.627,8.727-0.135,11.795,0c3.068,0.139,12.309,0.516,15.135,1.033c2.828,0.518,9.367,4.051,10.691,4.105"/>
		<path fill="none" stroke="#000000" stroke-width="0.25" stroke-miterlimit="10" d="M87.969,56.059c0,0-2.936-4.719-7.121-5.643
			s-8.318,0.469-11.088,0.424c-2.775-0.041-6.361-0.586-7.666-1.564"/>
		<path fill="#FFFFFF" stroke="#000000" stroke-width="0.25" stroke-miterlimit="10" d="M82.205,58.463c0,0-6.359-3.551-9.457-3.922
			c-3.1-0.375-8.916,0.68-10.328,0.398c-1.414-0.283-2.883-0.48-2.883-0.48"/>
		<path fill="#FFFFFF" stroke="#000000" stroke-width="0.25" stroke-miterlimit="10" d="M97.48,56.143c0,0,6.523-0.779,9.025-0.344
			s8.852,3.055,10.459,3.158c1.609,0.104,10.799-0.494,10.799-0.494"/>
		<path fill="#FFFFFF" stroke="#000000" stroke-width="0.25" stroke-miterlimit="10" d="M91.053,56.461c0,0,1.318,1.125,2.459,0.857
			c1.143-0.27,1.633-0.408,1.633-0.408"/>
		<path fill="#FFFFFF" stroke="#000000" stroke-width="0.25" stroke-miterlimit="10" d="M143.852,60.119
			c0,0,10.764,1.73,13.645,3.516s9.895,3.471,13.645,3.959c3.75,0.49,11.959-0.488,14.406,0"/>
		<path fill="#FFFFFF" stroke="#000000" stroke-width="0.25" stroke-miterlimit="10" d="M188.428,71.889c0,0-2.881,0.652-6.578,0
			c-3.695-0.652-8.697-2.688-10.871-3.137c-2.176-0.451-10.547,0.299-15.713-0.646c-5.162-0.943-8.803-1.549-10.625-2.145
			s-5.756-1.465-5.756-1.465"/>
		<path fill="#FFFFFF" stroke="#000000" stroke-width="0.25" stroke-miterlimit="10" d="M165.217,71.508
			c0,0,2.281,1.359,5.107,1.795c2.828,0.436,9.461,0.488,11.906,1.033c2.445,0.543,5,2.283,5,2.283"/>
		<path fill="#FFFFFF" stroke="#000000" stroke-width="0.25" stroke-miterlimit="10" d="M164.346,63.635c0,0,3.1-0.385,5.271,0.293
			c2.176,0.676,4.73,2.471,6.605,2.525"/>
		<path fill="#FFFFFF" stroke="#000000" stroke-width="0.25" stroke-miterlimit="10" d="M102.918,61.037
			c0,0,3.424,2.277,5.979,2.598c2.555,0.318,5.219-0.775,7.395-0.283c2.174,0.492,6.686,2.875,7.611,2.906"/>
		<polyline fill="#FFFFFF" stroke="#000000" stroke-width="0.7186" stroke-miterlimit="10" points="81.854,67.723 84.875,69.346 
			90.402,69.447 93.924,68.178 		"/>
	</g>
	<g id="kopf_2_">
		<g>
			<polyline fill="#FFFFFF" points="127.234,75.672 128.529,70.338 127.988,61.625 129.945,63.352 137.215,63.475 140.1,61.32 
				140.58,66.094 141.898,69.748 143.473,71.373 			"/>
			<polygon fill="#FFFFFF" points="143.361,71.479 141.766,69.832 140.428,66.107 139.975,61.604 137.264,63.627 129.887,63.502 
				128.107,61.936 128.676,70.393 127.357,75.76 127.109,75.584 128.381,70.283 127.869,61.316 130.004,63.201 137.166,63.32 
				140.225,61.037 140.729,66.059 142.029,69.666 143.582,71.266 			"/>
		</g>
		<g>
			<polyline fill="#FFFFFF" points="127.234,75.672 128.529,70.338 127.988,61.625 129.945,63.352 137.215,63.475 140.1,61.32 
				140.58,66.094 141.898,69.748 143.473,71.373 			"/>
			<polygon points="143.361,71.479 141.766,69.832 140.428,66.107 139.975,61.604 137.264,63.627 129.887,63.502 128.107,61.936 
				128.676,70.393 127.357,75.76 127.109,75.584 128.381,70.283 127.869,61.316 130.004,63.201 137.166,63.32 140.225,61.037 
				140.729,66.059 142.029,69.666 143.582,71.266 			"/>
		</g>
		<path fill="#FFFFFF" d="M117.785,42.027c0,0,2.82-8.529,3.023-9.34c0.201-0.813,2.797-7.244,2.797-7.244l15.783-0.473l6.354,6.701
			l1.217,9.68l0.857,0.475c0,0,2.512,1.809,1.105,3.045c-3.383,2.979-1.412-0.441-2.166,1.422
			c-1.475,3.654-3.113,11.002-3.113,11.002l-4.266,4.363l-1.918,1.693l-7.152-0.137l-8.566-7.947l-1.926-8.465
			c0,0-1.727-0.307-2.336-0.916s-0.508-2.438-0.508-2.438L117.785,42.027z"/>
		<path fill="#FFFFFF" d="M136.646,70.865c-0.406,2.234-1.828-5.686-1.828-5.686l5.303-4.52l0.182,6.346
			C140.303,67.008,137.055,68.631,136.646,70.865"/>
		<path fill="#FFFFFF" d="M132.451,25.24l6.904-0.201l6.385,6.361c0,0-6.184-1.691-8.619-2.098
			c-2.438-0.406-8.123-3.047-8.123-3.047l2.438-0.813"/>
		<path fill="#FFFFFF" d="M134.979,55.025c0,0,2.887-1.016,3.699-1.828s-0.949,1.539-2.211,3.25
			c-1.896,2.572-3.316,2.639-3.316,2.639l-4.332-2.91L134.979,55.025z"/>
		<path fill="#FFFFFF" d="M144.318,40.404c0,0-2.846-1.74-4.197-1.559c-2.504,0.34-4.287,2.168-4.287,2.168s1.445,1.895,4.152,1.691
			C144.393,42.375,144.318,40.404,144.318,40.404z"/>
		<ellipse fill="#FFFFFF" cx="139.896" cy="40.606" rx="2.133" ry="1.726"/>
		<path fill="#FFFFFF" d="M117.852,41.623l-2.527-12.59c0,0,5.912-8.867,6.521-9.072c0.609-0.203-0.135-1.76-0.135-1.76
			s-0.949-2.91-0.949-3.723s0.475-4.061,0.475-4.061l1.691,2.029l2.775,1.896c0,0-1.037-2.775-1.037-3.588s0.768-2.844,0.768-2.844
			l2.166,2.641l2.641,2.572l0.135-1.895l2.775,2.979l3.992,3.586l-0.744-2.436l-0.066-2.371l4.535,3.656l4.67,3.588l6.162,9.072
			l-4.469,12.047c0,0-1.445-4.398-1.242-6.023s0-3.656,0-3.656l-6.281-6.492l-0.533-0.141l-15.422,0.541l-3.395,7.988
			L117.852,41.623z"/>
		<path fill="#FFFFFF" d="M143.078,18.27l-3.25,1.42l2.641,0.205c0,0-1.625,1.016-3.047,1.219c-1.422,0.201-3.248,1.217-3.248,1.217
			s5.686,1.219,6.295,0.813s3.859-1.422,3.859-1.422L143.078,18.27z"/>
		<path fill="#FFFFFF" d="M130.68,40.811c0,0-2.848-1.74-4.197-1.557c-2.506,0.338-4.289,2.166-4.289,2.166s1.445,1.895,4.152,1.691
			C130.752,42.781,130.68,40.811,130.68,40.811z"/>
		<ellipse fill="#FFFFFF" cx="126.596" cy="41.115" rx="2.131" ry="1.727"/>
		<path fill="#FFFFFF" d="M117.785,42.027c0,0,2.82-8.529,3.023-9.34c0.201-0.813,2.797-7.244,2.797-7.244l15.783-0.473l6.354,6.701
			l1.217,9.68l0.857,0.475c0,0,2.512,1.809,1.105,3.045c-3.383,2.979-1.412-0.441-2.166,1.422
			c-1.475,3.654-3.113,11.002-3.113,11.002l-4.266,4.363l-1.918,1.693l-7.152-0.137l-8.566-7.947l-1.926-8.465
			c0,0-1.727-0.307-2.336-0.916s-0.508-2.438-0.508-2.438L117.785,42.027z"/>
		<path fill="#FFFFFF" d="M132.451,25.24l6.904-0.201l6.385,6.361c0,0-6.184-1.691-8.619-2.098
			c-2.438-0.406-8.123-3.047-8.123-3.047l2.438-0.813"/>
		<path fill="#FFFFFF" d="M134.979,55.025c0,0,2.887-1.016,3.699-1.828s-0.949,1.539-2.211,3.25
			c-1.896,2.572-3.316,2.639-3.316,2.639l-4.332-2.91L134.979,55.025z"/>
		<path fill="#FFFFFF" d="M144.318,40.404c0,0-2.846-1.74-4.197-1.559c-2.504,0.34-4.287,2.168-4.287,2.168s1.445,1.895,4.152,1.691
			C144.393,42.375,144.318,40.404,144.318,40.404z"/>
		<ellipse fill="#FFFFFF" cx="139.896" cy="40.606" rx="2.133" ry="1.726"/>
		<path fill="#FFFFFF" d="M117.852,41.623l-2.527-12.59c0,0,5.912-8.867,6.521-9.072c0.609-0.203-0.135-1.76-0.135-1.76
			s-0.949-2.91-0.949-3.723s0.475-4.061,0.475-4.061l1.691,2.029l2.775,1.896c0,0-1.037-2.775-1.037-3.588s0.768-2.844,0.768-2.844
			l2.166,2.641l2.641,2.572l0.135-1.895l2.775,2.979l3.992,3.586l-0.744-2.436l-0.066-2.371l4.535,3.656l4.67,3.588l6.162,9.072
			l-4.469,12.047c0,0-1.445-4.398-1.242-6.023s0-3.656,0-3.656l-6.281-6.492l-0.533-0.141l-15.299,1.285l-3.248,7.582
			L117.852,41.623z"/>
		<path fill="#FFFFFF" d="M143.078,18.27l-3.25,1.42l2.641,0.205c0,0-1.625,1.016-3.047,1.219c-1.422,0.201-3.248,1.217-3.248,1.217
			s5.686,1.219,6.295,0.813s3.859-1.422,3.859-1.422L143.078,18.27z"/>
		<path fill="#FFFFFF" d="M130.68,40.811c0,0-2.848-1.74-4.197-1.557c-2.506,0.338-4.289,2.166-4.289,2.166s1.445,1.895,4.152,1.691
			C130.752,42.781,130.68,40.811,130.68,40.811z"/>
		<ellipse fill="#FFFFFF" cx="126.596" cy="41.115" rx="2.131" ry="1.727"/>
		<path stroke="#000000" stroke-width="0.25" stroke-miterlimit="10" d="M134.863,63.635c-2.174,0-4.191-0.025-4.512-0.113
			c-0.553-0.148-7.359-6.813-8.719-8.146l-0.031-0.031l-1.936-8.508l0.297-0.07l1.914,8.424c3.215,3.152,8.119,7.871,8.559,8.039
			c0.139,0.039,1.068,0.125,6.586,0.094c0.074,0,0.131,0,0.164,0c0.217-0.129,1.486-1.254,3.234-2.922
			c1.998-1.902,2.988-2.957,3.074-3.139c0.035-0.201,0.402-1.447,1.037-3.598c0.828-2.795,2.08-7.02,2.074-7.352
			c0,0,0,0.012,0.006,0.027l0.289-0.096c0.061,0.184-0.365,1.727-2.076,7.506c-0.52,1.758-1.012,3.418-1.029,3.563
			c-0.029,0.223-1.1,1.342-3.188,3.33c-0.787,0.75-1.586,1.492-2.189,2.033c-1.055,0.951-1.127,0.951-1.203,0.951
			c-0.023,0-0.088,0-0.193,0C136.324,63.631,135.584,63.635,134.863,63.635z"/>
		<path d="M132.422,60.961l-0.08-0.295c0.451-0.121,2.717-0.713,3.246-0.502l-0.115,0.283
			C135.137,60.313,133.424,60.691,132.422,60.961z"/>
		<path d="M128.74,56.143c-0.063,0-0.102,0-0.117,0l0.006-0.406c0.066,0.002,6.57,0.066,10.125-2.799l0.254,0.316
			C135.563,56.029,129.676,56.143,128.74,56.143z"/>
		<path d="M133.516,59.277c-1.973,0-4.895-3.049-5.037-3.199l0.295-0.279c1.041,1.096,4.027,3.754,5.326,2.916
			c0.928-0.602,2.033-2.195,2.922-3.477c0.891-1.279,1.412-2.014,1.811-2.162l0.145,0.379c-0.301,0.113-0.973,1.08-1.621,2.016
			c-0.957,1.379-2.039,2.939-3.035,3.584C134.082,59.209,133.809,59.277,133.516,59.277z"/>
		<path d="M133.447,49.975c-1.479,0-2.049-1.033-2.057-1.049l0.359-0.189c0.033,0.064,0.873,1.539,3.395,0.418l0.164,0.371
			C134.57,49.854,133.955,49.975,133.447,49.975z"/>
		<path d="M122.547,41.555l-0.432-0.27c0.027-0.045,0.717-1.137,2.139-1.797c1.307-0.604,3.502-0.939,6.535,0.902l-0.264,0.434
			c-2.271-1.379-4.301-1.676-6.035-0.885C123.195,40.529,122.553,41.543,122.547,41.555z"/>
		<path d="M126.123,43.174c-1.758,0-2.793-0.666-2.861-0.713l0.17-0.254c0.027,0.018,2.721,1.744,6.848-0.514l0.146,0.266
			C128.727,42.889,127.271,43.174,126.123,43.174z"/>
		<path d="M136.051,41.148l-0.432-0.268c0.027-0.047,0.717-1.141,2.139-1.799c1.309-0.604,3.502-0.939,6.535,0.902l-0.264,0.434
			c-2.271-1.379-4.301-1.678-6.035-0.885C136.699,40.125,136.057,41.137,136.051,41.148z"/>
		<path d="M139.627,42.768c-1.758,0-2.791-0.666-2.861-0.715l0.168-0.252c0.027,0.018,2.725,1.744,6.85-0.516l0.146,0.268
			C142.23,42.482,140.775,42.768,139.627,42.768z"/>
		<g>
			<path d="M130.555,36.75c0,0-4.875-1.625-5.482-1.424c-0.611,0.205-3.758,2.133-3.758,2.133l0.813,0.305
				c0,0,2.133-1.625,2.742-1.625s3.959,1.625,4.873,1.422S130.555,36.75,130.555,36.75z"/>
			<path d="M122.152,37.936l-1.182-0.441l0.266-0.164c0.129-0.08,3.168-1.941,3.787-2.148c0.051-0.016,0.117-0.025,0.197-0.025
				c1.029,0,5.205,1.389,5.383,1.447l0.086,0.029l0.016,0.092c0.002,0.006,0.113,0.754-0.93,0.986
				c-0.063,0.014-0.137,0.021-0.219,0.021l0,0c-0.676,0-1.945-0.482-3.066-0.906c-0.691-0.264-1.41-0.535-1.621-0.535
				c-0.408,0-1.84,0.979-2.65,1.594L122.152,37.936z M121.66,37.426l0.443,0.166c0.412-0.311,2.166-1.604,2.766-1.604
				c0.254,0,0.822,0.209,1.73,0.553c1.041,0.395,2.338,0.885,2.957,0.885l0,0c0.061,0,0.111-0.004,0.152-0.014
				c0.564-0.125,0.676-0.41,0.693-0.553c-0.662-0.219-4.287-1.396-5.18-1.396c-0.068,0-0.094,0.006-0.102,0.01
				C124.688,35.617,122.801,36.732,121.66,37.426z"/>
		</g>
		<g>
			<path d="M135.635,33.906c0,0,4.873-1.625,5.484-1.422c0.607,0.203,3.758,2.133,3.758,2.133l-0.814,0.305
				c0,0-2.131-1.625-2.74-1.625s-3.961,1.625-4.873,1.42C135.533,34.516,135.635,33.906,135.635,33.906z"/>
			<path d="M144.037,35.094l-0.066-0.051c-0.811-0.617-2.244-1.596-2.648-1.596c-0.211,0-0.93,0.273-1.623,0.537
				c-1.119,0.424-2.391,0.904-3.066,0.904c-0.082,0-0.154-0.008-0.219-0.021c-1.043-0.23-0.93-0.979-0.928-0.986l0.014-0.09
				l0.088-0.029c0.176-0.061,4.352-1.447,5.379-1.447c0.084,0,0.148,0.008,0.199,0.025c0.619,0.205,3.66,2.068,3.789,2.146
				l0.266,0.164L144.037,35.094z M141.322,33.143c0.598,0,2.354,1.295,2.766,1.607l0.441-0.166
				c-1.141-0.693-3.025-1.811-3.459-1.955c-0.006-0.002-0.033-0.01-0.104-0.01c-0.893,0-4.521,1.18-5.18,1.396
				c0.016,0.146,0.125,0.428,0.693,0.553c0.041,0.012,0.094,0.016,0.152,0.016c0.621,0,1.918-0.492,2.959-0.887
				C140.498,33.355,141.066,33.143,141.322,33.143z"/>
		</g>
		<path stroke="#000000" stroke-width="0.5" stroke-miterlimit="10" d="M147.568,42.098c-1.385-0.693-1.732-10.33-1.732-10.426
			c-0.09-0.475-4.016-4.248-6.502-6.545c-4.955,0.293-14.459,0.947-15.398,1.338c-0.211,0.088-0.965,1.037-3.418,7.953
			c-1.355,3.816-2.576,7.619-2.59,7.656l-0.289-0.092c0.012-0.037,1.236-3.846,2.592-7.666c2.762-7.789,3.361-8.037,3.586-8.133
			c1.23-0.51,14.979-1.33,15.564-1.365l0.063-0.004l0.049,0.045c0.016,0.014,1.67,1.543,3.303,3.125
			c3.346,3.242,3.346,3.543,3.346,3.688c0,0.256,0.102,2.658,0.365,5.129c0.453,4.221,0.988,4.92,1.197,5.023L147.568,42.098z"/>
		<rect x="147.207" y="43.113" transform="matrix(-0.9701 -0.2425 0.2425 -0.9701 279.6107 122.74)" width="0.306" height="2.092"/>
		<path d="M119.775,46.947c-0.455-0.121-2.727-0.768-2.949-1.523c-0.654-2.223,0.832-3.307,0.848-3.316l0.176,0.248l-0.088-0.125
			l0.088,0.125c-0.055,0.039-1.322,0.975-0.732,2.98c0.137,0.461,1.75,1.053,2.736,1.318L119.775,46.947z"/>
		<path d="M118.969,45.373c-0.164-0.643-0.412-1.051-0.717-1.18c-0.252-0.109-0.467,0.008-0.477,0.014l-0.152-0.266
			c0.016-0.008,0.348-0.195,0.742-0.031c0.402,0.168,0.705,0.635,0.898,1.387L118.969,45.373z"/>
		<path stroke="#000000" stroke-width="0.5" stroke-miterlimit="10" d="M117.611,42.258L115.164,29l0.033-0.051
			c0.014-0.021,1.547-2.393,3.127-4.723c3.25-4.789,3.523-4.746,3.689-4.721c0.076,0.01,0.135,0.064,0.158,0.143l-0.291,0.084
			c0.004,0.02,0.021,0.047,0.055,0.063c0.033,0.018,0.063,0.012,0.07,0.008c-0.514,0.195-4.258,5.762-6.52,9.262l2.426,13.141
			L117.611,42.258z"/>
		<path stroke="#000000" stroke-width="0.5" stroke-miterlimit="10" d="M147.35,41.635c-0.141-1.746,1.807-6.328,3.094-9.357
			c0.555-1.305,1.08-2.535,1.08-2.738c-0.02-0.576-4.547-6.857-6.266-9.148c-0.459-0.611-5.924-4.865-8.963-7.193
			c0.006,0.494,0.025,1.438,0.096,1.793c0.1,0.496,0.602,2.307,0.607,2.324l0.129,0.471l-0.373-0.313
			c-0.025-0.021-2.445-2.037-3.547-2.838c-0.875-0.635-2.145-2.383-2.703-3.184v2.443l-0.266-0.297
			c-0.016-0.02-1.721-1.918-2.307-2.309c-0.541-0.363-2.012-2.613-2.455-3.303c-0.164,0.275-0.459,0.875-0.66,1.885
			c-0.293,1.459,0.793,4.049,0.803,4.074l0.209,0.496l-0.438-0.313c-0.016-0.012-1.434-1.021-2.734-1.822
			c-0.783-0.482-1.156-1.162-1.336-1.668c-0.193,0.969-0.502,2.799-0.361,4.061c0.199,1.789,1.705,6.219,1.719,6.264l-0.287,0.098
			c-0.064-0.184-1.531-4.506-1.734-6.328c-0.203-1.834,0.482-4.703,0.512-4.826l0.229-0.951l0.07,0.977
			c0,0.014,0.115,1.357,1.35,2.117c0.883,0.541,1.816,1.18,2.336,1.541c-0.309-0.84-0.869-2.607-0.635-3.779
			c0.307-1.543,0.822-2.172,0.844-2.199l0.135-0.16l0.111,0.178c0.531,0.838,2.016,3.088,2.494,3.406s1.586,1.506,2.098,2.066
			v-2.646l0.279,0.42c0.018,0.025,1.826,2.727,2.908,3.514c0.846,0.615,2.461,1.939,3.189,2.541
			c-0.158-0.578-0.414-1.527-0.484-1.879c-0.104-0.518-0.104-2.096-0.104-2.162V12.58l0.244,0.188
			c0.354,0.27,8.654,6.621,9.27,7.441c0.063,0.084,6.324,8.5,6.324,9.33c0,0.252-0.357,1.105-1.102,2.857
			c-1.275,3.002-3.205,7.543-3.072,9.213L147.35,41.635z"/>
		<path d="M126.596,43.096c-1.148,0-2.082-0.865-2.082-1.93s0.934-1.93,2.082-1.93c1.146,0,2.08,0.865,2.08,1.93
			S127.742,43.096,126.596,43.096z M126.596,39.541c-0.98,0-1.777,0.729-1.777,1.625c0,0.895,0.797,1.623,1.777,1.623
			c0.979,0,1.775-0.729,1.775-1.623C128.371,40.27,127.574,39.541,126.596,39.541z"/>
		<g>
			<ellipse cx="126.443" cy="41.623" rx="1.168" ry="1.117"/>
			<path d="M126.443,42.891c-0.729,0-1.32-0.566-1.32-1.268s0.592-1.27,1.32-1.27c0.727,0,1.32,0.568,1.32,1.27
				S127.17,42.891,126.443,42.891z M126.443,40.658c-0.561,0-1.016,0.434-1.016,0.965s0.455,0.965,1.016,0.965
				c0.559,0,1.014-0.434,1.014-0.965S127.004,40.658,126.443,40.658z"/>
		</g>
		<circle fill="#FFFFFF" cx="126.68" cy="41.199" r="0.457"/>
		<path d="M139.896,42.654c-1.148,0-2.082-0.865-2.082-1.928c0-1.064,0.934-1.93,2.082-1.93c1.146,0,2.082,0.865,2.082,1.93
			C141.979,41.789,141.043,42.654,139.896,42.654z M139.896,39.102c-0.979,0-1.777,0.729-1.777,1.625s0.799,1.623,1.777,1.623
			c0.98,0,1.777-0.727,1.777-1.623S140.877,39.102,139.896,39.102z"/>
		<g>
			<ellipse cx="139.744" cy="41.183" rx="1.168" ry="1.116"/>
			<path d="M139.744,42.451c-0.729,0-1.32-0.568-1.32-1.27c0-0.699,0.592-1.268,1.32-1.268c0.727,0,1.32,0.568,1.32,1.268
				C141.064,41.883,140.473,42.451,139.744,42.451z M139.744,40.219c-0.561,0-1.016,0.432-1.016,0.963
				c0,0.533,0.455,0.965,1.016,0.965s1.016-0.432,1.016-0.965C140.76,40.65,140.305,40.219,139.744,40.219z"/>
		</g>
		<circle fill="#FFFFFF" cx="139.982" cy="40.76" r="0.457"/>
		<circle fill="#FFFFFF" cx="127.277" cy="41.749" r="0.216"/>
		<circle fill="#FFFFFF" cx="140.604" cy="41.267" r="0.216"/>
		<path d="M133.73,69.863c-0.479-0.09-0.814-0.301-0.996-0.623c-0.289-0.512-0.076-1.109-0.066-1.135l0.285,0.105l-0.143-0.053
			l0.143,0.053c0,0-0.174,0.494,0.047,0.881c0.137,0.24,0.4,0.4,0.789,0.473L133.73,69.863z"/>
		<path fill="#FFFFFF" d="M128.205,73.33c0,0,13.779-2.873,13.666-2.873c-0.109,0,1.143,6.76,1.143,6.76s-9.352,2.482-9.463,2.555
			c-0.109,0.074-6.959-2.826-6.959-2.826l1.613-3.469"/>
	</g>
	<g id="bleistift">
		<g>
			<polyline fill="#FFFFFF" stroke="#000000" stroke-width="0.3593" stroke-miterlimit="10" points="150.172,44.768 153.979,46.322 
				152.842,42.4 			"/>
			<path fill="none" stroke="#000000" stroke-width="0.3593" stroke-miterlimit="10" d="M148.826,35.928"/>
			<polygon fill="#FFFFFF" stroke="#000000" stroke-width="0.3593" stroke-miterlimit="10" points="146.949,36.055 152.842,42.4 
				150.172,44.768 144.281,38.225 			"/>
			<polygon stroke="#000000" stroke-width="0.3593" stroke-miterlimit="10" points="152.43,45.689 153.482,44.609 153.979,46.322 
							"/>
			
				<line fill="none" stroke="#000000" stroke-width="0.3593" stroke-miterlimit="10" x1="146.949" y1="37.828" x2="152.016" y2="43.133"/>
			
				<line fill="none" stroke="#000000" stroke-width="0.3593" stroke-miterlimit="10" x1="145.887" y1="38.494" x2="150.973" y2="44.057"/>
			<polygon fill="#FFFFFF" stroke="#000000" stroke-width="0.3593" stroke-miterlimit="10" points="144.281,36.578 145.348,35.531 
				146.949,36.055 146.949,37.828 145.887,38.494 144.281,38.061 			"/>
		</g>
		<path fill="#FFFFFF" d="M147.521,41.75c0,0,0.961,0.379,1.232,0.549c0.273,0.172,0.506,1.35,0.506,1.35l-0.105,0.816l-1.633-2.063
			V41.75L147.521,41.75z"/>
		<path d="M146.813,46.434l-0.115-0.281c0.023-0.01,2.215-0.918,2.344-2.043c0.127-1.102-0.264-1.809-1.162-2.098
			c-0.064-0.021-0.186-0.061-0.168-0.191c0.018-0.133,0.125-0.137,0.285-0.145l0.039-0.004l0.002,0.072
			c1.254,0.439,1.404,1.545,1.309,2.4C149.195,45.447,146.91,46.395,146.813,46.434z"/>
	</g>
	<g id="schuhe_2_">
		<path stroke="#000000" stroke-linecap="round" stroke-linejoin="round" stroke-miterlimit="10" d="M178.426,238.141l0.617,0.742
			v2.166c0,0-4.572,1.375-6.082,1.457c-1.512,0.084-4.613,0.139-7.58-0.795c-2.967-0.936-6.783-2.828-6.783-2.828
			s-1.758,0.219-4.229,0.191c-2.473-0.027-5.383-0.713-5.383-0.713l1.152-2.609l10.051,0.137c0,0,11.344,3.365,11.426,3.262
			S178.426,238.141,178.426,238.141z"/>
		<path stroke="#000000" stroke-linecap="round" stroke-linejoin="round" stroke-miterlimit="10" d="M102.529,238.018l0.896,3.693
			c0,0,7.525,0.576,11.178-0.523c3.652-1.098,7.938-2.828,7.938-2.828s3.074,1.621,6.92,1.043c3.846-0.576,4.039-1.18,4.039-1.18
			v-2.115h-6.922l-4.779-0.686l-8.184,2.059l-8.102,0.109L102.529,238.018z"/>
		<path fill="#FFFFFF" stroke="#000000" stroke-linecap="round" stroke-linejoin="round" stroke-miterlimit="10" d="
			M118.172,229.352l-3.955,2.48c0,0-5.549-0.887-6.428-0.779c-0.879,0.111-4.092,1.127-4.504,2.775
			c-0.41,1.646-0.492,4.094-0.492,4.094s1.564,2.607,5.492,2.498s8.596-1.182,9.529-1.512c0.934-0.328,5.465-2.525,5.465-2.525
			s1.867,1.566,3.928,1.539c2.059-0.029,4.916-0.852,5.162-0.936c0.248-0.082,1.018-0.355,1.018-0.355l-0.879-6.373l-13.184-1.566
			L118.172,229.352z"/>
		<path fill="#FFFFFF" stroke="#000000" stroke-linecap="round" stroke-linejoin="round" stroke-miterlimit="10" d="M165.16,228.115
			c-0.055,0-0.246,1.648,5.029,2.252c5.271,0.604,6.863,0.273,7.824,1.539c0.963,1.262,1.07,2.717,1.018,4.42
			c-0.055,1.703-0.275,2.418-0.275,2.418s-4.092,2.168-6.371,2.252c-2.281,0.082-4.861,0.191-7.059-0.742
			c-2.197-0.932-6.344-3.24-6.398-3.24c-0.057,0-2.527,0.988-4.092,0.879c-1.566-0.111-5.275-1.072-5.275-1.072s0.248-1.676,0-2.58
			c-0.246-0.906-0.713-3.627-0.713-3.627l9.971-1.041L165.16,228.115z"/>
	</g>
	<g id="hose_1_">
		<path fill="#FFFFFF" stroke="#000000" stroke-miterlimit="10" d="M112.018,147.439c0,0,0.189,6.684,0.488,11.539
			c0.299,4.857,1.357,20.873,1.879,25.99c0.521,5.121,1.736,16.146,2.375,19.166c0.641,3.021,1.916,8.926,1.803,11.945
			s0.008,7.221,0.008,7.221l0.668,1.049L134,222.775c0,0-2.029-9.713-2.424-14.703c-0.393-4.986-0.393-11.551-0.262-14.965
			c0.131-3.41,0.131-4.059,0.393-7.213c0.264-3.154,0.656-7.617,0.656-9.588c0-1.967,0.527-8.139,0.658-9.977
			c0.131-1.836,0.979-8.268,0.979-8.268s3.217,11.025,3.414,13.125c0.199,2.1,0.727,5.908,1.25,7.875
			c0.525,1.969,1.969,7.221,3.02,11.027s3.02,10.369,3.414,12.602c0.393,2.232,2.492,11.289,2.754,14.439
			c0.264,3.15,0.525,5.514,0.525,5.514l13.195-2.232l0.914-1.707c0,0-3.455-17.59-3.795-21.658
			c-0.338-4.068-1.637-16.275-1.775-18.246c-0.137-1.969-0.695-14.121-0.695-14.121l-2.031-15.924c0,0,0.15-2.23-0.338-4.207
			c-0.484-1.975-2.029-8.516-2.506-9.971c-0.475-1.455-1.918-5.881-1.918-5.881l-1.969-4.5l-24.027,0.918l-7.725,18.23
			L112.018,147.439z"/>
		<path fill="none" stroke="#000000" stroke-miterlimit="10" d="M128.271,150.447c0,0,3.568,0.711,5.01,0.617
			c1.445-0.092,3.971-1.102,3.971-1.102"/>
		<path fill="none" stroke="#FFFFFF" stroke-miterlimit="10" d="M132.762,151.074"/>
		<line fill="none" stroke="#000000" stroke-miterlimit="10" x1="132.762" y1="151.074" x2="134" y2="158.063"/>
	</g>
	<g id="stülpen_x23_">
		<path fill="#FFFFFF" stroke="#000000" stroke-miterlimit="10" d="M148.074,219.627c0,0-2.303,1.311-1.984,3.279
			c0.32,1.969,2.207,7.088,1.984,7.482c-0.221,0.393,0.02,1.311,0.02,1.311s6.848,1.971,11.18,0
			c4.332-1.967,7.125-2.625,7.105-3.543c-0.018-0.92-1.098-5.775-1.541-6.957c-0.445-1.182-2.477-3.139-2.512-3.314
			c-0.033-0.174-3.994,3.076-6.514,3.5c-2.518,0.428-7.42,1.416-7.49,0.725C148.25,221.422,148.074,219.627,148.074,219.627z"/>
		<path fill="#FFFFFF" stroke="#000000" stroke-miterlimit="10" d="M115.693,230.648c0,0,0.656-2.492,0.656-3.936
			c0-1.445,0-3.02,0-3.02s2.754-1.969,4.66-2.1c1.902-0.131,10.514-1.182,11.752,0s2.096,1.313,2.096,1.313s-1.379,2.23-1.477,3.936
			c-0.098,1.709,0,4.99,0,4.99s-4.561-1.313-8.105-1.576c-3.545-0.262-6.713-0.523-6.713-0.523
			C117.27,230.256,115.693,230.648,115.693,230.648z"/>
	</g>
	<g id="haut">
		<path fill="#FFFFFF" stroke="#000000" stroke-width="0.7186" stroke-miterlimit="10" d="M165.961,114.385
			c0,0,0.041,10.137,0,11.578c-0.041,1.443,0.207,8.158,0.207,8.158h6.922c0,0,0.74-15,0.783-17.102
			c0.041-2.1-0.084-7.332-0.248-7.869c-0.164-0.535-6.057,4.367-6.057,4.367L165.961,114.385z"/>
		<path fill="none" stroke="#FFFFFF" stroke-width="0.7186" stroke-miterlimit="10" d="M91.053,88.416"/>
		<path fill="none" stroke="#FFFFFF" stroke-width="0.7186" stroke-miterlimit="10" d="M91.053,83.893"/>
	</g>
	<g id="shirt">
		<path fill="#FFFFFF" stroke="#000000" stroke-width="0.7186" stroke-miterlimit="10" d="M126.018,75.26l1.092-0.383
			c0,0,1.982,2.938,4.416,2.666s4.715-0.797,5.586-1.324c0.869-0.525,1.773,4.693,1.773,4.693s-5.51,5.98-5.6,6.199
			c-0.09,0.217-5.088,1.305-5.088,1.305l-3.381-7.938L126.018,75.26z"/>
		<path fill="#FFFFFF" d="M126.691,75.584c0,0,0.891-1.488,1.055-2.654c0.057-0.4,0.691-1.867,0.635-2.646
			c-0.152-2.219-0.25-3.242-0.293-4.023c-0.096-1.656-0.084-1.764-0.084-1.764l-0.123,0.107l-5.176,4.383L126.691,75.584z"/>
	</g>
	<g id="handschuhe">
		<path fill="#FFFFFF" stroke="#000000" stroke-linecap="square" stroke-linejoin="bevel" stroke-miterlimit="10" d="
			M163.596,149.563c-0.227-0.85-0.424-1.703-0.391-2.383c0.053-1.195,0.107-2.557,0.434-2.883s0.979-1.412,1.141-1.574
			c0.164-0.164,0.6-0.164,0.545-0.762c-0.055-0.6-0.652-3.262-0.924-4.73c-0.271-1.467-0.545-2.936-0.488-3.316
			c0.053-0.379,0.379-1.303,0.596-1.576c0.219-0.271,1.143-0.941,1.143-0.941s-0.109,1.377,1.25,1.484
			c1.359,0.109,4.947,0.436,5.6,0.273c0.652-0.164,1.195-0.924,1.25-1.252c0.055-0.326-0.434-1.357-0.434-1.357
			s2.607,1.576,2.607,2.391c0,0.816-0.326,3.535-0.598,4.566c-0.203,0.773-0.713,2.805-0.91,4.205"/>
		<path fill="none" stroke="#000000" stroke-miterlimit="10" d="M163.949,134.576c0,0,1.268,2.166,2.896,2.33
			c1.631,0.162,4.459,0.215,5.764,0c1.305-0.219,1.645-0.303,2.336-0.709c0.693-0.404,0.693-0.404,0.693-0.404"/>
		<path fill="#FFFFFF" stroke="#000000" stroke-miterlimit="10" d="M84.76,47.004c0,0,1.252-1.656,2.266-1.529
			c1.016,0.125,2.029,0.328,2.266,0.904c0.236,0.574,0.643,0.625,0.643,0.625s0.676-0.869,1.318-0.766
			c0.643,0.105,1.285,0.514,1.42,0.766s0.744-0.523,1.387-0.287s1.486,0.811,1.691,2.027c0.201,1.217,0.336,2.807,0.234,3.314
			c-0.1,0.508-0.574,1.25-1.318,1.453c-0.742,0.203-1.588,0.27-1.961,0c-0.371-0.271-0.539-0.574-0.539-0.574
			s-0.576,0.473-1.557,0.338s-1.588-0.236-1.859-0.609c-0.271-0.371-0.305-0.541-0.305-0.541s-0.541,0.609-1.486,0.441
			c-0.947-0.17-1.859-0.104-2.027-1.117c-0.172-1.016,0-1.521,0.1-2.23c0.102-0.711,0.135-1.32-0.033-1.455
			C84.828,47.629,84.76,47.004,84.76,47.004z"/>
		<path fill="#FFFFFF" stroke="#000000" stroke-miterlimit="10" d="M95.551,48.082c0,0,2.672-2.65,2.855-2.82
			c0.182-0.17,1.162-1.115,1.705-1.115c0.539,0,1.588,0.338,1.893,1.047c0.305,0.711,0.473,1.285,0,2.096
			c-0.473,0.813-1.994,2.908-1.994,2.908h-2.504l-1.604-0.35L95.551,48.082z"/>
		<path fill="none" stroke="#000000" stroke-miterlimit="10" d="M88.496,52.252c0,0-0.154-1.412,0-2.189
			c0.152-0.777,0.32-1.482,0.32-1.482"/>
		<path fill="none" stroke="#000000" stroke-miterlimit="10" d="M92.166,52.938c0,0-0.17-1.184,0-2.232
			c0.168-1.049,0.371-1.961,0.371-1.961"/>
	</g>
	<g id="hammer">
		<path fill="#FFFFFF" stroke="#000000" stroke-miterlimit="10" d="M161.072,155.334c0,0-1.604,0.592-1.631,1.754
			c-0.027,1.164,0.191,2.715,0.814,3.049c0.625,0.33,1.316,0.996,1.316,0.996s0.195,1.549,0.389,2.324
			c0.193,0.777,0.525,1.883,0.525,1.883s-0.857,1.523-2.049,1.746s-2.021,0.527-2.629,0.332c-0.611-0.193-1.248-0.887-1.248-0.887
			l-0.748-4.07c0,0,0.832-0.969,0.777-1.412c-0.057-0.441-0.029-1.383-0.584-1.662c-0.553-0.275-0.887-0.691-1.412-0.607
			c-0.523,0.082-0.885,0.359-0.885,0.359s-2.52-3.738-2.355-6.59c0.166-2.852,0.582-4.207,0.582-4.207s0.334-3.711,0.305-3.768
			c-0.025-0.055,1.857,0,1.857,0l0.139,6.174l0.691-6.199h1.494c0,0-0.441,1.938-0.359,3.209c0.084,1.273-0.166,2.494,0.277,3.158
			s1.439,1.207,2.049,1.129s1.531-0.535,1.531-0.535"/>
		<path fill="#FFFFFF" stroke="#000000" stroke-miterlimit="10" d="M159.832,151.555l27.398-14.506c0,0,1.469,0.889,1.713,2.031
			c0.244,1.141,0,2.691,0,2.691l-27.871,13.563c0,0-1.076-0.898-1.24-1.686C159.67,152.859,159.832,151.555,159.832,151.555z"/>
		<path fill="none" stroke="#000000" stroke-miterlimit="10" d="M155.813,162.461c0,0,1.801,0.555,3.02,0.221
			c1.217-0.33,1.855-0.635,2.215-0.967c0.359-0.334,0.525-0.582,0.525-0.582"/>
		<path fill="#FFFFFF" d="M160.631,153.848l27.885-13.76c0,0,0.084,0.941,0,1.219c-0.084,0.275-27.248,13.482-27.248,13.482
			s-0.359-0.33-0.471-0.523C160.688,154.07,160.631,153.848,160.631,153.848z"/>
	</g>
	<g id="Ebene_10_1_">
		<path fill="#FFFFFF" d="M174.416,141.707c0.039-0.264-0.055,1.514,0.307,2.842c0.359,1.328,0.748,3.344,0.627,4.574
			c-0.119,1.23-1.43,3.99-1.43,3.99l-0.656,1.025c0,0-0.607,1.262-0.957,1.365c-0.352,0.102-1.766-0.17-1.766-0.17
			s-0.367,1.031-0.979,1.117c-0.609,0.082-2.24-0.137-2.369-0.438c-0.131-0.301-0.402-1.551-0.402-1.551l-1.467-0.434l-0.309-0.287
			l2.025-0.957c0,0,0.215-1.293,0.162-2.18c-0.051-0.887-0.033-2.59-0.117-2.891s-1.023-1.949-1.023-1.949l4.846-4.367
			L174.416,141.707z"/>
	</g>
	<g id="handschuh2">
		<path fill="none" stroke="#000000" stroke-linecap="square" stroke-linejoin="bevel" stroke-miterlimit="10" d="M174.416,141.707
			c-0.066,0.467-0.096,0.865-0.068,1.123c0.109,1.033,1.195,4.402,1.141,5.654c-0.055,1.25-0.379,2.445-0.598,3.045
			c-0.217,0.596-1.357,2.119-1.357,2.119s-0.109,0.162-0.49,0.924s-0.543,0.924-1.088,1.033c-0.543,0.107-1.414-0.271-1.414-0.271
			s0.057,0.598-0.324,0.869s-1.467,0.434-2.012,0.271c-0.545-0.164-1.033-0.217-1.143-0.762c-0.107-0.543-0.271-1.25-0.271-1.25
			s-0.922-0.055-1.467-0.434c-0.174-0.123-0.336-0.301-0.486-0.527"/>
		<path fill="none" stroke="#000000" stroke-miterlimit="10" d="M165.551,145.488c0,0,1.336,1.447,1.447,2.42
			c0.113,0.973,0.289,2.107,0.172,2.932c-0.113,0.822-0.535,1.283-0.535,1.283l0.42,2.316"/>
		<path fill="none" stroke="#000000" stroke-miterlimit="10" d="M170.379,148.756c0,0,0.436,1.631,0.49,2.826
			c0.053,1.195,0.055,2.066,0,2.5c-0.055,0.436-0.328,1.252-0.328,1.252"/>
		<path fill="none" stroke="#000000" stroke-miterlimit="10" d="M173.424,148.484c0,0,0.273,1.467,0.217,2.283
			c-0.053,0.814-0.107,2.881-0.107,2.881"/>
		<path fill="#FFFFFF" stroke="#000000" stroke-miterlimit="10" d="M174.375,143.344c0,0-0.461,0.465-1.441,1.01
			c-0.979,0.543-1.846,0.707-2.555,0.869c-0.705,0.162-1.576,1.033-1.738,1.738c-0.164,0.707-0.328,1.576,0.707,1.85
			c1.031,0.271,1.631,0.381,3.152,0s2.848-1.266,2.848-1.266"/>
	</g>
	<g id="innen">
		<path fill="#FFFFFF" d="M146.57,71.262c0,0,3.795,2.494,4.234,2.701c0.439,0.211,5.242,2.174,5.242,2.174l1.992,1.08l-1.096,2.443
			l-2.111,12.396l-0.08,7.211l-1.236,3.154l-0.557,1.813l-0.479,3.506l-0.898,4.65l-1.152,4.074c0,0,1.117,2.885,1.184,4.023
			c0.066,1.141-0.752,5.391-0.752,5.391s-1.479,0.697-2.951,1.063c-1.471,0.365-9.797,1.244-11.549,1.377
			c-1.75,0.133-9.254,0.703-9.254,0.703h-15.656c0,0-0.916-0.539-1.047-1.691c-0.131-1.15-0.385-5.211-0.385-5.211
			s-0.135-3.383,0-3.969c0.131-0.586,0.547-2.396,0.645-2.779c0.1-0.383,0.459-1.25,0.459-1.25s-0.482-1.525-0.666-3.994
			c-0.188-2.465-0.438-4.752-0.438-4.752l0.508-2.5l0.381-1.197c0,0-0.26-2.4-0.291-3.156c-0.031-0.76,0.209-3.436,0.379-4.252
			c0.168-0.814,2.67-9.992,2.67-9.992l1.537-6.246l1.141-4.893l2.219-1.412l0.717-0.465l4.258-0.941c0,0,4.088,6.85,4.705,9.045
			c0.617,2.197,1.693,6.82,1.693,6.82s1.564-2.197,2.393-3.055c0.828-0.859,2.221-1.902,2.973-2.838s1.311-2.234,1.49-3.35
			c0.182-1.113,0.51-3.441,0.51-3.441l0,0l3.125-0.838l4.215-0.883"/>
		<path fill="none" stroke="#000000" stroke-miterlimit="10" d="M150.43,116.465c0,0-3.082,2.447-3.738,3.332"/>
		<path fill="none" stroke="#000000" stroke-miterlimit="10" d="M111.283,114.32c0,0,1.377,3.607,1.441,4.459"/>
	</g>
	<g id="hemd">
		<path fill="none" stroke="#000000" stroke-miterlimit="10" d="M127.621,64.982l-4.916,4.002c0,0,3.588,5.568,4.621,7.854
			c1.033,2.281,1.957,6.467,1.957,6.467l0.652,2.883c0,0,2.203-3.047,3.223-3.916c1.018-0.869,2.973-2.5,3.301-3.75
			c0.326-1.25,0.652-3.426,0.652-3.969s-0.381-2.174-0.381-2.174"/>
		<path fill="#FFFFFF" stroke="#000000" stroke-miterlimit="10" d="M136.797,72.678l5.695-6.717l4.078,5.301
			c0,0-2.502,1.877-3.373,3.072c-0.867,1.197-2.895,4.078-2.895,4.078L136.797,72.678z"/>
		<path fill="#FFFFFF" stroke="#000000" stroke-linecap="square" stroke-linejoin="bevel" stroke-miterlimit="10" d="
			M122.705,68.984l-1.631,7.363c0,0,1.576-2.229,2.338-2.773c0.76-0.543,1.588-0.908,1.588-0.908L122.705,68.984z"/>
		<path fill="none" stroke="#000000" stroke-miterlimit="10" d="M129.908,86.459c0,0-2.527,11.197-2.799,12.828
			c-0.273,1.629-1.143,8.588-1.088,10.49c0.055,1.904,0.217,9.242,0.379,11.037c0.164,1.793,0.709,8.207,0.709,8.207l10.002-0.76
			l8.979-0.869l4.611-1.143c0,0,0.76-1.576,0.924-3.479c0.162-1.902-0.055-2.719-0.381-4.131c-0.326-1.416-0.814-2.178-0.814-2.178
			s1.25-4.131,1.686-6.303c0.434-2.176,0.598-5.328,1.033-6.688c0.434-1.359,1.684-4.404,1.684-4.404"/>
		<path fill="none" stroke="#000000" stroke-miterlimit="10" d="M146.57,71.262c0,0,3.26,2.313,4.674,2.91s6.795,2.773,6.795,2.773"
			/>
		<path fill="#FFFFFF" stroke="#000000" stroke-miterlimit="10" d="M154.752,99.266c0,0-0.898-2.369-0.898-4.979
			c0-2.611-0.027-4.404,0.449-6.471c0.475-2.064,1.072-4.293,1.563-5.598c0.49-1.307,2.174-5.002,2.174-5.002
			s3.098,3.207,5.166,7.447c2.064,4.24,1.303,2.664,2.064,4.24s2.664,4.729,2.99,5.871s1.25,3.586,2.012,5
			c0.76,1.414,2.338,5.871,2.338,5.871l-9.621,4.893c0,0-2.557-4.293-3.535-5.273c-0.979-0.977-2.719-3.314-3.314-4.131
			C155.539,100.32,154.752,99.266,154.752,99.266z"/>
		<path fill="none" stroke="#000000" stroke-miterlimit="10" d="M122.41,70.32l-3.021,0.699c0,0-2.771,6.197-3.805,8.426
			s-2.881,7.23-3.533,10.111c-0.654,2.881-1.469,6.088-1.469,7.828c0,1.738,0.326,4.293,0.326,4.293s-1.033,2.664-0.76,4.783
			c0.271,2.121,0.271,5.111,0.76,6.688s0,1.305,0,1.305s-0.58,2.121-0.807,3.371s0.047,8.752,0.373,9.84s0.598,1.357,0.598,1.357
			h16.037"/>
		<path fill="#FFFFFF" stroke="#000000" stroke-miterlimit="10" d="M119.389,71.02c0,0-6.305,1.576-7.555,2.391
			c-1.252,0.816-4.621,2.393-5.764,3.209c-1.141,0.814-3.695,2.391-4.512,2.988c-0.814,0.6-3.152,2.502-3.152,2.502l0.543,10.818
			c0,0,1.686,0.107,3.969-0.707c2.283-0.816,6.631-3.588,7.557-4.186c0.922-0.6,2.328-1.182,2.328-1.182s3.236-8.396,3.5-8.975
			C116.563,77.301,119.389,71.02,119.389,71.02z"/>
		<path fill="#FFFFFF" stroke="#000000" stroke-miterlimit="10" d="M91.666,83.25c0,0,1.031-2.283,1.629-2.555
			c0.6-0.271,1.305-0.869,1.957-0.488c0.654,0.379,0.926,0.598,0.926,0.598s0.162-1.088,0.869-1.25
			c0.707-0.164,1.525-0.525,1.955,0.598c0.434,1.123,0.381,4.729,0.654,6.305c0.271,1.578,0.736,4.418,0.869,5.383
			c0.133,0.961,0.219,2.773-0.598,3.479c-0.814,0.707-1.195,0.979-2.121,1.143c-0.922,0.162-0.76,0.381-1.248,0
			c-0.49-0.381-0.42-0.924-0.42-0.924s-1.213,0.488-1.701-0.109c-0.49-0.598-0.436-0.979-0.436-0.979l0.924-1.033l0.545,0.217
			c0,0-0.109-3.207-0.979-5.217c-0.871-2.012-1.902-3.861-1.902-3.861L91.666,83.25z"/>
		<path fill="#FFFFFF" stroke="#000000" stroke-miterlimit="10" d="M161.193,110.16c0,0,1.738-0.654,2.662-1.25
			c0.924-0.6,3.424-2.229,4.457-2.719c1.035-0.49,5.111-1.957,5.111-1.957s1.686,2.012,1.795,2.963
			c0.107,0.949,0.867,2.418-0.219,3.344c-1.086,0.924-3.262,1.738-4.621,2.662s-2.5,1.74-3.533,2.283
			c-1.031,0.543-2.391,0.869-3.098,0s-0.707-0.869-0.98-1.412c-0.27-0.545-0.379-0.979-0.379-0.979s-0.924,0.379-1.195-0.707
			C160.92,111.301,161.193,110.16,161.193,110.16z"/>
		<polygon fill="#FFFFFF" stroke="#000000" stroke-miterlimit="10" points="138.199,87.654 149.723,89.23 147.223,100.211 
			136.797,98.906 		"/>
		<line fill="none" stroke="#000000" stroke-miterlimit="10" x1="137.824" y1="90.652" x2="149.135" y2="91.813"/>
		<line fill="none" stroke="#000000" stroke-miterlimit="10" x1="141.297" y1="91.23" x2="140.426" y2="99.361"/>
		<line fill="none" stroke="#000000" stroke-miterlimit="10" x1="145.221" y1="91.41" x2="144.061" y2="99.672"/>
		<g>
			<circle fill="#FFFFFF" stroke="#000000" stroke-width="0.25" stroke-miterlimit="10" cx="131.525" cy="95.088" r="1.209"/>
			<path fill="#FFFFFF" stroke="#000000" stroke-width="0.25" stroke-miterlimit="10" d="M131.525,96.797
				c-0.943,0-1.711-0.767-1.711-1.709s0.768-1.709,1.711-1.709c0.942,0,1.709,0.767,1.709,1.709S132.468,96.797,131.525,96.797z
				 M131.525,94.379c-0.392,0-0.711,0.318-0.711,0.709s0.319,0.709,0.711,0.709c0.391,0,0.709-0.318,0.709-0.709
				S131.916,94.379,131.525,94.379z"/>
		</g>
		<g>
			<circle fill="#FFFFFF" stroke="#000000" stroke-width="0.25" stroke-miterlimit="10" cx="129.908" cy="105.78" r="1.21"/>
			<path fill="#FFFFFF" stroke="#000000" stroke-width="0.25" stroke-miterlimit="10" d="M129.908,107.49
				c-0.942,0-1.709-0.768-1.709-1.711c0-0.942,0.767-1.709,1.709-1.709s1.709,0.767,1.709,1.709
				C131.617,106.723,130.851,107.49,129.908,107.49z M129.908,105.07c-0.391,0-0.709,0.318-0.709,0.709
				c0,0.392,0.318,0.711,0.709,0.711s0.709-0.319,0.709-0.711C130.617,105.389,130.299,105.07,129.908,105.07z"/>
		</g>
		<g>
			<path fill="#FFFFFF" stroke="#000000" stroke-width="0.25" stroke-miterlimit="10" d="M129.479,115.096
				c0.67,0,1.211,0.543,1.211,1.211c0,0.666-0.541,1.209-1.211,1.209c-0.666,0-1.207-0.543-1.207-1.209
				C128.271,115.639,128.813,115.096,129.479,115.096z"/>
			<path fill="#FFFFFF" stroke="#000000" stroke-width="0.25" stroke-miterlimit="10" d="M129.479,118.016
				c-0.941,0-1.707-0.767-1.707-1.709c0-0.943,0.766-1.711,1.707-1.711c0.943,0,1.711,0.768,1.711,1.711
				C131.189,117.249,130.422,118.016,129.479,118.016z M129.479,115.596c-0.39,0-0.707,0.319-0.707,0.711
				c0,0.391,0.317,0.709,0.707,0.709c0.392,0,0.711-0.318,0.711-0.709C130.189,115.915,129.87,115.596,129.479,115.596z"/>
		</g>
	</g>
	<g id="gürtel">
		<path fill="#FFFFFF" stroke="#000000" stroke-miterlimit="10" d="M123.432,132.424c0,0,9.262-0.752,12.385-1.615
			c3.123-0.861,9.988-2.865,11.578-3.5c1.594-0.635,3.018-1.184,3.287-0.754c0.268,0.43,0.902,3.188,0.666,3.99
			s-1.313,1.609-1.313,1.609c-0.324,0-9.262,3.447-11.686,3.986c-2.426,0.537-14.055,3.334-14.055,3.334L123.432,132.424z"/>
		<path fill="#FFFFFF" stroke="#000000" stroke-miterlimit="10" d="M110.02,128.547l13.574-1.238c0,0,1.076,9.748,1.184,11.201
			c0.107,1.455,0.754,9.586,0.754,9.586s-7.484,1.266-9.314,1.467c-1.832,0.203-3.664,0.822-4.148,0
			c-0.484-0.82-0.916-3.029-0.861-3.783c0.053-0.754,0.861-4.072,0.861-4.072L110.02,128.547z"/>
		<path d="M112.178,134.576l-2.477-7.268c0,0-2.533-0.701-2.748-2.264c-0.215-1.561-0.162-2.277,0.215-2.727
			c0.379-0.449,1.025-0.703,1.025-0.703l0.807,2.408l1.293-0.484l-0.791-2.371c0,0,0.736-0.322,1.113-0.322s1.738,1.123,1.885,1.885
			c0.146,0.766,0.324,2.854,0.324,2.854l-0.701,1.293l2.262,7.244L112.178,134.576z"/>
		<polygon fill="#FFFFFF" stroke="#000000" stroke-width="0.5" stroke-miterlimit="10" points="115.467,134.121 112.506,123.756 
			113.988,123.27 116.76,134.121 		"/>
		<path fill="#FFFFFF" stroke="#000000" stroke-width="0.5" stroke-miterlimit="10" d="M117.775,132.881
			c0,0-0.752-0.834-0.725-1.855c0.027-1.023,0.482-1.527,0.363-2.004c-0.121-0.475-1.197-3.758-1.307-4.137
			c-0.107-0.377-0.646-1.023-0.27-1.615c0.379-0.592,1.949-1.346,2.725-1.186c0.777,0.162,1.477,0.646,1.584,1.508
			c0.107,0.863-0.398,3.932-0.361,4.418c0.039,0.482,0,1.014,0,1.014s0.955,0.709,0.955,1.246c0,0.539-0.195,1.756-0.195,1.756
			L117.775,132.881z"/>
		<polygon fill="#FFFFFF" stroke="#000000" stroke-miterlimit="10" points="110.293,134.121 118.908,132.693 121.277,131.725 
			123.809,144.326 121.01,146.199 112.824,147.439 		"/>
		<line fill="none" stroke="#000000" stroke-miterlimit="10" x1="118.563" y1="132.75" x2="121.01" y2="146.199"/>
	</g>
</g>
</svg>
