<?xml version="1.0" encoding="utf-8"?>
<!-- Generator: Adobe Illustrator 15.1.0, SVG Export Plug-In . SVG Version: 6.00 Build 0)  -->
<!DOCTYPE svg PUBLIC "-//W3C//DTD SVG 1.1//EN" "http://www.w3.org/Graphics/SVG/1.1/DTD/svg11.dtd">
<svg version="1.1" id="Layer_1" xmlns="http://www.w3.org/2000/svg" xmlns:xlink="http://www.w3.org/1999/xlink" x="0px" y="0px"
	 width="1024px" height="600px" viewBox="0 0 1024 600" enable-background="new 0 0 1024 600" xml:space="preserve">
<g>
	<path fill="#EDDAAB" stroke="#1C1C1C" stroke-width="4" stroke-miterlimit="10" d="M302.75,11.132
		c161.078,0,291.657,130.582,291.657,291.656c0,161.079-130.579,291.663-291.657,291.663S11.093,463.867,11.093,302.788
		C11.093,141.714,141.672,11.132,302.75,11.132z"/>
	<rect x="208.467" y="236.492" fill="none" width="224.605" height="129.32"/>
	<text transform="matrix(1 0 0 1 196.8518 511.4041)" fill="#009FE3" font-family="'HoboStd'" font-size="516.644">?</text>
	<g enable-background="new    ">
		<path fill="none" stroke="#050505" stroke-width="3" stroke-miterlimit="10" d="M265.049,316.633
			c0-75.945,78.528-68.194,78.528-132.258c0-21.178-11.363-44.427-35.647-44.427c-29.45,0-36.679,32.034-44.945,32.034
			c-5.683,0-40.298-39.781-40.298-45.983c0-16.527,39.267-52.174,86.794-52.174c65.61,0,109.528,58.889,109.528,121.403
			c0,93.511-102.299,115.212-102.299,154.988c0,22.729-4.651,19.632-27.38,19.632c-17.052,0-24.28,3.097-24.28-16.018V316.633z
			 M234.566,461.808c0-31.005,25.832-56.312,56.837-56.312c32.551,0,58.889,24.798,58.889,56.835
			c0,32.028-26.348,56.827-58.376,56.827C259.887,519.158,234.566,493.323,234.566,461.808z"/>
	</g>
</g>
</svg>
