<?xml version="1.0" encoding="utf-8"?>
<!-- Generator: Adobe Illustrator 16.0.0, SVG Export Plug-In . SVG Version: 6.00 Build 0)  -->
<!DOCTYPE svg PUBLIC "-//W3C//DTD SVG 1.1//EN" "http://www.w3.org/Graphics/SVG/1.1/DTD/svg11.dtd">
<svg version="1.1" id="Calque_1" xmlns="http://www.w3.org/2000/svg" xmlns:xlink="http://www.w3.org/1999/xlink" x="0px" y="0px"
	 width="250px" height="250px" viewBox="0 0 250 250" enable-background="new 0 0 250 250" xml:space="preserve">
<g id="XMLID_12_">
	<g id="XMLID_13_">
		<path fill="#FFFFFF" stroke="#000000" stroke-linecap="round" stroke-linejoin="round" stroke-miterlimit="10" d="M62.534,146.06
			c3.395,0.777,6.934,1.811,10.344,2.07c0.982,0.076,1.958-0.086,2.927,0c10.512,0.904,19.817,3.445,28.959,5.682
			c9.188,2.252,17.236,6.826,26.201,8.615c5.007,3.047,11.232,3.25,17.924,3.791c11.051,0.895,22.662,0.646,31.715-2.24
			c2.271-0.725,4.372-1.975,6.895-2.93c0.934-0.348,1.995-0.342,2.932-0.686c1.244-0.461,2.333-1.391,3.62-1.896
			c1.482-0.584,2.818-0.924,4.136-1.549c1.309-0.625,2.31-1.385,3.62-2.242c2.373-1.549,5.045-3.121,6.724-4.824
			c3.509-3.563,6.103-9.652,5.686-15.16c-0.499-0.527-0.417-1.471-0.688-2.24c-0.47-1.314-1.655-2.398-1.378-3.1
			c4.357,3.893,9.595,9.719,7.581,17.916c-0.502,2.059-2.266,5.01-3.791,6.891c-2.971,3.672-5.547,5.334-9.309,7.754
			c-3.719,2.395-7.76,5.066-11.893,6.721c-6.008,2.398-12.954,2.639-18.786,4.992c-2.166-0.383-3.567,0.941-5.516,1.379
			c-0.994,0.227-2.034,0.064-2.932,0.346c-1.657,0.518-3.192,1.602-4.825,1.896c-4.491,0.814-11.063,0.682-15.687,0.342
			c-15.886-1.154-28.864-6.354-42.919-11.539c-7.12-2.629-16.613-3.328-25.336-3.793c-3.063-0.162-5.902-0.693-8.793-1.031
			c-3.93-0.463-8.052-0.717-12.063-1.381c-3.854-0.637-8.61-0.889-11.376-2.24c-2.928-1.424-4.067-4.688-6.551-6.889
			c-2.663-2.293-5.338-7.551-6.203-12.748c5.518,2.637,11.921,4.496,18.614,6.027C55.619,144.739,59.089,145.272,62.534,146.06z"/>
		<path fill="#FFFFFF" stroke="#000000" stroke-linecap="round" stroke-linejoin="round" stroke-miterlimit="10" d="
			M193.017,123.493c1.242,0.207,3.421-0.139,4.307-0.861c2.02,0.504,3.802,1.254,6.207,1.377c3.549,2.139,6.602,5.092,8.272,8.957
			c0.666,1.545,1.126,3.502,0.862,5.688c-0.647,5.336-3.548,8.43-7.067,11.371c-3.682,3.08-7.469,5.146-12.064,7.063
			c-4.898,2.041-10.254,4.133-14.995,5.516c-0.764-4.131-1.286-7.604-1.038-11.545c0.485-7.656,3.086-12.781,6.207-17.574
			c0.796-1.219,1.389-2.555,2.066-3.445c1.561-2.033,4.225-3.268,5.345-5.512C191.786,124.22,192.503,123.956,193.017,123.493z"/>
		<path fill="#BE1A18" stroke="#000000" stroke-linecap="round" stroke-linejoin="round" stroke-miterlimit="10" d="
			M174.917,116.944c4.74,2.213,9.901,4.002,16.201,4.654c-3.474,4.414-8.954,7.904-11.031,13.781
			c-1.26,3.572-2.372,7.156-3.79,11.025c-3.484-4.674-6.733-9.58-11.205-13.264c0-0.176,0-0.346,0-0.516
			C167.522,126.554,171.174,121.704,174.917,116.944z"/>
		<path fill="#FFFFFF" stroke="#000000" stroke-linecap="round" stroke-linejoin="round" stroke-miterlimit="10" d="
			M176.122,148.989c-0.603,4.381-0.342,10.42,1.208,14.129c-0.806-0.113-1.108,0.271-1.725,0.342
			c-0.995-6.004-3.182-13.666-6.031-18.949c-2.096-2.441-4.319-4.758-6.378-7.236c-0.136-0.035-0.199-0.143-0.175-0.346
			c0.456-0.805,0.888-1.639,1.208-2.584C169.058,138.364,172.438,143.829,176.122,148.989z"/>
		<path fill="#FFFFFF" stroke="#000000" stroke-linecap="round" stroke-linejoin="round" stroke-miterlimit="10" d="
			M161.301,137.274c-1.695,1.271-3.057,4.727-6.206,2.928c-1.578-2.574,0.772-5.814,1.725-8.096
			c1.425-3.424,3.48-9.281,5.859-12.404c0.692-0.908,1.825-1.99,2.759-3.1c2.223-2.646,4.767-3.213,7.065-1.035
			c-0.854,4.146-4.362,6.615-6.203,10.162c-0.967,1.861-1.66,3.867-2.415,5.859C163.153,133.522,162.263,135.343,161.301,137.274z"
			/>
		<path fill="#BE1A18" stroke="#000000" stroke-linecap="round" stroke-linejoin="round" stroke-miterlimit="10" d="
			M165.438,114.362c-1.5,1.082-2.28,2.889-3.794,3.961c-0.086-0.697-0.068-1.82-0.343-2.756
			C162.455,115.056,163.652,113.675,165.438,114.362z"/>
		<path fill="#FFFFFF" stroke="#000000" stroke-linecap="round" stroke-linejoin="round" stroke-miterlimit="10" d="
			M161.301,113.155c0.046,0.355,0.763,0.041,0.688,0.516c-0.448,0.221-0.52,0.381-1.033,0.174
			C160.905,113.454,160.994,113.196,161.301,113.155z"/>
		<path fill="#FFFFFF" stroke="#000000" stroke-linecap="round" stroke-linejoin="round" stroke-miterlimit="10" d="
			M159.576,141.411c0.912,5.203-8.159,4.121-8.793,0.516c-0.014-3.039-0.028-5.539,2.933-5.857
			C151.688,140.046,156.17,143.872,159.576,141.411z"/>
		<path fill="#FFFFFF" stroke="#000000" stroke-linecap="round" stroke-linejoin="round" stroke-miterlimit="10" d="
			M152.337,127.626c1.247,0.705,2.886,1.02,4.137,1.725c-0.727,0.48-0.588,1.824-1.034,2.584c-1.6-0.984-3.762-1.408-5.173-2.584
			C150.972,128.792,151.752,128.312,152.337,127.626z"/>
		<path fill="#FFFFFF" stroke="#000000" stroke-linecap="round" stroke-linejoin="round" stroke-miterlimit="10" d="
			M153.716,109.538c6.342-0.418,6.254,6.291,6.723,11.197c-1.65,1.971-2.063,5.178-3.619,7.236
			c-0.428-0.463-1.275-0.125-1.896-0.688c-0.371-3.004,0.103-6.186-0.175-9.307C154.452,114.665,152.672,111.491,153.716,109.538z"
			/>
		<path fill="#FFFFFF" stroke="#000000" stroke-linecap="round" stroke-linejoin="round" stroke-miterlimit="10" d="
			M142.341,126.249c2.914-3.334,6.555-6.141,11.2-7.41c0.424,2.076-0.203,4.131,0.175,6.205c-5.02,2.963-8.525,7.441-12.409,11.543
			c-0.977,0.07-1.889,0.348-2.587-0.174C138.141,132.272,140.221,128.673,142.341,126.249z"/>
		<path fill="#BE1A18" stroke="#000000" stroke-linecap="round" stroke-linejoin="round" stroke-miterlimit="10" d="
			M147.338,115.741c1.615-1.031,2.808-2.48,4.825-3.104c0.776,1.236,0.897,3.125,1.207,4.822c-2.256,0.447-3.595,1.809-5.861,2.242
			C147.865,118.487,147.026,116.841,147.338,115.741z"/>
		<path fill="#FFFFFF" stroke="#000000" stroke-linecap="round" stroke-linejoin="round" stroke-miterlimit="10" d="
			M151.991,109.708c-0.178,0.453-0.205,1.059-0.171,1.725c-2.067,0.35-3.139,1.689-4.656,2.584c-0.25-1.717-0.667-4.967,1.725-4.996
			C149.771,109.403,150.799,109.642,151.991,109.708z"/>
		<path fill="#FFFFFF" stroke="#000000" stroke-linecap="round" stroke-linejoin="round" stroke-miterlimit="10" d="
			M142.856,140.376c-2.256,1.066-5.095,0.52-7.41-0.174c-2.794-1.984-2.238-8.129,1.896-8.268c-0.229,1.826-0.787,3.9,0,5.34
			c2.326,1.775,5.582,0.326,6.723-1.549C144.457,137.302,143.558,138.948,142.856,140.376z"/>
		<path fill="#FFFFFF" stroke="#000000" stroke-linecap="round" stroke-linejoin="round" stroke-miterlimit="10" d="
			M139.408,103.335c8.832-1.035,5.636,10.449,6.723,17.572c-1.087,0.639-1.817,1.631-2.758,2.412
			c-0.812-0.506-1.963-0.678-2.758-1.205C140.598,115.815,140.447,109.138,139.408,103.335z"/>
		<path fill="#BE1A18" stroke="#000000" stroke-linecap="round" stroke-linejoin="round" stroke-miterlimit="10" d="
			M139.236,121.944c-0.253-0.381-0.923-0.344-1.032-0.863c0.598-0.092,0.802-0.576,1.204-0.861
			C139.633,120.528,139.8,121.882,139.236,121.944z"/>
		<path fill="#FFFFFF" stroke="#000000" stroke-linecap="round" stroke-linejoin="round" stroke-miterlimit="10" d="
			M134.927,114.362c1.602-0.35,2.539-1.369,4.14-1.725c0.149,1.998,0.241,3.662,0.342,5.34c-2.377,1.789-5.155,4.658-7.411,6.895
			c-1.226,1.215-2.439,2.643-3.448,3.445c-1.001,0.795-3.029,2.053-3.962,2.066c-2.776,0.047-2.173-2.662-1.554-4.654
			c3.363-4.1,7.521-7.412,11.894-10.506C134.927,114.937,134.927,114.646,134.927,114.362z"/>
		<path fill="#BE1A18" stroke="#000000" stroke-linecap="round" stroke-linejoin="round" stroke-miterlimit="10" d="
			M138.891,111.087c-2.722,1.529-5.646,2.854-8.618,4.137c0.136-2.416,0.848-6.287,0.692-8.959c1.53-1.434,4.018-3.752,6.894-2.242
			C138.784,105.249,138.681,108.614,138.891,111.087z"/>
		<path fill="#FFFFFF" stroke="#000000" stroke-linecap="round" stroke-linejoin="round" stroke-miterlimit="10" d="
			M136.996,122.632c1.538-0.186,3.331,1.795,5.345,1.549c-0.842,0.791-0.983,2.205-2.242,2.412
			c-0.713,0.117-5.598-1.535-5.688-2.066C135.638,124.042,135.806,122.774,136.996,122.632z"/>
		<path fill="#FFFFFF" stroke="#000000" stroke-linecap="round" stroke-linejoin="round" stroke-miterlimit="10" d="
			M133.377,102.989c-1.38,0-1.54,1.219-2.588,1.555c0.165-1.295-0.705-2.346-0.517-3.104
			C131.274,101.989,132.329,102.491,133.377,102.989z"/>
		<path fill="#FFFFFF" stroke="#000000" stroke-linecap="round" stroke-linejoin="round" stroke-miterlimit="10" d="M127.86,99.028
			c1.229,5.129,2.249,12.922,0.172,17.916c-1.889-0.463-3.111-1.6-4.824-2.236c0.83-4.336,2.298-9.631,1.033-14.131
			c-0.388-1.383-1.582-2.525-1.379-3.961C125.182,96.765,126.231,98.187,127.86,99.028z"/>
		<path fill="#FFFFFF" stroke="#000000" stroke-linecap="round" stroke-linejoin="round" stroke-miterlimit="10" d="
			M119.759,114.532c2.423,1.141,5.027,2.1,7.068,3.621c-0.989,0.502-1.183,1.803-2.414,2.066c-1.918-1.703-4.903-2.336-6.721-4.137
			C118.49,115.677,118.77,114.751,119.759,114.532z"/>
		<path fill="#BE1A18" stroke="#000000" stroke-linecap="round" stroke-linejoin="round" stroke-miterlimit="10" d="
			M120.967,113.329c0.749-0.111,0.631-1.094,1.55-1.033c-0.139,0.545-0.11,1.268-0.346,1.721
			C121.53,114.03,121.185,113.739,120.967,113.329z"/>
		<path fill="#FFFFFF" stroke="#000000" stroke-linecap="round" stroke-linejoin="round" stroke-miterlimit="10" d="
			M126.307,131.417c-1.386,7.781-12.943-0.371-8.614-5.512c1.077-0.51,2.533-1.566,3.963-0.691
			C119.592,128.653,121.772,133.237,126.307,131.417z"/>
		<path fill="#FFFFFF" stroke="#000000" stroke-linecap="round" stroke-linejoin="round" stroke-miterlimit="10" d="M114.59,93.517
			c0.622,1.268,2.041,1.748,3.103,2.582c-1.527,0.143-2.263,1.074-3.448,1.551C114.558,96.474,114.208,94.628,114.59,93.517z"/>
		<path fill="#BE1A18" stroke="#000000" stroke-linecap="round" stroke-linejoin="round" stroke-miterlimit="10" d="
			M114.244,100.577c0.101,0.359,0.651-0.244,1.032-0.17c0.92-2.014,3.4-2.463,6.031-2.758c0.863,1.609,1.241,3.701,1.9,5.514
			c-3.186,1.701-5.971,3.795-9.48,5.168C113.991,106.3,113.749,102.747,114.244,100.577z"/>
		<path fill="#FFFFFF" stroke="#000000" stroke-linecap="round" stroke-linejoin="round" stroke-miterlimit="10" d="M107.867,89.556
			c1.414-0.176,3.474-0.059,4.481,0.686c1.354,6.004-0.039,13.148-0.346,18.779c-1.799-0.281-3.908-1.713-5.344-2.928
			c0.363-1.512-0.1-3.455,0-4.652C106.986,97.585,106.751,92.739,107.867,89.556z"/>
		<path fill="#FFFFFF" stroke="#000000" stroke-linecap="round" stroke-linejoin="round" stroke-miterlimit="10" d="
			M113.382,118.323c-1.471,1.633-5.172,5.273-7.756,2.93c-2.209-2.004,1.717-5.545,2.928-6.721
			c4.006-3.883,10.108-7.467,14.825-9.473c-0.097,1.51-0.459,2.754-0.346,4.479C119.94,111.757,116.111,115.298,113.382,118.323z"/>
		<path fill="#FFFFFF" stroke="#000000" stroke-linecap="round" stroke-linejoin="round" stroke-miterlimit="10" d="
			M103.384,106.093c2.723,1.125,4.483,3.213,7.411,4.133c-0.188,0.617-0.591,1.02-1.204,1.207c-2.469-1.381-4.885-2.818-7.585-3.961
			c0-0.174,0-0.346,0-0.518C102.7,106.901,102.747,106.2,103.384,106.093z"/>
		<path fill="#BE1A18" stroke="#000000" stroke-linecap="round" stroke-linejoin="round" stroke-miterlimit="10" d="M102.868,88.692
			c1.426,0.047,2.152-0.605,3.62-0.516c-1.387,1.98-0.776,4.898-0.862,8.096c-1.432,0.574-2.642,1.381-4.137,1.895
			C101.821,94.56,102.529,92.345,102.868,88.692z"/>
		<path fill="#BE1A18" stroke="#000000" stroke-linecap="round" stroke-linejoin="round" stroke-miterlimit="10" d="
			M104.419,104.886c0.551-0.025,0.514-0.639,1.035-0.688c-0.128,0.742,0.389,1.064-0.174,1.379
			C105.23,105.108,104.558,105.267,104.419,104.886z"/>
		<path fill="#FFFFFF" stroke="#000000" stroke-linecap="round" stroke-linejoin="round" stroke-miterlimit="10" d="M111.141,122.46
			c0.478,5.457-5.942,4.465-8.447,2.238c-2.789-2.482-1.667-7.881,1.726-7.578C101.344,121.929,106.954,124.837,111.141,122.46z"/>
		<path fill="#FFFFFF" stroke="#000000" stroke-linecap="round" stroke-linejoin="round" stroke-miterlimit="10" d="M104.073,87.313
			c-0.261,0.258-0.756,0.277-1.205,0.346c-0.175-0.545-0.025-1.033-0.346-1.725C103.206,86.228,103.744,86.669,104.073,87.313z"/>
		<path fill="#FFFFFF" stroke="#000000" stroke-linecap="round" stroke-linejoin="round" stroke-miterlimit="10" d="M96.837,82.489
			c0.755,0.406,1.636,0.414,2.24,0.863c4.535,3.375,1.079,10.648,0.518,16.365c-0.698,0.223-0.952,0.889-1.725,1.035
			c-1.412-1.176-3.019-2.152-4.482-3.275c2.294-3.969,1.855-12.078,0.171-16.367C94.83,80.544,95.753,81.909,96.837,82.489z"/>
		<path fill="#FFFFFF" stroke="#000000" stroke-linecap="round" stroke-linejoin="round" stroke-miterlimit="10" d="M95.112,117.12
			c-3.054,0.096-5.783-1.088-7.415-2.93c-0.284,0-0.572,0-0.858,0c-0.737-2.758,1.508-5.328,3.963-5.344
			c-0.481,1.127-1.372,1.846-1.205,3.621c1.165,1.658,5.315,1.516,6.548,0C97.235,114.19,96.615,116.282,95.112,117.12z"/>
		<path fill="#FFFFFF" stroke="#000000" stroke-linecap="round" stroke-linejoin="round" stroke-miterlimit="10" d="M89.597,96.792
			c2.895,1.24,4.667,3.6,7.24,5.164c-0.913,0.414-1.065,1.58-2.416,1.551c-2.095-1.639-4.896-2.572-6.548-4.65
			C88.542,98.263,89.005,97.464,89.597,96.792z"/>
		<path fill="#BE1A18" stroke="#000000" stroke-linecap="round" stroke-linejoin="round" stroke-miterlimit="10" d="
			M106.313,128.144c4.561,0.727,8.191-3.35,5.521-6.375c1.908-1.189,2.722-3.48,4.823-4.479c2.329,1.291,4.436,2.805,7.067,3.791
			c-0.155,1.166-0.933,1.707-1.207,2.754c-3.164-1.842-5.995,0.773-7.064,3.104c-0.612,4.664,4.706,10.689,9.477,9.303
			c1.854-0.537,3.895-3.705,2.415-5.688c2.324-1.178,4.034-2.971,5.687-4.824c1.839,1.094,4.597,1.27,6.378,2.414
			c-0.61,0.709-1.037,1.605-1.38,2.586c-3.199-0.982-5.408,2.291-5.686,4.996c-0.431,4.195,3.904,7.723,6.894,8.098
			c4.938,0.615,7.593-5.584,5.861-9.479c1.407-1.232,2.637-2.646,3.965-3.961c1.594,1.279,4.006,1.738,5.687,2.928
			c-0.058,0.631-0.684,0.695-0.518,1.551c-0.796-0.635-1.973-0.174-2.928,0c-1.122,1.951-1.902,3.43-1.898,5.34
			c0.01,4.863,6.552,8.502,10.517,5.516c1.326-1,1.867-3.998,0.688-5.342c0.447-0.645,0.844-1.338,1.553-1.723
			c6.615,5.658,10.421,14.914,11.893,25.152c-8.315,1.426-18.907,2.365-26.892,0.688c-8.109-1.699-17.091-3.752-24.131-6.373
			c-4.194-1.561-8.3-2.758-12.063-4.133c-2.313-0.844-4.561-1.137-7.068-1.725c-5.95-1.395-11.868-3.432-18.099-4.479
			c-8.28-3.723-21.056-2.957-31.37-4.652c-0.852-4.404-1.173-8.27-2.24-11.887c-2.25-7.609-9.905-10.51-16.029-14.301
			c-1.963-0.387-3.749-1.691-5.861-1.377c-0.011-1.865-0.869-4.598,0-6.201c0.819,1.533,1.856,1.875,3.274,2.93
			c1.275,0.943,2.181,1.803,3.62,2.412c4.567,1.934,9.854,4.191,14.308,3.615c1.13-0.146,2.544-0.256,3.62-0.516
			c3.045-0.74,6.213-4.479,7.755-7.064c0.892-1.498,1.313-3.154,2.242-4.479c1.67-2.381,4.2-4.602,6.549-6.027
			c0.747-0.457,1.727-1.387,2.757-1.035c-0.267,1.158-1.653,0.904-2.24,1.721c-2.345,3.268,1.445,9.164,5.173,9.648
			c4.46,0.58,8.817-2.994,6.719-7.752c0.858-1.037,2.055-1.738,2.761-2.93c2.263,1.586,4.104,3.592,6.72,4.824
			c-0.677,1.049-1.269,2.178-2.241,2.93c-9.612-0.193-6.498,15.188,3.795,11.715c1.45-1.359,3.634-2.416,3.444-4.996
			c-0.067-0.945-0.797-1.516-1.032-2.584c1.751-0.508,2.076-3.408,3.79-3.447c0.884-0.02,2.434,1.445,3.449,2.07
			c1.29,0.789,2.395,1.502,3.619,1.895c-0.896,1.168-2.099,2.037-2.929,3.271c-0.701-0.047-0.947-0.547-1.898-0.344
			c-1.379,0.863-2.626,1.85-3.445,3.271C98.536,123.192,102.761,127.579,106.313,128.144z"/>
		<path fill="#FFFFFF" stroke="#000000" stroke-linecap="round" stroke-linejoin="round" stroke-miterlimit="10" d="M78.392,104.198
			c-3.096-0.217-2.601-3.852-1.379-5.688c0.546-0.82,2.381-2.43,3.104-3.1c1.086-1.008,2.632-1.695,3.619-2.758
			c0.3-0.322,0.229-0.779,0.517-1.031c2.779-2.438,6.619-3.645,8.789-5.688c0.509,1.443,0.392,3.516,0.517,5.342
			c-0.955,1-2.252,1.496-3.274,2.41c-2.704,2.428-5.266,7.205-8.443,9.303C80.985,103.556,79.282,104.257,78.392,104.198z"/>
		<path fill="#FFFFFF" stroke="#000000" stroke-linecap="round" stroke-linejoin="round" stroke-miterlimit="10" d="M92.18,112.296
			c-0.646-0.141-1.026-0.73-0.862-1.209c0.998-2.863,3.772-5.773,5.689-7.58c2.469-2.324,5.408-4.26,8.447-5.684
			c0.204,0.781-0.188,3.01,0,4.309c-2.879,1.5-5.09,5.053-7.413,7.406C96.626,110.97,93.947,112.673,92.18,112.296z"/>
		<path fill="#BE1A18" stroke="#000000" stroke-linecap="round" stroke-linejoin="round" stroke-miterlimit="10" d="M93.216,93.171
			c-0.054,1.385-0.353,2.52-0.86,3.445C89.547,95.946,92.531,94.296,93.216,93.171z"/>
		<path fill="#BE1A18" stroke="#000000" stroke-linecap="round" stroke-linejoin="round" stroke-miterlimit="10" d="M77.013,75.599
			c1.535,1.846,3.503,2.57,5.688,3.791c1.2,0.67,2.294,1.703,3.448,2.238c2.22,1.033,5.458,0.459,6.723,2.586
			c-4.364,2.014-8.736,4.016-12.067,7.063c-5.746-0.678-9.602,1.99-12.925,4.307c-1.362-5.195,0.729-8.875,2.583-12.748
			C72.211,79.181,73.778,76.833,77.013,75.599z"/>
		<path fill="#FFFFFF" stroke="#000000" stroke-linecap="round" stroke-linejoin="round" stroke-miterlimit="10" d="M82.357,107.126
			c-2.482,3.398-8.489,0.766-9.655-2.412c0.164-1.385-0.374-3.477,1.208-3.445c0.506,1.984,1.472,4.461,4.137,4.479
			c1.738,0.012,3.221-1.178,4.827-1.725C83.233,105.253,82.877,106.411,82.357,107.126z"/>
		<path fill="#FFFFFF" stroke="#000000" stroke-linecap="round" stroke-linejoin="round" stroke-miterlimit="10" d="M68.049,76.632
			c1.701-1.938,4.835-5.189,7.756-2.412c-3.373,1.391-4.862,5.029-6.723,8.27c-0.487,0.855-1.226,1.611-1.549,2.412
			c-1.39,3.424-2.344,8.875-1.034,11.891c-1.126,0.598-1.93,1.514-2.932,2.236c-0.737-2.996-1.468-8.783-0.517-12.402
			c0.489-1.859,1.599-3.463,2.412-4.998C66.386,79.896,67.54,78.468,68.049,76.632z"/>
		<path fill="#BE1A18" stroke="#000000" stroke-linecap="round" stroke-linejoin="round" stroke-miterlimit="10" d="M61.156,98.511
			c0.47,0.68,1.026,1.271,1.549,1.896c-4.136,4.678-7.995,12.928-17.062,11.889c-5.787-0.666-10.504-4.785-12.412-9.648
			C38.909,97.931,52.704,97.175,61.156,98.511z"/>
		<path fill="#FFFFFF" stroke="#000000" stroke-linecap="round" stroke-linejoin="round" stroke-miterlimit="10" d="M57.02,95.237
			c1.175,0.004,4.488-0.459,4.307,1.379c-2.188-0.172-4.514-0.609-7.065-0.518c-6.907,0.25-15.586,1.031-20.168,3.791
			c-0.642,0.389-0.941,1.162-1.721,1.205c-0.011-0.217-0.225-0.238-0.175-0.518c4.27-4.389,15.071-4.588,23.268-5.166
			C55.996,95.372,56.492,95.237,57.02,95.237z"/>
		<path fill="#FFFFFF" stroke="#000000" stroke-linecap="round" stroke-linejoin="round" stroke-miterlimit="10" d="M79.425,92.825
			c-1.389,1.197-2.662,2.512-3.79,3.967c-4.741,1.434-8.237,4.484-11.206,8.268c-0.969,1.232-2.094,2.615-2.927,3.787
			c-0.261,0.363-0.309,1.123-0.517,1.379c-0.45,0.541-1.279,0.666-1.726,1.207c-0.455,0.557-0.588,1.395-1.036,1.896
			c-0.855,0.961-2.655,2.291-3.791,2.754c-5.994,2.459-11.509-1.387-15.684-2.584c-3.324-0.949-5.775-3.109-7.76-5.686
			c-0.285,0-0.572,0-0.858,0c0-0.113,0-0.229,0-0.342c0.403-2.01,0.124-4.695,1.55-5.686c0.66,3.93,3.075,5.896,5.516,7.922
			c1.987,1.65,4.274,3.18,7.068,3.791c5.43,1.197,9.431-0.691,12.238-3.098c3.438-2.951,5.439-7.861,8.96-11.027
			C69.175,96.038,74.163,92.673,79.425,92.825z"/>
		<path stroke="#000000" stroke-linecap="round" stroke-linejoin="round" stroke-miterlimit="10" d="M45.644,112.296
			c9.066,1.039,12.926-7.211,17.062-11.889c-0.522-0.625-1.079-1.217-1.549-1.896c-8.452-1.336-22.247-0.58-27.925,4.137
			C35.14,107.511,39.856,111.63,45.644,112.296z M155.439,131.935c0.446-0.76,0.308-2.104,1.034-2.584
			c-1.251-0.705-2.89-1.02-4.137-1.725c-0.585,0.686-1.365,1.166-2.07,1.725C151.678,130.526,153.84,130.95,155.439,131.935z
			 M151.82,111.433c-0.034-0.666-0.007-1.271,0.171-1.725c-1.192-0.066-2.22-0.305-3.103-0.688
			c-2.392,0.029-1.975,3.279-1.725,4.996C148.682,113.122,149.753,111.782,151.82,111.433z M147.509,119.702
			c2.267-0.434,3.605-1.795,5.861-2.242c-0.31-1.697-0.431-3.586-1.207-4.822c-2.018,0.623-3.21,2.072-4.825,3.104
			C147.026,116.841,147.865,118.487,147.509,119.702z M33.231,136.069c6.059,2.672,12.227,5.238,19.822,6.375
			c-0.332-7.305-4.639-12.482-8.447-16.885c-1.317-1.523-2.562-3.217-3.961-4.307c-2.776-2.156-6.14-3.242-9.827-3.963
			c-0.146-0.031-0.163,0.068-0.17,0.17C31.891,121.886,32.411,129.722,33.231,136.069z M30.989,107.813
			c1.984,2.576,4.436,4.736,7.76,5.686c4.175,1.197,9.689,5.043,15.684,2.584c1.136-0.463,2.936-1.793,3.791-2.754
			c0.448-0.502,0.581-1.34,1.036-1.896c0.446-0.541,1.275-0.666,1.726-1.207c0.208-0.256,0.256-1.016,0.517-1.379
			c0.833-1.172,1.958-2.555,2.927-3.787c2.969-3.783,6.465-6.834,11.206-8.268c1.128-1.455,2.401-2.77,3.79-3.967
			c-5.262-0.152-10.25,3.213-13.962,6.549c-3.521,3.166-5.522,8.076-8.96,11.027c-2.808,2.406-6.809,4.295-12.238,3.098
			c-2.794-0.611-5.081-2.141-7.068-3.791c-2.44-2.025-4.855-3.992-5.516-7.922c-1.426,0.99-1.146,3.676-1.55,5.686
			c0,0.113,0,0.229,0,0.342C30.417,107.813,30.704,107.813,30.989,107.813z M105.28,105.577c0.563-0.314,0.046-0.637,0.174-1.379
			c-0.521,0.049-0.484,0.662-1.035,0.688C104.558,105.267,105.23,105.108,105.28,105.577z M102.868,87.659
			c0.449-0.068,0.944-0.088,1.205-0.346c-0.329-0.645-0.867-1.086-1.551-1.379C102.843,86.626,102.693,87.114,102.868,87.659z
			 M102.868,88.692c-0.339,3.652-1.047,5.867-1.379,9.475c1.495-0.514,2.705-1.32,4.137-1.895c0.086-3.197-0.524-6.115,0.862-8.096
			C105.021,88.087,104.294,88.739,102.868,88.692z M165.092,133.142c4.472,3.684,7.721,8.59,11.205,13.264
			c1.418-3.869,2.53-7.453,3.79-11.025c2.077-5.877,7.558-9.367,11.031-13.781c-6.3-0.652-11.461-2.441-16.201-4.654
			c-3.743,4.76-7.395,9.609-9.825,15.682C165.092,132.796,165.092,132.966,165.092,133.142z M90.284,93.687
			c1.022-0.914,2.319-1.41,3.274-2.41c-0.125-1.826-0.008-3.898-0.517-5.342c-2.17,2.043-6.01,3.25-8.789,5.688
			c-0.288,0.252-0.217,0.709-0.517,1.031c-0.987,1.063-2.533,1.75-3.619,2.758c-0.724,0.67-2.559,2.279-3.104,3.1
			c-1.222,1.836-1.717,5.471,1.379,5.688c0.891,0.059,2.594-0.643,3.449-1.209C85.019,100.892,87.58,96.114,90.284,93.687z
			 M94.421,103.507c1.351,0.029,1.503-1.137,2.416-1.551c-2.573-1.564-4.346-3.924-7.24-5.164c-0.592,0.672-1.055,1.471-1.724,2.064
			C89.525,100.935,92.326,101.868,94.421,103.507z M92.18,112.296c1.768,0.377,4.446-1.326,5.861-2.758
			c2.323-2.354,4.534-5.906,7.413-7.406c-0.188-1.299,0.204-3.527,0-4.309c-3.039,1.424-5.979,3.359-8.447,5.684
			c-1.917,1.807-4.691,4.717-5.689,7.58C91.153,111.565,91.534,112.155,92.18,112.296z M197.323,122.632
			c-0.886,0.723-3.064,1.068-4.307,0.861c-0.514,0.463-1.23,0.727-1.898,1.033c-1.12,2.244-3.784,3.479-5.345,5.512
			c-0.678,0.891-1.271,2.227-2.066,3.445c-3.121,4.793-5.722,9.918-6.207,17.574c-0.248,3.941,0.274,7.414,1.038,11.545
			c4.741-1.383,10.097-3.475,14.995-5.516c4.596-1.916,8.383-3.982,12.064-7.063c3.52-2.941,6.42-6.035,7.067-11.371
			c0.264-2.186-0.196-4.143-0.862-5.688c-1.671-3.865-4.724-6.818-8.272-8.957C201.125,123.886,199.343,123.136,197.323,122.632z
			 M175.605,163.46c0.616-0.07,0.919-0.455,1.725-0.342c-1.55-3.709-1.811-9.748-1.208-14.129
			c-3.685-5.16-7.064-10.625-11.893-14.645c-0.32,0.945-0.752,1.779-1.208,2.584c-0.024,0.203,0.039,0.311,0.175,0.346
			c2.059,2.479,4.282,4.795,6.378,7.236C172.424,149.794,174.61,157.456,175.605,163.46z M161.644,118.323
			c1.514-1.072,2.294-2.879,3.794-3.961c-1.785-0.688-2.982,0.693-4.137,1.205C161.575,116.503,161.558,117.626,161.644,118.323z
			 M160.955,113.845c0.514,0.207,0.585,0.047,1.033-0.174c0.075-0.475-0.642-0.16-0.688-0.516
			C160.994,113.196,160.905,113.454,160.955,113.845z M150.783,141.927c0.634,3.605,9.705,4.688,8.793-0.516
			c-3.406,2.461-7.888-1.365-5.86-5.342C150.755,136.388,150.77,138.888,150.783,141.927z M155.095,140.202
			c3.149,1.799,4.511-1.656,6.206-2.928c0.962-1.932,1.853-3.752,2.584-5.686c0.755-1.992,1.448-3.998,2.415-5.859
			c1.841-3.547,5.35-6.016,6.203-10.162c-2.299-2.178-4.843-1.611-7.065,1.035c-0.934,1.109-2.066,2.191-2.759,3.1
			c-2.379,3.123-4.435,8.98-5.859,12.404C155.867,134.388,153.517,137.628,155.095,140.202z M156.819,127.972
			c1.557-2.059,1.969-5.266,3.619-7.236c-0.469-4.906-0.381-11.615-6.723-11.197c-1.044,1.953,0.736,5.127,1.033,8.439
			c0.277,3.121-0.196,6.303,0.175,9.307C155.544,127.847,156.392,127.509,156.819,127.972z M61.326,96.616
			c0.182-1.838-3.132-1.375-4.307-1.379c-0.527,0-1.023,0.135-1.555,0.174c-8.196,0.578-18.998,0.777-23.268,5.166
			c-0.05,0.279,0.164,0.301,0.175,0.518c0.779-0.043,1.079-0.816,1.721-1.205c4.582-2.76,13.261-3.541,20.168-3.791
			C56.813,96.007,59.139,96.444,61.326,96.616z M124.413,120.22c1.231-0.264,1.425-1.564,2.414-2.066
			c-2.041-1.521-4.646-2.48-7.068-3.621c-0.989,0.219-1.269,1.145-2.066,1.551C119.51,117.884,122.495,118.517,124.413,120.22z
			 M117.692,125.905c-4.329,5.141,7.229,13.293,8.614,5.512c-4.534,1.82-6.715-2.764-4.651-6.203
			C120.226,124.339,118.77,125.396,117.692,125.905z M120.967,113.329c0.218,0.41,0.563,0.701,1.204,0.688
			c0.235-0.453,0.207-1.176,0.346-1.721C121.598,112.235,121.716,113.218,120.967,113.329z M117.692,96.099
			c-1.062-0.834-2.48-1.314-3.103-2.582c-0.382,1.111-0.032,2.957-0.346,4.133C115.43,97.173,116.165,96.241,117.692,96.099z
			 M121.308,97.649c-2.631,0.295-5.111,0.744-6.031,2.758c-0.381-0.074-0.932,0.529-1.032,0.17c-0.495,2.17-0.253,5.723-0.517,7.754
			c3.51-1.373,6.295-3.467,9.48-5.168C122.549,101.351,122.171,99.259,121.308,97.649z M140.615,122.114
			c0.795,0.527,1.946,0.699,2.758,1.205c0.94-0.781,1.671-1.773,2.758-2.412c-1.087-7.123,2.109-18.607-6.723-17.572
			C140.447,109.138,140.598,115.815,140.615,122.114z M139.408,117.978c-0.101-1.678-0.192-3.342-0.342-5.34
			c-1.601,0.355-2.538,1.375-4.14,1.725c0,0.283,0,0.574,0,0.861c-4.372,3.094-8.53,6.406-11.894,10.506
			c-0.619,1.992-1.223,4.701,1.554,4.654c0.933-0.014,2.961-1.271,3.962-2.066c1.009-0.803,2.223-2.23,3.448-3.445
			C134.253,122.636,137.031,119.767,139.408,117.978z M139.236,121.944c0.563-0.063,0.396-1.416,0.172-1.725
			c-0.402,0.285-0.606,0.77-1.204,0.861C138.313,121.601,138.983,121.563,139.236,121.944z M138.72,136.413
			c0.698,0.521,1.61,0.244,2.587,0.174c3.884-4.102,7.39-8.58,12.409-11.543c-0.378-2.074,0.249-4.129-0.175-6.205
			c-4.646,1.27-8.286,4.076-11.2,7.41C140.221,128.673,138.141,132.272,138.72,136.413z M144.064,135.726
			c-1.141,1.875-4.396,3.324-6.723,1.549c-0.787-1.439-0.229-3.514,0-5.34c-4.134,0.139-4.689,6.283-1.896,8.268
			c2.315,0.693,5.154,1.24,7.41,0.174C143.558,138.948,144.457,137.302,144.064,135.726z M128.032,116.944
			c2.077-4.994,1.058-12.787-0.172-17.916c-1.629-0.842-2.679-2.264-4.998-2.412c-0.203,1.436,0.991,2.578,1.379,3.961
			c1.265,4.5-0.203,9.795-1.033,14.131C124.921,115.345,126.144,116.481,128.032,116.944z M87.697,114.19
			c1.632,1.842,4.361,3.025,7.415,2.93c1.503-0.838,2.123-2.93,1.032-4.652c-1.232,1.516-5.383,1.658-6.548,0
			c-0.167-1.775,0.724-2.494,1.205-3.621c-2.455,0.016-4.7,2.586-3.963,5.344C87.125,114.19,87.413,114.19,87.697,114.19z
			 M78.737,162.255c8.723,0.465,18.216,1.164,25.336,3.793c14.055,5.186,27.033,10.385,42.919,11.539
			c4.624,0.34,11.195,0.473,15.687-0.342c1.633-0.295,3.168-1.379,4.825-1.896c0.897-0.281,1.938-0.119,2.932-0.346
			c1.948-0.438,3.35-1.762,5.516-1.379c5.832-2.354,12.778-2.594,18.786-4.992c4.133-1.654,8.174-4.326,11.893-6.721
			c3.762-2.42,6.338-4.082,9.309-7.754c1.525-1.881,3.289-4.832,3.791-6.891c2.014-8.197-3.224-14.023-7.581-17.916
			c-0.277,0.701,0.908,1.785,1.378,3.1c0.271,0.77,0.189,1.713,0.688,2.24c0.417,5.508-2.177,11.598-5.686,15.16
			c-1.679,1.703-4.351,3.275-6.724,4.824c-1.311,0.857-2.312,1.617-3.62,2.242c-1.317,0.625-2.653,0.965-4.136,1.549
			c-1.287,0.506-2.376,1.436-3.62,1.896c-0.937,0.344-1.998,0.338-2.932,0.686c-2.522,0.955-4.624,2.205-6.895,2.93
			c-9.053,2.887-20.664,3.135-31.715,2.24c-6.691-0.541-12.917-0.744-17.924-3.791c-8.965-1.789-17.013-6.363-26.201-8.615
			c-9.142-2.236-18.447-4.777-28.959-5.682c-0.969-0.086-1.944,0.076-2.927,0c-3.41-0.26-6.949-1.293-10.344-2.07
			c-3.445-0.787-6.915-1.32-10.169-2.066c-6.693-1.531-13.097-3.391-18.614-6.027c0.865,5.197,3.54,10.455,6.203,12.748
			c2.483,2.201,3.623,5.465,6.551,6.889c2.766,1.352,7.521,1.604,11.376,2.24c4.012,0.664,8.134,0.918,12.063,1.381
			C72.835,161.562,75.674,162.093,78.737,162.255z M72.702,104.714c1.166,3.178,7.173,5.811,9.655,2.412
			c0.52-0.715,0.876-1.873,0.517-3.104c-1.606,0.547-3.089,1.736-4.827,1.725c-2.665-0.018-3.631-2.494-4.137-4.479
			C72.328,101.237,72.866,103.329,72.702,104.714z M67.879,95.583c3.323-2.316,7.179-4.984,12.925-4.307
			c3.331-3.047,7.703-5.049,12.067-7.063c-1.265-2.127-4.503-1.553-6.723-2.586C84.994,81.093,83.9,80.06,82.7,79.39
			c-2.185-1.221-4.152-1.945-5.688-3.791c-3.234,1.234-4.802,3.582-6.551,7.236C68.608,86.708,66.517,90.388,67.879,95.583z
			 M75.805,74.22c-2.921-2.777-6.055,0.475-7.756,2.412c-0.509,1.836-1.663,3.264-2.586,4.996c-0.813,1.535-1.923,3.139-2.412,4.998
			c-0.951,3.619-0.221,9.406,0.517,12.402c1.002-0.723,1.806-1.639,2.932-2.236c-1.31-3.016-0.355-8.467,1.034-11.891
			c0.323-0.801,1.062-1.557,1.549-2.412C70.942,79.249,72.432,75.61,75.805,74.22z M106.659,106.093
			c1.436,1.215,3.545,2.646,5.344,2.928c0.307-5.631,1.7-12.775,0.346-18.779c-1.008-0.744-3.067-0.861-4.481-0.686
			c-1.116,3.184-0.881,8.029-1.208,11.885C106.56,102.638,107.022,104.581,106.659,106.093z M105.626,121.253
			c2.584,2.344,6.285-1.297,7.756-2.93c2.729-3.025,6.559-6.566,9.651-8.785c-0.113-1.725,0.249-2.969,0.346-4.479
			c-4.717,2.006-10.819,5.59-14.825,9.473C107.343,115.708,103.417,119.249,105.626,121.253z M109.591,111.433
			c0.613-0.188,1.016-0.59,1.204-1.207c-2.928-0.92-4.688-3.008-7.411-4.133c-0.637,0.107-0.684,0.809-1.378,0.861
			c0,0.172,0,0.344,0,0.518C104.706,108.614,107.122,110.052,109.591,111.433z M104.419,85.935c1.26,0.785,2.636,0.998,3.618,1.896
			c1.112,0.238,2.517-0.285,3.796,0.17c1.702,0.613,1.584,2.213,2.757,3.791c0.588,0.795,2.16,2.02,3.103,2.412
			c0.613,0.256,1.344,0.164,2.066,0.346c0.748,0.186,1.271,0.672,1.896,0.688c0.726,0.021,1.222-0.441,2.068-0.342
			c0.753,0.084,1.151,0.688,2.067,1.203c1.862,1.055,3.285,1.797,4.137,3.445c2.145,1.59,5.501,1.971,8.447,2.758
			c3.544-1.879,6.106,0.951,8.101,2.758c1.594,1.439,3.788,3.152,6.378,3.271c0.648,0.031,1.336-0.375,1.896-0.344
			c0.77,0.045,2.021,0.479,2.587,0.689c1.606,0.596,3.049,1.938,4.481,3.102c1.995,0.447,3.67,1.197,5.687,1.205
			c1.232,0.002,2.305-0.574,3.619-0.346c1.913,0.332,3.264,2.152,4.482,2.93c7.828,4.99,20.761,4.373,30.508,7.926
			c5.508,2.002,8.771,4.941,11.896,9.648c1.695,2.559,3.642,6.766,3.791,9.473c0.282,5.162-2.359,9.213-4.653,12.232
			c-2.604,3.426-5.313,5.881-8.963,8.098c-4.318,2.621-8.793,5.404-13.617,7.064c-3.862,3.096-9.31,3.609-14.479,5.17
			c-5.122,1.543-10.596,2.676-15.857,3.785c-2.341-0.771-4.752,0.176-7.064,0.176c-3.064,0-6.609,0.199-9.311,0
			c-1.246-0.094-2.482-0.549-3.79-0.691c-5.829-0.631-11.228-1.328-15.688-2.582c-5.649-1.59-10.826-3.311-16.202-5.17
			c-1.754-0.605-3.5-1.686-5.341-2.064c-2.309-0.48-4.667-0.607-6.897-1.035c-6.677-1.289-13.051-2.754-20.336-3.104
			c-4.689-1.607-11.009-1.496-16.033-2.066c-1.485-0.168-2.887-0.822-4.308-1.033c-1.877-0.273-3.834-0.369-5.689-0.688
			c-1.816-0.313-3.777-0.33-5.515-0.863c-3.585-1.092-6.154-4.084-8.273-6.717c-1.187-1.473-2.141-2.453-3.103-3.791
			c-2.993-4.166-5.093-10.59-5.69-18.09c-0.267-3.365-0.698-6.537-1.203-9.646c-0.729-4.465-1.864-8.383-1.554-12.752
			c0.088-1.225,0.156-4.189,0.691-6.027c0.409-1.412,2.547-3.998,3.448-4.652c6.061-4.412,19.69-3.787,28.784-4.305
			c-0.151-2.619,0.116-5.242,0.861-7.756c0.695-2.338,1.418-4.857,2.411-6.891c1.091-2.227,3.229-6.641,5.345-7.754
			c4.068-2.137,6.727,1.193,9.136,3.104c3.523,2.791,8.372,4.59,12.929,6.029c0.459-0.967,1.365-1.111,2.583-1.033
			c1.767,0.113,4.176,1.662,5.86,2.758C101.81,83.31,102.896,84.989,104.419,85.935z M103.901,152.263
			c2.508,0.588,4.756,0.881,7.068,1.725c3.764,1.375,7.869,2.572,12.063,4.133c7.04,2.621,16.021,4.674,24.131,6.373
			c7.984,1.678,18.576,0.738,26.892-0.688c-1.472-10.238-5.277-19.494-11.893-25.152c-0.709,0.385-1.105,1.078-1.553,1.723
			c1.179,1.344,0.638,4.342-0.688,5.342c-3.965,2.986-10.507-0.652-10.517-5.516c-0.004-1.91,0.776-3.389,1.898-5.34
			c0.955-0.174,2.132-0.635,2.928,0c-0.166-0.855,0.46-0.92,0.518-1.551c-1.681-1.189-4.093-1.648-5.687-2.928
			c-1.328,1.314-2.558,2.729-3.965,3.961c1.731,3.895-0.923,10.094-5.861,9.479c-2.989-0.375-7.324-3.902-6.894-8.098
			c0.277-2.705,2.486-5.979,5.686-4.996c0.343-0.98,0.77-1.877,1.38-2.586c-1.781-1.145-4.539-1.32-6.378-2.414
			c-1.652,1.854-3.362,3.646-5.687,4.824c1.479,1.982-0.562,5.15-2.415,5.688c-4.771,1.387-10.089-4.639-9.477-9.303
			c1.069-2.33,3.9-4.945,7.064-3.104c0.274-1.047,1.052-1.588,1.207-2.754c-2.632-0.986-4.738-2.5-7.067-3.791
			c-2.102,0.998-2.915,3.289-4.823,4.479c2.671,3.025-0.96,7.102-5.521,6.375c-3.552-0.564-7.776-4.951-6.202-9.648
			c0.819-1.422,2.066-2.408,3.445-3.271c0.951-0.203,1.197,0.297,1.898,0.344c0.83-1.234,2.032-2.104,2.929-3.271
			c-1.225-0.393-2.329-1.105-3.619-1.895c-1.016-0.625-2.565-2.09-3.449-2.07c-1.714,0.039-2.039,2.939-3.79,3.447
			c0.235,1.068,0.965,1.639,1.032,2.584c0.189,2.58-1.994,3.637-3.444,4.996c-10.293,3.473-13.407-11.908-3.795-11.715
			c0.973-0.752,1.564-1.881,2.241-2.93c-2.615-1.232-4.457-3.238-6.72-4.824c-0.706,1.191-1.902,1.893-2.761,2.93
			c2.099,4.758-2.259,8.332-6.719,7.752c-3.728-0.484-7.518-6.381-5.173-9.648c0.587-0.816,1.974-0.563,2.24-1.721
			c-1.03-0.352-2.01,0.578-2.757,1.035c-2.349,1.426-4.879,3.646-6.549,6.027c-0.93,1.324-1.351,2.98-2.242,4.479
			c-1.542,2.586-4.71,6.324-7.755,7.064c-1.076,0.26-2.49,0.369-3.62,0.516c-4.454,0.576-9.74-1.682-14.308-3.615
			c-1.439-0.609-2.345-1.469-3.62-2.412c-1.418-1.055-2.455-1.396-3.274-2.93c-0.869,1.604-0.011,4.336,0,6.201
			c2.112-0.314,3.898,0.99,5.861,1.377c6.124,3.791,13.779,6.691,16.029,14.301c1.067,3.617,1.389,7.482,2.24,11.887
			c10.314,1.695,23.09,0.93,31.37,4.652C92.033,148.831,97.951,150.868,103.901,152.263z M102.693,124.698
			c2.505,2.227,8.925,3.219,8.447-2.238c-4.187,2.377-9.797-0.531-6.722-5.34C101.026,116.817,99.904,122.216,102.693,124.698z
			 M140.099,126.593c1.259-0.207,1.4-1.621,2.242-2.412c-2.014,0.246-3.807-1.734-5.345-1.549c-1.19,0.143-1.358,1.41-2.586,1.895
			C134.501,125.058,139.386,126.71,140.099,126.593z M138.891,111.087c-0.21-2.473-0.106-5.838-1.032-7.064
			c-2.876-1.51-5.363,0.809-6.894,2.242c0.155,2.672-0.557,6.543-0.692,8.959C133.244,113.94,136.169,112.616,138.891,111.087z
			 M130.789,104.544c1.048-0.336,1.208-1.555,2.588-1.555c-1.048-0.498-2.103-1-3.104-1.549
			C130.084,102.198,130.954,103.249,130.789,104.544z M99.595,99.718c0.562-5.717,4.018-12.99-0.518-16.365
			c-0.604-0.449-1.485-0.457-2.24-0.863c-1.084-0.58-2.007-1.945-3.278-1.379c1.685,4.289,2.123,12.398-0.171,16.367
			c1.464,1.123,3.07,2.1,4.482,3.275C98.643,100.606,98.896,99.94,99.595,99.718z M92.355,96.616
			c0.508-0.926,0.807-2.061,0.86-3.445C92.531,94.296,89.547,95.946,92.355,96.616z"/>
		<path fill="#FFFFFF" stroke="#000000" stroke-linecap="round" stroke-linejoin="round" stroke-miterlimit="10" d="M30.818,117.29
			c3.688,0.721,7.051,1.807,9.827,3.963c1.399,1.09,2.644,2.783,3.961,4.307c3.809,4.402,8.115,9.58,8.447,16.885
			c-7.596-1.137-13.764-3.703-19.822-6.375c-0.82-6.348-1.341-14.184-2.583-18.609C30.655,117.358,30.673,117.259,30.818,117.29z"/>
	</g>
</g>
</svg>
