<?xml version="1.0" encoding="utf-8"?>
<!-- Generator: Adobe Illustrator 16.0.0, SVG Export Plug-In . SVG Version: 6.00 Build 0)  -->
<!DOCTYPE svg PUBLIC "-//W3C//DTD SVG 1.1//EN" "http://www.w3.org/Graphics/SVG/1.1/DTD/svg11.dtd">
<svg version="1.1" id="Ebene_1" xmlns="http://www.w3.org/2000/svg" xmlns:xlink="http://www.w3.org/1999/xlink" x="0px" y="0px"
	 width="150px" height="150px" viewBox="0 0 150 150" enable-background="new 0 0 150 150" xml:space="preserve">
<g>
	<circle fill="#EDDAAB" stroke="#000000" stroke-width="8" stroke-miterlimit="10" cx="75" cy="75" r="59.333"/>
	
		<polygon fill="#FFFADE" stroke="#030303" stroke-width="3" stroke-linecap="round" stroke-linejoin="round" stroke-miterlimit="10" points="
		74.667,48.333 101,72.666 101,108 49.667,108 49.667,72.666 	"/>
	
		<rect x="67" y="80.333" fill="#CEBB95" stroke="#030303" stroke-width="3" stroke-linecap="round" stroke-linejoin="round" stroke-miterlimit="10" width="17" height="27"/>
	
		<path fill="#BE1A18" stroke="#030303" stroke-width="3" stroke-linecap="round" stroke-linejoin="round" stroke-miterlimit="10" d="
		M112.398,75.854L78.245,42.299c-1.258-1.236-3.375-1.12-4.729,0.259c-0.07,0.071-0.122,0.152-0.187,0.228
		c-0.036,0.03-0.078,0.051-0.114,0.083L37.807,75.1c-1.304,1.187-1.305,3.307-0.004,4.736c1.301,1.43,3.412,1.627,4.717,0.44
		l33.424-30.425l31.549,30.996c1.258,1.236,3.375,1.12,4.729-0.259C113.577,79.209,113.656,77.09,112.398,75.854z"/>
</g>
</svg>
