<?xml version="1.0" encoding="utf-8"?>
<!-- Generator: Adobe Illustrator 16.0.0, SVG Export Plug-In . SVG Version: 6.00 Build 0)  -->
<!DOCTYPE svg PUBLIC "-//W3C//DTD SVG 1.1//EN" "http://www.w3.org/Graphics/SVG/1.1/DTD/svg11.dtd">
<svg version="1.1" id="Calque_1" xmlns="http://www.w3.org/2000/svg" xmlns:xlink="http://www.w3.org/1999/xlink" x="0px" y="0px"
	 width="250px" height="250px" viewBox="0 0 250 250" enable-background="new 0 0 250 250" xml:space="preserve">
<g>
	<path fill="#FFFFFF" stroke="#000000" stroke-width="3" stroke-miterlimit="10" d="M105.851,205.074
		c0,0-15.918,13.714-10.191,19.69c5.729,5.976,14.209-4.067,14.209-4.067s1.387,4.465,5.885,1.69
		c4.498-2.773,2.596-3.923,2.596-3.923s6.473,4.464,8.035-5.355c1.563-9.82-3.779-17.185-3.779-17.185l-13.373,1.115
		L105.851,205.074z"/>
	<path fill="#FFFFFF" stroke="#000000" stroke-width="3" stroke-miterlimit="10" d="M131.63,205.936c0,0-13.539,5.475-8.777,12.721
		c0.301,0.458,4.242,2.678,7.068-2.381c0,0-3.086,5.498,2.652,6.041c6.125,0.58,9.833-4.477,12.21-7.857
		c1.65-2.35,4.002,0.64,7.975,0.031c3.578-0.548,2.678-5.728-2.158-7.467c-4.396-1.582-3.234-6.178-3.234-6.178l-0.709-1.755h-15.25
		l-1.637,4.017L131.63,205.936z"/>
	<path fill="#FFFFFF" stroke="#000000" stroke-width="3" stroke-miterlimit="10" d="M226.515,84.692c0,0,9.438-5.171,5.715,10.793
		c0,0-1.021,10.001-10.443,9.04c0,0,5.432,1.518,2.49,10.118c-2.941,8.602-10.156,7.12-11.715,6.03c0,0,7.781,6.061-1.83,12.575
		c-8.346,5.656-12.09-0.539-12.09-0.539s3.59,8.335-6.139,11.494c-9.729,3.161-14.502-1.097-14.502-1.097s5.51,11.744-7.506,14.827
		c-13.018,3.083-16.396-5.476-16.396-5.476l-12.131-3.359l74.375-64.569L226.515,84.692z"/>
	<path fill="#FFFFFF" stroke="#000000" stroke-width="3" stroke-miterlimit="10" d="M157.86,120.055
		c1.832-1.358,14.697-5,17.896-10.041c3.197-5.039,14.424-9.185,16.137-11.961c1.713-2.778,24.561-47.989,42.014-29.125
		c8.832,9.545-14.979,20.927-14.979,20.927s0.857,13.958-16.684,16.359c0,0,7.943,17.537-15.752,17.235
		c0,0,3.453,14.418-17.568,12.786c0,0,5.506,11.715-20.857,9.307c-26.363-2.407-23.417-11.55-23.417-11.55l6.18-13.677
		C130.83,120.315,149.327,126.381,157.86,120.055z"/>
	<path fill="#FFFFFF" stroke="#000000" stroke-width="3" stroke-miterlimit="10" d="M23.99,89.397c0,0-9.661-4.612-5.221,10.751
		c0,0,1.473,9.683,10.844,8.332c0,0-5.359,1.716-2.031,9.951c3.326,8.237,10.469,6.479,11.975,5.35c0,0-7.498,6.237,2.4,12.15
		c8.592,5.134,12.051-1.057,12.051-1.057s-3.209,8.263,6.652,10.908c9.863,2.646,14.439-1.706,14.439-1.706
		s-4.973,11.668,8.17,14.091c13.143,2.425,16.131-6.049,16.131-6.049l11.965-3.802l-77.22-59.523L23.99,89.397z"/>
	<path fill="#FFFFFF" stroke="#000000" stroke-width="3" stroke-miterlimit="10" d="M94.173,120.767
		c-1.891-1.239-14.908-4.215-18.33-8.977c-3.424-4.761-14.826-8.297-16.664-10.924C57.343,98.241,32.47,55.273,15.89,74.391
		C7.5,84.064,31.801,94.085,31.801,94.085s-0.224,13.614,17.407,15.176c0,0-7.141,17.408,16.516,16.069
		c0,0-2.795,14.177,18.131,11.663c0,0-4.971,11.637,21.256,8.133c26.229-3.504,22.871-12.267,22.871-12.267l-6.791-13.03
		C121.191,119.829,102.984,126.543,94.173,120.767z"/>
	<path fill="#FFFFFF" stroke="#000000" stroke-width="3" stroke-miterlimit="10" d="M110.796,113.448c0,0,2.227,8.908,2.666,10.912
		c0.439,2.005,2.309,6.576-1.27,12.57c-3.58,5.995-18.346,17.907-22.014,31.866c-3.67,13.96-4.943,39.395,38.543,38.06
		c43.488-1.336,38.183-30.938,35.244-41.13s-23.189-33.138-23.189-41.74c0-7.886-1.357-14.938-1.357-14.938l-34.979-6.339
		L110.796,113.448z"/>
	<path fill="#FFFFFF" stroke="#000000" stroke-width="3" stroke-miterlimit="10" d="M115.671,39.029c0,0-24.666,2.736-17.631,37.159
		c0,0-14.061,10.304-8.816,25.666c4.727,13.845,21.572,11.594,21.572,11.594s15.291,1.76,29.195-0.717
		c11.808-2.103,15.935-5.621,18.152-13.385c4.99-17.467-7.656-24.162-7.656-24.162s7.266-29.616-16.048-36.155
		c-3.182-0.893,5.576-8.822-2.229-9.802c-1.922-0.241-2.225,1.054-4.107,4.595c-1.385,2.604,1.408-8.431,0-9.522
		c-1.408-1.093-8.666-3.72-4.969,10.415c0,0-0.832-13.996-6.453-10.94C111.058,26.829,115.671,39.029,115.671,39.029z"/>
	<path fill="#FFFFFF" stroke="#000000" stroke-width="3" stroke-miterlimit="10" d="M117.431,93.941c0,0-4.996,10.049,5.658,10.678
		c11.064,0.653,9.834-10.696,4.588-14.267C122.429,86.784,117.431,93.941,117.431,93.941z"/>
	
		<path fill="#FFFFFF" stroke="#000000" stroke-width="3" stroke-linecap="round" stroke-linejoin="round" stroke-miterlimit="10" d="
		M112.283,88.06c0,0,0.785-7.965,12.512-7.561c11.885,0.41,11.535,6.059,10.148,8.152c-1.389,2.094-5.092,5.68-7.738,7.228
		c-2.648,1.548-3.498,2.07-3.498,2.07s-2.412-1.031-5.043-2.532C115.064,93.362,111.654,91.03,112.283,88.06z"/>
	<g>
		<path fill="#FFFFFF" d="M118.052,86.492c0,0,3.178,1.858,3.523,2.863"/>
		<path d="M118.052,86.492c0,0,0.127-0.076,0.321-0.153c0.195-0.08,0.463-0.16,0.752-0.202c0.579-0.084,1.224,0.034,1.729,0.41
			c0.248,0.181,0.47,0.424,0.634,0.713c0.16,0.262,0.277,0.613,0.316,0.931c0.021,0.164,0.019,0.286,0.011,0.46
			c-0.002,0.156-0.043,0.298-0.077,0.4c-0.072,0.208-0.163,0.305-0.163,0.305s-0.166-0.025-0.368-0.031
			c-0.099-0.005-0.219,0.006-0.312,0.014c-0.088,0.017-0.258,0.021-0.377,0.022c-0.256,0.004-0.487-0.006-0.753-0.073
			c-0.241-0.064-0.47-0.175-0.69-0.326c-0.412-0.311-0.731-0.814-0.876-1.362c-0.072-0.275-0.113-0.537-0.13-0.75
			C118.048,86.641,118.052,86.492,118.052,86.492z"/>
	</g>
	<g>
		<path fill="#FFFFFF" d="M129.679,86.492c0,0-3.178,1.858-3.523,2.863"/>
		<path d="M129.679,86.492c0,0,0.004,0.148-0.017,0.356c-0.018,0.213-0.058,0.475-0.13,0.75c-0.145,0.548-0.464,1.052-0.876,1.362
			c-0.22,0.151-0.449,0.262-0.69,0.326c-0.266,0.067-0.497,0.077-0.753,0.073c-0.119-0.002-0.289-0.006-0.377-0.022
			c-0.093-0.008-0.213-0.019-0.312-0.014c-0.202,0.006-0.368,0.031-0.368,0.031s-0.091-0.097-0.163-0.305
			c-0.034-0.103-0.075-0.244-0.077-0.4c-0.008-0.174-0.011-0.296,0.011-0.46c0.039-0.317,0.156-0.669,0.316-0.931
			c0.165-0.289,0.386-0.532,0.634-0.713c0.505-0.376,1.151-0.494,1.729-0.41c0.289,0.042,0.557,0.122,0.752,0.202
			C129.552,86.416,129.679,86.492,129.679,86.492z"/>
	</g>
	<g>
		<path fill-rule="evenodd" clip-rule="evenodd" fill="#FFFFFF" stroke="#000000" stroke-width="3" stroke-miterlimit="10" d="
			M109.232,76.668l13.127-0.369c0,0,2.271-16.575-7.029-16.067S109.232,76.668,109.232,76.668z"/>
		<path fill-rule="evenodd" clip-rule="evenodd" stroke="#000000" stroke-width="3" stroke-miterlimit="10" d="M109.232,76.976
			l12.951-0.325c0,0,1.33-7.688-6.121-7.184C109.218,69.932,109.232,76.976,109.232,76.976z"/>
	</g>
	<g>
		<path fill-rule="evenodd" clip-rule="evenodd" fill="#FFFFFF" stroke="#000000" stroke-width="3" stroke-miterlimit="10" d="
			M140.755,77.64l-12.781-0.866c0,0-1.248-16.489,7.811-16.688C144.843,59.89,140.755,77.64,140.755,77.64z"/>
		<path fill-rule="evenodd" clip-rule="evenodd" stroke="#000000" stroke-width="3" stroke-miterlimit="10" d="M140.755,77.64
			l-12.603-0.837c0,0-1.088-7.141,6.162-7.606C140.776,68.781,140.755,77.64,140.755,77.64z"/>
	</g>
	<g>
		<path d="M104.443,57.884c0,0,0.082-0.324,0.33-0.845c0.235-0.529,0.651-1.232,1.246-2.026c0.32-0.372,0.655-0.799,1.077-1.185
			c0.413-0.396,0.87-0.799,1.401-1.151c0.502-0.391,1.109-0.681,1.713-0.992c0.633-0.258,1.292-0.517,1.988-0.657
			c0.704-0.123,1.407-0.255,2.122-0.192c0.353,0.016,0.706-0.003,1.044,0.068c0.339,0.073,0.673,0.144,0.996,0.229
			c0.662,0.117,1.22,0.455,1.757,0.71c0.55,0.239,0.974,0.61,1.366,0.933c0.38,0.339,0.754,0.602,0.987,0.947
			c0.258,0.313,0.459,0.606,0.625,0.841c0.328,0.472,0.48,0.758,0.48,0.758s-0.333-0.096-0.855-0.293
			c-0.259-0.101-0.575-0.212-0.908-0.365c-0.323-0.173-0.761-0.221-1.169-0.365c-0.418-0.126-0.846-0.3-1.329-0.344
			c-0.473-0.067-0.939-0.228-1.443-0.206c-0.25-0.005-0.497-0.028-0.746-0.049c-0.25-0.015-0.506,0.043-0.76,0.046
			c-0.508,0.001-1.02,0.115-1.533,0.214c-0.26,0.019-0.512,0.121-0.767,0.194c-0.251,0.088-0.516,0.124-0.765,0.225
			c-0.493,0.212-1.008,0.354-1.481,0.598c-0.488,0.204-0.951,0.438-1.397,0.668c-0.455,0.215-0.861,0.471-1.268,0.674
			c-0.38,0.235-0.769,0.418-1.087,0.617c-0.33,0.193-0.618,0.361-0.854,0.5C104.724,57.721,104.443,57.884,104.443,57.884z"/>
	</g>
	<g>
		<path d="M146.647,56.459c0,0-0.304-0.109-0.835-0.302c-0.52-0.19-1.251-0.453-2.106-0.739c-0.852-0.292-1.832-0.597-2.862-0.881
			c-0.515-0.123-1.046-0.25-1.586-0.38c-0.544-0.075-1.08-0.238-1.631-0.268l-0.817-0.114c-0.272-0.013-0.544-0.026-0.813-0.04
			c-0.542-0.058-1.071-0.025-1.593-0.021c-0.527-0.028-1.024,0.065-1.515,0.099c-0.497,0.014-0.957,0.101-1.39,0.181
			c-0.431,0.084-0.864,0.094-1.22,0.189c-0.354,0.097-0.682,0.156-0.954,0.213c-0.544,0.109-0.887,0.149-0.887,0.149
			s0.196-0.258,0.593-0.669c0.2-0.204,0.442-0.46,0.745-0.727c0.294-0.28,0.683-0.505,1.1-0.78c0.215-0.131,0.438-0.267,0.669-0.407
			c0.235-0.136,0.502-0.218,0.767-0.334c0.539-0.203,1.109-0.458,1.739-0.552c0.623-0.127,1.277-0.266,1.949-0.252
			c0.335-0.007,0.675-0.026,1.014-0.017l1.012,0.109c0.68,0.064,1.328,0.259,1.969,0.43c0.629,0.199,1.234,0.442,1.794,0.712
			c1.119,0.554,2.068,1.216,2.799,1.871c0.729,0.659,1.257,1.285,1.584,1.758C146.511,56.152,146.647,56.459,146.647,56.459z"/>
	</g>
</g>
</svg>
