<?xml version="1.0" encoding="utf-8"?>
<!-- Generator: Adobe Illustrator 16.0.0, SVG Export Plug-In . SVG Version: 6.00 Build 0)  -->
<!DOCTYPE svg PUBLIC "-//W3C//DTD SVG 1.1//EN" "http://www.w3.org/Graphics/SVG/1.1/DTD/svg11.dtd">
<svg version="1.1" id="Calque_1" xmlns="http://www.w3.org/2000/svg" xmlns:xlink="http://www.w3.org/1999/xlink" x="0px" y="0px"
	 width="250px" height="250px" viewBox="0 0 250 250" enable-background="new 0 0 250 250" xml:space="preserve">
<g>
	
		<path fill="#FFFFFF" stroke="#000000" stroke-width="3.5" stroke-linecap="round" stroke-linejoin="round" stroke-miterlimit="10" d="
		M154.137,173.068c5.037-2.943,10.875,2.381,14.578,0s14.652-27.365,27.244-17.985c8.346,6.216,4.834,17.573-1.176,22.335
		c-6.01,4.76-10.205,5.438-13.771,5.701c-3.568,0.265-9.916-1.322-13.354,0c-3.439,1.322-19.461,15.199-19.461,15.199
		s-7.783,4.885-10.163,0c-2.38-4.883,5.153-10.275,5.153-10.275S149.609,175.713,154.137,173.068z"/>
	
		<path fill="#FFFFFF" stroke="#000000" stroke-width="3.5" stroke-linecap="round" stroke-linejoin="round" stroke-miterlimit="10" d="
		M176.088,163.77c2.336-3.694,9.02-16.139,19.871-8.687c8.578,5.892,5.781,16.746-0.229,21.507
		c-2.516,1.993-6.783,0.721-10.721-1.705c-0.553-0.34-3.324,0.193-3.857-0.186c-0.531-0.381,1.174-1.673,0.672-2.08
		C177.852,169.401,174.998,165.495,176.088,163.77z"/>
	
		<path fill="#FFFFFF" stroke="#000000" stroke-width="3.5" stroke-linecap="round" stroke-linejoin="round" stroke-miterlimit="10" d="
		M103.976,128.498c22.863,3.632,36.412,19.877,38.624,32.298c2.211,12.421,1.021,23.481,0,26.884
		c4.424,1.191,8.338,11.23,6.125,16.505c5.955,2.552,7.096,6.296,6.186,9.528s-16.224,10.889-30.007,1.021
		c-13.101,10.27-26.883,9.188-37.092,3.233c-7.827,5.104-33.009,10.549-33.549,1.871c-0.215-3.444,3.438-5.955,5.901-6.976
		c-1.618-4.765,0-17.526,5.187-19.228C60.246,183.086,60.246,121.553,103.976,128.498z"/>
	
		<path fill="#FFFFFF" stroke="#000000" stroke-width="3.5" stroke-linecap="round" stroke-linejoin="round" stroke-miterlimit="10" d="
		M130.349,202.653c0,11.464-9.756,20.758-21.79,20.758c-12.035,0-21.791-9.294-21.791-20.758c0-11.465,9.756-20.759,21.791-20.759
		c0.804,0,1.745-1.128,2.527-1.047c0.655,0.067,1.155,1.333,1.792,1.455C122.844,184.211,130.349,192.597,130.349,202.653z"/>
	<g>
		<path fill="#FFFFFF" d="M78.623,172.366c0,0,1.021,40.837,0,42.368c-1.021,1.53-7.477,4.416-5.015,8.418
			c2.463,4.003,15.524,1.49,15.937-1.271c0.818,3.572,9.496,3.742,10.688-1.022c1.191-4.764-2.212-6.975-3.403-8.167
			c0.171-4.254-1.021-40.325-1.021-40.325"/>
		<path d="M78.623,172.366c0.268,2.941,0.498,5.885,0.699,8.829c0.199,2.945,0.371,5.891,0.535,8.838l0.395,8.846
			c0.093,2.952,0.169,5.903,0.205,8.868c0.016,1.482,0.027,2.966-0.028,4.475c-0.035,0.778-0.041,1.466-0.192,2.427l-0.032,0.188
			c-0.036,0.134-0.081,0.269-0.135,0.399l-0.086,0.193l-0.047,0.094l-0.024,0.046c0.008-0.005-0.169,0.235-0.099,0.139l-0.087,0.107
			c-0.063,0.076-0.102,0.133-0.188,0.226l-0.304,0.307c-0.232,0.229-0.359,0.322-0.521,0.463l-0.455,0.372
			c-1.167,0.934-2.265,1.789-2.942,2.715c-0.325,0.45-0.564,0.895-0.574,1.23c-0.01,0.34,0.018,0.648,0.26,1.054
			c0.21,0.536,1.307,1.016,2.544,1.198c1.241,0.197,2.614,0.169,3.962,0.034c1.349-0.151,2.71-0.413,3.967-0.823
			c0.623-0.206,1.231-0.439,1.732-0.707c0.245-0.132,0.472-0.277,0.589-0.388c0.149-0.102,0.115-0.202,0.036,0.129l3.401-0.131
			c0.051,0.056,0.056,0.115,0.076,0.188c0.073,0.06,0.094,0.135,0.164,0.213c0.103,0.067,0.17,0.153,0.278,0.231
			c0.131,0.067,0.253,0.143,0.381,0.22l0.465,0.18c0.16,0.056,0.344,0.085,0.514,0.133c0.168,0.056,0.361,0.059,0.543,0.087
			c0.184,0.028,0.369,0.049,0.56,0.042c0.379,0.024,0.754-0.019,1.131-0.054c0.362-0.075,0.741-0.124,1.071-0.26
			c0.354-0.096,0.646-0.271,0.942-0.425c0.128-0.097,0.258-0.188,0.392-0.275c0.114-0.103,0.203-0.217,0.314-0.316
			c0.127-0.092,0.158-0.234,0.251-0.342l0.123-0.173l0.069-0.2l0.082-0.195l0.022-0.049l0.011-0.024l0.006-0.013l0.002-0.003
			c-0.036,0.162-0.01,0.042-0.018,0.076l0.003-0.011l0.037-0.174l0.145-0.688c0.011-0.16,0.026-0.32,0.048-0.481
			c0.012-0.168,0-0.355,0.006-0.533c-0.017-0.356-0.07-0.703-0.156-1.042c-0.097-0.337-0.225-0.666-0.398-0.986
			c-0.178-0.319-0.377-0.636-0.631-0.939c-0.245-0.307-0.524-0.604-0.84-0.906c-0.314-0.312-0.645-0.59-1.066-1.013
			c-0.288-0.289-0.436-0.667-0.439-1.045l-0.001-0.084c-0.033-3.343,0.013-6.686,0.016-10.032c0-3.347,0.056-6.695,0.101-10.049
			l0.113-10.086c0.059-3.365,0.139-6.73,0.259-10.098c0.329,3.353,0.616,6.707,0.884,10.063c0.236,3.358,0.532,6.706,0.703,10.074
			c0.183,3.368,0.377,6.741,0.515,10.116c0.142,3.375,0.325,6.754,0.43,10.133l-0.44-1.129l1.025,0.915
			c0.379,0.343,0.765,0.725,1.125,1.147c0.366,0.415,0.698,0.889,0.994,1.391c0.294,0.505,0.532,1.054,0.713,1.625
			c0.17,0.574,0.279,1.165,0.323,1.755c0.007,0.296,0.027,0.583,0.017,0.888l-0.082,0.935l-0.126,0.708l-0.032,0.175l-0.023,0.105
			l-0.01,0.029l-0.02,0.06l-0.039,0.118l-0.164,0.472l-0.176,0.467c-0.076,0.147-0.166,0.288-0.252,0.432
			c-0.184,0.275-0.335,0.589-0.574,0.81c-0.224,0.234-0.446,0.481-0.687,0.692l-0.763,0.555c-0.527,0.306-1.071,0.6-1.629,0.77
			c-0.555,0.217-1.12,0.313-1.685,0.423c-0.566,0.066-1.135,0.126-1.705,0.102c-0.285,0.007-0.571-0.018-0.858-0.056
			s-0.571-0.052-0.86-0.13c-0.288-0.071-0.575-0.124-0.863-0.218l-0.864-0.329c-0.288-0.148-0.574-0.314-0.855-0.48
			c-0.281-0.189-0.554-0.44-0.818-0.672c-0.256-0.261-0.483-0.599-0.702-0.911c-0.184-0.352-0.324-0.748-0.451-1.131l3.401-0.131
			c-0.198,1.075-0.748,1.57-1.143,1.948c-0.429,0.386-0.833,0.632-1.232,0.855c-0.795,0.434-1.568,0.732-2.347,0.978
			c-1.552,0.486-3.104,0.766-4.684,0.928c-1.582,0.139-3.183,0.172-4.854-0.104c-0.835-0.144-1.692-0.357-2.567-0.772
			c-0.436-0.201-0.877-0.481-1.296-0.826c-0.214-0.183-0.512-0.499-0.657-0.685l-0.162-0.224l-0.041-0.056l-0.021-0.028
			c0.014,0.021-0.148-0.223-0.085-0.13l-0.012-0.021l-0.089-0.174c-0.517-0.865-0.79-2.07-0.613-3.188
			c0.166-1.145,0.731-2.009,1.277-2.726c1.132-1.417,2.456-2.314,3.599-3.193l0.41-0.316l0.317-0.257
			c0.031-0.024,0.063-0.048,0.1-0.07c0.043-0.038,0.115-0.131,0.172-0.193l0.09-0.105c0.078-0.105-0.092,0.126-0.082,0.109
			l-0.013,0.014l-0.023,0.028c-0.016,0.02-0.029,0.041-0.04,0.063c-0.023,0.044-0.038,0.092-0.043,0.139l0.014-0.084
			c0.097-0.492,0.157-1.281,0.201-1.974c0.084-1.435,0.156-2.898,0.21-4.362c0.108-2.93,0.171-5.873,0.229-8.815l0.202-8.836
			l0.233-8.843C78.395,178.267,78.499,175.317,78.623,172.366z"/>
	</g>
	<g>
		<path fill="#FFFFFF" d="M133.25,169.976c0,0-0.036,37.498,1.013,38.974s11.7,4.594,6.545,11.471
			c-2.777,3.704-11.557,1.475-12.1-1.262c-0.573,3.61-11.758,5.066-13.146,0.372s1.698-7.082,2.756-8.333
			c-0.397-4.239-1.281-40.317-1.281-40.317"/>
		<path d="M133.25,169.976c0.188,2.85,0.362,5.697,0.516,8.545l0.447,8.541l0.423,8.531c0.15,2.84,0.278,5.684,0.49,8.499
			l0.178,2.096c0.063,0.682,0.154,1.403,0.258,1.943l0.037,0.172c0.009,0.009-0.042-0.155-0.105-0.2l-0.013-0.013
			c0.01,0.016-0.156-0.199-0.079-0.102l0.022,0.025l0.045,0.05c0.032,0.037,0.065,0.073,0.049,0.043
			c0.001-0.021-0.059-0.058,0.02-0.005c0.181,0.13,0.472,0.302,0.764,0.465l1.878,1.049c1.284,0.753,2.606,1.592,3.778,2.838
			c0.579,0.625,1.12,1.373,1.483,2.273c0.367,0.895,0.51,1.942,0.382,2.913c-0.122,0.976-0.479,1.84-0.896,2.598
			c-0.205,0.389-0.444,0.73-0.683,1.074l-0.045,0.064l-0.022,0.032l-0.011,0.016l-0.13,0.155l-0.091,0.099l-0.182,0.195
			c-0.142,0.141-0.197,0.239-0.409,0.414c-0.929,0.768-1.771,1.162-2.621,1.394c-0.858,0.27-1.704,0.354-2.535,0.391
			c-1.662,0.044-3.259-0.197-4.819-0.731c-0.78-0.292-1.552-0.592-2.325-1.126c-0.191-0.119-0.384-0.251-0.577-0.432
			c-0.193-0.178-0.38-0.313-0.566-0.54c-0.187-0.234-0.365-0.472-0.529-0.726c-0.154-0.325-0.284-0.674-0.383-1.019l3.432-0.066
			c-0.171,1.013-0.731,1.777-1.271,2.296c-0.552,0.526-1.129,0.891-1.699,1.175c-1.145,0.568-2.29,0.884-3.445,1.083
			c-1.155,0.194-2.321,0.257-3.507,0.173c-1.185-0.092-2.399-0.32-3.615-0.896c-0.604-0.289-1.211-0.692-1.739-1.239
			c-0.525-0.546-0.953-1.256-1.171-2.014l-0.196-0.838c-0.059-0.265-0.103-0.648-0.146-0.968c-0.063-0.653-0.052-1.276,0.021-1.924
			c0.093-0.64,0.24-1.277,0.479-1.874c0.22-0.608,0.541-1.155,0.87-1.679c0.345-0.509,0.722-0.976,1.105-1.401l1.046-1.105
			l-0.351,1.117c-0.088-3.378-0.095-6.761-0.146-10.137c-0.055-3.377-0.053-6.755-0.061-10.127
			c-0.021-3.372,0.081-6.732,0.125-10.098c0.075-3.365,0.17-6.73,0.306-10.097c0.313,3.354,0.587,6.71,0.839,10.065l0.69,10.063
			c0.236,3.346,0.481,6.688,0.672,10.029c0.193,3.342,0.43,6.678,0.586,10.018l0.005,0.112c0.019,0.383-0.12,0.74-0.355,1.006
			l-1.055,1.186c-0.301,0.354-0.563,0.704-0.789,1.061c-0.207,0.36-0.409,0.718-0.524,1.093c-0.139,0.369-0.207,0.751-0.256,1.138
			c-0.028,0.384-0.023,0.8,0.026,1.178c0.039,0.191,0.037,0.326,0.096,0.566l0.176,0.671c0.162,0.454,0.53,0.838,1.2,1.163
			c0.664,0.31,1.517,0.489,2.396,0.543c0.881,0.054,1.8-0.001,2.686-0.161c0.885-0.157,1.752-0.423,2.461-0.786
			c0.356-0.178,0.653-0.393,0.849-0.584c0.201-0.197,0.246-0.337,0.248-0.355l3.432-0.065c-0.086-0.149,0.191,0.256,0.598,0.505
			c0.393,0.292,0.959,0.525,1.506,0.737c1.129,0.406,2.396,0.605,3.58,0.581c0.587-0.02,1.177-0.074,1.677-0.234
			c0.538-0.109,0.964-0.423,1.17-0.507c0.077-0.033,0.232-0.231,0.345-0.34l0.184-0.193l0.093-0.097
			c0.029-0.035-0.217,0.259-0.109,0.129l0.008-0.012l0.016-0.022l0.031-0.045c0.169-0.241,0.344-0.48,0.471-0.724
			c0.275-0.481,0.458-0.963,0.527-1.403c0.145-0.86-0.175-1.706-0.938-2.584c-0.755-0.864-1.829-1.633-2.979-2.345l-1.822-1.089
			c-0.322-0.196-0.646-0.389-1.037-0.685c-0.069-0.046-0.259-0.207-0.394-0.342c-0.088-0.085-0.112-0.117-0.138-0.147l-0.043-0.051
			l-0.021-0.025c0.069,0.089-0.106-0.133-0.099-0.128l-0.025-0.044c-0.124-0.212-0.254-0.537-0.291-0.7l-0.069-0.352
			c-0.137-0.863-0.168-1.564-0.207-2.303l-0.079-2.171c-0.066-2.876-0.083-5.73-0.057-8.587l0.157-8.562
			c0.096-2.853,0.182-5.704,0.311-8.555C132.903,175.675,133.061,172.825,133.25,169.976z"/>
	</g>
	<g>
		<path d="M196.752,162.075c0,0,0.182,0.017,0.438,0.093c0.258,0.073,0.591,0.202,0.926,0.398c0.333,0.197,0.658,0.468,0.933,0.802
			c0.273,0.333,0.492,0.732,0.639,1.167c0.133,0.441,0.2,0.913,0.158,1.393c-0.038,0.475-0.169,0.94-0.399,1.338
			c-0.102,0.19-0.239,0.362-0.382,0.506c-0.125,0.142-0.261,0.242-0.396,0.316c-0.261,0.144-0.429,0.159-0.429,0.159
			s-0.099-0.176-0.236-0.366c-0.059-0.088-0.177-0.206-0.263-0.309c-0.096-0.096-0.204-0.204-0.322-0.322
			c-0.21-0.212-0.437-0.458-0.619-0.73c-0.082-0.133-0.187-0.282-0.249-0.436c-0.075-0.148-0.139-0.319-0.195-0.482
			c-0.211-0.674-0.234-1.474-0.071-2.19c0.083-0.359,0.188-0.686,0.288-0.932C196.667,162.237,196.752,162.075,196.752,162.075z"/>
	</g>
	<linearGradient id="SVGID_1_" gradientUnits="userSpaceOnUse" x1="185.8555" y1="69.1465" x2="164.0772" y2="79.2572">
		<stop  offset="0" style="stop-color:#FFFFFF"/>
		<stop  offset="1" style="stop-color:#FFFFFF"/>
	</linearGradient>
	
		<path fill="url(#SVGID_1_)" stroke="#000000" stroke-width="3.5" stroke-linecap="round" stroke-linejoin="round" stroke-miterlimit="10" d="
		M163.154,84.786l17.467-28.248c0,0,2.689,10.169,1.441,10.794c-1.248,0.623-2.109-0.017-2.109-0.017s-4.844,26.175-14.26,25.54
		S163.154,84.786,163.154,84.786z"/>
	
		<path fill="#FFFFFF" stroke="#000000" stroke-width="3.5" stroke-linecap="round" stroke-linejoin="round" stroke-miterlimit="10" d="
		M148.271,67.295c0,0,29.775-19.163,33.596-14.78c2.492,2.856-19.748,33.6-19.748,33.6L148.271,67.295z"/>
	<linearGradient id="SVGID_2_" gradientUnits="userSpaceOnUse" x1="49.5947" y1="45.9385" x2="69.0389" y2="57.9941">
		<stop  offset="0" style="stop-color:#FFFFFF"/>
		<stop  offset="1" style="stop-color:#FFFFFF"/>
	</linearGradient>
	
		<path fill="url(#SVGID_2_)" stroke="#000000" stroke-width="3.5" stroke-linecap="round" stroke-linejoin="round" stroke-miterlimit="10" d="
		M50.919,37.07l9.521-9.522c0,0,14.708,37.487,10.299,39.427c-4.408,1.94-7.67,6.789-9.055,9.529
		c-2.424,4.794-9.707-9.281-10.766-17.392c-1.059-8.111,3.525-20.279,3.525-20.279L50.919,37.07z"/>
	<linearGradient id="SVGID_3_" gradientUnits="userSpaceOnUse" x1="68.6904" y1="74.8145" x2="157.9039" y2="134.5526">
		<stop  offset="0" style="stop-color:#FFFFFF"/>
		<stop  offset="1" style="stop-color:#FFFFFF"/>
	</linearGradient>
	<path fill="url(#SVGID_3_)" stroke="#000000" stroke-width="3.5" stroke-miterlimit="10" d="M166.652,102.064
		c0,28.047-25.737,50.783-57.484,50.783c-31.749,0-52.194-22.923-55.722-50.783c-3.522-27.826,23.797-49.55,55.545-49.55
		C140.738,52.515,166.652,74.016,166.652,102.064z"/>
	<g>
		<path fill="#FFFFFF" stroke="#000000" stroke-width="3.5" stroke-miterlimit="10" d="M92.533,68.987
			c3.659,0.753,13.578-14.107,4.057-16.473C89.789,50.825,86.538,67.753,92.533,68.987z"/>
		<path fill="#FFFFFF" stroke="#000000" stroke-width="3.5" stroke-miterlimit="10" d="M129.308,70.135
			c3.589-1.044,5.411-18.816-4.113-16.457C118.395,55.362,123.431,71.847,129.308,70.135z"/>
		<path fill="#FFFFFF" stroke="#000000" stroke-width="3.5" stroke-miterlimit="10" d="M110.161,80.272
			c7.618,0.705,13.054-29.096,1.593-29.096C101.878,51.177,101.374,79.459,110.161,80.272z"/>
	</g>
	
		<path fill="#FFFFFF" stroke="#000000" stroke-width="3.5" stroke-linecap="round" stroke-linejoin="round" stroke-miterlimit="10" d="
		M84.663,56.998c0,0-20.205-33.674-23.59-32.188c-3.384,1.486,10.028,39.572,10.028,39.572S81.523,58.123,84.663,56.998z"/>
	<linearGradient id="SVGID_4_" gradientUnits="userSpaceOnUse" x1="143.0107" y1="156.9238" x2="60.2552" y2="87.9772">
		<stop  offset="0" style="stop-color:#FFFFFF"/>
		<stop  offset="1" style="stop-color:#FFFFFF"/>
	</linearGradient>
	
		<path fill="url(#SVGID_4_)" stroke="#000000" stroke-width="3.5" stroke-linecap="round" stroke-linejoin="round" stroke-miterlimit="10" d="
		M108.641,105.863c6.374,0.678,11.935,5.425,11.935,5.425s12.438,0.906,19.395,3.798c10.442,4.339,15.323,14.32,14.917,16.925
		c-0.406,2.604-17.655,23.606-49.92,20.699c-32.265-2.906-45.827-28.674-44.742-33.285c1.085-4.61,11.348-9.367,16.953-10.985
		c8.95-2.582,19.936-0.678,19.936-0.678S102.268,105.186,108.641,105.863z"/>
	
		<path fill="#FFFFFF" stroke="#000000" stroke-width="3.5" stroke-linecap="round" stroke-linejoin="round" stroke-miterlimit="10" d="
		M88.705,77.477c-14.376,3.432-10.822,23.69-9.223,25.204c1.599,1.514,20.14-1.022,21.123-1.972
		C101.588,99.76,103.08,74.044,88.705,77.477z"/>
	
		<path fill="#FFFFFF" stroke="#000000" stroke-width="3.5" stroke-linecap="round" stroke-linejoin="round" stroke-miterlimit="10" d="
		M136.117,80.722c-14.285-0.637-16.727,19.766-15.674,21.654s18.942,4.522,20.121,3.881S150.402,81.358,136.117,80.722z"/>
	<g>
		<path fill="#FFFFFF" stroke="#000000" stroke-width="2.322" stroke-miterlimit="10" d="M106.512,122.078
			c1.581,0.057,7.419-3.771,7.419-7.297c0-3.527-10.459-4.5-11.433-1.096C101.525,117.092,103.532,121.97,106.512,122.078z"/>
		
			<path fill="none" stroke="#000000" stroke-width="2.322" stroke-linecap="round" stroke-linejoin="round" stroke-miterlimit="10" d="
			M89.545,132.011c0,0,2.144,5.238,6.994,5.635c7.783,0.637,9.272-6.567,9.272-6.567s0,6.688,7.511,7.175
			c6.194,0.402,8.757-3.648,8.757-3.648"/>
		<g>
			<g>
				<g>
					<path d="M122.35,115.417c0,0,10.068-1.845,16.676-2.007s10.408-0.744,12.739-1.032s3.814,1.497,2.942,1.587
						c-0.872,0.091,1.146,0.922-15.848,2.583c-16.994,1.661-16.277,1.114-16.277,1.114s-2.573-0.207-2.373-1.268
						C120.209,116.395,120.193,115.787,122.35,115.417z"/>
				</g>
			</g>
		</g>
		<g>
			<g>
				<g>
					<path d="M121.363,119.539c0,0,2.922,1.169,6.746,2.787c1.911,0.808,4.049,1.735,6.158,2.666
						c1.865,0.837,3.648,1.636,5.903,2.646c0.287,0.124,0.563,0.243,0.813,0.351l0.264,0.078c6.746,3.434,10.934,4.984,13.451,6.155
						c2.658,1.18,3.274,3.591,2.294,3.137c-0.476-0.221-0.317,0.123-2.22-0.494c-0.956-0.295-2.405-0.886-4.743-1.804
						c-2.336-0.921-5.529-2.25-9.924-4.172c0.095,0.028,0.202,0.06,0.309,0.091c-0.574-0.188-1.176-0.385-1.796-0.588
						c-2.554-1.014-4.613-1.961-6.44-2.795c-1.781-0.844-3.312-1.568-4.637-2.195c-2.586-1.261-4.241-2.108-5.297-2.68
						c-2.114-1.136-1.848-1.144-1.848-1.144s-2.629-1.769-1.838-2.539C118.56,119.04,118.872,118.521,121.363,119.539z"/>
				</g>
			</g>
		</g>
		<g>
			<g>
				<g>
					<path d="M119.664,124.095c0,0,0.57,0.5,1.429,1.252c0.891,0.777,2.132,1.88,3.563,3.063c0.706,0.613,1.478,1.195,2.244,1.796
						c0.388,0.267,0.772,0.532,1.156,0.795c0.48,0.339,0.956,0.675,1.433,1.01c0.494,0.322,0.915,0.717,1.32,1.12
						c0.4,0.397,0.845,0.791,1.166,1.19c0.564,0.659,1.158,1.353,1.844,2.152c5.122,5.386,8.438,8.163,10.421,9.912
						c1.981,1.749,1.753,4.153,1.025,3.487c-0.734-0.689,0.184,1.609-13.96-11.531c-0.462-0.478-0.916-0.95-1.257-1.339
						c-0.366-0.401-0.717-0.821-1.064-1.129c-0.345-0.33-0.678-0.649-1-0.959c-0.354-0.258-0.695-0.508-1.025-0.749
						c-0.754-0.555-1.455-1.07-2.108-1.551c-0.603-0.525-1.161-1.013-1.681-1.466c-1.961-1.828-3.127-3.071-3.87-3.89
						c-1.481-1.636-1.234-1.572-1.234-1.572s-1.683-2.378-0.687-2.847C117.378,122.841,117.842,122.467,119.664,124.095z"/>
				</g>
			</g>
		</g>
		<g>
			<g>
				<g>
					<path d="M91.772,113.831c0,0-2.357-0.437-5.435-1.248c-1.54-0.41-3.256-0.905-4.96-1.549c-0.863-0.345-1.686-0.657-2.578-1.183
						c-0.197-0.098-0.48-0.304-0.731-0.501l-0.187-0.148l-0.022-0.019l-0.012-0.01l-0.006-0.005
						c1.345-1.489,0.353-0.394,0.644-0.717l-0.27,0.274l-0.257,0.286l-0.123,0.146c-0.018,0.021-0.006,0.006-0.01,0.011
						c-0.011-0.002-0.016-0.011-0.02-0.027c-0.283-0.158-0.574-0.329-0.914-0.494c-2.655-1.318-4.997-2.13-6.813-2.737
						c-1.834-0.602-3.227-0.972-4.277-1.271c-2.098-0.598-2.701-2.785-1.917-2.551c0.393,0.119,0.233-0.202,1.884,0.044
						c0.824,0.124,2.102,0.388,4.122,0.94c1.01,0.28,2.206,0.626,3.625,1.081c1.427,0.466,3.042,0.983,5.003,1.805
						c0.266,0.127,0.526,0.252,0.784,0.375c0.2,0.118,0.395,0.247,0.579,0.383c0.119,0.091,0.128,0.092,0.148,0.104l0.066,0.042
						c0.051,0.03,0.068,0.059,0.139,0.101l0.245,0.13c0.162,0.087,0.312,0.176,0.504,0.256c0.712,0.334,1.441,0.626,2.123,0.884
						c1.363,0.523,2.562,0.934,3.575,1.284c1.835,0.638,3.16,1.098,4.202,1.46c1.695,0.618,1.494,0.681,1.494,0.681
						s2.145,1.078,1.606,2C93.986,113.657,93.784,114.237,91.772,113.831z"/>
				</g>
			</g>
		</g>
		<g>
			<g>
				<g>
					<path d="M88.595,118.17c0,0-11.713,1.513-19.34,1.457c-2.198-0.014-4.024,0.007-5.804,0.063
						c-4.368-0.308-7.105-0.312-9.071-0.357c-2.712-0.062-4.125-2.048-3.114-2.007c0.444,0.018,0.274-0.188,1.608-0.351
						c0.667-0.081,1.71-0.151,3.394-0.178c0.842-0.013,1.844-0.014,3.039-0.001c1.226,0.026,2.576,0.056,4.116,0.088
						c1.788-0.112,3.827-0.24,6.206-0.389c19.688-1.102,18.829-0.579,18.829-0.579s2.954,0.292,2.662,1.347
						C91.12,117.263,91.103,117.87,88.595,118.17z"/>
				</g>
			</g>
		</g>
		<g>
			<g>
				<g>
					<path d="M88.775,122.624c0,0-3.381,1.476-7.109,3.104c-0.516,0.218-1.038,0.439-1.564,0.663
						c-0.517,0.234-1.036,0.47-1.556,0.705l-1.601,0.714c-0.55,0.287-1.096,0.573-1.642,0.858c-1.1,0.566-2.225,1.11-3.31,1.627
						c-1.103,0.499-2.19,0.952-3.208,1.361c-1.042,0.388-2.069,0.718-3.013,1.056c-0.942,0.31-1.814,0.547-2.646,0.811
						c-1.66,0.511-3.121,0.986-4.412,1.422c-2.581,0.872-4.482,1.585-5.932,2.105c-2.899,1.043-5.127-0.232-4.039-0.605
						c0.544-0.186,0.136-0.319,2.244-1.303c1.055-0.491,2.737-1.195,5.483-2.224c1.373-0.515,3.012-1.109,4.97-1.801
						c0.984-0.345,2.039-0.714,3.178-1.113c1.071-0.463,2.218-0.839,3.467-1.448c2.501-1.135,4.653-2.224,6.545-3.172
						c0.914-0.495,1.898-0.858,2.76-1.225c0.872-0.36,1.675-0.693,2.387-0.945c2.878-1.067,4.746-1.728,5.963-2.114
						c2.43-0.787,2.235-0.588,2.235-0.588s3.285-0.737,3.269,0.375C91.244,120.888,91.396,121.474,88.775,122.624z"/>
				</g>
			</g>
		</g>
		
			<path fill="#FFFFFF" stroke="#000000" stroke-width="2.322" stroke-linecap="round" stroke-linejoin="round" stroke-miterlimit="10" d="
			M105.054,115.037c0.176,1.735,1.41,2.97,1.41,2.97"/>
	</g>
	<path stroke="#000000" stroke-width="3.5" stroke-linecap="round" stroke-linejoin="round" stroke-miterlimit="10" d="
		M79.482,102.681c0,0-0.526-11.197,10.063-11.829c11.804-0.705,11.061,9.857,11.061,9.857L79.482,102.681z"/>
	<path stroke="#000000" stroke-width="3.5" stroke-linecap="round" stroke-linejoin="round" stroke-miterlimit="10" d="
		M120.228,102.708c0,0,2.305-10.971,12.712-8.922c11.604,2.283,8.229,12.32,8.229,12.32L120.228,102.708z"/>
</g>
</svg>
