<?xml version="1.0" encoding="utf-8"?>
<!-- Generator: Adobe Illustrator 16.0.0, SVG Export Plug-In . SVG Version: 6.00 Build 0)  -->
<!DOCTYPE svg PUBLIC "-//W3C//DTD SVG 1.1//EN" "http://www.w3.org/Graphics/SVG/1.1/DTD/svg11.dtd">
<svg version="1.1" id="Calque_1" xmlns="http://www.w3.org/2000/svg" xmlns:xlink="http://www.w3.org/1999/xlink" x="0px" y="0px"
	 width="250px" height="250px" viewBox="0 0 250 250" enable-background="new 0 0 250 250" xml:space="preserve">
<g>
	<path fill-rule="evenodd" clip-rule="evenodd" fill="none" d="M236.632,23.442c95.697,0,191.398,0,287.094,0
		c0,67.705,0,135.41,0,203.115c-95.81,0-191.627,0-287.436,0c0-67.363,0-134.727,0-202.092
		C236.261,23.981,236.233,23.499,236.632,23.442z M359.185,100.593c-23.441,0-46.883,0-70.322,0
		c15.664,17.105,39.263,29.236,55.984,46.426c-6.665,23.832-13.764,47.227-21.166,70.322c21.191-11.467,38.563-29.713,59.74-42.33
		c19.336,14.461,38.033,29.559,58.033,43.355c-6.943-23.895-13.912-47.762-21.506-71.006c17.941-17.107,39.509-30.588,58.375-46.768
		c-24.011,0-48.02,0-72.029,0c-8.49-23.145-15.326-47.943-23.214-71.689C373.698,51.384,367.846,77.392,359.185,100.593z"/>
</g>
<g>
	<g>
		<path fill-rule="evenodd" clip-rule="evenodd" fill="none" d="M-16.131,25.026c94.204,0,188.411,0,282.613,0
			c0,66.648,0,133.299,0,199.947c-94.314,0-188.636,0-282.949,0c0-66.314,0-132.625,0-198.938
			C-16.496,25.558-16.522,25.083-16.131,25.026z M67.545,66.36c-11.383,14.635-20.949,36.557-19.827,63.176
			c1.088,25.805,10.792,44.613,24.867,58.137c14.352,13.785,35.29,22.957,61.16,20.834c23.938-1.965,42.511-12.791,55.111-27.893
			c12.306-14.746,21.472-36.105,19.154-63.176c-2.056-24-12.52-43.771-25.876-57.127c-13.586-13.586-33.131-25.301-60.151-23.188
			C97.558,39.034,78.952,51.692,67.545,66.36z"/>
		
			<path fill-rule="evenodd" clip-rule="evenodd" stroke="#000000" stroke-width="4" stroke-linecap="round" stroke-linejoin="round" stroke-miterlimit="10" d="
			M121.983,37.124c27.021-2.113,46.565,9.602,60.151,23.188c13.356,13.355,23.82,33.127,25.876,57.127
			c2.317,27.07-6.849,48.43-19.154,63.176c-12.601,15.102-31.174,25.928-55.111,27.893c-25.87,2.123-46.809-7.049-61.16-20.834
			c-14.075-13.523-23.779-32.332-24.867-58.137c-1.122-26.619,8.444-48.541,19.827-63.176
			C78.952,51.692,97.558,39.034,121.983,37.124z M92.075,47.878c-25.549,12.941-43.944,40.68-41.333,78.971
			c1.693,24.828,10.062,43.336,23.187,57.463c12.932,13.918,32.243,24.777,57.129,22.852c23.953-1.854,41.617-12.061,54.103-26.549
			c12.25-14.213,21.504-33.322,20.498-60.15c-0.885-23.641-10.668-44.273-23.523-57.127c-13.273-13.275-31.455-24.479-57.127-23.523
			C112.194,40.288,101.377,43.165,92.075,47.878z"/>
		<linearGradient id="SVGID_1_" gradientUnits="userSpaceOnUse" x1="57.8955" y1="160.1221" x2="197.6476" y2="85.8146">
			<stop  offset="0" style="stop-color:#FFFFFF"/>
			<stop  offset="0.8858" style="stop-color:#FFFFFF"/>
			<stop  offset="1" style="stop-color:#FFFFFF"/>
		</linearGradient>
		
			<path fill-rule="evenodd" clip-rule="evenodd" fill="url(#SVGID_1_)" stroke="#000000" stroke-width="4" stroke-linecap="round" stroke-linejoin="round" stroke-miterlimit="10" d="
			M125.008,39.813c25.672-0.955,43.854,10.248,57.127,23.523c12.855,12.854,22.639,33.486,23.523,57.127
			c1.006,26.828-8.248,45.938-20.498,60.15c-12.485,14.488-30.149,24.695-54.103,26.549c-24.886,1.926-44.197-8.934-57.129-22.852
			c-13.125-14.127-21.493-32.635-23.187-57.463c-2.611-38.291,15.784-66.029,41.333-78.971
			C101.377,43.165,112.194,40.288,125.008,39.813z"/>
	</g>
	<g>
		<path d="M167.044,79.317c0,0,18.616,16.098,19.228,38.861c0.615,22.762-2.038,25.785-1.557,31.018
			c0.492,5.23,0.567,3.252,0.567,3.252s3.308-10.959,4.968-15.229c1.662-4.281,7.671-16.516,1.858-32.795
			C186.288,88.138,173.396,81.745,167.044,79.317z"/>
	</g>
</g>
</svg>
