<?xml version="1.0" encoding="utf-8"?>
<!-- Generator: Adobe Illustrator 16.0.0, SVG Export Plug-In . SVG Version: 6.00 Build 0)  -->
<!DOCTYPE svg PUBLIC "-//W3C//DTD SVG 1.1//EN" "http://www.w3.org/Graphics/SVG/1.1/DTD/svg11.dtd">
<svg version="1.1" id="Calque_1" xmlns="http://www.w3.org/2000/svg" xmlns:xlink="http://www.w3.org/1999/xlink" x="0px" y="0px"
	 width="250px" height="250px" viewBox="0 0 250 250" enable-background="new 0 0 250 250" xml:space="preserve">
<g id="XMLID_14_">
	<g id="XMLID_15_">
		<path fill="#FFFFFF" stroke="#000000" stroke-linecap="round" stroke-linejoin="round" stroke-miterlimit="10" d="M219.697,97.46
			c0.287,0.544,0.944,0.713,1.033,1.446c-8.027,7.357-17.969,12.794-26.077,20.07c-2.454,0.856-3.796,2.827-6.209,3.725
			c-0.131-0.561-0.864-0.515-0.831-1.243C197.821,112.975,208.658,105.116,219.697,97.46z"/>
		<path fill="#FFFFFF" stroke="#000000" stroke-linecap="round" stroke-linejoin="round" stroke-miterlimit="10" d="M162.983,84.632
			c0.637,8.762-1.046,19.016-9.728,18.62c-2.121-0.094-4.593-1.569-5.796-2.894c-3.172-3.489-3.606-10.724-3.729-15.933
			C149.358,86.932,157.475,87.421,162.983,84.632z"/>
		<path fill="#FFFFFF" stroke="#000000" stroke-linecap="round" stroke-linejoin="round" stroke-miterlimit="10" d="M148.287,34.98
			c1.856,0.215,2.797,1.345,4.763,1.45c-1.333,7.078-2.573,14.465-7.247,18.413c-1.193,1.008-3.193,1.83-4.758,2.894
			c-3.147,2.139-5.108,3.357-9.318,4.345c-3.434,0.806-6.542,1.641-10.555,1.244c-10.19-1.008-19.673-6.602-24.217-14.485
			c-1.645-2.852-2.429-6.609-4.142-9.723c0-0.207,0-0.413,0-0.62c2.333-0.291,3.927-1.316,6.002-1.86
			c0.709,5.673,4.025,9.555,7.454,13.034c3.915,3.97,9.318,8.002,16.144,8.272c7.736,0.312,18.1-5.113,22.563-10.964
			C147.207,44.054,148.405,39.793,148.287,34.98z"/>
		<path fill="#FFFFFF" stroke="#000000" stroke-linecap="round" stroke-linejoin="round" stroke-miterlimit="10" d="M158.015,84.219
			c-3.557,0.776-9.373,0.06-11.799-1.446c-1.477-0.916-2.446-3.868-4.138-1.24c-0.902,1.4-1.502,6.471-1.451,8.482
			c0.102,3.683,1.784,7.635,3.315,10.137c1.852,3.028,2.902,2.923,5.585,4.965c1.717-0.405,2.573,0.236,4.143,0.207
			c5.703-0.105,10.385-5.239,11.385-11.175c0.459-2.745,0.257-6.112,0.207-8.896c-0.03-1.371,0.586-2.873-0.831-3.721
			C162.021,81.887,160.321,83.717,158.015,84.219z M157.188,37.671c4.581,0.704,9.053,3.05,13.452,4.139
			c1.603,0.396,3.319,0.422,4.762,1.033c4.143,1.754,5.683,5.741,9.521,7.449c2.91,3.661,6.44,6.771,9.52,10.343
			c3.084,3.577,5.919,7.433,8.905,11.175c3.012,3.779,5.129,8.052,7.862,11.996c2.737,3.956,5.492,7.846,7.66,12.001
			c-2.691,1.792-4.446,4.522-8.487,4.964c-8.997,5.556-16.404,12.706-24.217,19.446c-0.737-1.337-1.97-2.388-3.104-3.725
			c-0.925-1.083-2.649-2.695-3.105-3.931c-0.839-2.266,0.558-5.661-1.45-7.445c-1.531,1.013-0.516,3.197-0.414,4.758
			c0.604,9.226-0.544,18.146-0.413,26.896c0.084,5.867,0.591,11.419,0.62,16.966c0.093,17.522,5.353,32.463,5.796,50.065
			c-5.412,0.194-11.001,1.025-16.768,1.342c-0.822,0.046-1.649,0.084-2.48,0.105c-13.916,0.354-28.734-0.52-42.229,1.653
			c-2.606,0.422-5.07,1.008-7.602,1.189c-0.362,0.025-0.725,0.042-1.092,0.051c-6.631,0.144-13.515,0.971-20.074,0.417
			c-4.615-0.392-9.129-1.332-13.663-1.657c-4.661-0.333-9.242-0.469-13.658-1.653c-0.722-4.779-0.06-9.073,0.413-13.448
			c0.278-2.585,0.215-5.116,0.413-7.656c0.144-1.889,0.895-3.749,1.24-5.791c0.422-2.488,0.329-5.188,0.831-7.449
			c0.671-3.037,1.957-5.867,2.48-8.896c0.519-2.979,1.071-6.027,1.244-9.103c0.768-13.899,0.709-29.085-0.62-42.617
			c0.709-1.56,1.776-3.272,2.688-4.964c0.817-1.515,2.572-3.493,1.244-5.172c-2.186,0.797-2.384,3.556-3.312,5.378
			c-3.021,5.927-4.881,12.52-9.107,16.966c-3.121-1.746-5.682-4.307-8.28-6.623c-1.315-1.168-2.847-2.117-4.142-3.311
			c-1.325-1.22-2.413-2.695-3.725-3.928c-5.197-4.896-10.862-9.259-16.144-14.067c0.759-4.552,4.563-7.851,6.623-11.794
			c1.109-0.371,2.003-1.093,2.69-1.86c4.805-5.374,8.205-11.659,12.006-17.379c4.851-7.302,11.76-14.578,19.458-18.826
			c5.479-3.028,10.904-4.842,18.834-5.796c1.84,5.809,3.776,11.33,7.449,15.519c5.548,6.319,16.966,13.094,29.6,10.757
			c5.505-1.017,9.766-3.104,13.456-5.585c1.747-1.177,3.695-2.071,4.969-3.104C151.94,52.367,155.871,45.264,157.188,37.671z"/>
		<path stroke="#000000" stroke-linecap="round" stroke-linejoin="round" stroke-miterlimit="10" d="M153.256,103.252
			c8.682,0.396,10.364-9.858,9.728-18.62c-5.509,2.789-13.625,2.3-19.252-0.206c0.122,5.209,0.557,12.443,3.729,15.933
			C148.663,101.683,151.135,103.158,153.256,103.252z M146.216,82.772c2.426,1.506,8.242,2.223,11.799,1.446
			c2.307-0.502,4.007-2.332,6.416-2.687c1.417,0.848,0.801,2.35,0.831,3.721c0.05,2.783,0.252,6.15-0.207,8.896
			c-1,5.936-5.682,11.069-11.385,11.175c-1.569,0.029-2.426-0.612-4.143-0.207c-2.683-2.042-3.733-1.937-5.585-4.965
			c-1.531-2.502-3.214-6.454-3.315-10.137c-0.051-2.012,0.549-7.082,1.451-8.482C143.77,78.904,144.739,81.856,146.216,82.772z"/>
		<path fill="#FFFFFF" stroke="#000000" stroke-linecap="round" stroke-linejoin="round" stroke-miterlimit="10" d="M144.563,42.636
			c-0.654,2.451-2.51,4.586-4.349,6.205c-2.957,2.615-7.736,5.374-12.005,6.416c-9.896,2.417-16.24-3.054-21.939-8.069
			c-0.186-1.126-1.202-1.417-1.451-2.48c5.353,2.228,11.499,5.138,18.632,4.552c5.965-0.494,11.697-2.477,16.557-4.139
			C141.311,44.196,143.082,42.699,144.563,42.636z"/>
		<path stroke="#000000" stroke-linecap="round" stroke-linejoin="round" stroke-miterlimit="10" d="M164.848,205.248
			c0.831-0.021,1.658-0.06,2.48-0.105l0.042,1.185c-1.599,0.072-3.143,0.182-4.593,0.367c-1.46,0.19-2.856,0.798-4.35,1.034
			c-4.572,0.725-9.524,0.632-14.485,0.83c-9.002,0.359-18.315,0.06-27.532,0.621c-0.435,0.024-0.869,0.055-1.299,0.093l-0.094-1.182
			c2.531-0.182,4.995-0.768,7.602-1.189C136.113,204.729,150.932,205.603,164.848,205.248z"/>
		<path fill="#FFFFFF" stroke="#000000" stroke-linecap="round" stroke-linejoin="round" stroke-miterlimit="10" d="M100.681,36.638
			c3.729,3.046,9.381,4.234,15.109,5.791c1.679,0.456,3.206,1.199,4.556,1.447c3.864,0.721,8.973-0.506,12.005-1.653
			c4.606-1.746,9.369-3.506,13.038-5.585c0,0.62,0,1.24,0,1.86c-2.188,1.675-4.479,3.248-6.622,4.965
			c-3.058,0.826-6.471,2.248-9.938,2.897c-9.132,1.713-18.007-0.253-24.217-4.138c-0.944-0.105-1.172,0.358-1.86,0
			C101.752,40.67,100.352,39.519,100.681,36.638z"/>
		<path fill="#FFFFFF" stroke="#000000" stroke-linecap="round" stroke-linejoin="round" stroke-miterlimit="10" d="
			M184.302,205.868c1.034,5.302-5.618,5.062-9.727,5.585c-14.287,1.826-32.088,0.519-46.986,1.033
			c-5.028,0.177-9.85,1.324-14.696,1.451c-15.995,0.417-32.4-1.776-46.156-3.519c0.098-1.493,0.409-1.872,0.207-3.311
			c9.563,1.037,19.441,2.657,28.562,3.311c7.222,0.52,13.334-0.662,19.606-1.146c0.43-0.038,0.864-0.068,1.299-0.093
			c9.217-0.562,18.53-0.262,27.532-0.621c4.961-0.198,9.913-0.105,14.485-0.83c1.493-0.236,2.89-0.844,4.35-1.034
			c1.45-0.186,2.994-0.295,4.593-0.367C172.977,206.096,179.236,206.399,184.302,205.868z"/>
		<path stroke="#000000" stroke-linecap="round" stroke-linejoin="round" stroke-miterlimit="10" d="M106.27,47.188
			c5.699,5.016,12.043,10.486,21.939,8.069c4.269-1.042,9.048-3.801,12.005-6.416c1.839-1.619,3.694-3.754,4.349-6.205
			c-1.48,0.063-3.252,1.561-4.556,2.484c-4.859,1.662-10.592,3.645-16.557,4.139c-7.133,0.586-13.279-2.324-18.632-4.552
			C105.067,45.771,106.084,46.062,106.27,47.188z M96.955,48.841c4.544,7.884,14.026,13.478,24.217,14.485
			c4.013,0.396,7.121-0.438,10.555-1.244c4.21-0.987,6.171-2.206,9.318-4.345c1.564-1.063,3.564-1.886,4.758-2.894
			c4.674-3.948,5.914-11.335,7.247-18.413c-1.966-0.105-2.906-1.235-4.763-1.45c0.118,4.813-1.08,9.073-3.312,12
			c-4.463,5.851-14.826,11.275-22.563,10.964c-6.825-0.271-12.229-4.303-16.144-8.272c-3.429-3.479-6.745-7.361-7.454-13.034
			c-2.075,0.544-3.669,1.569-6.002,1.86c0,0.207,0,0.413,0,0.62C94.526,42.231,95.311,45.989,96.955,48.841z M145.389,38.498
			c0-0.62,0-1.24,0-1.86c-3.669,2.079-8.432,3.839-13.038,5.585c-3.032,1.147-8.141,2.374-12.005,1.653
			c-1.35-0.248-2.877-0.991-4.556-1.447c-5.729-1.557-11.381-2.745-15.109-5.791c-0.329,2.881,1.071,4.032,2.07,5.585
			c0.688,0.358,0.916-0.105,1.86,0c6.21,3.885,15.085,5.851,24.217,4.138c3.468-0.649,6.881-2.071,9.938-2.897
			C140.91,41.746,143.2,40.173,145.389,38.498z M220.73,98.906c-0.089-0.733-0.746-0.902-1.033-1.446
			c-11.039,7.656-21.876,15.515-32.084,23.998c-0.033,0.729,0.7,0.683,0.831,1.243c2.413-0.897,3.755-2.868,6.209-3.725
			C202.762,111.7,212.703,106.264,220.73,98.906z M41.275,108.427c2.957,2.034,5.771,5.53,8.28,8.479
			c1.531,1.16,3.134,2.249,4.345,3.725c3.16,0.853,4.876,4.224,8.073,4.346c-0.012-1.86-2.125-2.906-3.311-3.932
			c-2.603-2.24-5.412-4.446-8.074-6.825c-3.045-2.726-5.661-6.585-9.521-8.689c-3.028-3.526-6.525-6.58-10.352-9.31
			c-1.826,1.982-0.046,3.455,1.038,5.172C35.277,103.23,37.981,106.158,41.275,108.427z M184.302,205.868
			c-5.065,0.531-11.325,0.228-16.932,0.459l-0.042-1.185c5.767-0.316,11.355-1.147,16.768-1.342
			c-0.443-17.603-5.703-32.543-5.796-50.065c-0.029-5.547-0.536-11.099-0.62-16.966c-0.131-8.749,1.017-17.67,0.413-26.896
			c-0.102-1.561-1.117-3.745,0.414-4.758c2.008,1.784,0.611,5.18,1.45,7.445c0.456,1.235,2.181,2.848,3.105,3.931
			c1.134,1.337,2.366,2.388,3.104,3.725c7.813-6.74,15.22-13.891,24.217-19.446c4.041-0.441,5.796-3.172,8.487-4.964
			c-2.168-4.155-4.923-8.045-7.66-12.001c-2.733-3.944-4.851-8.217-7.862-11.996c-2.986-3.742-5.821-7.598-8.905-11.175
			c-3.079-3.572-6.609-6.682-9.52-10.343c-3.839-1.708-5.379-5.695-9.521-7.449c-1.442-0.611-3.159-0.638-4.762-1.033
			c-4.399-1.089-8.871-3.435-13.452-4.139c-1.316,7.593-5.247,14.696-10.348,18.826c-1.273,1.033-3.222,1.928-4.969,3.104
			c-3.69,2.48-7.951,4.568-13.456,5.585c-12.634,2.337-24.052-4.438-29.6-10.757c-3.673-4.188-5.609-9.71-7.449-15.519
			c-7.93,0.954-13.354,2.768-18.834,5.796c-7.698,4.248-14.607,11.524-19.458,18.826c-3.801,5.72-7.201,12.005-12.006,17.379
			c-0.688,0.768-1.581,1.489-2.69,1.86c-2.06,3.943-5.864,7.242-6.623,11.794c5.281,4.809,10.946,9.171,16.144,14.067
			c1.312,1.232,2.399,2.708,3.725,3.928c1.295,1.193,2.826,2.143,4.142,3.311c2.599,2.316,5.159,4.877,8.28,6.623
			c4.227-4.446,6.087-11.039,9.107-16.966c0.928-1.822,1.126-4.581,3.312-5.378c1.328,1.679-0.427,3.657-1.244,5.172
			c-0.911,1.691-1.979,3.404-2.688,4.964c1.329,13.532,1.388,28.718,0.62,42.617c-0.173,3.075-0.726,6.124-1.244,9.103
			c-0.523,3.029-1.81,5.859-2.48,8.896c-0.502,2.261-0.409,4.961-0.831,7.449c-0.346,2.042-1.097,3.902-1.24,5.791
			c-0.198,2.54-0.135,5.071-0.413,7.656c-0.473,4.375-1.135,8.669-0.413,13.448c4.416,1.185,8.997,1.32,13.658,1.653
			c4.534,0.325,9.048,1.266,13.663,1.657c6.56,0.554,13.443-0.273,20.074-0.417c0.367-0.009,0.729-0.025,1.092-0.051l0.094,1.182
			c-6.272,0.484-12.385,1.666-19.606,1.146c-9.12-0.653-18.999-2.273-28.562-3.311c0.202,1.438-0.109,1.817-0.207,3.311
			c13.756,1.742,30.161,3.936,46.156,3.519c4.847-0.127,9.668-1.274,14.696-1.451c14.898-0.515,32.699,0.793,46.986-1.033
			C178.684,210.93,185.336,211.17,184.302,205.868z M146.84,32.913c5.434,2.109,11.508,2.788,17.177,4.551
			c2.206,0.684,4.197,1.941,6.416,2.485c1.08,0.262,2.244,0.151,3.315,0.413c2.24,0.544,4.121,2.193,6.416,2.273
			c1.194,1.358,3.017,2.088,4.552,3.105c3.627,5.272,7.93,9.866,12.418,14.273c1.253,2.498,2.653,3.657,3.729,6.412
			c7.617,7.766,11.899,18.863,19.041,27.102c-0.06,1.84,2.303,3.455,2.07,5.589c-0.181,1.629-2.084,2.286-3.725,3.515
			c-1.379,1.033-3.045,2.362-4.142,3.311c-8.069,6.969-17.848,13.402-25.25,19.446c-4.054-2.29-5.522-7.171-9.107-9.93
			c-0.7,10.93,1.464,21.889,2.066,31.447c0.266,4.154-0.653,8.149-0.62,12.414c0.089,11.216,1.991,22.208,3.104,32.894
			c0.654,6.281,3.055,12.684,0.414,18.825c-2.578,0.76-5.003,1.747-7.656,2.071c-15.017,1.814-31.346,0.574-47.813,1.033
			c-7.298,0.203-14.291,1.684-21.116,2.273c-6.521,0.566-13.351,0.949-19.661,0.414c-4.143-0.351-8.259-1.435-12.212-2.067
			c-3.897-0.624-8.01-1.012-11.178-3.104c-1.468-8.33-0.072-16.117,0.413-24.617c0.164-2.86,0.823-5.594,1.038-8.482
			c0.117-1.604-0.187-3.299,0-4.965c0.159-1.469,0.797-2.895,1.033-4.345c0.244-1.515,0.253-2.995,0.413-4.552
			c1.704-16.59,5.066-33.603,3.312-50.893c-1.67,3.918-3.784,7.475-6.622,10.55c-0.975,1.059-2.051,2.552-3.105,2.691
			c-1.388,0.181-3.707-1.548-5.176-2.485c-5.032-3.218-8.521-6.795-13.038-10.343c-3.202-2.51-5.116-4.353-8.28-7.242
			c-2.189-2-6.762-5.526-7.036-8.483c-0.211-2.243,1.186-4.02,2.066-5.791c0.722-1.442,1.021-3.223,1.658-4.345
			c0.532-0.933,1.818-1.607,2.484-2.48c2.86-3.763,4.839-8.673,7.863-12.827c3.058-4.202,5.433-8.8,8.486-12.415
			c1.114-1.315,2.549-2.408,3.725-3.725c1.224-1.358,2.135-3.066,3.315-4.345c2.363-2.564,5.572-4.767,8.483-6.824
			c3.228-2.282,6.475-3.991,10.145-5.172c7.572-2.438,16.202-2.522,24.01-6.623c9.192,8.349,29.807,8.938,41.604,2.278
			C143.702,35.187,144.828,33.406,146.84,32.913z"/>
		<path fill="#FFFFFF" stroke="#000000" stroke-linecap="round" stroke-linejoin="round" stroke-miterlimit="10" d="M41.068,105.529
			c3.859,2.104,6.476,5.964,9.521,8.689c2.662,2.379,5.472,4.585,8.074,6.825c1.186,1.025,3.299,2.071,3.311,3.932
			c-3.197-0.122-4.913-3.493-8.073-4.346c-1.211-1.476-2.813-2.564-4.345-3.725c-2.51-2.948-5.323-6.444-8.28-8.479
			c-3.294-2.269-5.998-5.196-9.521-7.035c-1.084-1.717-2.864-3.189-1.038-5.172C34.543,98.949,38.04,102.003,41.068,105.529z"/>
	</g>
</g>
</svg>
