<?xml version="1.0" encoding="utf-8"?>
<!-- Generator: Adobe Illustrator 16.0.0, SVG Export Plug-In . SVG Version: 6.00 Build 0)  -->
<!DOCTYPE svg PUBLIC "-//W3C//DTD SVG 1.1//EN" "http://www.w3.org/Graphics/SVG/1.1/DTD/svg11.dtd">
<svg version="1.1" id="Calque_1" xmlns="http://www.w3.org/2000/svg" xmlns:xlink="http://www.w3.org/1999/xlink" x="0px" y="0px"
	 width="250px" height="250px" viewBox="0 0 250 250" enable-background="new 0 0 250 250" xml:space="preserve">
<g>
	<linearGradient id="SVGID_1_" gradientUnits="userSpaceOnUse" x1="51.3115" y1="134.8975" x2="208.9199" y2="134.8975">
		<stop  offset="0" style="stop-color:#E5291F"/>
		<stop  offset="0.643" style="stop-color:#B71E19"/>
		<stop  offset="1" style="stop-color:#A31916"/>
	</linearGradient>
	<path fill="url(#SVGID_1_)" d="M115.043,57.852c6.911-0.045,6.632,2.392,21.721,0.716c13.646-1.502,22.068-2.598,34.477,2.092
		c12.434,4.687,22.963,14.138,28.867,26.697c5.9,12.572,10.486,54.009,8.225,69.637c-2.238,15.619-3.188,37.627-14.057,43.053
		c-10.867,5.43-23.738,7.328-23.738,7.328s-4.578,5.116-14.396,5.145c-9.805,0.005-50.614-10.065-73.327-26.235
		C60.1,170.084,48.602,149.188,51.854,137.44c3.287-11.743,1.837-15.08,3.347-17.034c1.51-1.943,6.562-15.438,6.562-15.438
		l6.465-14.162C68.228,90.806,88.148,58.052,115.043,57.852z"/>
	<path fill="#009B3E" d="M108.734,58.472c0,0,22.394,10.095,21.903,21.928c-4.767-2.73-12.395-1.641-16.241-3.167
		c-3.849-1.536-12.467-4.364-12.467-4.364l-3.52-0.077c0,0,0.722,5.593,3.195,15.414c2.489,9.828,5.062,29.789,24.778,28.465
		c-17.503,5.903-42.088,13.554-49.403-8.64c-1.519-5.477,2.696-13.731-4.963-19.654c-3.385,5.309-12.795,14.989-16.52,16.753
		c-3.715,1.747-12.816,4.493-16.748,17.995c5.121-16.908,2.214-26.502,27.926-42.146c5.186-2.709,11.913-3.077,11.913-3.077
		s-2.056-12.055,8.571-27.037c3.133-4.403,12.813-9.917,23.294-10.456c7.609-0.132,20.1-4.637,20.1-4.637L115.52,45.01l3.946,2.334
		C119.466,47.344,105.223,56.499,108.734,58.472z"/>
	<g>
		<path d="M214.441,107.937c-3.477-20.067-9.008-31.811-24.121-42.823c-15.082-11.037-29.387-13.034-39.332-12.635
			c-9.959,0.406-33.764,2.618-33.764,2.618s-10.31,1.167-4.845,5.357c5.434,4.201,21.945,4.311,30.862,2.805
			c8.934-1.491,30.432,3.292,43.652,18.771c13.225,15.477,18.703,28.103,20.26,48.25c1.535,20.125-3.188,41.971-9.605,58.741
			c-2.559,7.369-4.773,10.617-10.494,12.408c-5.744,1.786-17.406,4.178-27.455,4.717c-10.813,0.579-27.665-2.327-40.038-7.546
			c-13.357-5.639-38.602-19.207-48.707-31.064c-10.14-11.844-11.564-27.931-10.652-36.147c1.163-10.484,12.337-37.021,8.559-37.776
			c-3.787-0.735-20.404,23.721-22.298,38.693c-0.705,5.564-1.636,26.688,13.389,43.837c15,17.193,33.988,24.386,47.217,28.98
			c13.227,4.604,34.692,10.609,42.773,10.615c1.689,0.659,10.342-0.137,15.961-1.432h0.002c0,0,9.979-2.291,19.463-3.703
			c9.445-1.377,21.049-7.981,23.242-18.072c2.205-10.115,3.004-21.6,4.506-30.4C214.512,153.338,217.906,128.01,214.441,107.937z"/>
		<path d="M113.121,123.963c0,0-13.507,4.213-27.854-3.774c-14.344-7.957-10.973-18.379-10.973-18.379s-0.425-8.705-2.555-10.376
			c-2.159-1.641-0.182-4.186,3.571-2.201c3.747,1.96,6.04,4.646,6.63,11.93c0.592,7.295-2.035,15.523,16.393,21.035
			C102.919,123.898,108.15,123.557,113.121,123.963z"/>
		<path d="M127.383,117.995c0,0-13.948-0.839-21.688-7.733c-7.72-6.896-6.771-8.948-6.587-13.177
			c0.147-4.233-0.844-7.796-6.554-11.254c-1.842-0.816-1.842-0.816-1.842-0.816s2.355-11.528,7.053-9.157
			c4.702,2.389,8.347,7.704,9.384,14.398C108.192,96.972,105.978,108.305,127.383,117.995z"/>
		<path d="M133.897,89.438c0,0-3.128-6.424-9.405-7.549c-6.286-1.126-16.812-1.17-22.563-9.021c0,0,8.165,3.518,11.96,3.036
			c3.782-0.501,9.493,0.15,11.981,1.765c-0.154-2.603-3.712-5.657-7.597-8.649c-3.892-3.013-15.269-6.804-15.269-6.804
			s3.589-6.252,9.691-3.715c6.126,2.541,16.459,9.282,18.649,14.072C133.56,77.387,134.941,84.048,133.897,89.438z"/>
		<path d="M91.489,70.715c0,0,7.091-15.655,24.288-21.021C106.602,47.896,90.66,58.896,91.489,70.715z"/>
		<path d="M82.014,72.104c0,0,5.528-18.41,12.619-23.19c7.102-4.77,16.207-6.136,23.431-8.639c7.219-2.514,11.283-2.156,14.44-6.25
			c-9.365,2.08-10.935,6.162-25.501,6.099C92.438,40.094,80.851,53.495,82.014,72.104z"/>
		<path d="M71.307,78.757c0,0-9.611,5.614-15.156,11.597c-5.546,5.977-10.396,10.636-10.914,20.191
			c-0.52,9.524-7.136,15.289-11.185,15.27c4.277-3.521,6.465-8.374,6.471-12.392c0.021-4.041-1.197-13.358,10.179-22.885
			C50.701,90.538,61.967,82.411,71.307,78.757z"/>
		<path d="M67.533,91.693c0,0,0.604,12.906-15.75,15.183C55.503,104.469,61.022,100.936,67.533,91.693z"/>
		<path d="M163.473,87.728c0,0-5.943-3.961-8.441-5.592c-2.477-1.585,1.676-7.399,5.189-4.693
			C163.715,80.147,163.473,87.728,163.473,87.728z"/>
		<path d="M176.029,119.773c0,0-3.111-2.419-5.789-4.176c-2.697-1.753-3.68-5.3,0.318-5.648
			C174.559,109.607,176.363,112.896,176.029,119.773z"/>
		<path d="M188.598,135.686c0,0,4.568-9.548,8.85,0.611c0.189,4.176,0.5,6.591,0.5,6.591s-4.578-2.912-5.898-3.619
			C190.732,138.578,187.447,137.589,188.598,135.686z"/>
		<path d="M169.199,148.342c0.58-0.766,4.818-3.409,7.096,2.082c2.287,5.482,1.084,7.039,1.084,7.039s-8.9-3.753-9.625-5.247
			C167.045,150.757,169.199,148.342,169.199,148.342z"/>
		<path d="M173.521,177.785c0,0,4.66-3.251,6.688,2.986c2.033,6.222,1.441,7.013,1.441,7.013s-4.02-1.243-6.879-4.387
			C171.918,180.277,171.717,180.109,173.521,177.785z"/>
		<path d="M145.414,171.931c0,0-3.001-4.151-2.93-6.271c0.093-2.11-0.587-6.044-3.839-3.885c-3.216,2.166-5.856,4.775-2.587,6.979
			C139.318,170.981,145.414,171.931,145.414,171.931z"/>
		<path d="M121.256,181.912c0,0-2.879-4.735-3.147-6.795c-0.27-2.071-2.494-4.42-5.693-0.667
			C109.209,178.199,115.798,181.736,121.256,181.912z"/>
		<path d="M110.893,151.857c0,0-4.447-4.69-4.337-6.465c0.125-1.775-1.941-5.534-4.194-2.606c-2.252,2.923-3.753,4.873,1.283,7.195
			C108.683,152.299,110.893,151.857,110.893,151.857z"/>
		<path d="M83.194,155.953c0,0-1.975-3.071-2.439-5.3c-0.451-2.224-3.598-6.199-6.163-2.883c-2.546,3.317-0.51,5.499,2.035,6.222
			C79.176,154.721,83.194,155.953,83.194,155.953z"/>
		<path d="M148.758,124.511c0,0-4.684-2.371-7.333-3.778c-2.627-1.429-3.941-3.372-1.252-5.633c2.685-2.27,7.276,0.636,7.692,2.518
			C148.283,119.507,148.758,124.511,148.758,124.511z"/>
	</g>
</g>
</svg>
