<?xml version="1.0" encoding="utf-8"?>
<!-- Generator: Adobe Illustrator 16.0.0, SVG Export Plug-In . SVG Version: 6.00 Build 0)  -->
<!DOCTYPE svg PUBLIC "-//W3C//DTD SVG 1.1//EN" "http://www.w3.org/Graphics/SVG/1.1/DTD/svg11.dtd">
<svg version="1.1" id="Calque_1" xmlns="http://www.w3.org/2000/svg" xmlns:xlink="http://www.w3.org/1999/xlink" x="0px" y="0px"
	 width="250px" height="250px" viewBox="0 0 250 250" enable-background="new 0 0 250 250" xml:space="preserve">
<g>
	<path fill="#EDDAAB" d="M146.511,84.029c0,0-58.513-27.337-84.11,17.416c-5.438,9.509-24.128,48.511,15.399,77.771
		c0,0,41.068,18.993,49.025,17.711c0,0,49.936,1.661,65.451-37.475c8.47-21.364,6.16-39.785-25.411-60.832
		c0,0,2.824-21.56,17.968-38.757c0,0-1.54-8.214-3.851-8.214C180.982,51.65,150.104,74.275,146.511,84.029z"/>
	
		<path fill="#AD8F6C" stroke="#0D0D0D" stroke-width="4" stroke-linecap="round" stroke-linejoin="round" stroke-miterlimit="10" d="
		M118.804,195.615c-1.092,3.307-8.184,5.436-8.184,5.436c-2.31,4.363-31.536-8.744-31.536-8.744c-7.7-3.08,1.326-11.9,1.326-11.9"/>
	<g>
		<path fill="#0D0D0D" d="M119.005,86.813c0,0-1.348,0.756-3.615,2.177c-2.265,1.425-5.448,3.531-8.999,6.325
			c-1.769,1.404-3.609,3.004-5.439,4.778c-1.82,1.784-3.573,3.804-5.165,5.995c-0.801,1.096-1.499,2.271-2.156,3.473
			c-0.598,1.227-1.183,2.475-1.594,3.777c-0.468,1.29-0.699,2.639-0.917,3.984c-0.055,0.688-0.123,1.341-0.149,2.06l-0.048,2.278
			c-0.063,2.993-0.031,6.05-0.036,9.054c0.026,3.01-0.037,5.99-0.102,8.888c-0.058,2.898-0.251,5.716-0.556,8.395
			c-0.286,2.679-0.773,5.224-1.509,7.528c-0.715,2.3-1.737,4.394-3.189,5.88c-1.411,1.524-3.195,2.238-4.599,2.378
			c-1.416,0.158-2.494-0.042-3.201-0.197c-0.702-0.185-1.076-0.283-1.076-0.283s0.384,0.008,1.104,0.023
			c0.709,0.013,1.767-0.07,2.981-0.427c1.218-0.362,2.494-1.222,3.452-2.605c0.978-1.374,1.584-3.279,1.999-5.415
			c0.398-2.148,0.572-4.557,0.652-7.127c0.069-2.572-0.008-5.308-0.062-8.151c-0.099-2.859-0.201-5.814-0.305-8.816
			c-0.098-3.024-0.14-6.094-0.099-9.226l0.069-2.313c0.034-0.809,0.124-1.679,0.206-2.509c0.261-1.663,0.637-3.307,1.225-4.846
			c1.101-3.116,2.837-5.843,4.722-8.209c1.878-2.387,4.003-4.375,6.095-6.106c2.087-1.744,4.21-3.171,6.21-4.393
			c3.997-2.452,7.563-4.011,10.08-4.996C117.509,87.204,119.005,86.813,119.005,86.813z"/>
	</g>
	<g>
		<path fill="#0D0D0D" d="M145.742,93.514c0,0-1.235,0.736-3.304,2.117c-2.063,1.388-4.954,3.439-8.172,6.133
			c-1.603,1.354-3.267,2.89-4.938,4.571c-1.663,1.693-3.277,3.592-4.781,5.64c-1.493,2.056-2.838,4.292-3.901,6.674
			c-1.053,2.384-1.83,4.911-2.187,7.5c-0.098,0.645-0.137,1.298-0.211,1.946l-0.145,2.114c-0.082,1.412-0.201,2.824-0.316,4.233
			c-0.218,2.813-0.518,5.576-0.859,8.255c-0.177,1.337-0.368,2.657-0.581,3.941c-0.253,1.287-0.448,2.544-0.731,3.767
			c-0.48,2.447-1.173,4.74-1.896,6.817c-0.783,2.068-1.605,3.933-2.606,5.448c-0.439,0.782-0.983,1.444-1.448,2.063
			c-0.484,0.607-1.008,1.104-1.434,1.576c-0.943,0.873-1.725,1.49-2.306,1.845c-0.564,0.367-0.865,0.563-0.865,0.563
			s0.242-0.265,0.695-0.761c0.48-0.459,1.06-1.255,1.784-2.229c0.663-1.028,1.402-2.299,2.029-3.856
			c0.153-0.389,0.313-0.79,0.476-1.203c0.133-0.427,0.269-0.865,0.407-1.315c0.299-0.885,0.504-1.868,0.763-2.861
			c0.187-1.027,0.436-2.069,0.573-3.191c0.086-0.555,0.174-1.118,0.263-1.691c0.071-0.578,0.144-1.164,0.217-1.76
			c0.285-2.38,0.46-4.92,0.648-7.551c0.153-2.643,0.311-5.373,0.472-8.147c0.072-1.395,0.145-2.8,0.218-4.211l0.125-2.137
			c0.077-0.765,0.117-1.536,0.23-2.298c0.447-3.049,1.381-6.015,2.691-8.708c1.296-2.702,2.94-5.142,4.725-7.293
			c1.778-2.163,3.729-4.016,5.652-5.647c1.916-1.645,3.862-3.012,5.699-4.187c3.67-2.36,6.96-3.878,9.288-4.834
			C144.352,93.887,145.742,93.514,145.742,93.514z"/>
	</g>
	<g>
		<path fill="#0D0D0D" d="M157.507,104.524c0,0,0.161,1.215,0.262,3.351c0.099,2.135,0.149,5.192-0.058,8.853
			c-0.101,1.83-0.234,3.814-0.49,5.901c-0.236,2.089-0.516,4.293-0.923,6.556c-0.78,4.53-1.947,9.319-3.492,14.005
			c-0.772,2.341-1.652,4.653-2.614,6.891c-0.955,2.241-2.035,4.391-3.153,6.43c-0.6,1.001-1.14,2.008-1.757,2.945
			c-0.633,0.93-1.215,1.856-1.845,2.72c-0.646,0.854-1.23,1.71-1.875,2.482c-0.657,0.76-1.292,1.494-1.902,2.198
			c-0.649,0.667-1.271,1.307-1.862,1.914c-0.606,0.592-1.236,1.101-1.795,1.603c-0.283,0.247-0.558,0.486-0.821,0.718
			c-0.282,0.211-0.555,0.414-0.816,0.609c-0.524,0.383-1.006,0.734-1.441,1.052c-0.884,0.612-1.64,1.008-2.121,1.312
			c-0.495,0.287-0.759,0.439-0.759,0.439s0.831-0.884,2.285-2.432c0.342-0.4,0.72-0.844,1.131-1.327
			c0.206-0.237,0.421-0.484,0.644-0.741c0.208-0.27,0.424-0.548,0.646-0.837c0.915-1.127,1.838-2.479,2.859-3.924
			c0.962-1.495,1.963-3.128,2.965-4.887c0.503-0.877,0.958-1.819,1.455-2.755c0.464-0.956,0.938-1.932,1.421-2.925
			c0.449-1.01,0.905-2.035,1.367-3.074c0.416-1.062,0.879-2.114,1.298-3.198c0.825-2.173,1.66-4.385,2.379-6.643
			c0.771-2.238,1.428-4.521,2.091-6.763c0.313-1.129,0.624-2.248,0.931-3.354c0.288-1.113,0.572-2.214,0.853-3.295
			c0.536-2.171,1.071-4.272,1.52-6.281c0.443-2.015,0.861-3.92,1.248-5.678c0.364-1.771,0.698-3.394,0.994-4.832
			c0.287-1.447,0.537-2.708,0.742-3.747C157.275,105.72,157.507,104.524,157.507,104.524z"/>
	</g>
	<g>
		<path fill="#0D0D0D" d="M169.056,114.792c0.703,2.003,1.241,4.065,1.693,6.146c0.215,1.042,0.42,2.088,0.594,3.141
			c0.186,1.051,0.319,2.109,0.444,3.17c0.129,1.06,0.229,2.124,0.311,3.191c0.075,1.067,0.111,2.138,0.146,3.209
			c0.014,1.072,0.025,2.146-0.005,3.22c-0.018,1.074-0.095,2.148-0.181,3.221c-0.084,1.073-0.206,2.145-0.347,3.215
			c-0.16,1.066-0.298,2.141-0.537,3.196c-0.208,1.062-0.47,2.113-0.743,3.162c-0.295,1.043-0.585,2.091-0.949,3.114l-0.542,1.539
			l-0.626,1.508c-0.432,1-0.906,1.982-1.41,2.949c-0.514,0.962-1.042,1.917-1.638,2.833c-0.547,0.945-1.229,1.806-1.858,2.695
			l-0.043,0.061l-0.058,0.059l-10.101,10.383l-5.012,5.229c-0.82,0.885-1.646,1.766-2.44,2.671
			c-0.395,0.455-0.784,0.914-1.158,1.385c-0.186,0.236-0.365,0.477-0.527,0.729c-0.141,0.251-0.354,0.517-0.294,0.817
			c-0.113-0.298,0.062-0.61,0.161-0.888c0.122-0.281,0.263-0.555,0.409-0.823c0.292-0.539,0.62-1.055,0.955-1.564
			c0.669-1.02,1.373-2.015,2.102-2.987c1.443-1.959,2.965-3.852,4.501-5.731c1.532-1.882,3.124-3.711,4.704-5.551
			c1.593-1.83,3.22-3.621,4.853-5.422l-0.101,0.119c0.549-0.863,1.166-1.678,1.673-2.567c0.547-0.863,1.029-1.765,1.5-2.673
			c0.46-0.912,0.895-1.841,1.288-2.785c0.39-0.947,0.774-1.896,1.109-2.868c0.356-0.962,0.643-1.951,0.936-2.936
			c0.272-0.993,0.535-1.989,0.746-2.999c0.229-1.005,0.422-2.021,0.608-3.038c0.174-1.02,0.331-2.043,0.451-3.073
			c0.129-1.028,0.222-2.063,0.309-3.099c0.096-1.036,0.15-2.075,0.203-3.116c0.033-1.042,0.063-2.085,0.059-3.13
			c0.012-1.045,0.007-2.091-0.027-3.138c-0.022-1.048-0.087-2.094-0.143-3.142c-0.054-1.05-0.139-2.097-0.234-3.145
			C169.642,118.981,169.404,116.883,169.056,114.792z"/>
	</g>
	<g>
		<path fill="#0D0D0D" d="M199.251,129.227c-1.279-4.267-3.248-8.107-5.509-11.47c-2.262-3.375-4.805-6.302-7.407-8.924
			c-2.605-2.623-5.285-4.938-7.951-7.047c-1.331-1.06-2.663-2.059-3.987-3.018c-1.75-1.055-2.08-2.522-2.157-2.754
			c-0.522-1.567,0.139-3.527,0.139-3.527c0.687-2.626,1.479-5.137,2.346-7.519c1.736-4.766,3.766-9.022,5.952-12.773
			c1.091-1.877,2.226-3.627,3.382-5.259c0.577-0.816,1.165-1.599,1.752-2.357l0.496-0.626l0.851-1.02c0,0,0.931-1.19,1.195-2.302
			s-0.069-2.537-0.443-3.923l-0.231-0.816l-0.201-0.65c-0.139-0.434-0.286-0.866-0.448-1.302c-0.332-0.875-0.689-1.745-1.27-2.727
			c-0.301-0.491-0.644-1.02-1.256-1.633c-0.311-0.304-0.702-0.64-1.271-0.95c-0.568-0.31-1.378-0.576-2.247-0.571l-0.11,0
			c-0.717,0.004-1.438,0.239-2.045,0.718c-8.604,6.787-14.685,10.769-18.809,14.662c-4.105,3.897-6.405,6.423-7.964,8.259
			c-1.554,1.841-2.373,2.932-3.097,3.687s-4.438,4.857-6.047,5.014c-0.987,0.09-5.559-1.191-9.328-2.574
			c-3.996-1.484-8.27-2.646-11.562-3.338c-3.29-0.696-5.578-0.976-5.577-0.979c-0.001,0.007,0.655-0.024-1.804-0.352
			c-1.23-0.15-3.245-0.38-6.544-0.462c-3.291-0.043-7.909-0.016-14.205,1.246c-3.138,0.646-6.691,1.643-10.552,3.313
			c-3.849,1.672-8.009,4.051-12.076,7.466c-4.067,3.402-8.004,7.852-11.363,13.32c-3.349,5.482-6.223,11.815-8.303,19.21
			c-2.031,7.366-3.199,15.903-1.953,25.143c0.622,4.602,1.879,9.34,3.876,13.975c1.992,4.636,4.723,9.15,8.103,13.342
			c3.376,4.197,7.388,8.069,11.867,11.585l0.846,0.655l1.146,0.863c0.255,0.188,0.566,0.281,0.847,0.427l0.556,0.256l0.947,0.435
			l3.83,1.731l7.897,3.47c5.383,2.314,10.984,4.646,16.906,6.884c2.966,1.116,6.006,2.211,9.207,3.212
			c1.604,0.499,3.245,0.976,4.997,1.387c0.88,0.203,1.783,0.393,2.771,0.54c1.011,0.134,2.017,0.281,3.535,0.159l0.061-0.008
			l0.03,0.001c8.417,0.006,17.132-1.175,25.918-3.624c11.1-3.127,21.272-8.374,29.136-15.694c3.931-3.639,7.252-7.756,9.886-12.103
			c2.66-4.345,4.56-8.942,6.013-13.357c1.469-4.474,2.506-9.086,2.772-13.74C201.079,138.141,200.545,133.484,199.251,129.227z
			 M193.282,141.335c-0.143,3.596-0.865,7.301-2.017,11.036c-0.575,1.869-1.255,3.746-2.019,5.631
			c-0.749,1.854-1.6,3.669-2.577,5.447c-1.944,3.557-4.384,6.933-7.298,10.005c-5.82,6.161-13.596,10.981-22.494,14.158
			c-4.517,1.622-9.346,2.873-14.369,3.731c-5.037,0.846-10.213,1.37-15.512,1.3l-0.446,0.025l-0.418,0.023
			c-0.119,0.013-0.634-0.004-1.149-0.08c-0.53-0.071-1.123-0.183-1.73-0.316c-1.22-0.269-2.506-0.622-3.8-1.01
			c-2.595-0.781-5.24-1.704-7.891-2.679c-5.307-1.959-10.652-4.137-15.994-6.395l-8.009-3.457l-7.494-3.354l-1.339-1.019
			l-1.618-1.299c-1.065-0.879-2.102-1.784-3.105-2.719c-2.007-1.866-3.882-3.843-5.593-5.922c-3.42-4.159-6.152-8.755-7.997-13.615
			c-1.852-4.858-2.815-9.964-2.974-15.04c-0.323-10.178,2.421-20.099,6.387-28.538c3.936-8.46,9.489-15.146,15.674-19.47
			c6.169-4.371,12.715-6.485,18.244-7.511c5.561-1.022,10.147-1.053,13.267-0.987c3.129,0.085,4.825,0.276,4.825,0.268
			c7.343,0.668,12.858,1.9,17.006,2.856c4.147,0.985,8.448,2.806,9.32,2.979c3.755,0.743,5.52,1.049,7.387-0.562
			c1.146-0.988,4.028-4.38,5.015-5.899c4.596-7.079,11.953-14.049,23.122-22.883c0,0,2.012-1.558,2.663-1.643
			c0.65-0.085,2.576,3.145,2.605,3.938c0.028,0.793-3.311,4.452-4.106,5.354c-1.549,1.753-3.295,3.46-4.541,5.604
			c-2.489,4.291-4.72,9.062-6.593,14.301c-0.936,2.619-1.779,5.355-2.504,8.22l-0.518,2.176l-0.286,1.349
			c-0.115,0.57-0.586,2.618,0.119,4.235c0.704,1.617,1.479,2.098,2.399,2.713l1.292,0.893l0.91,0.648l1.817,1.332
			c1.215,0.901,2.417,1.847,3.617,2.822c2.395,1.955,4.75,4.071,6.984,6.386c4.443,4.618,8.473,10.132,10.449,16.652
			C192.985,134.269,193.431,137.741,193.282,141.335z"/>
	</g>
</g>
</svg>
