<?xml version="1.0" encoding="utf-8"?>
<!-- Generator: Adobe Illustrator 16.0.0, SVG Export Plug-In . SVG Version: 6.00 Build 0)  -->
<!DOCTYPE svg PUBLIC "-//W3C//DTD SVG 1.1//EN" "http://www.w3.org/Graphics/SVG/1.1/DTD/svg11.dtd">
<svg version="1.1" id="Calque_1" xmlns="http://www.w3.org/2000/svg" xmlns:xlink="http://www.w3.org/1999/xlink" x="0px" y="0px"
	 width="250px" height="250px" viewBox="0 0 250 250" enable-background="new 0 0 250 250" xml:space="preserve">
<g>
	<g>
		<path fill="none" d="M92.934,98.008c47.149,0,94.298,0,141.444,0c0,33.356,0,66.714,0,100.071c-47.203,0-94.409,0-141.612,0
			c0-33.188,0-66.378,0-99.566C92.751,98.274,92.736,98.038,92.934,98.008z M134.812,118.694
			c-5.696,7.325-10.484,18.296-9.923,31.621c0.545,12.913,5.401,22.328,12.446,29.095c7.183,6.9,17.663,11.49,30.609,10.428
			c11.979-0.981,21.276-6.402,27.582-13.959c6.159-7.38,10.746-18.071,9.588-31.621c-1.029-12.011-6.267-21.905-12.951-28.59
			c-6.8-6.799-16.581-12.662-30.105-11.605C149.833,105.019,140.521,111.354,134.812,118.694z"/>
		<path stroke="#000000" stroke-width="3.651" stroke-linecap="round" stroke-linejoin="round" stroke-miterlimit="10" d="
			M162.058,104.063c13.524-1.057,23.306,4.807,30.105,11.605c6.686,6.685,11.922,16.579,12.951,28.59
			c1.159,13.55-3.429,24.241-9.588,31.621c-6.307,7.557-15.603,12.978-27.582,13.959c-12.947,1.063-23.427-3.527-30.609-10.428
			c-7.045-6.767-11.901-16.182-12.446-29.095c-0.562-13.325,4.227-24.295,9.923-31.621
			C140.521,111.354,149.833,105.019,162.058,104.063z M147.09,109.445c-12.787,6.479-21.994,20.36-20.687,39.524
			c0.847,12.426,5.035,21.69,11.604,28.759c6.473,6.967,16.137,12.402,28.593,11.438c11.987-0.928,20.829-6.036,27.077-13.287
			c6.131-7.113,10.764-16.678,10.26-30.105c-0.443-11.83-5.34-22.157-11.773-28.591c-6.643-6.645-15.743-12.251-28.591-11.773
			C157.159,105.646,151.745,107.089,147.09,109.445z"/>
		
			<linearGradient id="SVGID_1_" gradientUnits="userSpaceOnUse" x1="70.8818" y1="67.7793" x2="140.827" y2="104.9698" gradientTransform="matrix(1 0 0 -1 59.1001 233.4004)">
			<stop  offset="0" style="stop-color:#9E124F"/>
			<stop  offset="0.3147" style="stop-color:#9F1452"/>
			<stop  offset="0.5413" style="stop-color:#A11A5B"/>
			<stop  offset="0.7403" style="stop-color:#A4246B"/>
			<stop  offset="0.9224" style="stop-color:#A83281"/>
			<stop  offset="1" style="stop-color:#AB3A8D"/>
		</linearGradient>
		
			<path fill="url(#SVGID_1_)" stroke="#000000" stroke-width="3.651" stroke-linecap="round" stroke-linejoin="round" stroke-miterlimit="10" d="
			M163.571,105.408c12.849-0.477,21.949,5.129,28.592,11.772c6.435,6.435,11.33,16.761,11.772,28.591
			c0.505,13.428-4.127,22.994-10.259,30.106c-6.249,7.251-15.09,12.359-27.077,13.287c-12.455,0.965-22.121-4.471-28.593-11.438
			c-6.568-7.068-10.758-16.334-11.604-28.76c-1.308-19.164,7.898-33.046,20.687-39.524
			C151.745,107.089,157.159,105.646,163.571,105.408z"/>
	</g>
	<g>
		<path d="M184.611,125.181c0,0,9.316,8.056,9.623,19.45c0.307,11.393-1.021,12.905-0.78,15.523
			c0.247,2.617,0.284,1.628,0.284,1.628s1.655-5.485,2.487-7.622c0.83-2.144,3.839-8.268,0.931-16.412
			C194.241,129.595,187.789,126.395,184.611,125.181z"/>
	</g>
	<g>
		<g>
			
				<linearGradient id="SVGID_2_" gradientUnits="userSpaceOnUse" x1="-5.2734" y1="38.71" x2="42.1614" y2="135.9658" gradientTransform="matrix(1 0 0 -1 59.1001 233.4004)">
				<stop  offset="0" style="stop-color:#009B3E"/>
				<stop  offset="0.1661" style="stop-color:#039C3E"/>
				<stop  offset="0.3118" style="stop-color:#0E9F3E"/>
				<stop  offset="0.4498" style="stop-color:#20A43E"/>
				<stop  offset="0.5832" style="stop-color:#3AAB3E"/>
				<stop  offset="0.7133" style="stop-color:#5AB53E"/>
				<stop  offset="0.8409" style="stop-color:#82C03E"/>
				<stop  offset="0.9642" style="stop-color:#B1CE3E"/>
				<stop  offset="1" style="stop-color:#C0D23E"/>
			</linearGradient>
			<path fill="url(#SVGID_2_)" d="M38.966,103.808c0,0-0.016,82.479,0.827,84.014c0.844,1.536,76.571,0,76.571,0v-83.021
				L38.966,103.808z"/>
		</g>
		<g>
			<path stroke="#000000" stroke-width="3.651" stroke-linecap="round" stroke-linejoin="round" d="M117.191,104.305
				c1.057,27.495,1.075,56.69,0,84.179c-24.065,2.991-52.618,1.591-78.061,0.827c-2.573-23.223-1.584-50.508-0.992-75.248
				c0.084-3.476-0.1-7.025,0.827-10.254C64.434,103.469,92.6,102.495,117.191,104.305z M40.455,105.297
				c-2.664,25.906-1.366,55.43-0.662,82.524c25.524,0,51.048,0,76.571,0c0-27.672,0-55.346,0-83.021c-25.193,0-50.386,0-75.578,0
				C40.577,104.868,40.447,105.015,40.455,105.297z"/>
		</g>
	</g>
	<g>
		<path d="M105.276,131.058c0,0,1.712,11.735,1.962,22.938c0.253,11.203-0.733,17.109-0.733,17.109s4.26-14.073,3.292-22.055
			C108.808,140.89,107.657,136.081,105.276,131.058z"/>
	</g>
	<g>
		
			<linearGradient id="SVGID_3_" gradientUnits="userSpaceOnUse" x1="72.123" y1="112.082" x2="116.6678" y2="203.4123" gradientTransform="matrix(1 0 0 -1 59.1001 233.4004)">
			<stop  offset="0" style="stop-color:#ED6A0B"/>
			<stop  offset="0.2239" style="stop-color:#EE6F0F"/>
			<stop  offset="0.4805" style="stop-color:#F07D1A"/>
			<stop  offset="0.7522" style="stop-color:#F4932D"/>
			<stop  offset="1" style="stop-color:#F8AF44"/>
		</linearGradient>
		<polygon fill="url(#SVGID_3_)" points="139.473,15.036 93.282,102.813 187.635,101.954 140.459,12.767 		"/>
		<g>
			
				<path fill="#CACACA" stroke="#000000" stroke-width="3.651" stroke-linecap="round" stroke-linejoin="round" stroke-miterlimit="10" d="
				M139.942,11.734c0.114,0,0.229,0,0.345,0c3.08,3.027,4.641,7.15,6.714,10.848c14.555,25.953,30.229,51.644,42.354,80.231
				c-31.404,0.996-64.887,1.618-96.072,0c12.414-29.67,28.922-56.623,43.215-85.054C137.601,15.565,138.6,13.378,139.942,11.734z
				 M140.114,13.801c-3.884,7.472-7.588,15.01-11.536,22.555c-10.979,20.977-22.015,42.29-33.058,63.015
				c-0.407,0.763-1.244,1.583-1.032,2.583c31.047,0,62.099,0,93.146,0C173.311,71.742,157.116,41.907,140.114,13.801z"/>
		</g>
	</g>
	<g>
		<path d="M148.588,47.081c0,0,5.207,8.94,9.058,17.927c3.853,8.983,4.979,14.086,4.979,14.086s-1.136-12.777-4.518-18.922
			C154.647,53.887,152.15,50.371,148.588,47.081z"/>
	</g>
</g>
<g>
	<path d="M30.241,224.572v17.174h-8.525v-40.667h29.013v7.054H30.241v9.262h17.911v7.178H30.241z"/>
	<path d="M70.234,242.544c-2.449,0-4.633-0.391-6.551-1.168c-1.919-0.778-3.54-1.864-4.867-3.257
		c-1.326-1.393-2.336-3.073-3.029-5.039c-0.693-1.967-1.04-4.117-1.04-6.453c0-2.376,0.356-4.548,1.071-6.515
		c0.714-1.967,1.744-3.646,3.091-5.039c1.346-1.393,2.969-2.468,4.866-3.226c1.898-0.759,4.051-1.139,6.459-1.139
		c2.367,0,4.488,0.38,6.365,1.139c1.878,0.758,3.479,1.822,4.806,3.195c1.327,1.372,2.347,3.041,3.062,5.008
		c0.714,1.967,1.071,4.159,1.071,6.576s-0.357,4.6-1.071,6.545c-0.715,1.946-1.734,3.615-3.062,5.008
		c-1.326,1.394-2.938,2.47-4.835,3.228S72.561,242.544,70.234,242.544z M70.266,235.857c4.865,0,7.299-3.066,7.299-9.2
		c0-6.093-2.434-9.14-7.299-9.14c-4.867,0-7.3,3.047-7.3,9.14C62.966,232.791,65.398,235.857,70.266,235.857z"/>
	<path d="M92.358,241.746v-30.178h7.483v3.591c0.654-1.029,1.339-1.833,2.055-2.41s1.451-1.021,2.209-1.329
		c0.756-0.308,1.522-0.505,2.301-0.587c0.775-0.082,1.572-0.124,2.392-0.124h1.043v8.22c-0.736-0.123-1.473-0.184-2.209-0.184
		c-4.866,0-7.3,2.433-7.3,7.299v15.702H92.358z"/>
	<path d="M150.997,241.746v-18.278c0-1.84-0.428-3.332-1.287-4.479c-0.857-1.144-2.004-1.717-3.436-1.717
		c-1.471,0-2.689,0.613-3.648,1.84c-0.961,1.228-1.441,2.761-1.441,4.601v18.033h-7.975v-18.155c0-1.228-0.082-2.229-0.244-3.006
		c-0.164-0.776-0.441-1.39-0.828-1.84c-0.391-0.45-0.891-0.767-1.504-0.952c-0.613-0.184-1.35-0.275-2.209-0.275
		c-3.23,0-4.846,1.963-4.846,5.889v18.34h-7.974v-30.178h7.483v4.401c1.021-2.021,2.25-3.402,3.68-4.146
		c1.432-0.743,3.148-1.115,5.154-1.115c1.02,0,1.932,0.084,2.729,0.248c0.797,0.165,1.512,0.444,2.146,0.836
		c0.635,0.393,1.236,0.897,1.809,1.517c0.574,0.619,1.146,1.361,1.719,2.227c0.818-1.69,1.902-2.919,3.25-3.682
		c1.35-0.763,2.984-1.146,4.908-1.146c1.512,0,2.902,0.258,4.172,0.769c1.268,0.513,2.35,1.229,3.25,2.151
		c0.898,0.922,1.604,1.998,2.115,3.227s0.768,2.54,0.768,3.934v20.957H150.997z"/>
	<path d="M173.528,228.743c0.121,2.29,0.787,4.109,1.992,5.459c1.207,1.35,2.791,2.024,4.754,2.024c1.309,0,2.463-0.297,3.465-0.89
		s1.646-1.421,1.934-2.484h8.219c-0.941,3.108-2.576,5.5-4.906,7.177c-2.332,1.677-5.113,2.515-8.342,2.515
		c-10.061,0-15.09-5.479-15.09-16.438c0-2.331,0.326-4.437,0.98-6.318c0.654-1.88,1.605-3.496,2.854-4.846
		c1.246-1.35,2.77-2.382,4.568-3.098c1.799-0.715,3.865-1.072,6.195-1.072c4.662,0,8.189,1.492,10.582,4.478
		c2.391,2.984,3.588,7.483,3.588,13.494H173.528z M186.103,223.713c-0.043-1.104-0.236-2.075-0.584-2.914
		c-0.348-0.837-0.807-1.533-1.379-2.085c-0.574-0.552-1.227-0.96-1.963-1.227c-0.736-0.266-1.494-0.399-2.27-0.399
		c-1.596,0-2.977,0.583-4.141,1.749c-1.166,1.165-1.832,2.791-1.994,4.876H186.103z"/>
	<path d="M220.31,241.746v-18.278c0-2.33-0.389-3.904-1.166-4.723s-2.105-1.228-3.986-1.228c-4.131,0-6.195,2.311-6.195,6.932
		v17.297h-7.975v-30.178h7.607v4.401c0.936-1.732,2.18-3.041,3.729-3.93c1.549-0.887,3.547-1.331,5.992-1.331
		c1.426,0,2.752,0.216,3.975,0.646s2.273,1.075,3.15,1.936c0.875,0.861,1.568,1.915,2.078,3.165s0.766,2.694,0.766,4.333v20.957
		H220.31z"/>
</g>
</svg>
