<?xml version="1.0" encoding="utf-8"?>
<!-- Generator: Adobe Illustrator 16.0.0, SVG Export Plug-In . SVG Version: 6.00 Build 0)  -->
<!DOCTYPE svg PUBLIC "-//W3C//DTD SVG 1.1//EN" "http://www.w3.org/Graphics/SVG/1.1/DTD/svg11.dtd">
<svg version="1.1" id="Calque_1" xmlns="http://www.w3.org/2000/svg" xmlns:xlink="http://www.w3.org/1999/xlink" x="0px" y="0px"
	 width="250px" height="250px" viewBox="0 0 250 250" enable-background="new 0 0 250 250" xml:space="preserve">
<g id="XMLID_10_">
	<g id="XMLID_11_">
		<g>
			<path fill="#442F20" d="M65.525,104.358c0.146,0.346,0.575,0.408,0.648,0.828c-0.135,0.375-0.321,0.586-0.521,0.684
				c-0.016,0.008-0.035,0.012-0.051,0.02c-0.019,0.008-0.034,0.012-0.05,0.016c-0.004,0.004-0.007,0.004-0.011,0.004
				C64.591,106.163,63.429,104.12,65.525,104.358z"/>
			<path d="M23.788,92.354c1.02,0.281,2.541,0.238,3.521-0.094c0.347-0.119,1.385-0.559,1.76-0.277
				c-0.556,1.766-4.281,1.859-6.949,1.297c-0.166-0.467-0.139-1.316,0.186-1.574C23.063,91.702,23.232,92.2,23.788,92.354z"/>
			<path fill="#009FE3" d="M89.785,108.063c1.776,0.096,2.313-3.031-0.092-2.779C87.9,105.7,88.252,107.974,89.785,108.063z
				 M92.422,105.577c-0.757,1.98-1.506,3.533-1.68,3.678c-0.007,0.004-0.011,0.008-0.016,0.008c-0.038,0.02-0.081,0.035-0.123,0.043
				c-0.56,0.17-1.363,0.066-1.946-0.273c-0.208-0.201-0.382-0.43-0.618-0.598c-0.016-0.055-0.027-0.117-0.039-0.18
				c-0.082-0.479-0.054-1.17,0.046-1.975c0.159-0.693,0.556-2.627,0.958-4.479c0.381-1.406,0.811-2.734,1.169-3.688
				c0-0.004,0-0.008,0.004-0.012c0-0.004,0.004-0.004,0.004-0.008c0.016-0.023,0.031-0.045,0.042-0.068
				c0.004-0.004,0.004-0.004,0.004-0.008c0.286-0.469,0.556-0.896,0.792-1.256c0.957-0.553,2.27-0.336,2.903,0.453
				c0.092,0.109,0.169,0.242,0.231,0.377c0.127,0.721,0.046,1.695-0.162,2.775c-0.008,0.035-0.016,0.074-0.023,0.107
				c-0.479,2.189-1.448,4.568-1.548,5.098V105.577z"/>
			<path fill="#009BA7" d="M65.552,105.905c0.016-0.004,0.031-0.008,0.05-0.016C65.586,105.897,65.567,105.901,65.552,105.905z"/>
			<path fill="#009640" d="M197.252,96.569c0.24,0.664,0.772,2.133,0.494,3.225c-0.424,0.127-0.621,0.494-1.116,0.537
				c-0.004,0.002-0.007,0-0.007,0c-0.012,0-0.02-0.006-0.031-0.014c0,0,0,0,0-0.002c-0.011-0.066-0.062-0.24-0.135-0.494
				c0-0.006,0-0.008-0.004-0.016c-0.008-0.059-0.02-0.109-0.039-0.135c-0.444-1.521-1.563-5.109-1.706-5.43
				c0.158-0.365,0.533-0.5,1.085-0.455c0.034,0.012,0.062,0.023,0.088,0.039c0.004,0.004,0.008,0.004,0.011,0.008
				c0.078,0.092,0.178,0.24,0.286,0.424C196.561,94.917,197.051,96.024,197.252,96.569z"/>
			<path d="M22.298,88.978c1.598,0.238,5.161-0.299,5.929-0.279c-0.617,2.186-4.601,2.104-6.208,1.107
				C22.024,89.442,22.225,89.271,22.298,88.978z"/>
			<path fill="#442F20" d="M65.525,104.358c-2.096-0.238-0.934,1.805,0.016,1.551c-0.506,0.15-1.069,0.119-1.498-0.271
				c-1.804-2.594,3.543-3.258,2.593-0.461c-0.208,0.285-0.571,0.547-0.983,0.693c0.2-0.098,0.386-0.309,0.521-0.684
				C66.1,104.767,65.973,104.403,65.525,104.358z"/>
			<path fill="#442F20" d="M89.715,107.368c0.271,0.479,2.602-0.818,1.042-1.514C89.391,105.319,89.441,106.935,89.715,107.368z
				 M89.785,108.063c-1.532-0.09-1.884-2.363-0.092-2.779C92.098,105.032,91.561,108.159,89.785,108.063z"/>
			<path d="M42.454,79.151c0.652-0.016,0.71,0.139,1.297,0.281c-0.031-0.217-0.112-0.387-0.185-0.555
				c-0.487,0.324-0.699,0.008-1.112-0.186C42.28,78.864,42.442,78.923,42.454,79.151z M46.716,80.54
				c-0.656-0.803-2.019-1.285-2.779-1.014C44.848,79.88,45.519,80.472,46.716,80.54z M62.278,86.378
				c-0.254-0.273-0.903-0.629-1.292-0.463C61.305,86.187,61.684,86.394,62.278,86.378z M58.391,84.802
				c0.12,0.422,0.873,0.318,1.39,0.561C59.53,84.966,59,84.843,58.391,84.802z M57.372,84.339c0.042,0.271,0.197,0.426,0.463,0.463
				C57.792,84.54,57.638,84.386,57.372,84.339z M69.417,86.655c-0.301-0.154-0.459-0.008-0.645,0.186
				c0.294-0.074,0.124,0.309,0.367,0.283c0.019-0.117,0.104-0.063,0.185,0C69.401,87.015,69.447,86.872,69.417,86.655z
				 M54.499,83.413c0.293,0.51,1.61,0.887,2.038,0.652C55.8,83.907,55.325,83.487,54.499,83.413z M67.563,86.655
				c-0.124,0.57-0.718-0.107-1.112,0.186c-0.321-0.16,0.247-0.678-0.186-0.645c-0.081,0.197,0.028,0.492-0.092,0.83
				c1.22,0.641,2.486,0.313,3.799,0.652c-0.417-0.494-1.42-0.695-1.853-0.463C68.092,86.872,67.807,86.788,67.563,86.655z
				 M63.857,91.663c0.306,0.189,0.641,0.348,1.205,0.279c0.073-2.275,0.776-4.723,0.556-7.229c-0.664-0.242-1.617-0.027-2.224,0.088
				C64.054,87.231,63.71,89.466,63.857,91.663z M53.666,82.765c-2.089-0.443-4.429-1.641-6.671-2.406c0,0.121,0,0.248,0,0.367
				c2.204,0.881,4.656,1.818,6.671,2.6C53.739,83.257,53.87,82.804,53.666,82.765z M91.032,112.546
				c-0.401-0.758-4.71-5.146-4.633-5.793c-0.873,0.051-0.803,0.105-1.695,0.289c-5.783,1.211-11.319,0.021-16.029-1.385
				c-0.008,0.564-0.144,0.746-0.162,1.32c-0.599,1.035-2.197,1.68-3.73,1.734c-0.803,0.025-1.417-0.395-2.039-0.557
				c-1,3.965-2.529,16.986-2.532,18.283c-0.008,1.484-1.603,40.32-1.61,44.146c0,1.016-0.146,2.652-0.193,3.664
				c-0.193,4.297,0.267,7.512,0.386,11.713c5.15,1.545,9.069,0.438,14.284-0.264c0.745-0.092,0.822-0.717,1.097-1.406
				c0.401-2.053-1.039-33.982,1.992-35.975c0.316-1.1,2.189,0.123,2.791,0.51c3.193,0.973,2.811,31.973,2.873,36.037
				c0.976,0.383,1.725,3.684,14.929,1.932c2.022-0.271,0.93-0.336,1.286-2.961L91.032,112.546z M66.822,99.909
				c-0.074-2.834-0.671-5.166-1.205-7.041c-0.834-0.502-2.587-0.488-3.428,0c-0.317,2.309-0.325,4.4-0.186,6.389
				c0.062,0.877,0.274,2.154,0.464,3.34c0.2,1.254,0.239,2.732,0.741,3.701c0.25,0.494,0.822,0.779,1.467,0.889
				c0.193,0.063,0.389,0.107,0.586,0.129c0.012,0.002,0.027,0.008,0.039,0.008c0.525,0.113,1.042,0.164,1.471-0.416
				c0.371-0.184,0.633-0.453,0.699-0.793C67.807,104.368,66.876,102.026,66.822,99.909z M89.005,101.802
				c-0.421,1.539-0.792,3.164-0.958,4.479c-0.15,0.641-0.201,1.295-0.046,1.975c0.011,0.063,0.022,0.125,0.039,0.18
				c0.131,0.246,0.351,0.447,0.618,0.598c0.367,0.355,0.837,0.617,1.946,0.273c0.042-0.008,0.085-0.023,0.123-0.043
				c0.004,0,0.008-0.004,0.016-0.008c0.332-0.16,0.903-1.148,1.189-1.846c0.239-0.586,0.37-1.227,0.49-1.832v-0.004
				c0.606-1.59,1.219-3.461,1.548-5.098c0.008-0.033,0.016-0.072,0.023-0.107c0.228-1.055,0.328-2.055,0.162-2.775
				c-0.062-0.135-0.14-0.268-0.231-0.377l0.687-0.098c0.15,0.178,0.347,0.367,0.541,0.625c0.926,1.254-1.174,8.891-2.413,10.717
				c-0.437,0.645,1.482,6.449,1.602,6.918c0.255,1,3.104,19.582,3.429,22.52c0.305,2.791,2.972,34.521,2.872,39.563
				c-0.023,1.229,0.386,8.625-1.482,10.008c-2.062,1.516-5.274,2.348-8.71,2.313c-4.664-0.047-8.061-1.752-10.933-3.799
				c-1.062-8.709-0.22-33.352-1.02-35.668c-0.405-0.688-0.764-0.352-0.926-0.098c-0.425,3.861-0.645,19.531-0.927,23.072
				c-0.344,4.326-0.167,8.342-1.019,12.418c-2.274,1.379-5.046,2.924-8.153,3.707c-2.8,0.699-6.162,0.746-8.617-0.648
				c-0.614-0.348-1.765-1.063-1.946-1.672c-0.127-0.428,0.274-26.9,0.278-30.016c0.004-2.932,1.096-36.201,2.575-43.344
				c1.49-2.918,1.447-17.662,1.595-21.143c0.409-0.461,1.146-0.584,1.853-0.742c-0.112-0.723-0.031-1.656-0.186-2.502
				c-0.127-0.695-0.193-1.68-0.463-2.131c-0.355-0.602-2.201-1.051-3.335-1.486c-3.467-1.328-7.197-2.494-10.47-3.893
				c-2.467-1.049-4.922-1.867-7.315-2.895l0.104-0.242c0.081,0.035,0.166,0.061,0.262,0.084c0.008-0.297,0.046-0.568,0.186-0.742
				c0.046,0.109,0.1,0.209,0.185,0.277c0.012-0.389-0.258-0.598-0.636-0.74l0.065-0.162c5.934,2.434,16.817,6.629,20.492,7.57
				c0.49-0.002,0.143-0.494,0.648-0.834c0.846-0.822,2.586-0.521,3.614,0c0.22,0.418,0.375,0.861,0.386,1.363
				c2.042,0.316,4.046,0.664,6.023,1.031l-0.108,0.576c-0.012,0.203-0.394,0.033-0.557,0.092c0.062,0.412-0.154,0.213-0.37,0.186
				c0.054,0.4,0.514,0.135,0.648,0.277l0.186,0.186c-0.027,0.244,0.192,0.238,0.371,0.277l-0.055,0.379
				c-2.208-0.32-4.447-0.621-6.709-0.938c-0.127,0.266-0.208,0.59-0.258,0.945c-0.012,0.051-0.015,0.104-0.023,0.158
				c0,0.004,0,0.008,0,0.012c-0.007,0.055-0.011,0.111-0.019,0.17c-0.066,0.652-0.062,1.371-0.108,1.992
				c-0.022,0.348-0.065,0.668-0.146,0.918c0.004,0.016,0.008,0.023,0.012,0.027v0.004c-0.004,0.016-0.008,0.027-0.012,0.039
				c0.085,0.281,0.49,0.246,0.463,0.648c0.907,2.641,1.267,5.838,1.76,8.891c2.904,1.24,7.254,1.703,10.39,1.889
				c-3.795,0.154-7.247-0.221-10.25-1.453c-0.011,0.086-0.02,0.174-0.02,0.26c-0.038-0.008-0.081-0.027-0.12-0.047
				c-0.092,0.605,0.043,1.742,0.093,2.502c6.196,1.543,12.801,2.219,19.457,0.746c-0.019-0.156-0.019-0.307-0.004-0.449h0.004
				c0.131-0.617,0.378-0.826,0.348-1.488c0.008-0.035,0.016-0.066,0.023-0.102c-0.011,0-0.019,0-0.031,0
				c-0.004-0.039-0.008-0.082-0.011-0.129c-1.456,0.096-6.05,0.23-8.181,0.148h-0.004c-0.007-0.012-0.011-0.016-0.019-0.02
				c2.556-0.055,6.003-0.137,8.524-0.648c0.026-0.109,0.058-0.221,0.092-0.344c0.286-0.908,0.873-2.088,1.501-3.205
				C89.449,99.798,89.225,100.784,89.005,101.802z"/>
			<path fill="#8E6008" d="M22.02,89.806c1.606,0.996,5.59,1.078,6.208-1.107c-0.768-0.02-4.331,0.518-5.929,0.279
				C22.225,89.271,22.024,89.442,22.02,89.806z M22.306,91.706c-0.324,0.258-0.352,1.107-0.186,1.574
				c2.668,0.563,6.394,0.469,6.949-1.297c-0.375-0.281-1.413,0.158-1.76,0.277c-0.981,0.332-2.502,0.375-3.521,0.094
				C23.232,92.2,23.063,91.702,22.306,91.706z M33.13,100.161c0.344,16.01,0.927,37.732,1.417,54.932
				c0.439,15.438,0.807,27.229,0.86,27.973c-0.038,0.379,3.911,15.535-10.423,8.977c-0.058-5.527-1.501-10.52-1.609-15.848
				c0-0.004,0-0.012,0-0.016c-0.008-0.221-0.008-0.439-0.008-0.664c0.221-0.012,0.433-0.008,0.637,0.008
				c0.231,0.012,0.459,0.035,0.687,0.059c0.031,0,0.058,0.012,0.084,0.016c1.352,0.184,2.305,0.621,3.201,0.369
				c0.718-0.191,4.39-1.35,3.451-3.137v-0.006c-0.926-0.266-0.953,0.383-1.289,0.688c-0.089,0.059-0.181,0.107-0.286,0.15
				c-2.115,0.375-3.995,0.588-6.208,0.275c0,0,0-0.004-0.004-0.004c-0.035-0.07-0.093-0.91-0.158-2.379
				c0.112,0.09,0.235,0.174,0.366,0.248c1.387,3.736,4.807,0.039,4.313,0.285c0.004-0.289,0.221-0.602,0-0.838
				c-0.181,0.063-0.363,0.111-0.544,0.139c-0.015-0.045-0.038-0.092-0.081-0.139c-0.305,0.104-0.606,0.17-0.904,0.193
				c-1.077-0.082-2.049-0.572-2.733-1.023c-0.096,0.047-0.15,0.146-0.185,0.264c-0.097-0.053-0.186-0.102-0.275-0.16
				c-0.706-16.723-2.628-89.275-2.316-92.371c4.038,0.711,7.443,0.664,11.195-0.291c0.074,0.023,0.487,0.102,0.58,0.102
				c-0.167,0.582-0.055,9.064,0.205,20.982v0.004c0,0.004,0,0.012,0,0.016c-0.004,0.131-0.008,0.254-0.008,0.391
				c-0.004,0.252,0.008,0.518,0.03,0.779C33.126,100.142,33.126,100.149,33.13,100.161z"/>
			<path d="M226.92,115.536c-0.062,0.402,0.456,2.135-2.316,2.127c-1.745-0.01-3.165-0.352-3.243-2.033
				c0.475-0.447,3.567,0.559,4.355,0.645C226.187,116.097,226.249,115.515,226.92,115.536z"/>
			<path fill="#E0E053" d="M145.208,115.476c0.625,2.619-0.197,5.725-1.575,7.229c-0.872,0.939-2.235,1.215-3.614,0.551
				c-2.335-1.113-2.166-4.125-2.223-7.039C140.158,115.333,142.227,115.372,145.208,115.476z"/>
			<path fill="#009FE3" d="M66.636,105.177c0.95-2.797-4.397-2.133-2.593,0.461c0.428,0.391,0.992,0.422,1.498,0.271
				c0.004,0,0.007,0,0.011-0.004c0.016-0.004,0.035-0.008,0.05-0.016c0.016-0.008,0.035-0.012,0.051-0.02
				C66.065,105.724,66.428,105.462,66.636,105.177z M62.483,93.774c0.741-0.443,2.293-0.467,3.03,0c0.471,1.734,1,3.893,1.066,6.51
				c0.05,1.953,0.729,3.922,0.575,5.729c-0.035,0.391-0.174,0.684-0.382,0.895c-0.355,0.357-0.907,0.473-1.471,0.416
				c-0.011,0-0.027-0.006-0.039-0.008c-0.197-0.049-0.394-0.098-0.586-0.129c-0.568-0.189-1.074-0.547-1.293-1
				c-0.444-0.896-0.479-2.262-0.656-3.424c-0.166-1.094-0.355-2.273-0.409-3.086C62.193,97.841,62.201,95.913,62.483,93.774z"/>
			<path fill="#004A99" d="M87.145,125.267c0.208,3.307-0.795,6.738-2.501,9.26c-5.652,8.344-13.478,1.703-14.084,1.117
				c-0.405-0.398-1.375-1.916-1.668-2.506c-1.455-2.945-2.436-7.254-1.945-10.836c1.482-0.086,15.778-1.375,19.272-1.113
				c0.062,0,0.124,0,0.185,0C86.808,121.636,87.09,124.382,87.145,125.267z"/>
			<path fill="#009FE3" d="M86.399,106.753c-0.077,0.646,4.231,5.035,4.633,5.793l7.015,71.289
				c-0.355,2.625,0.737,2.689-1.286,2.961c-13.204,1.752-13.953-1.549-14.929-1.932c-0.063-4.064,0.32-35.064-2.873-36.037
				c-0.602-0.387-2.475-1.609-2.791-0.51c-3.03,1.992-1.591,33.922-1.992,35.975c-0.274,0.689-0.352,1.314-1.097,1.406
				c-5.215,0.701-9.134,1.809-14.284,0.264c-0.12-4.201-0.579-7.416-0.386-11.713c0.047-1.012,0.193-2.648,0.193-3.664
				c0.007-3.826,1.602-42.662,1.61-44.146c0.003-1.297,1.532-14.318,2.532-18.283c0.622,0.162,1.235,0.582,2.039,0.557
				c1.533-0.055,3.131-0.699,3.73-1.734c0.018-0.574,0.153-0.756,0.162-1.32c4.71,1.406,10.246,2.596,16.029,1.385
				C85.596,106.858,85.526,106.804,86.399,106.753z M84.643,134.526c1.706-2.521,2.709-5.953,2.501-9.26
				c-0.054-0.885-0.336-3.631-0.742-4.078c-0.061,0-0.124,0-0.185,0c-3.494-0.262-17.79,1.027-19.272,1.113
				c-0.49,3.582,0.49,7.891,1.945,10.836c0.293,0.59,1.263,2.107,1.668,2.506C71.165,136.229,78.991,142.87,84.643,134.526z"/>
			<path fill="#8E6008" d="M224.604,117.663c2.772,0.008,2.255-1.725,2.316-2.127c-0.671-0.021-0.734,0.561-1.204,0.738
				c-0.788-0.086-3.88-1.092-4.355-0.645C221.439,117.312,222.859,117.653,224.604,117.663z M228.92,82.69
				c-0.769,3.137-0.031,6.764-0.127,10.424c-0.062,2.256-0.239,9.561-0.259,9.779c-0.22,2.637-0.054,5.857-0.386,8.621
				c-0.255,2.139-0.861,18.236-1.374,33.486c-0.406,12.176-0.753,23.809-0.815,27.383c-0.007,0.561,0.533,10.123,0.386,14.281
				c-0.039,1.092,0.328,5.713,0.518,6.953c0.061,0.166-0.02,0.377-0.167,0.602c0,0.004-0.004,0.004-0.004,0.008
				c-0.02,0.023-0.042,0.053-0.062,0.08c-0.023,0.035-0.047,0.066-0.066,0.098c-0.185,0.223-0.417,0.439-0.613,0.605
				c-2.317,1.945-6.787,0.973-7.818-1.479c-0.684-1.625,0.59-3.563,0.363-5.578c4.261-0.443,5.041-2.424,4.076-3.451
				c-0.069,0.031-0.139,0.061-0.208,0.096c-1.166,0.58-2.575,1.865-4.521,1.6c-0.016-0.541-0.205-1.65-0.051-2.045
				c0.34,0.07,0.695,0.113,1.054,0.125c1.32,0.162,2.706,0.09,3.656-0.42c0.363-0.189,0.854-0.811,0.899-1.328
				c0.008-0.059,0.008-0.107,0.004-0.164c-0.448-0.111-0.83,0.467-1.389,0.563c-0.039,0.006-0.074,0.006-0.116,0.01
				c-1.208,0.133-3.729-0.586-4.274-0.648c-0.062-5.355,0.062-10.594,0.224-15.697c0.108-3.424,0.112-6.471,0.089-9.773
				c0-0.066,0-0.137,0-0.205c0-0.027,0-0.047,0-0.074c0-2.795,1.088-16.848,1.2-19.16c0.089-1.91-0.015-7.887,0-8.879
				c0.035-2.33,0.518-27.105,0.514-28.438c-0.012-4.791-0.208-16.121,0.127-17.373c0.216,0.186,1.56,0.236,3.158,0.217
				c0.004,0,0.004,0,0.007,0c0.124,0.023,0.248,0.035,0.367,0.047c0.084,0.004,0.173-0.021,0.266-0.055
				c0.676-0.012,1.375-0.035,2.035-0.059c0.008,0,0.019,0,0.027,0c0.95,0.031,2,0.051,2.49-0.076
				c0.046-0.008,0.093-0.023,0.135-0.043h0.004C228.662,82.698,228.905,82.69,228.92,82.69z"/>
			<path d="M195.221,91.593c-0.088-0.961-0.359-1.744-0.629-2.527c-0.645-0.023-1.143,0.092-1.575,0.281
				c0.042,0.166,0.089,0.324,0.139,0.49c-0.046,0.008-0.092,0.027-0.139,0.037c0.208,0.607,0.443,1.201,0.702,1.773
				c0.158,0.477,0.325,0.943,0.502,1.406c0.443,0.01,0.776-0.094,1.019-0.279c0.008-0.143,0.012-0.281,0.012-0.412
				c0.004-0.055,0.004-0.104,0.004-0.156s-0.004-0.107-0.004-0.156c-0.004-0.139-0.012-0.279-0.027-0.41
				C195.225,91.628,195.225,91.612,195.221,91.593z M191.627,95.644c-0.973,0.482-0.649,2.895-0.278,3.711
				c0.552,1.207,1.016,2.807,2.409,1.939c-0.216-0.848-0.869-1.238-1.205-2.037c-0.455-1.064-0.282-2.541-0.648-3.52
				C191.786,95.737,191.777,95.62,191.627,95.644z M195.89,100.743c-0.78-2.32-0.831-4.795-2.224-6.486
				c-1.518,0.438-1.084,1.221-0.834,2.961c0.062,0.426-0.008,0.975,0.092,1.301c0.344,1.109,1.479,2.322,2.039,2.408
				C195.395,100.997,195.604,100.897,195.89,100.743z M196.538,89.718c-0.231,0.078-0.498,0.119-0.834,0.088
				c0,0.129,0,0.252,0,0.375C196.059,90.099,196.53,90.14,196.538,89.718z M197.928,99.909c0.316-1.135-0.286-2.656-0.556-3.34
				c-0.298-0.744-0.375-1.619-0.742-2.037c-0.116-0.133-0.29-0.197-0.452-0.275c-0.073-0.119-0.1-0.32-0.286-0.424
				c-0.003-0.004-0.007-0.004-0.011-0.008c-0.008-0.012-0.016-0.02-0.023-0.027c-0.022-0.004-0.046-0.004-0.065-0.012
				c0-0.021,0-0.055,0.004-0.088c-0.66-0.07-1.108,0.068-1.298,0.467c0.201,0.412,0.63,0.895,0.371,1.479
				c0.934,0.918,0.741,2.969,1.544,4.027c0.015,0.045,0.027,0.092,0.039,0.135c0.004,0.008,0.004,0.01,0.004,0.016
				c0.019,0.123,0.026,0.277,0.081,0.322c0,0.098,0.027,0.152,0.054,0.172c0,0.002,0,0.002,0,0.002
				c0.004,0.014,0.004,0.016,0.004,0.021c0.008,0,0.019,0,0.027-0.008c0,0,0.003,0.002,0.007,0c0,0.045,0,0.092,0,0.129
				C197.221,100.438,197.437,100.032,197.928,99.909z M196.63,89.806c1.05-0.119,1.95-0.393,2.501-1.014
				C198.09,88.987,197.348,89.157,196.63,89.806z M198.854,99.538c1.505-0.822,0.938-3.992,0-5.096
				c-0.529-0.625-1.32-1.035-2.131-0.926c-0.062,0-0.124,0-0.186,0C197.901,95.085,198.476,97.167,198.854,99.538z M180.509,95.921
				c0.096,1.826-0.17,3.363-0.093,4.912c0.598,0.158,1.035,0.143,1.668,0.094c0.501-1.639-0.015-3.258-0.279-5.006
				C181.543,95.778,180.771,95.778,180.509,95.921z M182.64,92.683c0.019-0.295,0.605-0.016,0.555-0.375
				C182.998,92.003,182.238,92.388,182.64,92.683z M190.7,91.292c0.622,0.15,1.472,0.055,1.853-0.463
				c-0.023-0.131-0.204-0.104-0.277-0.186C192.114,91.397,190.943,90.767,190.7,91.292z M171.707,94.72
				c-0.046,0.332,0.861,0.24,0.834,0C172.278,94.577,171.907,94.712,171.707,94.72z M184.307,100.927
				c1.027-0.254,1.205-3.193,0.279-3.709C184.539,98.356,184.539,99.489,184.307,100.927z M160.495,94.813
				c-0.39-0.533-1.695-0.027-2.409,0C158.959,94.964,159.604,94.929,160.495,94.813z M176.737,101.056l-0.583-4.668
				c-2.27,1.26-0.857,3.943-0.833,4.727C175.849,101.388,176.247,101.151,176.737,101.056z M174.208,94.257
				c0.224,0.576,1.181,0.197,1.853,0.186C175.857,93.714,174.788,94.257,174.208,94.257z M186.809,92.22
				c0.672-0.117,2.429-0.09,2.131-0.557C188.338,91.952,187.165,91.675,186.809,92.22z M176.896,96.106
				c-1.217,1.672,0.1,3.281,1.019,4.354c-0.278-1.658,0.131-2.48,0.186-4.441C177.598,95.948,177.381,96.165,176.896,96.106z
				 M164.85,94.532c-0.22,0.002-0.274-0.158-0.556-0.09C164.321,94.747,164.765,94.751,164.85,94.532z M163.831,95.272
				c-0.765,0.043-2.196-0.004-2.872,0.371C161.835,95.644,163.117,95.794,163.831,95.272z M190.422,96.569
				c-2.455,0.814-0.923,4.926,1.112,5.467c0.282-0.555-0.421-0.852-0.557-1.293C190.519,99.419,190.214,97.862,190.422,96.569z
				 M189.403,91.755c0.166-0.088,0.927-0.053,0.556-0.373C189.886,91.62,189.361,91.405,189.403,91.755z M182.547,96.019
				c0.425,1.672,0.618,3.666,0.371,5.096c0.799,0.059,1-1.525,1.112-2.596c0.062-0.604-0.039-1.184-0.092-1.67
				C183.527,96.521,183.323,95.983,182.547,96.019z M179.767,91.478c-0.293,1.088,0.232,2.07,0,3.15
				c0.463,0.186,1.05,0.225,1.668,0.092c0.146-1.211,0.474-2.242,0.556-3.52C181.13,91.288,180.593,91.126,179.767,91.478z
				 M164.198,94.442c-1.394,0.09-2.618-0.068-3.609,0.371C161.457,94.556,163.364,95.095,164.198,94.442z M178.655,93.237
				c-0.104,0.947-1.883,0.213-2.13,1.02c0.803-0.154,1.729-0.184,2.687-0.277c0.019-0.301-0.162-0.393-0.093-0.742
				C178.833,93.304,178.941,93.304,178.655,93.237z M178.934,94.442c-0.282,0.023-0.722-0.104-0.742,0.186
				C178.315,94.72,178.91,94.728,178.934,94.442z M178.47,99.538c0.058,0.455,0.258,1.344,0.926,1.295
				c0.398-1.479,0.475-3.473,0.557-5c-0.468-0.064-0.518,0.285-1.02,0.186C178.566,96.894,178.323,98.423,178.47,99.538z
				 M148.358,95.272c0.007-0.285-0.282-0.277-0.556-0.277c-0.008,0.309-0.707,0.398-0.834,0.277
				c-0.039-0.254,0.348-0.08,0.371-0.277c-0.425,0.055-0.895-0.008-1.282-0.008l-0.004-0.34c12.405-0.146,30.225-1.197,33.066-1.873
				c0.321-0.764-0.274-1.793,0-2.502c0.795-0.223,2.598-0.27,3.521,0.094c0.339,0.436-0.205,1.084,0,1.389
				c3.513,0.205,6.505-0.91,9.45-1.574c0.232-0.324-0.054-1.166,0.278-1.389c0.972-0.051,1.903-0.135,2.687-0.375
				c0.537-0.039,0.082,0.91,0.463,1.023c1.873-0.631,3.753-1.33,5.64-2.051l0.104,0.289c-0.405,0.676-1.784,0.379-1.946,1.299
				c0.827-0.477,1.833-0.508,2.872-0.836l0.066,0.193c-2.15,0.738-4.324,1.463-6.458,2.309c-0.097,0.594,0.088,1.443,0.185,2.131
				c5.722-0.574,4.062,5.648,4.448,7.783c0.092,0.518,0.227,1.02,0.394,1.514l-0.336,0.111c-0.189-0.656-0.688-1.27-0.799-2
				c-0.004-0.053-0.016-0.107-0.093-0.088c-0.498,0.27-0.88,0.738-1.39,1.02c-0.961,0.523-2.116,0.904-3.243,1.205
				c-1.154,0.309-2.37,0.475-3.613,0.828c0.54,1.676,2.003,3.924,2.039,6.213c0.023,1.549-0.494,3.162-1.019,4.262
				c-1.282,1.008-2.741,1.846-4.035,2.846l-0.277-0.379c0.833-0.609,1.64-1.195,2.366-1.91c0.274-0.268,0.695-0.484,0.927-0.74
				c1.328-1.473,1.417-3.039,1.02-5.375c-0.194-1.135-0.587-2.467-0.927-3.34c-0.965-2.463-4.96-5.559-2.501-8.154
				c1.17-1.227,3.077-2.262,4.54-3.332c-0.271-0.625-0.455-1.334-0.927-1.76c-3.142,1.02-6.933,1.141-10.191,1.854
				c-0.135,0.377-0.413,1.035-0.186,1.482c1.433,0.59,3.398,1.107,3.892,2.594c0.023,0.078,0.046,0.154,0.065,0.232
				c0.112,0.51,0.089,1.127,0,1.746c-0.004,0.002-0.004,0.002-0.004,0.006c-0.216,0.889-0.699,1.715-1.081,2.557
				c-0.059,0.367,0.247,0.371,0.185,0.736c-0.247,1.482-0.39,2.953-0.301,4.355l-0.42,0.031c-0.085-1.178-0.074-2.383,0.078-3.475
				c-1.487-1.838-6.259-1.719-8.714-0.813c-0.012,0.137-0.027,0.271-0.039,0.402c-0.023,0.012-0.043,0.02-0.065,0.027
				c-0.24,2.439-0.108,5.32-1.414,7.057c-1.594,1.148-4.381,1.482-6.072,2.73c0,0,0,0.004-0.004,0.004
				c-0.008,0.004-0.012,0.01-0.019,0.01c-0.371,0.199-0.711,0.434-1.008,0.693c-1.571,1.393-1.529,3.934,0,5.693
				c2.385,0.969,5.262,1.518,8.621,1.264c0.224-0.021,0.518-0.057,0.861-0.098l0.05,0.391c-2.752,0.354-6.173,0.518-8.509-0.293
				c-1.784-0.617-4.965-2.205-4.262-5.102c0.413-1.701,2.185-3.061,3.799-3.701c2.459-0.973,5.579-0.75,6.486-3.525
				c0.329-1.008,0.166-2.17,0.278-3.15c0.124-1.078,0.386-2.035,0.278-3.053c-0.146-1.398-1.551-2.287-1.575-3.711
				c-0.034-2.178,1.992-2.861,3.707-3.703c-7.023,0.85-14.47,1.299-22.144,1.482c-2.498,0.063-5.05-0.254-7.598-0.281
				c-0.869-0.008-1.733,0.059-2.603,0.09l-0.003-0.213c1.154-0.035,2.401-0.275,3.532-0.244c2.71,0.074,5.54,0.549,8.061,0.184
				c0.104-0.414-0.286-0.328-0.463-0.465c-0.127,0.43-0.745,0.387-1.02,0.186c-0.188,0.213-1.058,0.221-1.575-0.088
				c0.12-0.129,0.12-0.344,0-0.463c-1.791-0.018-2.764,0.15-4.54,0.088C148.423,94.972,148.531,95.265,148.358,95.272z"/>
			<path fill="#C0D23E" d="M121.882,103.083c-1.035,3.447,5.583,9.021,13.057,8.818c3.479-0.098,7.798-0.328,10.006-3.299
				c0.101-0.137,0.197-0.266,0.293-0.385c0.796-0.715,1.459-1.465,2.085-2.215c0.004-0.006,0.008-0.008,0.012-0.014
				c0.622-0.57,1.251-1.131,1.931-1.816c1.409,0.186,7.169,2.84,9.489,3.484c-1.594,4.707-2.83,7.371-4.987,11.512
				c-1.757-0.498-6.969-3.678-6.949-2.186c0.015,0.156,0.031,0.318,0.042,0.477c0.811,9.313-0.483,18.863-1.135,27.896
				c-6.563,5.791-26.43-0.326-27.604-1.287c0.016-0.115,0.039-0.238,0.058-0.381c0.811-5.135,4.741-26.025,3.29-27.602
				c-0.286-0.168-1.031-0.225-1.942-0.238c-1.752-0.008-4.116,0.195-4.972,0.291c-0.676-0.801-2.78-8.041-2.819-11.072
				C115.678,105.435,121.454,102.96,121.882,103.083z M143.632,122.704c1.378-1.504,2.201-4.609,1.575-7.229
				c-2.98-0.104-5.05-0.143-7.412,0.74c0.058,2.914-0.112,5.926,2.223,7.039C141.397,123.919,142.76,123.644,143.632,122.704z"/>
			<path d="M231.098,79.337c-0.255-0.221-0.158-0.58-0.092-0.924C231.398,78.427,231.129,79.151,231.098,79.337z"/>
			<path d="M230.913,79.526c0.517,0.689-0.352,2.037-1.205,1.662C229.998,80.524,230.611,80.183,230.913,79.526z"/>
			<path d="M229.801,79.614c0.12-0.123,0.456-0.039,0.463-0.277c0.363,0.219-0.054,0.584-0.371,0.652
				C229.904,79.823,229.781,79.792,229.801,79.614z"/>
			<path d="M229.06,62.106c0.108-2.32,0.089-4.564-0.371-6.49l0.641-0.289c1.193,2.549,1.433,5.564,1.305,9.188
				c-0.043,1.229-0.463,6.557-0.413,9.197h-0.761c0-1.158-0.367-2.436-0.494-3.545C229.661,67.89,228.932,64.874,229.06,62.106z"/>
			<path d="M229.615,81.282c-0.17,0.379-0.83,0.684-1.205,0.555C228.592,81.216,228.982,81.181,229.615,81.282z"/>
			<path d="M228.133,81.935c-0.243,0.027-0.397-0.035-0.371-0.283C227.89,81.519,228.203,81.61,228.133,81.935z"/>
			<path d="M227.206,81.651c0.248,0.109,0.008,0.496-0.278,0.375C226.847,81.726,227.168,81.829,227.206,81.651z"/>
			<path d="M227.114,146.421c-0.229-0.463-0.271-0.941-0.25-1.412c0.026-0.514,0.13-1.016,0.158-1.459
				c0.259-4.383,0.178-8.838,0.37-13.342c0.101-2.418,0.413-4.93,0.649-7.418c0.363-3.836,0.375-8.021,0.833-11.855
				c0.333-2.771-0.035-5.613,0.186-8.25c0.019-0.215,0.251-0.432,0.278-0.648c0.108-0.887-0.309-1.861,0.185-2.682
				c-0.501-1.885-0.151-4.418-0.092-6.672c0.092-3.57-0.286-7.254,0.417-10.352l0.695,0.156c-0.236,0.914-0.073,2.277,0,3.34
				c0.089,1.33,0.061,5.836,0.093,6.855c0.177,5.502-1.765,36.131-1.946,40.395c-0.166,3.887-0.776,7.74-0.833,11.398
				c-0.131,8.057-0.208,15.814-0.093,23.072c0.051,3.082-0.003,6.119-0.054,9.162l-0.355-0.002c0.015-0.959,0.027-1.906,0.038-2.859
				c0.009-0.549-0.192-1.109-0.185-1.674C227.345,164.126,226.851,155.302,227.114,146.421z"/>
			<path d="M226.774,145.001c0.513-15.25,1.119-31.348,1.374-33.486c0.332-2.764,0.166-5.984,0.386-8.621
				c0.02-0.219,0.197-7.523,0.259-9.779c0.097-3.66-0.641-7.287,0.127-10.424c-0.016,0-0.259,0.008-0.648,0.031
				c0.509-0.188,0.896-0.648,1.436-0.695c0.073,0.02,0.093,0.09,0.185,0.09c-0.019,0.072-0.035,0.146-0.046,0.215
				c-0.703,3.098-0.325,6.781-0.417,10.352c-0.059,2.254-0.409,4.787,0.092,6.672c-0.494,0.82-0.077,1.795-0.185,2.682
				c-0.027,0.217-0.259,0.434-0.278,0.648c-0.221,2.637,0.146,5.479-0.186,8.25c-0.459,3.834-0.471,8.02-0.833,11.855
				c-0.236,2.488-0.548,5-0.649,7.418c-0.192,4.504-0.111,8.959-0.37,13.342c-0.027,0.443-0.131,0.945-0.158,1.459L226.774,145.001z
				"/>
			<path d="M226.346,186.665c0.146-4.158-0.394-13.721-0.386-14.281c0.062-3.574,0.409-15.207,0.815-27.383l0.089,0.008
				c-0.02,0.471,0.022,0.949,0.25,1.412c-0.263,8.881,0.231,17.705,0.092,25.754c-0.007,0.564,0.194,1.125,0.185,1.674
				c-0.011,0.953-0.023,1.9-0.038,2.859c-0.05,3.223-0.127,6.439-0.239,9.648c-0.039,1.084,0.313,2.303,0.277,3.424
				c-0.034,1.197-0.188,2.566,0,3.803c0.147,0.391-0.305,0.219-0.463,0.369c-0.082,0.074-0.154,0.166-0.231,0.268
				c0.146-0.225,0.228-0.436,0.167-0.602C226.673,192.378,226.307,187.757,226.346,186.665z"/>
			<path d="M231.005,78.413c-0.066,0.344-0.163,0.703,0.092,0.924C231.129,79.151,231.398,78.427,231.005,78.413z M230.264,79.337
				c-0.007,0.238-0.343,0.154-0.463,0.277c-0.02,0.178,0.104,0.209,0.092,0.375C230.21,79.921,230.627,79.556,230.264,79.337z
				 M229.708,81.188c0.853,0.375,1.722-0.973,1.205-1.662C230.611,80.183,229.998,80.524,229.708,81.188z M228.411,81.837
				c0.375,0.129,1.035-0.176,1.205-0.555C228.982,81.181,228.592,81.216,228.411,81.837z M227.762,81.651
				c-0.026,0.248,0.128,0.311,0.371,0.283C228.203,81.61,227.89,81.519,227.762,81.651z M226.928,82.026
				c0.286,0.121,0.525-0.266,0.278-0.375C227.168,81.829,226.847,81.726,226.928,82.026z M224.431,81.935c0.154,0,0.305,0,0.459,0
				c-0.243-0.324-0.317-0.529,0-0.834c-0.232-0.076-0.363-0.254-0.649-0.277l-0.011-0.352c2.073-0.051,4.088-0.459,5.478-1.594
				c-0.178-1.213-0.186-2.596-0.556-3.617c0.228-0.477,0.309-0.996,0.309-1.549h0.761c0.011,0.652,0.054,1.141,0.135,1.363
				c0.182,0.49,0.792,0.314,1.22,0.668c1.59,1.291,1.216,4.234,0.286,5.836c-0.316,0.398-1.02,0.172-1.205,0.574
				c-0.046,0.105-0.085,0.213-0.115,0.334l-0.695-0.156c0.011-0.068,0.027-0.143,0.046-0.215c-0.092,0-0.112-0.07-0.185-0.09
				c-0.541,0.047-0.927,0.508-1.436,0.695h-0.004c-0.603,0.035-1.564,0.076-2.625,0.119c-0.008,0-0.019,0-0.027,0
				c-0.44-0.018-0.857-0.045-1.185-0.057V81.935z"/>
			<path d="M224.89,81.935c-0.155,0-0.305,0-0.459,0h-0.004c0.116-0.529-0.514-0.668-0.186-1.111
				c0.286,0.023,0.417,0.201,0.649,0.277C224.573,81.405,224.647,81.61,224.89,81.935z"/>
			<path fill="#59404B" d="M223.581,82.899c0.154-0.059,0.316-0.139,0.475-0.135c0.104,0.004,0.231,0.012,0.375,0.02
				c0.328,0.012,0.745,0.039,1.185,0.057C224.956,82.864,224.257,82.888,223.581,82.899z"/>
			<path d="M223.407,81.837c-0.073-0.318,0.104-0.385,0.186-0.555C223.89,81.302,223.782,81.942,223.407,81.837z"/>
			<path d="M221.184,81.009c0.247,0.033,0.433,0.494,0,0.461C221.172,81.241,221.01,81.181,221.184,81.009z"/>
			<path d="M219.84,56.536l-0.603-0.082c0.224-1.127,4.517-7.326,9.822-1.668c0.096,0.18,0.185,0.359,0.27,0.541l-0.641,0.289
				c-0.791-1.01-2.729-1.227-4.818-1.107c-1.077,0.063-1.208,0.197-1.853,0.463c-0.688,0.279-1.425,0.402-1.668,0.645
				C220.153,55.821,219.983,56.136,219.84,56.536z"/>
			<path fill="#8E6008" d="M220.427,69.438c-0.042-1.367-1.223-11.135,0-12.357c0.244-0.248,2.271-1.738,3.347-1.799
				c2.089-0.125,3.583-0.246,4.375,0.768c0.459,1.926,0.428,21.596,0.899,22.777c-2.548,2.1-5.664,0.574-8.879,1.031
				C219.991,76.827,220.539,72.946,220.427,69.438z"/>
			<path d="M219.786,82.661c0.428,0.084,0.908-0.059,1.49-0.078c0.513-0.016,1.1,0.215,1.664,0.324
				c-1.599,0.02-2.942-0.031-3.158-0.217L219.786,82.661z"/>
			<path d="M222.504,183.858c-0.95,0.51-2.335,0.582-3.656,0.42c1.29,0.055,2.629-0.225,3.54-0.703
				c0.366-0.199,0.946-0.578,1.015-1.045C223.357,183.048,222.867,183.669,222.504,183.858z"/>
			<path d="M220.427,57.081c-1.223,1.223-0.042,10.99,0,12.357c0.112,3.508-0.436,7.389-0.258,10.42
				c3.216-0.457,6.332,1.068,8.879-1.031c-0.471-1.182-0.44-20.852-0.899-22.777c-0.792-1.014-2.286-0.893-4.375-0.768
				C222.697,55.343,220.67,56.833,220.427,57.081z M219.238,65.622c-0.188-2.678-0.139-7.029,0.603-9.086
				c0.143-0.4,0.313-0.715,0.509-0.92c0.243-0.242,0.981-0.365,1.668-0.645c0.644-0.266,0.775-0.4,1.853-0.463
				c2.089-0.119,4.027,0.098,4.818,1.107c0.46,1.926,0.479,4.17,0.371,6.49c-0.127,2.768,0.602,5.783-0.093,8.061
				c0.127,1.109,0.494,2.387,0.494,3.545c0,0.553-0.081,1.072-0.309,1.549c0.37,1.021,0.377,2.404,0.556,3.617
				c-1.39,1.135-3.405,1.543-5.478,1.594c-1.688,0.035-3.417-0.154-4.876-0.371c-0.038-0.008-0.077-0.02-0.116-0.023
				c-0.177-3.029,0.297-6.955,0.186-10.471C219.381,68.249,219.335,66.956,219.238,65.622z"/>
			<path d="M218.219,78.692c0.201,0.072,0.329,0.227,0.278,0.555C218.165,79.298,218.215,78.974,218.219,78.692z"/>
			<path d="M217.663,145.03c0.089-2.518,0.352-5.268,0.464-7.596c0.092-1.914,0.243-3.992,0.371-6.213
				c0.054-0.965-0.108-1.973-0.093-2.965c0.038-2.332,0.664-4.686,0.278-7.041c0.27-3.826,0.51-7.664,0.371-11.484
				c-0.062-1.758-0.637-3.584-0.556-5.373c0.042-0.955-0.182-2.563-0.186-3.898c-0.012-4.781,0.749-9.824,1.02-14.355
				c0.081-1.371-0.429-2.455-0.093-3.707c0.174,0.154,0.355,0.229,0.548,0.264l-0.004,0.029c-0.336,1.252-0.139,12.582-0.127,17.373
				c0.004,1.332-0.479,26.107-0.514,28.438c-0.015,0.992,0.089,6.969,0,8.879c-0.112,2.313-1.2,16.365-1.2,19.16
				c-0.019-2.598-0.081-5.182-0.092-7.713C217.845,147.552,217.62,146.294,217.663,145.03z"/>
			<path d="M217.628,182.29c0.545,0.063,3.066,0.781,4.274,0.648c-1.127,0.162-2.401-0.135-3.127,0.355
				c-0.159-0.586-0.656-0.871-1.155-0.973L217.628,182.29z"/>
			<path d="M217.663,78.413c-0.309-0.834,0.429-1.172,0.556-1.852C218.705,77.151,218.258,78.29,217.663,78.413z"/>
			<path d="M218.404,81.188c-0.603,0.342-0.946-0.551-0.776-1.111c0.012-0.029,0.02-0.063,0.035-0.088
				c0.672-0.096,1.216,0.27,1.622,0.584c0.12,0.094,0.228,0.18,0.324,0.25c-0.039,0.313-0.359-0.25-0.277,0.186
				c-0.429-0.158-0.826-0.352-1.298-0.469C217.979,80.935,218.535,80.722,218.404,81.188z"/>
			<path d="M217.756,193.397c-0.688-1.629,0.135-3.459-0.093-5.467c1.398-0.842,3.533-0.445,4.355-2.131
				c0.548-0.045,1.03-0.799,0.555-1.297c0.965,1.027,0.185,3.008-4.076,3.451c0.228,2.016-1.046,3.953-0.363,5.578
				c1.031,2.451,5.501,3.424,7.818,1.479c0.196-0.166,0.428-0.383,0.613-0.605c-0.236,0.328-0.463,0.693-0.75,0.939
				C223.5,197.288,218.782,195.841,217.756,193.397z"/>
			<path d="M217.663,186.167c-0.324-0.521-0.205-1.695,0-2.039c0.043,0.012,0.085,0.02,0.131,0.025
				c-0.154,0.395,0.035,1.504,0.051,2.045C217.782,186.188,217.725,186.183,217.663,186.167z"/>
			<path d="M217.385,182.28c-0.062-5.355-0.255-10.098-0.093-15.197c0.108-3.42,0.649-6.941,0.649-10.264
				c0.023,3.303,0.019,6.35-0.089,9.773c-0.162,5.104-0.286,10.342-0.224,15.697l-0.008,0.031
				C217.543,182.298,217.462,182.288,217.385,182.28z"/>
			<path d="M218.219,78.692c-0.004,0.281-0.054,0.605,0.278,0.555C218.547,78.919,218.42,78.765,218.219,78.692z M218.219,76.562
				c-0.127,0.68-0.865,1.018-0.556,1.852C218.258,78.29,218.705,77.151,218.219,76.562z M217.014,79.989
				c0.294-0.744-0.467-1.355-0.351-2.078c0.143-0.883,0.915-1.59,1.648-2c0.583-0.332-1.212-14.113,0.926-19.457l0.603,0.082
				c-0.741,2.057-0.791,6.408-0.603,9.086c0.097,1.334,0.143,2.627,0.186,3.984c0.111,3.516-0.363,7.441-0.186,10.471
				c0.039,0.004,0.078,0.016,0.116,0.023l-0.069,0.473c-0.405-0.314-0.95-0.68-1.622-0.584c-0.015,0.025-0.023,0.059-0.035,0.088
				L217.014,79.989z"/>
			<path d="M216.644,81.101c0.366-0.051,0.17,0.645-0.093,0.551C216.354,81.468,216.578,81.29,216.644,81.101z"/>
			<path d="M215.254,82.116c-0.093,0.4-0.483,0.506-0.926,0.561c0.162-0.338,0.479-0.516,0.648-0.84
				C215.111,81.894,215.204,81.981,215.254,82.116z"/>
			<path d="M207.378,85.915c0.189-0.906,1.996-0.955,2.873-1.482c0.115,0.043,0.189,0.119,0.185,0.281
				C209.289,85.192,208.579,85.556,207.378,85.915z"/>
			<path d="M206.081,86.196c0.189-0.293,0.73-0.836,1.112-0.369C206.954,86.255,206.595,86.011,206.081,86.196z"/>
			<path d="M205.525,86.196c0.085,0.391-0.22,0.391-0.556,0.371C204.973,86.263,205.232,86.212,205.525,86.196z"/>
			<path fill="#009640" d="M203.208,114.915c-1.351-1.875-1.409-6.041,0.279-7.131c2.571,1.447,2.748,5.756,0.926,8.336
				C204.174,115.741,203.572,115.421,203.208,114.915z"/>
			<path d="M223.593,81.282c-0.081,0.17-0.259,0.236-0.186,0.555C223.782,81.942,223.89,81.302,223.593,81.282z M221.184,81.47
				c0.433,0.033,0.247-0.428,0-0.461C221.01,81.181,221.172,81.241,221.184,81.47z M216.551,81.651
				c0.263,0.094,0.459-0.602,0.093-0.551C216.578,81.29,216.354,81.468,216.551,81.651z M214.328,82.677
				c0.443-0.055,0.833-0.16,0.926-0.561c-0.05-0.135-0.143-0.223-0.278-0.279C214.806,82.161,214.49,82.339,214.328,82.677z
				 M210.251,84.433c-0.876,0.527-2.684,0.576-2.873,1.482c1.201-0.359,1.911-0.723,3.058-1.201
				C210.44,84.552,210.366,84.476,210.251,84.433z M207.193,85.827c-0.382-0.467-0.923,0.076-1.112,0.369
				C206.595,86.011,206.954,86.255,207.193,85.827z M204.969,86.567c0.336,0.02,0.641,0.02,0.556-0.371
				C205.232,86.212,204.973,86.263,204.969,86.567z M201.634,87.952c-0.081-0.131-0.139-0.293-0.371-0.273l-0.104-0.289
				c1.888-0.723,3.776-1.451,5.664-2.123c1.958-0.691,3.826-1.26,5.559-2.221c1.664-0.926,3.181-1.945,4.633-3.057l0.614,0.088
				c-0.17,0.561,0.174,1.453,0.776,1.111c0.131-0.467-0.425-0.254-0.371-0.648c0.472,0.117,0.869,0.311,1.298,0.469
				c-0.082-0.436,0.238,0.127,0.277-0.186c-0.096-0.07-0.205-0.156-0.324-0.25l0.069-0.473c1.459,0.217,3.189,0.406,4.876,0.371
				l0.011,0.352c-0.328,0.443,0.301,0.582,0.186,1.111h0.004v0.85c-0.143-0.008-0.271-0.016-0.375-0.02
				c-0.159-0.004-0.321,0.076-0.475,0.135c-0.212,0.004-0.424,0.008-0.633,0.008c-0.003,0-0.003,0-0.007,0
				c-0.564-0.109-1.151-0.34-1.664-0.324c-0.583,0.02-1.062,0.162-1.49,0.078c-0.193-0.035-0.375-0.109-0.548-0.264
				c-0.335,1.252,0.174,2.336,0.093,3.707c-0.271,4.531-1.031,9.574-1.02,14.355c0.004,1.336,0.228,2.943,0.186,3.898
				c-0.082,1.789,0.494,3.615,0.556,5.373c0.139,3.82-0.101,7.658-0.371,11.484c0.386,2.355-0.24,4.709-0.278,7.041
				c-0.016,0.992,0.146,2,0.093,2.965c-0.127,2.221-0.278,4.299-0.371,6.213c-0.112,2.328-0.375,5.078-0.464,7.596
				c-0.042,1.264,0.182,2.521,0.186,3.797c0.011,2.531,0.073,5.115,0.092,7.713c0,0.027,0,0.047,0,0.074c0,0.068,0,0.139,0,0.205
				c0,3.322-0.541,6.844-0.649,10.264c-0.162,5.1,0.031,9.842,0.093,15.197c0.077,0.008,0.158,0.018,0.235,0.041
				c0.499,0.102,0.996,0.387,1.155,0.973c0.726-0.49,2-0.193,3.127-0.355c0.042-0.004,0.078-0.004,0.116-0.01
				c0.559-0.096,0.941-0.674,1.389-0.563c0.004,0.057,0.004,0.105-0.004,0.164c-0.069,0.467-0.649,0.846-1.015,1.045
				c-0.911,0.479-2.25,0.758-3.54,0.703c-0.351-0.043-0.695-0.1-1.027-0.174c-0.007,0.016-0.019,0.035-0.027,0.049
				c-0.046-0.006-0.088-0.014-0.131-0.025c-0.205,0.344-0.324,1.518,0,2.039c0.063,0.016,0.12,0.021,0.182,0.031
				c0,0.01,0,0.018,0,0.029c2.042,0.363,3.339-1.031,4.521-1.629c0.069-0.035,0.139-0.064,0.208-0.096
				c0.475,0.498-0.007,1.252-0.555,1.297c-0.822,1.686-2.958,1.289-4.355,2.131c0.228,2.008-0.594,3.838,0.093,5.467
				c1.026,2.443,5.744,3.891,8.06,1.947c0.286-0.246,0.514-0.611,0.75-0.939c0.019-0.031,0.043-0.063,0.066-0.098
				c0.019-0.027,0.042-0.057,0.062-0.08c0-0.004,0.004-0.004,0.004-0.008c0.078-0.102,0.15-0.193,0.231-0.268
				c0.158-0.15,0.61,0.021,0.463-0.369c-0.188-1.236-0.034-2.605,0-3.803c0.035-1.121-0.316-2.34-0.277-3.424
				c0.112-3.209,0.189-6.426,0.239-9.648l0.355,0.002c-0.085,4.793-0.17,9.631,0.147,14.834c0.065,1.074,0.363,2.186-0.186,3.053
				c-0.282,0.449-1.281,1.164-2.13,1.674c-0.896,0.537-2.136,1.285-3.151,1.291c-1.811,0.025-3.096-1.104-4.447-2.033
				c-3.208-0.977-2.749-18.164-2.822-20.09c-0.216-5.738,2.475-87.104,3.1-90.451c0.278-1.479-0.591-1.621-0.448-2.777
				c-1.02-0.232-4.022,1.156-4.833,1.578c-0.76,0.395-1.455,0.822-2.224,1.199c-2.667,1.342-5.544,2.344-8.458,3.348l-0.066-0.193
				c1.127-0.357,2.235-1.34,2.502-1.018c-0.003-0.221,0.158-0.279,0.092-0.557c-0.301-0.213-0.486,0.166-0.741,0.273
				c-0.22,0.098-0.506,0.012-0.742,0.098c-0.227,0.076-0.471,0.393-0.833,0.463C201.966,87.489,201.831,87.521,201.634,87.952z"/>
			<path d="M199.317,88.978c0.162-0.92,1.541-0.623,1.946-1.299c0.231-0.02,0.29,0.143,0.371,0.273
				c0.197-0.432,0.332-0.463,0.834-0.551c0.363-0.07,0.606-0.387,0.833-0.463c0.236-0.086,0.521,0,0.742-0.098
				c0.254-0.107,0.44-0.486,0.741-0.273c0.066,0.277-0.096,0.336-0.092,0.557c-0.267-0.322-1.375,0.66-2.502,1.018
				C201.151,88.47,200.144,88.501,199.317,88.978z"/>
			<path d="M196.63,89.806c0.718-0.648,1.459-0.818,2.501-1.014C198.58,89.413,197.68,89.687,196.63,89.806z"/>
			<path fill="#009640" d="M196.538,93.517c0.062,0,0.124,0,0.186,0c0.811-0.109,1.602,0.301,2.131,0.926
				c0.938,1.104,1.505,4.273,0,5.096C198.476,97.167,197.901,95.085,196.538,93.517z"/>
			<path fill="#009640" d="M196.592,100.315c-0.027-0.02-0.054-0.074-0.054-0.172c-0.054-0.045-0.062-0.199-0.081-0.322
				C196.53,100.075,196.581,100.249,196.592,100.315z"/>
			<path d="M196.179,94.257c0.162,0.078,0.336,0.143,0.452,0.275c0.367,0.418,0.444,1.293,0.742,2.037
				c0.27,0.684,0.872,2.205,0.556,3.34c-0.491,0.123-0.707,0.529-1.297,0.551c0-0.037,0-0.084,0-0.129
				c0.495-0.043,0.691-0.41,1.116-0.537c0.278-1.092-0.254-2.561-0.494-3.225C197.051,96.024,196.561,94.917,196.179,94.257z"/>
			<path fill="#009640" d="M195.893,93.833c0.186,0.104,0.213,0.305,0.286,0.424C196.07,94.073,195.97,93.925,195.893,93.833z"/>
			<path d="M196.538,89.718c-0.008,0.422-0.479,0.381-0.834,0.463c0-0.123,0-0.246,0-0.375
				C196.04,89.837,196.306,89.796,196.538,89.718z"/>
			<path d="M203.487,107.784c-1.688,1.09-1.63,5.256-0.279,7.131c0.363,0.506,0.965,0.826,1.205,1.205
				C206.235,113.54,206.058,109.231,203.487,107.784z M195.283,122.989c1.528-0.828,2.915-1.865,4.312-2.789
				c1.752-1.158,3.652-2.105,4.448-3.432c-0.664,0.186-1.035-0.596-1.575-0.83c-0.714-1.178-1.691-2.309-1.668-3.988
				c0.027-2.045,1.235-3.443,2.131-4.721c-0.432-1.502-1.922-2.525-2.409-4.082c-0.077-0.242,0.05-0.59,0-0.828
				c-0.008-0.047-0.02-0.094-0.035-0.137l0.336-0.111c0.807,2.387,2.397,4.447,4.053,6.084c1.166,1.146,1.861,3.49,1.205,5.834
				c-0.251,0.896-1.29,2.85-1.853,3.525c-0.232,0.27-0.842,0.598-1.297,1.014c-1.034,0.961-1.756,1.348-3.058,2.225
				c-1.158,0.783-2.486,1.566-3.799,2.316c-0.201,0.115-0.386,0.221-0.571,0.32L195.283,122.989z"/>
			<path d="M195.252,92.362c0.004-0.055,0.004-0.104,0.004-0.156C195.256,92.259,195.256,92.308,195.252,92.362z"/>
			<path d="M194.87,95.644c0.259-0.584-0.17-1.066-0.371-1.479c0.189-0.398,0.638-0.537,1.298-0.467
				c-0.004,0.033-0.004,0.066-0.004,0.088c-0.552-0.045-0.927,0.09-1.085,0.455c0.143,0.32,1.262,3.908,1.706,5.43
				C195.611,98.612,195.804,96.562,194.87,95.644z"/>
			<path d="M194.222,93.054c-0.178-0.463-0.344-0.93-0.502-1.406c0.154,0.367,0.325,0.727,0.502,1.082
				c0.443,0.008,0.776-0.066,1.019-0.213c0.004-0.051,0.008-0.104,0.012-0.154c0,0.131-0.004,0.27-0.012,0.412
				C194.998,92.96,194.665,93.063,194.222,93.054z"/>
			<path fill="#5F7884" d="M193.719,91.647c-0.204-0.59-0.394-1.197-0.563-1.811c0.402-0.119,0.861-0.189,1.437-0.174
				c0.27,0.602,0.537,1.201,0.629,1.93c0.004,0.02,0.004,0.035,0.004,0.047c0.016,0.131,0.023,0.271,0.027,0.41
				c0,0.049,0.004,0.104,0.004,0.156s0,0.102-0.004,0.156c-0.004,0.051-0.008,0.104-0.012,0.154
				c-0.243,0.146-0.576,0.221-1.019,0.213C194.044,92.374,193.874,92.015,193.719,91.647z"/>
			<path d="M193.017,89.347c0.432-0.189,0.93-0.305,1.575-0.281c0.27,0.783,0.541,1.566,0.629,2.527
				c-0.092-0.729-0.359-1.328-0.629-1.93c-0.576-0.016-1.035,0.055-1.437,0.174C193.106,89.671,193.06,89.513,193.017,89.347z"/>
			<path fill="#009640" d="M192.832,97.218c-0.25-1.74-0.684-2.523,0.834-2.961c1.394,1.691,1.444,4.166,2.224,6.486
				c-0.286,0.154-0.495,0.254-0.927,0.184c-0.56-0.086-1.694-1.299-2.039-2.408C192.824,98.192,192.894,97.644,192.832,97.218z"/>
			<path d="M192.553,90.829c-0.381,0.518-1.231,0.613-1.853,0.463c0.243-0.525,1.414,0.105,1.576-0.648
				C192.349,90.726,192.53,90.698,192.553,90.829z"/>
			<path fill="#009640" d="M191.349,99.354c-0.371-0.816-0.695-3.229,0.278-3.711c0.15-0.023,0.159,0.094,0.278,0.094
				c0.367,0.979,0.193,2.455,0.648,3.52c0.336,0.799,0.989,1.189,1.205,2.037C192.365,102.161,191.901,100.562,191.349,99.354z"/>
			<path d="M189.959,91.382c0.371,0.32-0.39,0.285-0.556,0.373C189.361,91.405,189.886,91.62,189.959,91.382z"/>
			<path fill="#009640" d="M191.535,102.036c-2.035-0.541-3.567-4.652-1.112-5.467c-0.208,1.293,0.097,2.85,0.556,4.174
				C191.113,101.185,191.816,101.481,191.535,102.036z"/>
			<path d="M188.94,91.663c0.297,0.467-1.459,0.439-2.131,0.557C187.165,91.675,188.338,91.952,188.94,91.663z"/>
			<path fill="#5FAE30" d="M187.975,122.964c-1.482-0.693-1.665-2.555-1.104-4.453c1.335-2.422,4.3-3.32,6.385-4.986
				c1.158-0.912,1.158-2.65,0.965-4.195c-0.274-2.209-1.533-4.008-2.023-5.551c1.783,0.146,6.84-2.756,7.296-3.008
				c0.069-0.02,0.077,0.035,0.084,0.084c0.108,0.719,1.737,5.621,2.965,6.514c-1.374,1.037-1.76,2.637-1.949,4.369
				c-0.201,1.838,1.66,4.809,2.266,4.637c-0.726,1.225-1.764,1.924-3.366,2.992c-2.151,1.441-4.27,3.182-7.03,3.768
				C191.168,123.417,189.284,123.587,187.975,122.964z"/>
			<path d="M186.716,112.788c-0.185-0.479-0.17-0.951-0.371-1.395c0.182,0.41,0.664,1.662,0.8,2.117
				C187.041,113.251,186.817,113.044,186.716,112.788z"/>
			<path d="M186.871,118.511c-0.561,1.898-0.378,3.76,1.104,4.453c1.309,0.623,3.193,0.453,4.49,0.17
				c2.76-0.586,4.879-2.326,7.03-3.768c1.602-1.068,2.64-1.768,3.366-2.992c-0.606,0.172-2.467-2.799-2.266-4.637
				c0.189-1.732,0.575-3.332,1.949-4.369c-1.228-0.893-2.856-5.795-2.965-6.514c-0.007-0.049-0.015-0.104-0.084-0.084
				c-0.456,0.252-5.513,3.154-7.296,3.008c0.49,1.543,1.749,3.342,2.023,5.551c0.192,1.545,0.192,3.283-0.965,4.195
				C191.171,115.19,188.207,116.089,186.871,118.511z M186.995,124.093c-1.618-0.758-1.818-2.773-1.205-4.822
				c0.637-1.143,1.541-2.027,2.544-2.803c1.293-1,2.752-1.838,4.035-2.846c0.525-1.1,1.042-2.713,1.019-4.262
				c-0.035-2.289-1.499-4.537-2.039-6.213c1.243-0.354,2.459-0.52,3.613-0.828c1.127-0.301,2.282-0.682,3.243-1.205
				c0.51-0.281,0.892-0.75,1.39-1.02c0.077-0.02,0.089,0.035,0.093,0.088c0.112,0.73,0.61,1.344,0.799,2
				c0.015,0.043,0.027,0.09,0.035,0.137c0.05,0.238-0.077,0.586,0,0.828c0.486,1.557,1.977,2.58,2.409,4.082
				c-0.896,1.277-2.104,2.676-2.131,4.721c-0.023,1.68,0.954,2.811,1.668,3.988c0.541,0.234,0.911,1.016,1.575,0.83
				c-0.795,1.326-2.695,2.273-4.448,3.432c-1.397,0.924-2.784,1.961-4.312,2.789c-1.042,0.566-2.15,1.029-3.378,1.289
				C190.488,124.575,188.427,124.755,186.995,124.093z"/>
			<path d="M185.049,101.948c0.382-0.842,0.864-1.668,1.081-2.557c-0.224,1.506-0.853,3.047-0.896,3.293
				C185.296,102.319,184.99,102.315,185.049,101.948z"/>
			<path fill="#009640" d="M184.586,97.218c0.926,0.516,0.749,3.455-0.279,3.709C184.539,99.489,184.539,98.356,184.586,97.218z"/>
			<path fill="#009640" d="M182.917,101.114c0.247-1.43,0.054-3.424-0.371-5.096c0.776-0.035,0.98,0.502,1.39,0.83
				c0.054,0.486,0.154,1.066,0.092,1.67C183.917,99.589,183.717,101.173,182.917,101.114z"/>
			<path d="M182.64,92.683c-0.402-0.295,0.358-0.68,0.555-0.375C183.246,92.667,182.659,92.388,182.64,92.683z"/>
			<path fill="#FFFFFF" d="M182.176,94.813c-0.227-0.447,0.051-1.105,0.186-1.482c3.258-0.713,7.049-0.834,10.191-1.854
				c0.472,0.426,0.656,1.135,0.927,1.76c-1.463,1.07-3.37,2.105-4.54,3.332c-2.459,2.596,1.537,5.691,2.501,8.154
				c0.34,0.873,0.733,2.205,0.927,3.34c0.397,2.336,0.308,3.902-1.02,5.375c-0.231,0.256-0.653,0.473-0.927,0.74
				c-0.726,0.715-1.532,1.301-2.366,1.91c-0.502,0.363-1.016,0.729-1.525,1.146c0.428-1.135,0.93-2.404,0.648-3.613
				c-0.008-0.031-0.015-0.07-0.034-0.111c-0.136-0.455-0.618-1.707-0.8-2.117c-0.135-0.293-0.397-0.496-0.556-0.828
				c-0.521-1.102-0.779-2.287-0.857-3.525c-0.089-1.402,0.054-2.873,0.301-4.355c0.043-0.246,0.672-1.787,0.896-3.293
				c0-0.004,0-0.004,0.004-0.006c0.131-0.557,0.162-1.133,0-1.746c-0.019-0.078-0.042-0.154-0.065-0.232
				C185.574,95.921,183.608,95.403,182.176,94.813z"/>
			<path fill="#009640" d="M182.917,118.626c-0.853-1.664-1.575-3.902-0.371-5.93c0.328-0.553,1.865-2.223,2.687-1.762
				c0.938,1.648,1.259,3.359,0.464,5.094C185.126,117.269,183.786,118.204,182.917,118.626z"/>
			<path fill="#009640" d="M180.416,100.833c-0.078-1.549,0.188-3.086,0.093-4.912c0.262-0.143,1.035-0.143,1.296,0
				c0.264,1.748,0.78,3.367,0.279,5.006C181.451,100.976,181.014,100.991,180.416,100.833z"/>
			<path fill="#5F7884" d="M179.767,94.628c0.232-1.08-0.293-2.063,0-3.15c0.826-0.352,1.363-0.189,2.224-0.277
				c-0.082,1.277-0.409,2.309-0.556,3.52C180.817,94.853,180.23,94.813,179.767,94.628z"/>
			<path fill="#009640" d="M179.396,100.833c-0.668,0.049-0.869-0.84-0.926-1.295c-0.147-1.115,0.096-2.645,0.463-3.52
				c0.502,0.1,0.552-0.25,1.02-0.186C179.872,97.36,179.794,99.354,179.396,100.833z"/>
			<path d="M178.934,94.442c-0.023,0.285-0.618,0.277-0.742,0.186C178.212,94.339,178.652,94.466,178.934,94.442z"/>
			<path d="M182.547,112.696c-1.205,2.027-0.482,4.266,0.371,5.93c0.868-0.422,2.209-1.357,2.78-2.598
				c0.795-1.734,0.474-3.445-0.464-5.094C184.412,110.474,182.875,112.144,182.547,112.696z M178.749,120.665
				c-0.591,0.1-1.251,0.203-1.961,0.293l-0.05-0.391c1.841-0.244,5.038-0.865,5.192-1.533c0.116-0.494-0.374-0.791-0.679-1.412
				c-0.019-0.039-0.039-0.078-0.054-0.115c-0.254-0.611-0.586-1.584-0.641-2.078c-0.297-2.645,2.718-4.104,4.401-5.148
				c-0.205-0.967-0.366-2.074-0.444-3.209l0.42-0.031c0.078,1.238,0.336,2.424,0.857,3.525c0.159,0.332,0.421,0.535,0.556,0.828
				c0.201,0.443,0.186,0.916,0.371,1.395c0.101,0.256,0.324,0.463,0.429,0.723c0.019,0.041,0.026,0.08,0.034,0.111
				c0.282,1.209-0.22,2.479-0.648,3.613c0.509-0.418,1.023-0.783,1.525-1.146l0.277,0.379c-1.004,0.775-1.907,1.66-2.544,2.803
				c-0.613,2.049-0.413,4.064,1.205,4.822c1.432,0.662,3.494,0.482,4.91,0.186c1.228-0.26,2.336-0.723,3.378-1.289l0.22,0.4
				c-1.274,0.688-2.212,1.037-4.062,1.537c-0.884,0.234-1.976,0.668-2.779,0.645c-1.586-0.033-3.83-1.248-4.355-2.502
				c-0.621-1.475,0.344-2.75,0.742-4.355c-1.409,0.229-2.069,1.068-3.058,1.391C181.165,120.38,179.922,120.458,178.749,120.665z"/>
			<path d="M183.659,103.958c-1.336-1.67-5.583-1.572-7.821-0.771c0.012-0.131,0.027-0.266,0.039-0.402
				c2.455-0.906,7.227-1.025,8.714,0.813c-0.151,1.092-0.163,2.297-0.078,3.475c0.078,1.135,0.239,2.242,0.444,3.209
				c-1.683,1.045-4.698,2.504-4.401,5.148c0.055,0.494,0.387,1.467,0.641,2.078c0.015,0.037,0.035,0.076,0.054,0.115l-0.092,0.041
				c-0.146-0.254-0.405-0.514-0.572-0.914c-0.232-0.561-0.529-1.451-0.579-1.912c-0.271-2.428,2.458-3.768,3.984-4.729
				C183.616,108.294,183.389,105.931,183.659,103.958z"/>
			<path d="M179.211,93.979c-0.957,0.094-1.884,0.123-2.687,0.277c0.247-0.807,2.026-0.072,2.13-1.02
				c0.286,0.066,0.178,0.066,0.463,0C179.049,93.587,179.23,93.679,179.211,93.979z"/>
			<path fill="#009640" d="M177.914,100.46c-0.919-1.072-2.235-2.682-1.019-4.354c0.486,0.059,0.703-0.158,1.204-0.088
				C178.045,97.979,177.636,98.802,177.914,100.46z"/>
			<path fill="#009640" d="M175.32,101.114c-0.023-0.783-1.437-3.467,0.833-4.727l0.583,4.668
				C176.247,101.151,175.849,101.388,175.32,101.114z"/>
			<path d="M176.061,94.442c-0.672,0.012-1.629,0.391-1.853-0.186C174.788,94.257,175.857,93.714,176.061,94.442z"/>
			<path d="M172.541,94.72c0.027,0.24-0.88,0.332-0.834,0C171.907,94.712,172.278,94.577,172.541,94.72z"/>
			<path fill="#5FAE30" d="M167.965,118.489c-1.386-1.609-1.424-3.943,0-5.23c0.093-0.084,0.197-0.162,0.298-0.244
				c0.007,0,0.011-0.006,0.019-0.01c0.004,0,0.004-0.004,0.004-0.004c1.869-1.027,4.47-1.432,6.03-2.541
				c1.367-1.799,1.309-4.709,1.521-7.273c2.239-0.801,6.485-0.898,7.821,0.771c-0.27,1.973-0.042,4.336,0.332,6.15
				c-1.525,0.961-4.254,2.301-3.984,4.729c0.05,0.461,0.347,1.352,0.579,1.912c0.167,0.4,0.425,0.66,0.572,0.914
				c0.088,0.156,0.135,0.314,0.092,0.5c-0.166,0.721-4.196,1.396-5.478,1.492C172.729,119.888,170.124,119.382,167.965,118.489z"/>
			<path d="M167.255,119.401c-1.529-1.76-1.571-4.301,0-5.693c0.297-0.26,0.637-0.494,1.008-0.693
				c-0.101,0.082-0.205,0.16-0.298,0.244c-1.424,1.287-1.386,3.621,0,5.23c2.158,0.893,4.764,1.398,7.807,1.166
				c1.282-0.096,5.312-0.771,5.478-1.492c0.043-0.186-0.004-0.344-0.092-0.5l0.092-0.041c0.305,0.621,0.795,0.918,0.679,1.412
				c-0.154,0.668-3.351,1.289-5.192,1.533c-0.343,0.041-0.637,0.076-0.861,0.098C172.518,120.919,169.641,120.37,167.255,119.401z"
				/>
			<path d="M164.85,94.532c-0.085,0.219-0.529,0.215-0.556-0.09C164.576,94.374,164.63,94.534,164.85,94.532z"/>
			<path d="M163.831,95.272c-0.714,0.521-1.996,0.371-2.872,0.371C161.634,95.269,163.066,95.315,163.831,95.272z"/>
			<path d="M164.198,94.442c-0.834,0.652-2.741,0.113-3.609,0.371C161.58,94.374,162.804,94.532,164.198,94.442z"/>
			<path d="M160.495,94.813c-0.891,0.115-1.536,0.15-2.409,0C158.8,94.786,160.105,94.28,160.495,94.813z"/>
			<path fill="#2F2C78" d="M159.477,111.95c0.498,0.229-0.163,0.311-0.186,0.561C159.032,112.364,159.492,112.159,159.477,111.95z"
				/>
			<path fill="#2F2C78" d="M158.086,116.028c-0.127,0.16-0.382,0.443-0.556,0.279c-0.136-0.354,0.254-0.18,0.185-0.467
				c0.078-0.01,0.089,0.039,0.093,0.098C157.824,116.046,157.978,116.017,158.086,116.028z"/>
			<path fill="#2F2C78" d="M159.477,111.95c0.015,0.209-0.444,0.414-0.186,0.561C159.314,112.261,159.974,112.179,159.477,111.95z
				 M158.086,116.028c-0.108-0.012-0.263,0.018-0.278-0.09c-0.004-0.059-0.015-0.107-0.093-0.098c0.07,0.287-0.32,0.113-0.185,0.467
				C157.704,116.472,157.959,116.188,158.086,116.028z M156.148,119.88c-0.155,0-0.359,0.066-0.513,0.066
				c0.887-2.229,5.049-12.211,5.918-12.359c0.282-0.045,0.463-0.127,0.645,0.197C161.966,108.22,157.233,118.919,156.148,119.88z"/>
			<path d="M161.553,107.587c-0.869,0.148-5.031,10.131-5.918,12.359c0.154,0,0.358-0.066,0.513-0.066
				c1.084-0.961,5.818-11.66,6.049-12.096C162.017,107.46,161.835,107.542,161.553,107.587z M149.543,118.31
				c1.675,0.57,3.181,1.305,4.93,1.795c2.216-4.234,4.659-8.246,6.3-13.063c-2.382-0.658-4.679-1.998-7.319-2.684
				c-0.548-0.762-1.606-1.012-2.745-1.184l0.058-0.393c1.899,0.037,6.856,2.4,7.32,2.59c1.594,0.652,3.238,1.061,4.911,1.764
				c0.065,1.148-0.467,2.213-0.833,3.244c-1.452,4.076-3.313,8.01-6.301,10.654c-2.447-0.475-4.316-1.521-6.47-2.289L149.543,118.31
				z"/>
			<path fill="#CBE1B5" d="M134.181,110.101c-3.297-0.17-11.38-1.838-11.674-8.527c0.919-0.127,1.988-0.213,2.688,0.186
				c0.143,6.145,15.376,6.732,17.731,4.602c0.324-0.047,4.756-3.672,4.69-4.041c0.24-0.357,0.718-0.406,1.293,0.08
				c-0.244,1.178-4.625,6.322-7.038,6.961c-0.247,0.066-2.991,0.867-4.107,0.957C136.583,110.405,135.625,110.175,134.181,110.101z"
				/>
			<path d="M146.817,116.983c-0.02-1.492,5.192,1.688,6.949,2.186c2.158-4.141,3.393-6.805,4.987-11.512
				c-2.32-0.645-8.08-3.299-9.489-3.484c-0.68,0.686-1.309,1.246-1.931,1.816c0.833-1.012,1.598-2.023,2.506-2.93
				c0.29,0.039,0.583,0.072,0.869,0.115c1.138,0.172,2.196,0.422,2.745,1.184c2.641,0.686,4.938,2.025,7.319,2.684
				c-1.641,4.816-4.084,8.828-6.3,13.063c-1.749-0.49-3.255-1.225-4.93-1.795c-0.055-0.016-0.108-0.039-0.166-0.055
				c-0.51-0.395-1.452-1.385-2.039-0.838l-0.479,0.043C146.848,117.302,146.833,117.14,146.817,116.983z"/>
			<path d="M147.709,139.562c-0.282,2.375-0.707,4.703-0.907,6.957l-0.375-0.027c0.684-9.357,1.822-19.457,0.911-29.074
				c0.587-0.547,1.529,0.443,2.039,0.838c0.058,0.016,0.111,0.039,0.166,0.055l-0.15,0.436c-0.31-0.107-0.622-0.213-0.942-0.305
				c-0.39,1.98,0.22,4.018,0.278,6.203c0.031,1.244,0.212,2.496,0.092,3.799c-0.181,1.992-0.471,4.396-0.741,6.77
				C147.914,136.661,147.875,138.163,147.709,139.562z"/>
			<path d="M142.613,95.37c-0.521-0.047-1.147,0.547-1.482-0.191c1.309,0.125,3.173-0.445,4.169,0.094
				c0.112-0.236,0.397-0.285,0.756-0.285c0.387,0,0.857,0.063,1.282,0.008c-0.023,0.197-0.41,0.023-0.371,0.277
				c0.127,0.121,0.827,0.031,0.834-0.277c0.274,0,0.563-0.008,0.556,0.277c0.173-0.008,0.065-0.301,0.278-0.277
				c1.776,0.063,2.749-0.105,4.54-0.088c0.12,0.119,0.12,0.334,0,0.463c0.518,0.309,1.387,0.301,1.575,0.088
				c0.274,0.201,0.892,0.244,1.02-0.186c0.177,0.137,0.567,0.051,0.463,0.465c-2.521,0.365-5.351-0.109-8.061-0.184
				c-1.131-0.031-2.377,0.209-3.532,0.244c-0.587,0.02-1.147-0.012-1.657-0.154C142.841,95.604,142.644,95.374,142.613,95.37z"/>
			<path d="M139.463,95.37c-0.085,0.346-0.367,0.072-0.645,0.088C138.949,95.312,139.293,95.2,139.463,95.37z"/>
			<path d="M138.351,95.179c0.077,0.307-0.699,0.223-0.649,0.191C137.714,94.979,138.119,95.431,138.351,95.179z"/>
			<path d="M134.016,99.493c0.189-1.932-0.12-4.035,0.444-6.162c0.483-0.459,1.811-0.467,2.501-0.189
				c0.228,2.596-0.594,4.85-1.428,6.723c0.787-1.824,1.22-3.643,0.992-6.232c-0.691-0.291-1.513-0.139-1.996,0.32
				C133.969,96.075,134.22,97.69,134.016,99.493z"/>
			<path fill="#5F7884" d="M135.386,100.183c-0.343,0.193-1.046,0.277-1.482,0.098c0.027-0.137,0.051-0.273,0.066-0.406
				c0.02-0.127,0.035-0.254,0.046-0.381c0.205-1.803-0.046-3.418,0.514-5.541c0.482-0.459,1.305-0.611,1.996-0.32
				c0.228,2.59-0.205,4.408-0.992,6.232C135.483,99.966,135.437,100.075,135.386,100.183z"/>
			<path d="M133.255,95.644c-0.518,0.02-1.459,0.131-1.667-0.273C132.042,95.343,132.938,95.134,133.255,95.644z"/>
			<path d="M129.548,95.554c-0.158-0.092-0.239-0.254-0.185-0.559c0.749,0.023,0.822-0.07,1.482-0.088
				c0.004,0.4-0.267,0.535-0.463,0.736C130.109,95.237,130.059,95.536,129.548,95.554z"/>
			<path d="M126.503,102.001c0.532,1.189,1.162,2.162,2.3,2.758c4.725,1.15,9.725,2.658,13.705,0.455
				c1.579-0.881,2.015-1.063,2.83-2.451c-0.448-0.352-8.041-1.604-8.559-1.801c-0.428-0.162-0.811,0.275-1.228,0.502
				c0.409-0.238,0.779-0.713,1.224-0.816c0.502-0.113,1.448,0.002,2.038,0.096c2.027,0.309,4.046,0.85,6.115,0.83
				c0.402,0.402,1.22,0.389,1.668,0.746c-0.814,1.389-2.127,2.182-3.706,3.053c-3.976,2.213-9.447,0.779-14.176-0.367
				C127.576,104.403,127.02,103.222,126.503,102.001z"/>
			<path d="M126.503,102.001c-0.035-0.072-0.07-0.158-0.104-0.242c1.741-0.729,3.543-1.051,5.559-0.832
				c1.158,0.129,2.231,0.947,3.335,0.646c0.065-0.012,0.127-0.039,0.189-0.07c0.022-0.01,0.046-0.021,0.069-0.039
				c0.417-0.227,0.799-0.664,1.228-0.502c0.518,0.197,8.111,1.449,8.559,1.801c-0.814,1.389-1.25,1.57-2.83,2.451
				c-3.98,2.203-8.98,0.695-13.705-0.455C127.665,104.163,127.036,103.19,126.503,102.001z"/>
			<path d="M126.917,95.37c-0.719-0.066-1.41-0.199-1.815-0.557c1.235,0.051,2.462,0.258,3.521,0.094
				c0.27,0.08,0.104,0.137,0.093,0.365c0.352,0.139,0.02-0.408,0.371-0.277c-0.007,0.135-0.015,0.266,0.093,0.277
				c-0.011,0.18-0.305,0.07-0.278,0.281C128.383,95.438,127.634,95.431,126.917,95.37z"/>
			<path d="M123.619,94.72c0.339,0.043,1.05-0.242,1.266,0.117c0.012,0.02,0.023,0.045,0.031,0.07
				C124.333,94.802,123.824,95.071,123.619,94.72z"/>
			<path d="M134.938,111.901c-7.474,0.203-14.091-5.371-13.057-8.818l0.135-0.047c0.609,1.885,1.648,3.328,2.714,4.748
				c1.386,1.086,3.15,1.77,5.188,2.41c0.95,0.293,1.988,0.363,2.873,0.645c0.714,0.23,1.301,0.539,2.409,0.555
				c3.602,0.059,7.628-1.021,10.007-3.145c0.011-0.008,0.019-0.021,0.03-0.031c-0.096,0.119-0.192,0.248-0.293,0.385
				C142.737,111.573,138.417,111.804,134.938,111.901z"/>
			<path d="M121.303,94.628c0.555-0.104,1.806-0.395,2.223,0.092C122.666,94.882,122.009,94.813,121.303,94.628z"/>
			<path d="M120.886,94.509c-0.073-0.023-0.143-0.047-0.22-0.066C120.754,94.454,120.836,94.481,120.886,94.509z"/>
			<path d="M120.284,94.532c0.035-0.109,0.216-0.119,0.382-0.09c0.077,0.02,0.147,0.043,0.22,0.066c0.004,0,0.011,0.004,0.015,0.004
				c0.004,0.004,0.008,0.004,0.011,0.004c0.009,0.008,0.016,0.01,0.02,0.016C120.893,94.847,120.492,94.585,120.284,94.532z"/>
			<path d="M120.098,94.257c-0.108,0.016-0.077,0.17-0.092,0.275c-0.016-0.395-0.738-0.205-0.927-0.648
				c0.216-0.008,0.405,0,0.575,0.027c0.59,0.076,0.977,0.299,1.556,0.254c0.135,0.215,0.196,0.174,0.093,0.463
				c-0.127-0.035-0.255-0.07-0.391-0.111c-0.003,0-0.007,0-0.011-0.004c-0.004,0-0.011-0.004-0.015-0.004
				c-0.05-0.027-0.131-0.055-0.22-0.066C120.484,94.38,120.299,94.319,120.098,94.257z"/>
			<path d="M117.164,143.534c0.823-5.246,2.783-17.029,2.934-19.816c0.058-1.078,0.201-2.217,0.186-3.238
				c-0.019-0.994-0.297-1.99-0.297-2.916c0-0.475,0.073-0.926,0.297-1.348c-0.235-0.129-0.491-0.186-0.761-0.186l0.004-0.182
				c0.911,0.014,1.656,0.07,1.942,0.238c1.452,1.576-2.479,22.467-3.29,27.602L117.164,143.534z"/>
			<path d="M120.284,120.479c0.016,1.021-0.127,2.16-0.186,3.238c-0.151,2.787-2.111,14.57-2.934,19.816
				c-0.058,0.359-0.108,0.695-0.154,0.986l-0.56-0.094c0.185-1.191,0.347-2.348,0.405-3.291c0.236-3.67,1.359-7.5,1.668-11.488
				c0.158-2.006,0.162-4.143,0.463-6.115c0.078-0.506,0.548-4.162,0.491-5.953l0.509-0.016
				C119.986,118.489,120.265,119.485,120.284,120.479z"/>
			<path d="M117.01,144.521c0.046-0.291,0.096-0.627,0.154-0.986l1.015,0.154c-0.019,0.143-0.042,0.266-0.058,0.381
				c1.174,0.961,21.041,7.078,27.604,1.287c0.652-9.033,1.946-18.584,1.135-27.896l0.479-0.043
				c0.911,9.617-0.228,19.717-0.911,29.074c-0.004,0.068-0.012,0.139-0.016,0.209c-3.648,2.838-9.5,3.404-15.01,2.779
				c-1.949-0.229-3.853-0.348-5.652-0.742c-0.556-0.127-1.282-0.377-1.853-0.559c-0.942-0.297-1.656-0.691-2.409-1.016
				c-1.594-0.684-3.332-1.24-4.54-2.225C116.967,144.812,116.987,144.669,117.01,144.521z"/>
			<path d="M111.987,116.556c0.016,0.012,0.035,0.023,0.051,0.033C112.018,116.579,112.003,116.567,111.987,116.556z"/>
			<path fill="#2F2C78" d="M111.13,115.159c0.305,0.682,0.618,1.223,0.857,1.396C111.532,116.298,111.374,115.733,111.13,115.159z"
				/>
			<path d="M111.736,105.067c0.039,3.031,2.143,10.271,2.819,11.072c0.856-0.096,3.22-0.299,4.972-0.291l-0.004,0.182
				c-0.714,0-1.525,0.348-2.297,0.373c-1.05,0.021-2.648,0.029-3.984,0.186c-0.695-0.824-2.37-9.129-2.409-12.23
				c4.05,0.369,7.103-0.867,9.914-2.039c0.143-0.066,0.579-0.322,1.02-0.186c0.074,0.313,0.158,0.617,0.251,0.902l-0.135,0.047
				C121.454,102.96,115.678,105.435,111.736,105.067z"/>
			<path fill="#2F2C78" d="M110.794,114.335c0.085,0.229,0.178,0.457,0.27,0.674c-0.042-0.094-0.088-0.182-0.139-0.275
				C110.887,114.661,110.841,114.521,110.794,114.335z"/>
			<path d="M139.463,95.37c-0.169-0.17-0.514-0.059-0.645,0.088C139.096,95.442,139.378,95.716,139.463,95.37z M137.702,95.37
				c-0.05,0.031,0.726,0.115,0.649-0.191C138.119,95.431,137.714,94.979,137.702,95.37z M134.459,93.331
				c-0.564,2.127-0.254,4.23-0.444,6.162c-0.012,0.127-0.027,0.254-0.046,0.381c-0.015,0.133-0.039,0.27-0.066,0.406
				c0.436,0.18,1.139,0.096,1.482-0.098c0.051-0.107,0.097-0.217,0.147-0.318c0.833-1.873,1.656-4.127,1.428-6.723
				C136.271,92.864,134.942,92.872,134.459,93.331z M131.587,95.37c0.208,0.404,1.15,0.293,1.667,0.273
				C132.938,95.134,132.042,95.343,131.587,95.37z M129.364,94.995c-0.054,0.305,0.026,0.467,0.185,0.559
				c0.51-0.018,0.561-0.316,0.834,0.09c0.197-0.201,0.467-0.336,0.463-0.736C130.186,94.925,130.113,95.019,129.364,94.995z
				 M131.958,100.927c-2.016-0.219-3.818,0.104-5.559,0.832c0.035,0.084,0.069,0.17,0.104,0.242
				c0.517,1.221,1.073,2.402,2.211,3.004c4.729,1.146,10.2,2.58,14.176,0.367c1.579-0.871,2.892-1.664,3.706-3.053
				c-0.448-0.357-1.266-0.344-1.668-0.746c-2.069,0.02-4.088-0.521-6.115-0.83c-0.59-0.094-1.536-0.209-2.038-0.096
				c-0.444,0.104-0.814,0.578-1.224,0.816c-0.023,0.018-0.047,0.029-0.069,0.039c-0.062,0.031-0.124,0.059-0.189,0.07
				C134.189,101.874,133.116,101.056,131.958,100.927z M125.194,101.759c-0.699-0.398-1.769-0.313-2.688-0.186
				c0.294,6.689,8.377,8.357,11.674,8.527c1.444,0.074,2.401,0.305,3.583,0.217c1.116-0.09,3.86-0.891,4.107-0.957
				c2.413-0.639,6.794-5.783,7.038-6.961c-0.575-0.486-1.054-0.438-1.293-0.08c0.066,0.369-4.367,3.994-4.69,4.041
				C140.571,108.491,125.337,107.903,125.194,101.759z M119.477,117.579c-0.004-0.162-0.012-0.311-0.028-0.439
				c-1.772-0.082-7.312,0.344-8.061,0c-0.424-0.186-2.965-6.775-3.058-7.594c-0.243-2.115-0.228-4.719-0.008-6.439
				c4.05-0.432,8.813-0.012,12.161-1.789c1.24-0.654,8.111-2.539,11.632-1.686c0.792-0.719,0.872-1.965,0.579-3.24
				c-1.115-0.057-3.196-0.238-5.83-0.496l0.051-0.525c0.717,0.061,1.467,0.068,1.984,0.184c-0.027-0.211,0.267-0.102,0.278-0.281
				c-0.108-0.012-0.1-0.143-0.093-0.277c-0.351-0.131-0.019,0.416-0.371,0.277c0.011-0.229,0.177-0.285-0.093-0.365
				c-1.058,0.164-2.285-0.043-3.521-0.094l-0.216,0.023c-0.216-0.359-0.927-0.074-1.266-0.117h-0.093
				c-0.417-0.486-1.668-0.195-2.223-0.092c0.104-0.289,0.042-0.248-0.093-0.463c-0.58,0.045-0.966-0.178-1.556-0.254l0.035-0.252
				c3.22,0.414,5.903,0.76,7.081,0.873c2.15,0.211,4.315-0.295,6.485-0.182c0.309-0.395-0.023-0.889,0.186-1.297
				c1.081-0.758,2.911-0.738,4.169-0.65c0,0.691-0.236,1.498,0,2.129c2.154,0.123,5.103,0.145,8.442,0.115l0.004,0.34
				c-0.359,0-0.645,0.049-0.756,0.285c-0.997-0.539-2.86,0.031-4.169-0.094c0.335,0.738,0.961,0.145,1.482,0.191
				c0.031,0.004,0.228,0.234,0.37,0.273c0.51,0.143,1.07,0.174,1.657,0.154l0.003,0.213c-0.428,0.014-0.857,0.021-1.29,0.008
				c-1.938-0.07-3.837-0.232-5.837,0c-0.259,1.285-1,2.084-1.019,3.613c3.039,0.676,7.111,0.996,10.563,1.756
				c1.247-0.725,3.193,0.066,3.706,1.395l-0.058,0.393c-0.286-0.043-0.579-0.076-0.869-0.115c-0.908,0.906-1.672,1.918-2.506,2.93
				c-0.004,0.006-0.008,0.008-0.012,0.014c-0.691,0.643-1.37,1.313-2.085,2.215c-0.011,0.01-0.019,0.023-0.03,0.031
				c-2.378,2.123-6.405,3.203-10.007,3.145c-1.108-0.016-1.695-0.324-2.409-0.555c-0.885-0.281-1.923-0.352-2.873-0.645
				c-2.038-0.641-3.803-1.324-5.188-2.41c-1.066-1.42-2.104-2.863-2.714-4.748c-0.093-0.285-0.177-0.59-0.251-0.902
				c-0.44-0.137-0.876,0.119-1.02,0.186c-2.811,1.172-5.864,2.408-9.914,2.039c0.039,3.102,1.714,11.406,2.409,12.23
				c1.336-0.156,2.934-0.164,3.984-0.186c0.772-0.025,1.583-0.373,2.297-0.373c0.27,0,0.525,0.057,0.761,0.186
				c-0.224,0.422-0.297,0.873-0.297,1.348L119.477,117.579z M111.13,115.159c0.244,0.574,0.402,1.139,0.857,1.396
				c0.016,0.012,0.031,0.023,0.051,0.033c-0.841-3.604-1.834-8.205-1.761-12.23c-0.216,0-0.432,0-0.648,0
				c-0.003,0.113-0.12,0.125-0.093,0.275c-0.027,0.113,0.019,0.734,0.108,1.623c0.023,1.732,0.108,4.211,0.355,5.512
				c0.119,0.627,0.432,1.635,0.794,2.566c0.047,0.186,0.093,0.326,0.131,0.398c0.05,0.094,0.096,0.182,0.139,0.275
				C111.088,115.058,111.111,115.108,111.13,115.159z"/>
			<path fill="#2F2C78" d="M109.644,106.257c0.239,2.387,0.795,6.682,1.15,8.078c-0.363-0.932-0.676-1.939-0.794-2.566
				C109.752,110.468,109.667,107.989,109.644,106.257z"/>
			<path d="M108.702,93.237c0.112-0.258,0.567-0.174,0.927-0.184C109.54,93.45,109.03,93.284,108.702,93.237z"/>
			<path fill="#2F2C78" d="M109.628,104.358c0,0.041-0.003,0.824,0.016,1.898c-0.089-0.889-0.135-1.51-0.108-1.623
				C109.509,104.483,109.625,104.472,109.628,104.358z"/>
			<path d="M108.609,93.142c0.016,0.154-0.606,0.189-0.463-0.088C108.32,92.872,108.52,92.987,108.609,93.142z"/>
			<path d="M108.146,93.054c-0.143,0.277,0.479,0.242,0.463,0.088C108.52,92.987,108.32,92.872,108.146,93.054z M109.628,93.054
				c-0.359,0.01-0.814-0.074-0.927,0.184C109.03,93.284,109.54,93.45,109.628,93.054z M126.865,95.896
				c-5.67-0.545-13.913-1.418-20.65-2.137l0.078-0.705c0.162-0.027,0.212-0.164,0.185-0.371l0.085-0.703
				c3.879,0.465,8.952,1.135,13.125,1.68l-0.035,0.252c-0.17-0.027-0.359-0.035-0.575-0.027c0.189,0.443,0.911,0.254,0.927,0.648
				c0.015-0.105-0.016-0.26,0.092-0.275c0.201,0.063,0.386,0.123,0.567,0.186c-0.166-0.029-0.347-0.02-0.382,0.09
				c0.208,0.053,0.609,0.314,0.648,0c-0.004-0.006-0.011-0.008-0.02-0.016c0.136,0.041,0.264,0.076,0.391,0.111
				c0.706,0.186,1.362,0.254,2.223,0.092h0.093c0.205,0.352,0.714,0.082,1.297,0.188c-0.007-0.025-0.019-0.051-0.031-0.07
				l0.216-0.023c0.405,0.357,1.096,0.49,1.815,0.557L126.865,95.896z"/>
			<path d="M105.644,92.956c0.039-0.328,0.479-0.258,0.834-0.273c0.027,0.207-0.023,0.344-0.185,0.371
				C106.003,92.907,106.042,92.864,105.644,92.956z"/>
			<path d="M103.235,92.028c-0.255,0.102-1.212,0.109-1.39-0.18C102.366,91.853,102.799,91.944,103.235,92.028z"/>
			<path d="M98.324,92.308c0.163,0.059,0.545-0.107,0.557,0.096C98.934,92.763,98.271,92.538,98.324,92.308z"/>
			<path d="M98.047,91.567c0.096,0.316-0.29,0.143-0.464,0.188c0-0.061,0-0.123,0-0.188C97.737,91.567,97.892,91.567,98.047,91.567z
				"/>
			<path d="M98.88,92.403c-0.011-0.203-0.394-0.037-0.557-0.096C98.271,92.538,98.934,92.763,98.88,92.403z M101.845,91.849
				c0.178,0.289,1.135,0.281,1.39,0.18C102.799,91.944,102.366,91.853,101.845,91.849z M97.583,91.755
				c0.174-0.045,0.56,0.129,0.464-0.188c-0.155,0-0.31,0-0.464,0C97.583,91.632,97.583,91.694,97.583,91.755z M106.215,93.759
				c-4.528-0.482-8.377-0.891-10.3-1.076c-0.204,0.537-0.524,1.195-0.833,1.945c-0.151,0.359-0.402,0.826-0.571,1.242l-0.529-0.123
				c0.433-1.08,0.642-2.381,1.008-3.527c0.358,0.158,0.798-0.035,0.833-0.465c-0.428-0.178-0.667,0.309-0.833,0.094
				c0.081-0.725,0.231-1.684,0.181-2.506l0.455-0.023c0.028,0.541,0.039,1.092,0.105,1.604c2.019,0.385,4.065,0.389,6.115,0.555
				c1.081,0.084,2.745,0.266,4.718,0.502l-0.085,0.703c-0.355,0.016-0.795-0.055-0.834,0.273c0.398-0.092,0.359-0.049,0.649,0.098
				L106.215,93.759z"/>
			<path fill="#009BA7" d="M94.155,97.593c0.166,0.721,0.065,1.721-0.162,2.775C94.202,99.288,94.283,98.313,94.155,97.593z"/>
			<path fill="#5F7884" d="M93.661,95.427c-0.352-0.057-0.502-0.355-0.881-0.391c-0.131-1.053-0.096-2.139-0.135-3.266
				c-0.039-1.17-0.313-2.508,0.069-3.107c0.549,0.139,1.313,0.039,1.822,0.232c0.27,0.783,0.082,2.021,0,2.875
				C94.657,91.952,94.078,94.458,93.661,95.427z"/>
			<path d="M92.78,95.036c0.379,0.035,0.529,0.334,0.881,0.391c0.417-0.969,0.996-3.475,0.876-3.656c0.082-0.854,0.27-2.092,0-2.875
				c-0.51-0.193-1.273-0.094-1.822-0.232c-0.382,0.6-0.108,1.938-0.069,3.107C92.684,92.897,92.649,93.983,92.78,95.036z
				 M94.989,92.22c-0.367,1.146-0.576,2.447-1.008,3.527c-0.057,0.164-0.127,0.311-0.197,0.455
				c-0.482-0.072-0.687-0.424-1.205-0.465c-0.181-1.26-0.135-2.553-0.185-3.889c-0.054-1.398-0.432-2.988,0.093-3.707
				c0.757,0.166,1.799,0.055,2.502,0.275c0.107,0.273,0.162,0.586,0.181,0.926c0.05,0.822-0.101,1.781-0.181,2.506
				c0.166,0.215,0.405-0.271,0.833-0.094C95.788,92.185,95.348,92.378,94.989,92.22z"/>
			<path d="M92.422,105.577c-0.12,0.605-0.251,1.246-0.49,1.832c-0.286,0.697-0.857,1.686-1.189,1.846
				C90.916,109.11,91.665,107.558,92.422,105.577z"/>
			<path fill="#009BA7" d="M90.634,97.032c0.12-0.107,0.247-0.195,0.386-0.27c-0.236,0.359-0.506,0.787-0.792,1.256
				c0.035-0.109,0.073-0.213,0.112-0.318c0.042-0.115,0.089-0.23,0.135-0.326v-0.006c0.012-0.033,0.027-0.064,0.046-0.096
				C90.561,97.181,90.6,97.103,90.634,97.032z"/>
			<path fill="#009BA7" d="M90.341,97.7c-0.039,0.105-0.077,0.209-0.112,0.318c0,0.004,0,0.004-0.004,0.008
				c-0.012,0.023-0.027,0.045-0.042,0.068C90.237,97.96,90.287,97.819,90.341,97.7z"/>
			<path fill="#009BA7" d="M90.174,98.114c-0.181,0.297-0.362,0.609-0.541,0.93c0.101-0.389,0.186-0.715,0.259-0.941
				c0.004-0.004,0.336-0.885,0.336-0.887c0.286-0.469,0.498-0.453,0.792-0.453c-0.139,0.074-0.267,0.162-0.386,0.27
				c-0.035,0.07-0.073,0.148-0.112,0.24c-0.02,0.031-0.035,0.063-0.046,0.096v0.006c-0.046,0.096-0.093,0.211-0.135,0.326
				c-0.054,0.119-0.104,0.26-0.158,0.395c0,0.004-0.004,0.004-0.004,0.008C90.174,98.106,90.174,98.11,90.174,98.114z"/>
			<path fill="#009BA7" d="M89.005,101.802c0.219-1.018,0.444-2.004,0.628-2.754v-0.004c0.179-0.32,0.359-0.633,0.541-0.93
				C89.816,99.067,89.387,100.396,89.005,101.802z"/>
			<path fill="#442F20" d="M89.715,107.368c-0.274-0.434-0.325-2.049,1.042-1.514C92.317,106.55,89.986,107.847,89.715,107.368z"/>
			<path fill="#009BA7" d="M90.604,109.306c-1.108,0.344-1.579,0.082-1.946-0.273C89.24,109.372,90.043,109.476,90.604,109.306z"/>
			<path d="M89.634,99.048c-0.628,1.117-1.216,2.297-1.501,3.205l-0.092-0.027c0.756-7.174,3.177-6.273,3.675-6.631
				c0.008,0.045,0.019,0.096,0.03,0.143c-0.108,0.115-0.378,0.498-0.725,1.025c-0.294,0-0.506-0.016-0.792,0.453
				c0,0.002-0.332,0.883-0.336,0.887c-0.073,0.227-0.158,0.553-0.259,0.941V99.048z"/>
			<path d="M88.047,106.28c-0.1,0.805-0.127,1.496-0.046,1.975C87.847,107.575,87.897,106.921,88.047,106.28z"/>
			<path d="M87.731,103.245c0.012,0,0.02,0,0.031,0c-0.007,0.035-0.015,0.066-0.023,0.102
				C87.739,103.315,87.735,103.28,87.731,103.245z"/>
			<path d="M82.388,88.88c-0.139,0.262-0.402,0.168-0.556,0C81.871,88.679,82.322,88.806,82.388,88.88z"/>
			<path d="M81.833,88.88c0.154,0.168,0.417,0.262,0.556,0C82.322,88.806,81.871,88.679,81.833,88.88z M91.746,87.583
				c1.197-0.229,2.232,0.174,3.614,0c0.182,0.486,0.235,1.1,0.266,1.736l-0.455,0.023c-0.019-0.34-0.074-0.652-0.181-0.926
				c-0.703-0.221-1.745-0.109-2.502-0.275c-0.525,0.719-0.146,2.309-0.093,3.707c0.05,1.336,0.004,2.629,0.185,3.889
				c0.518,0.041,0.722,0.393,1.205,0.465c0.069-0.145,0.14-0.291,0.197-0.455l0.529,0.123c-0.104,0.268-0.177,0.514-0.17,0.699
				c0.008,0.209,0.116,0.371,0.271,0.549l-0.687,0.098c-0.633-0.789-1.946-1.006-2.903-0.453c0.347-0.527,0.617-0.91,0.725-1.025
				c-0.011-0.047-0.022-0.098-0.03-0.143c0.011-0.01,0.023-0.021,0.03-0.033c-0.286-1.104-0.308-2.459-0.556-3.602
				c-3.513-0.941-7.165-1.67-10.925-2.297l0.085-0.506c0.05-0.188,0.143-0.193,0.278-0.092c-0.016-0.137,0.034-0.34-0.093-0.367
				c-0.216,0.463-0.127-0.217-0.378-0.287l0.082-0.385c3.66,0.752,7.277,1.51,10.952,2.154
				C91.564,89.421,91.727,88.454,91.746,87.583z"/>
			<path d="M80.156,88.411c0.251,0.07,0.162,0.75,0.378,0.287c0.127,0.027,0.077,0.23,0.093,0.367
				c-0.136-0.102-0.228-0.096-0.278,0.092c-0.278-0.061-0.309-0.365-0.278-0.74C80.103,88.411,80.134,88.411,80.156,88.411z"/>
			<path fill="#194093" d="M79.423,103.333c-0.077,0-0.154-0.008-0.231-0.008C79.199,103.298,79.261,103.298,79.423,103.333z"/>
			<path d="M78.511,89.378c0.186,0.027,0.371,0.059,0.557,0.088C78.882,89.437,78.697,89.407,78.511,89.378z"/>
			<path d="M79.145,88.142c0.015,0.27-0.374,0.277-0.463,0.186C78.697,88.126,78.914,88.126,79.145,88.142z"/>
			<path d="M79.516,102.858c2.556-0.049,6.003-0.135,8.524-0.633l0.092,0.027c-0.035,0.123-0.066,0.234-0.092,0.344
				c-2.521,0.512-5.969,0.594-8.524,0.648c0.008,0.004,0.012,0.008,0.019,0.02c-0.223-0.008-0.417-0.016-0.579-0.023
				c0.124-0.008,0.247-0.02,0.375-0.023c-0.012-0.016-0.34-0.063-0.88-0.123C78.535,103.03,78.867,102.96,79.516,102.858z"/>
			<path d="M75.995,87.679c-0.753,0.473-1.263-0.242-2.224-0.189C74.289,87.235,75.377,87.472,75.995,87.679z"/>
			<path d="M72.938,88.142c-0.178-0.039-0.398-0.033-0.371-0.277c0.223,0.039,0.201-0.17,0.463-0.092
				C73.069,87.966,72.968,88.015,72.938,88.142z"/>
			<path d="M73.771,87.489c0.961-0.053,1.47,0.662,2.224,0.189C75.377,87.472,74.289,87.235,73.771,87.489z M78.682,88.327
				c0.089,0.092,0.478,0.084,0.463-0.186C78.914,88.126,78.697,88.126,78.682,88.327z M72.381,87.679
				c-0.092-0.309,0.127-0.309,0.371-0.277c-0.016-0.107,0.016-0.262-0.092-0.277l0.108-0.576c2.524,0.467,5.007,0.973,7.47,1.475
				v0.004l-0.082,0.385c-0.022,0-0.054,0-0.085,0.006c-0.031,0.375,0,0.68,0.278,0.74l-0.085,0.506
				c-0.397-0.066-0.795-0.135-1.197-0.197c-0.186-0.029-0.371-0.061-0.557-0.088c-1.852-0.305-3.729-0.584-5.628-0.857l0.055-0.379
				c0.03-0.127,0.131-0.176,0.092-0.369c-0.262-0.078-0.24,0.131-0.463,0.092L72.381,87.679z"/>
			<path d="M72.103,87.216c0.163-0.059,0.544,0.111,0.557-0.092c0.108,0.016,0.077,0.17,0.092,0.277
				c-0.244-0.031-0.463-0.031-0.371,0.277c-0.134-0.143-0.594,0.123-0.648-0.277C71.949,87.429,72.165,87.628,72.103,87.216z"/>
			<path d="M68.771,86.841c0.186-0.193,0.344-0.34,0.645-0.186c0.03,0.217-0.016,0.359-0.093,0.469
				c-0.081-0.063-0.166-0.117-0.185,0C68.895,87.149,69.065,86.767,68.771,86.841z"/>
			<path fill="#004A99" d="M87.387,104.835c-6.934,1.193-12.99,0.787-19.187-0.705c-0.046-0.646-0.243-1.455-0.24-2.047
				c3.282,1.34,7.93,1.391,11.277,1.336c-0.027-0.039-0.058-0.072-0.046-0.094c0.077,0,0.155,0.008,0.231,0.008
				c-0.162-0.035-0.224-0.035-0.231-0.008c-0.301-0.01-0.614-0.035-0.946-0.049c0.235-0.012,0.471-0.027,0.71-0.035
				c0.162,0.008,0.355,0.016,0.579,0.023h0.004c0.208,0.225,1.008,0.139,1.618,0.111c1.876-0.088,4.261,0.016,6.574-0.131
				c0.004,0.035,0.008,0.07,0.008,0.102C87.6,103.97,87.43,104.394,87.387,104.835z"/>
			<path d="M67.934,104.538c-0.05-0.76-0.186-1.896-0.093-2.502c0.039,0.02,0.082,0.039,0.12,0.047
				c-0.003,0.592,0.194,1.4,0.24,2.047c6.197,1.492,12.253,1.898,19.187,0.705c-0.015,0.143-0.015,0.293,0.004,0.449
				C80.735,106.757,74.13,106.081,67.934,104.538z"/>
			<path d="M67.563,86.655c0.243,0.133,0.529,0.217,0.556,0.561c0.433-0.232,1.436-0.031,1.853,0.463
				c-1.313-0.34-2.579-0.012-3.799-0.652c0.12-0.338,0.012-0.633,0.092-0.83c0.433-0.033-0.135,0.484,0.186,0.645
				C66.845,86.548,67.44,87.226,67.563,86.655z"/>
			<path d="M66.173,87.583c2.263,0.316,4.502,0.617,6.709,0.938c1.9,0.273,3.776,0.553,5.628,0.857
				c-4.011-0.629-8.13-1.174-12.338-1.736c-0.127,0.25-0.208,0.559-0.258,0.887C65.965,88.173,66.046,87.849,66.173,87.583z"/>
			<path d="M65.892,88.687c0.008-0.055,0.012-0.107,0.023-0.158C65.907,88.583,65.9,88.632,65.892,88.687z"/>
			<path d="M66.081,92.497c0.027-0.402-0.378-0.367-0.463-0.648c0.004-0.012,0.008-0.023,0.012-0.039
				c0.104,0.246,0.479,0.236,0.452,0.604c0.907,2.57,1.267,5.674,1.76,8.643c2.645,1.092,8.409,1.768,10.609,2.039
				c-0.093,0.061,0.108,0.111,0.506,0.146c-0.24,0.008-0.475,0.023-0.71,0.035c-0.003,0-0.011,0-0.015,0
				c-3.135-0.186-7.486-0.648-10.39-1.889C67.348,98.335,66.988,95.138,66.081,92.497z"/>
			<path fill="#FFFFFF" d="M88.04,102.226c-2.521,0.498-5.969,0.584-8.524,0.633c-0.648,0.102-0.98,0.172-1.065,0.236
				c-2.2-0.271-7.965-0.947-10.609-2.039c-0.493-2.969-0.853-6.072-1.76-8.643c0.027-0.367-0.347-0.357-0.452-0.604v-0.004
				c0.077-0.258,0.116-0.586,0.135-0.945c0.046-0.621,0.042-1.34,0.108-1.992c0.008-0.059,0.012-0.115,0.019-0.17
				c0-0.004,0-0.008,0-0.012c0.008-0.055,0.016-0.104,0.023-0.158c0.05-0.328,0.131-0.637,0.258-0.887
				c4.208,0.563,8.327,1.107,12.338,1.736c0.186,0.029,0.371,0.059,0.557,0.088c4.181,0.691,8.239,1.49,12.122,2.563
				c0.236,1.129,0.267,2.457,0.525,3.566C91.217,95.952,88.796,95.052,88.04,102.226z"/>
			<path fill="#442F20" d="M66.173,105.187c-0.074-0.42-0.502-0.482-0.648-0.828C65.973,104.403,66.1,104.767,66.173,105.187z"/>
			<path fill="#009BA7" d="M65.301,107.323c0.564,0.057,1.116-0.059,1.471-0.416C66.343,107.487,65.826,107.437,65.301,107.323z"/>
			<path fill="#5F7884" d="M64.911,91.476c-0.579,0-0.691-0.041-1-0.23c-0.146-2.197,0.212-3.746-0.448-6.172
				c0.606-0.123,1.428-0.178,2.088,0.059C65.772,87.642,64.984,89.2,64.911,91.476z"/>
			<path d="M65.062,91.942c-0.563,0.068-0.899-0.09-1.205-0.279c-0.146-2.197,0.197-4.432-0.463-6.861
				c0.606-0.115,1.56-0.33,2.224-0.088C65.837,87.22,65.135,89.667,65.062,91.942z M65.552,85.132
				c-0.66-0.236-1.482-0.182-2.088-0.059c0.66,2.426,0.301,3.975,0.448,6.172c0.309,0.189,0.421,0.23,1,0.23
				C64.984,89.2,65.772,87.642,65.552,85.132z"/>
			<path d="M65.618,92.868c0.533,1.875,1.131,4.207,1.205,7.041c0.054,2.117,0.984,4.459,0.649,6.205
				c-0.066,0.34-0.329,0.609-0.699,0.793c0.208-0.211,0.347-0.504,0.382-0.895c0.154-1.807-0.525-3.775-0.575-5.729
				c-0.066-2.617-0.595-4.775-1.066-6.51c-0.737-0.467-2.289-0.443-3.03,0c-0.282,2.139-0.29,4.066-0.166,5.902
				c0.054,0.813,0.243,1.992,0.409,3.086c0.177,1.162,0.212,2.527,0.656,3.424c0.22,0.453,0.726,0.811,1.293,1
				c-0.645-0.109-1.216-0.395-1.467-0.889c-0.502-0.969-0.542-2.447-0.741-3.701c-0.19-1.186-0.402-2.463-0.464-3.34
				c-0.139-1.988-0.131-4.08,0.186-6.389C63.031,92.38,64.784,92.366,65.618,92.868z"/>
			<path d="M62.278,86.378c-0.594,0.016-0.973-0.191-1.292-0.463C61.375,85.749,62.023,86.104,62.278,86.378z"/>
			<path d="M59.781,85.362c-0.518-0.242-1.271-0.139-1.39-0.561C59,84.843,59.53,84.966,59.781,85.362z"/>
			<path d="M57.372,84.339c0.267,0.047,0.421,0.201,0.463,0.463C57.568,84.765,57.414,84.61,57.372,84.339z"/>
			<path d="M56.537,84.065c-0.428,0.234-1.745-0.143-2.038-0.652C55.325,83.487,55.8,83.907,56.537,84.065z"/>
			<path d="M53.666,82.765c0.204,0.039,0.073,0.492,0,0.561c-2.015-0.781-4.467-1.719-6.671-2.6c0-0.119,0-0.246,0-0.367
				C49.237,81.124,51.577,82.321,53.666,82.765z"/>
			<path d="M43.937,79.526c0.76-0.271,2.123,0.211,2.779,1.014C45.519,80.472,44.848,79.88,43.937,79.526z"/>
			<path d="M43.751,79.433c-0.586-0.143-0.645-0.297-1.297-0.281c-0.012-0.229-0.174-0.287,0-0.459
				c0.414,0.193,0.625,0.51,1.112,0.186C43.639,79.046,43.72,79.216,43.751,79.433z"/>
			<path d="M41.064,77.761c-0.003,0.271-0.83,0.209-0.741-0.186C40.767,77.44,40.709,77.812,41.064,77.761z"/>
			<path d="M40.323,77.575c-0.088,0.395,0.738,0.457,0.741,0.186C40.709,77.812,40.767,77.44,40.323,77.575z M41.54,77.579
				c0.378,0.143,0.648,0.352,0.636,0.74c-0.084-0.068-0.139-0.168-0.185-0.277c-0.14,0.174-0.178,0.445-0.186,0.742
				c-0.097-0.023-0.182-0.049-0.262-0.084c-0.236-0.121-0.402-0.299-0.572-0.475c0.347-0.043,0.42-0.113,0.556,0.188
				c0.073-0.02,0.093-0.094,0.186-0.094c-0.232-0.459-0.772-0.369-1.02,0c-0.324-0.477-1.193-0.416-1.575-0.832
				c0.024-0.316,0.66-0.02,0.463-0.561C40.014,77.29,40.921,77.353,41.54,77.579z"/>
			<path d="M37.733,76.464c0.166-0.178,1.035-0.193,1.015,0.283c-0.564-0.15-0.414-0.191-0.926,0
				C37.829,76.61,37.837,76.487,37.733,76.464z"/>
			<path d="M37.08,75.911c-0.378,0.205-1.425,0.125-1.482-0.559c0.594,0.035,0.792,0.609,1.39,0.369
				C36.972,75.831,37.006,75.892,37.08,75.911z"/>
			<path d="M36.432,182.833c-0.15-2.049-0.568-4.5-0.742-7.133c-0.162-2.447-0.397-6.211-0.092-8.432
				c-0.475-0.617-0.112-1.934-0.186-2.965c-0.031-0.436-0.235-0.869-0.278-1.297c-0.115-1.221,0.07-2.447,0-3.707
				c-0.046-0.891-0.401-1.783-0.463-2.686c-0.035-0.506-0.055-1.008-0.066-1.521c-0.035-1.451,0.003-2.951-0.027-4.414
				c-0.038-1.863,0.236-3.678,0.278-5.553c0.031-1.283-0.155-2.6-0.185-3.896c-0.178-7.523-0.316-14.938-0.742-23.066
				c-0.127-2.467-0.023-4.938-0.092-7.414l1.154-0.037c1.008,30.861,2.428,72.818,2.768,80.947l-0.428,0.023
				c-0.131-2.668-0.606-5.934-0.529-8.203C36.629,183.317,36.393,183.214,36.432,182.833z"/>
			<path d="M33.652,85.085c0.085,0.016,0.108,0.092,0.108,0.197c0,0.143-0.046,0.334-0.016,0.447
				c-0.104-0.088-0.197-0.305-0.173-0.479C33.583,85.185,33.609,85.128,33.652,85.085z"/>
			<path d="M33.467,83.417c0.158,0.213,0.196,0.549,0.185,0.922C33.366,84.271,33.358,83.595,33.467,83.417z"/>
			<path d="M34.856,145.126c-0.042,1.875-0.316,3.689-0.278,5.553c0.031,1.463-0.007,2.963,0.027,4.414h-0.058
				c-0.491-17.199-1.073-38.922-1.417-54.932c0.066,0.713,0.197,1.439,0.244,2.158c0.066,1.014-0.062,1.998,0,2.965
				c0.116,1.807,0.409,3.629,0.463,5.465c0.069,2.477-0.035,4.947,0.092,7.414c0.425,8.129,0.563,15.543,0.742,23.066
				C34.702,142.526,34.888,143.843,34.856,145.126z"/>
			<path d="M33.745,75.171c0.139,0.107,0.413,0.082,0.371,0.371c-0.378,0.285-0.741,0.094-0.926,0.459
				c-0.282-0.113,0.1-0.32,0-0.551C33.463,75.712,33.641,75.353,33.745,75.171z"/>
			<path d="M34.169,85.267c0.192,6.152,0.486,15.188,0.822,25.445l-1.154,0.037c-0.054-1.836-0.348-3.658-0.463-5.465
				c-0.062-0.967,0.066-1.951,0-2.965c-0.046-0.719-0.178-1.445-0.244-2.158c-0.004-0.012-0.004-0.02-0.004-0.027
				c-0.007-0.395-0.015-0.783-0.022-1.17c0-0.004,0-0.012,0-0.016v-0.004c0.042-2.58,0.166-5.102-0.008-7.652
				c-0.135-2.029-0.016-4.061,0.097-6.064l0.378,0.023c-0.024,0.174,0.069,0.391,0.173,0.479c-0.031-0.113,0.016-0.305,0.016-0.447
				L34.169,85.267z"/>
			<path d="M34.115,75.542c0.042-0.289-0.231-0.264-0.371-0.371c-0.104,0.182-0.282,0.541-0.556,0.279c0.1,0.23-0.282,0.438,0,0.551
				C33.374,75.636,33.737,75.827,34.115,75.542z M34.764,73.688c0.332,1.178-0.275,2.98-2.224,2.873
				c-0.035-0.346,0.232-0.389,0.463-0.465c-0.073-0.172-0.12-0.377-0.277-0.461c0.42-0.381,1.011-1.152,1.76-1.113
				C34.717,74.384,34.602,73.899,34.764,73.688z"/>
			<path d="M31.428,172.823c-0.548,0.008-0.845,0.418-1.289,0.688C30.475,173.206,30.502,172.558,31.428,172.823z"/>
			<path d="M31.428,172.829c0.939,1.787-2.733,2.945-3.451,3.137c-0.896,0.252-1.849-0.186-3.201-0.369
				c1.077,0.119,2.104,0.32,3.224,0.008c0.718-0.193,1.471-0.727,2.131-1.111C30.771,174.126,31.49,173.603,31.428,172.829z"/>
			<path d="M29.853,173.661c-1.799,0.711-3.995,0.588-6.208,0.275C25.858,174.249,27.738,174.036,29.853,173.661z"/>
			<path d="M35.69,175.7c0.174,2.633,0.591,5.084,0.742,7.133c-0.039,0.381,0.197,0.484,0.371,0.646
				c-0.078,2.27,0.398,5.535,0.529,8.203c0.012,0.301,0.023,0.596,0.027,0.875c-0.707,0.936-2.174,0.939-3.521,1.113
				c-1.425,0.182-2.884,0.592-4.263,0.561c-2.135-0.055-3.81-0.949-5.096-1.949c-0.058-5.525-1.039-10.742-1.104-16.088
				c0.108,5.328,1.552,10.32,1.609,15.848c14.334,6.559,10.385-8.598,10.423-8.977c-0.054-0.744-0.421-12.535-0.86-27.973h0.058
				c0.011,0.514,0.031,1.016,0.066,1.521c0.062,0.902,0.417,1.795,0.463,2.686c0.07,1.26-0.115,2.486,0,3.707
				c0.043,0.428,0.247,0.861,0.278,1.297c0.073,1.031-0.289,2.348,0.186,2.965C35.293,169.489,35.528,173.253,35.69,175.7z"/>
			<path fill="#8E6008" d="M28.162,171.249c0.221,0.236,0.004,0.549,0,0.838c0.494-0.246-2.926,3.451-4.313-0.285
				c-0.131-0.074-0.254-0.158-0.366-0.248c-0.012-0.316-0.027-0.664-0.043-1.031c0.089,0.059,0.178,0.107,0.275,0.16
				c0.035-0.117,0.088-0.217,0.185-0.264c0.684,0.451,1.656,0.941,2.733,1.023c0.298-0.023,0.599-0.09,0.904-0.193
				c0.043,0.047,0.066,0.094,0.081,0.139C27.799,171.36,27.981,171.312,28.162,171.249z"/>
			<path d="M22.997,171.063c0.07-0.238,0.074-0.541,0.278-0.645c0.054,0.033,0.108,0.068,0.166,0.104
				c0.016,0.367,0.031,0.715,0.043,1.031C23.29,171.407,23.124,171.241,22.997,171.063z"/>
			<path d="M22.348,76.376c0.382-0.023,0.664-0.139,0.742-0.465c0.212,0.063,0.474,0.082,0.648,0.186
				c-0.135,0.271-0.362-0.127-0.648,0c-0.012,0.162,0.111,0.193,0.092,0.367c0.726,0.012,0.696,0.107,1.205,0.375
				c0.205-0.043,0.124-0.549-0.185-0.375c0.073-0.076,0.101-0.209,0.093-0.367c0.363,0.082,0.618,0.41,0.463,0.742
				c0.483,0.217,0.653-0.414,1.205-0.092c0.297-0.014,0.205-0.418,0.371-0.561c0.336-0.023,0.212,0.41,0.371,0.561
				c0.15-0.133,0.1-0.461,0.278-0.561c0.439,0.166,0.413-0.051,0.833-0.09c0.039,0.148,0.29,0.076,0.186,0.367
				c0.684-0.066,1.069,0.141,1.205-0.463c0.162,0.027,0.212,0.162,0.185,0.375c0.301-0.303,1.371-0.672,1.761-0.279
				c0.34-0.539,0.722-0.043,1.205-0.555c0.003,0.215-0.159,0.273-0.093,0.555c-0.861,0.549-2.633,0.375-3.892,0.928
				c-0.76,0.008-1.818,0.195-2.783,0.195c-0.776,0-1.494-0.119-1.942-0.57C23.448,77.147,22.395,76.866,22.348,76.376z"/>
			<path fill="#8E6008" d="M21.221,73.423c-0.513-3.244-0.726-13.721-0.096-15.246c0.575-1.395,2.749-2.34,4.632-2.51
				c2.927-0.266,5.162,0.625,6.466,2.123c0.34,3.139,0.386,13.092,0.386,15.246C31.081,73.993,22.896,73.772,21.221,73.423z"/>
			<path d="M20.68,91.567c-0.011-1.395,0.208-2.766,0.186-4.166c-0.058-3.248-0.988-6.721-0.656-10.195
				c0.003-0.031,0.003-0.059,0.007-0.09c1.642,0.291,3.49,0.463,5.359,0.514c2.721,0.074,5.481-0.135,7.705-0.703
				c0.074,0.023,0.093,0.098,0.186,0.098c-0.591,2.078-0.077,4.25-0.186,6.578c-0.027,0.541-0.058,1.084-0.088,1.625
				c-0.112,2.004-0.232,4.035-0.097,6.064c0.173,2.551,0.05,5.072,0.008,7.652c-0.259-11.918-0.371-20.4-0.205-20.982
				c-0.093,0-0.506-0.078-0.58-0.102c-3.752,0.955-7.157,1.002-11.195,0.291c-0.313,3.096,1.61,75.648,2.316,92.371
				c-0.058-0.035-0.112-0.07-0.166-0.104c-0.204,0.104-0.208,0.406-0.278,0.645c0.127,0.178,0.293,0.344,0.487,0.49
				c0.065,1.469,0.124,2.309,0.158,2.379c-0.371-0.24-0.24-0.984-0.645-1.197c-0.926-9.934-0.664-20.029-1.111-29.561
				c-0.541-11.447-0.799-22.406-0.834-33.264c-0.015-4.641,0.07-9.203-0.185-13.805C20.781,94.601,20.696,93.056,20.68,91.567z"/>
			<path d="M33.652,84.339c0.011-0.373-0.027-0.709-0.185-0.922C33.358,83.595,33.366,84.271,33.652,84.339z M32.54,76.562
				c1.949,0.107,2.556-1.695,2.224-2.873c-0.163,0.211-0.047,0.695-0.279,0.834c-0.749-0.039-1.339,0.732-1.76,1.113
				c0.158,0.084,0.205,0.289,0.277,0.461C32.772,76.173,32.505,76.216,32.54,76.562z M38.748,76.747
				c0.02-0.477-0.849-0.461-1.015-0.283c0.104,0.023,0.096,0.146,0.089,0.283C38.334,76.556,38.184,76.597,38.748,76.747z
				 M35.32,74.243c0.263,0.73,2.112,1.367,2.965,1.758c0.675,0.313,1.846,0.811,3.32,1.416l-0.065,0.162
				c-0.618-0.227-1.525-0.289-1.958-0.652c0.197,0.541-0.439,0.244-0.463,0.561c0.382,0.416,1.251,0.355,1.575,0.832
				c0.247-0.369,0.788-0.459,1.02,0c-0.093,0-0.112,0.074-0.186,0.094c-0.135-0.301-0.208-0.23-0.556-0.188
				c0.17,0.176,0.336,0.354,0.572,0.475l-0.104,0.242c-0.969-0.408-1.931-0.861-2.876-1.367c-1.71-0.914-3.231-2.018-4.633-0.736
				c-0.003,0.316,0.085,3.428,0.24,8.428l-0.409,0.016c0-0.105-0.023-0.182-0.108-0.197c-0.042,0.043-0.069,0.1-0.081,0.166
				l-0.378-0.023c0.031-0.541,0.061-1.084,0.088-1.625c0.108-2.328-0.406-4.5,0.186-6.578c-0.093,0-0.112-0.074-0.186-0.098
				c-2.224,0.568-4.984,0.777-7.705,0.703l0.011-0.41c0.965,0,2.023-0.188,2.783-0.195c1.259-0.553,3.031-0.379,3.892-0.928
				c-0.066-0.281,0.096-0.34,0.093-0.555c-0.483,0.512-0.865,0.016-1.205,0.555c-0.39-0.393-1.46-0.023-1.761,0.279
				c0.027-0.213-0.023-0.348-0.185-0.375l-0.027-0.588c1.899-0.107,3.142-0.49,4.382-1.266c0-0.83,0-1.662,0-2.502
				c-0.549-1.096-0.395-2.146-0.371-3.613c0.061-3.83,0.223-7.443-0.186-11.207c-1.305-1.498-4.485-1.846-7.412-1.574
				c-1.884,0.174-4.707,1.012-5.282,2.404c-0.178,0.424-0.247,0.92-0.262,1.436l-0.657-0.004c0.008-0.443,0.008-0.895-0.007-1.336
				c1.934-6.432,19.693-8.361,14.917,8.154c-0.467,1.609-0.463,3.398-0.093,4.91c0.127,0.521,0.761,0.98,0.927,1.576
				C35.305,72.997,35.13,73.72,35.32,74.243z M36.987,75.722c-0.598,0.24-0.795-0.334-1.39-0.369
				c0.058,0.684,1.104,0.764,1.482,0.559C37.006,75.892,36.972,75.831,36.987,75.722z"/>
			<path d="M23.09,75.911c-0.078,0.326-0.359,0.441-0.742,0.465c0.047,0.49,1.1,0.771,1.297,0.273
				c0.448,0.451,1.166,0.57,1.942,0.57l-0.011,0.41c-1.869-0.051-3.718-0.223-5.359-0.514c-0.004,0.031-0.004,0.059-0.007,0.09
				l-0.224-0.021c0.015-0.053,0.031-0.111,0.047-0.16c-0.232-0.02-0.448-0.02-0.464,0.186l-1.05,0.076
				c-0.354-0.539-0.513-0.768-0.895-1.285c-0.213-1.779-1-4.836,1.482-4.906c-0.587-3.912,0.216-8.084,0.286-12.008l0.657,0.004
				c-0.042,1.352,0.305,2.908,0.262,4.129c-0.131,3.666-0.698,7.963-0.186,11.205c1.676,0.352,3.664,1.201,5.652,1.211
				c0.598,0.002,1.277-0.191,1.946-0.186c0.524,0.002,1.007-0.014,1.455-0.037l0.027,0.588c-0.135,0.604-0.521,0.396-1.205,0.463
				c0.104-0.291-0.146-0.219-0.186-0.367c-0.42,0.039-0.394,0.256-0.833,0.09c-0.178,0.1-0.127,0.428-0.278,0.561
				c-0.159-0.15-0.035-0.584-0.371-0.561c-0.166,0.143-0.074,0.547-0.371,0.561c-0.552-0.322-0.722,0.309-1.205,0.092
				c0.155-0.332-0.1-0.66-0.463-0.742c0.008,0.158-0.02,0.291-0.093,0.367c0.309-0.174,0.39,0.332,0.185,0.375
				c-0.509-0.268-0.479-0.363-1.205-0.375c0.019-0.174-0.104-0.205-0.092-0.367c0.286-0.127,0.513,0.271,0.648,0
				C23.564,75.993,23.302,75.974,23.09,75.911z"/>
			<path d="M21.221,73.423c1.675,0.35,9.86,0.57,11.389-0.387c0-2.154-0.046-12.107-0.386-15.246
				c-1.304-1.498-3.54-2.389-6.466-2.123c-1.883,0.17-4.058,1.115-4.632,2.51C20.495,59.702,20.708,70.179,21.221,73.423z
				 M25.776,75.636c-1.988-0.01-3.977-0.859-5.652-1.211c-0.513-3.242,0.054-7.539,0.186-11.205
				c0.042-1.221-0.305-2.777-0.262-4.129c0.015-0.516,0.084-1.012,0.262-1.436c0.575-1.393,3.397-2.23,5.282-2.404
				c2.926-0.271,6.107,0.076,7.412,1.574c0.409,3.764,0.247,7.377,0.186,11.207c-0.024,1.467-0.178,2.518,0.371,3.613
				c0,0.84,0,1.672,0,2.502c-1.24,0.775-2.482,1.158-4.382,1.266c-0.448,0.023-0.931,0.039-1.455,0.037
				C27.054,75.444,26.375,75.638,25.776,75.636z"/>
			<path d="M19.568,77.21c0.016-0.205,0.232-0.205,0.464-0.186c-0.016,0.049-0.032,0.107-0.047,0.16
				c-0.054,0.156-0.139,0.279-0.324,0.303C19.669,77.353,19.676,77.22,19.568,77.21z"/>
			<path d="M37.822,192.933c-3.162,2.943-11.176,3.387-14.269,0.188c-2.459-1.688-4.887-110.521-5.035-115.834l1.05-0.076
				c0.108,0.01,0.101,0.143,0.093,0.277c0.185-0.023,0.27-0.146,0.324-0.303l0.224,0.021c-0.332,3.475,0.599,6.947,0.656,10.195
				c0.023,1.4-0.197,2.771-0.186,4.166c0.016,1.488,0.101,3.033,0.186,4.539c0.255,4.602,0.17,9.164,0.185,13.805
				c0.035,10.857,0.293,21.816,0.834,33.264c0.447,9.531,0.185,19.627,1.111,29.561c0.405,0.213,0.274,0.957,0.645,1.197
				c0.004,0,0.004,0.004,0.004,0.004c2.212,0.313,4.409,0.436,6.208-0.275c0.12-0.023,0.212-0.072,0.286-0.15
				c0.444-0.27,0.741-0.68,1.289-0.688v0.006c0.063,0.773-0.656,1.297-1.296,1.664c-0.66,0.385-1.413,0.918-2.131,1.111
				c-1.12,0.313-2.147,0.111-3.224-0.008c-0.026-0.004-0.054-0.016-0.084-0.016c-0.228-0.023-0.456-0.047-0.687-0.059
				c-0.205-0.016-0.417-0.02-0.637-0.008c0,0.225,0,0.443,0.008,0.664c0,0.004,0,0.012,0,0.016
				c0.065,5.346,1.046,10.563,1.104,16.088c1.286,1,2.961,1.895,5.096,1.949c1.379,0.031,2.838-0.379,4.263-0.561
				c1.347-0.174,2.814-0.178,3.521-1.113c-0.004-0.279-0.016-0.574-0.027-0.875l0.428-0.023
				C37.787,192.302,37.81,192.733,37.822,192.933z"/>
		</g>
		<g>
			<path fill="none" stroke="#000000" stroke-width="1.5442" stroke-linecap="round" stroke-linejoin="round" d="M79.539,103.265
				c0.208,0.225,1.008,0.139,1.618,0.111c1.876-0.088,4.261,0.016,6.574-0.131c0.004,0.035,0.008,0.07,0.008,0.102
				c-0.139,0.623-0.309,1.047-0.352,1.488"/>
			<path fill="none" stroke="#000000" stroke-width="1.5442" stroke-linecap="round" stroke-linejoin="round" d="M78.956,103.241
				c0.162,0.008,0.355,0.016,0.579,0.023"/>
			<path fill="none" stroke="#000000" stroke-width="1.5442" stroke-linecap="round" stroke-linejoin="round" d="M79.191,103.325
				c-0.301-0.01-0.614-0.035-0.946-0.049"/>
			<path fill="none" stroke="#000000" stroke-width="1.5442" stroke-linecap="round" stroke-linejoin="round" d="M67.96,102.083
				c3.282,1.34,7.93,1.391,11.277,1.336c-0.027-0.039-0.058-0.072-0.046-0.094"/>
			<path fill="none" stroke="#000000" stroke-width="1.5442" stroke-linecap="round" stroke-linejoin="round" d="M67.96,102.083
				c-0.003,0.592,0.194,1.4,0.24,2.047c6.197,1.492,12.253,1.898,19.187,0.705"/>
			<path fill="none" stroke="#000000" stroke-width="1.5442" stroke-linecap="round" stroke-linejoin="round" d="M79.423,103.333
				c-0.077,0-0.154-0.008-0.231-0.008C79.199,103.298,79.261,103.298,79.423,103.333z"/>
			<path fill="none" stroke="#000000" stroke-width="1.5442" stroke-linecap="round" stroke-linejoin="round" d="M78.956,103.241
				c-0.24,0.008-0.475,0.023-0.71,0.035c-0.003,0-0.011,0-0.015,0"/>
			<path fill="none" stroke="#000000" stroke-width="0.193" stroke-linecap="round" stroke-linejoin="round" d="M27.31,92.261
				c-0.981,0.332-2.502,0.375-3.521,0.094c-0.556-0.154-0.726-0.652-1.482-0.648c-0.324,0.258-0.352,1.107-0.186,1.574
				c2.668,0.563,6.394,0.469,6.949-1.297C28.695,91.702,27.656,92.142,27.31,92.261z"/>
			<path fill="none" stroke="#000000" stroke-width="0.193" stroke-linecap="round" stroke-linejoin="round" d="M226.92,115.536
				c-0.062,0.402,0.456,2.135-2.316,2.127c-1.745-0.01-3.165-0.352-3.243-2.033c0.475-0.447,3.567,0.559,4.355,0.645
				C226.187,116.097,226.249,115.515,226.92,115.536z"/>
			<path fill="none" stroke="#000000" stroke-width="1.5442" stroke-linecap="round" stroke-linejoin="round" d="M86.218,121.188
				c0.062,0,0.124,0,0.185,0c0.405,0.447,0.688,3.193,0.742,4.078c0.208,3.307-0.795,6.738-2.501,9.26
				c-5.652,8.344-13.478,1.703-14.084,1.117c-0.405-0.398-1.375-1.916-1.668-2.506c-1.455-2.945-2.436-7.254-1.945-10.836
				C68.428,122.216,82.724,120.927,86.218,121.188z"/>
			<path fill="none" stroke="#000000" stroke-width="1.1582" stroke-linecap="round" stroke-linejoin="round" d="M143.632,122.704
				c1.378-1.504,2.201-4.609,1.575-7.229c-2.98-0.104-5.05-0.143-7.412,0.74c0.058,2.914-0.112,5.926,2.223,7.039
				C141.397,123.919,142.76,123.644,143.632,122.704z"/>
			<path fill="none" stroke="#000000" stroke-width="0.7721" stroke-linecap="round" stroke-linejoin="round" d="M65.653,105.87
				c0.413-0.146,0.775-0.408,0.983-0.693c0.95-2.797-4.397-2.133-2.593,0.461c0.428,0.391,0.992,0.422,1.498,0.271
				c0.004,0,0.007,0,0.011-0.004c0.016-0.004,0.031-0.008,0.05-0.016C65.618,105.882,65.637,105.878,65.653,105.87z"/>
			<path fill="none" stroke="#000000" stroke-width="0.7721" stroke-linecap="round" stroke-linejoin="round" d="M89.785,108.063
				c1.776,0.096,2.313-3.031-0.092-2.779C87.9,105.7,88.252,107.974,89.785,108.063z"/>
		</g>
	</g>
</g>
</svg>
