<?xml version="1.0" encoding="utf-8"?>
<!-- Generator: Adobe Illustrator 16.0.0, SVG Export Plug-In . SVG Version: 6.00 Build 0)  -->
<!DOCTYPE svg PUBLIC "-//W3C//DTD SVG 1.1//EN" "http://www.w3.org/Graphics/SVG/1.1/DTD/svg11.dtd">
<svg version="1.1" id="Calque_1" xmlns="http://www.w3.org/2000/svg" xmlns:xlink="http://www.w3.org/1999/xlink" x="0px" y="0px"
	 width="250px" height="250px" viewBox="0 0 250 250" enable-background="new 0 0 250 250" xml:space="preserve">
<g>
	<g>
		<path fill="#FFFFFF" stroke="#000000" stroke-width="2.544" stroke-miterlimit="10" d="M61.186,100.186
			c0,0,0.695,9.215,0.346,12.176c-0.346,2.955-3.478,7.478-3.478,7.478s26.959,8.871,42.96,6.263
			c16.005-2.609,46.095-13.218,50.442-14.955c4.349-1.744,10.515-3.613,11.907-4.14c1.391-0.521,3.695,1.231,3.695,1.231
			l-7.131-12.698c0,0-0.35-2.59-0.697-8.156c-0.347-5.566-1.168-14.506-1.168-14.506L82.23,87.488L61.186,100.186z"/>
		<path fill="#C7C6C7" d="M155.654,32.697c-5.375,0-10.309,2-14.184,5.336c-8.431-8.875-22.834-14.73-39.195-14.73
			c-21.781,0-40.102,10.375-45.458,24.453c-10.147,0.49,14.57,50.246,16.691,51.717c1.985,0.879,4.506,1.406,7.254,1.406
			c5.564,0,10.205-2.158,11.314-5.029c1.011,2.095,3.05,3.531,5.405,3.531c3.165,0,5.764-2.59,6.059-5.896
			c3.858,4.225,9.369,6.871,15.486,6.871c9.495,0,17.523-6.356,20.189-15.11c2.106,0.65,4.456,1.025,6.947,1.025
			c6.616,0,9.657-1.881,12.13-5.551C156,70.002,168.117,32.697,155.654,32.697z"/>
		<path fill="#FFFFFF" stroke="#000000" stroke-width="2.544" stroke-miterlimit="10" d="M179.189,53.313
			c0-13.252-10.105-23.998-22.569-23.998c-5.375,0-10.312,2.002-14.185,5.336c-8.432-8.877-22.833-14.727-39.193-14.727
			c-21.785,0-40.104,10.373-45.458,24.451c-10.15,0.49-18.246,10.258-18.246,22.238c0,5.256,1.559,10.082,4.163,13.887
			c-1.057,2.104-1.663,4.438-1.663,6.908c0,9.029,7.866,16.35,17.568,16.35c6.271,0,11.759-3.068,14.869-7.67
			c1.982,0.883,4.504,1.408,7.254,1.408c5.564,0,10.206-2.156,11.313-5.025C94.054,94.565,96.092,96,98.448,96
			c3.165,0,5.763-2.592,6.06-5.896c3.857,4.223,9.369,6.871,15.487,6.871c9.491,0,17.519-6.357,20.188-15.113
			c2.104,0.65,4.453,1.025,6.944,1.025c6.616,0,12.295-2.572,14.767-6.242C171.813,74.117,179.189,64.631,179.189,53.313z"/>
		<path fill="#DADADA" stroke="#000000" stroke-width="2.544" stroke-miterlimit="10" d="M155.966,33.568
			c-5.846,0-11.142,2.344-15.007,6.139c-2.309-4.592-8.417-7.879-15.614-7.879c-8.737,0-15.883,4.842-16.544,10.986
			c2.219-3.461,5.502-5.66,9.177-5.66c5.529,0,10.181,4.973,11.62,11.754c2.379-2.129,5.338-3.406,8.555-3.406
			c6.425,0,11.843,5.037,13.582,11.938c0.375,0.953,0.716,1.934,0.943,2.848c0.869,3.479,1.043,6.609,1.043,6.609
			s4.696-4.004,6.088-6.609c0.719-1.344,1.428-3.967,1.959-6.207c1.154,3.008,1.867,7.014,1.867,11.426
			c0,3.703-0.503,7.117-1.35,9.9c8.738-2.695,15.09-10.83,15.09-20.447C177.373,43.146,167.787,33.568,155.966,33.568z"/>
	</g>
	<g id="mütze_1_">
		<g id="XMLID_25_">
			<g>
				<path fill="#282A5E" d="M212.963,125.029c0,0,22.23,5.461,15.518,14.891c-6.711,9.441-34.605,22.652-48.449,24.127
					c-13.842,1.469-50.064,1.07-55.792-0.838c-2.514-0.844-7.128-5.242-7.128-5.242s39.222-25.594,55.788-28.32
					C189.466,126.92,212.963,125.029,212.963,125.029z"/>
				<path fill="#282A5E" d="M156.141,88.369c2.916-0.891,8.225-1.25,10.887-1.09c3.35,0.211,16.57,8.176,17.619,9.441
					c1.051,1.252,17.824,5.449,19.504,5.449c1.682,0,3.562,3.781,4.41,4.406c0.834,0.629,2.096,1.252,3.769,0.629
					c1.681-0.629,3.778,2.305,3.778,2.305l-5.451,8.601c0,0-33.354,5.457-43.629,8.396c-10.272,2.931-53.909,24.957-53.909,24.957
					s-3.974-2.312-6.494-1.683c-2.514,0.638-4.198-0.629-6.088-4.612c-1.891-3.979,2.938-9.644,6.088-13.631
					c3.145-3.99,6.494-7.134,9.641-9.022c3.151-1.892,3.569-5.453,6.089-10.482c2.513-5.041,13.001-14.268,18.035-19.303
					c5.029-5.029,15.737-4.406,15.737-4.406L156.141,88.369z"/>
				<path fill="#F9B334" d="M210.656,118.109l2.307,6.92c0,0-23.497,1.891-40.064,4.617c-16.565,2.727-55.788,28.319-55.788,28.319
					l-3.994-6.504c0,0,43.631-22.026,53.91-24.957C177.303,123.566,210.656,118.109,210.656,118.109z"/>
			</g>
			<g>
				<path fill="none" stroke="#000000" stroke-width="2.6876" stroke-miterlimit="10" d="M212.963,125.029l-2.307-6.92
					c0,0-33.354,5.457-43.629,8.396c-10.277,2.931-53.909,24.957-53.909,24.957l3.994,6.504c0,0,39.222-25.594,55.787-28.319
					C189.466,126.92,212.963,125.029,212.963,125.029s22.23,5.461,15.518,14.891c-6.711,9.441-34.605,22.652-48.449,24.127
					c-13.842,1.469-50.064,1.07-55.792-0.838c-2.514-0.844-7.128-5.242-7.128-5.242"/>
				<path fill="none" stroke="#000000" stroke-width="2.6876" stroke-miterlimit="10" d="M210.656,118.109l5.451-8.601
					c0,0-2.098-2.934-3.778-2.305c-1.673,0.623-2.937,0-3.769-0.629c-0.849-0.625-2.728-4.406-4.41-4.406
					c-1.682,0-18.453-4.196-19.508-5.449c-1.045-1.266-14.267-9.23-17.619-9.441c-2.66-0.16-7.967,0.199-10.883,1.09
					c-0.758,0.229-1.358,0.492-1.701,0.803c-1.68,1.459-2.933,2.094-2.933,2.094"/>
				<path fill="none" stroke="#000000" stroke-width="2.6876" stroke-miterlimit="10" d="M156.126,88.322
					c0,0-10.708-0.623-15.737,4.406c-5.033,5.036-15.521,14.262-18.038,19.303c-2.517,5.029-2.938,8.592-6.088,10.482
					c-3.145,1.891-6.494,5.032-9.639,9.021c-3.15,3.989-7.979,9.651-6.088,13.633c1.891,3.983,3.575,5.25,6.088,4.612
					c2.516-0.629,6.494,1.683,6.494,1.683"/>
			</g>
		</g>
		<path fill="#F9B334" d="M186.715,96.547l-16.791,4.424c-1.648-1.643-4.043-2.41-6.395-1.789c-2.48,0.652-4.25,2.67-4.781,5.088
			l-16.375,4.316l-2.561,0.994l3.635,1.432c0,0,1.898-0.609,3.732-0.656c1.832-0.049,1.725,1.605,1.725,1.605
			s2.947-2.402,4.293-2.646c1.346-0.246,1.936,2.416,1.936,2.416s0.995-1.992,2.139-2.184c0.703-0.121,2.33,0.723,3.463,1.381
			c1.647,1.617,4.021,2.357,6.35,1.744c2.438-0.641,4.188-2.598,4.75-4.957c0.667-1.139,1.695-2.744,2.384-2.994
			c1.095-0.398,2.941,0.855,2.941,0.855s-0.798-2.611,0.493-3.059c1.293-0.451,5.045,0.188,5.045,0.188s-0.912-1.388,0.707-2.25
			c1.617-0.858,3.572-1.263,3.572-1.263l2.457-3.032L186.715,96.547z"/>
	</g>
	<g id="hammer_1_">
		<path fill="#3BA9E0" stroke="#000000" stroke-width="2.6125" stroke-miterlimit="10" d="M54.667,138.305
			c0,0-4.558-2.434-7.239-0.162c-2.687,2.271-5.752,5.877-5.252,7.957c0.506,2.072,0.389,4.973,0.389,4.973
			s-3.113,3.552-4.478,5.544c-1.363,1.993-3.198,4.969-3.198,4.969s-5.164,1.115-8.054-1.131c-2.894-2.246-5.247-3.509-6.03-5.276
			c-0.785-1.767-0.497-4.601-0.497-4.601l7.698-9.853c0,0,3.856-0.065,4.748-1.084c0.887-1.01,3.07-2.84,2.586-4.649
			c-0.484-1.806-0.215-3.392-1.458-4.412c-1.241-1.021-2.59-1.279-2.59-1.279s3.392-13.194,10.168-18.543
			c6.78-5.353,10.677-7.131,10.677-7.131s9.056-6.693,9.126-6.871c0.07-0.172,3.725,4.192,3.725,4.192L51.31,113.652l15.399-10.873
			l2.999,3.375c0,0-5.262,2.889-7.974,5.627c-2.71,2.744-5.97,4.627-6.58,6.961c-0.613,2.334,0.16,5.682,1.56,6.896
			c1.399,1.225,4.283,2.385,4.283,2.385"/>
		<path fill="#946137" stroke="#000000" stroke-width="2.6125" stroke-miterlimit="10" d="M60.717,127.922l87.77,32.811
			c0,0,0.935,5.101-1.154,7.945c-2.089,2.844-6.083,5.398-6.083,5.398l-86.583-35.771c0,0-0.133-4.234,1.32-6.182
			C57.443,130.174,60.717,127.922,60.717,127.922z"/>
		<path fill="none" stroke="#000000" stroke-width="2.6125" stroke-miterlimit="10" d="M28.005,140.725c0,0,2.363,5.178,5.557,7.262
			c3.193,2.091,5.16,2.92,6.634,3.064c1.474,0.145,2.369,0.021,2.369,0.021"/>
		<path fill="#7E4F25" d="M57.138,134.328l87.053,35.406c0,0-1.957,2.076-2.75,2.445c-0.793,0.364-85.153-34.523-85.153-34.523
			s0.026-1.479,0.24-2.121C56.749,134.9,57.138,134.328,57.138,134.328z"/>
	</g>
</g>
<g>
	<path d="M34.073,224.846v-40.854h20.119c4.021,0,7.076,0.995,9.168,2.983c2.091,1.99,3.138,4.707,3.138,8.152
		c0,1.765-0.472,3.334-1.415,4.707c-0.944,1.375-2.133,2.349-3.569,2.923c0.861,0.329,1.671,0.749,2.43,1.262
		c0.759,0.514,1.415,1.169,1.969,1.969c0.553,0.8,0.994,1.744,1.323,2.83c0.328,1.088,0.491,2.37,0.491,3.845
		c0,3.733-1.251,6.698-3.752,8.892c-2.503,2.194-6.338,3.292-11.506,3.292H34.073z M42.318,191.066v8.86h10.768
		c3.445,0,5.168-1.478,5.168-4.43c0-1.559-0.441-2.687-1.323-3.385c-0.883-0.696-2.329-1.046-4.338-1.046H42.318z M53.147,217.893
		c1.969,0,3.507-0.555,4.615-1.66c1.107-1.108,1.661-2.502,1.661-4.185c0-1.805-0.544-3.116-1.63-3.938
		c-1.087-0.82-2.595-1.23-4.522-1.23H42.318v11.013H53.147z"/>
	<path d="M81.074,211.802c0.123,2.298,0.789,4.123,1.999,5.476c1.209,1.354,2.799,2.03,4.769,2.03c1.313,0,2.471-0.297,3.476-0.892
		c1.004-0.595,1.651-1.425,1.938-2.491h8.245c-0.945,3.116-2.584,5.517-4.922,7.198c-2.339,1.683-5.128,2.522-8.368,2.522
		c-10.091,0-15.136-5.496-15.136-16.489c0-2.339,0.328-4.45,0.984-6.338c0.656-1.887,1.61-3.507,2.861-4.861
		c1.251-1.353,2.778-2.388,4.584-3.106c1.805-0.718,3.876-1.076,6.215-1.076c4.675,0,8.214,1.497,10.613,4.492
		c2.4,2.993,3.6,7.505,3.6,13.535H81.074z M93.687,206.757c-0.042-1.108-0.237-2.082-0.584-2.923
		c-0.349-0.84-0.81-1.539-1.385-2.093c-0.575-0.553-1.23-0.963-1.969-1.23c-0.738-0.267-1.498-0.399-2.276-0.399
		c-1.6,0-2.984,0.584-4.153,1.753c-1.169,1.17-1.836,2.8-2,4.893H93.687z"/>
	<path d="M108.619,224.846v-30.271h7.507v3.602c0.656-1.031,1.343-1.839,2.061-2.418c0.717-0.578,1.455-1.022,2.215-1.333
		c0.758-0.308,1.527-0.505,2.307-0.589c0.779-0.082,1.579-0.124,2.4-0.124h1.045v8.245c-0.737-0.123-1.476-0.185-2.215-0.185
		c-4.881,0-7.322,2.441-7.322,7.321v15.752H108.619z"/>
	<path d="M151.626,224.846v-4.245c-2.052,3.363-5.188,5.045-9.414,5.045c-1.518,0-2.901-0.267-4.152-0.8
		c-1.252-0.533-2.329-1.293-3.231-2.277s-1.608-2.152-2.122-3.507s-0.769-2.87-0.769-4.554v-19.934h7.998v18.704
		c0,3.773,1.702,5.66,5.106,5.66c2.052,0,3.601-0.646,4.646-1.938c1.046-1.291,1.568-2.942,1.568-4.952v-17.474h7.938v30.271
		H151.626z"/>
	<path d="M169.438,224.846v-24.611h-4.491v-5.66h4.491c0-7.384,4.309-11.075,12.922-11.075v6.46c-1.027,0-1.856,0.072-2.492,0.216
		c-0.637,0.144-1.139,0.4-1.508,0.769c-0.368,0.369-0.626,0.853-0.77,1.446c-0.145,0.595-0.215,1.322-0.215,2.185h5.168v5.66h-5.168
		v24.611H169.438z"/>
	<path d="M195.07,211.802c0.122,2.298,0.788,4.123,1.999,5.476c1.209,1.354,2.8,2.03,4.769,2.03c1.313,0,2.471-0.297,3.476-0.892
		c1.004-0.595,1.651-1.425,1.938-2.491h8.245c-0.944,3.116-2.584,5.517-4.921,7.198c-2.339,1.683-5.128,2.522-8.369,2.522
		c-10.09,0-15.136-5.496-15.136-16.489c0-2.339,0.329-4.45,0.985-6.338c0.655-1.887,1.608-3.507,2.861-4.861
		c1.25-1.353,2.778-2.388,4.584-3.106c1.804-0.718,3.875-1.076,6.214-1.076c4.675,0,8.213,1.497,10.612,4.492
		c2.4,2.993,3.6,7.505,3.6,13.535H195.07z M207.684,206.757c-0.043-1.108-0.237-2.082-0.585-2.923
		c-0.35-0.84-0.811-1.539-1.384-2.093c-0.575-0.553-1.23-0.963-1.971-1.23c-0.738-0.267-1.497-0.399-2.275-0.399
		c-1.6,0-2.984,0.584-4.154,1.753c-1.168,1.17-1.835,2.8-1.999,4.893H207.684z"/>
</g>
</svg>
