<?xml version="1.0" encoding="utf-8"?>
<!-- Generator: Adobe Illustrator 16.0.0, SVG Export Plug-In . SVG Version: 6.00 Build 0)  -->
<!DOCTYPE svg PUBLIC "-//W3C//DTD SVG 1.1//EN" "http://www.w3.org/Graphics/SVG/1.1/DTD/svg11.dtd">
<svg version="1.1" id="Calque_1" xmlns="http://www.w3.org/2000/svg" xmlns:xlink="http://www.w3.org/1999/xlink" x="0px" y="0px"
	 width="250px" height="250px" viewBox="0 0 250 250" enable-background="new 0 0 250 250" xml:space="preserve">
<g>
	<path d="M246.011,95.182c0.352-7.606-1.759-12.349-6.804-14.679c1.813-3.374,0.629-8.99-0.84-12.592
		c-1.914-4.688-7.24-5.405-8.919-5.561c-2.526-0.235-5.209,0.612-7.555,1.469c-0.272-3.047,0.635-5.624-0.84-7.66
		c-0.588-0.81-5.363-6.506-10.809-6.992c-4.235-0.378-9.055,0.223-12.285,1.994c-3.384,1.854-5.209,3.521-6.941,6.644
		c-0.597-1.083-1.955-1.642-2.627-2.313c2.295-1.12,8.129-4.146,8.633-4.789c0.5-0.634,2.238-2.879,2.623-3.567
		c0.681-1.209,1.453-3.01,1.47-4.932c0.017-2.187-0.462-5.633-1.47-7.24c-1.203-1.918-5.246-9.129-13.978-6.871
		c1.979-13.511-7.79-16.979-16.724-20.247c-1.203,0.319-2.273-0.429-3.424-0.604c-6.389-0.991-13.38,0.491-17.932,2.518
		c-1.922,0.854-4.112,1.709-5.54,2.721c-0.874,0.616-1.637,1.737-2.52,2.518c-0.959,0.856-1.829,1.629-2.518,2.52
		c-1.549,2.006-2.094,4.465-3.123,6.95c-0.461,0.251-0.701-0.412-0.906-0.604c-2.082-1.969-4.805-3.74-8.26-4.433
		c-4.037-0.81-9.032-0.457-12.39,1.41c-0.894,0.5-1.876,1.419-2.921,2.115c-1.066,0.71-2.07,1.373-2.72,2.216
		c-0.449,0.584-0.621,1.272-1.007,1.914c-0.437,0.719-1.205,1.222-1.612,2.016c-1.364,2.656-1.209,5.703-0.906,9.771
		c-6.099-1.192-12.86-0.579-17.024,2.115c-2.43,1.57-4.478,5.23-5.238,8.664c-1.07,4.817,0.088,10.622,2.417,13.9
		c-3.076,0.768-6.367,3.32-7.656,6.246c-1.645,3.73,0.895,7.865,3.728,9.368c-3.883,3.122-6.598,7.151-6.145,14.202
		c0.395,6.141,4.059,9.775,8.059,12.189c-0.386,1.192-1.562,1.595-1.41,3.324c-4.126,5.699-3.941,16.201-1.712,23.271
		c1.612,5.111,4.432,9.568,8.159,12.994c1.327,1.217,2.456,2.531,3.728,3.324c2.149,1.348,4.886,2.543,7.555,3.727
		c4.843,2.148,12.109,4.346,18.938,2.419c2.888-0.813,4.814-2.732,6.749-4.533c2.846,2.896,6.195,5.289,11.182,6.044
		c-0.066,7.436,0.302,13.868-0.705,19.846c-0.961,5.703-3.043,10.848-4.936,15.613c-3.441,8.678-7.072,16.742-12.291,23.672
		c-1.167,1.551-2.573,2.936-3.425,4.938c-0.335,0.215-0.47-0.496-1.108-0.303c-0.545,0.36-0.507,1.004-1.309,1.209
		c-0.982,0.252-2.363-0.234-3.425,0.102c-0.231-1.742-0.189-3.309-0.906-4.533c-0.639-1.087-1.81-1.611-3.123-2.316
		c-1.801-0.97-3.45-2.572-6.246-1.713c-0.046,2.375,2.754,2.325,2.72,4.435c-0.025,1.521-1.691,2.332-3.123,2.216
		c-2.909-0.243-3.597-5.438-7.454-4.13c-0.819,1.885,0.852,3.303,0.504,5.034c-1.075-0.26-2.023-0.541-2.922-1.407
		c-0.94-0.911-1.179-2.185-2.417-2.218c-1.217-0.032-1.44,0.943-2.216,1.611c-2.413-0.299-4.894,0.028-6.346,1.008
		c0.327,1.035,0.617,1.764,1.41,2.52c0.68,0.646,1.831,1.059,2.015,1.914c0.449,2.113-1.565,3.424-1.511,5.74
		c0.218,0.789,1.54,0.337,2.015,0.402c-0.596,0.262-1.91,0.188-2.116,1.008c-0.243,0.961,0.734,2.539,1.813,3.021
		c1.016,0.457,2.292,0.055,3.022,0.705c0.483,1.984-2.292,1.736-2.115,3.525c0.243,2.468,7.03,0.381,7.555,0.201
		c0.08,2.094,4.608,0.549,5.036,0.401c1.314-0.458,1.545-2.049,2.417-2.216c-0.255,1.199-1.662,2.095-1.007,3.626
		c0.327,0.771,1.537,0.942,2.619,0.808c1.113-0.145,6.095-1.878,6.951-2.218c1.003-0.397,1.75-1.194,2.418-1.41
		c1.334,0.845,1.767,1.794,3.425,1.611c1.091-0.117,1.582-1.173,2.519-1.41c0.646-0.163,4.709-0.462,6.144-0.401
		c-0.247,0.135-0.516,0.252-0.789,0.359l0.255,0.762c0.33-0.107,0.671-0.209,1.013-0.312c0.899-0.267,1.801-0.533,2.489-0.929
		c0.411-0.233,0.972-0.688,1.328-1.192c0.461-0.657,0.574-1.399-0.443-1.86c-2.262-1.033-6.85,2.15-9.155,0.446
		c-1.145,0.263-1.363,1.817-2.463,1.709c-0.932-0.094-0.79-1.411-1.473-1.979c-2.003,0.271-3.59,0.938-5.151,1.66
		c-0.954,0.441-1.899,0.903-2.925,1.31c-0.827,0.321-1.75,0.882-2.757,0.718c0.524-1.695,2.132-4.294,0.197-5.662
		c-2.984,0.416-3.308,3.271-5.708,4.225c-0.277-0.543-0.181-1.084-0.395-1.528c-1.217-2.544-4.298,0.733-6.3,0.723
		c0.29-0.878,1.188-1.973,1.28-3.329c-1.2-0.672-3.769-0.097-5.217-0.537c1.754-0.317,2.305-3.445,0.688-4.313
		c-0.508-0.076-0.747,0.096-1.083,0.182c0.231-1.574,1.457-2.931,0.982-4.494c-0.344-1.144-1.788-0.941-2.263-2.07
		c1.331-0.639,3.203,0.223,4.332,0.629c0.321-0.11,0.589-0.27,0.816-0.469c0.226-0.197,0.409-0.435,0.56-0.697
		c0.523,0.441,1.188,0.929,1.939,1.35c1.813,1.016,4.124,1.65,6.137,0.359c0.05-0.525,0.143-1.008,0.096-1.62
		c0.563,0.835,1.012,1.774,1.771,2.426c2.055,0.933,4.667-0.079,6.016-2.032c0.739-1.07,1.098-2.426,0.779-3.896
		c0.65,0.961,0.583,2.967,1.536,3.956c0.055,1.513,1.255,2.069,1.783,3.465c2.082,0.032,4.688-0.042,6.132-1.131
		c1.045,0.211,1.385,1.265,2.166,1.89c2.106,1.692,7.194,1.887,8.465-0.447c-0.092,0.951-0.243,2.049,0.294,2.693
		c0.852,1.027,2.72,0.766,3.744,1.62c3.248-0.688,3.561-0.59,4.723-2.157c1.645,0.762,2.022,2.917,4.529,2.428
		c1.838-0.361,2.061-2.699,2.068-4.945c1.868,0.336,2.521-1.774,2.854-3.416c2.726-0.238,3.426-2.324,3.938-4.584
		c0.817,0.22,0.99,1.066,1.28,1.709c0.294,0.643,0.691,1.363,0.789,2.158c0.322,2.609-1.09,5.215-0.098,7.188
		c3.446,0.78,5.768-0.939,6.594-3.145c0.488,1.002,0.479,2.236,1.479,2.605c3.374,1.246,4.814-3.236,5.81-4.855
		c0.97,0.644,2.127,1.115,3.444,1.439c1.087,3.202,6.778,2.375,7.777-0.182c1.209,2.389,7.073,2.213,9.153,0.63
		c1.838,1.041,4.393,0.588,6.424-0.364c0.877-0.41,1.658-0.914,2.24-1.432c1.414-1.256,2.035-3.127,3.051-4.314
		c0.281,1.93-0.34,4.684,1.281,5.389c1.184,0.063,1.922,0.854,2.521,0.384c1.788,1.419,5.376-1.481,6.296,0.522
		c3.766,1.521,6.951-1.348,9.102-3.06c0.149,1.065-1.076,1.36-1.281,2.245c-0.668,2.9,3.551,4.71,5.764,3.365
		c-0.139,2.854,3.895,1.297,4.969,2.746c-0.998-0.225-1.791,0.115-2.262,0.629c-0.311,2.735,2.191,2.914,3.738,3.953
		c-1.309-0.17-1.526,0.701-2.068,1.353c-0.496,0.596-1.314,1.138-1.867,1.797c-0.592,0.705-0.822,1.737-1.771,1.89
		c-1.12-0.841-0.383-3.724-2.068-3.959c-0.943-0.129-1.646,0.664-1.872,1.621c-1.063,0.5-0.055,1.414-1.305,1.741
		c0.103-1.274-0.943-2.581-1.746-3.271c-1.694-0.01-2.591,0.938-3.312,2.047c-0.682,1.053-1.205,2.248-2.104,2.896
		c-0.4,0.289-1.044,0.504-1.872,0.27c0-0.08-1.396,0.021-1.619,0.402c-0.223,0.383-0.493,0.629-0.069,0.965
		c0,0,1.893,0.451,3.098,0.502s2.281,0.299,3.168-0.231c0.886-0.53,1.18-2.997,2.619-3.425c-0.34,0.961-0.944,1.998-0.604,3.324
		c2.887,1.543,4.648-1.699,6.244-2.418c0.281,1.129-0.554,2.193-0.201,3.424c0.354,0.048,0.68,0.072,0.989,0.072
		c4.136,0,4.912-4.033,7.371-5.914c1.246,2.987,3.832-2.115,1.813-3.324c1.055-0.188,1.684-0.812,1.813-1.713
		c0.297-2.035-1.469-2.832-3.123-3.524c-1.747-0.729-3.398-1.478-4.534-2.114c0.408-0.669,2.111-0.039,2.317-0.908
		c-0.537-3.845-4.831-0.9-7.557-1.31c0.141-2.136,0.73-5.778-1.209-5.942c-0.938-0.08-2.183,1.381-3.322,2.014
		c-1.372,0.767-3.655,1.58-5.037,0.906c-0.785-0.381-0.48-0.969-1.311-1.609c-1.763-0.15-2.59,0.634-3.828,1.008
		c-0.213-1.171-0.065-2.46-1.008-2.721c-2.299-0.635-1.557,2.818-3.223,3.225c-0.458-1.059,0.051-3.076-0.604-3.929
		c0.405-1.326,0.586-3.347-0.808-3.526c-2.062-0.27-3.055,3.375-4.13,4.838c-1.372,1.866-2.898,2.375-4.532,3.223
		c-4.243-8.197-8.569-17.021-12.188-26.393c-1.401-3.636-2.894-7.076-3.728-11.585c-0.396-2.137-1.024-4.452-1.108-6.548
		c-0.032-0.813,0.16-1.609,0.102-2.418c-0.076-1.063-0.406-2.24-0.302-3.729c0.192-2.689,1.269-5.362,1.915-7.957
		c0.667-2.674,1.439-5.246,2.619-7.254c0.168-0.172,0.565,0.388,0.906,0.705c1.389,1.303,4.775,4.219,7.098,4.561
		c4.596,0.676,7.689-3.194,9.322-6.372c-0.453,5.008,7.375,8.104,8.041,8.42c2.225,1.036,6.573,0.397,9.688,0.243
		c3.182-0.159,6.225-1.479,8.361-3.021c4.47-3.234,7.021-8.984,5.037-16.219c5.11-0.428,9.851,0.252,13.33-2.043
		c1.717-1.141,3.898-2.73,5.349-4.093c3.644-3.416,6.879-10.695,4.088-17.637c-0.604-1.498-2.124-4.944-2.317-5.339
		c-0.334-0.68-1.875-2.641-2.115-3.021c-0.537-0.865-1.666-1.311-1.914-2.217C242.683,107.177,245.692,102.061,246.011,95.182z
		 M158.465,152.484c-0.73,4.299-0.775,8.5-1.994,12.402c-0.125,0.406-0.264,0.811-0.416,1.211c-0.406,1.057-1.086,2.65-2.015,2.719
		c-1.246,0.093-4.843-11.287-5.438-13.396c-0.004-0.021-0.013-0.047-0.021-0.07c-0.243-0.799-1.154-2.973-0.986-3.557
		c-0.033-0.139,0.004-0.243,0.105-0.311c1.313-3.479,5.91,0.709,10.766,0.688c-0.018,0.105-0.033,0.211-0.05,0.314
		C158.432,152.484,158.447,152.484,158.465,152.484z M225.663,233.186c-0.635-0.475-1.311-0.906-2.217-1.106
		C224.239,231.993,225.448,232.354,225.663,233.186z"/>
	<g id="XMLID_24_">
		<path fill="#D09111" d="M181.067,222.066c-0.506,0.16-0.688-0.971-1.467-1.147c-1.593-0.362-2.486,1.547-3.848,1.724
			c-1.081,0.141-1.734-0.453-2.752-0.767c0.032-1.498,0.538-3.467-0.82-3.731c-2.813-0.541-2.312,5.205-5.592,4.785
			c-1.979-0.252-2.229-2.447-4.673-2.58c0.521-2.638-0.604-3.287-2.111-2.107c-0.695,0.549-1.421,1.684-2.107,2.965
			c-0.444,0.84-1.363,2.996-2.199,2.875c-1.085-0.16-0.486-3.553-1.74-3.832c-1.74-0.391-1.568,1.711-2.105,2.779
			c-0.576,1.125-1.532,1.121-2.385,1.527c-0.428-1.56,0.008-3.32-0.094-4.783c-0.232-3.438-2.459-5.441-3.666-7.85
			c-3.763-1.126-1.072,5.238-3.021,6.316c-0.551-0.524-0.389-1.334-1.192-1.434c-1.806-0.229-0.821,2.961-1.739,4.018
			c-1.013-0.705-1.652-4.59-3.666-2.295c-0.121,1.598,1.405,3.598,1.188,5.74c-0.19,1.896-3.932,0.295-4.854,0.478
			c-0.674,0.134-0.674,1.086-1.193,1.532c-1.211,1.039-3.322,0.332-4.399-0.576c0.019-2.146,0.571-4.385-0.825-4.784
			c-2.089-0.593-1.565,1.451-2.475,2.681c-0.361,0.489-1.354,0.84-2.018,0.768c-0.311-0.034-1.688-0.396-1.92-0.479
			c-0.817-0.281-1.184-1.301-1.652-1.725c0.385-0.688,0.77-1.377,1.192-2.104c0.404-0.691,1.787-3.551,2.566-4.019l0.014-0.043
			c-1.48-0.392-2.802-0.947-3.795-1.556c-0.144-0.84,0.278-1.412,0.891-1.559c1.169-0.285,2.645,0.445,4.172,1.1
			c0.417-0.773,0.872-1.483,1.35-2.154c-1.768-0.281-3.215-0.822-3.628-1.957c0.381-0.314,0.793-0.855,1.448-0.831
			c1.146,0.052,2.404,0.401,3.759,0.71c1.295-1.632,2.626-3.251,3.727-5.368c0.348-0.675,0.18-2.515,0.588-3.178
			c0.377-0.608,0.929-1.212,1.188-1.817c0.353-0.806,1.578-3.865,1.927-4.492c0.607-1.108,2.742-6.769,3.024-8.041
			c0.121-0.549,0.589-2.342,0.733-2.773c0.375-1.165,0.254-1.854,0.496-3.126c0.432-0.261,0.432-0.161,0.971,0.062
			c1.837,0.762,5.326,0.51,6.691-0.381c-0.148-1.607-1.574-0.871-2.753-1.053c-0.797-0.126-3.875-1.918-5.04-2.107
			c0.121-0.352,0.084-0.871,0.182-1.242c0.9,0.429,1.629,1.041,2.478,1.531c1.526-0.58,4.506,0.473,4.854-1.146
			c0.181-0.841-0.371-1.522-0.914-1.629c-0.78-0.15-2.702,0.358-3.207,0.284c-0.338-0.047-2.283-1.121-3.025-1.241
			c0-0.289,0-0.574,0-0.86c1.434,0.729,2.004,2.043,3.939,1.243c0.91-0.377,1.518-1.146,2.199-1.817
			c-0.078-0.478,0.014-0.572,0-1.146c-0.287-0.121-0.774-0.654-1.281-0.576c-0.616,0.096-3.67,0.078-4.857,1.146
			c0.404-3.778,0.844-7.896,0.641-12.533c2.891-0.559,5.351-2.068,7.424-3.159c0.168,1.069,3.955,13.208,4.858,15.026
			c0.261,0.522,1.503,2.892,2.106,3.154c1.1,0.489,2.57-0.32,3.025-1.052c0.558-0.896,2.84-8.938,3.48-11.866
			c0.316-1.449,1.425-6.523,1.739-7.753c1.898-1.304,4.178-2.209,4.398-5.262c0.482,0.687,2.146,0.758,2.934,0.284
			c-1.254,3.035,2.057,7.843,2.386,8.518c-1.875,2.639-2.356,6.678-3.483,10.338c-1.113,3.616-1.74,7.104-1.556,11.481
			c0.187,4.429,1.149,8.416,2.563,12.155c0.715,1.899,1.049,3.783,1.557,5.74c0.486,1.856,1.248,3.633,1.926,5.359
			C174.483,209.721,177.735,216.43,181.067,222.066z"/>
	</g>
	<g id="XMLID_23_">
		<path fill="#5FAE30" d="M241.396,87.018c1.994,3.465,1.973,8.396,0.6,12.067c-1.021,2.741-4.066,8.923-7.768,8.305
			c-0.308,2.172,1.609,2.119,2.771,3.465c1.512,1.755,2.187,4.162,2.778,6.351c1.068,3.946,0.343,7.107-1.168,10.892
			c-1.115,2.799-2.823,7.442-5.709,8.939c-2.008,1.04-4.188,1.847-6.346,2.504c-2.927,0.893-4.658,3.441-8.072,3.4
			c0.115,3.398,2.229,5.701,0.186,9.017c-1.339,2.174-3.6,3.551-6.012,4.251c-5.5,1.598-11.971,0.301-16.75-2.734
			c-1.027-0.652-1.993-1.406-2.855-2.269c-0.714-0.713-1.785-3.054-2.912-1.96c-0.836,0.811-0.365,2.408-1.218,3.38
			c-1.09,1.243-2.755,2.274-4.374,2.638c-3.611,0.807-8.021-2.119-10.031-4.908c-2.516-3.488-2.68-8.021-1.037-11.916
			c-1.588,0.285-1.863,0.688-2.855,1.854c-0.734,0.861-2.768,0.62-3.344-0.33c-0.362-0.604-1.211-2.521-2.172-1.16
			c-0.693,0.979,0.136,2.479-0.791,3.395c-0.724,1.355-3.724,2.707-4.979,3.572c-2.232,1.535-3.702,1.76-6.283,0.619
			c-1.154-0.511-4.355-1.813-4.77-3.199c-1.501,0.166-1.725,1.19-1.857,2.485c-0.188,1.834-1.236,2.845-2.813,3.716
			c-4.545,2.51-12.648,2.521-16.875-0.74c-1.312-1.012-2.821-5.153-3.963-1.36c-1.011,3.36-6.375,4-9.21,4.082
			c-7.225,0.21-15.351-3.004-20.928-7.563c-5.323-4.353-10.698-11.285-12.247-18.113c-0.842-3.712-0.645-7.679,0.172-11.379
			c0.397-1.801,0.946-3.573,1.684-5.264c0.681-1.56,2.299-2.869,2.746-4.459c0.417-1.484-1.286-1.805-2.238-2.34
			c-1.472-0.835-2.779-2.012-3.814-3.346c-0.993-1.279-1.989-2.993-1.868-4.673c0.137-1.91-0.881-3.553-0.574-5.568
			c0.518-3.405,2.803-6.019,5.159-8.365c4.248-1.116-0.435-2.985-1.462-4.795c-2.396-4.221,0.616-10.661,5.828-9.79
			c1.237,0.205,2.485-0.619,1.678-1.97c-0.525-0.882-1.596-1.312-2.06-2.236c-1.663-3.326-2.304-6.838-1.469-10.531
			c1.425-6.303,8.105-10.235,14.292-10.541c1.721-0.084,3.493,0.123,5.103,0.755c1.002,0.394,2.566,0.971,2.697-0.645
			c0.092-1.132-0.379-2.241-0.642-3.32c-0.442-1.822,0.045-4.055,0.681-5.773c2.364-6.391,11.649-9.191,17.831-8.515
			c3.208,0.351,6.287,1.702,8.582,3.995c0.647,0.647,1.128,3.386,2.513,2.529c0.944-0.583,0.596-3.408,0.959-4.39
			c1.963-5.312,5.008-8.919,10.396-10.877c5.178-1.883,11.081-3.066,16.603-2.625c10.315,0.824,23.295,7.164,19.957,19.581
			c5.295-1.116,11.957,0.505,13.816,6.209c1.88,5.765-1.923,13.426-7.314,15.943c-1.229,0.574-2.539,0.963-3.854,1.291
			c-0.855,0.215-4.18,0.805-2.107,2.178c1.021,0.679,2.53,0.542,3.654,1.087c1.506,0.727,1.23,1.837,1.896,3.123
			c0.549,1.057,1.813,0.588,2.238-0.288c0.688-1.422,1.121-2.316,2.412-3.362c3.022-2.448,5.125-3.837,9.149-4.155
			c6.181-0.488,13.138,0.943,15.407,7.42c0.466,1.331,0.75,2.755,0.686,4.169c-0.055,1.197-1.137,3.504,1.169,2.88
			c1.144-0.31,1.806-1.446,2.88-1.886c1.445-0.593,3.168-0.526,4.676-0.244c4.062,0.757,7.901,5.81,8.82,9.629
			c0.346,1.433,0.104,2.872-0.656,4.135c-0.93,1.544-2.029,2.428,0.332,3.299C238.606,83.412,240.165,84.891,241.396,87.018
			C243.167,90.097,241.045,86.411,241.396,87.018z"/>
	</g>
	<path fill="#FFFFFF" d="M223.446,232.077c0.793-0.084,2.002,0.276,2.216,1.106C225.028,232.711,224.353,232.279,223.446,232.077z"
		/>
	<path d="M226.703,130.438c-0.252-2.43-2.162-5.599-3.472-6.73c-1.33-1.149-3.772-1.825-5.98-1.657
		c-1.834,0.138-3.505,0.86-4.227,2.384c-2.271-3.396-5.297-6.598-5.265-11.912c0.886,1.116,0.831,2.556,1.158,3.731
		c0.965,3.459,3.511,5.746,8.104,5.591c0.07-0.004,0.144-0.009,0.213-0.013c1.261-0.113,1.957-0.797,3.469-0.504
		c0.705-7.525-5.563-12.897-12.629-10.979c-0.854-0.765-1.063-2.279-2.633-1.969c-1.401,0.281-1.021,2.334-0.211,3.211
		c-2.09,4.646-3.479,9.956-6.207,14.189c-0.504,0.775-2.205,3.767-2.945,3.935c-0.58,0.132-1.76-0.435-2.316-0.519
		c-3.73-0.563-7.354,0.164-9.154,2.177c-0.99,1.106-2.174,3.303-1.896,5.694c0.051,0.41,0.271,2.668,0.423,3.314
		c0.22,0.961,3.972,4.219,4.735,4.658c0.591,0.341,1.313,0.65,2.109,0.906c2.631,0.85,6.035,1.101,7.889-0.074
		c0.451-0.29,1.031-0.5,1.367-0.727c2.138-1.449,3.724-4.86,3.686-7.354c-0.054-3.476-2.304-4.579-4.419-6.833
		c3.92-3.702,5.959-9.259,7.576-15.228c0.938,4.361,2.813,7.799,4.733,11.186c-1.508,1.868-3.379,2.603-3.682,5.073
		c-0.602,4.869,4.143,8.945,9.023,8.957c0.328,0.005,0.649-0.012,0.974-0.051c2.304-0.252,4.328-1.627,5.998-3
		C225.532,135.919,227.089,134.102,226.703,130.438z M218.007,117.141c0.004,0.776,0.029,1.574-0.102,2.217
		c-5.338,0.495-7.995-2.54-7.957-7.757C214.422,111.659,216.231,114.384,218.007,117.141z M200.983,136.18
		c0.146,3.328-2.569,6.988-5.541,7.555c-1.657-0.83-4.332-0.344-5.842-1.31c-0.336-0.214-2.406-2.405-2.619-2.921
		c-0.617-1.495-0.545-5.301,0.302-6.447c0.243-0.326,2.304-2.019,2.72-2.217c1.646-0.789,4-0.629,5.943,0
		c-0.168,0.438-0.286,0.926-0.604,1.209c-1.918-0.546-4.144-0.355-3.323,1.914c0.532,1.475,2.711,1.868,4.532,1.612
		c-0.135-1.646,0.251-2.771,0.806-3.728C198.595,132.951,200.896,134.229,200.983,136.18z M223.043,132.956
		c-1.101,1.774-4.042,3.772-5.742,4.028c-3.231,0.492-6.594-1.371-7.555-2.819c-1.802-2.716-0.651-4.804,1.737-5.688
		c0.588,0.219,1.968,0.506,2.56,0.726c0.995-0.999-0.038-2.418-0.067-3.298c-0.063-1.886,2.195-2.791,4.534-2.314
		c1.05,0.214,2.115,1.352,2.82,2.016C223.026,127.193,224.815,130.094,223.043,132.956z"/>
	<path fill="#96A917" d="M218.007,117.141c0.004,0.776,0.029,1.574-0.102,2.217c-5.338,0.495-7.995-2.54-7.957-7.757
		C214.422,111.659,216.231,114.384,218.007,117.141z"/>
	<path d="M213.575,79.165c1.259,1.871,1.435,4.746,2.115,7.252c-1.416,0.483-2.39,0.953-3.729,0.906
		c-0.855-0.028-3.413-0.62-3.928-0.704c-1.411-0.231-4.186-1.771-5.239-2.619c-0.843-0.681-1.614-1.923-2.417-3.123
		c-0.527-0.798-1.663-2.972-2.62-2.921c-1.241,0.066-1.418,2.552-2.014,3.223c2.698,0.701,5.022,1.331,6.483,2.997
		c0.34,0.387,0.629,0.822,0.869,1.335c0.332,0.701,1.553,3.744,1.813,4.533c1.591,4.775,1.437,11.664-2.116,14.808
		c-1.586,1.406-3.962,2.716-6.346,3.123c-4.033,0.688-9.738,0.154-12.592-1.914c-0.654-0.475-2.586-2.175-3.021-2.519
		c-1.494-1.171-3.729-4.915-4.027-7.354c-0.111-0.886-0.367-3.249-0.404-3.627c-0.323-3.093,1.783-5.305,3.324-7.051
		c2.898-3.291,6.455-5.305,13.096-4.734c1.229-2.464,2.021-5.364,3.123-7.958c2.703-0.508,4.961,1.646,3.123,3.525
		c2.664,0.05,5.367-0.663,8.662-0.302c2.148,0.235,3.061,0.709,4.332,1.813C212.601,78.321,213.243,78.674,213.575,79.165z"/>
	<path fill="#96A917" d="M212.879,81.229c0.612,0.969,2.099,4.34,0.415,4.444c-3.761,0.235-7.867-0.567-10.346-3.604
		c-1.323-1.623-3.206-3.708-0.157-4.67c2.151-0.679,5.233-0.624,7.048,0.352C211.651,78.728,212.051,79.916,212.879,81.229z"/>
	<path d="M201.092,236.447c0.615-0.402,1.527-0.651,2.333-0.627c1.055,0.033,1.928,0.539,1.705,1.798
		c-0.089,0.502-0.451,0.843-0.835,1.167c-0.446,0.379-1.19,1.227-1.29,1.79l-0.779,0.139c-1.949,0.132-3.496-0.511-5.371-0.274
		c-1.729,0.219-3.435,0.83-5.139,1.008c-0.797,0.078-1.695-0.131-2.518,0c-1.051,0.162-2.443,1.32-3.627,0.402
		c-0.396-0.811,0.533-1.84,0.101-2.315c-0.298-0.038-0.392,0.103-0.503,0.198c-0.436,0.391-2.689,2.537-5.563,3.326
		c-0.647,0.178-6.472-1.627-6.472-1.627s0.787,1.176,0.263,1.102c-2.244-0.324-4.49-0.672-5.658-0.729
		c-1.734-0.089-1.377-1.74-1.409-1.867c-1.095-0.008-2.019-0.318-3.324-0.102c-1.192,0.201-2.586,1.979-2.619-0.104
		c-1.293,0.543-1.977,1.929-3.425,2.521c-0.957,0.396-2.044,0.5-3.252,0.5c-0.87,0-1.802-0.055-2.792-0.099
		c-0.23-0.549,1.381-1.576,1.008-1.609c-1.486,0.746-4.466,1.512-6.346,0.604c-0.034-1.68,1.184-2.105,1.41-3.524
		c-1.713,0.72-2.002,2.949-3.93,3.828c-2.472,1.129-6.459-0.252-9.771,0.2c-0.86,0.117-1.562,0.406-2.271,0.406
		c-0.311,0-0.625-0.055-0.953-0.205c0.004-0.881,1.012-1.797,0.705-2.315c-2.283,0.458-4.416,2.146-7.151,1.209
		c-0.113-0.785,0.437-1.438,0.101-2.115c-2.439,1.271-6.002,2.875-9.536,2.875c-1.31,0-2.619-0.223-3.861-0.76
		c0.873-2.843,4.596-2.829,7.27-3.87l0.255,0.766c-0.696,0.223-1.339,0.479-1.817,0.826c1.364,0.021,2.652-0.521,3.941-0.99
		c0.334-0.123,0.68-0.224,1.025-0.313c0.249-0.063,0.497-0.123,0.743-0.183c0.754-0.18,1.478-0.355,2.068-0.674
		c0.227-0.121,0.422-0.289,0.613-0.463c0.539-0.488,1.035-1.012,2.048-0.615c0.281,0.697-0.046,1.563,0,2.338
		c2.615-0.191,4.285-1.24,6.792-1.531c0.449,0.434,0.563,1.172,0.495,2.068c1.054-0.055,2.069,0.563,3.147,0.72
		c3.899,0.563,6.443-0.476,7.879-2.158c0.218-2.837,5.432-3.071,4.822,0.36c-0.088,0.49-0.437,0.746-0.688,1.26
		c1.13-0.266,2.422-0.479,3.644-1.348c1.221-0.873,1.646-1.896,3.148-1.801c0.727,0.049,1.67,0.741,1.675,1.438
		c0,0.466-0.466,0.84-0.789,1.167c-0.331,0.34-0.86,0.638-0.786,0.902c0.979-0.193,1.856-0.84,2.951-1.527
		c1.307-0.823,3.315-2.316,3.94-0.542c2.188-0.136,4.76-0.445,6.889-0.089c0.033,1.138-0.855,1.91-1.179,2.427
		c1.431-0.701,2.606-1.638,4.134-2.25c0.832,0.319,0.848,1.386,0.789,2.519c1.658,0.067,2.283-1.334,3.249-2.063
		c1.356-1.033,2.825-1.952,4.923-2.07c0.039,1.229-0.023,2.088-0.395,2.788c-0.308,0.574-0.994,0.942-0.885,1.349
		c0.783-0.356,1.396-0.34,1.866-0.898c0.319-0.378,0.243-0.919,0.495-1.348c0.611-1.049,1.887-1.242,3.053-1.801
		c1.027,0.531,3.127,1.354,3.411,2.563c3.402,0.253,5.38-0.608,7.802-1.213c0.588-0.147,1.2-0.279,1.868-0.378
		C199.438,236.51,200.218,236.445,201.092,236.447z"/>
	<path fill="#E30613" d="M204.083,98.486c-1.249,7.821-11.952,9.782-18.034,6.335c-2.407-1.364-4.784-3.342-6.481-5.539
		c-1.301-1.683-1.366-4.873-1.438-6.915c-0.085-2.411,2.16-5.725,4.026-7.131c2.812-2.114,6.587-2.279,9.949-1.932
		c-0.006,0.331-0.213,2.136-0.441,2.075c-0.885-0.232-0.977-1.037-2.016-0.543c-1.026,0.487-1.611,0.987-1.256,2.308
		c0.188,0.675,0.95,1.203,1.49,1.576c2.748,1.903,8.031,1.082,8.223-2.991c-1.52-0.149-2.604,1.224-4.146,0.81
		c0.451-0.652,0.442-3.741,1.31-3.638C203.496,83.896,205.153,91.771,204.083,98.486z"/>
	<path fill="#E50066" d="M195.827,145.413c-2.758,0.323-3.648,0.323-6.648-1.054c-3-1.379-3.494-2.344-4.541-4.217
		c-1.045-1.873-1.054-5.352,0.893-7.621c1.945-2.271,2.271-1.937,3.648-2.258c1.379-0.322,4.824-0.055,6.768,0.574
		c-0.168,0.438-0.284,0.926-0.604,1.209c-1.918-0.546-4.143-0.355-3.324,1.914c0.533,1.475,2.711,1.868,4.533,1.611
		c-0.135-1.645,0.252-2.77,0.807-3.729c1.238,1.104,3.328,0.872,4.389,4.729C202.806,140.434,198.584,145.089,195.827,145.413z"/>
	<path d="M173.985,44.916c0.215,2.09,0.072,5.564-1.711,6.346c-1.265,0.554-2.203-0.168-3.226-0.806
		c-0.769,7.147-4.34,13.569-11.584,14.203c-1.359,0.117-2.628,0.017-3.626-0.403c-2.162,1.268-4.853-0.067-5.642-1.712
		c-1.863-0.021-6.271-2.04-6.85-2.519c-1.875-1.554-3.492-5.554-3.727-8.764c-0.235-3.229,0.264-7.156,2.015-9.066
		c0.499-0.542,3.375-2.926,4.029-3.324c2.731-1.658,7.903-2.01,10.476-0.101c0.772-1.813,0.928-4.613,0.604-6.95
		c0.874,0.23,2.418-1.066,3.626-0.303c0.434,0.272,2.925,3.908,4.229,4.23c1.217,0.303,2.98-0.327,4.332,0.202
		C169.765,37.062,173.612,41.297,173.985,44.916z M157.466,38.368c0.974-0.169,2.288,0.284,2.721,0
		c-0.276-1.033-0.551-2.07-1.411-2.52C158.469,36.819,157.857,37.482,157.466,38.368z"/>
	<path fill="#96A917" d="M172.576,44.613c0.187,1.105,0.485,3.183-0.302,4.13c-0.471,0.563-1.213,0.465-1.823,0.228
		c-0.386-0.149-0.791-0.191-1.146-0.398c-0.505-0.293-0.564-0.889-0.723-1.414c-0.439-1.478-1.174-2.89-1.791-4.342
		c-0.689-1.626-1.514-3.041-3.299-3.556c-0.727-0.21-1.475-0.407-1.998-0.994c0.021-0.664,0.751-0.624,1.107-1.007
		c1.522,0,3.213,0.168,4.539,0.84C169.646,39.367,172.065,41.553,172.576,44.613C172.772,45.788,172.392,43.505,172.576,44.613z"/>
	<path fill="#FFFFFF" d="M170.964,242.354c-0.021,0.289,0.025,0.513,0.202,0.604c-0.374,0.235-1.177,0.034-1.712,0.103
		C169.94,242.807,170.394,242.521,170.964,242.354z"/>
	<path fill="#96A917" d="M170.255,40.626c-0.298-0.189-0.688-0.294-1.003-0.546c-0.076-0.063-0.138-0.139-0.192-0.223
		C169.597,40.181,170.017,40.458,170.255,40.626z"/>
	<path fill="#F0A400" d="M166.724,50.354c0.157,2.391,0.121,5.569-1.438,7.556c-1.215,1.546-3.428,2.492-5.272,3.012
		c-1.854,0.522-3.781,0.904-5.697,1.102c-2.002,0.207-4.031,1.202-4.537-1.401c-3.074,0.845-4.961-1.645-7.254-3.198
		c-2.649-1.797-3.293-5.595-2.848-8.586c0.465-3.119,2.602-6.051,5.301-7.639c2.864-1.683,5.479-0.674,8.188,0.659
		c-2.052,2.712-2.437,6.863-1.417,9.958c1.252-0.158,1.197-1.469,0.668-2.352c-0.721-1.199-0.288-2.882,0.165-4.13
		c0.862-2.376,2.692-4.136,5.245-4.422c2.163-0.242,4.731,0.309,6.329,1.868C165.983,44.565,166.563,47.926,166.724,50.354
		C166.905,53.124,166.558,47.85,166.724,50.354z"/>
	<path fill="#5FAE30" d="M160.187,38.368c-0.433,0.284-1.747-0.169-2.721,0c0.392-0.886,1.003-1.549,1.31-2.52
		C159.637,36.298,159.909,37.335,160.187,38.368z"/>
	<path d="M154.936,117.707c1.002,2.725,0.625,5.893,0.223,8.563c-0.391,2.629-1.055,5.416-2.115,7.244
		c-0.454,0.772-7.645,6.498-8.256,6.805c-1.012,0.514-2.652,0.873-4.012,1.318c-2.233,0.729-3.854,1.301-6.918,1.098
		c-3.971-0.264-9.226-1.879-11.596-4.062c-0.541-0.499-0.692-0.944-1.338-1.978c-1.763-0.873-2.993-1.293-2.678-3.399
		c0.155-1.032,1.301-2.707,3.904-2.31c0.999,0.156,1.561,1.227,2.791,1.429c2.027,0.335,4.642-0.608,6.132-1.097
		c2.006-0.658,11.869-5.209,13.607-8.012c0.756-1.222,1.157-2.909,1.893-4.722c0.906-2.225,0.986-8.416,1.115-9.44
		c0.193-1.498,2.586-3.223,4.908-2.417c1.426,0.499,1.838,2.141,1.783,3.735c-0.05,1.65-0.919,3.4-0.781,4.718
		C153.693,116.083,154.671,116.985,154.936,117.707z M151.926,123.688c0.273-3.219-0.438-4.727-1.611-6.447
		c0.523-1.657,0.443-3.92,0.604-5.942c-0.186-0.177-1.213-0.454-1.208,0.101c-0.319,2.665-0.155,5.268-0.604,7.252
		c-0.533,2.363-2.129,4.483-3.525,5.944c-0.605,1.854-2.338,2.729-4.13,4.029c-1.222,0.891-2.548,1.867-3.929,2.618
		c-1.416,0.772-3.262,1.218-4.836,1.713c-2.416,0.765-5.313,1.788-7.755,1.007c-0.738-0.234-1.255-1.309-2.116-1.007
		c-0.172,0.849,0.559,1.562,1.713,1.41c0.596,1.087,1.271,2.146,2.316,2.819c1.146,0.744,2.707,0.729,4.332,1.209
		c1.759,0.518,2.498,1.076,4.433,0.908c3.16-0.279,6.479-1.105,8.965-2.924c2.141-1.564,4.718-3.715,5.943-6.044
		C151.468,128.527,151.74,125.879,151.926,123.688z"/>
	<path fill="#F5B51B" d="M150.314,117.241c1.174,1.721,1.885,3.229,1.611,6.447c-0.186,2.19-0.458,4.839-1.41,6.648
		c-1.227,2.329-3.804,4.479-5.943,6.044c-2.485,1.817-5.805,2.644-8.965,2.923c-1.936,0.168-2.674-0.392-4.433-0.908
		c-1.625-0.479-3.187-0.465-4.332-1.209c-1.045-0.674-1.721-1.731-2.316-2.818c-1.155,0.15-1.885-0.563-1.713-1.41
		c0.861-0.303,1.377,0.771,2.116,1.007c2.443,0.781,5.339-0.241,7.755-1.007c1.574-0.495,3.422-0.938,4.836-1.713
		c1.381-0.751,2.707-1.729,3.929-2.618c1.792-1.304,3.524-2.175,4.13-4.03c1.396-1.459,2.992-3.58,3.525-5.943
		c0.449-1.984,0.285-4.587,0.604-7.252c-0.005-0.555,1.024-0.277,1.208-0.101C150.759,113.321,150.839,115.584,150.314,117.241z"/>
	<path fill="#FFFFFF" d="M147.594,151.793c0.143,0.588,0.76,2.754,0.986,3.557C148.337,154.551,147.427,152.377,147.594,151.793z"/>
	<path d="M130.868,214.445c-0.533,0.05-1.058,0.023-1.573-0.055c0.566-0.063,1.128-0.179,1.678-0.347
		c0.131-1.034-0.625-1.188-1.107-1.61c-1.311,0.863-2.875,0.252-4.386-0.445c-1.381-0.633-2.716-1.342-3.774-1.064
		c-0.554,0.143-0.936,0.696-0.805,1.512c0.898,0.588,2.094,1.129,3.433,1.506l-0.013,0.043c0.525,1.115,1.29,1.466,2.817,1.854
		c1.104,0.28,1.717,0.481,2.82,0.369c1.499-0.151,3.509,0.397,3.896-1.112C133.643,213.682,131.964,214.344,130.868,214.445z"/>
	<path d="M132.184,208.305c-1.424,0.159-2.783-0.109-4.056-0.42c-1.226-0.299-2.362-0.638-3.4-0.688
		c-0.591-0.025-0.965,0.5-1.309,0.806c0.374,1.101,1.683,1.624,3.282,1.897c0.587,0.101,1.217,0.168,1.855,0.218
		c3.391,0.265,7.812,0.315,8.26-2.315C135.154,207.055,133.908,208.111,132.184,208.305z"/>
	<path d="M126.139,90.749c0.09,1.166,0.014,2.341-0.045,3.506c-0.035,0.707,0.276,1.241-0.57,1.229
		c-0.481-0.007-0.962-0.035-1.44-0.093c-1.69-0.204-3.339-0.793-4.621-1.939c-2.617-2.338-2.992-5.939-3.488-9.195
		c-0.145-0.949-1.728-4.926-2.657-2.603c-0.403,1.007-1.007,1.528-0.202,2.385c0.786,0.836,1.648,1.546,1.863,2.733
		c0.354,1.961-0.188,3.979,0.178,5.944c0.276,1.481,0.957,2.93,1.435,4.353c1.375,4.095,3.003,8.075,1.786,12.438
		c-1.036,3.716-5.289,6.085-9.014,4.561c-1.357-0.557-3.565-0.982-5.112-0.848c-2.252,0.197-4.502,1.308-6.729,0.352
		c-3.257-1.396-5.69-5.925-4.923-9.408c0.829-3.767,5.367-4.698,7.343-7.647c0.8-1.194,0.938-2.973,1.24-4.345
		c0.423-1.928,0.138-4.318,1.08-6.062c0.898-1.662,2.658-2.605,4.368-3.236c0.949-0.351,1.925-0.62,2.906-0.868
		c0.903-0.229,0.943-1.321,1.054-2.158c0.159-1.2,0.092-3.13,1.26-3.877c1.763-1.128,4.074,1.045,2.707,2.791
		c1.373,0.12,2.324,1.079,3.526,1.611c1.388,0.619,2.565,0.744,3.786,1.792C124.329,84.281,125.889,87.523,126.139,90.749
		C126.247,92.159,125.803,86.392,126.139,90.749z M124.425,93.771c0.675-2.53-0.238-4.653-1.41-6.85
		c-0.955-1.787-1.906-3.655-4.118-3.979c-2.045-0.298-0.295,5.665,0.211,6.661C119.957,91.267,122.21,94.264,124.425,93.771
		C125.219,90.795,123.162,94.052,124.425,93.771z"/>
	<path fill="#96A917" d="M123.016,86.921c0.999,1.872,2.204,3.874,1.41,6.85c-1.263,0.281-2.82-0.948-3.828-2.015
		c-1.099-1.162-2.065-2.967-2.417-4.835c-0.201-1.058-0.188-2.641-0.101-3.728c0.055-0.146,0.155-0.247,0.302-0.302
		C121.084,83.038,121.895,84.822,123.016,86.921z"/>
	<path fill="#FFD000" d="M116.189,104.811c0.164,2.693,0.472,5.721-2.083,7.365c-1.12,0.72-2.599,1.314-3.953,1.042
		c-1.458-0.296-2.01-1.816-3.663-1.883c-2.799-0.114-5.669,2.537-8.437,1.258c-1.579-0.729-2.246-1.417-2.784-3.009
		c-0.5-1.476-0.922-3.064-0.795-4.637c0.261-3.253,3.616-3.635,5.361-5.863c1.015-1.295,1.583-2.894,2.604-4.17
		c1.247-1.558,1.272-3.22,1.566-5.136c0.362-2.36,1.089-5.218,3.639-6.028c1.83-0.581,0.821,0.217,0.845,1.266
		c0.042,1.865,2.305-0.431,2.601-0.853c1.004,0.965,1.93,1.956,2.08,3.407c0.196,1.908-0.421,3.796-0.246,5.705
		c0.175,1.904,1.404,3.495,2.025,5.26C115.647,100.515,116.063,102.72,116.189,104.811
		C116.296,106.57,116.068,102.815,116.189,104.811z"/>
	<path d="M203.274,239.936"/>
	<polygon fill="#5FAE30" points="145.014,237.41 143.458,238.786 139.648,239.779 135.566,239.354 133.6,238.934 133.104,236.813 
		130.083,237.529 127.829,238.161 126.313,238.382 126.313,237.529 126.313,235.988 124.927,236.064 124.264,236.618 
		122.542,237.529 119.815,238.287 117.243,239.402 115.669,238.809 119.971,237.27 122.521,235.962 122.48,234.305 120.717,233.848 
		118.096,234.384 115.442,234.988 113.87,234.947 112.923,234.516 111.914,235.234 110.902,236.204 109.941,235.998 
		108.986,234.238 108.207,234.371 106.38,234.869 104.435,235.658 102.434,236.605 100.508,237.45 98.993,237.997 98.153,238.014 
		99.115,235.234 99.183,233.374 98.619,232.441 97.82,232.322 96.071,233.316 94.561,235.035 93.637,235.945 92.642,236.538 
		92.248,234.975 91.514,234.137 90.109,234.105 88.194,234.951 86.854,235.542 85.948,235.714 86.884,233.691 87.228,232.307 
		86.427,232.039 85.218,231.943 83.615,231.943 82.011,231.755 83.247,230.809 83.657,229.346 83.528,228.385 82.977,227.529 
		82.699,227.338 81.616,227.521 82.471,224.936 82.695,223.451 82.324,222.416 81.616,221.908 80.987,221.559 80.336,220.801 
		82.001,220.609 83.28,220.883 84.277,221.396 85.226,221.164 86.044,220.251 87.67,221.303 88.867,222.079 90.73,222.632 
		91.947,222.727 93.264,222.441 94.12,222 94.298,220.025 95.19,221.582 95.505,222.096 96.344,222.632 97.656,222.793 
		99.02,222.971 100.199,222.445 101.436,221.452 102.003,220.743 102.608,219.543 102.892,218.13 102.783,216.753 103.322,217.455 
		103.585,218.766 104.477,220 104.738,220.807 105.526,221.88 106.627,223.063 107.205,223.652 109.198,224.189 110.677,223.938 
		112.654,223.193 114.396,224.564 115.809,225.479 117.435,225.909 119.009,226.07 120.717,225.962 122.866,224.669 
		123.521,226.393 124.151,227.252 125.2,228.161 126.984,228.648 128.58,228.675 129.982,228.161 131.968,226.707 133.053,227.441 
		133.961,228.756 135.93,229.4 137.464,228.459 138.031,226.913 138.186,225.634 138.225,224.3 139.805,223.836 140.499,222.785 
		141.078,220.801 142.637,220.363 143.641,219.543 144.445,218.116 144.863,216.753 145.016,216.107 145.816,216.757 
		147.639,219.816 146.99,226.02 147.357,227.432 147.826,227.575 149.951,227.473 151.588,226.766 152.549,225.932 153.793,223.663 
		154.564,225.938 155.061,226.878 156.207,226.77 157.993,226.406 158.973,225.332 159.893,223.796 160.659,222.279 
		160.868,221.904 161.991,222.551 164.549,223.223 164.899,224.398 166.356,225.303 168.008,225.509 169.953,225.102 
		171.603,223.988 172.091,223.193 173.396,224.398 175.58,224.986 178.597,224.872 181.246,223.839 184.276,224.398 
		187.668,223.467 189.698,222.184 191.321,220.204 193.353,216.859 193.53,222.469 195.149,223.29 195.619,223.463 196.763,223.492 
		197.97,223.904 199.521,223.707 202.131,222.887 203.274,223.699 203.772,224.271 205.007,224.189 206.049,224.398 207.78,223.545 
		209.168,223.169 211.092,221.77 212.158,220.896 212.502,221.479 211.978,222.422 211.297,223.193 211.138,224.398 
		212.114,225.826 212.831,226.395 214.3,226.99 215.515,227.053 216.799,226.6 217.166,227.469 217.841,228.238 219.565,228.594 
		220.792,228.279 222.104,229.398 219.698,229.789 220.478,232.064 223.446,233.912 221.586,235.145 220.291,236.259 
		219.149,237.368 218.396,238.553 217.592,239.221 217.379,239.303 216.856,238.264 216.489,237.297 215.44,236.169 
		214.024,236.008 213.226,237.039 212.782,238.217 212.133,238.691 211.506,236.975 210.562,235.9 208.672,235.9 207.683,236.605 
		206.579,238.277 205.774,239.568 205.007,240.714 203.741,240.714 201.994,240.385 202.089,239.505 204.632,238.156 
		204.587,236.33 204.528,236.1 202.03,236.238 200.935,236.725 198.884,236.85 195.589,237.58 193.542,238.141 190.944,238.539 
		188.894,238.52 187.813,236.787 186.007,236.063 184.315,236.384 183.127,237.354 182.354,239.117 179.646,240.037 
		181.183,237.619 181.183,235.816 178.043,236.809 175.63,238.697 174.888,239.285 173.174,240.037 173.258,238.156 
		172.385,237.458 170.793,238.309 168.251,239.762 169.533,237.512 168.851,237.232 165.704,236.867 162.457,237.161 
		161.716,236.545 159.834,237.134 156.967,238.958 155.336,239.195 156.889,236.6 155.997,235.848 154.043,236.313 152.01,237.971 
		149.701,238.587 148.869,238.913 149.38,236.55 148.285,235.363 146.449,235.417 	"/>
	<path stroke="#000000" stroke-width="0.2151" stroke-linecap="round" stroke-linejoin="round" d="M146.57,127.365
		c-0.807,1.238-2.18,2.594-3.426,3.729c-1.283,1.165-2.846,2.248-4.33,2.819c-1.78,0.681-2.867,0.392-3.728,2.315
		c2.72,0.15,4.465-0.975,6.347-2.016c1.885-1.045,2.945-2.795,4.532-3.826c0.524-0.342,1.062-0.41,1.511-0.808
		c0.928-0.813,1.479-2.073,2.016-3.427c0.474-1.194,1.393-2.919,1.31-4.128c-0.034-0.491-0.495-1.536-0.806-1.612
		c-0.999-0.234-1.012,1.201-1.208,1.713c-0.144,0.365-0.454,0.65-0.604,1.008"/>
	<path fill="#E50066" stroke="#1C1C1C" stroke-miterlimit="10" d="M222.797,125.127c2.101,1.971,4.313,5.561,2.121,9.105
		c-1.36,2.199-5.005,4.674-7.11,4.99c-4.002,0.606-8.164-1.699-9.354-3.494c-2.229-3.361,0.161-6.388,3.118-7.483
		c0.729,0.271,1.639,0.354,2.371,0.624c1.231-1.237-0.215-2.281-0.25-3.368c-0.078-2.338,2.72-3.456,5.613-2.869
		C220.604,122.897,221.924,124.306,222.797,125.127z"/>
</g>
<g>
	<path d="M28.037,198.927c-4.877,0-8.623-1.426-11.234-4.275c-2.613-2.85-3.919-6.95-3.919-12.304c0-2.661,0.333-5.051,0.998-7.174
		c0.665-2.12,1.646-3.92,2.945-5.391c1.299-1.474,2.882-2.598,4.751-3.373c1.868-0.776,4.021-1.165,6.46-1.165
		c2.406,0,4.552,0.389,6.438,1.165c1.884,0.775,3.459,1.907,4.726,3.396c1.266,1.489,2.232,3.302,2.898,5.439
		c0.665,2.138,0.997,4.553,0.997,7.245c0,5.447-1.291,9.548-3.872,12.303C36.642,197.549,32.914,198.927,28.037,198.927z
		 M28.037,193.272c1.171,0,2.28-0.213,3.325-0.64c1.045-0.428,1.956-1.077,2.732-1.948c0.776-0.871,1.385-1.986,1.829-3.35
		c0.443-1.36,0.665-2.976,0.665-4.845c0-3.737-0.729-6.572-2.185-8.504c-1.458-1.931-3.58-2.898-6.366-2.898
		c-2.787,0-4.925,0.968-6.414,2.898c-1.488,1.932-2.232,4.767-2.232,8.504s0.752,6.47,2.257,8.194
		C23.151,192.411,25.282,193.272,28.037,193.272z"/>
	<path d="M48.572,197.835v-31.924h6.081v11.591c1.742-2.438,4.054-3.658,6.936-3.658c1.52,0,2.874,0.294,4.062,0.878
		c1.188,0.587,2.193,1.418,3.017,2.494c0.824,1.077,1.449,2.354,1.876,3.825c0.428,1.473,0.643,3.095,0.643,4.869
		c0,1.964-0.254,3.723-0.76,5.274c-0.508,1.552-1.204,2.864-2.09,3.941c-0.888,1.077-1.957,1.901-3.207,2.471
		c-1.252,0.569-2.605,0.855-4.062,0.855c-2.915,0-5.083-1.157-6.508-3.468l-0.047,2.851H48.572z M59.642,193.416
		c1.55,0,2.818-0.656,3.8-1.972c0.981-1.313,1.473-3.017,1.473-5.106c0-4.813-1.774-7.22-5.321-7.22c-3.453,0-5.178,2.532-5.178,7.6
		c0,1.994,0.499,3.61,1.497,4.846C56.909,192.798,58.152,193.416,59.642,193.416z"/>
	<path d="M90.224,181.54c-0.159-1.076-0.562-1.86-1.211-2.352c-0.649-0.49-1.639-0.736-2.969-0.736c-1.266,0-2.226,0.15-2.874,0.452
		c-0.65,0.301-0.975,0.815-0.975,1.542c0,0.635,0.324,1.14,0.975,1.521c0.647,0.381,1.591,0.745,2.826,1.093
		c2.026,0.57,3.737,1.053,5.13,1.449c1.395,0.396,2.51,0.863,3.35,1.401c0.838,0.539,1.441,1.212,1.805,2.02
		c0.363,0.808,0.547,1.893,0.547,3.255c0,2.088-0.871,3.822-2.613,5.2s-4.322,2.067-7.743,2.067c-1.679,0-3.199-0.19-4.561-0.571
		c-1.362-0.38-2.526-0.926-3.491-1.638c-0.966-0.713-1.71-1.568-2.232-2.565c-0.522-0.997-0.8-2.114-0.832-3.35h6.366
		c0,1.123,0.435,1.991,1.306,2.601c0.871,0.611,2.003,0.915,3.396,0.915c1.171,0,2.179-0.183,3.018-0.549
		c0.838-0.364,1.258-0.928,1.258-1.689c0-0.856-0.31-1.477-0.927-1.856c-0.617-0.381-1.56-0.716-2.828-1
		c-2.28-0.507-4.116-1.04-5.509-1.595c-1.395-0.556-2.479-1.166-3.254-1.834c-0.776-0.666-1.298-1.396-1.568-2.19
		c-0.27-0.794-0.403-1.683-0.403-2.667c0-0.889,0.181-1.729,0.546-2.525c0.364-0.792,0.943-1.489,1.734-2.094
		c0.791-0.602,1.82-1.087,3.088-1.452c1.267-0.365,2.818-0.548,4.654-0.548c3.357,0,5.813,0.681,7.364,2.042
		c1.551,1.363,2.407,3.248,2.564,5.654H90.224z"/>
	<path d="M114.893,182.442h5.701v6.65c0,1.235-0.183,2.415-0.544,3.54c-0.365,1.124-0.932,2.122-1.706,2.991
		c-0.774,0.873-1.754,1.562-2.938,2.067c-1.184,0.507-2.599,0.761-4.24,0.761c-1.708,0-3.161-0.254-4.361-0.761
		c-1.201-0.506-2.188-1.187-2.961-2.043c-0.774-0.855-1.335-1.854-1.683-2.993s-0.521-2.342-0.521-3.609v-20.903h6.128v6.32h12.826
		v4.368h-12.826v9.597c0,1.49,0.275,2.638,0.825,3.445c0.551,0.808,1.456,1.211,2.714,1.211c1.227,0,2.132-0.396,2.714-1.188
		c0.582-0.793,0.873-1.916,0.873-3.373V182.442z"/>
</g>
</svg>
