<?xml version="1.0" encoding="utf-8"?>
<!-- Generator: Adobe Illustrator 16.0.0, SVG Export Plug-In . SVG Version: 6.00 Build 0)  -->
<!DOCTYPE svg PUBLIC "-//W3C//DTD SVG 1.1//EN" "http://www.w3.org/Graphics/SVG/1.1/DTD/svg11.dtd">
<svg version="1.1" id="Calque_1" xmlns="http://www.w3.org/2000/svg" xmlns:xlink="http://www.w3.org/1999/xlink" x="0px" y="0px"
	 width="250px" height="250px" viewBox="0 0 250 250" enable-background="new 0 0 250 250" xml:space="preserve">
<g>
	<path d="M211.385,95.182c0.352-7.606-1.759-12.349-6.804-14.679c1.813-3.374,0.629-8.99-0.84-12.592
		c-1.914-4.688-7.24-5.405-8.918-5.561c-2.527-0.235-5.209,0.612-7.555,1.469c-0.273-3.047,0.634-5.624-0.84-7.66
		c-0.587-0.81-5.364-6.506-10.808-6.992c-4.235-0.378-9.053,0.223-12.285,1.994c-3.384,1.854-5.209,3.521-6.942,6.644
		c-0.596-1.083-1.956-1.642-2.627-2.313c2.295-1.12,8.129-4.146,8.633-4.789c0.5-0.634,2.237-2.879,2.623-3.567
		c0.68-1.209,1.452-3.01,1.469-4.932c0.017-2.187-0.461-5.633-1.469-7.24c-1.204-1.918-5.247-9.129-13.977-6.871
		c1.981-13.511-7.79-16.978-16.722-20.247c-1.205,0.319-2.275-0.429-3.425-0.604c-6.388-0.991-13.381,0.491-17.931,2.518
		c-1.922,0.856-4.113,1.709-5.54,2.721c-0.874,0.616-1.637,1.737-2.519,2.518c-0.96,0.856-1.83,1.629-2.518,2.52
		c-1.549,2.006-2.094,4.465-3.123,6.95c-0.461,0.251-0.701-0.412-0.906-0.604c-2.082-1.969-4.806-3.74-8.261-4.433
		c-4.037-0.81-9.032-0.457-12.39,1.41c-0.894,0.5-1.876,1.419-2.921,2.115c-1.066,0.71-2.07,1.373-2.72,2.216
		c-0.449,0.584-0.621,1.272-1.007,1.914c-0.437,0.719-1.205,1.222-1.612,2.016c-1.364,2.656-1.209,5.703-0.906,9.771
		c-6.099-1.192-12.86-0.579-17.024,2.115c-2.43,1.57-4.478,5.23-5.238,8.664c-1.07,4.817,0.088,10.622,2.417,13.9
		c-3.076,0.768-6.367,3.32-7.656,6.246c-1.645,3.73,0.895,7.865,3.728,9.368c-3.883,3.122-6.598,7.151-6.145,14.202
		c0.395,6.141,4.059,9.775,8.059,12.189c-0.386,1.192-1.562,1.595-1.41,3.324c-4.126,5.699-3.941,16.201-1.712,23.27
		c1.612,5.112,4.432,9.569,8.159,12.994c1.327,1.218,2.456,2.531,3.728,3.324c2.149,1.348,4.886,2.544,7.555,3.728
		c4.843,2.148,12.109,4.344,18.938,2.417c2.888-0.814,4.814-2.732,6.749-4.533c2.846,2.896,6.195,5.289,11.182,6.044
		c-0.067,7.434,0.302,13.868-0.705,19.845c-0.961,5.704-3.043,10.847-4.936,15.614c-3.441,8.676-7.072,16.742-12.29,23.672
		c-1.167,1.549-2.573,2.934-3.425,4.936c-0.335,0.215-0.47-0.495-1.108-0.302c-0.545,0.361-0.507,1.003-1.309,1.208
		c-0.982,0.253-2.363-0.234-3.425,0.102c-0.231-1.742-0.189-3.308-0.906-4.533c-0.639-1.087-1.81-1.611-3.123-2.316
		c-1.801-0.97-3.45-2.573-6.246-1.713c-0.046,2.375,2.754,2.325,2.72,4.433c-0.025,1.52-1.691,2.333-3.123,2.216
		c-2.909-0.243-3.597-5.439-7.454-4.13c-0.819,1.885,0.852,3.303,0.504,5.036c-1.075-0.26-2.023-0.541-2.922-1.409
		c-0.94-0.911-1.179-2.184-2.417-2.217c-1.217-0.033-1.44,0.944-2.216,1.612c-2.413-0.299-4.894,0.028-6.346,1.007
		c0.327,1.036,0.617,1.763,1.41,2.519c0.68,0.646,1.831,1.057,2.015,1.914c0.449,2.114-1.565,3.424-1.511,5.742
		c0.218,0.788,1.54,0.335,2.015,0.402c-0.596,0.261-1.91,0.188-2.116,1.007c-0.243,0.961,0.734,2.539,1.813,3.022
		c1.016,0.457,2.292,0.054,3.022,0.705c0.483,1.984-2.292,1.737-2.115,3.525c0.243,2.468,7.03,0.382,7.555,0.201
		c0.08,2.095,4.608,0.55,5.036,0.403c1.314-0.458,1.545-2.049,2.417-2.216c-0.255,1.2-1.662,2.095-1.007,3.626
		c0.327,0.769,1.537,0.944,2.619,0.806c1.113-0.143,6.095-1.876,6.951-2.216c1.003-0.398,1.75-1.196,2.418-1.41
		c1.334,0.844,1.767,1.792,3.425,1.611c1.091-0.117,1.582-1.171,2.519-1.41c0.646-0.163,4.709-0.462,6.144-0.403
		c-0.247,0.135-0.516,0.253-0.789,0.361l0.255,0.76c0.33-0.107,0.671-0.208,1.013-0.31c0.899-0.266,1.801-0.533,2.489-0.928
		c0.411-0.234,0.972-0.688,1.328-1.193c0.461-0.657,0.574-1.4-0.443-1.862c-2.262-1.033-6.85,2.152-9.155,0.448
		c-1.145,0.261-1.363,1.818-2.463,1.709c-0.932-0.093-0.79-1.411-1.473-1.978c-2.003,0.269-3.59,0.937-5.151,1.659
		c-0.954,0.442-1.899,0.904-2.925,1.309c-0.827,0.322-1.75,0.882-2.757,0.718c0.524-1.696,2.132-4.294,0.197-5.662
		c-2.984,0.416-3.308,3.27-5.708,4.223c-0.277-0.542-0.181-1.084-0.395-1.528c-1.217-2.544-4.298,0.734-6.3,0.723
		c0.29-0.878,1.188-1.973,1.28-3.329c-1.2-0.672-3.769-0.097-5.217-0.537c1.754-0.319,2.305-3.446,0.688-4.314
		c-0.508-0.076-0.747,0.096-1.083,0.181c0.231-1.575,1.457-2.93,0.982-4.495c-0.344-1.142-1.788-0.94-2.263-2.069
		c1.331-0.639,3.203,0.222,4.332,0.629c0.321-0.111,0.589-0.271,0.816-0.469c0.226-0.198,0.409-0.434,0.56-0.698
		c0.523,0.442,1.188,0.929,1.939,1.35c1.813,1.016,4.124,1.65,6.137,0.359c0.05-0.525,0.143-1.008,0.096-1.62
		c0.563,0.835,1.012,1.775,1.771,2.426c2.055,0.933,4.667-0.079,6.016-2.033c0.739-1.07,1.098-2.425,0.779-3.897
		c0.65,0.961,0.583,2.967,1.536,3.957c0.055,1.512,1.255,2.07,1.783,3.464c2.082,0.033,4.688-0.042,6.132-1.13
		c1.045,0.21,1.385,1.264,2.166,1.889c2.106,1.692,7.194,1.885,8.465-0.448c-0.092,0.952-0.243,2.048,0.294,2.694
		c0.852,1.028,2.72,0.764,3.744,1.62c3.247-0.689,3.56-0.59,4.722-2.157c1.645,0.76,2.023,2.917,4.529,2.426
		c1.839-0.36,2.061-2.699,2.069-4.944c1.868,0.336,2.522-1.775,2.854-3.416c2.725-0.239,3.425-2.325,3.938-4.584
		c0.818,0.219,0.99,1.066,1.28,1.709c0.294,0.642,0.692,1.363,0.789,2.157c0.322,2.611-1.09,5.215-0.097,7.189
		c3.446,0.78,5.767-0.94,6.594-3.144c0.487,1.003,0.479,2.236,1.478,2.606c3.374,1.246,4.814-3.236,5.809-4.856
		c0.969,0.643,2.127,1.116,3.445,1.44c1.087,3.202,6.778,2.375,7.777-0.182c1.209,2.389,7.073,2.213,9.154,0.63
		c1.838,1.041,4.392,0.588,6.423-0.364c0.878-0.411,1.658-0.915,2.24-1.432c1.414-1.255,2.035-3.127,3.052-4.315
		c0.281,1.931-0.341,4.685,1.28,5.39c1.184,0.063,1.922,0.852,2.522,0.382c1.788,1.419,5.376-1.482,6.296,0.524
		c3.765,1.52,6.951-1.348,9.1-3.06c0.151,1.066-1.075,1.36-1.281,2.245c-0.667,2.9,3.551,4.71,5.764,3.366
		c-0.139,2.854,3.894,1.297,4.969,2.746c-0.999-0.224-1.792,0.116-2.262,0.629c-0.311,2.736,2.191,2.913,3.739,3.953
		c-1.31-0.171-1.527,0.701-2.069,1.352c-0.496,0.596-1.314,1.138-1.868,1.797c-0.591,0.705-0.822,1.737-1.771,1.889
		c-1.121-0.84-0.382-3.723-2.069-3.958c-0.944-0.13-1.646,0.663-1.872,1.62c-1.062,0.5-0.055,1.415-1.305,1.742
		c0.101-1.275-0.944-2.581-1.746-3.27c-1.696-0.011-2.591,0.938-3.31,2.046c-0.682,1.053-1.205,2.248-2.105,2.898
		c-0.402,0.289-1.044,0.503-1.872,0.269c0-0.08-1.397,0.02-1.62,0.401c-0.222,0.383-0.493,0.629-0.069,0.966
		c0,0,1.892,0.45,3.097,0.501c1.205,0.052,2.282,0.299,3.168-0.231c0.886-0.53,1.179-2.997,2.619-3.425
		c-0.34,0.961-0.944,1.998-0.604,3.324c2.888,1.544,4.65-1.699,6.246-2.418c0.281,1.129-0.554,2.195-0.202,3.425
		c0.353,0.047,0.68,0.072,0.99,0.072c4.135,0,4.912-4.034,7.371-5.915c1.246,2.989,3.832-2.115,1.813-3.324
		c1.054-0.188,1.683-0.81,1.813-1.712c0.297-2.035-1.469-2.833-3.123-3.525c-1.747-0.73-3.4-1.478-4.534-2.115
		c0.408-0.668,2.111-0.038,2.317-0.907c-0.537-3.845-4.831-0.902-7.555-1.31c0.139-2.136,0.73-5.779-1.209-5.942
		c-0.94-0.08-2.183,1.381-3.324,2.014c-1.372,0.765-3.655,1.579-5.037,0.906c-0.785-0.381-0.482-0.969-1.309-1.611
		c-1.763-0.151-2.59,0.634-3.829,1.008c-0.213-1.171-0.066-2.46-1.007-2.72c-2.3-0.634-1.557,2.819-3.223,3.224
		c-0.458-1.058,0.05-3.077-0.604-3.929c0.407-1.326,0.587-3.345-0.806-3.526c-2.061-0.269-3.055,3.375-4.13,4.836
		c-1.372,1.868-2.9,2.375-4.533,3.223c-4.244-8.197-8.57-17.019-12.189-26.392c-1.401-3.635-2.892-7.076-3.727-11.584
		c-0.395-2.137-1.024-4.454-1.108-6.548c-0.033-0.811,0.16-1.611,0.101-2.418c-0.076-1.062-0.407-2.241-0.302-3.727
		c0.193-2.691,1.268-5.364,1.915-7.958c0.667-2.674,1.439-5.246,2.619-7.253c0.168-0.173,0.566,0.386,0.907,0.705
		c1.389,1.302,4.776,4.219,7.097,4.559c4.596,0.676,7.69-3.194,9.322-6.372c-0.453,5.008,7.375,8.105,8.042,8.42
		c2.224,1.036,6.573,0.398,9.687,0.243c3.181-0.159,6.224-1.477,8.361-3.022c4.47-3.235,7.022-8.985,5.037-16.218
		c5.112-0.428,9.851,0.252,13.331-2.043c1.716-1.139,3.899-2.732,5.348-4.093c3.643-3.416,6.879-10.695,4.088-17.637
		c-0.605-1.498-2.124-4.944-2.317-5.339c-0.335-0.68-1.876-2.641-2.115-3.021c-0.538-0.865-1.666-1.311-1.914-2.217
		C208.056,107.177,211.066,102.061,211.385,95.182z M123.839,152.485c-0.73,4.298-0.776,8.5-1.994,12.402
		c-0.125,0.407-0.264,0.811-0.416,1.21c-0.407,1.057-1.086,2.652-2.015,2.72c-1.246,0.092-4.843-11.287-5.439-13.397
		c-0.004-0.021-0.012-0.047-0.021-0.071c-0.243-0.798-1.154-2.972-0.986-3.556c-0.034-0.139,0.004-0.243,0.105-0.311
		c1.313-3.479,5.91,0.709,10.766,0.688c-0.017,0.105-0.033,0.211-0.05,0.315C123.806,152.485,123.822,152.485,123.839,152.485z
		 M191.037,233.185c-0.634-0.474-1.31-0.905-2.216-1.107C189.614,231.993,190.822,232.354,191.037,233.185z"/>
	<g id="XMLID_24_">
		<path fill="#D09111" d="M146.442,222.067c-0.506,0.159-0.688-0.971-1.467-1.148c-1.592-0.363-2.487,1.547-3.847,1.724
			c-1.081,0.139-1.736-0.454-2.752-0.767c0.032-1.498,0.538-3.467-0.821-3.731c-2.812-0.541-2.311,5.204-5.591,4.784
			c-1.977-0.251-2.227-2.446-4.673-2.58c0.52-2.637-0.603-3.287-2.111-2.108c-0.696,0.549-1.421,1.684-2.107,2.965
			c-0.445,0.84-1.364,2.996-2.2,2.875c-1.085-0.16-0.487-3.551-1.74-3.832c-1.74-0.389-1.569,1.711-2.106,2.78
			c-0.576,1.125-1.532,1.121-2.385,1.528c-0.427-1.56,0.009-3.321-0.093-4.784c-0.232-3.438-2.459-5.442-3.666-7.849
			c-3.763-1.126-1.072,5.238-3.021,6.316c-0.552-0.524-0.39-1.334-1.193-1.434c-1.805-0.229-0.821,2.962-1.74,4.018
			c-1.012-0.705-1.652-4.589-3.666-2.295c-0.121,1.598,1.406,3.598,1.188,5.741c-0.19,1.896-3.931,0.294-4.854,0.477
			c-0.673,0.134-0.673,1.086-1.193,1.532c-1.21,1.039-3.322,0.333-4.399-0.576c0.019-2.147,0.571-4.385-0.826-4.784
			c-2.088-0.593-1.564,1.451-2.474,2.681c-0.361,0.489-1.354,0.84-2.018,0.766c-0.311-0.034-1.688-0.397-1.92-0.48
			c-0.817-0.281-1.184-1.299-1.652-1.723c0.385-0.688,0.77-1.377,1.192-2.104c0.404-0.692,1.787-3.55,2.566-4.018l0.014-0.043
			c-1.48-0.39-2.802-0.947-3.795-1.554c-0.144-0.841,0.278-1.412,0.891-1.559c1.169-0.286,2.645,0.445,4.172,1.099
			c0.417-0.774,0.872-1.484,1.35-2.155c-1.768-0.281-3.215-0.822-3.628-1.957c0.381-0.316,0.793-0.856,1.448-0.831
			c1.146,0.052,2.404,0.402,3.759,0.71c1.295-1.632,2.626-3.251,3.726-5.368c0.348-0.675,0.181-2.515,0.589-3.178
			c0.376-0.61,0.928-1.212,1.188-1.818c0.353-0.805,1.578-3.866,1.926-4.493c0.608-1.108,2.743-6.767,3.025-8.04
			c0.121-0.549,0.589-2.342,0.733-2.774c0.376-1.165,0.255-1.854,0.497-3.126c0.431-0.261,0.431-0.161,0.97,0.061
			c1.837,0.763,5.327,0.511,6.691-0.381c-0.148-1.606-1.573-0.87-2.752-1.052c-0.797-0.126-3.875-1.918-5.04-2.108
			c0.121-0.351,0.084-0.87,0.181-1.242c0.901,0.428,1.629,1.042,2.478,1.532c1.527-0.58,4.506,0.472,4.854-1.147
			c0.181-0.84-0.371-1.523-0.914-1.628c-0.78-0.151-2.702,0.359-3.207,0.285c-0.338-0.047-2.283-1.121-3.025-1.242
			c0-0.29,0-0.575,0-0.861c1.434,0.728,2.004,2.043,3.939,1.243c0.91-0.377,1.518-1.147,2.2-1.818c-0.079-0.477,0.014-0.572,0-1.147
			c-0.288-0.121-0.775-0.654-1.281-0.576c-0.617,0.096-3.67,0.078-4.858,1.147c0.404-3.779,0.844-7.896,0.64-12.533
			c2.891-0.559,5.351-2.069,7.425-3.16c0.167,1.069,3.954,13.208,4.858,15.026c0.26,0.524,1.503,2.892,2.106,3.156
			c1.1,0.489,2.571-0.321,3.026-1.052c0.557-0.896,2.84-8.937,3.48-11.866c0.316-1.451,1.425-6.525,1.741-7.753
			c1.897-1.304,4.176-2.209,4.398-5.262c0.482,0.685,2.145,0.758,2.933,0.286c-1.253,3.035,2.056,7.841,2.385,8.516
			c-1.875,2.637-2.357,6.676-3.485,10.338c-1.113,3.616-1.74,7.105-1.554,11.481c0.185,4.429,1.15,8.416,2.565,12.156
			c0.714,1.9,1.049,3.784,1.555,5.741c0.487,1.856,1.248,3.632,1.926,5.359C139.857,209.72,143.11,216.43,146.442,222.067z"/>
	</g>
	<g id="XMLID_23_">
		<path fill="#5FAE30" d="M206.77,87.018c1.993,3.465,1.971,8.396,0.598,12.067c-1.021,2.741-4.067,8.923-7.767,8.305
			c-0.307,2.172,1.61,2.119,2.77,3.465c1.512,1.755,2.186,4.162,2.779,6.351c1.068,3.946,0.342,7.107-1.167,10.891
			c-1.117,2.8-2.825,7.443-5.71,8.94c-2.007,1.04-4.187,1.847-6.346,2.504c-2.926,0.892-4.658,3.442-8.072,3.401
			c0.116,3.399,2.229,5.7,0.185,9.016c-1.339,2.174-3.599,3.551-6.01,4.251c-5.5,1.598-11.972,0.301-16.751-2.735
			c-1.028-0.652-1.994-1.406-2.856-2.268c-0.714-0.713-1.786-3.053-2.913-1.96c-0.835,0.81-0.366,2.408-1.217,3.38
			c-1.09,1.243-2.755,2.274-4.374,2.637c-3.612,0.808-8.021-2.118-10.032-4.908c-2.515-3.489-2.679-8.021-1.037-11.916
			c-1.589,0.286-1.864,0.688-2.856,1.853c-0.734,0.862-2.768,0.62-3.343-0.33c-0.363-0.602-1.211-2.523-2.172-1.161
			c-0.694,0.981,0.135,2.481-0.791,3.396c-0.723,1.356-3.723,2.708-4.98,3.572c-2.232,1.536-3.702,1.76-6.284,0.619
			c-1.154-0.51-4.355-1.813-4.769-3.199c-1.501,0.167-1.725,1.191-1.857,2.486c-0.187,1.834-1.237,2.845-2.812,3.716
			c-4.546,2.51-12.649,2.521-16.876-0.741c-1.312-1.012-2.821-5.154-3.963-1.361c-1.011,3.362-6.375,4-9.21,4.082
			c-7.225,0.21-15.351-3.004-20.928-7.563c-5.323-4.352-10.698-11.285-12.247-18.112c-0.842-3.714-0.645-7.681,0.172-11.381
			c0.397-1.801,0.946-3.573,1.684-5.264c0.681-1.56,2.299-2.869,2.746-4.459c0.417-1.484-1.286-1.805-2.238-2.34
			c-1.472-0.835-2.779-2.012-3.814-3.346c-0.993-1.279-1.989-2.993-1.868-4.673c0.137-1.91-0.881-3.553-0.574-5.568
			c0.518-3.405,2.803-6.019,5.159-8.365c4.248-1.116-0.435-2.985-1.462-4.795c-2.396-4.221,0.616-10.661,5.828-9.79
			c1.237,0.205,2.485-0.619,1.678-1.97c-0.525-0.882-1.596-1.312-2.06-2.236c-1.663-3.326-2.304-6.838-1.469-10.531
			c1.425-6.303,8.105-10.235,14.292-10.541c1.721-0.084,3.493,0.123,5.103,0.755c1.002,0.394,2.566,0.971,2.697-0.645
			c0.092-1.132-0.379-2.241-0.642-3.32c-0.442-1.822,0.045-4.055,0.681-5.773c2.364-6.391,11.649-9.191,17.831-8.515
			c3.208,0.351,6.287,1.702,8.582,3.995c0.648,0.647,1.127,3.386,2.513,2.529c0.944-0.583,0.595-3.408,0.958-4.39
			c1.963-5.312,5.009-8.919,10.397-10.877c5.178-1.883,11.081-3.066,16.602-2.625c10.316,0.824,23.295,7.164,19.957,19.581
			c5.296-1.116,11.957,0.505,13.817,6.209c1.88,5.765-1.923,13.426-7.315,15.943c-1.23,0.574-2.539,0.963-3.854,1.291
			c-0.856,0.215-4.179,0.805-2.109,2.178c1.023,0.679,2.532,0.542,3.656,1.087c1.505,0.727,1.231,1.837,1.898,3.123
			c0.547,1.057,1.813,0.588,2.238-0.288c0.688-1.422,1.12-2.316,2.411-3.362c3.023-2.448,5.125-3.837,9.15-4.155
			c6.181-0.488,13.138,0.943,15.407,7.42c0.466,1.331,0.75,2.755,0.686,4.169c-0.055,1.197-1.137,3.504,1.169,2.88
			c1.144-0.31,1.806-1.446,2.879-1.886c1.446-0.593,3.168-0.526,4.676-0.244c4.061,0.757,7.902,5.81,8.821,9.629
			c0.345,1.433,0.104,2.872-0.657,4.135c-0.929,1.544-2.029,2.428,0.333,3.299C203.98,83.412,205.539,84.891,206.77,87.018
			C208.541,90.097,206.419,86.411,206.77,87.018z"/>
	</g>
	<path fill="#FFFFFF" d="M188.82,232.077c0.793-0.084,2.002,0.277,2.216,1.107C190.402,232.711,189.727,232.279,188.82,232.077z"/>
	<path d="M192.077,130.438c-0.252-2.43-2.162-5.599-3.471-6.732c-1.331-1.149-3.773-1.825-5.981-1.657
		c-1.834,0.138-3.505,0.86-4.227,2.384c-2.271-3.396-5.296-6.598-5.263-11.912c0.885,1.116,0.831,2.556,1.158,3.731
		c0.965,3.459,3.509,5.746,8.105,5.591c0.071-0.004,0.143-0.009,0.214-0.013c1.259-0.113,1.956-0.797,3.467-0.504
		c0.705-7.525-5.561-12.897-12.629-10.979c-0.852-0.765-1.062-2.279-2.632-1.969c-1.402,0.281-1.02,2.334-0.21,3.211
		c-2.09,4.646-3.479,9.956-6.208,14.191c-0.503,0.775-2.204,3.765-2.946,3.933c-0.58,0.13-1.759-0.433-2.317-0.517
		c-3.731-0.563-7.354,0.164-9.154,2.175c-0.991,1.107-2.174,3.303-1.896,5.695c0.05,0.411,0.272,2.669,0.423,3.315
		c0.218,0.961,3.971,4.218,4.735,4.658c0.591,0.341,1.313,0.651,2.111,0.907c2.631,0.849,6.035,1.1,7.887-0.075
		c0.453-0.29,1.032-0.5,1.368-0.727c2.137-1.448,3.723-4.86,3.685-7.354c-0.054-3.475-2.304-4.579-4.419-6.833
		c3.92-3.702,5.959-9.259,7.576-15.228c0.94,4.361,2.812,7.799,4.734,11.186c-1.507,1.868-3.379,2.603-3.681,5.074
		c-0.601,4.869,4.143,8.944,9.024,8.957c0.327,0.004,0.65-0.013,0.973-0.051c2.304-0.252,4.328-1.628,5.998-3.001
		C190.906,135.919,192.463,134.102,192.077,130.438z M183.381,117.141c0.004,0.776,0.029,1.574-0.101,2.217
		c-5.339,0.495-7.996-2.54-7.958-7.757C179.796,111.659,181.605,114.384,183.381,117.141z M166.357,136.18
		c0.147,3.328-2.569,6.988-5.54,7.555c-1.658-0.831-4.332-0.344-5.843-1.31c-0.335-0.214-2.405-2.405-2.619-2.921
		c-0.617-1.495-0.545-5.301,0.302-6.447c0.243-0.327,2.304-2.019,2.72-2.217c1.646-0.789,4-0.629,5.943,0
		c-0.168,0.438-0.286,0.925-0.604,1.209c-1.918-0.546-4.143-0.356-3.324,1.914c0.533,1.474,2.711,1.868,4.533,1.612
		c-0.135-1.646,0.251-2.771,0.806-3.728C163.969,132.951,166.269,134.228,166.357,136.18z M188.417,132.956
		c-1.1,1.775-4.042,3.773-5.742,4.029c-3.232,0.491-6.594-1.372-7.555-2.82c-1.801-2.716-0.651-4.804,1.737-5.689
		c0.588,0.219,1.968,0.507,2.56,0.725c0.995-0.999-0.038-2.418-0.067-3.296c-0.063-1.888,2.195-2.791,4.534-2.316
		c1.049,0.214,2.115,1.352,2.82,2.015C188.401,127.193,190.189,130.094,188.417,132.956z"/>
	<path fill="#96A917" d="M183.381,117.141c0.004,0.776,0.029,1.574-0.101,2.217c-5.339,0.495-7.996-2.54-7.958-7.757
		C179.796,111.659,181.605,114.384,183.381,117.141z"/>
	<path d="M178.949,79.165c1.259,1.871,1.435,4.746,2.115,7.252c-1.415,0.483-2.388,0.953-3.727,0.906
		c-0.856-0.028-3.413-0.62-3.928-0.704c-1.411-0.231-4.185-1.771-5.239-2.619c-0.843-0.681-1.615-1.923-2.417-3.123
		c-0.529-0.798-1.663-2.972-2.62-2.921c-1.242,0.066-1.418,2.552-2.014,3.223c2.699,0.701,5.023,1.331,6.484,2.997
		c0.34,0.387,0.629,0.822,0.869,1.335c0.332,0.701,1.553,3.744,1.813,4.533c1.591,4.775,1.436,11.664-2.116,14.808
		c-1.586,1.406-3.962,2.716-6.346,3.123c-4.033,0.688-9.738,0.154-12.591-1.914c-0.655-0.475-2.586-2.175-3.022-2.519
		c-1.494-1.171-3.727-4.915-4.029-7.354c-0.11-0.886-0.366-3.249-0.404-3.627c-0.323-3.093,1.784-5.305,3.324-7.051
		c2.9-3.291,6.456-5.305,13.096-4.734c1.229-2.464,2.022-5.364,3.123-7.958c2.703-0.508,4.961,1.646,3.123,3.525
		c2.665,0.05,5.368-0.663,8.663-0.302c2.149,0.235,3.06,0.709,4.332,1.813C177.975,78.321,178.617,78.674,178.949,79.165z"/>
	<path fill="#96A917" d="M178.253,81.229c0.612,0.969,2.099,4.34,0.415,4.444c-3.761,0.235-7.867-0.567-10.345-3.604
		c-1.324-1.623-3.207-3.708-0.158-4.67c2.152-0.679,5.234-0.624,7.048,0.352C177.026,78.728,177.425,79.916,178.253,81.229z"/>
	<path d="M166.466,236.447c0.615-0.402,1.527-0.651,2.333-0.627c1.055,0.034,1.927,0.539,1.705,1.798
		c-0.089,0.502-0.452,0.843-0.835,1.167c-0.447,0.379-1.19,1.226-1.29,1.79l-0.78,0.139c-1.948,0.131-3.496-0.511-5.371-0.275
		c-1.729,0.218-3.434,0.831-5.138,1.008c-0.797,0.079-1.696-0.131-2.518,0c-1.05,0.163-2.443,1.321-3.627,0.402
		c-0.394-0.81,0.534-1.839,0.101-2.316c-0.298-0.038-0.391,0.101-0.503,0.2c-0.435,0.389-2.69,2.537-5.562,3.325
		c-0.648,0.178-6.471-1.626-6.471-1.626s0.787,1.175,0.262,1.1c-2.244-0.324-4.491-0.671-5.658-0.729
		c-1.735-0.088-1.378-1.741-1.41-1.867c-1.095-0.009-2.019-0.319-3.324-0.101c-1.192,0.201-2.586,1.977-2.619-0.102
		c-1.293,0.542-1.977,1.927-3.425,2.519c-0.957,0.395-2.044,0.5-3.252,0.5c-0.87,0-1.801-0.055-2.792-0.097
		c-0.23-0.55,1.381-1.578,1.008-1.611c-1.486,0.746-4.466,1.511-6.346,0.604c-0.034-1.679,1.183-2.106,1.41-3.525
		c-1.712,0.719-2.002,2.95-3.929,3.828c-2.472,1.129-6.459-0.252-9.771,0.201c-0.86,0.118-1.561,0.407-2.27,0.407
		c-0.311,0-0.625-0.055-0.953-0.205c0.004-0.882,1.011-1.797,0.705-2.317c-2.283,0.458-4.416,2.145-7.152,1.209
		c-0.113-0.785,0.437-1.439,0.101-2.115c-2.439,1.271-6.002,2.875-9.536,2.875c-1.31,0-2.619-0.223-3.861-0.76
		c0.873-2.842,4.596-2.829,7.27-3.87l0.255,0.765c-0.696,0.222-1.339,0.478-1.817,0.826c1.364,0.021,2.652-0.521,3.941-0.99
		c0.334-0.123,0.68-0.223,1.025-0.313c0.249-0.063,0.497-0.123,0.743-0.182c0.754-0.18,1.478-0.356,2.068-0.673
		c0.227-0.122,0.422-0.29,0.613-0.464c0.539-0.487,1.035-1.011,2.048-0.615c0.281,0.697-0.046,1.562,0,2.339
		c2.615-0.193,4.285-1.242,6.792-1.533c0.449,0.433,0.562,1.172,0.495,2.069c1.054-0.054,2.069,0.563,3.148,0.719
		c3.899,0.563,6.443-0.475,7.878-2.158c0.218-2.837,5.432-3.072,4.823,0.361c-0.088,0.491-0.437,0.747-0.689,1.259
		c1.13-0.264,2.422-0.479,3.644-1.347c1.221-0.873,1.646-1.897,3.148-1.801c0.726,0.05,1.67,0.742,1.675,1.439
		c0,0.466-0.466,0.84-0.789,1.167c-0.332,0.34-0.86,0.638-0.786,0.902c0.979-0.193,1.856-0.84,2.951-1.527
		c1.306-0.823,3.316-2.317,3.941-0.542c2.187-0.135,4.759-0.445,6.888-0.088c0.033,1.137-0.856,1.909-1.179,2.426
		c1.431-0.701,2.606-1.638,4.134-2.25c0.832,0.319,0.848,1.386,0.789,2.519c1.658,0.067,2.284-1.334,3.249-2.064
		c1.356-1.033,2.825-1.952,4.923-2.07c0.039,1.23-0.024,2.087-0.394,2.788c-0.307,0.574-0.995,0.944-0.886,1.347
		c0.785-0.356,1.398-0.339,1.868-0.898c0.319-0.378,0.243-0.919,0.495-1.347c0.613-1.05,1.885-1.242,3.052-1.801
		c1.028,0.532,3.126,1.355,3.412,2.564c3.402,0.253,5.378-0.609,7.8-1.213c0.588-0.147,1.202-0.279,1.87-0.376
		C164.813,236.51,165.592,236.445,166.466,236.447z"/>
	<path fill="#E30613" d="M169.457,98.486c-1.249,7.821-11.952,9.782-18.034,6.335c-2.407-1.364-4.785-3.342-6.482-5.539
		c-1.3-1.683-1.367-4.873-1.439-6.915c-0.085-2.411,2.16-5.725,4.028-7.131c2.81-2.114,6.585-2.279,9.949-1.932
		c-0.006,0.331-0.213,2.136-0.443,2.075c-0.884-0.232-0.976-1.037-2.015-0.543c-1.027,0.487-1.612,0.987-1.256,2.308
		c0.189,0.675,0.951,1.203,1.491,1.576c2.748,1.903,8.031,1.082,8.222-2.991c-1.519-0.149-2.604,1.224-4.146,0.81
		c0.451-0.652,0.443-3.741,1.309-3.638C168.87,83.896,170.528,91.771,169.457,98.486z"/>
	<path fill="#E50066" d="M161.201,145.413c-2.757,0.324-3.648,0.324-6.648-1.054s-3.495-2.343-4.541-4.216
		c-1.045-1.874-1.054-5.351,0.892-7.621c1.946-2.271,2.27-1.936,3.649-2.258s4.824-0.054,6.768,0.575
		c-0.168,0.438-0.286,0.925-0.604,1.209c-1.918-0.546-4.143-0.356-3.324,1.914c0.533,1.474,2.711,1.868,4.533,1.612
		c-0.135-1.646,0.251-2.771,0.806-3.728c1.238,1.104,3.329,0.872,4.388,4.729C168.179,140.433,163.958,145.089,161.201,145.413z"/>
	<path d="M139.36,44.916c0.214,2.09,0.071,5.564-1.712,6.346c-1.263,0.554-2.203-0.168-3.224-0.806
		c-0.768,7.147-4.34,13.569-11.584,14.203c-1.36,0.117-2.628,0.017-3.626-0.403c-2.162,1.268-4.852-0.067-5.641-1.712
		c-1.864-0.021-6.271-2.04-6.85-2.519c-1.876-1.554-3.492-5.554-3.727-8.764c-0.235-3.229,0.264-7.156,2.015-9.066
		c0.499-0.542,3.375-2.926,4.029-3.324c2.732-1.658,7.903-2.01,10.476-0.101c0.772-1.813,0.927-4.613,0.604-6.95
		c0.874,0.23,2.418-1.066,3.626-0.303c0.433,0.272,2.925,3.908,4.231,4.23c1.217,0.303,2.98-0.327,4.331,0.202
		C135.138,37.062,138.987,41.297,139.36,44.916z M122.84,38.368c0.974-0.169,2.288,0.284,2.72,0c-0.277-1.033-0.55-2.07-1.41-2.52
		C123.843,36.819,123.231,37.482,122.84,38.368z"/>
	<path fill="#96A917" d="M137.95,44.613c0.186,1.105,0.486,3.183-0.302,4.13c-0.47,0.563-1.213,0.465-1.823,0.228
		c-0.386-0.149-0.791-0.191-1.146-0.398c-0.503-0.293-0.564-0.889-0.721-1.414c-0.441-1.478-1.174-2.89-1.791-4.342
		c-0.69-1.626-1.513-3.041-3.299-3.556c-0.726-0.21-1.474-0.407-1.998-0.994c0.021-0.664,0.751-0.624,1.108-1.007
		c1.523,0,3.213,0.168,4.539,0.84C135.019,39.367,137.439,41.553,137.95,44.613C138.147,45.788,137.765,43.505,137.95,44.613z"/>
	<path fill="#FFFFFF" d="M136.338,242.353c-0.021,0.289,0.025,0.512,0.202,0.604c-0.374,0.236-1.176,0.034-1.712,0.102
		C135.314,242.806,135.768,242.521,136.338,242.353z"/>
	<path fill="#96A917" d="M135.629,40.626c-0.298-0.189-0.688-0.294-1.003-0.546c-0.076-0.063-0.138-0.139-0.193-0.223
		C134.97,40.181,135.39,40.458,135.629,40.626z"/>
	<path fill="#F0A400" d="M132.097,50.354c0.158,2.391,0.122,5.569-1.437,7.556c-1.215,1.546-3.427,2.492-5.273,3.012
		c-1.854,0.522-3.78,0.904-5.697,1.102c-2.001,0.207-4.031,1.202-4.537-1.401c-3.074,0.845-4.96-1.645-7.253-3.198
		c-2.65-1.797-3.294-5.595-2.848-8.586c0.465-3.119,2.601-6.051,5.301-7.639c2.864-1.683,5.479-0.674,8.188,0.659
		c-2.052,2.712-2.437,6.863-1.417,9.958c1.252-0.158,1.197-1.469,0.668-2.352c-0.72-1.199-0.288-2.882,0.165-4.13
		c0.862-2.376,2.692-4.136,5.245-4.422c2.163-0.242,4.731,0.309,6.329,1.868C131.358,44.565,131.937,47.926,132.097,50.354
		C132.279,53.124,131.932,47.85,132.097,50.354z"/>
	<path fill="#5FAE30" d="M125.56,38.368c-0.432,0.284-1.746-0.169-2.72,0c0.391-0.886,1.003-1.549,1.31-2.52
		C125.01,36.298,125.283,37.335,125.56,38.368z"/>
	<path fill="#FFFFFF" d="M123.839,152.17c-0.017,0.105-0.033,0.211-0.05,0.315c-4.461,0.009-9.863-1.62-10.715-1.003
		C114.387,148.003,118.983,152.191,123.839,152.17z"/>
	<path fill="#FFFFFF" d="M113.073,151.482c0.852-0.617,6.254,1.012,10.715,1.003c-0.684,4.205-0.755,8.546-1.943,12.402
		c-0.125,0.407-0.264,0.811-0.416,1.21c-0.407,1.057-1.086,2.652-2.015,2.72c-1.246,0.092-4.843-11.287-5.439-13.397
		c-0.004-0.021-0.012-0.047-0.021-0.071c-0.227-0.802-0.844-2.968-0.986-3.556C113.002,151.685,113.036,151.579,113.073,151.482z"/>
	<path d="M120.309,117.707c1.003,2.725,0.625,5.893,0.223,8.563c-0.391,2.628-1.054,5.415-2.115,7.244
		c-0.454,0.772-7.644,6.498-8.256,6.804c-1.012,0.513-2.652,0.873-4.012,1.318c-2.233,0.73-3.853,1.301-6.917,1.099
		c-3.971-0.264-9.226-1.88-11.597-4.062c-0.541-0.499-0.692-0.945-1.338-1.978c-1.763-0.873-2.993-1.292-2.678-3.399
		c0.155-1.032,1.301-2.707,3.904-2.309c0.999,0.155,1.561,1.226,2.791,1.428c2.027,0.335,4.642-0.609,6.132-1.096
		c2.006-0.659,11.87-5.209,13.607-8.013c0.756-1.222,1.158-2.909,1.893-4.722c0.906-2.225,0.986-8.416,1.116-9.44
		c0.193-1.498,2.585-3.223,4.907-2.417c1.427,0.499,1.838,2.141,1.784,3.735c-0.05,1.65-0.919,3.4-0.781,4.718
		C119.067,116.083,120.045,116.985,120.309,117.707z M117.3,123.688c0.273-3.219-0.438-4.727-1.612-6.447
		c0.524-1.657,0.444-3.92,0.604-5.942c-0.185-0.177-1.213-0.454-1.208,0.101c-0.319,2.665-0.156,5.268-0.605,7.252
		c-0.533,2.363-2.128,4.483-3.525,5.943c-0.605,1.855-2.338,2.729-4.13,4.03c-1.222,0.89-2.548,1.867-3.929,2.618
		c-1.415,0.773-3.261,1.218-4.835,1.713c-2.417,0.764-5.313,1.788-7.756,1.007c-0.738-0.235-1.255-1.309-2.116-1.007
		c-0.172,0.848,0.559,1.562,1.713,1.41c0.596,1.087,1.271,2.146,2.316,2.82c1.146,0.743,2.707,0.73,4.332,1.208
		c1.759,0.518,2.498,1.076,4.432,0.908c3.161-0.278,6.48-1.104,8.965-2.922c2.141-1.565,4.718-3.715,5.943-6.044
		C116.842,128.528,117.115,125.879,117.3,123.688z"/>
	<path fill="#F5B51B" d="M115.688,117.241c1.174,1.721,1.885,3.229,1.612,6.447c-0.186,2.19-0.458,4.84-1.411,6.648
		c-1.226,2.329-3.803,4.479-5.943,6.044c-2.485,1.817-5.805,2.644-8.965,2.922c-1.935,0.168-2.673-0.391-4.432-0.908
		c-1.625-0.478-3.186-0.465-4.332-1.208c-1.045-0.675-1.721-1.733-2.316-2.82c-1.155,0.151-1.885-0.563-1.713-1.41
		c0.861-0.302,1.377,0.771,2.116,1.007c2.443,0.781,5.339-0.243,7.756-1.007c1.574-0.495,3.421-0.939,4.835-1.713
		c1.381-0.751,2.707-1.729,3.929-2.618c1.792-1.302,3.525-2.175,4.13-4.03c1.397-1.46,2.992-3.58,3.525-5.943
		c0.449-1.984,0.286-4.587,0.605-7.252c-0.005-0.555,1.024-0.277,1.208-0.101C116.133,113.321,116.213,115.584,115.688,117.241z"/>
	<path fill="#FFFFFF" d="M112.968,151.793c0.143,0.588,0.76,2.754,0.986,3.556C113.711,154.551,112.801,152.377,112.968,151.793z"/>
	<path d="M96.242,214.445c-0.533,0.05-1.058,0.024-1.573-0.055c0.566-0.063,1.128-0.177,1.678-0.345
		c0.13-1.036-0.625-1.188-1.108-1.611c-1.31,0.864-2.875,0.252-4.386-0.445c-1.381-0.634-2.716-1.343-3.774-1.065
		c-0.554,0.143-0.936,0.696-0.805,1.511c0.898,0.588,2.094,1.129,3.433,1.507l-0.013,0.042c0.525,1.116,1.289,1.465,2.817,1.855
		c1.104,0.28,1.716,0.482,2.82,0.369c1.499-0.151,3.509,0.398,3.896-1.112C99.017,213.681,97.338,214.344,96.242,214.445z"/>
	<path d="M97.557,208.305c-1.423,0.159-2.783-0.109-4.055-0.42c-1.225-0.299-2.363-0.638-3.4-0.688
		c-0.591-0.025-0.965,0.5-1.309,0.806c0.374,1.1,1.683,1.624,3.282,1.897c0.587,0.101,1.217,0.168,1.855,0.218
		c3.392,0.265,7.812,0.315,8.26-2.316C100.528,207.054,99.282,208.111,97.557,208.305z"/>
	<path d="M91.513,90.749c0.09,1.166,0.014,2.341-0.045,3.506c-0.036,0.707,0.276,1.241-0.571,1.229
		c-0.481-0.007-0.962-0.035-1.44-0.093c-1.69-0.204-3.339-0.793-4.621-1.939c-2.617-2.338-2.992-5.939-3.488-9.195
		c-0.145-0.949-1.728-4.926-2.657-2.603c-0.403,1.007-1.007,1.528-0.202,2.385c0.786,0.836,1.648,1.546,1.863,2.733
		c0.354,1.961-0.188,3.979,0.178,5.944c0.276,1.481,0.957,2.93,1.435,4.353c1.375,4.095,3.003,8.075,1.786,12.438
		c-1.036,3.716-5.289,6.085-9.014,4.561c-1.357-0.557-3.565-0.982-5.112-0.848c-2.252,0.197-4.502,1.308-6.729,0.352
		c-3.257-1.396-5.69-5.925-4.923-9.408c0.829-3.767,5.367-4.698,7.343-7.647c0.8-1.194,0.938-2.973,1.24-4.345
		c0.423-1.928,0.138-4.318,1.08-6.062c0.898-1.662,2.658-2.605,4.368-3.236c0.949-0.351,1.925-0.62,2.906-0.868
		c0.903-0.229,0.943-1.321,1.054-2.158c0.159-1.2,0.092-3.13,1.26-3.877c1.763-1.128,4.074,1.045,2.707,2.791
		c1.373,0.12,2.324,1.079,3.526,1.611c1.388,0.619,2.565,0.744,3.786,1.792C89.703,84.281,91.263,87.523,91.513,90.749
		C91.621,92.159,91.177,86.392,91.513,90.749z M89.799,93.771c0.675-2.53-0.238-4.653-1.41-6.85
		c-0.955-1.787-1.906-3.655-4.118-3.979c-2.045-0.298-0.295,5.665,0.211,6.661C85.331,91.267,87.584,94.264,89.799,93.771
		C90.593,90.795,88.536,94.052,89.799,93.771z"/>
	<path fill="#96A917" d="M88.39,86.921c0.999,1.872,2.204,3.874,1.41,6.85c-1.263,0.281-2.82-0.948-3.828-2.015
		c-1.099-1.162-2.065-2.967-2.417-4.835c-0.201-1.058-0.188-2.641-0.101-3.728c0.055-0.146,0.155-0.247,0.302-0.302
		C86.458,83.038,87.269,84.822,88.39,86.921z"/>
	<path fill="#FFD000" d="M81.563,104.811c0.164,2.693,0.472,5.721-2.083,7.365c-1.12,0.72-2.599,1.314-3.953,1.042
		c-1.458-0.296-2.01-1.816-3.663-1.883c-2.799-0.114-5.669,2.537-8.437,1.258c-1.579-0.729-2.246-1.417-2.784-3.009
		c-0.5-1.476-0.922-3.064-0.795-4.637c0.261-3.253,3.616-3.635,5.361-5.863c1.015-1.295,1.583-2.894,2.604-4.17
		c1.247-1.558,1.272-3.22,1.566-5.136c0.362-2.36,1.089-5.218,3.639-6.028c1.83-0.581,0.821,0.217,0.845,1.266
		c0.042,1.865,2.305-0.431,2.601-0.853c1.004,0.965,1.93,1.956,2.08,3.407c0.196,1.908-0.421,3.796-0.246,5.705
		c0.175,1.904,1.404,3.495,2.025,5.26C81.021,100.515,81.437,102.72,81.563,104.811C81.67,106.57,81.442,102.815,81.563,104.811z"/>
	<path d="M168.649,239.935"/>
	<polygon fill="#5FAE30" points="110.388,237.41 108.832,238.786 105.023,239.779 100.941,239.354 98.973,238.933 98.478,236.813 
		95.457,237.53 93.203,238.161 91.687,238.382 91.687,237.53 91.687,235.988 90.301,236.064 89.638,236.618 87.916,237.53 
		85.189,238.287 82.617,239.402 81.043,238.809 85.345,237.27 87.895,235.962 87.854,234.304 86.091,233.848 83.47,234.384 
		80.816,234.989 79.244,234.947 78.297,234.515 77.288,235.235 76.276,236.204 75.315,235.998 74.36,234.239 73.581,234.371 
		71.754,234.869 69.809,235.658 67.808,236.606 65.882,237.45 64.367,237.997 63.527,238.013 64.489,235.235 64.557,233.374 
		63.993,232.441 63.194,232.323 61.445,233.316 59.935,235.035 59.011,235.946 58.016,236.538 57.622,234.975 56.888,234.137 
		55.483,234.106 53.568,234.951 52.228,235.542 51.322,235.714 52.258,233.691 52.602,232.306 51.801,232.039 50.592,231.944 
		48.989,231.944 47.385,231.755 48.621,230.809 49.031,229.346 48.902,228.385 48.351,227.53 48.073,227.338 46.99,227.522 
		47.845,224.935 48.069,223.451 47.698,222.416 46.99,221.908 46.361,221.559 45.71,220.801 47.375,220.609 48.654,220.883 
		49.651,221.396 50.6,221.164 51.418,220.251 53.044,221.303 54.241,222.079 56.104,222.632 57.321,222.727 58.638,222.441 
		59.494,222 59.672,220.026 60.564,221.582 60.879,222.095 61.718,222.632 63.03,222.793 64.394,222.971 65.573,222.445 
		66.81,221.452 67.377,220.743 67.982,219.543 68.266,218.13 68.157,216.753 68.696,217.455 68.959,218.765 69.851,220 
		70.112,220.806 70.9,221.88 72.001,223.062 72.579,223.652 74.572,224.189 76.051,223.938 78.028,223.194 79.77,224.565 
		81.183,225.479 82.809,225.909 84.383,226.07 86.091,225.962 88.24,224.669 88.895,226.393 89.525,227.252 90.574,228.161 
		92.358,228.648 93.954,228.675 95.357,228.161 97.342,226.707 98.427,227.441 99.335,228.756 101.304,229.4 102.838,228.459 
		103.405,226.913 103.559,225.634 103.598,224.3 105.179,223.836 105.873,222.785 106.452,220.801 108.01,220.364 109.014,219.543 
		109.819,218.116 110.238,216.753 110.389,216.108 111.19,216.757 113.012,219.816 112.365,226.019 112.732,227.432 113.2,227.575 
		115.325,227.472 116.962,226.766 117.923,225.932 119.167,223.663 119.938,225.937 120.434,226.878 121.581,226.769 
		123.367,226.407 124.347,225.332 125.267,223.796 126.033,222.28 126.242,221.905 127.365,222.551 129.923,223.223 
		130.274,224.398 131.73,225.303 133.382,225.509 135.327,225.102 136.976,223.989 137.465,223.194 138.77,224.398 140.954,224.987 
		143.971,224.872 146.62,223.839 149.65,224.398 153.042,223.467 155.073,222.183 156.696,220.204 158.727,216.86 158.904,222.468 
		160.523,223.29 160.993,223.463 162.137,223.492 163.344,223.905 164.894,223.707 167.505,222.886 168.649,223.699 
		169.147,224.272 170.381,224.189 171.423,224.398 173.154,223.545 174.542,223.169 176.466,221.77 177.532,220.896 
		177.876,221.478 177.352,222.422 176.671,223.194 176.512,224.398 177.488,225.826 178.205,226.394 179.674,226.99 
		180.889,227.052 182.173,226.6 182.54,227.469 183.215,228.239 184.94,228.594 186.166,228.279 187.478,229.399 185.072,229.789 
		185.851,232.065 188.82,233.912 186.96,235.145 185.665,236.259 184.524,237.368 183.769,238.552 182.966,239.221 182.753,239.302 
		182.231,238.264 181.863,237.297 180.814,236.169 179.398,236.008 178.599,237.039 178.156,238.217 177.507,238.691 
		176.88,236.975 175.935,235.9 174.046,235.9 173.056,236.605 171.953,238.277 171.148,239.569 170.381,240.714 169.115,240.714 
		167.368,240.385 167.463,239.505 170.006,238.156 169.961,236.33 169.903,236.099 167.404,236.239 166.309,236.724 164.258,236.85 
		160.963,237.58 158.916,238.141 156.319,238.539 154.267,238.52 153.187,236.787 151.381,236.062 149.69,236.384 148.501,237.353 
		147.728,239.117 145.02,240.037 146.557,237.619 146.557,235.817 143.417,236.808 141.004,238.698 140.261,239.285 
		138.548,240.037 138.632,238.156 137.759,237.458 136.167,238.308 133.625,239.762 134.907,237.512 134.225,237.233 
		131.078,236.867 127.831,237.161 127.09,236.545 125.208,237.134 122.341,238.958 120.71,239.195 122.263,236.599 121.371,235.847 
		119.417,236.312 117.384,237.97 115.075,238.587 114.243,238.913 114.754,236.55 113.659,235.363 111.823,235.417 	"/>
	<path stroke="#000000" stroke-width="0.2151" stroke-linecap="round" stroke-linejoin="round" d="M111.944,127.365
		c-0.806,1.238-2.179,2.594-3.425,3.728c-1.284,1.166-2.846,2.249-4.331,2.82c-1.78,0.68-2.867,0.391-3.727,2.316
		c2.719,0.151,4.465-0.974,6.346-2.015c1.885-1.045,2.946-2.795,4.533-3.828c0.524-0.34,1.062-0.41,1.511-0.806
		c0.927-0.814,1.478-2.073,2.015-3.425c0.474-1.196,1.393-2.921,1.31-4.13c-0.034-0.491-0.496-1.536-0.806-1.612
		c-0.999-0.234-1.012,1.201-1.208,1.713c-0.143,0.365-0.454,0.65-0.604,1.008"/>
	<path fill="#E50066" stroke="#1C1C1C" stroke-miterlimit="10" d="M188.171,125.127c2.101,1.971,4.314,5.561,2.121,9.106
		c-1.361,2.198-5.005,4.673-7.11,4.989c-4.002,0.608-8.165-1.699-9.356-3.493c-2.229-3.362,0.162-6.387,3.119-7.484
		c0.729,0.271,1.638,0.354,2.371,0.624c1.232-1.237-0.214-2.281-0.25-3.368c-0.077-2.338,2.719-3.456,5.614-2.869
		C185.978,122.897,187.298,124.306,188.171,125.127z"/>
</g>
</svg>
