<?xml version="1.0" encoding="utf-8"?>
<!-- Generator: Adobe Illustrator 16.0.0, SVG Export Plug-In . SVG Version: 6.00 Build 0)  -->
<!DOCTYPE svg PUBLIC "-//W3C//DTD SVG 1.1//EN" "http://www.w3.org/Graphics/SVG/1.1/DTD/svg11.dtd">
<svg version="1.1" id="Calque_1" xmlns="http://www.w3.org/2000/svg" xmlns:xlink="http://www.w3.org/1999/xlink" x="0px" y="0px"
	 width="250px" height="250px" viewBox="0 0 250 250" enable-background="new 0 0 250 250" xml:space="preserve">
<g>
	<path d="M119.849,41.207c0,0-19.424-18.456-30.855-18.768c-0.393,6.759-0.128,17.283-0.128,17.283s3.742,13.437,9.606,20.879
		c-12.333-9.256-25.381-18.613-42.228-18.716c14.791,8.977,26.648,19.417,26.648,19.417s-13.197-2.619-23.174-0.979
		c9.255,2.091,22.666,13.519,22.666,13.519s3.194,2.725,4.045,4.938c-7.212,0.393-11.742,0.489-16.01,2.103
		c5.71,0.15,22.05,6.284,26.341,12.531c-17.11-2.772-22.949-2.345-28.426,0.168c7.071,0.016,28.013,3.919,29.912,14.669
		c-6.604,1.275-19.402,6.097-25.241,15.563c-5.849,9.463-4.967,32.41-2.399,48.267c2.575,15.846,16.45,47.96,44.304,53.627
		c13.533,3.155,34.8,2.412,49.954-3.246c15.16-5.66,24.456-9.729,27.792-29.476c3.325-19.757-1.778-29.383-3.574-39.556
		c-1.795-10.189-7.841-27.591-11.84-33.497c-4-5.91-6.241-9.506-11.806-11.407c-5.567-1.9-10.402-3.496-13.307-3.188
		c1.331-1.477,3.267-3.419,9.52-4.087c6.256-0.668,6.256-0.668,6.256-0.668s-9.732-3.563-18.104-1.91
		c5.571-4.62,16.912-12.556,28.001-10.298c-5.073-4.248-20.732-5.261-29.703-0.653c4.53-5.283,13.419-16.797,26.288-21.256
		c-0.207-2.464-19.745,4.229-26.143,11.836c2.771-11.434,5.33-23.995,22.526-33.526c-7.322,0.982-21.317,4.206-27.735,9.107
		c0.589-5.624-2.627-9.685-5.713-11.659c-4.824-0.259-13.914,4.938-13.914,4.938S123.683,44.839,119.849,41.207z"/>
	
		<linearGradient id="SVGID_1_" gradientUnits="userSpaceOnUse" x1="1164.2822" y1="620.7881" x2="1145.7871" y2="684.6805" gradientTransform="matrix(-0.7432 -0.6124 -0.6723 0.6323 1430.7168 452.2639)">
		<stop  offset="0" style="stop-color:#FAAB18"/>
		<stop  offset="0.0118" style="stop-color:#F9AB18"/>
		<stop  offset="0.6856" style="stop-color:#B3C132"/>
		<stop  offset="1" style="stop-color:#98C93C"/>
	</linearGradient>
	<path fill="url(#SVGID_1_)" d="M150.108,112.057c0,0,15.76,2.9,20.748,12.724c4.98,9.757,13.346,37.335,13.915,44.031
		c0.577,6.658,5.005,29.917-11.36,44.164c-4.861,2.955-27.58,13.264-53.696,9.915c-7.654-1.318-27.729-9.591-37.528-29.602
		c-9.962-20.321-10.731-47.119-5.146-65.698c1.64-3.32,8.271-8.296,14.447-10.802c1.802,0.242,11.389-2.497,20.211,0.979
		c3.813,2.142,10.453,4.624,16.208,4.38c5.714-0.251,13.587-4.321,13.535-5.973c2.781,0.173,8.291-3.904,8.291-3.904"/>
	<path fill="#6EBD44" d="M120.607,52.541c0,0-14.537-20.192-26.315-23.348c2.705,5.521,17.727,36.019,17.727,36.019
		s2.147-6.734,8.514-12.309"/>
	<path fill="#6EBD44" d="M134.231,47.945c0,0-14.771,4.137-18.287,16.034c-2.241,6.278-2.308,8.854-2.308,8.854l1.649,1.869
		c0,0,9.939-11.097,20.998-11.393C138.338,59.826,138.48,51.551,134.231,47.945z"/>
	<path fill="#6EBD44" d="M155.459,53.81c0.524-0.508-18.295,9.176-24.051,15.957c-5.764,6.775-6.845,11.197-6.845,11.197
		s3.56,1.283,4.451,5.613c4.618-3.159,14.053-4.572,14.266-10.171C143.493,70.786,149.854,59.179,155.459,53.81z"/>
	<path fill="#6EBD44" d="M151.896,78.271c0,0-17.164,10.32-21.519,16.719c3.117,0.25,6.073,0.281,6.073,0.281l0.106,5.925
		C136.557,101.196,141.697,85.637,151.896,78.271z"/>
	<path fill="#6EBD44" d="M160.376,88.408c0,0-9.852-0.458-14.682,2.392c-1.501,1.438-5.755,6.078-7.796,10.375
		c4.691-2.95,8.349-2.645,8.349-2.645S149.952,90.684,160.376,88.408z"/>
	<path fill="#6EBD44" d="M153.995,100.719c0.513-0.089-15.103-2.22-21.551,5.931c1.145,1.954,2.35,3.458,3.48,3.803
		c1.136,0.342,6.173-0.659,8.955-3.054C147.663,105.006,150.758,101.303,153.995,100.719z"/>
	<path fill="#6EBD44" d="M125.212,94.549c0,0-7.53,1.716-8.915,5.972c-2.713-1.223-6.992-1.96-6.992-1.96s-0.117-6,2.425-7.775
		c1.33-0.936,10.344-1.211,13.455,3.577"/>
	<path fill="#6EBD44" d="M135.296,113.795c0,0-8.14-5.965-19.976-1.194C119.42,114.04,130.243,115.021,135.296,113.795z"/>
	<path d="M146.291,144.143c0,0-5.707-8.374-14.515-10.379c-2.834,0.617-11.813,5.919-11.16,12.665
		c3.213-3.586,5.627-8.655,11.641-11.002C136.499,137.601,143.292,139.66,146.291,144.143z"/>
	<path d="M97.89,146.499c0,0-4.919-8.465-12.151-10.639c-2.287,0.559-9.42,5.657-8.675,12.405c2.503-3.525,4.3-8.524,9.109-10.743
		C89.7,139.774,95.302,141.972,97.89,146.499z"/>
	<path d="M168.862,141.916c0,0-4.814-8.467-11.862-10.666c-2.207,0.551-9.105,5.628-8.358,12.368
		c2.418-3.507,4.143-8.501,8.805-10.713C160.882,135.173,166.328,137.381,168.862,141.916z"/>
	<path d="M110.69,156.255c0,0-4.813-8.473-11.861-10.666c-2.213,0.556-9.135,5.634-8.374,12.373
		c2.415-3.509,4.141-8.506,8.82-10.704C102.703,149.521,108.166,151.726,110.69,156.255z"/>
	<path d="M124.732,169.262c0,0-6.969-11.563-17.352-14.483c-3.283,0.78-13.615,7.829-12.63,17.072
		c3.632-4.854,6.296-11.715,13.242-14.81C113.045,160.122,121.064,163.077,124.732,169.262z"/>
	<path d="M120.909,144.09c0,0-5.263-8.433-13.187-10.521c-2.521,0.582-10.468,5.768-9.771,12.513
		c2.819-3.551,4.891-8.587,10.236-10.861C112.019,137.45,118.146,139.578,120.909,144.09z"/>
	<path d="M90.909,157.733c0,0-4.496-8.499-10.86-10.765c-1.987,0.513-8.13,5.505-7.32,12.241c2.112-3.475,3.579-8.427,7.732-10.588
		C83.6,150.928,88.551,153.179,90.909,157.733z"/>
	<path d="M162.313,153.436c0,0-5.711-8.386-14.506-10.383c-2.833,0.617-11.811,5.916-11.174,12.662
		c3.225-3.598,5.627-8.66,11.655-11.007C152.527,146.883,159.318,148.953,162.313,153.436z"/>
	<path d="M154.175,133.28c0,0-4.912-8.467-12.146-10.633c-2.295,0.551-9.427,5.647-8.68,12.393c2.508-3.521,4.302-8.52,9.113-10.743
		C145.991,126.554,151.588,128.748,154.175,133.28z"/>
	<path d="M131.688,133.541c0,0-4.929-8.474-12.162-10.641c-2.28,0.556-9.412,5.664-8.663,12.4c2.502-3.53,4.298-8.513,9.111-10.738
		C123.501,126.823,129.087,129.003,131.688,133.541z"/>
	<path d="M169.676,127.822c0,0-6.503-7.479-12.67-8.583c-1.537,0.839-5.273,6.725-2.517,13.114c0.739-3.729,0.473-8.795,3.384-11.58
		C161.285,122.464,166.237,123.817,169.676,127.822z"/>
</g>
</svg>
