<?xml version="1.0" encoding="utf-8"?>
<!-- Generator: Adobe Illustrator 16.0.0, SVG Export Plug-In . SVG Version: 6.00 Build 0)  -->
<!DOCTYPE svg PUBLIC "-//W3C//DTD SVG 1.1//EN" "http://www.w3.org/Graphics/SVG/1.1/DTD/svg11.dtd">
<svg version="1.1" id="Calque_1" xmlns="http://www.w3.org/2000/svg" xmlns:xlink="http://www.w3.org/1999/xlink" x="0px" y="0px"
	 width="250px" height="250px" viewBox="0 0 250 250" enable-background="new 0 0 250 250" xml:space="preserve">
<g>
	<g>
		<linearGradient id="SVGID_1_" gradientUnits="userSpaceOnUse" x1="113.374" y1="218.6074" x2="135.5707" y2="78.4627">
			<stop  offset="0" style="stop-color:#BE1A18"/>
			<stop  offset="0.2515" style="stop-color:#C11E1B"/>
			<stop  offset="0.5007" style="stop-color:#C92A26"/>
			<stop  offset="0.7491" style="stop-color:#D73E37"/>
			<stop  offset="0.9957" style="stop-color:#EB594F"/>
			<stop  offset="1" style="stop-color:#EB5A4F"/>
		</linearGradient>
		<path fill="url(#SVGID_1_)" d="M87.079,92.845c0,0-65.146,22.256-53.162,70.624c11.984,48.369,40.776,46.894,52.873,50.734
			c12.096,3.84,78.458,2.449,115.878-40.15c37.42-42.601-7.296-81.313-8.986-80.759c-1.688,0.554-10.914-17.048-59.148-5.729
			c0,0,14.933,24.134,12.713,30.223c-2.219,6.089-32.557-6.311-32.189-8.836c0,0-6.114,24.194-9.07,22.504
			c-2.953-1.691-5.087-15.743-5.087-15.743s-13.72,8.768-28.248,2.495C72.651,118.208,72.979,105.339,87.079,92.845z"/>
		<g>
			<g>
				<path fill="#0D0D0D" d="M53.986,115.178c0,0-0.514,0.465-1.498,1.356c-0.931,0.941-2.382,2.267-4.046,4.159
					c-1.707,1.854-3.641,4.265-5.61,7.234c-1.991,2.956-3.854,6.584-5.263,10.805c-1.396,4.221-2.227,9.085-2.016,14.353
					c-0.022,1.317,0.189,2.653,0.344,4.013c0.103,1.365,0.451,2.729,0.733,4.12c0.247,1.378,0.683,2.834,1.081,4.298
					c0.377,1.475,0.87,2.929,1.332,4.417c1.904,5.924,4.474,11.971,8.033,17.635c3.539,5.667,8.256,10.829,14.204,14.533
					c2.954,1.881,6.222,3.354,9.688,4.53c3.489,1.163,7.154,1.979,11.085,2.783c0.984,0.206,1.99,0.423,3.019,0.662l1.575,0.397
					l0.813,0.234l0.405,0.118l0.284,0.071c1.497,0.397,3.423,0.673,5.322,0.822c3.831,0.335,7.84,0.329,11.852,0.186
					c16.092-0.683,32.643-3.907,48.122-9.609c3.885-1.397,7.66-3.049,11.383-4.771c1.827-0.927,3.698-1.772,5.474-2.78l2.689-1.459
					l2.621-1.562c6.98-4.161,13.396-9.073,19.069-14.55c0.702-0.691,1.435-1.352,2.109-2.063l2.006-2.146
					c0.671-0.712,1.341-1.421,1.952-2.16c0.638-0.724,1.243-1.468,1.835-2.217c2.39-2.984,4.467-6.13,6.196-9.384
					c3.466-6.503,5.359-13.518,5.466-20.393c0.214-10.516-3.586-20.516-8.984-28.832c-2.706-4.168-5.833-8.008-9.222-11.29
					c-0.844-0.812-1.72-1.596-2.554-2.24c-0.205-0.154-0.403-0.299-0.566-0.406l-0.095-0.059c-0.014-0.01-0.039-0.026-0.028-0.019
					l0.004,0.003l0.003,0.001l0.115-0.232c0.151-0.295,0.289-0.672,0.413-0.92c0.123-0.222,0.219-0.458,0.284-0.706
					c0.035-0.113,0.051-0.273,0.081-0.355c0.035-0.061,0.055-0.13,0.054-0.201c0-0.036-0.006-0.072-0.017-0.107
					c-0.083-2.505,0.069,3.283,0.045,2.697l-0.058-0.001l-0.13-0.001c-0.262-0.007-0.54-0.043-0.813-0.11
					c-0.274-0.067-0.541-0.167-0.781-0.287c-0.158-0.079-0.135-0.073-0.18-0.099l-0.097-0.061l-0.379-0.249l-0.25-0.19
					c-0.171-0.13-0.312-0.244-0.43-0.344l-0.37-0.306c-1.782-1.524-3.516-2.705-5.476-3.715c-3.884-1.989-8.191-3.138-12.508-3.731
					c-4.317-0.635-8.669-0.698-12.917-0.539c-4.254,0.177-8.422,0.641-12.481,1.254c-2.028,0.321-4.032,0.66-6.006,1.059
					l-1.023,0.195l-0.455,0.097c-0.292,0.068-0.633,0.117-0.886,0.204c0.228,0.39,0.453,0.776,0.677,1.16
					c0.644,1.146,1.28,2.28,1.912,3.406c1.385,2.52,2.698,5.025,3.916,7.539c1.215,2.518,2.35,5.027,3.295,7.634
					c0.471,1.308,0.907,2.623,1.226,4.044c0.082,0.353,0.144,0.727,0.214,1.088c0.039,0.177,0.056,0.38,0.081,0.57l0.073,0.671
					c0.015,0.516,0.016,1.061-0.008,1.58c-0.073,0.517-0.159,1.023-0.302,1.523c-0.392,1.223-1.371,2.195-2.531,2.711
					c-0.578,0.273-1.212,0.44-1.856,0.546c-0.316,0.055-0.651,0.102-0.996,0.123c-0.265,0.024-0.481,0.022-0.724,0.033
					c-1.857,0.021-3.499-0.223-5.095-0.516c-3.177-0.604-6.111-1.477-8.943-2.424c-2.827-0.957-5.532-2.007-8.144-3.162
					c-0.652-0.289-1.299-0.588-1.941-0.896l-0.958-0.47l-0.772-0.396c-0.373-0.203-0.749-0.398-1.043-0.686
					c-0.031-0.033-0.06-0.07-0.078-0.111c-0.009-0.021-0.016-0.042-0.015-0.065c-0.001-0.018-0.01,0.034-0.015,0.047l-0.066,0.267
					c-0.046,0.175-0.091,0.348-0.135,0.518c-0.088,0.323-0.175,0.644-0.262,0.962c-0.259,0.9-0.517,1.793-0.771,2.677
					c-0.522,1.768-1.059,3.499-1.626,5.198c-0.284,0.85-0.575,1.691-0.879,2.526c-0.169,0.448-0.337,0.895-0.504,1.339
					c-0.243,0.631-0.53,1.323-0.814,1.964c-0.576,1.286-1.217,2.526-1.942,3.421c-0.731,0.912-1.467,1.489-2.33,1.816
					c-0.407,0.163-1.028,0.251-1.507,0.092c-0.48-0.126-0.884-0.338-1.26-0.626c-0.752-0.552-1.431-1.326-2.011-2.362
					c-0.584-1.021-1.065-2.232-1.479-3.462l-0.3-0.93l-0.242-0.818c-0.105-0.384-0.21-0.766-0.313-1.146
					c-0.202-0.76-0.385-1.51-0.555-2.252c-0.126-0.568-0.25-1.132-0.373-1.689c-0.041-0.2-0.081-0.398-0.12-0.595l-0.054-0.291
					l-0.025-0.144c-0.012-0.04-0.001-0.128-0.059-0.069c-0.361,0.22-0.76,0.409-1.095,0.554c-5.203,2.135-10.638,3.109-15.68,2.694
					c-0.629-0.058-1.253-0.094-1.867-0.174c-0.609-0.11-1.214-0.22-1.814-0.328l-0.892-0.168l-0.865-0.247
					c-0.592-0.175-1.179-0.347-1.762-0.519c-1.524-0.572-3.054-1.305-4.479-1.909c0.059-1.546,0.249-3.158,0.614-4.575l0.121-0.537
					c0.039-0.161,0.075-0.26,0.112-0.393l0.225-0.739c0.139-0.494,0.331-0.958,0.492-1.428c0.336-0.932,0.723-1.813,1.112-2.656
					c0.411-0.836,0.798-1.65,1.249-2.399c0.216-0.376,0.43-0.748,0.641-1.116c0.229-0.352,0.457-0.698,0.682-1.042
					c1.813-2.71,3.653-4.838,5.355-6.421c3.371-3.202,5.852-4.519,6.535-4.663c0.356-0.059,0.31,0.219-0.172,0.835
					c-0.461,0.636-1.447,1.523-2.719,2.948c-0.378,0.408-0.711,0.769-1.015,1.097c-0.289,0.339-0.528,0.658-0.757,0.95
					c-0.448,0.59-0.842,1.082-1.205,1.639c-0.35,0.557-0.726,1.155-1.192,1.897c-0.426,0.767-0.974,1.672-1.59,2.901
					c-0.609,1.229-1.369,2.751-2.08,4.771c-0.365,1.005-0.712,2.135-1.036,3.396c-0.127,0.574-0.341,1.488-0.336,1.631
					c-0.045,0.316-0.055,0.54-0.058,0.817c-0.029,0.085,0.068,0.09,0.137,0.111l0.212,0.063c0.139,0.04,0.279,0.081,0.424,0.124
					c0.685,0.16,1.4,0.328,2.149,0.504c0.913,0.153,1.876,0.286,2.881,0.382c1.015,0.032,2.065,0.126,3.173,0.038
					c2.205-0.087,4.604-0.429,7.125-1.155c1.255-0.383,2.555-0.803,3.854-1.362l0.689-0.297c0.328-0.137,0.653-0.288,0.972-0.462
					c0.645-0.339,1.288-0.653,1.954-1.022c1.357-0.826,2.739-1.668,4.146-2.524c0.434,2.206,0.762,4.822,1.255,7.24
					c0.121,0.587,0.243,1.178,0.365,1.773c0.075,0.329,0.151,0.661,0.227,0.995c0.165,0.66,0.331,1.329,0.5,2.008
					c0.092,0.333,0.185,0.668,0.277,1.006l0.146,0.502l0.046,0.139c0.042,0.115,0.086,0.227,0.135,0.334
					c0.105,0.188,0.186,0.474,0.429,0.478c0.205-0.156,0.275-0.425,0.365-0.639c0.104-0.285,0.208-0.574,0.314-0.866
					c0.287-0.787,0.567-1.597,0.843-2.425c0.55-1.657,1.081-3.383,1.601-5.165c0.255-0.895,0.512-1.799,0.772-2.715
					c0.218-0.795,0.438-1.594,0.658-2.398c0.237-0.905,0.476-1.816,0.715-2.732c1.188,0.177,1.873,0.252,2.414,0.299
					c0.224,0.015,0.449,0.03,0.677,0.045l0.117,0.006c-0.031,0.001-0.035,0.007-0.027,0.015c0.02,0.016,0.084,0.038,0.162,0.063
					c0.36,0.107,0.972,0.251,1.678,0.413l0.282,0.063l0.142,0.032l0.07,0.016c0.013-0.001,0.023,0.014,0.037,0l0.055-0.118
					l0.438-0.943l0.22-0.473l0.109-0.236c0.037-0.088,0.069,0.015,0.104,0.012c0.543,0.375,1.095,0.702,1.651,1.009
					c0.682,0.365,0.813,0.429,1.118,0.582l0.853,0.414c0.575,0.274,1.164,0.544,1.765,0.808c2.401,1.055,4.955,2.04,7.604,2.928
					c2.645,0.88,5.411,1.684,8.176,2.206c1.368,0.253,2.768,0.432,3.938,0.415l0.41-0.019c0.053-0.006-0.008,0,0.024-0.005
					c0.021-0.004,0.042-0.01,0.062-0.019c0.039-0.016,0.073-0.05,0.076-0.094c0.006-0.036,0.004-0.056-0.003-0.104l-0.075-0.532
					l-0.148-0.742c-0.231-1.027-0.604-2.155-1.017-3.288c-0.833-2.278-1.906-4.64-3.068-7.022c-1.169-2.387-2.449-4.808-3.809-7.255
					c-0.344-0.61-0.688-1.225-1.035-1.841c-0.452-0.783-0.907-1.57-1.363-2.361c-1.437-2.47-3.029-4.994-4.594-7.539
					c2.003-0.447,4.02-0.896,6.05-1.351c1.015-0.225,2.033-0.45,3.056-0.677c0.682-0.139,1.366-0.277,2.054-0.416
					c2.142-0.447,4.339-0.808,6.563-1.182c4.466-0.681,9.104-1.19,13.93-1.359c4.822-0.154,9.844,0.03,14.997,0.926
					c5.128,0.899,10.484,2.547,15.383,5.703c1.207,0.779,2.408,1.688,3.447,2.553l0.686,0.559l0.113,0.088
					c0.013,0.009,0.054,0.043,0.034,0.024l-0.013-0.01l-0.007-0.005c-0.016,0.021,0.031-0.058-0.054,0.07
					c-0.894,1.681-1.806,2.229-1.519,2.774l0.13,0.2c-2.214-6.517-0.305-1.895-0.646-3.37c0.19-0.034,0.388-0.055,0.584-0.062
					c0.197-0.007,0.395,0.002,0.586,0.022c0.163,0.015,0.452,0.073,0.438,0.074c0.359,0.082,0.889,0.294,0.972,0.348
					c0.401,0.193,0.596,0.322,0.832,0.465c0.401,0.261,0.738,0.503,1.053,0.741c2.418,1.879,4.357,3.834,6.307,5.947
					c3.825,4.218,7.263,8.936,10.136,14.193c2.859,5.252,5.148,11.064,6.363,17.333c1.213,6.254,1.3,12.96-0.057,19.534
					c-1.019,5.08-2.835,9.865-5.121,14.24c-2.282,4.388-5.056,8.354-8.036,11.989c-3.016,3.607-6.209,6.846-9.49,9.926
					c-3.354,2.982-6.732,5.83-10.279,8.307c-3.492,2.56-7.119,4.771-10.709,6.88c-3.644,2.01-7.265,3.908-10.929,5.528
					c-7.304,3.289-14.581,5.885-21.727,7.849c-14.297,3.942-27.927,5.811-40.654,6.054c-3.188,0.053-6.318,0.001-9.431-0.244
					c-1.556-0.12-3.113-0.297-4.683-0.539l-1.202-0.23c-0.395-0.071-0.801-0.157-1.235-0.282l-1.19-0.329l-0.912-0.268
					c-2.528-0.672-5.315-1.196-8.042-1.835c-2.734-0.63-5.451-1.36-8.069-2.275c-5.252-1.793-10.057-4.403-14.147-7.51
					c-4.063-3.15-7.451-6.732-10.152-10.461c-2.725-3.719-4.855-7.522-6.619-11.226c-1.75-3.713-3.078-7.345-4.248-10.808
					c-1.085-3.504-2.033-6.753-2.72-10.015c-0.716-3.283-1.114-6.458-1.192-9.469c-0.188-6.031,0.796-11.344,2.213-15.769
					c3.005-8.859,7.193-14.241,10.213-17.898c3.082-3.664,5.312-5.594,6.635-6.824c1.359-1.19,1.911-1.588,2.096-1.725
					c0.19-0.129,0.035,0.031,0.035,0.031s2.217-1.937,5.733-4.395c3.504-2.472,8.321-5.423,13.211-7.797
					c4.875-2.404,9.781-4.285,13.193-5.238c3.428-0.958,5.282-1.015,4.196-0.025c0,0-0.021,0.093-0.612,0.459
					c-0.59,0.365-1.756,0.995-3.998,2.166c-2.235,1.182-5.569,2.877-10.308,5.673c-2.368,1.397-5.089,3.069-8.121,5.178
					C60.9,109.496,57.528,112.011,53.986,115.178z"/>
			</g>
		</g>
	</g>
	<g>
		<path fill="#009B3E" d="M134.688,88.196l14.229-25.284c-15.137,3.604-28.2,13.967-28.2,13.967
			c8.86-18.057-4.727-42.478-4.727-42.478c-8.112,12.572-16.198,46.75-16.198,46.75c-7.229-6.974-25.227-7.865-25.227-7.865
			C74.085,81.252,87.97,92.22,87.97,92.22s-14.265,14.094-15.318,25.988c0,0,18.513,5.179,29.031-3.231
			c0,0,2.84,15.599,4.875,14.694c0,0,5.572-4.294,7.776-19.449c0,0,28.042,11.558,32.912,7.566
			C147.246,117.788,142.19,94.396,134.688,88.196z"/>
		<g>
			<g>
				<path fill="#0D0D0D" d="M142.52,68.85c0,0,0.102-0.211,0.292-0.606c0.044-0.092,0.093-0.195,0.147-0.309
					c0.025-0.054,0.053-0.111,0.081-0.17c-0.081,0.029-0.166,0.059-0.254,0.09c-0.326,0.117-0.7,0.252-1.12,0.402
					c-0.196,0.07-0.368,0.167-0.555,0.25c-0.09,0.042-0.181,0.085-0.273,0.13l-0.068,0.032l-0.283,0.117
					c-0.216,0.088-0.435,0.178-0.655,0.269c-0.889,0.348-1.763,0.854-2.697,1.298c-0.923,0.475-1.902,0.911-2.87,1.461
					c-0.966,0.553-1.962,1.123-2.988,1.71l-0.386,0.221l-0.194,0.111l-0.342,0.225c-0.472,0.312-0.946,0.626-1.424,0.941
					c-0.962,0.636-1.936,1.28-2.922,1.933c-0.496,0.328-0.995,0.658-1.497,0.99c-0.53,0.382-1.103,0.834-1.658,1.253
					c-1.127,0.858-2.267,1.728-3.42,2.606c-1.166,0.896-2.345,1.803-3.537,2.72c-0.576,0.445-1.155,0.893-1.738,1.343
					c-0.454,0.322-0.91,0.647-1.369,0.974c0.842-1.914,1.694-3.851,2.556-5.808c0.451-1.034,0.906-2.074,1.362-3.119l0.687-1.573
					l0.346-0.792l0.267-0.686c0.348-0.905,0.697-1.814,1.048-2.729l0.266-0.688l0.131-0.593l0.259-1.188l0.26-1.196
					c0.041-0.203,0.093-0.393,0.126-0.608l0.078-0.572c0.039-0.38,0.078-0.762,0.118-1.146c0.245-3.086,0.083-6.368-0.455-9.73
					c-0.534-3.363-1.424-6.807-2.611-10.249c-0.513-1.541-1.562-4.169-1.324-3.512c-0.047-0.072-0.088-0.136-0.124-0.16
					c-0.039,0.092-0.065,0.168-0.081,0.229l-0.018,0.061l-0.543,1.253c-0.405,0.889-0.743,1.839-1.116,2.763
					c-1.456,3.725-2.791,7.59-4.029,11.521c-1.245,3.928-2.431,7.911-3.538,11.921c-0.541,2.008-1.083,4.017-1.624,6.023l-1.363,5.4
					c-0.492,2.042-0.984,4.082-1.476,6.12l-2.746-2.304l-2.899-2.368c-0.241-0.186-0.481-0.419-0.724-0.565l-0.728-0.438
					l-0.726-0.437c-0.154-0.095-0.147-0.083-0.216-0.121l-0.154-0.083c-0.402-0.23-0.836-0.434-1.291-0.619
					c-1.754-0.804-3.689-1.419-5.646-1.946c-1.958-0.535-3.976-0.942-5.995-1.278l-0.756-0.126l-0.595-0.087
					c-0.008-0.005-0.019-0.011-0.037-0.017l-0.121-0.037c-0.063,0.008-0.043,0.104-0.031,0.179c0.012,0.035-0.005,0.016,0.028,0.084
					c0.167,0.333,0.38,0.666,0.572,0.999c0.412,0.664,0.861,1.324,1.341,1.974c0.964,1.297,2.027,2.555,3.146,3.758
					c0.557,0.604,1.131,1.191,1.709,1.771l0.875,0.856l0.497,0.47l0.901,0.815c1.472,1.324,3.121,2.589,4.432,3.679
					c-0.997,0.997-2.033,1.999-2.997,2.99L88.4,96.414l-0.994,1.091c-0.933,1.027-1.824,2.077-2.688,3.13
					c-1.72,2.111-3.287,4.269-4.661,6.452c-1.383,2.178-2.556,4.402-3.372,6.619l-0.321,0.827l-0.2,0.696
					c-0.038,0.126-0.092,0.229-0.116,0.386c-0.01,0.135-0.105,0.328-0.047,0.423l0.422,0.118l0.218,0.055l0.354,0.07
					c0.582,0.114,1.167,0.199,1.748,0.286c1.163,0.166,2.32,0.311,3.464,0.381c2.287,0.174,4.532,0.189,6.673-0.033
					c1.084-0.062,2.108-0.285,3.143-0.442c0.506-0.106,0.994-0.251,1.489-0.371l0.738-0.187c0.239-0.075,0.467-0.17,0.701-0.253
					c0.465-0.169,0.928-0.337,1.388-0.505c0.804-0.472,1.603-0.942,2.397-1.409l1.198-0.708l1.186-0.805
					c0.786-0.539,1.568-1.075,2.346-1.608c0.063,0.109,0.095,0.307,0.128,0.502l0.104,0.572l0.209,1.143
					c0.139,0.759,0.278,1.515,0.416,2.267c0.275,1.485,0.584,2.973,0.889,4.347c0.184,0.827,0.374,1.645,0.573,2.444
					c0.114,0.442,0.228,0.88,0.34,1.313c0.156,0.499,0.28,1.03,0.603,1.44c0.044,0.045,0.104,0.087,0.167,0.076
					c0.064-0.007,0.104-0.069,0.149-0.109c0.087-0.092,0.18-0.177,0.254-0.279c0.162-0.192,0.308-0.396,0.434-0.61
					c0.143-0.209,0.254-0.421,0.352-0.633l0.324-0.651c0.166-0.302,0.295-0.626,0.413-0.958c0.478-1.316,1.041-2.56,1.35-3.905
					c0.183-0.659,0.363-1.312,0.542-1.957l0.135-0.483c0.044-0.161,0.088-0.289,0.139-0.601c0.1-0.534,0.198-1.066,0.296-1.595
					c0.396-2.115,0.783-4.188,1.163-6.219c1.397,0.565,2.777,1.124,4.14,1.676c0.68,0.265,1.354,0.527,2.025,0.788
					c0.497,0.188,0.991,0.373,1.481,0.559c1.561,0.58,3.088,1.126,4.578,1.64c2.981,1.025,5.822,1.927,8.52,2.669
					c2.693,0.744,5.259,1.344,7.612,1.68c0.59,0.088,1.156,0.144,1.71,0.191c0.321,0.021,0.453,0.021,0.636,0.014
					c0.169-0.007,0.335-0.027,0.493-0.069c0.126-0.051,0.375-0.09,0.349-0.247l-0.022-0.09c-0.048-0.208-0.096-0.413-0.143-0.616
					l-0.076-0.352c-0.088-0.352-0.174-0.7-0.26-1.048c-0.345-1.369-0.681-2.707-1.012-4.022c-0.662-2.585-1.286-4.982-1.905-7.149
					c-1.214-4.349-2.337-7.819-3.342-10.272c-0.216-0.642-0.5-1.155-0.711-1.658c-0.223-0.493-0.385-0.959-0.595-1.305
					c-0.38-0.726-0.599-1.267-0.606-1.553s0.199-0.319,0.651-0.042c0.428,0.285,1.222,0.835,1.938,1.849
					c0.907,1.108,1.282,1.75,1.807,2.404c0.538,0.651,0.999,1.383,1.897,2.756c0.801,1.396,1.979,3.455,3.393,6.893
					c0.715,1.717,1.499,3.775,2.335,6.264c0.42,1.244,0.848,2.597,1.289,4.068c0.308,0.954,1.206,4.339,1.87,7.249l-0.386,0.349
					l-0.178,0.164l-0.265,0.173c-0.358,0.238-0.712,0.464-1.056,0.672c-0.701,0.428-1.474,0.79-2.415,0.979
					c-1.809,0.407-4.373,0.243-5.389,0.124c-2.695-0.3-5.421-0.883-8.312-1.622c-2.884-0.748-5.922-1.662-9.145-2.735
					c-1.612-0.536-3.271-1.112-4.978-1.731c-0.374-0.136-0.75-0.272-1.129-0.41l-0.117-0.031l-0.208-0.055
					c-0.05,0.321-0.101,0.65-0.152,0.987l-0.038,0.247l-0.009,0.062l-0.064,0.242l-0.144,0.538c-0.194,0.721-0.39,1.448-0.589,2.185
					c-0.34,1.478-0.942,2.963-1.509,4.485c-0.151,0.38-0.265,0.766-0.466,1.143l-0.276,0.57c-0.056,0.11-0.071,0.157-0.161,0.32
					l-0.263,0.482c-0.353,0.646-0.706,1.294-1.063,1.946l-0.268,0.489l-0.311,0.405l-0.624,0.815
					c-0.418,0.546-0.838,1.094-1.26,1.646c-0.204,0.329-0.442,0.404-0.667,0.589l-0.685,0.487c-0.229,0.158-0.459,0.336-0.688,0.479
					l-0.664,0.146c-0.224,0.054-0.446,0.101-0.662,0.098c-0.231-0.015-0.587-0.021-0.832-0.098
					c-1.002-0.238-1.739-0.718-2.514-1.643c-0.757-0.913-1.384-2.321-1.91-3.842c-0.271-0.756-0.506-1.558-0.738-2.359
					c-0.16-0.59-0.322-1.184-0.484-1.78c-0.225-0.869-0.436-1.742-0.64-2.622l-0.031-0.133c0,0.004,0.001,0.004,0,0.001
					l-0.004-0.007l-0.006-0.016l-0.011-0.026c-0.008-0.016-0.012-0.036-0.021-0.041l-0.028,0.025l-0.016,0.014l-0.083,0.045
					l-0.166,0.092c-0.59,0.224-1.182,0.449-1.777,0.676l-0.903,0.336l-0.918,0.249c-0.615,0.161-1.233,0.323-1.854,0.486
					c-1.243,0.208-2.509,0.496-3.774,0.586c-2.543,0.3-5.112,0.303-7.703,0.152c-1.299-0.065-2.598-0.206-3.906-0.372
					c-0.652-0.093-1.311-0.171-1.967-0.291l-1.531-0.276l-1.818-0.401c-1.227-0.259-2.364-0.611-3.565-0.917l-0.449-0.119
					l-0.112-0.03c-0.019-0.006-0.04-0.009-0.055-0.017l0.008-0.058l0.035-0.23l0.137-0.926l0.276-1.858
					c0.146-1.236,0.46-2.507,0.731-3.776l0.104-0.477l0.05-0.225l0.037-0.137l0.15-0.547c0.106-0.36,0.246-0.696,0.37-1.046
					c0.977-2.813,2.323-5.408,3.839-7.907c1.516-2.502,3.211-4.909,5.056-7.25c0.928-1.165,1.882-2.325,2.883-3.464l0.376-0.428
					l0.08-0.091l-0.003,0.004l-0.007,0.008h0.001l0.004-0.002v-0.002l-0.001-0.002v-0.001c-0.012-0.009,0.029,0.028-0.02-0.018
					l-0.198-0.183c-1.06-0.975-2.111-2.008-3.146-3.092c-2.037-2.147-3.948-4.405-5.573-7.03c-0.198-0.338-0.405-0.655-0.591-1.009
					l-0.42-0.8c-0.166-0.298-0.285-0.6-0.42-0.899l-0.396-0.9c-0.122-0.3-0.201-0.6-0.303-0.899
					c-0.091-0.298-0.207-0.602-0.277-0.895l-0.187-0.875c-0.245-1.166-0.229-2.223-0.217-3.269c0.009-1.075,0.017-2.146,0.025-3.212
					c2.193,0.142,4.313,0.21,6.558,0.462c0.552,0.05,1.105,0.106,1.667,0.185l1.52,0.196c0.584,0.075,1.164,0.181,1.743,0.271
					c2.314,0.393,4.591,0.858,6.83,1.477c2.237,0.644,4.442,1.341,6.593,2.349c0.54,0.215,1.071,0.528,1.601,0.799
					c0.066,0.038,0.013,0.014,0.041,0.031c0.02,0.014,0.037,0.03,0.057,0.05c0.015-0.002,0.019-0.041,0.029-0.063
					c0.141-0.525,0.28-1.046,0.418-1.562c0.603-2.269,1.214-4.489,1.838-6.662c1.249-4.347,2.503-8.514,3.838-12.5
					c1.348-3.985,2.675-7.802,4.198-11.435c0.352-0.911,0.764-1.807,1.157-2.694c0.116-0.279,0.605-1.31,0.956-2.06
					c0.359-0.826,0.787-1.533,1.189-2.27c0.816-1.461,1.623-2.908,2.422-4.339c0.838-1.424,1.666-2.832,2.486-4.226
					c0.95,1.744,1.886,3.463,2.81,5.159c0.914,1.718,1.801,3.556,2.595,5.462c0.207,0.465,0.398,0.948,0.59,1.427l0.44,1.105
					c0.19,0.52,0.38,1.035,0.568,1.546c0.365,1.028,0.708,2.047,1.022,3.061c1.267,4.05,2.106,7.996,2.553,11.789
					c0.429,3.796,0.444,7.445-0.009,10.862l-0.039,0.319c-0.012,0.09-0.003,0.011-0.006,0.025l-0.016,0.063l-0.033,0.143
					c-0.028,0.099-0.058,0.196-0.085,0.292c-0.067,0.196-0.144,0.397-0.243,0.596l-0.069,0.141c-0.001,0.021,0.053-0.03,0.077-0.042
					l0.193-0.122c0.145-0.084,0.284-0.166,0.419-0.244c0.976-0.531,1.881-1.023,2.722-1.48c0.872-0.466,1.71-0.915,2.517-1.346
					c0.831-0.387,1.628-0.759,2.394-1.115c0.765-0.354,1.498-0.694,2.2-1.02c0.345-0.173,0.715-0.283,1.059-0.423
					c0.174-0.066,0.346-0.131,0.516-0.196l0.254-0.096l0.397-0.138c2.212-0.758,4.222-1.447,6.049-2.073
					c1.803-0.507,3.425-0.963,4.885-1.374c1.422-0.395,2.686-0.746,3.809-1.057c0.138-0.038,0.273-0.076,0.407-0.112l0.1-0.027
					l0.05-0.014l-0.026,0.047l-0.107,0.191c-0.142,0.252-0.279,0.496-0.413,0.731c-0.266,0.468-0.513,0.905-0.744,1.313
					c-1.845,3.243-2.612,4.525-2.941,5.041c-0.326,0.511-0.21,0.245-0.21,0.245s-1.336,2.283-3.362,5.748
					c-0.278,0.478-0.425,0.698-0.605,0.981c-0.18,0.279-0.365,0.568-0.557,0.865c-0.382,0.587-0.784,1.207-1.204,1.852
					c-0.835,1.275-1.729,2.617-2.626,3.928c-3.587,5.243-7.227,9.987-7.438,7.994c0,0-0.234-0.276,0.915-3.098
					c0.575-1.411,1.497-3.458,2.967-6.425c0.735-1.483,1.607-3.196,2.642-5.175c0.479-0.912,0.989-1.882,1.533-2.915
					C142.185,69.548,142.347,69.209,142.52,68.85z"/>
			</g>
		</g>
	</g>
	<g>
		<g>
			<path fill="#0D0D0D" d="M137.054,93.511c0,0.001-0.493-0.452-1.237-1.008c-0.355-0.285-0.754-0.606-1.093-0.952
				c-0.329-0.351-0.589-0.73-0.745-1.099c-0.164-0.364-0.349-0.673-0.434-0.987c-0.085-0.315-0.112-0.616-0.12-0.891
				c-0.032-0.263-0.027-0.508-0.033-0.717c0.02-0.222,0.059-0.423,0.089-0.594c0.018-0.087,0.054-0.178,0.103-0.271
				c0.047-0.066,0.114-0.164,0.197-0.284c0.125-0.175,0.21-0.31,0.253-0.397c0.08-0.173,0.049-0.187,0.179-0.13
				c0.133,0.056,0.038,0.029,0.808,0.143c0.222,0.057,0.441,0.113,0.646,0.165c0.295,0.06,0.581,0.168,0.911,0.313
				c0.276,0.17,0.66,0.346,0.846,0.684c0.212,0.325,0.13,0.854,0.143,1.42c0.049,0.501,0.094,0.97,0.138,1.437
				c0.014,0.363,0.027,0.726,0.041,1.092c-0.003,0.43-0.006,0.873-0.008,1.29c0.002,0.519-0.028,0.481-0.028,0.481
				s-0.013,0.112-0.039,0.348c-0.023,0.171-0.017,0.316-0.101,0.314C137.567,93.868,137.506,93.885,137.054,93.511z"/>
		</g>
	</g>
	<g>
		<path d="M56.664,164.883c0,0,0.179,0.21,0.514,0.603c0.335,0.384,0.826,0.946,1.451,1.662c0.613,0.713,1.412,1.537,2.28,2.489
			c0.896,0.936,1.881,1.993,3.004,3.088c1.107,1.105,2.323,2.271,3.64,3.447c1.293,1.201,2.733,2.366,4.196,3.571
			c1.509,1.152,3.049,2.347,4.694,3.431c1.629,1.105,3.329,2.145,5.069,3.105c1.743,0.952,3.521,1.844,5.32,2.611
			c0.896,0.397,1.796,0.766,2.699,1.099c0.892,0.369,1.8,0.656,2.691,0.958c0.446,0.147,0.885,0.315,1.33,0.443
			c0.447,0.119,0.89,0.245,1.326,0.378c0.439,0.13,0.873,0.259,1.302,0.387c0.437,0.104,0.866,0.206,1.291,0.307
			c1.695,0.464,3.342,0.737,4.87,1.074c0.772,0.128,1.514,0.251,2.218,0.367c0.355,0.064,0.701,0.127,1.038,0.188
			c0.339,0.043,0.668,0.084,0.986,0.125c1.278,0.147,2.416,0.397,3.352,0.461c0.936,0.083,1.687,0.212,2.197,0.271
			c0.515,0.079,0.789,0.121,0.789,0.121s-0.257,0.099-0.739,0.285c-0.485,0.166-1.196,0.451-2.12,0.733
			c-0.92,0.324-2.061,0.574-3.383,0.878c-1.321,0.336-2.838,0.465-4.508,0.694c-1.668,0.097-3.5,0.23-5.437,0.112
			c-0.486-0.021-0.979-0.044-1.477-0.066c-0.496-0.055-0.998-0.11-1.506-0.167c-1.021-0.096-2.057-0.257-3.102-0.475
			c-0.523-0.104-1.055-0.198-1.585-0.316c-0.529-0.122-1.053-0.281-1.585-0.423c-0.532-0.147-1.067-0.295-1.605-0.444
			c-0.524-0.188-1.053-0.377-1.582-0.566c-2.136-0.729-4.199-1.74-6.224-2.805c-0.989-0.573-1.971-1.163-2.928-1.777
			c-0.942-0.636-1.877-1.277-2.752-1.978c-0.44-0.347-0.888-0.681-1.315-1.033c-0.416-0.367-0.829-0.732-1.239-1.096
			c-0.835-0.709-1.583-1.491-2.336-2.236c-1.456-1.54-2.791-3.086-3.922-4.65c-1.148-1.548-2.123-3.085-2.944-4.54
			c-1.65-2.911-2.662-5.508-3.233-7.361c-0.31-0.915-0.466-1.67-0.588-2.172C56.698,165.16,56.664,164.883,56.664,164.883z"/>
	</g>
</g>
</svg>
