<?xml version="1.0" encoding="utf-8"?>
<!-- Generator: Adobe Illustrator 16.0.0, SVG Export Plug-In . SVG Version: 6.00 Build 0)  -->
<!DOCTYPE svg PUBLIC "-//W3C//DTD SVG 1.1//EN" "http://www.w3.org/Graphics/SVG/1.1/DTD/svg11.dtd">
<svg version="1.1" id="Calque_1" xmlns="http://www.w3.org/2000/svg" xmlns:xlink="http://www.w3.org/1999/xlink" x="0px" y="0px"
	 width="250px" height="250px" viewBox="0 0 250 250" enable-background="new 0 0 250 250" xml:space="preserve">
<g>
	<g>
		
			<linearGradient id="SVGID_1_" gradientUnits="userSpaceOnUse" x1="165.4785" y1="63.5923" x2="179.3906" y2="63.5923" gradientTransform="matrix(1 0 0 -1 59.1001 233.4004)">
			<stop  offset="0" style="stop-color:#F9B347"/>
			<stop  offset="1" style="stop-color:#F49735"/>
		</linearGradient>
		<path fill="url(#SVGID_1_)" stroke="#000000" stroke-width="2.8172" stroke-miterlimit="10" d="M238.323,192.369
			c0,0,2.723-37.989-13.744-45.122l0.148,4.172l0.708,3.479c0,0,10.293,1.473,9.126,36.587"/>
		
			<path fill="#432918" stroke="#000000" stroke-width="2.8172" stroke-linecap="square" stroke-linejoin="bevel" stroke-miterlimit="10" d="
			M234.562,191.484c0,0-3.592,5.552-3.027,10.737c0.565,5.187,4.584,7.521,5.752,8.299c1.168,0.777,4.072-2.982,4.072-8.688
			s-3.035-9.465-3.035-9.465L234.562,191.484z"/>
		<g>
			
				<linearGradient id="SVGID_2_" gradientUnits="userSpaceOnUse" x1="130.0742" y1="26.8115" x2="151.0918" y2="26.8115" gradientTransform="matrix(1 0 0 -1 59.1001 233.4004)">
				<stop  offset="0" style="stop-color:#F9B347"/>
				<stop  offset="1" style="stop-color:#F49735"/>
			</linearGradient>
			<path fill="url(#SVGID_2_)" d="M193.461,183.034c0,0,2.333,13.743,1.815,16.337c-0.521,2.593-8.816,32.246-5.187,34.405
				c3.631,2.158,12.187,1.639,14.262-1.732c2.074-3.371,2.074-17.373,2.074-17.373l3.767-20.746l-1.691-15.816"/>
			<path d="M193.461,183.034c0.776,3.447,1.479,6.913,2.026,10.417c0.258,1.765,0.537,3.487,0.562,5.372
				c-0.021,0.255-0.034,0.523-0.072,0.77l-0.136,0.672l-0.284,1.301l-0.573,2.584c-0.748,3.445-1.533,6.877-2.216,10.324
				c-0.67,3.447-1.354,6.893-1.81,10.338c-0.228,1.717-0.401,3.445-0.428,5.105c-0.014,0.818,0.022,1.655,0.172,2.29
				c0.056,0.306,0.23,0.538,0.142,0.427l-0.026-0.021l-0.096-0.05l0.148,0.074l0.295,0.147l0.293,0.146l0.234,0.078
				c0.582,0.235,1.445,0.416,2.209,0.527c0.795,0.096,1.607,0.157,2.422,0.128c1.625-0.03,3.264-0.301,4.688-0.837
				c0.687-0.283,1.368-0.622,1.78-1.061c0.14-0.094,0.176-0.223,0.277-0.323l0.066-0.079l0.035-0.04
				c0.055-0.097-0.066,0.122-0.051,0.092l0.01-0.019l0.02-0.037l0.146-0.297c0.241-0.432,0.267-0.7,0.389-1.02
				c0.438-1.492,0.683-3.25,0.873-4.947c0.381-3.434,0.579-6.951,0.649-10.428l0.004-0.13l0.017-0.088
				c0.662-3.452,1.394-6.892,2.089-10.336c0.692-3.444,1.452-6.879,2.176-10.319L209.483,194l-0.539-7.94
				c-0.168-2.648-0.314-5.299-0.44-7.952c0.438,2.618,0.854,5.241,1.25,7.864l1.153,7.877l0.012,0.078l-0.02,0.125
				c-0.533,3.476-1.029,6.957-1.591,10.426c-0.562,3.471-1.084,6.945-1.679,10.41l0.02-0.219c0.014,3.58-0.07,7.122-0.402,10.711
				c-0.194,1.805-0.397,3.567-0.933,5.471c-0.169,0.513-0.356,1.107-0.549,1.449l-0.144,0.299l-0.019,0.037l-0.009,0.019
				c0.011-0.019-0.118,0.213-0.072,0.126l-0.066,0.092l-0.135,0.184c-0.188,0.229-0.357,0.51-0.576,0.682
				c-0.824,0.84-1.772,1.291-2.698,1.688c-1.871,0.732-3.774,1.014-5.675,1.031c-1.922-0.002-3.756-0.152-5.771-0.927l-0.386-0.151
				l-0.297-0.152l-0.295-0.15l-0.146-0.074c0.014,0.008-0.16-0.09-0.107-0.063l-0.041-0.027l-0.082-0.059l-0.158-0.12
				c-0.758-0.702-0.881-1.354-1.036-1.894c-0.235-1.091-0.237-2.033-0.222-2.976c0.057-1.868,0.306-3.651,0.58-5.425
				c0.578-3.537,1.311-7.012,2.164-10.453c0.851-3.441,1.742-6.867,2.723-10.264l0.729-2.547l0.357-1.268l0.165-0.617
				c0.038-0.188,0.051-0.359,0.082-0.543c0.099-1.646-0.031-3.439-0.156-5.18C194.196,190.062,193.836,186.548,193.461,183.034z"/>
		</g>
		<g>
			
				<linearGradient id="SVGID_3_" gradientUnits="userSpaceOnUse" x1="94.8936" y1="27.3716" x2="109.6694" y2="27.3716" gradientTransform="matrix(1 0 0 -1 59.1001 233.4004)">
				<stop  offset="0" style="stop-color:#F9B347"/>
				<stop  offset="1" style="stop-color:#F49735"/>
			</linearGradient>
			<path fill="url(#SVGID_3_)" d="M155.082,175.255c0,0-3.305,14.301,1.604,28.559c4.084,11.863-2.9,25.769,0.602,31.257
				c2.353,3.688,8.955,0.401,11.021,0c0,0,1.038-18.325,0-22.731c-1.035-4.408,0.462-35.009,0.462-35.009"/>
			<path d="M155.082,175.255c-0.243,1.489-0.389,2.991-0.485,4.492c-0.114,1.5-0.151,3.004-0.165,4.504
				c0.014,1.502,0.049,2.998,0.146,4.491l0.188,2.233l0.276,2.221c0.232,1.473,0.472,2.941,0.813,4.388
				c0.139,0.729,0.355,1.44,0.547,2.156c0.186,0.718,0.389,1.429,0.643,2.125c0.455,1.388,1.006,2.83,1.355,4.403
				c0.352,1.531,0.557,3.09,0.654,4.645c0.193,3.113-0.023,6.207-0.393,9.232c-0.351,3.021-0.865,6.015-1.032,8.904
				c-0.08,1.437-0.046,2.863,0.278,4.061c0.164,0.604,0.387,1.109,0.75,1.525c0.238,0.269,0.672,0.555,1.18,0.666
				c1.049,0.26,2.441,0.063,3.792-0.287c0.683-0.174,1.372-0.394,2.075-0.627c0.725-0.232,1.374-0.479,2.331-0.692l-1.13,1.295
				c0.282-4.78,0.454-9.591,0.544-14.367c0.029-2.378,0.045-4.793-0.172-7.06l-0.269-1.748c-0.087-0.727-0.098-1.291-0.122-1.926
				c-0.036-1.233-0.03-2.449-0.019-3.664c0.041-2.424,0.104-4.84,0.233-7.252c0.124-2.41,0.252-4.819,0.417-7.227
				c0.341-4.813,0.72-9.621,1.246-14.419c0.07,4.825,0.063,9.646,0.095,14.461c0.012,4.813,0.039,9.634,0.16,14.418
				c0.04,1.194,0.088,2.388,0.174,3.562c0.043,0.565,0.101,1.205,0.17,1.674c0.016,0.213,0.113,0.6,0.147,0.822
				c0.06,0.33,0.133,0.67,0.179,0.992c0.307,2.523,0.346,4.937,0.383,7.373c0.033,2.428-0.02,4.848-0.088,7.266
				c-0.072,2.42-0.164,4.828-0.285,7.252l-0.053,1.06l-1.076,0.236c-0.517,0.112-1.285,0.397-1.997,0.618
				c-0.731,0.234-1.483,0.466-2.266,0.656c-1.556,0.361-3.244,0.695-5.154,0.238c-0.955-0.246-1.895-0.744-2.629-1.635
				c-0.613-0.736-1.009-1.653-1.227-2.504c-0.446-1.73-0.391-3.367-0.287-4.934c0.249-3.134,0.83-6.09,1.23-9.053
				c0.403-2.955,0.727-5.896,0.639-8.818c-0.042-1.459-0.186-2.908-0.461-4.326c-0.254-1.387-0.737-2.789-1.141-4.293
				c-0.226-0.735-0.4-1.484-0.556-2.236c-0.161-0.752-0.347-1.497-0.453-2.257c-0.272-1.511-0.452-3.03-0.601-4.552l-0.137-2.285
				l-0.047-2.285c0.002-1.523,0.051-3.044,0.164-4.559C153.896,181.193,154.328,178.181,155.082,175.255z"/>
		</g>
		
			<path fill="#432918" stroke="#000000" stroke-width="2.8172" stroke-linecap="square" stroke-linejoin="bevel" stroke-miterlimit="10" d="
			M170.524,37.723c0,0,5.557,5.96,5.687,8.063c0,0-0.771-0.378-4.03-0.928c-3.264-0.551,9.658,18.317,4.542,15.567
			c-8.056-4.331,0.597,4.093,1.192,7.42c0.598,3.326-0.473,0.243-3.694-1.151c-3.696-1.599,3.269,6.104,3.522,11.684
			c0.258,5.581-4.773-1.505-4.773-1.505s12.516,21.866,3.241,13.744c-1.985-1.737,5.563,10.553,1.887,8.95
			c-1.461-0.638-5.681-2.753-4.638-0.699c1.381,2.72,4.201,6.412,4.35,6.588c4.221,4.989,0.064,6.141-6.59,4.222
			c-6.651-1.919-9.465-22.771-9.465-22.771V62.473l7.035-27.761L170.524,37.723"/>
		
			<linearGradient id="SVGID_4_" gradientUnits="userSpaceOnUse" x1="87.1646" y1="111.5762" x2="166.002" y2="111.5762" gradientTransform="matrix(1 0 0 -1 59.1001 233.4004)">
			<stop  offset="0" style="stop-color:#F9B347"/>
			<stop  offset="1" style="stop-color:#F49735"/>
		</linearGradient>
		
			<path fill="url(#SVGID_4_)" stroke="#000000" stroke-width="2.8172" stroke-linecap="square" stroke-linejoin="bevel" stroke-miterlimit="10" d="
			M146.265,65.564l3.112,73.126c0,0-13.484,34.748,16.337,42.269c29.822,7.521,53.42-5.704,53.42-5.704s18.93-32.154-10.633-36.822
			c0,0-13.739-3.112-22.817-2.854c-9.077,0.261-16.915-7.778-16.915-27.486c0-7.426-2.534-47.715-2.534-47.715"/>
		<g>
			
				<linearGradient id="SVGID_5_" gradientUnits="userSpaceOnUse" x1="102.9727" y1="33.0459" x2="125.667" y2="33.0459" gradientTransform="matrix(1 0 0 -1 59.1001 233.4004)">
				<stop  offset="0" style="stop-color:#F9B347"/>
				<stop  offset="1" style="stop-color:#F49735"/>
			</linearGradient>
			<path fill="url(#SVGID_5_)" d="M163.761,162.515c0,0-5.187,24.326,2.623,42.146c6.09,13.895,1.988,28.225,4.441,31.324
				c2.965,3.746,12.735,2.544,13.863-2.21c0.994-4.195-7.765-30.058-6.143-38.873c1.359-7.397,1.172-20.687,1.172-20.687"/>
			<path d="M163.761,162.515c0,0-0.394,2.338-0.735,6.453c-0.354,4.105-0.621,10.021-0.008,17.022
				c0.295,3.498,0.891,7.26,1.896,11.116c0.516,1.924,1.148,3.867,1.94,5.787c0.4,0.947,0.854,1.943,1.271,2.97
				c0.428,1.063,0.805,2.123,1.123,3.221c1.322,4.375,1.897,9.082,2.043,13.802c0.068,2.359,0.02,4.732,0.017,7.06
				c0.002,1.159,0.013,2.319,0.13,3.38c0.059,0.523,0.146,1.043,0.285,1.406c0.046,0.16,0.191,0.363,0.148,0.334l0.296,0.332
				c0.065,0.051,0.122,0.1,0.18,0.154c1.334,1.076,3.628,1.412,5.669,1.166c2.042-0.227,4.169-1.111,5.023-2.496
				c0.105-0.17,0.186-0.344,0.252-0.521l0.041-0.137l0.021-0.066l0.012-0.033c-0.039,0.198-0.006,0.024-0.014,0.055l0.059-0.42
				c-0.002-0.271-0.01-0.867-0.078-1.387c-0.12-1.07-0.307-2.185-0.51-3.285c-0.416-2.207-0.897-4.4-1.375-6.562
				c-0.972-4.317-1.904-8.515-2.633-12.539c-0.728-4.024-1.322-7.869-1.306-11.533c0.03-0.921,0.058-1.821,0.231-2.726
				c0.14-0.844,0.326-1.658,0.432-2.438c0.262-1.559,0.449-3.082,0.605-4.505c0.307-2.853,0.48-5.354,0.604-7.418
				c0.244-4.126,0.336-6.491,0.337-6.491c0,0,0.031,0.59,0.089,1.698c0.05,1.106,0.134,2.733,0.147,4.808
				c0.023,2.071,0.027,4.59-0.074,7.483c-0.061,1.451-0.127,2.981-0.298,4.626c-0.072,0.829-0.214,1.643-0.31,2.477
				c-0.115,0.772-0.101,1.615-0.086,2.465c0.166,3.435,0.887,7.191,1.731,11.131c0.87,3.941,1.924,8.08,2.968,12.395
				c0.525,2.155,1.059,4.354,1.534,6.617c0.231,1.139,0.459,2.284,0.599,3.503c0.067,0.626,0.131,1.188,0.078,2.074l-0.059,0.44
				l-0.029,0.162l-0.02,0.069l-0.041,0.142l-0.084,0.281c-0.129,0.368-0.295,0.723-0.494,1.051c-0.809,1.319-2.01,2.168-3.217,2.76
				c-1.223,0.574-2.502,0.923-3.801,1.084c-1.298,0.168-2.621,0.148-3.949-0.086c-1.318-0.254-2.674-0.727-3.859-1.709l-0.471-0.444
				l-0.293-0.334c-0.389-0.509-0.52-0.83-0.672-1.228c-0.267-0.75-0.352-1.41-0.424-2.058c-0.131-1.288-0.126-2.491-0.123-3.687
				c0.021-2.383,0.082-4.699,0.034-6.991c-0.048-4.575-0.509-9.05-1.667-13.194c-0.28-1.035-0.618-2.058-0.962-3.027
				c-0.369-1.002-0.777-1.984-1.174-3.016c-0.77-2.05-1.364-4.104-1.834-6.117c-0.934-4.037-1.317-7.928-1.473-11.5
				c-0.172-3.578-0.016-6.855,0.191-9.742c0.215-2.89,0.529-5.392,0.834-7.442c0.303-2.054,0.643-3.647,0.867-4.733
				C163.628,163.093,163.761,162.515,163.761,162.515z"/>
		</g>
		<g>
			
				<linearGradient id="SVGID_6_" gradientUnits="userSpaceOnUse" x1="140.7529" y1="41.916" x2="169.8867" y2="41.916" gradientTransform="matrix(1 0 0 -1 59.1001 233.4004)">
				<stop  offset="0" style="stop-color:#F9B347"/>
				<stop  offset="1" style="stop-color:#F49735"/>
			</linearGradient>
			<path fill="url(#SVGID_6_)" d="M222.634,149.192c0,0,5.574,8.688,6.354,37.472c0,0-3.886,34.748-3.552,43.177
				c0.195,4.916-16.345,5.75-15.639-0.519c0.646-5.726,6.226-37.824,6.226-37.824s-22.301-15.728-14.521-38.805"/>
			<path d="M222.634,149.192c0.844,1.357,1.441,2.854,2.02,4.346c0.551,1.504,1.029,3.035,1.438,4.583
				c0.214,0.772,0.418,1.548,0.593,2.329c0.18,0.779,0.381,1.559,0.53,2.344l0.479,2.355l0.409,2.367
				c0.286,1.578,0.481,3.168,0.709,4.756c0.179,1.591,0.358,3.184,0.519,4.777c0.129,1.596,0.275,3.191,0.39,4.789l0.269,4.797
				c0,0.033,0,0.066-0.002,0.1l-0.004,0.039c-0.838,8.394-1.582,16.804-2.283,25.201c-0.334,4.199-0.646,8.404-0.834,12.59
				c-0.058,1.049-0.068,2.084-0.096,3.123c-0.016,0.521,0.012,1.019,0.01,1.529l0.004,0.84c-0.021,0.504-0.137,0.918-0.308,1.303
				c-0.351,0.775-0.897,1.309-1.431,1.721c-0.542,0.403-1.102,0.702-1.661,0.939c-1.121,0.479-2.249,0.748-3.38,0.925
				c-2.264,0.327-4.547,0.312-6.855-0.284c-1.145-0.322-2.34-0.779-3.396-1.771c-0.517-0.494-0.978-1.164-1.202-1.93
				c-0.118-0.379-0.171-0.773-0.178-1.152c-0.016-0.373,0.047-0.785,0.078-1.002c0.559-4.172,1.297-8.408,1.975-12.557
				c1.383-8.338,2.846-16.654,4.354-24.967l0.517,1.246c-0.817-0.605-1.517-1.204-2.237-1.84c-0.713-0.627-1.396-1.285-2.068-1.951
				c-1.332-1.348-2.578-2.773-3.74-4.268c-1.161-1.494-2.232-3.06-3.195-4.689c-0.48-0.814-0.925-1.652-1.339-2.506
				c-0.401-0.856-0.806-1.715-1.138-2.602c-0.361-0.875-0.645-1.781-0.934-2.682c-0.256-0.912-0.513-1.82-0.679-2.754
				c-0.196-0.924-0.308-1.865-0.412-2.801l-0.11-1.408c-0.023-0.471-0.018-0.941-0.026-1.411c-0.033-0.938,0.065-1.877,0.118-2.81
				c0.123-0.93,0.201-1.86,0.406-2.772c0.149-0.922,0.401-1.819,0.662-2.712c0.24-0.896,0.604-1.758,0.896-2.631
				c-0.206,0.904-0.477,1.787-0.625,2.697c-0.164,0.906-0.323,1.811-0.409,2.725c-0.136,0.906-0.142,1.824-0.192,2.734
				c0.019,0.912-0.012,1.826,0.09,2.73c0.045,0.453,0.071,0.906,0.129,1.355l0.207,1.346c0.17,0.891,0.343,1.779,0.598,2.646
				c0.229,0.875,0.506,1.733,0.801,2.586c0.323,0.844,0.637,1.688,1.028,2.502c0.36,0.826,0.788,1.623,1.215,2.416
				c0.438,0.787,0.905,1.558,1.39,2.318c0.978,1.516,2.055,2.965,3.217,4.346c1.16,1.381,2.41,2.688,3.715,3.932
				c0.654,0.617,1.318,1.229,2.006,1.805c0.678,0.571,1.402,1.155,2.08,1.635c0.408,0.287,0.594,0.773,0.519,1.235l-0.002,0.011
				l-4.124,24.982c-0.665,4.188-1.361,8.273-1.904,12.475c-0.043,0.305-0.06,0.42-0.052,0.573c0.003,0.147,0.023,0.28,0.064,0.405
				c0.069,0.252,0.218,0.488,0.458,0.725c0.48,0.477,1.299,0.857,2.176,1.1c1.779,0.479,3.807,0.528,5.713,0.256
				c0.953-0.141,1.895-0.367,2.719-0.717c0.819-0.326,1.536-0.861,1.695-1.268c0.047-0.098,0.063-0.201,0.072-0.225v-0.742
				c0-0.545-0.014-1.104,0.007-1.637c0.041-1.071,0.067-2.146,0.14-3.205c0.245-4.25,0.614-8.463,1.004-12.676
				c0.778-8.424,1.754-16.813,2.76-25.209l-0.006,0.139l-0.102-4.762c-0.049-1.586-0.13-3.17-0.193-4.758
				c-0.094-1.584-0.207-3.166-0.32-4.75c-0.166-1.576-0.25-3.166-0.45-4.74l-0.272-2.365l-0.343-2.355
				c-0.103-0.787-0.259-1.564-0.394-2.348c-0.129-0.784-0.287-1.563-0.457-2.338c-0.153-0.779-0.338-1.551-0.532-2.32
				c-0.179-0.773-0.411-1.531-0.615-2.302C223.849,152.136,223.37,150.608,222.634,149.192z"/>
		</g>
		
			<path fill="#432918" stroke="#000000" stroke-width="2.8172" stroke-linecap="square" stroke-linejoin="bevel" stroke-miterlimit="10" d="
			M210.194,226.438c0,0,2.791,4.31,14.907,1.197l0.283,2.754c0,0-1.674,3.594-7.597,3.379c-5.924-0.217-7.83-3.034-7.83-3.034
			L210.194,226.438z"/>
		
			<path fill="#432918" stroke="#000000" stroke-width="2.8172" stroke-linecap="square" stroke-linejoin="bevel" stroke-miterlimit="10" d="
			M189.174,228.763c0,0,2.288,3.658,15.438,0v2.778c0,0-2.438,3.032-5.695,3.294c-3.342,0.27-3.188,1.368-8.826-1.06
			C189.174,233.382,189.174,228.763,189.174,228.763z"/>
		
			<path fill="#432918" stroke="#000000" stroke-width="2.8172" stroke-linecap="square" stroke-linejoin="bevel" stroke-miterlimit="10" d="
			M169.55,233.776c0,0,7.277,1.063,14.188-1.667c0,0,0.414,0.509,0.711,0.935c0.295,0.426,0.703,4.112-5.375,4.561
			C172.997,238.052,171.284,237.56,169.55,233.776z"/>
		
			<path fill="#432918" stroke="#000000" stroke-width="2.8172" stroke-linecap="square" stroke-linejoin="bevel" stroke-miterlimit="10" d="
			M168.528,230.39c-0.022,0.607-12.341,1.72-12.341,1.72s0.396,5.362,7.006,4.438C169.798,235.621,168.528,230.39,168.528,230.39z"
			/>
		
			<linearGradient id="SVGID_7_" gradientUnits="userSpaceOnUse" x1="135.8506" y1="85.1289" x2="153.207" y2="85.1289" gradientTransform="matrix(1 0 0 -1 59.1001 233.4004)">
			<stop  offset="0" style="stop-color:#BD8B38"/>
			<stop  offset="0.1275" style="stop-color:#B28032"/>
			<stop  offset="0.4108" style="stop-color:#A06C27"/>
			<stop  offset="0.6997" style="stop-color:#966121"/>
			<stop  offset="1" style="stop-color:#925D1F"/>
		</linearGradient>
		<path fill="url(#SVGID_7_)" stroke="#000000" stroke-width="2.8172" stroke-miterlimit="10" d="M195.405,141.103
			c0,0,1.707-1.705,3.668-1.364c1.963,0.342,9.125,3.069,11.939,3.838c2.813,0.769,0.512,8.444-1.877,10.917
			c-2.387,2.473-4.094,4.605-6.65-2.389c-2.561-6.992-4.01-7.078-4.01-7.078S193.444,143.832,195.405,141.103z"/>
		
			<linearGradient id="SVGID_8_" gradientUnits="userSpaceOnUse" x1="146.6719" y1="72.0347" x2="157.876" y2="72.0347" gradientTransform="matrix(1 0 0 -1 59.1001 233.4004)">
			<stop  offset="0" style="stop-color:#BD8B38"/>
			<stop  offset="0.1275" style="stop-color:#B28032"/>
			<stop  offset="0.4108" style="stop-color:#A06C27"/>
			<stop  offset="0.6997" style="stop-color:#966121"/>
			<stop  offset="1" style="stop-color:#925D1F"/>
		</linearGradient>
		<path fill="url(#SVGID_8_)" stroke="#000000" stroke-width="2.8172" stroke-miterlimit="10" d="M213.997,154.493
			c0,0-8.869,7.078-8.188,9.553c0.683,2.473,6.39,4.69,8.608,4.18C216.641,167.712,219.03,153.386,213.997,154.493z"/>
		
			<linearGradient id="SVGID_9_" gradientUnits="userSpaceOnUse" x1="156.2305" y1="84.6836" x2="161.7637" y2="84.6836" gradientTransform="matrix(1 0 0 -1 59.1001 233.4004)">
			<stop  offset="0" style="stop-color:#BD8B38"/>
			<stop  offset="0.1275" style="stop-color:#B28032"/>
			<stop  offset="0.4108" style="stop-color:#A06C27"/>
			<stop  offset="0.6997" style="stop-color:#966121"/>
			<stop  offset="1" style="stop-color:#925D1F"/>
		</linearGradient>
		<path fill="url(#SVGID_9_)" stroke="#000000" stroke-width="2.8172" stroke-miterlimit="10" d="M217.323,145.368
			c0,0-2.897,1.107-1.705,4.521c1.192,3.41,2.899,1.791,3.924,1.791C220.565,151.681,222.784,146.535,217.323,145.368z"/>
		
			<linearGradient id="SVGID_10_" gradientUnits="userSpaceOnUse" x1="153.0146" y1="59.5981" x2="165.0439" y2="59.5981" gradientTransform="matrix(1 0 0 -1 59.1001 233.4004)">
			<stop  offset="0" style="stop-color:#BD8B38"/>
			<stop  offset="0.1275" style="stop-color:#B28032"/>
			<stop  offset="0.4108" style="stop-color:#A06C27"/>
			<stop  offset="0.6997" style="stop-color:#966121"/>
			<stop  offset="1" style="stop-color:#925D1F"/>
		</linearGradient>
		<path fill="url(#SVGID_10_)" stroke="#000000" stroke-width="2.8172" stroke-miterlimit="10" d="M219.798,168.3
			c0,0-10.234,3.592-7.079,7.516s8.271,3.839,10.489,3.07C225.426,178.117,223.465,168.8,219.798,168.3z"/>
		
			<linearGradient id="SVGID_11_" gradientUnits="userSpaceOnUse" x1="123.0596" y1="73.061" x2="134.2744" y2="73.061" gradientTransform="matrix(1 0 0 -1 59.1001 233.4004)">
			<stop  offset="0" style="stop-color:#BD8B38"/>
			<stop  offset="0.1275" style="stop-color:#B28032"/>
			<stop  offset="0.4108" style="stop-color:#A06C27"/>
			<stop  offset="0.6997" style="stop-color:#966121"/>
			<stop  offset="1" style="stop-color:#925D1F"/>
		</linearGradient>
		<path fill="url(#SVGID_11_)" stroke="#000000" stroke-width="2.8172" stroke-miterlimit="10" d="M189.174,155.517
			c0,0,5.465-1.193,3.929,3.07c-1.535,4.264-4.689,7.504-5.373,6.566C187.047,164.216,174.669,156.19,189.174,155.517z"/>
		
			<linearGradient id="SVGID_12_" gradientUnits="userSpaceOnUse" x1="125.5703" y1="85.9668" x2="135.1953" y2="85.9668" gradientTransform="matrix(1 0 0 -1 59.1001 233.4004)">
			<stop  offset="0" style="stop-color:#BD8B38"/>
			<stop  offset="0.1275" style="stop-color:#B28032"/>
			<stop  offset="0.4108" style="stop-color:#A06C27"/>
			<stop  offset="0.6997" style="stop-color:#966121"/>
			<stop  offset="1" style="stop-color:#925D1F"/>
		</linearGradient>
		<path fill="url(#SVGID_12_)" stroke="#000000" stroke-width="2.8172" stroke-miterlimit="10" d="M187.768,144.259
			c0,0-6.263,4.605-0.976,7.164c5.287,2.56,8.271-0.332,7.332-4.176C193.188,143.406,192.495,140.423,187.768,144.259z"/>
		
			<linearGradient id="SVGID_13_" gradientUnits="userSpaceOnUse" x1="114.3691" y1="80.3755" x2="121.6973" y2="80.3755" gradientTransform="matrix(1 0 0 -1 59.1001 233.4004)">
			<stop  offset="0" style="stop-color:#BD8B38"/>
			<stop  offset="0.1275" style="stop-color:#B28032"/>
			<stop  offset="0.4108" style="stop-color:#A06C27"/>
			<stop  offset="0.6997" style="stop-color:#966121"/>
			<stop  offset="1" style="stop-color:#925D1F"/>
		</linearGradient>
		<path fill="url(#SVGID_13_)" stroke="#000000" stroke-width="2.8172" stroke-miterlimit="10" d="M180.321,149.192
			c0,0-7.262,1.378-6.834,4.447c0.428,3.07,3.412,2.922,4.861,3.209S181.696,150.116,180.321,149.192z"/>
		
			<linearGradient id="SVGID_14_" gradientUnits="userSpaceOnUse" x1="109.1553" y1="91.7998" x2="120.3911" y2="91.7998" gradientTransform="matrix(1 0 0 -1 59.1001 233.4004)">
			<stop  offset="0" style="stop-color:#BD8B38"/>
			<stop  offset="0.1275" style="stop-color:#B28032"/>
			<stop  offset="0.4108" style="stop-color:#A06C27"/>
			<stop  offset="0.6997" style="stop-color:#966121"/>
			<stop  offset="1" style="stop-color:#925D1F"/>
		</linearGradient>
		<path fill="url(#SVGID_14_)" stroke="#000000" stroke-width="2.8172" stroke-miterlimit="10" d="M170.415,136.072
			c0,0-4.859,1.704,0,7.76c4.863,6.058,8.615,2.476,8.957,2.476C179.713,146.306,179.969,134.026,170.415,136.072z"/>
		
			<linearGradient id="SVGID_15_" gradientUnits="userSpaceOnUse" x1="99.4746" y1="84.4619" x2="111.6558" y2="84.4619" gradientTransform="matrix(1 0 0 -1 59.1001 233.4004)">
			<stop  offset="0" style="stop-color:#BD8B38"/>
			<stop  offset="0.1275" style="stop-color:#B28032"/>
			<stop  offset="0.4108" style="stop-color:#A06C27"/>
			<stop  offset="0.6997" style="stop-color:#966121"/>
			<stop  offset="1" style="stop-color:#925D1F"/>
		</linearGradient>
		<path fill="url(#SVGID_15_)" stroke="#000000" stroke-width="2.8172" stroke-miterlimit="10" d="M162.998,142.979
			c0,0-3.412-1.022-4.35,7.164c-0.939,8.188,7.418,3.41,7.418,3.41S178.435,150.911,162.998,142.979z"/>
		
			<linearGradient id="SVGID_16_" gradientUnits="userSpaceOnUse" x1="97.5854" y1="98.7773" x2="105.71" y2="98.7773" gradientTransform="matrix(1 0 0 -1 59.1001 233.4004)">
			<stop  offset="0" style="stop-color:#BD8B38"/>
			<stop  offset="0.1275" style="stop-color:#B28032"/>
			<stop  offset="0.4108" style="stop-color:#A06C27"/>
			<stop  offset="0.6997" style="stop-color:#966121"/>
			<stop  offset="1" style="stop-color:#925D1F"/>
		</linearGradient>
		<path fill="url(#SVGID_16_)" stroke="#000000" stroke-width="2.8172" stroke-miterlimit="10" d="M162.443,129.931
			c0,0-5.758,3.207-5.758,5.91s5.116,3.813,6.313,3.387C164.191,138.802,166.664,131.638,162.443,129.931z"/>
		
			<linearGradient id="SVGID_17_" gradientUnits="userSpaceOnUse" x1="120.3911" y1="96.2036" x2="132.4688" y2="96.2036" gradientTransform="matrix(1 0 0 -1 59.1001 233.4004)">
			<stop  offset="0" style="stop-color:#BD8B38"/>
			<stop  offset="0.1275" style="stop-color:#B28032"/>
			<stop  offset="0.4108" style="stop-color:#A06C27"/>
			<stop  offset="0.6997" style="stop-color:#966121"/>
			<stop  offset="1" style="stop-color:#925D1F"/>
		</linearGradient>
		<path fill="url(#SVGID_17_)" stroke="#000000" stroke-width="2.8172" stroke-miterlimit="10" d="M179.491,134.623
			c0,0,0.137,5.88,5.853,5.071c5.713-0.809,6.226-3.366,6.226-3.366l-3.801-0.754L179.491,134.623z"/>
		
			<linearGradient id="SVGID_18_" gradientUnits="userSpaceOnUse" x1="100.4053" y1="112.479" x2="110.7261" y2="112.479" gradientTransform="matrix(1 0 0 -1 59.1001 233.4004)">
			<stop  offset="0" style="stop-color:#BD8B38"/>
			<stop  offset="0.1275" style="stop-color:#B28032"/>
			<stop  offset="0.4108" style="stop-color:#A06C27"/>
			<stop  offset="0.6997" style="stop-color:#966121"/>
			<stop  offset="1" style="stop-color:#925D1F"/>
		</linearGradient>
		<path fill="url(#SVGID_18_)" stroke="#000000" stroke-width="2.8172" stroke-miterlimit="10" d="M167.321,114.324
			c0,0-3.383-1.365-6.964,5.459c-3.582,6.821,5.287,7.847,5.287,7.847s4.345-0.297,4.177-4.711
			C169.653,118.503,167.321,114.324,167.321,114.324z"/>
		
			<linearGradient id="SVGID_19_" gradientUnits="userSpaceOnUse" x1="97.0938" y1="119.502" x2="103.3672" y2="119.502" gradientTransform="matrix(1 0 0 -1 59.1001 233.4004)">
			<stop  offset="0" style="stop-color:#BD8B38"/>
			<stop  offset="0.1275" style="stop-color:#B28032"/>
			<stop  offset="0.4108" style="stop-color:#A06C27"/>
			<stop  offset="0.6997" style="stop-color:#966121"/>
			<stop  offset="1" style="stop-color:#925D1F"/>
		</linearGradient>
		<path fill="url(#SVGID_19_)" stroke="#000000" stroke-width="2.8172" stroke-miterlimit="10" d="M158.574,111.85
			c0,0-3.68,2.133-1.889,3.752c1.79,1.621,6.141-1.192,5.758-2.813C162.059,111.168,158.574,111.85,158.574,111.85z"/>
		
			<linearGradient id="SVGID_20_" gradientUnits="userSpaceOnUse" x1="105.5654" y1="126.582" x2="109.5103" y2="126.582" gradientTransform="matrix(1 0 0 -1 59.1001 233.4004)">
			<stop  offset="0" style="stop-color:#BD8B38"/>
			<stop  offset="0.1275" style="stop-color:#B28032"/>
			<stop  offset="0.4108" style="stop-color:#A06C27"/>
			<stop  offset="0.6997" style="stop-color:#966121"/>
			<stop  offset="1" style="stop-color:#925D1F"/>
		</linearGradient>
		<path fill="url(#SVGID_20_)" stroke="#000000" stroke-width="2.8172" stroke-miterlimit="10" d="M168.257,102.213
			c0,0-3.632,3.07-3.591,5.715c0.035,2.645,2.795,3.496,3.591,3.496C169.052,111.424,168.257,102.213,168.257,102.213z"/>
		
			<linearGradient id="SVGID_21_" gradientUnits="userSpaceOnUse" x1="99.3369" y1="130.7402" x2="105.8115" y2="130.7402" gradientTransform="matrix(1 0 0 -1 59.1001 233.4004)">
			<stop  offset="0" style="stop-color:#BD8B38"/>
			<stop  offset="0.1275" style="stop-color:#B28032"/>
			<stop  offset="0.4108" style="stop-color:#A06C27"/>
			<stop  offset="0.6997" style="stop-color:#966121"/>
			<stop  offset="1" style="stop-color:#925D1F"/>
		</linearGradient>
		<path fill="url(#SVGID_21_)" stroke="#000000" stroke-width="2.8172" stroke-miterlimit="10" d="M161.717,99.058
			c0,0,2.434-0.598,3.094,0.682s-2.048,7.506-4.063,6.567c-2.016-0.939-2.952-3.392-1.83-4.852
			C160.037,99.997,161.717,99.058,161.717,99.058z"/>
		
			<linearGradient id="SVGID_22_" gradientUnits="userSpaceOnUse" x1="99.6255" y1="143.4688" x2="107.7505" y2="143.4688" gradientTransform="matrix(1 0 0 -1 59.1001 233.4004)">
			<stop  offset="0" style="stop-color:#BD8B38"/>
			<stop  offset="0.1275" style="stop-color:#B28032"/>
			<stop  offset="0.4108" style="stop-color:#A06C27"/>
			<stop  offset="0.6997" style="stop-color:#966121"/>
			<stop  offset="1" style="stop-color:#925D1F"/>
		</linearGradient>
		<path fill="url(#SVGID_22_)" stroke="#000000" stroke-width="2.8172" stroke-miterlimit="10" d="M164.484,85.239
			c0,0-5.759,3.206-5.759,5.91c0,2.703,5.116,3.812,6.313,3.386C166.232,94.108,168.704,86.944,164.484,85.239z"/>
		
			<linearGradient id="SVGID_23_" gradientUnits="userSpaceOnUse" x1="44.0073" y1="210.0684" x2="70.0112" y2="210.0684" gradientTransform="matrix(1 0 0 -1 59.1001 233.4004)">
			<stop  offset="0" style="stop-color:#F9B347"/>
			<stop  offset="1" style="stop-color:#F49735"/>
		</linearGradient>
		<path fill="url(#SVGID_23_)" stroke="#000000" stroke-width="2.8172" stroke-miterlimit="10" d="M129.111,24.963
			c0,0-1.558-11.478-17.765-12.125c-16.207-0.648-5.964,20.615,8.882,21.004"/>
		
			<linearGradient id="SVGID_24_" gradientUnits="userSpaceOnUse" x1="87.4639" y1="218.7305" x2="94.5991" y2="218.7305" gradientTransform="matrix(1 0 0 -1 59.1001 233.4004)">
			<stop  offset="0" style="stop-color:#F9B347"/>
			<stop  offset="1" style="stop-color:#F49735"/>
		</linearGradient>
		<path fill="url(#SVGID_24_)" stroke="#000000" stroke-width="2.8172" stroke-miterlimit="10" d="M146.639,23.134
			c0,0-0.539-13.483,1.275-16.077c1.815-2.593,5.785,1.557,5.785,1.557s-3.451,13.224-2.154,14.521"/>
		
			<linearGradient id="SVGID_25_" gradientUnits="userSpaceOnUse" x1="70.2515" y1="218.7305" x2="79.4795" y2="218.7305" gradientTransform="matrix(1 0 0 -1 59.1001 233.4004)">
			<stop  offset="0" style="stop-color:#F9B347"/>
			<stop  offset="1" style="stop-color:#F49735"/>
		</linearGradient>
		<path fill="url(#SVGID_25_)" stroke="#000000" stroke-width="2.8172" stroke-miterlimit="10" d="M133.648,22.821
			c0,0-2.074-10.632-3.891-11.67c-1.814-1.036,2.854-5.705,5.964-4.407c3.112,1.296,2.853,14.002,2.853,14.002"/>
		
			<path fill="#432918" stroke="#000000" stroke-width="2.8172" stroke-linecap="square" stroke-linejoin="bevel" stroke-miterlimit="10" d="
			M172.969,38.121"/>
		
			<linearGradient id="SVGID_26_" gradientUnits="userSpaceOnUse" x1="50.3403" y1="176.4102" x2="110.7188" y2="176.4102" gradientTransform="matrix(1 0 0 -1 59.1001 233.4004)">
			<stop  offset="0" style="stop-color:#F9B347"/>
			<stop  offset="1" style="stop-color:#F49735"/>
		</linearGradient>
		<path fill="url(#SVGID_26_)" stroke="#000000" stroke-width="2.8172" stroke-miterlimit="10" d="M140.908,21.265
			c0,0-18.664,1.612-22.819,18.93c-1.555,6.482-0.52,14.262-1.555,15.559c-1.039,1.297-9.845,17.055-6.225,23.728
			c4.854,8.945,8.039,16.596,29.691,11.799s28.653-32.934,28.653-32.934S178.509,19.709,140.908,21.265z"/>
		
			<path fill="#FFFFFF" stroke="#000000" stroke-width="2.8172" stroke-linecap="square" stroke-linejoin="bevel" stroke-miterlimit="10" d="
			M124.283,54.306l13.489,1.037c0,0,3.756-10.242-2.34-13.354C129.339,38.878,123.373,44.193,124.283,54.306z"/>
		
			<path fill="#FFFFFF" stroke="#000000" stroke-width="2.8172" stroke-linecap="square" stroke-linejoin="bevel" stroke-miterlimit="10" d="
			M141.191,56.148l13.49,1.036c0,0,3.753-10.242-2.34-13.354C146.246,40.718,140.283,46.035,141.191,56.148z"/>
		<path stroke="#000000" stroke-width="2.8172" stroke-linecap="square" stroke-linejoin="bevel" stroke-miterlimit="10" d="
			M141.611,56.179l12.635,0.973c0,0,3.218-6.525-4.666-7.087C141.699,49.503,142.228,53.946,141.611,56.179z"/>
		<path stroke="#000000" stroke-width="2.8172" stroke-linecap="square" stroke-linejoin="bevel" stroke-miterlimit="10" d="
			M124.911,53.879l12.635,0.972c0,0,3.217-6.523-4.665-7.087C124.997,47.201,125.527,51.646,124.911,53.879z"/>
		<g>
			<path d="M133.967,81.176c0,0,1.628-4.989,4.611-4.222"/>
			<path d="M133.967,81.176c0,0-0.083-0.138-0.16-0.375c-0.081-0.236-0.156-0.568-0.175-0.955c-0.04-0.769,0.207-1.75,0.896-2.563
				c0.17-0.197,0.358-0.393,0.586-0.555c0.199-0.176,0.473-0.305,0.715-0.42c0.246-0.115,0.541-0.17,0.787-0.217
				c0.271-0.021,0.529-0.005,0.75,0.023c0.23,0.059,0.428,0.147,0.588,0.228c0.162,0.064,0.281,0.209,0.375,0.291
				c0.184,0.187,0.252,0.32,0.252,0.32s-0.118,0.086-0.328,0.235c-0.092,0.072-0.195,0.132-0.295,0.23
				c-0.084,0.089-0.178,0.189-0.282,0.299c-0.074,0.102-0.153,0.212-0.238,0.328c-0.073,0.133-0.146,0.22-0.222,0.341
				c-0.076,0.127-0.157,0.219-0.248,0.351l-0.292,0.367c-0.218,0.239-0.456,0.509-0.728,0.747c-0.263,0.25-0.558,0.477-0.84,0.676
				c-0.291,0.193-0.564,0.358-0.779,0.471C134.117,81.11,133.967,81.176,133.967,81.176z"/>
		</g>
		<g>
			<path d="M124.742,80.53c0,0-1.629-4.989-4.615-4.221"/>
			<path d="M124.742,80.53c0,0-0.15-0.065-0.361-0.177c-0.215-0.112-0.488-0.277-0.779-0.471c-0.283-0.199-0.578-0.426-0.84-0.676
				c-0.272-0.238-0.511-0.507-0.728-0.747l-0.292-0.367c-0.091-0.132-0.172-0.223-0.249-0.351c-0.077-0.121-0.148-0.207-0.223-0.34
				c-0.084-0.117-0.164-0.228-0.238-0.329c-0.104-0.108-0.198-0.209-0.283-0.298c-0.099-0.099-0.203-0.159-0.295-0.23
				c-0.209-0.149-0.328-0.235-0.328-0.235s0.069-0.134,0.253-0.32c0.093-0.082,0.212-0.228,0.374-0.292
				c0.16-0.079,0.358-0.168,0.589-0.228c0.22-0.027,0.479-0.045,0.75-0.023c0.245,0.047,0.54,0.102,0.787,0.217
				c0.242,0.115,0.516,0.244,0.715,0.42c0.228,0.161,0.417,0.356,0.587,0.555c0.688,0.812,0.936,1.794,0.896,2.563
				c-0.018,0.386-0.094,0.719-0.175,0.955C124.826,80.392,124.742,80.53,124.742,80.53z"/>
		</g>
		<g>
			<path d="M124.189,39.705c0,0,0.106-0.254,0.379-0.631c0.269-0.381,0.701-0.891,1.313-1.399c0.605-0.52,1.406-1.005,2.332-1.405
				c0.47-0.176,0.957-0.377,1.48-0.477c0.26-0.056,0.521-0.128,0.786-0.169l0.81-0.083c0.541-0.061,1.086-0.018,1.619,0.014
				c0.533,0.021,1.045,0.171,1.539,0.269c0.492,0.108,0.941,0.319,1.369,0.48c0.43,0.155,0.793,0.408,1.135,0.61
				c0.332,0.219,0.642,0.4,0.875,0.633c0.246,0.208,0.443,0.414,0.605,0.577c0.323,0.33,0.482,0.543,0.482,0.543
				s-0.282,0.001-0.73-0.04c-0.224-0.022-0.494-0.041-0.787-0.091c-0.289-0.059-0.641-0.04-0.992-0.082
				c-0.356-0.024-0.724-0.103-1.123-0.097c-0.396-0.006-0.799-0.069-1.217-0.065c-0.421,0.016-0.843-0.032-1.273-0.007
				c-0.43,0.036-0.865-0.004-1.299,0.064c-0.436,0.018-0.867,0.064-1.295,0.124c-0.433,0.035-0.85,0.131-1.269,0.181
				c-0.821,0.154-1.62,0.299-2.312,0.468c-0.701,0.148-1.298,0.304-1.733,0.409C124.443,39.641,124.189,39.705,124.189,39.705z"/>
		</g>
		<g>
			<path d="M143.652,38.289c0,0,0.152-0.229,0.492-0.548c0.336-0.323,0.855-0.742,1.555-1.126c0.692-0.396,1.57-0.722,2.555-0.94
				c0.494-0.083,1.011-0.189,1.544-0.188c0.266-0.005,0.534-0.026,0.805-0.017l0.81,0.07c0.543,0.043,1.07,0.188,1.588,0.319
				c0.52,0.121,0.996,0.365,1.461,0.555c0.463,0.199,0.865,0.491,1.253,0.73c0.394,0.233,0.702,0.551,0.999,0.813
				c0.285,0.277,0.555,0.514,0.74,0.786c0.203,0.251,0.357,0.491,0.486,0.682c0.256,0.385,0.371,0.624,0.371,0.624
				s-0.277-0.052-0.709-0.177c-0.215-0.064-0.479-0.134-0.755-0.238c-0.272-0.111-0.622-0.159-0.958-0.268
				c-0.346-0.091-0.691-0.237-1.085-0.308c-0.39-0.08-0.771-0.218-1.183-0.293c-0.416-0.064-0.821-0.19-1.25-0.247
				c-0.428-0.046-0.848-0.167-1.285-0.182c-0.432-0.065-0.864-0.102-1.297-0.123c-0.43-0.047-0.858-0.031-1.278-0.062
				c-0.837-0.005-1.647-0.013-2.358,0.022c-0.716,0.014-1.332,0.053-1.779,0.074C143.914,38.274,143.652,38.289,143.652,38.289z"/>
		</g>
		<g>
			<path fill="#F49735" d="M155.171,28.266c0,0,4.927-16.077,22.302-16.985c17.372-0.907,5.187,28.395-12.836,27.357"/>
			<path d="M155.171,28.266c0,0,0.062-0.285,0.214-0.815c0.161-0.525,0.387-1.308,0.794-2.257c0.394-0.955,0.921-2.104,1.675-3.344
				c0.346-0.642,0.813-1.259,1.26-1.945c0.478-0.664,1.035-1.325,1.617-2.016c1.232-1.311,2.637-2.727,4.411-3.851
				c1.711-1.22,3.747-2.154,5.919-2.913c1.106-0.293,2.239-0.609,3.397-0.829c0.586-0.077,1.175-0.153,1.767-0.23l0.892-0.105
				l0.225-0.025l0.056-0.007l0.13-0.002l0.106-0.001l0.43-0.003l0.862-0.005c0.306,0.01,0.669,0.062,1.001,0.095
				c0.692,0.045,1.334,0.245,1.989,0.416c1.295,0.443,2.572,1.203,3.517,2.323c0.949,1.124,1.427,2.509,1.653,3.825
				c0.238,1.334,0.174,2.64-0.014,3.88c-0.369,2.492-1.318,4.735-2.441,6.734c-1.123,2.01-2.504,3.756-3.965,5.247
				c-1.457,1.496-3.016,2.729-4.584,3.651c-1.56,0.931-3.088,1.608-4.5,2.013c-0.696,0.222-1.375,0.346-1.988,0.48
				c-0.63,0.072-1.201,0.156-1.719,0.197c-1.042,0.043-1.851,0.018-2.4-0.06c-0.546-0.054-0.838-0.082-0.838-0.082
				s0.292-0.024,0.839-0.071c0.271-0.031,0.607-0.034,0.996-0.104c0.387-0.069,0.83-0.149,1.327-0.239
				c0.49-0.114,1.023-0.278,1.602-0.434c0.561-0.228,1.186-0.405,1.811-0.701c1.271-0.546,2.607-1.357,3.971-2.343
				c1.359-0.999,2.682-2.274,3.936-3.729c1.244-1.466,2.375-3.158,3.328-5c0.959-1.839,1.635-3.889,1.936-5.945
				c0.313-2.046,0.011-4.172-1.117-5.528c-0.563-0.678-1.334-1.163-2.225-1.493c-0.469-0.118-0.935-0.285-1.403-0.313
				c-0.242-0.026-0.449-0.077-0.718-0.092l-0.863-0.007l-0.43-0.004h-0.107l-0.027-0.001c0.025,0-0.093,0.001,0.049-0.001
				l-0.049,0.005l-0.203,0.021l-0.81,0.081c-0.539,0.046-1.075,0.092-1.61,0.138c-1.055,0.155-2.082,0.399-3.098,0.617
				c-1.969,0.628-3.877,1.308-5.51,2.315c-0.409,0.249-0.833,0.465-1.216,0.729c-0.379,0.273-0.752,0.543-1.119,0.809l-0.553,0.39
				l-0.504,0.433c-0.334,0.287-0.664,0.568-0.984,0.844c-1.221,1.174-2.294,2.324-3.141,3.437c-0.43,0.552-0.818,1.08-1.153,1.586
				c-0.354,0.495-0.649,0.971-0.91,1.405C155.621,27.178,155.171,28.266,155.171,28.266z"/>
		</g>
		<path stroke="#000000" stroke-width="2.8172" stroke-linecap="square" stroke-linejoin="bevel" stroke-miterlimit="10" d="
			M103.107,18.419c0,0,13.971,4.038,17.861,11.696"/>
		<g>
			<path d="M145.576,88.427c0,0,0.211-0.312,0.58-0.857c0.365-0.527,0.885-1.28,1.51-2.185c1.229-1.782,2.854-4.094,4.1-6.506
				c1.288-2.401,2.051-4.927,2.146-6.977c0.033-0.512,0.035-0.988,0.019-1.421c-0.034-0.437-0.063-0.818-0.088-1.133
				c-0.104-0.626-0.142-1.019-0.142-1.019s0.254,0.274,0.664,0.817c0.17,0.284,0.414,0.628,0.608,1.061
				c0.097,0.22,0.199,0.453,0.308,0.699c0.098,0.252,0.166,0.526,0.256,0.813c0.31,1.15,0.416,2.586,0.195,4.073
				c-0.212,1.49-0.754,3-1.468,4.385c-1.446,2.782-3.622,4.986-5.431,6.337c-0.909,0.679-1.719,1.167-2.309,1.473
				C145.939,88.296,145.576,88.427,145.576,88.427z"/>
		</g>
		<path stroke="#000000" stroke-width="2.8172" stroke-linecap="square" stroke-linejoin="bevel" stroke-miterlimit="10" d="
			M164.91,34.713c0,0,10.233-16.123,21.321-18.211"/>
		
			<path fill="#432918" stroke="#000000" stroke-width="2.8172" stroke-linecap="square" stroke-linejoin="bevel" stroke-miterlimit="10" d="
			M140.908,21.265c0,0-28.578,8.544-9.645,7.351c3.422-0.217,2.021,3.24,0.841,4.264c-1.183,1.023,3.55,2.047,6.642-2.218
			c3.094-4.264,5.291,4.441,7.816,1.364c8.125-9.893,11.238,9.369,15.19,1.194C161.754,33.221,169.821,23.134,140.908,21.265z"/>
	</g>
	<g>
		<path fill="#F28C00" stroke="#000000" stroke-width="0.8456" stroke-miterlimit="10" d="M210.571,133.411
			c0,0,4.217,3.633,2.7,5.215c-1.518,1.583-3.764-1.076-3.764-1.076s-0.367,1.182-1.56,0.447c-1.189-0.734-0.688-1.039-0.688-1.039
			s-1.714,1.182-2.128-1.419c-0.413-2.601,1.001-4.55,1.001-4.55l3.542,0.294L210.571,133.411z"/>
		<path fill="#F28C00" stroke="#000000" stroke-width="0.8456" stroke-miterlimit="10" d="M203.745,133.64
			c0,0,3.584,1.449,2.324,3.367c-0.08,0.123-1.123,0.711-1.873-0.629c0,0,0.817,1.456-0.701,1.6
			c-1.623,0.154-2.604-1.187-3.234-2.08c-0.438-0.623-1.061,0.169-2.111,0.008c-0.947-0.146-0.709-1.518,0.571-1.979
			c1.164-0.418,0.856-1.636,0.856-1.636l0.188-0.466h4.039l0.434,1.064L203.745,133.64z"/>
		<path fill="#004A99" stroke="#000000" stroke-width="0.8456" stroke-miterlimit="10" d="M178.616,101.53
			c0,0-2.498-1.369-1.514,2.859c0,0,0.271,2.647,2.768,2.394c0,0-1.439,0.402-0.66,2.68c0.779,2.278,2.689,1.885,3.103,1.597
			c0,0-2.062,1.604,0.484,3.331c2.211,1.497,3.202-0.144,3.202-0.144s-0.951,2.207,1.625,3.044c2.576,0.838,3.841-0.29,3.841-0.29
			s-1.459,3.109,1.987,3.926c3.447,0.817,4.343-1.45,4.343-1.45l3.213-0.889l-19.697-17.101L178.616,101.53z"/>
		<path fill="#009FE3" stroke="#000000" stroke-width="0.8456" stroke-miterlimit="10" d="M196.798,110.895
			c-0.485-0.36-3.893-1.323-4.739-2.659c-0.847-1.335-3.819-2.433-4.272-3.168c-0.455-0.735-6.504-12.709-11.127-7.713
			c-2.34,2.528,3.967,5.542,3.967,5.542s-0.227,3.697,4.419,4.333c0,0-2.104,4.644,4.171,4.564c0,0-0.914,3.818,4.652,3.386
			c0,0-1.459,3.104,5.523,2.465c6.98-0.638,6.202-3.059,6.202-3.059l-1.638-3.622C203.956,110.965,199.058,112.571,196.798,110.895z
			"/>
		<path fill="#004A99" stroke="#000000" stroke-width="0.8456" stroke-miterlimit="10" d="M232.251,102.776
			c0,0,2.56-1.221,1.384,2.848c0,0-0.392,2.564-2.872,2.206c0,0,1.419,0.454,0.537,2.636c-0.881,2.182-2.771,1.716-3.171,1.416
			c0,0,1.985,1.652-0.636,3.218c-2.274,1.361-3.191-0.279-3.191-0.279s0.85,2.188-1.762,2.889c-2.612,0.701-3.824-0.452-3.824-0.452
			s1.316,3.091-2.163,3.732c-3.481,0.643-4.272-1.602-4.272-1.602l-3.168-1.008l20.449-15.764L232.251,102.776z"/>
		<path fill="#009FE3" stroke="#000000" stroke-width="0.8456" stroke-miterlimit="10" d="M213.665,111.084
			c0.5-0.328,3.947-1.116,4.854-2.377c0.906-1.261,3.926-2.198,4.413-2.894c0.485-0.695,7.073-12.074,11.464-7.012
			c2.223,2.563-4.214,5.216-4.214,5.216s0.06,3.606-4.61,4.02c0,0,1.893,4.61-4.373,4.255c0,0,0.74,3.755-4.802,3.09
			c0,0,1.315,3.082-5.629,2.153c-6.946-0.928-6.058-3.249-6.058-3.249l1.799-3.45C206.51,110.836,211.331,112.614,213.665,111.084z"
			/>
		<path fill="#009FE3" stroke="#000000" stroke-width="0.8456" stroke-miterlimit="10" d="M209.263,109.146
			c0,0-0.59,2.358-0.706,2.889c-0.116,0.532-0.612,1.742,0.336,3.329c0.948,1.588,4.858,4.742,5.83,8.439
			c0.972,3.696,1.31,10.434-10.208,10.08c-11.518-0.354-10.111-8.193-9.334-10.894c0.779-2.7,6.143-8.775,6.143-11.054
			c0-2.089,0.359-3.957,0.359-3.957l9.264-1.679L209.263,109.146z"/>
		<path fill="#009FE3" stroke="#000000" stroke-width="0.8456" stroke-miterlimit="10" d="M207.971,89.437
			c0,0,6.532,0.725,4.67,9.841c0,0,3.724,2.729,2.334,6.798c-1.251,3.666-5.712,3.07-5.712,3.07s-4.05,0.466-7.732-0.19
			c-3.127-0.557-4.22-1.488-4.808-3.544c-1.321-4.627,2.028-6.399,2.028-6.399s-1.926-7.844,4.25-9.575
			c0.843-0.236-1.477-2.337,0.59-2.596c0.51-0.064,0.59,0.279,1.088,1.217c0.367,0.689-0.372-2.232,0-2.522
			c0.373-0.289,2.295-0.984,1.316,2.758c0,0,0.22-3.706,1.707-2.896C209.192,86.206,207.971,89.437,207.971,89.437z"/>
		<path fill="#F28C00" stroke="#000000" stroke-width="0.8456" stroke-miterlimit="10" d="M207.505,103.98
			c0,0,1.322,2.661-1.498,2.827c-2.932,0.173-2.604-2.833-1.215-3.778C206.182,102.085,207.505,103.98,207.505,103.98z"/>
		
			<path fill="#F8AF44" stroke="#000000" stroke-width="0.8456" stroke-linecap="round" stroke-linejoin="round" stroke-miterlimit="10" d="
			M208.868,102.423c0,0-0.207-2.11-3.313-2.003c-3.147,0.108-3.056,1.604-2.688,2.158c0.369,0.556,1.35,1.505,2.051,1.915
			s0.926,0.548,0.926,0.548s0.641-0.272,1.336-0.67C208.132,103.827,209.034,103.209,208.868,102.423z"/>
		<g>
			<path fill="#004A99" d="M207.341,102.007c0,0-0.842,0.492-0.934,0.759"/>
			<path d="M207.341,102.007c0,0,0.005,0.161-0.032,0.304c-0.036,0.149-0.116,0.287-0.224,0.371
				c-0.114,0.079-0.254,0.105-0.389,0.094c-0.074,0.001-0.129-0.018-0.187-0.016c-0.058-0.001-0.103,0.006-0.103,0.006
				c0.002,0-0.024-0.025-0.047-0.083c-0.023-0.056-0.033-0.158-0.022-0.234c0.019-0.181,0.114-0.349,0.245-0.447
				c0.137-0.098,0.311-0.126,0.467-0.099C207.204,101.923,207.341,102.007,207.341,102.007z"/>
		</g>
		<g>
			<path fill="#004A99" d="M204.262,102.007c0,0,0.842,0.492,0.933,0.759"/>
			<path d="M204.262,102.007c0,0,0.136-0.084,0.291-0.104c0.155-0.027,0.33,0.001,0.466,0.099c0.133,0.099,0.229,0.267,0.246,0.447
				c0.012,0.076,0.001,0.179-0.021,0.234c-0.023,0.058-0.051,0.083-0.049,0.083c0,0-0.045-0.007-0.102-0.006
				c-0.059-0.002-0.112,0.016-0.188,0.016c-0.134,0.011-0.272-0.016-0.388-0.094c-0.106-0.084-0.188-0.222-0.224-0.371
				C204.257,102.168,204.262,102.007,204.262,102.007z"/>
		</g>
		<g>
			<path fill="#FFFFFF" stroke="#000000" stroke-width="0.8456" stroke-miterlimit="10" d="M209.677,99.405l-3.477-0.098
				c0,0-0.603-4.39,1.86-4.255C210.526,95.186,209.677,99.405,209.677,99.405z"/>
			<path stroke="#000000" stroke-width="0.8456" stroke-miterlimit="10" d="M209.677,99.486l-3.43-0.086
				c0,0-0.354-2.035,1.621-1.901C209.681,97.622,209.677,99.486,209.677,99.486z"/>
		</g>
		<g>
			<path fill="#FFFFFF" stroke="#000000" stroke-width="0.8456" stroke-miterlimit="10" d="M201.327,99.662l3.386-0.229
				c0,0,0.331-4.366-2.068-4.418C200.245,94.962,201.327,99.662,201.327,99.662z"/>
			<path stroke="#000000" stroke-width="0.8456" stroke-miterlimit="10" d="M201.327,99.662l3.338-0.221
				c0,0,0.289-1.892-1.631-2.015C201.323,97.317,201.327,99.662,201.327,99.662z"/>
		</g>
		<g>
			<path d="M210.944,94.43c0,0-0.291-0.162-0.727-0.405c-0.424-0.221-0.962-0.505-1.5-0.609c-0.268-0.064-0.537-0.08-0.796-0.061
				c-0.259,0.02-0.513,0.064-0.731,0.137c-0.107,0.039-0.224,0.05-0.31,0.094c-0.095,0.036-0.177,0.066-0.243,0.093
				c-0.141,0.049-0.229,0.073-0.229,0.073s0.039-0.076,0.123-0.204c0.086-0.127,0.209-0.319,0.424-0.48
				c0.104-0.088,0.215-0.19,0.363-0.252c0.143-0.068,0.289-0.164,0.467-0.192c0.342-0.109,0.74-0.104,1.11-0.033
				c0.368,0.091,0.714,0.241,0.985,0.444c0.281,0.189,0.492,0.422,0.654,0.627C210.856,94.079,210.944,94.43,210.944,94.43z"/>
		</g>
		<g>
			<path d="M199.768,94.054c0,0,0.147-0.332,0.538-0.681c0.191-0.178,0.443-0.355,0.741-0.503c0.297-0.148,0.642-0.257,1-0.309
				c0.358-0.048,0.729-0.033,1.06,0.047c0.168,0.021,0.318,0.095,0.461,0.15c0.146,0.048,0.271,0.126,0.381,0.2
				c0.453,0.278,0.633,0.604,0.642,0.588c0,0-0.091-0.01-0.237-0.035c-0.145-0.028-0.343-0.072-0.578-0.1
				c-0.464-0.07-1.043-0.099-1.615-0.014c-0.289,0.024-0.572,0.103-0.848,0.165c-0.271,0.074-0.531,0.152-0.759,0.226
				C200.081,93.948,199.768,94.054,199.768,94.054z"/>
		</g>
	</g>
	<g>
		
			<path fill="#7D4E24" stroke="#000000" stroke-width="1.7927" stroke-linecap="round" stroke-linejoin="round" stroke-miterlimit="10" d="
			M147.218,210.587c2.66-1.555,5.741,1.256,7.698,0c1.955-1.258,7.736-14.451,14.387-9.498c4.407,3.282,2.554,9.28-0.621,11.795
			c-3.173,2.514-5.389,2.871-7.271,3.01c-1.883,0.141-5.235-0.697-7.053,0c-1.816,0.699-10.275,8.027-10.275,8.027
			s-4.11,2.579-5.367,0c-1.258-2.58,2.721-5.427,2.721-5.427S144.826,211.983,147.218,210.587z"/>
		
			<path fill="#CA9E67" stroke="#000000" stroke-width="1.7927" stroke-linecap="round" stroke-linejoin="round" stroke-miterlimit="10" d="
			M158.81,205.677c1.233-1.951,4.765-8.522,10.493-4.588c4.53,3.11,3.054,8.844-0.12,11.356c-1.329,1.053-3.583,0.381-5.662-0.899
			c-0.291-0.181-1.755,0.102-2.036-0.099c-0.281-0.202,0.619-0.884,0.354-1.099C159.74,208.647,158.234,206.587,158.81,205.677z"/>
		
			<path fill="#936037" stroke="#000000" stroke-width="1.7927" stroke-linecap="round" stroke-linejoin="round" stroke-miterlimit="10" d="
			M120.728,187.048c12.073,1.92,19.229,10.5,20.396,17.059c1.17,6.56,0.539,12.4,0,14.197c2.338,0.627,4.404,5.93,3.236,8.713
			c3.145,1.352,3.746,3.326,3.266,5.035c-0.48,1.705-8.567,5.75-15.846,0.537c-6.919,5.424-14.197,4.854-19.588,1.707
			c-4.133,2.695-17.432,5.571-17.717,0.988c-0.113-1.816,1.815-3.145,3.117-3.684c-0.855-2.518,0-9.256,2.738-10.154
			C97.635,215.876,97.635,183.382,120.728,187.048z"/>
		
			<path fill="#CA9E67" stroke="#000000" stroke-width="1.7927" stroke-linecap="round" stroke-linejoin="round" stroke-miterlimit="10" d="
			M134.656,226.21c0,6.055-5.152,10.963-11.508,10.963c-6.356,0-11.508-4.908-11.508-10.963s5.152-10.963,11.508-10.963
			c0.425,0,0.922-0.596,1.335-0.554c0.347,0.036,0.61,0.704,0.946,0.771C130.691,216.47,134.656,220.897,134.656,226.21z"/>
		<g>
			<path fill="#936037" d="M107.339,210.216c0,0,0.54,21.565,0,22.373c-0.539,0.809-3.948,2.334-2.647,4.445
				c1.3,2.113,8.198,0.788,8.415-0.672c0.433,1.888,5.016,1.979,5.645-0.54c0.629-2.515-1.168-3.683-1.798-4.313
				c0.091-2.246-0.539-21.295-0.539-21.295"/>
			<path d="M107.339,210.216c0.286,3.105,0.442,6.217,0.638,9.328c0.153,3.113,0.278,6.227,0.308,9.354
				c0.006,0.783,0.012,1.568-0.017,2.363c0,0.193-0.021,0.408-0.034,0.613c-0.03,0.234,0.013,0.332-0.107,0.77
				c-0.025,0.091-0.055,0.18-0.087,0.267l-0.024,0.063l-0.013,0.033l-0.007,0.016c0.007-0.006-0.082,0.111-0.047,0.064l-0.045,0.057
				c-0.045,0.063-0.142,0.17-0.258,0.279c-0.216,0.205-0.348,0.305-0.513,0.439c-0.616,0.492-1.198,0.943-1.559,1.438
				c-0.378,0.524-0.389,0.816-0.168,1.234c0.119,0.297,0.706,0.551,1.362,0.646c0.659,0.104,1.386,0.09,2.099,0.02
				c0.714-0.08,1.435-0.219,2.1-0.436c0.331-0.109,0.653-0.233,0.92-0.377c0.13-0.069,0.251-0.147,0.315-0.207
				c0.081-0.058,0.067-0.112,0.028,0.051l1.742-0.067c0.028,0.032,0.031,0.065,0.043,0.106c0.04,0.033,0.053,0.074,0.091,0.117
				c0.086,0.084,0.209,0.166,0.356,0.244c0.163,0.064,0.33,0.131,0.522,0.168c0.187,0.037,0.386,0.069,0.586,0.067
				c0.797,0.035,1.648-0.235,2.055-0.71c0.091-0.124,0.201-0.234,0.239-0.387l0.043-0.104l0.012-0.026l0.006-0.012l0.003-0.008
				l0.001-0.003c0.004-0.021-0.031,0.162-0.016,0.084v-0.003l0.015-0.094l0.06-0.37l0.06-0.371c0.008-0.108-0.019-0.169-0.021-0.255
				c-0.007-0.157-0.006-0.323-0.08-0.508l-0.074-0.271l-0.135-0.256c-0.07-0.178-0.213-0.334-0.329-0.502
				c-0.132-0.164-0.281-0.318-0.445-0.482l-0.56-0.531c-0.15-0.144-0.226-0.334-0.226-0.525v-0.055l0.005-5.299l0.049-5.307
				l0.066-5.326c0.022-1.777,0.05-3.554,0.114-5.332c0.174,1.771,0.312,3.543,0.444,5.314c0.128,1.773,0.293,3.541,0.378,5.318
				l0.267,5.342l0.223,5.352l-0.226-0.578l0.543,0.485c0.195,0.185,0.402,0.385,0.589,0.604c0.181,0.234,0.377,0.453,0.515,0.735
				l0.22,0.405l0.147,0.445c0.113,0.287,0.153,0.621,0.168,0.965c0.008,0.164,0.025,0.354,0.016,0.492l-0.049,0.373l-0.049,0.373
				l-0.012,0.092l-0.018,0.094l-0.002,0.008l-0.005,0.016l-0.01,0.03l-0.021,0.063l-0.086,0.246
				c-0.101,0.33-0.313,0.631-0.525,0.894c-0.226,0.265-0.485,0.472-0.76,0.651c-0.276,0.16-0.562,0.313-0.854,0.402
				c-0.583,0.204-1.181,0.295-1.781,0.275c-0.299,0.001-0.601-0.04-0.902-0.1c-0.301-0.057-0.605-0.16-0.906-0.285
				c-0.302-0.149-0.601-0.336-0.875-0.604c-0.133-0.137-0.252-0.313-0.366-0.478c-0.096-0.182-0.169-0.389-0.235-0.588l1.742-0.067
				c-0.102,0.556-0.388,0.813-0.594,1.013c-0.224,0.201-0.436,0.331-0.645,0.448c-0.418,0.228-0.825,0.386-1.235,0.515
				c-0.817,0.256-1.635,0.403-2.467,0.488c-0.833,0.073-1.677,0.092-2.557-0.055c-0.439-0.075-0.89-0.188-1.349-0.405
				c-0.228-0.104-0.459-0.252-0.678-0.433c-0.112-0.096-0.266-0.26-0.343-0.356l-0.085-0.118l-0.021-0.029l-0.011-0.015
				l-0.043-0.065l-0.006-0.012l-0.046-0.092c-0.271-0.453-0.414-1.082-0.322-1.666c0.086-0.599,0.382-1.052,0.668-1.428
				c0.595-0.744,1.292-1.219,1.895-1.684l0.386-0.305c0.029-0.02,0.072-0.049,0.145-0.142l0.047-0.056
				c0.038-0.053-0.044,0.063-0.038,0.051l-0.002-0.002l-0.004-0.004l-0.008-0.008l-0.021-0.018l0.041-0.387
				c0.016-0.184,0.04-0.355,0.046-0.551l0.11-2.305c0.097-3.097,0.151-6.21,0.22-9.32
				C107.17,216.444,107.202,213.331,107.339,210.216z"/>
		</g>
		<g>
			<path fill="#936037" d="M136.188,208.953c0,0-0.02,19.802,0.534,20.581c0.554,0.777,6.179,2.428,3.456,6.059
				c-1.467,1.955-6.104,0.778-6.391-0.668c-0.303,1.907-6.209,2.676-6.941,0.197s0.896-3.738,1.455-4.4
				c-0.209-2.238-0.678-21.291-0.678-21.291"/>
			<path d="M136.188,208.953c0.208,3.009,0.311,6.017,0.495,9.021c0.142,3.004,0.274,6.015,0.474,8.992
				c0.053,0.713,0.127,1.551,0.223,2.094c0.004,0.004-0.01,0.011-0.032,0.029l-0.002,0.002c0.062,0.075-0.086-0.103-0.067-0.08
				l0.012,0.012l0.027,0.023l0.051,0.049c0.031,0.028,0.076,0.078,0.088,0.072c0.039,0.014,0.063,0.026,0.105,0.055l0.227,0.131
				l0.988,0.554c0.676,0.397,1.373,0.841,1.987,1.498c0.612,0.624,1.12,1.67,0.966,2.71c-0.025,0.258-0.074,0.506-0.173,0.721
				c-0.092,0.217-0.157,0.469-0.287,0.645l-0.356,0.568l-0.022,0.034l-0.011,0.019l-0.006,0.009l-0.066,0.079l-0.048,0.053
				l-0.097,0.104c-0.074,0.074-0.104,0.127-0.215,0.219c-0.485,0.398-0.927,0.605-1.373,0.728c-0.451,0.142-0.896,0.187-1.332,0.204
				c-0.875,0.021-1.715-0.104-2.535-0.386c-0.41-0.154-0.816-0.312-1.221-0.593c-0.383-0.289-0.867-0.592-1.074-1.416l1.758-0.033
				c-0.066,0.232-0.145,0.498-0.262,0.691c-0.125,0.172-0.258,0.375-0.402,0.502c-0.145,0.121-0.292,0.254-0.441,0.356l-0.449,0.261
				c-0.601,0.288-1.203,0.465-1.811,0.568c-0.609,0.091-1.221,0.146-1.846,0.088c-0.309-0.008-0.629-0.081-0.941-0.135
				c-0.32-0.094-0.637-0.17-0.956-0.34c-0.313-0.135-0.635-0.369-0.907-0.645c-0.127-0.156-0.271-0.301-0.367-0.48
				c-0.092-0.186-0.176-0.377-0.25-0.566l-0.168-0.891c-0.032-0.312-0.015-0.717-0.002-1.067c0.074-0.333,0.131-0.673,0.256-0.983
				c0.136-0.307,0.269-0.617,0.459-0.875c0.171-0.283,0.379-0.508,0.574-0.744l0.551-0.584l-0.178,0.57l-0.057-5.345l-0.014-5.343
				c-0.008-1.78,0.033-3.563,0.054-5.342c0.021-1.778,0.047-3.557,0.11-5.334c0.176,1.771,0.314,3.541,0.449,5.312
				c0.133,1.771,0.287,3.536,0.391,5.306l0.326,5.301l0.283,5.301l0.002,0.053c0.01,0.197-0.061,0.383-0.183,0.52l-0.556,0.627
				c-0.146,0.188-0.309,0.371-0.41,0.564c-0.135,0.186-0.2,0.387-0.285,0.581c-0.074,0.194-0.091,0.407-0.141,0.604
				c0.02,0.193-0.014,0.338,0.006,0.567l0.148,0.72c0.041,0.059,0.069,0.115,0.092,0.18c0.029,0.061,0.101,0.102,0.139,0.16
				c0.113,0.101,0.236,0.215,0.427,0.285c0.164,0.096,0.384,0.139,0.587,0.203c0.227,0.028,0.441,0.088,0.682,0.088
				c0.466,0.041,0.953-0.01,1.422-0.082c0.232-0.051,0.468-0.093,0.685-0.17c0.229-0.061,0.423-0.16,0.621-0.246l0.259-0.154
				l0.194-0.158c0.062-0.053,0.062-0.098,0.11-0.135c0.021-0.038-0.002-0.051,0.033-0.068l1.758-0.033
				c-0.041-0.064,0.111,0.149,0.328,0.283c0.209,0.157,0.51,0.281,0.801,0.395c0.6,0.215,1.271,0.32,1.9,0.309
				c0.313-0.012,0.625-0.04,0.893-0.125c0.285-0.059,0.515-0.225,0.629-0.273c0.041-0.018,0.123-0.123,0.182-0.18l0.098-0.104
				l0.047-0.051c0.058-0.066-0.068,0.084-0.055,0.065l0.004-0.006l0.008-0.013l0.015-0.023l0.246-0.387
				c0.103-0.127,0.11-0.256,0.175-0.381c0.07-0.127,0.083-0.25,0.098-0.367c0.082-0.465-0.086-0.922-0.492-1.389
				c-0.399-0.459-0.969-0.865-1.576-1.242l-0.963-0.578l-0.258-0.157c-0.115-0.076-0.246-0.172-0.359-0.265
				c-0.069-0.053-0.086-0.078-0.123-0.113l-0.051-0.051l-0.024-0.023l-0.012-0.014c0.013,0.019-0.136-0.165-0.076-0.096
				l-0.007-0.016c-0.072-0.162-0.135-0.338-0.18-0.514c-0.142-0.942-0.133-1.613-0.166-2.4c-0.08-3.033-0.021-6.04,0.045-9.054
				C135.908,214.972,135.98,211.962,136.188,208.953z"/>
		</g>
		<g>
			<path d="M169.722,204.78c0,0,0.367,0.051,0.701,0.27c0.355,0.205,0.672,0.578,0.822,1.039c0.146,0.457,0.123,1.018-0.123,1.434
				c-0.1,0.199-0.266,0.361-0.396,0.433c-0.136,0.075-0.221,0.086-0.221,0.086s-0.048-0.091-0.12-0.19
				c-0.074-0.105-0.184-0.215-0.293-0.336c-0.236-0.23-0.439-0.519-0.557-0.879c-0.109-0.357-0.133-0.777-0.045-1.158
				C169.557,205.108,169.722,204.78,169.722,204.78z"/>
		</g>
		
			<linearGradient id="SVGID_27_" gradientUnits="userSpaceOnUse" x1="104.8667" y1="77.6938" x2="93.366" y2="72.3547" gradientTransform="matrix(1 0 0 -1 59.1001 233.4004)">
			<stop  offset="0" style="stop-color:#CA9E67"/>
			<stop  offset="1" style="stop-color:#EDDAAB"/>
		</linearGradient>
		
			<path fill="url(#SVGID_27_)" stroke="#000000" stroke-width="1.7927" stroke-linecap="round" stroke-linejoin="round" stroke-miterlimit="10" d="
			M151.979,163.966l9.224-14.918c0,0,1.422,5.369,0.763,5.699c-0.659,0.331-1.114-0.008-1.114-0.008s-2.558,13.822-7.529,13.486
			C148.348,167.892,151.979,163.966,151.979,163.966z"/>
		
			<path fill="#936037" stroke="#000000" stroke-width="1.7927" stroke-linecap="round" stroke-linejoin="round" stroke-miterlimit="10" d="
			M144.119,154.728c0,0,15.726-10.118,17.742-7.805c1.314,1.508-10.43,17.743-10.43,17.743L144.119,154.728z"/>
		
			<linearGradient id="SVGID_28_" gradientUnits="userSpaceOnUse" x1="32.9097" y1="89.9497" x2="43.1776" y2="83.5834" gradientTransform="matrix(1 0 0 -1 59.1001 233.4004)">
			<stop  offset="0" style="stop-color:#CA9E67"/>
			<stop  offset="1" style="stop-color:#EDDAAB"/>
		</linearGradient>
		
			<path fill="url(#SVGID_28_)" stroke="#000000" stroke-width="1.7927" stroke-linecap="round" stroke-linejoin="round" stroke-miterlimit="10" d="
			M92.708,138.767l5.028-5.028c0,0,7.767,19.797,5.438,20.821c-2.329,1.023-4.05,3.586-4.781,5.031
			c-1.281,2.532-5.127-4.9-5.686-9.186c-0.56-4.282,1.862-10.708,1.862-10.708L92.708,138.767z"/>
		
			<linearGradient id="SVGID_29_" gradientUnits="userSpaceOnUse" x1="42.9932" y1="74.7017" x2="90.1061" y2="43.1544" gradientTransform="matrix(1 0 0 -1 59.1001 233.4004)">
			<stop  offset="0" style="stop-color:#B17F4A"/>
			<stop  offset="1" style="stop-color:#936037"/>
		</linearGradient>
		<path fill="url(#SVGID_29_)" stroke="#000000" stroke-width="1.7927" stroke-miterlimit="10" d="M153.826,173.091
			c0,14.811-13.592,26.816-30.356,26.816c-16.765,0-27.563-12.104-29.426-26.816c-1.86-14.695,12.566-26.166,29.332-26.166
			C140.142,146.925,153.826,158.278,153.826,173.091z"/>
		<g>
			<path fill="#CA9E67" stroke="#000000" stroke-width="1.7927" stroke-miterlimit="10" d="M114.685,155.623
				c1.933,0.397,7.171-7.45,2.143-8.698C113.237,146.031,111.519,154.972,114.685,155.623z"/>
			<path fill="#CA9E67" stroke="#000000" stroke-width="1.7927" stroke-miterlimit="10" d="M134.105,156.228
				c1.895-0.551,2.857-9.938-2.172-8.689C128.342,148.427,131,157.132,134.105,156.228z"/>
			<path fill="#CA9E67" stroke="#000000" stroke-width="1.7927" stroke-miterlimit="10" d="M123.994,161.582
				c4.022,0.372,6.893-15.364,0.842-15.364C119.62,146.218,119.354,161.152,123.994,161.582z"/>
		</g>
		
			<path fill="#936037" stroke="#000000" stroke-width="1.7927" stroke-linecap="round" stroke-linejoin="round" stroke-miterlimit="10" d="
			M110.53,149.292c0,0-10.67-17.785-12.458-16.999c-1.787,0.785,5.296,20.897,5.296,20.897S108.871,149.886,110.53,149.292z"/>
		
			<linearGradient id="SVGID_30_" gradientUnits="userSpaceOnUse" x1="82.2397" y1="31.3398" x2="38.5381" y2="67.7493" gradientTransform="matrix(1 0 0 -1 59.1001 233.4004)">
			<stop  offset="0" style="stop-color:#CA9E67"/>
			<stop  offset="1" style="stop-color:#EDDAAB"/>
		</linearGradient>
		
			<path fill="url(#SVGID_30_)" stroke="#000000" stroke-width="1.7927" stroke-linecap="round" stroke-linejoin="round" stroke-miterlimit="10" d="
			M123.191,175.097c3.367,0.357,6.303,2.863,6.303,2.863s6.567,0.479,10.242,2.008c5.514,2.291,8.092,7.563,7.877,8.937
			c-0.215,1.376-9.322,12.467-26.362,10.933c-17.039-1.535-24.2-15.143-23.628-17.578c0.573-2.435,5.993-4.947,8.953-5.802
			c4.727-1.362,10.528-0.356,10.528-0.356S119.825,174.737,123.191,175.097z"/>
		
			<path fill="#FFFFFF" stroke="#000000" stroke-width="1.7927" stroke-linecap="round" stroke-linejoin="round" stroke-miterlimit="10" d="
			M112.663,160.104c-7.591,1.813-5.715,12.512-4.87,13.312c0.845,0.798,10.636-0.54,11.155-1.043
			C119.467,171.873,120.254,158.292,112.663,160.104z"/>
		
			<path fill="#FFFFFF" stroke="#000000" stroke-width="1.7927" stroke-linecap="round" stroke-linejoin="round" stroke-miterlimit="10" d="
			M137.701,161.819c-7.545-0.338-8.834,10.438-8.277,11.436c0.556,0.998,10.003,2.389,10.626,2.049
			C140.672,174.966,145.244,162.154,137.701,161.819z"/>
		<g>
			<path fill="#7D4E24" stroke="#000000" stroke-width="1.1893" stroke-miterlimit="10" d="M122.067,183.658
				c0.835,0.03,3.919-1.99,3.919-3.853c0-1.865-5.524-2.377-6.039-0.58C119.434,181.024,120.493,183.601,122.067,183.658z"/>
			
				<path fill="none" stroke="#000000" stroke-width="1.1893" stroke-linecap="round" stroke-linejoin="round" stroke-miterlimit="10" d="
				M113.107,188.903c0,0,1.133,2.768,3.693,2.977c4.11,0.336,4.897-3.468,4.897-3.468s0,3.531,3.965,3.789
				c3.272,0.212,4.625-1.929,4.625-1.929"/>
			<g>
				<g>
					<g>
						<path d="M130.434,180.159c0,0,5.318-0.961,8.807-1.057c3.487-0.094,5.496-0.397,6.727-0.549
							c1.23-0.152,2.011,0.76,1.551,0.809c-0.46,0.048,0.604,0.471-8.371,1.35s-8.595,0.598-8.595,0.598s-1.358-0.103-1.251-0.646
							C129.302,180.664,129.295,180.353,130.434,180.159z"/>
					</g>
				</g>
			</g>
			<g>
				<g>
					<g>
						<path d="M129.902,182.334c0,0,1.885,0.782,3.561,1.478c2,0.836,4.555,1.998,6.373,2.807c0.152,0.064,0.298,0.127,0.432,0.186
							l0.137,0.039c3.555,1.825,5.739,2.698,7.09,3.274c1.414,0.603,1.759,1.836,1.238,1.604c-0.506-0.227,0.34,0.701-8.914-3.435
							c0.049,0.015,0.104,0.03,0.159,0.047c-0.301-0.099-0.616-0.202-0.944-0.31c-2.662-1.071-4.461-1.98-5.849-2.633
							c-1.366-0.666-2.239-1.111-2.798-1.412c-1.118-0.598-0.979-0.6-0.979-0.602c0,0-1.392-0.927-0.98-1.318
							C128.427,182.06,128.588,181.796,129.902,182.334z"/>
					</g>
				</g>
			</g>
			<g>
				<g>
					<g>
						<path d="M128.998,184.737c0,0,1.127,1.013,2.632,2.283c0.376,0.314,0.778,0.646,1.188,0.951c0.254,0.18,0.496,0.35,0.73,0.516
							c0.214,0.193,0.418,0.377,0.622,0.563c0.825,0.754,1.63,1.521,2.307,2.23c2.708,2.838,4.456,4.307,5.5,5.229
							c1.046,0.924,0.945,2.172,0.562,1.819c-0.385-0.353,0.1,0.81-7.348-6.071c-0.912-0.848-1.717-1.595-2.438-2.266l-0.258-0.241
							l-0.063-0.059l-0.015-0.015l-0.005-0.004c-0.027-0.021,0.234,0.176,0.121,0.09l-0.012-0.006l-0.041-0.027l-0.164-0.109
							c-0.207-0.145-0.385-0.285-0.556-0.422c-0.335-0.273-0.625-0.531-0.886-0.771c-1.038-0.961-1.649-1.619-2.045-2.047
							c-0.78-0.863-0.653-0.826-0.653-0.826s-0.894-1.25-0.38-1.486C127.8,184.067,128.037,183.876,128.998,184.737z"/>
					</g>
				</g>
			</g>
			<g>
				<g>
					<g>
						<path d="M114.289,179.285c0,0-1.244-0.237-2.868-0.665c-0.812-0.215-1.719-0.488-2.617-0.818
							c-0.222-0.095-0.441-0.188-0.678-0.287c-0.106-0.047-0.217-0.096-0.333-0.146c-0.117-0.059-0.254-0.148-0.376-0.227
							c-0.243-0.152-0.533-0.369-0.588-0.373c-0.053-0.027-0.104-0.061-0.153-0.098c-0.05-0.037-0.168-0.084-0.247-0.125
							c-2.857-1.365-4.769-1.783-5.854-2.113c-1.107-0.315-1.434-1.442-1.021-1.318c0.208,0.063,0.122-0.104,0.992,0.029
							c0.434,0.07,1.108,0.207,2.174,0.504c1.074,0.308,2.508,0.701,4.553,1.521c0.159,0.076,0.334,0.174,0.491,0.266
							c0.166,0.1,0.326,0.203,0.37,0.219c0.164,0.074,0.241,0.163,0.447,0.249c0.403,0.163,0.749,0.339,1.122,0.466
							c0.723,0.273,1.349,0.496,1.889,0.678c0.852,0.295,1.576,0.547,2.219,0.77c0.896,0.324,0.79,0.355,0.79,0.355
							s1.134,0.563,0.854,1.033C115.454,179.204,115.351,179.5,114.289,179.285z"/>
					</g>
				</g>
			</g>
			<g>
				<g>
					<g>
						<path d="M112.604,181.575c0,0-6.187,0.786-10.213,0.766c-1.161-0.004-2.126,0.008-3.063,0.039
							c-2.306-0.162-3.752-0.166-4.79-0.189c-1.432-0.034-2.18-1.053-1.645-1.03c0.45,0.019-0.317-0.422,6.42-0.218
							c0.966-0.061,2.021-0.126,3.278-0.205c10.397-0.584,9.943-0.314,9.943-0.314s1.56,0.146,1.404,0.688
							C113.938,181.108,113.929,181.421,112.604,181.575z"/>
					</g>
				</g>
			</g>
			<g>
				<g>
					<g>
						<path d="M112.695,183.933c0,0-1.954,0.86-3.724,1.643c-0.57,0.247-1.13,0.488-1.657,0.719c-0.3,0.127-0.589,0.25-0.872,0.369
							c-0.298,0.153-0.586,0.301-0.874,0.449c-0.555,0.275-1.099,0.545-1.741,0.863c-0.59,0.257-1.181,0.48-1.729,0.688
							c-0.598,0.227-1.11,0.42-1.556,0.588c-0.49,0.172-0.956,0.293-1.394,0.434c-0.876,0.271-1.647,0.521-2.329,0.752
							c-1.363,0.461-2.367,0.836-3.133,1.111c-1.531,0.549-2.698-0.096-2.123-0.291c0.287-0.1,0.073-0.166,1.188-0.682
							c0.558-0.258,1.447-0.627,2.897-1.169c0.831-0.302,1.68-0.606,2.625-0.949c0.528-0.187,1.081-0.38,1.678-0.59
							c0.569-0.249,1.175-0.515,1.836-0.804c1.317-0.532,2.459-1.161,3.455-1.641c0.999-0.49,1.943-0.793,2.696-1.104
							c1.534-0.595,2.527-0.959,3.167-1.157c1.283-0.416,1.18-0.313,1.18-0.313s1.73-0.399,1.716,0.172
							C114.001,183.022,114.079,183.326,112.695,183.933z"/>
					</g>
				</g>
			</g>
			
				<path fill="#7D4E24" stroke="#000000" stroke-width="1.1893" stroke-linecap="round" stroke-linejoin="round" stroke-miterlimit="10" d="
				M121.297,179.938c0.094,0.918,0.745,1.568,0.745,1.568"/>
		</g>
		<path stroke="#000000" stroke-width="1.7927" stroke-linecap="round" stroke-linejoin="round" stroke-miterlimit="10" d="
			M107.792,173.416c0,0-0.278-5.913,5.313-6.247c6.234-0.371,5.842,5.204,5.842,5.204L107.792,173.416z"/>
		<path stroke="#000000" stroke-width="1.7927" stroke-linecap="round" stroke-linejoin="round" stroke-miterlimit="10" d="
			M129.311,173.431c0,0,1.217-5.795,6.713-4.713c6.127,1.205,4.346,6.506,4.346,6.506L129.311,173.431z"/>
	</g>
</g>
<g>
	<path d="M18.948,126.148v-28.01H8.725V92.26h27.602v5.879H26.053v28.01H18.948z"/>
	<path d="M41.167,97.985V91.8h6.645v6.185H41.167z M41.167,126.148v-25.147h6.645v25.147H41.167z"/>
	<path d="M60.324,115.313c0.102,1.909,0.655,3.425,1.661,4.549c1.004,1.125,2.325,1.687,3.961,1.687c1.09,0,2.053-0.247,2.888-0.741
		c0.834-0.494,1.372-1.183,1.61-2.07h6.85c-0.785,2.589-2.146,4.583-4.089,5.979c-1.942,1.398-4.26,2.096-6.952,2.096
		c-8.382,0-12.574-4.565-12.574-13.698c0-1.942,0.272-3.697,0.817-5.265c0.545-1.566,1.337-2.914,2.377-4.038
		c1.039-1.125,2.308-1.985,3.808-2.582c1.499-0.595,3.22-0.894,5.162-0.894c3.885,0,6.824,1.244,8.818,3.731
		c1.994,2.488,2.99,6.236,2.99,11.245H60.324z M70.802,111.121c-0.034-0.92-0.196-1.729-0.485-2.428
		c-0.291-0.698-0.673-1.278-1.15-1.738c-0.478-0.459-1.022-0.8-1.636-1.021c-0.613-0.222-1.244-0.333-1.891-0.333
		c-1.329,0-2.479,0.485-3.45,1.457c-0.971,0.971-1.525,2.325-1.661,4.063H70.802z"/>
	<path d="M83.207,126.148v-25.147h6.236v2.992c0.544-0.858,1.116-1.527,1.712-2.008s1.209-0.85,1.84-1.107
		c0.63-0.257,1.27-0.421,1.917-0.489c0.647-0.069,1.312-0.103,1.993-0.103h0.869v6.849c-0.613-0.102-1.227-0.153-1.84-0.153
		c-4.056,0-6.083,2.028-6.083,6.083v13.084H83.207z"/>
	<path d="M108.523,115.313c0.102,1.909,0.656,3.425,1.661,4.549c1.004,1.125,2.326,1.687,3.961,1.687
		c1.09,0,2.052-0.247,2.887-0.741c0.835-0.494,1.372-1.183,1.611-2.07h6.849c-0.784,2.589-2.147,4.583-4.089,5.979
		c-1.943,1.398-4.261,2.096-6.952,2.096c-8.383,0-12.574-4.565-12.574-13.698c0-1.942,0.272-3.697,0.818-5.265
		c0.544-1.566,1.337-2.914,2.376-4.038c1.039-1.125,2.309-1.985,3.808-2.582c1.499-0.595,3.22-0.894,5.163-0.894
		c3.885,0,6.824,1.244,8.817,3.731c1.994,2.488,2.991,6.236,2.991,11.245H108.523z M119.002,111.121
		c-0.035-0.92-0.196-1.729-0.486-2.428c-0.29-0.698-0.673-1.278-1.15-1.738c-0.478-0.459-1.022-0.8-1.636-1.021
		c-0.613-0.222-1.244-0.333-1.891-0.333c-1.329,0-2.479,0.485-3.45,1.457c-0.972,0.971-1.526,2.325-1.662,4.063H119.002z"/>
</g>
</svg>
