<?xml version="1.0" encoding="utf-8"?>
<!-- Generator: Adobe Illustrator 16.0.0, SVG Export Plug-In . SVG Version: 6.00 Build 0)  -->
<!DOCTYPE svg PUBLIC "-//W3C//DTD SVG 1.1//EN" "http://www.w3.org/Graphics/SVG/1.1/DTD/svg11.dtd">
<svg version="1.1" id="Calque_1" xmlns="http://www.w3.org/2000/svg" xmlns:xlink="http://www.w3.org/1999/xlink" x="0px" y="0px"
	 width="250px" height="250px" viewBox="0 0 250 250" enable-background="new 0 0 250 250" xml:space="preserve">
<g>
	<linearGradient id="SVGID_1_" gradientUnits="userSpaceOnUse" x1="176.5352" y1="171.8691" x2="190.2305" y2="171.8691">
		<stop  offset="0" style="stop-color:#F9B347"/>
		<stop  offset="1" style="stop-color:#F49735"/>
	</linearGradient>
	<path fill="url(#SVGID_1_)" stroke="#000000" stroke-width="3" stroke-miterlimit="10" d="M190.064,194.08
		c0,0,2.681-37.401-13.529-44.421l0.146,4.105l0.697,3.426c0,0,10.133,1.449,8.984,36.019"/>
	
		<path fill="#432918" stroke="#000000" stroke-width="3" stroke-linecap="square" stroke-linejoin="bevel" stroke-miterlimit="10" d="
		M186.362,193.209c0,0-3.537,5.466-2.98,10.572c0.557,5.105,4.513,7.403,5.661,8.169c1.15,0.766,4.011-2.937,4.011-8.552
		c0-5.616-2.989-9.318-2.989-9.318L186.362,193.209z"/>
	<g>
		<linearGradient id="SVGID_2_" gradientUnits="userSpaceOnUse" x1="141.6787" y1="208.0781" x2="162.3721" y2="208.0781">
			<stop  offset="0" style="stop-color:#F9B347"/>
			<stop  offset="1" style="stop-color:#F49735"/>
		</linearGradient>
		<path fill="url(#SVGID_2_)" d="M145.899,184.891c0,0,2.297,13.529,1.786,16.082s-8.679,31.747-5.104,33.872
			s11.998,1.613,14.04-1.705c2.043-3.319,2.043-17.104,2.043-17.104l3.708-20.423l-1.666-15.573"/>
		<path d="M145.899,184.891c0.781,3.393,1.486,6.801,2.037,10.25c0.257,1.738,0.538,3.434,0.567,5.297
			c-0.021,0.254-0.034,0.523-0.071,0.767l-0.134,0.664l-0.276,1.28l-0.559,2.546c-0.727,3.395-1.494,6.772-2.159,10.167
			c-0.652,3.394-1.324,6.783-1.768,10.172c-0.222,1.688-0.39,3.387-0.414,5.015c-0.014,0.801,0.023,1.62,0.166,2.228
			c0.052,0.289,0.227,0.503,0.104,0.36l-0.033-0.027l-0.107-0.057l0.146,0.073l0.291,0.146l0.289,0.144l0.225,0.073
			c0.27,0.109,0.636,0.208,1.007,0.302c0.369,0.086,0.754,0.152,1.138,0.209c0.778,0.093,1.572,0.153,2.368,0.124
			c1.588-0.03,3.19-0.296,4.575-0.816c0.666-0.274,1.326-0.604,1.716-1.018c0.135-0.09,0.164-0.209,0.261-0.305l0.063-0.074
			l0.032-0.036c0.017-0.026-0.112,0.205-0.054,0.098l0.009-0.018l0.019-0.037l0.144-0.292c0.239-0.429,0.258-0.68,0.377-0.985
			c0.429-1.454,0.669-3.183,0.856-4.851c0.377-3.373,0.576-6.835,0.65-10.253l0.003-0.139l0.018-0.094
			c0.654-3.397,1.384-6.78,2.072-10.172c0.688-3.391,1.445-6.77,2.165-10.154l-0.008,0.217l-0.506-7.821
			c-0.156-2.609-0.291-5.22-0.402-7.833c0.444,2.578,0.864,5.158,1.264,7.74l1.16,7.752l0.012,0.083l-0.021,0.134
			c-0.516,3.423-0.993,6.852-1.541,10.269c-0.549,3.416-1.055,6.841-1.637,10.251l0.021-0.232c0.017,1.772-0.011,3.514-0.067,5.273
			c-0.063,1.756-0.145,3.516-0.319,5.283c-0.191,1.78-0.39,3.516-0.921,5.405c-0.168,0.512-0.358,1.111-0.547,1.444l-0.142,0.293
			l-0.018,0.037l-0.009,0.019l-0.075,0.133l-0.066,0.092l-0.136,0.184c-0.188,0.23-0.361,0.514-0.579,0.687
			c-0.829,0.843-1.772,1.291-2.694,1.688c-1.859,0.729-3.744,1.006-5.625,1.023c-0.94,0.023-1.884-0.052-2.828-0.177
			c-0.969-0.163-1.84-0.317-2.898-0.747l-0.386-0.153l-0.293-0.149l-0.29-0.148l-0.145-0.074c0.015,0.009-0.168-0.093-0.112-0.064
			l-0.042-0.028l-0.084-0.06l-0.164-0.124c-0.781-0.725-0.899-1.384-1.057-1.924c-0.236-1.091-0.235-2.024-0.221-2.956
			c0.058-1.847,0.306-3.604,0.578-5.353c0.572-3.486,1.296-6.907,2.144-10.296c0.844-3.389,1.725-6.76,2.7-10.102l0.723-2.505
			l0.354-1.247l0.163-0.604c0.039-0.184,0.051-0.35,0.082-0.526c0.103-1.611-0.02-3.38-0.137-5.092
			c-0.135-1.725-0.275-3.455-0.443-5.184L145.899,184.891z"/>
	</g>
	<g>
		<linearGradient id="SVGID_3_" gradientUnits="userSpaceOnUse" x1="107.0449" y1="207.5273" x2="121.5898" y2="207.5273">
			<stop  offset="0" style="stop-color:#F9B347"/>
			<stop  offset="1" style="stop-color:#F49735"/>
		</linearGradient>
		<path fill="url(#SVGID_3_)" d="M108.116,177.23c0,0-3.254,14.079,1.578,28.116c4.021,11.679-2.855,25.368,0.592,30.771
			c2.315,3.631,8.815,0.396,10.85,0c0,0,1.021-18.041,0-22.381c-1.02-4.34,0.454-34.464,0.454-34.464"/>
		<path d="M108.116,177.23c-0.234,1.469-0.372,2.947-0.462,4.426c-0.108,1.477-0.14,2.957-0.148,4.433
			c0.019,1.478,0.058,2.95,0.157,4.419l0.192,2.197l0.277,2.184c0.233,1.448,0.471,2.892,0.81,4.313
			c0.138,0.717,0.353,1.415,0.542,2.118c0.184,0.705,0.387,1.404,0.636,2.087c0.45,1.361,0.995,2.783,1.344,4.34
			c0.349,1.514,0.553,3.052,0.651,4.586c0.194,3.072-0.015,6.125-0.377,9.105c-0.342,2.979-0.847,5.925-1.007,8.762
			c-0.078,1.408-0.041,2.805,0.272,3.962c0.159,0.583,0.372,1.065,0.721,1.462c0.215,0.239,0.621,0.514,1.104,0.616
			c0.998,0.247,2.357,0.061,3.678-0.285c0.668-0.171,1.344-0.386,2.035-0.614c0.715-0.231,1.349-0.472,2.311-0.686l-1.204,1.379
			c0.28-4.704,0.447-9.439,0.542-14.139c0.032-2.339,0.049-4.717-0.161-6.938l-0.261-1.718c-0.087-0.726-0.094-1.278-0.118-1.906
			c-0.034-1.217-0.026-2.414-0.012-3.61c0.044-2.389,0.108-4.767,0.244-7.142c0.128-2.374,0.259-4.746,0.428-7.115
			c0.35-4.738,0.737-9.471,1.28-14.193c0.094,4.752,0.103,9.496,0.147,14.238c0.024,4.739,0.063,9.483,0.19,14.192
			c0.041,1.174,0.091,2.349,0.177,3.5c0.043,0.556,0.102,1.188,0.171,1.639l0.322,1.789c0.308,2.495,0.347,4.87,0.386,7.271
			c0.036,2.394-0.015,4.776-0.082,7.157c-0.069,2.383-0.159,4.755-0.277,7.143l-0.056,1.129l-1.148,0.25
			c-0.489,0.107-1.252,0.39-1.952,0.606c-0.721,0.229-1.464,0.458-2.237,0.647c-1.54,0.356-3.215,0.69-5.129,0.233
			c-0.957-0.248-1.903-0.748-2.647-1.648c-0.614-0.738-1.01-1.657-1.227-2.504c-0.444-1.727-0.386-3.346-0.282-4.893
			c0.248-3.095,0.822-6.003,1.219-8.918c0.399-2.906,0.721-5.797,0.639-8.665c-0.039-1.432-0.177-2.854-0.445-4.246
			c-0.247-1.357-0.719-2.737-1.115-4.222c-0.22-0.727-0.392-1.465-0.543-2.208c-0.157-0.74-0.339-1.476-0.441-2.226
			c-0.267-1.488-0.439-2.987-0.584-4.486l-0.129-2.253l-0.04-2.252c0.006-1.501,0.057-2.999,0.173-4.491
			C106.925,183.076,107.36,180.11,108.116,177.23z"/>
	</g>
	
		<path fill="#432918" stroke="#000000" stroke-width="3" stroke-linecap="square" stroke-linejoin="bevel" stroke-miterlimit="10" d="
		M123.317,41.833c0,0,5.471,5.868,5.598,7.938c0,0-0.758-0.371-3.968-0.913c-3.211-0.542,9.509,18.034,4.472,15.326
		c-7.931-4.264,0.588,4.03,1.175,7.305c0.589,3.274-0.465,0.239-3.638-1.134c-3.639-1.573,3.219,6.009,3.47,11.503
		c0.253,5.493-4.701-1.482-4.701-1.482s12.321,21.528,3.19,13.531c-1.954-1.711,5.479,10.39,1.858,8.811
		c-1.438-0.627-5.592-2.709-4.565-0.688c1.359,2.678,4.136,6.313,4.282,6.485c4.154,4.912,0.063,6.046-6.487,4.157
		c-6.549-1.89-9.319-22.418-9.319-22.418V66.2l6.927-27.33L123.317,41.833"/>
	<linearGradient id="SVGID_4_" gradientUnits="userSpaceOnUse" x1="99.4355" y1="124.6299" x2="177.0498" y2="124.6299">
		<stop  offset="0" style="stop-color:#F9B347"/>
		<stop  offset="1" style="stop-color:#F49735"/>
	</linearGradient>
	
		<path fill="url(#SVGID_4_)" stroke="#000000" stroke-width="3" stroke-linecap="square" stroke-linejoin="bevel" stroke-miterlimit="10" d="
		M99.436,69.242l3.063,71.992c0,0-13.275,34.21,16.083,41.612c29.36,7.403,52.592-5.616,52.592-5.616s18.636-31.656-10.468-36.251
		c0,0-13.525-3.063-22.463-2.81c-8.938,0.256-16.653-7.658-16.653-27.06c0-7.311-2.495-46.975-2.495-46.975"/>
	<g>
		<linearGradient id="SVGID_5_" gradientUnits="userSpaceOnUse" x1="114.998" y1="201.9434" x2="137.3418" y2="201.9434">
			<stop  offset="0" style="stop-color:#F9B347"/>
			<stop  offset="1" style="stop-color:#F49735"/>
		</linearGradient>
		<path fill="url(#SVGID_5_)" d="M116.66,164.689c0,0-5.106,23.948,2.582,41.493c5.995,13.679,1.958,27.787,4.374,30.838
			c2.918,3.688,12.537,2.505,13.647-2.176c0.979-4.13-7.644-29.591-6.048-38.27c1.339-7.282,1.154-20.366,1.154-20.366"/>
		<path d="M116.66,164.689c0,0-0.384,2.302-0.698,6.354c-0.166,2.025-0.286,4.489-0.329,7.31c-0.041,2.821,0.054,6.003,0.357,9.443
			c0.295,3.44,0.891,7.139,1.885,10.928c0.509,1.892,1.134,3.801,1.914,5.685c0.395,0.931,0.842,1.91,1.256,2.922
			c0.424,1.052,0.796,2.095,1.111,3.179c1.308,4.316,1.879,8.959,2.027,13.611c0.066,2.326,0.02,4.665,0.017,6.953
			c0.003,1.139,0.015,2.279,0.13,3.314c0.056,0.512,0.143,1.016,0.274,1.358c0.041,0.148,0.184,0.343,0.126,0.294l0.29,0.325
			c0.062,0.047,0.113,0.09,0.165,0.142c1.27,1.026,3.506,1.363,5.495,1.122c1.991-0.217,4.06-1.089,4.866-2.403
			c0.1-0.16,0.175-0.324,0.237-0.491l0.038-0.128l0.021-0.063l0.011-0.031c-0.041,0.212-0.007,0.028-0.014,0.062l0.058-0.412
			c-0.006-0.242-0.011-0.83-0.078-1.337c-0.117-1.05-0.3-2.144-0.497-3.226c-0.406-2.172-0.879-4.331-1.349-6.457
			c-0.953-4.252-1.867-8.386-2.577-12.352c-0.712-3.964-1.292-7.754-1.27-11.37c0.031-0.909,0.059-1.799,0.232-2.692
			c0.141-0.833,0.325-1.635,0.431-2.398c0.259-1.531,0.442-3.032,0.597-4.431c0.293-2.807,0.48-5.271,0.621-7.3
			c0.268-4.061,0.362-6.391,0.362-6.391s0.033,0.582,0.095,1.673c0.053,1.091,0.138,2.692,0.171,4.732
			c0.04,2.041,0.061,4.521-0.049,7.372c-0.058,1.43-0.127,2.938-0.294,4.559c-0.069,0.818-0.207,1.617-0.3,2.439
			c-0.109,0.755-0.094,1.582-0.079,2.415c0.172,3.371,0.887,7.068,1.724,10.942c0.862,3.877,1.905,7.949,2.936,12.195
			c0.52,2.122,1.046,4.285,1.517,6.518c0.229,1.121,0.455,2.251,0.593,3.458c0.066,0.619,0.132,1.171,0.077,2.068l-0.058,0.436
			l-0.03,0.167l-0.021,0.071l-0.041,0.142l-0.085,0.283c-0.129,0.37-0.295,0.727-0.494,1.056c-0.812,1.325-2.014,2.171-3.213,2.76
			c-1.217,0.573-2.487,0.919-3.776,1.079c-1.289,0.166-2.603,0.148-3.923-0.084c-1.312-0.253-2.662-0.723-3.852-1.709
			c-0.162-0.146-0.324-0.299-0.476-0.45l-0.287-0.328c-0.399-0.522-0.528-0.844-0.684-1.244c-0.267-0.753-0.351-1.41-0.422-2.051
			c-0.13-1.277-0.124-2.464-0.121-3.642c0.021-2.348,0.082-4.626,0.036-6.88c-0.044-4.499-0.493-8.894-1.627-12.966
			c-0.275-1.017-0.605-2.021-0.941-2.973c-0.36-0.986-0.761-1.953-1.152-2.97c-0.756-2.024-1.34-4.05-1.801-6.038
			c-0.916-3.98-1.285-7.815-1.434-11.337c-0.16-3.525-0.012-6.753,0.193-9.597c0.203-2.847,0.546-5.309,0.854-7.328
			C116.053,166.942,116.66,164.689,116.66,164.689z"/>
	</g>
	<g>
		<linearGradient id="SVGID_6_" gradientUnits="userSpaceOnUse" x1="152.1924" y1="193.209" x2="180.874" y2="193.209">
			<stop  offset="0" style="stop-color:#F9B347"/>
			<stop  offset="1" style="stop-color:#F49735"/>
		</linearGradient>
		<path fill="url(#SVGID_6_)" d="M174.619,151.573c0,0,5.488,8.553,6.255,36.89c0,0-3.825,34.209-3.496,42.507
			c0.191,4.84-16.092,5.661-15.396-0.511c0.636-5.635,6.128-37.236,6.128-37.236s-21.955-15.482-14.297-38.203"/>
		<path d="M174.619,151.573c0.835,1.335,1.428,2.807,2.002,4.273c0.547,1.479,1.021,2.987,1.428,4.511
			c0.212,0.76,0.415,1.523,0.589,2.292c0.179,0.769,0.379,1.533,0.526,2.308l0.478,2.319l0.409,2.331
			c0.284,1.554,0.482,3.118,0.709,4.682c0.179,1.566,0.357,3.135,0.518,4.705c0.129,1.57,0.276,3.143,0.392,4.716l0.271,4.724
			c0.002,0.035,0.002,0.069-0.002,0.104l-0.004,0.044c-0.817,8.263-1.541,16.543-2.228,24.811c-0.326,4.134-0.633,8.273-0.814,12.39
			c-0.056,1.032-0.066,2.05-0.093,3.071c-0.016,0.513,0.012,1,0.011,1.501l0.004,0.831c-0.021,0.514-0.139,0.938-0.312,1.326
			c-0.355,0.787-0.907,1.322-1.442,1.736c-0.543,0.404-1.101,0.702-1.657,0.939c-1.115,0.476-2.233,0.743-3.354,0.919
			c-2.243,0.324-4.5,0.31-6.796-0.282c-1.137-0.32-2.329-0.774-3.392-1.771c-0.521-0.496-0.986-1.173-1.214-1.947
			c-0.119-0.383-0.173-0.781-0.18-1.164c-0.016-0.377,0.048-0.794,0.078-1.005c0.277-2.053,0.594-4.12,0.934-6.192l1.014-6.172
			c1.361-8.208,2.805-16.396,4.295-24.578l0.549,1.327c-0.81-0.604-1.497-1.192-2.208-1.819c-0.704-0.62-1.376-1.27-2.04-1.928
			c-1.313-1.329-2.538-2.74-3.683-4.215c-1.143-1.476-2.197-3.021-3.145-4.63c-0.474-0.806-0.909-1.633-1.316-2.474
			c-0.396-0.847-0.791-1.693-1.116-2.57c-0.355-0.863-0.633-1.758-0.915-2.646c-0.251-0.899-0.503-1.798-0.664-2.718
			c-0.19-0.911-0.298-1.841-0.398-2.763l-0.104-1.39c-0.022-0.463-0.014-0.929-0.022-1.391c-0.03-0.926,0.07-1.852,0.126-2.77
			c0.122-0.916,0.203-1.833,0.408-2.731c0.149-0.907,0.401-1.792,0.661-2.67c0.241-0.882,0.602-1.728,0.895-2.587
			c-0.198,0.892-0.462,1.762-0.604,2.658c-0.157,0.894-0.311,1.783-0.393,2.683c-0.13,0.893-0.134,1.797-0.182,2.691
			c0.021,0.897-0.005,1.795,0.098,2.686c0.045,0.445,0.072,0.891,0.131,1.333l0.208,1.321c0.17,0.874,0.342,1.748,0.595,2.6
			c0.229,0.858,0.502,1.703,0.794,2.54c0.319,0.827,0.63,1.657,1.016,2.456c0.355,0.811,0.779,1.591,1.199,2.369
			c0.432,0.774,0.894,1.529,1.37,2.276c0.963,1.486,2.024,2.91,3.168,4.264c1.143,1.356,2.373,2.637,3.656,3.856
			c0.645,0.606,1.296,1.206,1.973,1.771c0.666,0.56,1.381,1.134,2.043,1.601c0.434,0.306,0.632,0.822,0.552,1.313l-0.003,0.015
			l-4.051,24.594l-0.978,6.138c-0.322,2.031-0.627,4.074-0.895,6.142c-0.042,0.304-0.057,0.403-0.049,0.546
			c0.003,0.137,0.021,0.258,0.058,0.37c0.063,0.227,0.197,0.442,0.422,0.665c0.451,0.447,1.241,0.821,2.094,1.054
			c1.729,0.468,3.716,0.519,5.579,0.252c0.931-0.138,1.85-0.359,2.649-0.697c0.796-0.315,1.479-0.839,1.611-1.192
			c0.042-0.084,0.053-0.172,0.063-0.178v-0.727c0-0.538-0.014-1.091,0.008-1.616c0.04-1.056,0.067-2.116,0.139-3.158
			c0.243-4.187,0.609-8.334,0.995-12.482c0.77-8.294,1.739-16.554,2.735-24.817l-0.006,0.146l-0.094-4.686
			c-0.045-1.562-0.122-3.121-0.182-4.683c-0.09-1.559-0.198-3.117-0.307-4.676c-0.161-1.552-0.239-3.116-0.434-4.665l-0.264-2.329
			l-0.331-2.319c-0.1-0.775-0.251-1.541-0.381-2.312c-0.126-0.772-0.279-1.537-0.444-2.301c-0.149-0.768-0.328-1.528-0.52-2.286
			c-0.174-0.763-0.4-1.509-0.599-2.267C175.807,154.474,175.341,152.969,174.619,151.573z"/>
	</g>
	
		<path fill="#432918" stroke="#000000" stroke-width="3" stroke-linecap="square" stroke-linejoin="bevel" stroke-miterlimit="10" d="
		M162.372,227.622c0,0,2.747,4.241,14.677,1.177l0.278,2.712c0,0-1.647,3.537-7.479,3.326c-5.83-0.212-7.707-2.987-7.707-2.987
		L162.372,227.622z"/>
	
		<path fill="#432918" stroke="#000000" stroke-width="3" stroke-linecap="square" stroke-linejoin="bevel" stroke-miterlimit="10" d="
		M141.679,229.91c0,0,2.253,3.602,15.199,0v2.735c0,0-2.401,2.984-5.607,3.242c-3.289,0.265-3.137,1.348-8.689-1.043
		C141.679,234.457,141.679,229.91,141.679,229.91z"/>
	
		<path fill="#432918" stroke="#000000" stroke-width="3" stroke-linecap="square" stroke-linejoin="bevel" stroke-miterlimit="10" d="
		M122.358,234.845c0,0,7.166,1.047,13.968-1.642c0,0,0.407,0.502,0.698,0.922c0.292,0.418,0.692,4.047-5.289,4.487
		C125.753,239.054,124.067,238.57,122.358,234.845z"/>
	
		<path fill="#432918" stroke="#000000" stroke-width="3" stroke-linecap="square" stroke-linejoin="bevel" stroke-miterlimit="10" d="
		M121.353,231.511c-0.022,0.6-12.148,1.692-12.148,1.692s0.392,5.279,6.896,4.369C122.603,236.661,121.353,231.511,121.353,231.511z
		"/>
	<linearGradient id="SVGID_7_" gradientUnits="userSpaceOnUse" x1="147.3662" y1="150.668" x2="164.4531" y2="150.668">
		<stop  offset="0" style="stop-color:#BD8B38"/>
		<stop  offset="0.1275" style="stop-color:#B28032"/>
		<stop  offset="0.4108" style="stop-color:#A06C27"/>
		<stop  offset="0.6997" style="stop-color:#966121"/>
		<stop  offset="1" style="stop-color:#925D1F"/>
	</linearGradient>
	<path fill="url(#SVGID_7_)" stroke="#000000" stroke-width="3" stroke-miterlimit="10" d="M147.813,143.61
		c0,0,1.679-1.68,3.609-1.344c1.933,0.336,8.985,3.022,11.756,3.777c2.77,0.756,0.504,8.313-1.848,10.748
		c-2.35,2.435-4.029,4.534-6.549-2.352c-2.52-6.884-3.946-6.969-3.946-6.969S145.882,146.296,147.813,143.61z"/>
	<linearGradient id="SVGID_8_" gradientUnits="userSpaceOnUse" x1="158.0195" y1="163.5566" x2="169.0488" y2="163.5566">
		<stop  offset="0" style="stop-color:#BD8B38"/>
		<stop  offset="0.1275" style="stop-color:#B28032"/>
		<stop  offset="0.4108" style="stop-color:#A06C27"/>
		<stop  offset="0.6997" style="stop-color:#966121"/>
		<stop  offset="1" style="stop-color:#925D1F"/>
	</linearGradient>
	<path fill="url(#SVGID_8_)" stroke="#000000" stroke-width="3" stroke-miterlimit="10" d="M166.116,156.792
		c0,0-8.731,6.968-8.06,9.403s6.289,4.618,8.476,4.114S171.07,155.701,166.116,156.792z"/>
	<linearGradient id="SVGID_9_" gradientUnits="userSpaceOnUse" x1="167.4287" y1="151.1045" x2="172.877" y2="151.1045">
		<stop  offset="0" style="stop-color:#BD8B38"/>
		<stop  offset="0.1275" style="stop-color:#B28032"/>
		<stop  offset="0.4108" style="stop-color:#A06C27"/>
		<stop  offset="0.6997" style="stop-color:#966121"/>
		<stop  offset="1" style="stop-color:#925D1F"/>
	</linearGradient>
	<path fill="url(#SVGID_9_)" stroke="#000000" stroke-width="3" stroke-miterlimit="10" d="M169.391,147.809
		c0,0-2.854,1.091-1.678,4.449c1.174,3.359,2.854,1.764,3.861,1.764S174.769,148.957,169.391,147.809z"/>
	<linearGradient id="SVGID_10_" gradientUnits="userSpaceOnUse" x1="164.2627" y1="175.7998" x2="176.1055" y2="175.7998">
		<stop  offset="0" style="stop-color:#BD8B38"/>
		<stop  offset="0.1275" style="stop-color:#B28032"/>
		<stop  offset="0.4108" style="stop-color:#A06C27"/>
		<stop  offset="0.6997" style="stop-color:#966121"/>
		<stop  offset="1" style="stop-color:#925D1F"/>
	</linearGradient>
	<path fill="url(#SVGID_10_)" stroke="#000000" stroke-width="3" stroke-miterlimit="10" d="M171.827,170.383
		c0,0-10.076,3.537-6.97,7.399s8.144,3.778,10.327,3.022S175.438,170.875,171.827,170.383z"/>
	<linearGradient id="SVGID_11_" gradientUnits="userSpaceOnUse" x1="134.7734" y1="162.5479" x2="145.8135" y2="162.5479">
		<stop  offset="0" style="stop-color:#BD8B38"/>
		<stop  offset="0.1275" style="stop-color:#B28032"/>
		<stop  offset="0.4108" style="stop-color:#A06C27"/>
		<stop  offset="0.6997" style="stop-color:#966121"/>
		<stop  offset="1" style="stop-color:#925D1F"/>
	</linearGradient>
	<path fill="url(#SVGID_11_)" stroke="#000000" stroke-width="3" stroke-miterlimit="10" d="M141.679,157.8
		c0,0,5.379-1.175,3.867,3.022c-1.511,4.197-4.617,7.388-5.289,6.465C139.585,166.363,127.399,158.463,141.679,157.8z"/>
	<linearGradient id="SVGID_12_" gradientUnits="userSpaceOnUse" x1="137.2461" y1="149.8418" x2="146.7217" y2="149.8418">
		<stop  offset="0" style="stop-color:#BD8B38"/>
		<stop  offset="0.1275" style="stop-color:#B28032"/>
		<stop  offset="0.4108" style="stop-color:#A06C27"/>
		<stop  offset="0.6997" style="stop-color:#966121"/>
		<stop  offset="1" style="stop-color:#925D1F"/>
	</linearGradient>
	<path fill="url(#SVGID_12_)" stroke="#000000" stroke-width="3" stroke-miterlimit="10" d="M140.294,146.716
		c0,0-6.165,4.534-0.96,7.054c5.205,2.519,8.144-0.328,7.219-4.11C145.63,145.876,144.949,142.938,140.294,146.716z"/>
	<linearGradient id="SVGID_13_" gradientUnits="userSpaceOnUse" x1="126.2178" y1="155.3467" x2="133.4326" y2="155.3467">
		<stop  offset="0" style="stop-color:#BD8B38"/>
		<stop  offset="0.1275" style="stop-color:#B28032"/>
		<stop  offset="0.4108" style="stop-color:#A06C27"/>
		<stop  offset="0.6997" style="stop-color:#966121"/>
		<stop  offset="1" style="stop-color:#925D1F"/>
	</linearGradient>
	<path fill="url(#SVGID_13_)" stroke="#000000" stroke-width="3" stroke-miterlimit="10" d="M132.964,151.573
		c0,0-7.149,1.356-6.729,4.379c0.42,3.022,3.358,2.876,4.785,3.159C132.448,159.395,134.317,152.483,132.964,151.573z"/>
	<linearGradient id="SVGID_14_" gradientUnits="userSpaceOnUse" x1="121.085" y1="144.0977" x2="132.1455" y2="144.0977">
		<stop  offset="0" style="stop-color:#BD8B38"/>
		<stop  offset="0.1275" style="stop-color:#B28032"/>
		<stop  offset="0.4108" style="stop-color:#A06C27"/>
		<stop  offset="0.6997" style="stop-color:#966121"/>
		<stop  offset="1" style="stop-color:#925D1F"/>
	</linearGradient>
	<path fill="url(#SVGID_14_)" stroke="#000000" stroke-width="3" stroke-miterlimit="10" d="M123.212,138.656
		c0,0-4.786,1.679,0,7.64c4.787,5.962,8.48,2.436,8.816,2.436S132.615,136.642,123.212,138.656z"/>
	<linearGradient id="SVGID_15_" gradientUnits="userSpaceOnUse" x1="111.5537" y1="151.3242" x2="123.5459" y2="151.3242">
		<stop  offset="0" style="stop-color:#BD8B38"/>
		<stop  offset="0.1275" style="stop-color:#B28032"/>
		<stop  offset="0.4108" style="stop-color:#A06C27"/>
		<stop  offset="0.6997" style="stop-color:#966121"/>
		<stop  offset="1" style="stop-color:#925D1F"/>
	</linearGradient>
	<path fill="url(#SVGID_15_)" stroke="#000000" stroke-width="3" stroke-miterlimit="10" d="M115.908,145.457
		c0,0-3.358-1.008-4.282,7.053s7.304,3.358,7.304,3.358S131.105,153.266,115.908,145.457z"/>
	<linearGradient id="SVGID_16_" gradientUnits="userSpaceOnUse" x1="109.6943" y1="137.2305" x2="117.6934" y2="137.2305">
		<stop  offset="0" style="stop-color:#BD8B38"/>
		<stop  offset="0.1275" style="stop-color:#B28032"/>
		<stop  offset="0.4108" style="stop-color:#A06C27"/>
		<stop  offset="0.6997" style="stop-color:#966121"/>
		<stop  offset="1" style="stop-color:#925D1F"/>
	</linearGradient>
	<path fill="url(#SVGID_16_)" stroke="#000000" stroke-width="3" stroke-miterlimit="10" d="M115.362,132.61
		c0,0-5.668,3.158-5.668,5.819s5.037,3.753,6.214,3.333C117.084,141.343,119.519,134.29,115.362,132.61z"/>
	<linearGradient id="SVGID_17_" gradientUnits="userSpaceOnUse" x1="132.1455" y1="139.7637" x2="144.0352" y2="139.7637">
		<stop  offset="0" style="stop-color:#BD8B38"/>
		<stop  offset="0.1275" style="stop-color:#B28032"/>
		<stop  offset="0.4108" style="stop-color:#A06C27"/>
		<stop  offset="0.6997" style="stop-color:#966121"/>
		<stop  offset="1" style="stop-color:#925D1F"/>
	</linearGradient>
	<path fill="url(#SVGID_17_)" stroke="#000000" stroke-width="3" stroke-miterlimit="10" d="M132.146,137.23
		c0,0,0.135,5.787,5.762,4.992c5.624-0.796,6.128-3.314,6.128-3.314l-3.741-0.741L132.146,137.23z"/>
	<linearGradient id="SVGID_18_" gradientUnits="userSpaceOnUse" x1="112.4688" y1="123.7402" x2="122.6299" y2="123.7402">
		<stop  offset="0" style="stop-color:#BD8B38"/>
		<stop  offset="0.1275" style="stop-color:#B28032"/>
		<stop  offset="0.4108" style="stop-color:#A06C27"/>
		<stop  offset="0.6997" style="stop-color:#966121"/>
		<stop  offset="1" style="stop-color:#925D1F"/>
	</linearGradient>
	<path fill="url(#SVGID_18_)" stroke="#000000" stroke-width="3" stroke-miterlimit="10" d="M120.165,117.246
		c0,0-3.33-1.344-6.857,5.374c-3.525,6.716,5.207,7.724,5.207,7.724s4.276-0.291,4.11-4.637
		C122.46,121.36,120.165,117.246,120.165,117.246z"/>
	<linearGradient id="SVGID_19_" gradientUnits="userSpaceOnUse" x1="109.2109" y1="116.8262" x2="115.3857" y2="116.8262">
		<stop  offset="0" style="stop-color:#BD8B38"/>
		<stop  offset="0.1275" style="stop-color:#B28032"/>
		<stop  offset="0.4108" style="stop-color:#A06C27"/>
		<stop  offset="0.6997" style="stop-color:#966121"/>
		<stop  offset="1" style="stop-color:#925D1F"/>
	</linearGradient>
	<path fill="url(#SVGID_19_)" stroke="#000000" stroke-width="3" stroke-miterlimit="10" d="M111.554,114.811
		c0,0-3.622,2.1-1.859,3.694c1.763,1.596,6.045-1.175,5.668-2.771C114.983,114.139,111.554,114.811,111.554,114.811z"/>
	<linearGradient id="SVGID_20_" gradientUnits="userSpaceOnUse" x1="117.5508" y1="109.8574" x2="121.4336" y2="109.8574">
		<stop  offset="0" style="stop-color:#BD8B38"/>
		<stop  offset="0.1275" style="stop-color:#B28032"/>
		<stop  offset="0.4108" style="stop-color:#A06C27"/>
		<stop  offset="0.6997" style="stop-color:#966121"/>
		<stop  offset="1" style="stop-color:#925D1F"/>
	</linearGradient>
	<path fill="url(#SVGID_20_)" stroke="#000000" stroke-width="3" stroke-miterlimit="10" d="M121.086,105.323
		c0,0-3.574,3.022-3.535,5.626c0.035,2.603,2.752,3.441,3.535,3.441C121.868,114.391,121.086,105.323,121.086,105.323z"/>
	<linearGradient id="SVGID_21_" gradientUnits="userSpaceOnUse" x1="111.4189" y1="105.7637" x2="117.793" y2="105.7637">
		<stop  offset="0" style="stop-color:#BD8B38"/>
		<stop  offset="0.1275" style="stop-color:#B28032"/>
		<stop  offset="0.4108" style="stop-color:#A06C27"/>
		<stop  offset="0.6997" style="stop-color:#966121"/>
		<stop  offset="1" style="stop-color:#925D1F"/>
	</linearGradient>
	<path fill="url(#SVGID_21_)" stroke="#000000" stroke-width="3" stroke-miterlimit="10" d="M114.647,102.217
		c0,0,2.396-0.588,3.046,0.672c0.649,1.259-2.016,7.389-4.001,6.465c-1.982-0.924-2.905-3.339-1.801-4.776
		C112.994,103.142,114.647,102.217,114.647,102.217z"/>
	<linearGradient id="SVGID_22_" gradientUnits="userSpaceOnUse" x1="111.7031" y1="93.2305" x2="119.7021" y2="93.2305">
		<stop  offset="0" style="stop-color:#BD8B38"/>
		<stop  offset="0.1275" style="stop-color:#B28032"/>
		<stop  offset="0.4108" style="stop-color:#A06C27"/>
		<stop  offset="0.6997" style="stop-color:#966121"/>
		<stop  offset="1" style="stop-color:#925D1F"/>
	</linearGradient>
	<path fill="url(#SVGID_22_)" stroke="#000000" stroke-width="3" stroke-miterlimit="10" d="M117.371,88.611
		c0,0-5.668,3.157-5.668,5.819c0,2.661,5.036,3.753,6.214,3.333C119.093,97.344,121.527,90.291,117.371,88.611z"/>
	<linearGradient id="SVGID_23_" gradientUnits="userSpaceOnUse" x1="56.9473" y1="27.666" x2="82.5469" y2="27.666">
		<stop  offset="0" style="stop-color:#F9B347"/>
		<stop  offset="1" style="stop-color:#F49735"/>
	</linearGradient>
	<path fill="url(#SVGID_23_)" stroke="#000000" stroke-width="3" stroke-miterlimit="10" d="M82.547,29.271
		c0,0-1.532-11.3-17.488-11.938c-15.955-0.639-5.871,20.295,8.744,20.679"/>
	<linearGradient id="SVGID_24_" gradientUnits="userSpaceOnUse" x1="99.7295" y1="19.1367" x2="106.7559" y2="19.1367">
		<stop  offset="0" style="stop-color:#F9B347"/>
		<stop  offset="1" style="stop-color:#F49735"/>
	</linearGradient>
	<path fill="url(#SVGID_24_)" stroke="#000000" stroke-width="3" stroke-miterlimit="10" d="M99.804,27.471
		c0,0-0.531-13.274,1.255-15.828c1.788-2.553,5.697,1.531,5.697,1.531s-3.398,13.02-2.122,14.297"/>
	<linearGradient id="SVGID_25_" gradientUnits="userSpaceOnUse" x1="82.7842" y1="19.1367" x2="91.8691" y2="19.1367">
		<stop  offset="0" style="stop-color:#F9B347"/>
		<stop  offset="1" style="stop-color:#F49735"/>
	</linearGradient>
	<path fill="url(#SVGID_25_)" stroke="#000000" stroke-width="3" stroke-miterlimit="10" d="M87.014,27.162
		c0,0-2.041-10.467-3.829-11.488c-1.786-1.021,2.808-5.616,5.871-4.34c3.064,1.276,2.809,13.786,2.809,13.786"/>
	
		<path fill="#432918" stroke="#000000" stroke-width="3" stroke-linecap="square" stroke-linejoin="bevel" stroke-miterlimit="10" d="
		M125.725,42.224"/>
	<linearGradient id="SVGID_26_" gradientUnits="userSpaceOnUse" x1="63.1836" y1="60.8008" x2="122.625" y2="60.8008">
		<stop  offset="0" style="stop-color:#F9B347"/>
		<stop  offset="1" style="stop-color:#F49735"/>
	</linearGradient>
	<path fill="url(#SVGID_26_)" stroke="#000000" stroke-width="3" stroke-miterlimit="10" d="M94.163,25.631
		c0,0-18.375,1.587-22.467,18.636c-1.531,6.383-0.512,14.041-1.531,15.317c-1.022,1.277-9.691,16.791-6.127,23.359
		c4.778,8.808,7.914,16.339,29.23,11.616s28.209-32.423,28.209-32.423S131.179,24.098,94.163,25.631z"/>
	
		<path fill="#FFFFFF" stroke="#000000" stroke-width="3" stroke-linecap="square" stroke-linejoin="bevel" stroke-miterlimit="10" d="
		M77.793,58.159l13.28,1.021c0,0,3.697-10.084-2.304-13.147C82.772,42.97,76.899,48.202,77.793,58.159z"/>
	
		<path fill="#FFFFFF" stroke="#000000" stroke-width="3" stroke-linecap="square" stroke-linejoin="bevel" stroke-miterlimit="10" d="
		M94.439,59.972l13.281,1.021c0,0,3.695-10.083-2.304-13.146C99.417,44.781,93.547,50.017,94.439,59.972z"/>
	<path stroke="#000000" stroke-width="3" stroke-linecap="square" stroke-linejoin="bevel" stroke-miterlimit="10" d="
		M94.854,60.004l12.438,0.956c0,0,3.167-6.424-4.593-6.977C94.939,53.43,95.46,57.805,94.854,60.004z"/>
	<path stroke="#000000" stroke-width="3" stroke-linecap="square" stroke-linejoin="bevel" stroke-miterlimit="10" d="
		M78.412,57.738l12.438,0.957c0,0,3.168-6.423-4.592-6.977C78.497,51.165,79.02,55.541,78.412,57.738z"/>
	<g>
		<path d="M87.327,84.612c0,0,1.604-4.912,4.542-4.156"/>
		<path d="M87.327,84.612c0,0-0.092-0.139-0.179-0.377c-0.091-0.238-0.181-0.572-0.21-0.96c-0.064-0.771,0.166-1.756,0.854-2.568
			c0.17-0.197,0.36-0.393,0.59-0.554c0.2-0.175,0.478-0.304,0.722-0.416c0.25-0.113,0.55-0.166,0.798-0.209
			c0.274-0.019,0.537,0.004,0.759,0.037c0.232,0.064,0.433,0.159,0.592,0.245c0.161,0.07,0.279,0.221,0.371,0.309
			c0.182,0.195,0.246,0.337,0.246,0.337s-0.118,0.093-0.326,0.254c-0.186,0.124-0.396,0.364-0.553,0.563
			c-0.066,0.105-0.139,0.219-0.214,0.338c-0.066,0.135-0.128,0.221-0.196,0.341c-0.068,0.126-0.141,0.214-0.226,0.342
			c-0.081,0.114-0.182,0.223-0.275,0.354c-0.209,0.229-0.444,0.486-0.717,0.713c-0.263,0.239-0.563,0.453-0.854,0.642
			c-0.299,0.183-0.582,0.339-0.806,0.444C87.484,84.551,87.327,84.612,87.327,84.612z"/>
	</g>
	<g>
		<path d="M78.246,83.976c0,0-1.604-4.911-4.543-4.155"/>
		<path d="M78.246,83.976c0,0-0.157-0.062-0.376-0.166c-0.224-0.105-0.507-0.261-0.806-0.444c-0.29-0.188-0.591-0.402-0.854-0.641
			c-0.272-0.227-0.508-0.484-0.717-0.714c-0.095-0.132-0.195-0.239-0.275-0.354c-0.086-0.128-0.157-0.217-0.226-0.343
			c-0.069-0.119-0.131-0.205-0.196-0.34c-0.076-0.12-0.147-0.233-0.214-0.338c-0.158-0.198-0.368-0.438-0.554-0.563
			c-0.208-0.161-0.326-0.254-0.326-0.254s0.065-0.142,0.246-0.337c0.092-0.088,0.21-0.238,0.371-0.309
			c0.159-0.086,0.358-0.181,0.592-0.245c0.222-0.034,0.484-0.056,0.759-0.038c0.248,0.044,0.548,0.096,0.797,0.209
			c0.245,0.113,0.522,0.241,0.723,0.416c0.229,0.161,0.42,0.356,0.59,0.554c0.688,0.813,0.918,1.797,0.854,2.568
			c-0.029,0.388-0.119,0.722-0.21,0.96C78.338,83.837,78.246,83.976,78.246,83.976z"/>
	</g>
	<g>
		<path d="M77.701,43.785c0,0,0.099-0.258,0.36-0.64c0.259-0.386,0.677-0.902,1.276-1.417c0.593-0.526,1.382-1.018,2.297-1.422
			c0.464-0.178,0.946-0.38,1.466-0.481c0.258-0.056,0.516-0.128,0.78-0.169l0.803-0.084c0.537-0.06,1.079-0.018,1.607,0.017
			c0.529,0.021,1.038,0.174,1.526,0.274c0.487,0.111,0.932,0.324,1.353,0.49c0.425,0.159,0.783,0.415,1.118,0.621
			c0.327,0.222,0.629,0.409,0.858,0.645c0.24,0.211,0.432,0.422,0.589,0.588c0.313,0.337,0.465,0.555,0.465,0.555
			s-0.282,0.01-0.729-0.02c-0.223-0.016-0.493-0.026-0.781-0.069c-0.287-0.051-0.635-0.023-0.981-0.059
			c-0.353-0.017-0.713-0.087-1.106-0.075c-0.389,0.001-0.782-0.055-1.191-0.047c-0.411,0.021-0.823-0.022-1.243,0.004
			c-0.419,0.038-0.843,0-1.264,0.067c-0.425,0.016-0.847,0.061-1.265,0.117c-0.422,0.031-0.829,0.122-1.239,0.166
			c-0.807,0.142-1.591,0.271-2.275,0.423c-0.693,0.131-1.289,0.271-1.724,0.362C77.956,43.729,77.701,43.785,77.701,43.785z"/>
	</g>
	<g>
		<path d="M96.863,42.391c0,0,0.145-0.234,0.475-0.561c0.326-0.329,0.835-0.758,1.521-1.149c0.681-0.405,1.549-0.739,2.523-0.963
			c0.489-0.087,1.001-0.195,1.53-0.196c0.264-0.006,0.531-0.028,0.799-0.019l0.804,0.069c0.538,0.043,1.063,0.187,1.575,0.319
			c0.516,0.122,0.986,0.367,1.446,0.558c0.458,0.202,0.854,0.495,1.236,0.737c0.388,0.237,0.691,0.556,0.98,0.821
			c0.279,0.28,0.541,0.521,0.721,0.795c0.196,0.253,0.344,0.496,0.468,0.689c0.243,0.389,0.352,0.632,0.352,0.632
			s-0.278-0.044-0.712-0.156c-0.216-0.059-0.479-0.12-0.754-0.217c-0.272-0.104-0.619-0.143-0.953-0.242
			c-0.343-0.083-0.684-0.22-1.071-0.282c-0.383-0.073-0.759-0.202-1.162-0.271c-0.406-0.058-0.804-0.178-1.221-0.23
			c-0.419-0.042-0.827-0.16-1.254-0.174c-0.42-0.064-0.843-0.1-1.264-0.123c-0.42-0.049-0.838-0.037-1.249-0.071
			c-0.818-0.014-1.613-0.035-2.313-0.015c-0.706-0.002-1.316,0.022-1.762,0.031C97.124,42.384,96.863,42.391,96.863,42.391z"/>
	</g>
	<g>
		<path fill="#F49735" d="M108.203,32.523c0,0,4.851-15.828,21.956-16.723c17.103-0.893,5.104,27.955-12.638,26.934"/>
		<path d="M108.203,32.523c0,0,0.059-0.281,0.205-0.806c0.155-0.519,0.371-1.291,0.768-2.229c0.383-0.943,0.896-2.08,1.633-3.306
			c0.338-0.635,0.795-1.245,1.234-1.925c0.468-0.658,1.016-1.312,1.588-1.995c1.211-1.3,2.593-2.703,4.344-3.817
			c1.688-1.21,3.697-2.141,5.844-2.893c1.093-0.292,2.212-0.606,3.357-0.825c0.578-0.076,1.16-0.153,1.744-0.23l0.882-0.104
			l0.222-0.025l0.055-0.006l0.134-0.003l0.105-0.001l0.424-0.003l0.849-0.006c0.303,0.01,0.667,0.061,0.998,0.094
			c0.689,0.045,1.329,0.243,1.981,0.414c1.291,0.44,2.569,1.2,3.515,2.32c0.948,1.125,1.424,2.509,1.649,3.819
			c0.236,1.329,0.171,2.625-0.015,3.854c-0.366,2.472-1.313,4.688-2.425,6.663c-1.112,1.984-2.482,3.706-3.928,5.175
			c-1.443,1.475-2.988,2.686-4.539,3.592c-1.544,0.914-3.057,1.576-4.452,1.968c-0.689,0.215-1.359,0.336-1.965,0.465
			c-0.622,0.067-1.186,0.146-1.696,0.184c-1.029,0.037-1.826,0.006-2.367-0.074c-0.538-0.057-0.825-0.087-0.825-0.087
			s0.287-0.026,0.826-0.076c0.268-0.033,0.598-0.038,0.979-0.109c0.38-0.07,0.815-0.152,1.304-0.244
			c0.481-0.116,1.005-0.28,1.573-0.437c0.55-0.228,1.161-0.405,1.775-0.699c1.245-0.544,2.552-1.348,3.887-2.32
			c1.33-0.985,2.622-2.243,3.849-3.673c1.216-1.442,2.318-3.106,3.251-4.913c0.938-1.804,1.592-3.813,1.885-5.821
			c0.305-1.999,0.003-4.06-1.078-5.354c-0.538-0.649-1.278-1.116-2.138-1.438c-0.455-0.114-0.905-0.277-1.358-0.304
			c-0.234-0.025-0.433-0.075-0.696-0.09l-0.85-0.008l-0.423-0.004h-0.106l-0.026-0.001c0.027,0-0.098,0.002,0.055-0.001l-0.05,0.005
			l-0.198,0.021l-0.793,0.079c-0.529,0.044-1.056,0.088-1.579,0.132c-1.034,0.15-2.042,0.388-3.038,0.6
			c-1.931,0.612-3.804,1.271-5.408,2.256c-0.401,0.242-0.818,0.453-1.195,0.712c-0.373,0.267-0.74,0.53-1.102,0.789l-0.544,0.38
			l-0.496,0.423c-0.33,0.28-0.653,0.555-0.971,0.824c-1.203,1.148-2.264,2.273-3.102,3.362c-0.425,0.54-0.81,1.058-1.144,1.554
			c-0.353,0.485-0.645,0.951-0.904,1.377C108.656,31.454,108.203,32.523,108.203,32.523z"/>
	</g>
	<path stroke="#000000" stroke-width="3" stroke-linecap="square" stroke-linejoin="bevel" stroke-miterlimit="10" d="
		M56.946,22.828c0,0,13.754,3.976,17.584,11.515"/>
	<g>
		<path d="M98.757,91.751c0,0,0.201-0.324,0.557-0.861c0.352-0.525,0.853-1.277,1.454-2.179c1.188-1.772,2.765-4.053,3.982-6.412
			c1.26-2.351,2.023-4.802,2.15-6.809c0.039-0.501,0.049-0.97,0.04-1.395c-0.025-0.433-0.048-0.809-0.065-1.118
			c-0.091-0.62-0.119-1.012-0.119-1.012s0.26,0.266,0.676,0.797c0.173,0.278,0.421,0.615,0.619,1.041
			c0.099,0.216,0.204,0.446,0.314,0.689c0.101,0.248,0.17,0.52,0.263,0.803c0.319,1.138,0.437,2.563,0.225,4.039
			c-0.201,1.479-0.735,2.977-1.441,4.348c-1.433,2.754-3.596,4.919-5.399,6.231c-0.907,0.659-1.716,1.13-2.306,1.421
			C99.12,91.63,98.757,91.751,98.757,91.751z"/>
	</g>
	<path stroke="#000000" stroke-width="3" stroke-linecap="square" stroke-linejoin="bevel" stroke-miterlimit="10" d="
		M117.792,38.87c0,0,10.075-15.873,20.99-17.929"/>
	
		<path fill="#432918" stroke="#000000" stroke-width="3" stroke-linecap="square" stroke-linejoin="bevel" stroke-miterlimit="10" d="
		M94.163,25.631c0,0-28.136,8.412-9.496,7.236c3.369-0.213,1.992,3.19,0.828,4.198c-1.164,1.007,3.495,2.015,6.538-2.184
		c3.046-4.198,5.209,4.372,7.695,1.344c7.999-9.74,11.065,9.223,14.955,1.176C114.684,37.401,122.625,27.471,94.163,25.631z"/>
</g>
</svg>
