<?xml version="1.0" encoding="utf-8"?>
<!-- Generator: Adobe Illustrator 16.0.0, SVG Export Plug-In . SVG Version: 6.00 Build 0)  -->
<!DOCTYPE svg PUBLIC "-//W3C//DTD SVG 1.1//EN" "http://www.w3.org/Graphics/SVG/1.1/DTD/svg11.dtd">
<svg version="1.1" id="Calque_1" xmlns="http://www.w3.org/2000/svg" xmlns:xlink="http://www.w3.org/1999/xlink" x="0px" y="0px"
	 width="250px" height="250px" viewBox="0 0 250 250" enable-background="new 0 0 250 250" xml:space="preserve">
<g>
	<g>
		<path fill="#9E124F" stroke="#030303" stroke-width="3" stroke-miterlimit="10" d="M83.201,206.254
			c-2.18,1.726-11.31,9.841-13.851,5.048c-2.531-4.795,7.718-6.035,12.275-8.352c4.568-2.317,12.634-9.013,13.271-11.23
			c0.583-2.05-0.161-5.278-3.208-8.181c-3.048-2.901-6.768-2.241-9.621-0.762c-2.851,1.479-7.019,1.791-7.041-0.902
			c-0.024-2.691,4.133-2.784,5.482-2.852c1.351-0.065,4.65-1.419,4.606-3.604c-0.044-2.191-4.266-3.457-7.841-3.902
			c-3.572-0.455-14.587,3.67-13.377-2.511c1.211-6.176,9.703-1.764,12.017-0.563c2.317,1.195,6.99,2.586,11.239-0.529
			c4.253-3.114,0.712-8.165-1.897-10.606c-2.609-2.446-9.888-2.788-8.644-6.563c1.247-3.773,6.469,1.11,7.56,1.928
			c1.098,0.826,3.625,2.359,8.658,3.087c5.034,0.727,6.29-3.83,5.913-6.197c-0.367-2.368-5.278-6.677-2.205-7.929
			c3.07-1.243,3.805,2.929,4.562,4.438c0.815,1.621,3.218,4.57,8.768,2.957c5.553-1.615,7.451-8.169,7.653-10.968
			c0.203-2.797-4.436-11.924-0.346-13.361c4.083-1.434,2.975,8.403,2.677,10.742c-0.309,2.351,0.778,6.983,3.208,8.076
			c2.437,1.086,5.885-1.604,8.573-4.889c2.686-3.27,4.181-11.185,8.688-8.346c4.5,2.839-2.542,9.109-4.385,10.62
			c-1.842,1.514-4.67,5.461-2.975,8.545c1.691,3.083,8.113-1.2,9.551-0.475c1.436,0.721,0.089,4.04,0.832,5.413
			c0.738,1.368,4.92,0.385,7.196-0.549c2.274-0.932,7.972-10.394,10.87-6.602c2.907,3.798-3.416,8.412-6.688,8.979
			c-3.264,0.563-6.088,4.398-5.896,8.894c0.188,4.492,3.52,7.062,6.519,8.054c2.999,0.993,7.354-3.56,9.708-0.004
			c2.348,3.549-3.53,5.041-6.474,5.733c-2.936,0.683-5.67,2.16-6.586,6.059c-0.912,3.899,8.11,5.879,11.884,7.012
			c3.774,1.131,10.377,1.688,9.621,4.238c-0.757,2.556-6.696-1.113-11.798-2.741c-5.104-1.626-12.881-0.643-14.8,3.104
			c-1.912,3.754,5.494,10.39,6.677,11.992c1.18,1.613,11.019,9.448,2.979,11.748c-8.038,2.304-9.267-4.771-10.495-8.511
			c-1.22-3.737-4.531-8.674-8.975-6.689c-4.439,1.986-2.094,9.134-1.58,13.969c0.518,4.841,9.07,17.797,4.432,18.88
			c-4.637,1.08-5.639-12.971-6.184-16.583c-0.557-3.604-2.141-17.113-8.984-16.894c-6.854,0.229,0.199,14.476-0.511,15.576
			c-0.71,1.094-3.303,1.575-4.797-0.828c-1.491-2.408,2.496-14.614-7.229-15.606c-9.725-0.992-11.783,19.455-12.667,22.232
			c-0.88,2.771-4.295,5.813-8.113,2.778c-3.829-3.043,5.179-10.938,6.723-13.691c1.547-2.756,3.491-12.708-0.072-14.806
			C93.264,197.276,85.395,204.537,83.201,206.254z"/>
		<path fill="#9E124F" stroke="#030303" stroke-width="3" stroke-miterlimit="10" d="M164.148,239.648
			c4.683-5.15-6.109-14.424-8.786-10.439C152.943,232.824,159.466,244.799,164.148,239.648z"/>
		<path fill="#9E124F" stroke="#030303" stroke-width="3" stroke-miterlimit="10" d="M105.945,216.517
			c4.33,0.004,2.541,7.007-0.234,7.143C102.939,223.804,101.613,216.509,105.945,216.517z"/>
		<path fill="#9E124F" stroke="#030303" stroke-width="3" stroke-miterlimit="10" d="M104.206,128.795
			c6.267-1.186,4.359,7.75,1.638,8.354C103.139,137.751,97.934,129.967,104.206,128.795z"/>
		<path fill="#9E124F" stroke="#030303" stroke-width="3" stroke-miterlimit="10" d="M138.598,121.148
			c6.957-0.922,5.014-12.541,0.432-13.133C131.906,107.086,131.651,122.074,138.598,121.148z"/>
		<path fill="#9E124F" stroke="#030303" stroke-width="3" stroke-miterlimit="10" d="M142.771,127.055
			c3.89,0.355,5.73-5.352,2.276-5.629C141.595,121.142,138.882,126.694,142.771,127.055z"/>
		<path fill="#9E124F" stroke="#030303" stroke-width="3" stroke-miterlimit="10" d="M150.713,138.661
			c2.805,5.905-5.121,8.554-7.504,5.712C140.833,141.526,147.913,132.76,150.713,138.661z"/>
		<path fill="#9E124F" stroke="#030303" stroke-width="3" stroke-miterlimit="10" d="M130.992,120.964
			c2.742,0.844,1.067,7.385-1.803,5.647C125.572,124.432,128.253,120.117,130.992,120.964z"/>
	</g>
	<g>
		<path fill="#EDDAAB" stroke="#030303" stroke-width="3" stroke-miterlimit="10" d="M168.571,231.752
			c4.092,0.939,31.041-19.315,32.441-33.735c0.265-2.731-0.265-8.411-5.059-13.144c0,0-3.982-3.602-9.219-5.356
			c-5.237-1.757-10.856-1.204-10.856-1.204c-8.597,1.474-13.842,6.403-16.189,12.275c-3.221,8.012,3.42,24.232,4.075,28.197
			C164.737,224.616,164.473,230.817,168.571,231.752z"/>
		<path fill="#B17F4A" stroke="#030303" stroke-width="3" stroke-miterlimit="10" d="M193.976,185.809
			c-2.548,0.316-19.798-1.599-21.533-6.806c-1.736-5.209,2.383-8.096,2.383-8.096s6.25,1.229,13.224,2.643
			c6.974,1.412,9.515,4.247,9.515,4.247C200.098,182.822,196.524,185.494,193.976,185.809z"/>
		<path fill="#CA9E67" stroke="#030303" stroke-width="3" stroke-miterlimit="10" d="M196.356,177.99
			c-2.549,0.314-19.8-1.601-21.536-6.807c-1.735-5.21,2.385-8.096,2.385-8.096s6.25,1.229,13.225,2.643
			c6.974,1.411,9.514,4.245,9.514,4.245C202.478,175.002,198.904,177.675,196.356,177.99z"/>
		<path fill="#7D4E24" stroke="#030303" stroke-width="3" stroke-miterlimit="10" d="M206.994,138.479
			c0.56-10.767,4.064-30.597,4.979-36.316c0.923-5.706,5.292-23.825,6.451-27.603c1.148-3.775,5.785-16.728,7.247-21.798
			c1.463-5.071,2.918-10.722,5.234-17.047c3.918-10.656,7.571-24.201,2.922-24.677c-4.644-0.479-8.336,7.17-12.018,17.318
			c-3.677,10.149-8.928,27.089-9.241,28.492c-0.309,1.404-3.849,15.954-4.584,17.686c-0.746,1.728-11.471,32.058-14.175,43.707
			c-2.563,11.034-20.99,39.56-18.462,44.709c0.22,0.454,0.25,1.306,0.729,1.769c0,0,2.248,3.928,9.74,6.078
			c7.493,2.153,13.331,0.425,13.331,0.425c0.696-0.147,1.233-0.38,1.546-0.722C203.58,167.347,206.441,149.247,206.994,138.479z"/>
		<g>
			<path fill="#EDDAAB" d="M166.482,210.123c-4.472-13.455,2.597-21.699,2.597-21.699"/>
			<g>
				<path fill="#030303" d="M169.674,189.446c0.747-0.897-0.277-3.138-1.19-2.042c-5.294,6.34-5.154,15.704-2.863,23.155
					c0.484,1.574,2.142,0.486,1.726-0.871C165.377,203.292,165.083,194.944,169.674,189.446L169.674,189.446z"/>
			</g>
		</g>
		<g>
			<g>
				<path fill="#030303" d="M193.467,190.88c-0.602-0.709-3.055-0.466-2.241,0.493c6.937,8.189-5.57,19.394-11.137,23.626
					c-1.006,0.767,1.316,1.579,2.06,1.015C188.259,211.365,200.892,199.644,193.467,190.88L193.467,190.88z"/>
			</g>
		</g>
		<path fill="none" stroke="#030303" stroke-width="1.6717" stroke-miterlimit="10" d="M175.603,225.15
			c-3.167-20.116,4.587-26.991,4.587-26.991"/>
		<path fill="#9E124F" stroke="#030303" stroke-width="3" stroke-miterlimit="10" d="M167.527,233.043
			c-4.172-1.664-4.169-11.102-4.639-14.322c-0.469-3.221-2.688-5.146-0.834-7.482c1.853-2.34,6.031-4.107,8.639-3.266
			c2.608,0.837,5.203,5.591,7.837,6.202c2.634,0.608,6.809-0.283,8.629-0.185c1.818,0.1,4.11,2.528,2.703,3.985
			C188.455,219.434,171.701,234.705,167.527,233.043z"/>
	</g>
</g>
<g>
	<path d="M33.745,81.58v14.697h-7.296V61.476h24.828v6.036H33.745v7.926h15.327v6.142H33.745z"/>
	<path d="M71.051,96.276c-0.208-0.664-0.347-1.435-0.417-2.309c-0.805,0.91-1.873,1.636-3.202,2.178
		c-1.33,0.542-2.869,0.814-4.619,0.814c-2.975,0-5.153-0.656-6.535-1.969c-1.383-1.312-2.073-3.018-2.073-5.118
		c0-1.854,0.296-3.333,0.892-4.435c0.595-1.103,1.417-1.97,2.467-2.599c1.05-0.63,2.301-1.094,3.753-1.391
		c1.452-0.297,3.036-0.568,4.75-0.814c1.714-0.245,2.869-0.568,3.464-0.971c0.594-0.402,0.892-1.059,0.892-1.968
		c0-0.84-0.394-1.497-1.181-1.969c-0.788-0.472-1.846-0.709-3.176-0.709c-1.575,0-2.703,0.35-3.386,1.05
		c-0.682,0.701-1.112,1.628-1.286,2.782h-6.352c0.035-1.33,0.254-2.554,0.656-3.674c0.402-1.119,1.05-2.082,1.942-2.888
		c0.892-0.803,2.054-1.424,3.487-1.863c1.432-0.437,3.177-0.655,5.236-0.655c2.023,0,3.741,0.228,5.153,0.682
		c1.412,0.454,2.546,1.111,3.401,1.968c0.855,0.858,1.473,1.925,1.857,3.202c0.384,1.278,0.576,2.721,0.576,4.33v16.325H71.051z
		 M70.582,83.626c-0.35,0.351-0.858,0.63-1.522,0.84c-0.665,0.21-1.627,0.438-2.887,0.683c-1.96,0.385-3.307,0.875-4.042,1.47
		c-0.735,0.596-1.103,1.452-1.103,2.571c0,1.925,1.103,2.888,3.307,2.888c0.875,0,1.688-0.148,2.44-0.447
		c0.752-0.296,1.399-0.699,1.942-1.207c0.542-0.506,0.979-1.102,1.313-1.785c0.332-0.682,0.499-1.407,0.499-2.178L70.582,83.626z"/>
	<path d="M84.062,96.276V70.452h6.403v3.072c0.56-0.88,1.146-1.568,1.759-2.062c0.612-0.494,1.242-0.873,1.89-1.136
		c0.647-0.264,1.303-0.432,1.968-0.503c0.664-0.069,1.346-0.105,2.047-0.105h0.893v7.033c-0.63-0.105-1.26-0.156-1.89-0.156
		c-4.165,0-6.247,2.082-6.247,6.246v13.437H84.062z"/>
	<path d="M103.955,96.276V61.003h6.719v12.807c1.924-2.694,4.479-4.041,7.664-4.041c1.68,0,3.176,0.323,4.488,0.97
		c1.313,0.648,2.423,1.566,3.333,2.756c0.909,1.189,1.602,2.597,2.073,4.225c0.473,1.627,0.709,3.421,0.709,5.38
		c0,2.171-0.28,4.113-0.84,5.827c-0.561,1.715-1.331,3.167-2.31,4.356c-0.98,1.19-2.161,2.1-3.543,2.73s-2.878,0.944-4.488,0.944
		c-3.22,0-5.616-1.277-7.191-3.832l-0.053,3.149H103.955z M116.185,91.395c1.714,0,3.114-0.726,4.2-2.179
		c1.083-1.451,1.626-3.333,1.626-5.642c0-5.319-1.96-7.979-5.879-7.979c-3.814,0-5.721,2.801-5.721,8.399
		c0,2.204,0.551,3.989,1.653,5.354C113.167,90.712,114.54,91.395,116.185,91.395z"/>
	<path d="M140.745,85.149c0.105,1.959,0.674,3.516,1.706,4.671c1.031,1.156,2.389,1.733,4.068,1.733
		c1.119,0,2.107-0.253,2.966-0.761c0.857-0.508,1.408-1.215,1.652-2.126h7.034c-0.805,2.66-2.204,4.708-4.198,6.141
		c-1.995,1.436-4.375,2.153-7.14,2.153c-8.608,0-12.913-4.688-12.913-14.067c0-1.995,0.28-3.798,0.841-5.407
		c0.559-1.608,1.373-2.992,2.44-4.146s2.37-2.038,3.911-2.651c1.539-0.612,3.307-0.918,5.301-0.918c3.989,0,7.007,1.277,9.056,3.831
		c2.046,2.555,3.07,6.404,3.07,11.549H140.745z M151.506,80.845c-0.035-0.945-0.202-1.775-0.499-2.494
		c-0.298-0.717-0.69-1.312-1.18-1.786c-0.492-0.472-1.051-0.821-1.681-1.049c-0.63-0.226-1.278-0.341-1.941-0.341
		c-1.365,0-2.547,0.499-3.544,1.497c-0.997,0.997-1.566,2.387-1.706,4.173H151.506z"/>
	<path d="M180.78,96.276V80.634c0-1.995-0.334-3.342-0.998-4.041c-0.666-0.7-1.804-1.051-3.413-1.051
		c-3.534,0-5.301,1.978-5.301,5.932v14.802h-6.823V70.452h6.509v3.767c0.802-1.484,1.866-2.603,3.19-3.363
		c1.325-0.759,3.035-1.139,5.129-1.139c1.22,0,2.354,0.184,3.4,0.552c1.048,0.368,1.946,0.92,2.696,1.656
		c0.75,0.737,1.342,1.64,1.778,2.708c0.437,1.07,0.654,2.306,0.654,3.708v17.934H180.78z"/>
</g>
</svg>
