<?xml version="1.0" encoding="utf-8"?>
<!-- Generator: Adobe Illustrator 16.0.0, SVG Export Plug-In . SVG Version: 6.00 Build 0)  -->
<!DOCTYPE svg PUBLIC "-//W3C//DTD SVG 1.1//EN" "http://www.w3.org/Graphics/SVG/1.1/DTD/svg11.dtd">
<svg version="1.1" id="Calque_1" xmlns="http://www.w3.org/2000/svg" xmlns:xlink="http://www.w3.org/1999/xlink" x="0px" y="0px"
	 width="250px" height="250px" viewBox="0 0 250 250" enable-background="new 0 0 250 250" xml:space="preserve">
<g>
	<path fill="#FFFADE" stroke="#030303" stroke-width="2" stroke-linejoin="round" stroke-miterlimit="10" d="M45.137,87.952
		c0.295-0.475,2.781-4.825,4.492-4.825c-0.021,0.087-0.039,0.183-0.061,0.271c0.186-0.455,0.414-0.715,0.689-0.715
		c0-8.748,3.863-29.037-4.053-36.948l-3.975,7.874C49.762,59.393,45.137,80.418,45.137,87.952z"/>
	<g>
		<path fill="#FFFADE" stroke="#030303" stroke-width="2" stroke-linejoin="round" stroke-miterlimit="10" d="M51.672,81.274h58.303
			c0-8.749-3.697-29.065,4.184-36.949H47.619C55.535,52.237,51.672,72.525,51.672,81.274z"/>
	</g>
	<g>
		<path d="M87.525,234.56c-1.32,1.043-3.043,1.322-4.689,1.354c-0.438,0.008-0.859,0.737-1.285,0.741
			c2.527-0.026,5.615-0.685,7.26-2.836C88.535,234.177,87.805,234.193,87.525,234.56c-0.178,0.232-0.365,0.439-0.576,0.64
			c-0.256,0.191-0.225,0.196,0.098,0.014c-0.244,0.116-0.502,0.198-0.758,0.28c-1.104,0.356-2.303,0.407-3.453,0.42
			c-0.428,0.247-0.857,0.493-1.285,0.741c2.693-0.049,5.166-1.184,7.26-2.836C88.428,234.12,87.91,234.256,87.525,234.56z"/>
	</g>
	<g>
		<path fill="#CEBB95" stroke="#030303" stroke-width="3" stroke-linejoin="round" stroke-miterlimit="10" d="M72.391,152.532
			c0,16.498-4.771,54.695-4.771,62.412c0,13.568,5.523,21.339,14.574,21.339c-9.174,0-11.836-11.176-11.836-18.891
			c0-7.717,4.521-53.485,4.521-69.981c0-16.499-3.723-29.536-23.678-36.986v-2.129l-5.123,5.121v2.129
			C66.033,122.998,72.391,136.035,72.391,152.532z"/>
	</g>
	<g>
		<path fill="#EDDAAB" stroke="#030303" stroke-width="3" stroke-linejoin="round" stroke-miterlimit="10" d="M74.879,147.411
			c0,16.496-4.521,62.265-4.521,69.981c0,7.715,2.662,18.891,11.836,18.891c9.172,0,11.838-11.176,11.838-18.891
			c0-7.717-4.527-53.485-4.527-69.981c0-16.499,3.727-29.536,23.682-36.986v-2.129H51.201v2.129
			C71.156,117.875,74.879,130.912,74.879,147.411z"/>
	</g>
	<g>
		<circle fill="#FFFFFF" stroke="#030303" stroke-width="2" stroke-miterlimit="10" cx="82.192" cy="215.557" r="6.96"/>
		<g>
			<path fill="#030303" d="M88.51,215.927c-0.117,2.493-1.215,4.479-3.266,5.9c0.363-0.213,0.729-0.426,1.094-0.638
				c-3.348,1.893-7.264,0.777-9.402-2.313c-2.234-3.225-0.799-7.512,2.207-9.591c-0.365,0.213-0.729,0.425-1.094,0.638
				C82.793,207.241,88.26,210.674,88.51,215.927c-0.01-0.216,1.297-0.505,1.285-0.741c-0.236-4.972-5.426-8.689-10.125-6.199
				c-2.826,1.497-4.918,3.506-5.08,6.94c-0.242,5.11,5.756,8.517,10.125,6.201c2.826-1.497,4.916-3.508,5.08-6.942
				C89.783,215.442,88.523,215.651,88.51,215.927z"/>
		</g>
	</g>
	<g>
		
			<linearGradient id="SVGID_1_" gradientUnits="userSpaceOnUse" x1="-1369.5347" y1="-362.0029" x2="-1363.3013" y2="-362.0029" gradientTransform="matrix(-1 0 0 -1 -1318.332 -264.4355)">
			<stop  offset="0" style="stop-color:#DEE5E8"/>
			<stop  offset="1" style="stop-color:#FFFFFF"/>
		</linearGradient>
		<path fill="url(#SVGID_1_)" stroke="#030303" stroke-width="3" stroke-linejoin="round" stroke-miterlimit="10" d="
			M51.201,108.296c0,0-2.191-18.574-0.156-26.577c-1.713,0-4.197,4.35-4.494,4.824c-3.262,5.19-0.473,26.874-0.473,26.874
			C47.416,111.279,48.408,110.433,51.201,108.296z"/>
	</g>
	<g>
		
			<linearGradient id="SVGID_2_" gradientUnits="userSpaceOnUse" x1="-1431.6851" y1="-359.2197" x2="-1368.5957" y2="-359.2197" gradientTransform="matrix(-1 0 0 -1 -1318.332 -264.4355)">
			<stop  offset="0" style="stop-color:#DEE5E8"/>
			<stop  offset="0.5822" style="stop-color:#E1E7E9"/>
			<stop  offset="0.7916" style="stop-color:#E9EDEF"/>
			<stop  offset="0.9406" style="stop-color:#F7F8F9"/>
			<stop  offset="1" style="stop-color:#FFFFFF"/>
		</linearGradient>
		<path fill="url(#SVGID_2_)" stroke="#030303" stroke-width="3" stroke-miterlimit="10" d="M51.201,108.296h61.984
			c0,0,1.064-27.021-2.197-27.021c-3.264,0-28.795,0-28.795,0s-27.258,0-30.521,0C48.803,81.274,51.201,108.296,51.201,108.296z"/>
	</g>
	<g>
		<path fill="#AD8F6C" stroke="#030303" stroke-width="1.5" stroke-linejoin="bevel" stroke-miterlimit="10" d="M79.342,211.845
			c3.844,0,6.961,3.114,6.961,6.958c0,1.188-0.537,2.046-1.059,3.024c2.191-1.172,3.908-3.217,3.908-5.875
			c0-3.844-3.117-6.959-6.959-6.959c-2.658,0-4.939,1.506-6.113,3.697C77.057,212.167,78.158,211.845,79.342,211.845z"/>
	</g>
	<g>
		<path stroke="#030303" stroke-width="2" stroke-linejoin="round" stroke-miterlimit="10" d="M112.984,101.194
			c-10.773,0-20.549,0-31.322,0c-7.219,0-14.438,0-21.656,0c-2.246,0-4.492,0-6.736,0c-0.732,0-1.672-0.195-2.328,0.178
			c-2.584,1.472-3.785,3.672-5.672,5.929c0.295-0.353,0.393,0.594,0.693,0.235c1.768-2.114,3.533-4.229,5.301-6.342
			c-0.428,0.247-0.857,0.493-1.285,0.741c20.906,0,41.813,0,62.719,0c0.434,0,0.223-0.741,0.645-0.741H112.984z"/>
	</g>
	<g>
		<path fill="#030303" d="M83.049,105.135c-0.018,0.334-0.105,0.605-0.289,0.885c-0.268,0.408-0.674,0.275,0.549-0.205
			c-0.201,0.08-0.424,0.079-0.637,0.068c-0.779-0.042-1.295-0.767-1.334-1.489c-0.018-0.32,0.119-0.623,0.289-0.884
			c0.27-0.408,0.674-0.272-0.549,0.206c0.201-0.079,0.424-0.078,0.637-0.067C82.494,103.69,83.01,104.412,83.049,105.135
			c-0.012-0.214,1.297-0.508,1.285-0.741c-0.064-1.185-1.238-1.817-2.277-1.28c-0.871,0.451-1.943,0.912-2.004,2.021
			c-0.064,1.22,1.324,1.776,2.277,1.283c0.873-0.453,1.943-0.912,2.004-2.024c-0.004,0.063-0.588,0.33-0.646,0.364
			C83.621,104.796,83.053,105.054,83.049,105.135z"/>
	</g>
	<g>
		<path fill="#030303" d="M63.553,105.135c-0.018,0.334-0.105,0.605-0.289,0.885c-0.266,0.408-0.674,0.277,0.553-0.205
			c-0.201,0.08-0.424,0.079-0.637,0.068c-0.781-0.042-1.297-0.766-1.336-1.489c-0.016-0.319,0.117-0.623,0.289-0.884
			c0.268-0.408,0.672-0.271-0.549,0.206c0.201-0.079,0.426-0.078,0.637-0.067C63.002,103.69,63.514,104.413,63.553,105.135
			c-0.002-0.047,0.598-0.336,0.646-0.364c0.055-0.031,0.643-0.312,0.639-0.377c-0.064-1.186-1.234-1.817-2.275-1.28
			c-0.873,0.45-1.943,0.912-2.004,2.021c-0.064,1.219,1.324,1.778,2.277,1.283c0.873-0.453,1.943-0.911,2.002-2.024
			c-0.004,0.063-0.586,0.33-0.646,0.364C64.125,104.796,63.557,105.054,63.553,105.135z"/>
	</g>
	<g>
		<path fill="#030303" d="M105.352,105.135c-0.018,0.334-0.105,0.605-0.287,0.885c-0.27,0.409-0.674,0.274,0.549-0.205
			c-0.203,0.08-0.426,0.079-0.639,0.068c-0.779-0.043-1.293-0.768-1.332-1.489c-0.016-0.319,0.119-0.623,0.289-0.884
			c0.268-0.408,0.676-0.274-0.551,0.206c0.203-0.079,0.424-0.078,0.637-0.067C104.797,103.69,105.314,104.411,105.352,105.135
			c-0.002-0.047,0.598-0.336,0.646-0.364c0.055-0.031,0.643-0.312,0.639-0.377c-0.064-1.184-1.236-1.818-2.277-1.28
			c-0.871,0.452-1.941,0.911-2,2.021c-0.066,1.22,1.32,1.776,2.275,1.283c0.873-0.453,1.943-0.912,2.002-2.024
			c-0.002,0.063-0.586,0.33-0.646,0.364C105.926,104.796,105.357,105.054,105.352,105.135z"/>
	</g>
	<g>
		<path stroke="#030303" stroke-linejoin="round" stroke-miterlimit="10" d="M112.809,86.259c-10.773,0-20.373,0-31.146,0
			c-7.219,0-14.438,0-21.656,0c-2.246,0-4.492,0-6.736,0c-0.732,0-1.672-0.194-2.328,0.178c-2.584,1.472-4.377,4.647-6.264,6.904
			c0.295-0.353,0.984-0.383,1.285-0.741c1.768-2.114,3.533-4.228,5.301-6.341c-0.428,0.247-0.857,0.494-1.285,0.741
			c20.906,0,41.813,0,62.719,0c0.434,0-0.135-0.792,0.287-0.792L112.809,86.259z"/>
	</g>
	<g>
		<g>
			<path fill="#F28E00" stroke="#030303" stroke-width="2.5" stroke-linejoin="round" stroke-miterlimit="10" d="M126.975,195.24
				c4.08-1.739,5.664-22.132,11.492-22.606c5.828-0.477,0.588,9.394,3.648,8.089s-0.236-16.577,6.924-17.218
				c7.164-0.644-14.137,43.706-6.143,40.299c7.992-3.407,9.783-38.84,16.586-40.33c6.799-1.49-3.848,11.484,3.098,10.335
				c6.947-1.152,1.768-16.829,7.645-18.131c5.877-1.299-9.422,26.767,0.025,23.947c9.447-2.82,4.309-29.813,13.047-30.521
				c8.74-0.713,1.127,19.613,5.717,17.656c3.645-1.554,13.043-36.45,14.039-60.707l0.006,0.006
				c1.836,22.66,3.242,26.646,0.016,45.431c-3.225,18.788,3.166,12.694,4.754-2.026c1.588-14.715,4.064-56.777-18.926-98.646
				c-10.691-23.509-20.262-39.727-26.154-37.215c-7.014,2.99,2.764,10.66-3.748,13.436c-6.51,2.775-5.92-6.948-10.928-4.814
				c-5.01,2.136,6.529,14.723,0.018,17.498c-6.514,2.776-7.592-21.37-13.602-18.809c-6.008,2.561,8.84,15.174-0.178,19.018
				s-5.549-12.19-10.557-10.055c-4.66,1.986-3.555,9.506,1.607,22.236l-0.031,0.014c0.406,0.952,0.818,1.912,1.23,2.881l0.027,0.063
				c10.34,24.146,22.93,53.576,12.707,94.215c-3.229,10.944-9.338,24.187-14.012,35.8
				C120.602,196.727,122.896,196.979,126.975,195.24z"/>
		</g>
		<g>
			<path fill="#F28C00" stroke="#030303" stroke-width="3" stroke-linejoin="round" stroke-miterlimit="10" d="M181.559,186.824
				c0.959,2.251,3.566,3.301,5.818,2.342c2.125-0.907,3.154-3.277,2.463-5.434c0.965,0.903,2.406,1.206,3.697,0.655
				c1.75-0.746,2.566-2.771,1.82-4.52c-0.607-1.426-2.059-2.213-3.523-2.062c-0.074-0.424-0.186-0.845-0.361-1.257
				c-0.691-1.623-2.053-2.738-3.617-3.217c0.051-0.427,0.033-0.863-0.145-1.284c-0.551-1.29-2.043-1.888-3.328-1.341
				c-1.279,0.546-1.873,2.02-1.344,3.3c-2.287,1.494-3.248,4.45-2.141,7.049c0.258,0.603,0.623,1.125,1.043,1.585
				C181.15,183.843,180.953,185.402,181.559,186.824z"/>
		</g>
		<g>
			<path fill="#F28C00" stroke="#030303" stroke-width="2" stroke-miterlimit="10" d="M179.039,182.394
				c0.656,1.543-0.063,3.332-1.607,3.99c-1.543,0.658-3.332-0.062-3.99-1.604c-0.66-1.546,0.059-3.334,1.605-3.992
				C176.592,180.128,178.379,180.847,179.039,182.394z"/>
			<g>
				<path stroke="#030303" stroke-width="2" d="M178.611,182.962c0.232,0.638,0.283,1.215,0.162,1.882
					c-0.025,0.142-0.418,0.774-0.09,0.451c-0.314,0.31-0.73,0.485-1.135,0.634c-1.492,0.541-3.031-0.4-3.68-1.719
					c-0.287-0.585-0.277-1.261-0.166-1.885c0.025-0.14,0.42-0.771,0.092-0.45c0.314-0.31,0.73-0.484,1.135-0.633
					C176.424,180.698,177.963,181.644,178.611,182.962c-0.092-0.184,0.953-0.936,0.854-1.137c-1.051-2.141-3.746-2.438-5.258-0.604
					c-1.014,1.229-1.791,2.483-1.193,4.128c0.838,2.304,3.873,2.279,5.258,0.601c1.012-1.229,1.793-2.482,1.193-4.124
					C179.551,182.06,178.52,182.711,178.611,182.962z"/>
			</g>
		</g>
		<g>
			<circle fill="#F28C00" stroke="#030303" stroke-width="2" stroke-miterlimit="10" cx="195.636" cy="168.809" r="4.477"/>
			<g>
				<path stroke="#030303" stroke-width="2" d="M199.326,167.622c0.785,2.159,0.264,4.093-1.967,4.905
					c-2.195,0.798-4.461-0.591-5.416-2.531c-1.018-2.072-0.09-4.153,1.967-4.901C196.105,164.296,198.371,165.681,199.326,167.622
					c-0.092-0.184,0.953-0.936,0.855-1.137c-1.543-3.139-5.508-3.588-7.73-0.896c-1.354,1.643-2.143,3.399-1.363,5.544
					c1.232,3.382,5.691,3.367,7.73,0.896c1.354-1.641,2.143-3.398,1.363-5.544C200.266,166.72,199.234,167.371,199.326,167.622z"/>
			</g>
		</g>
	</g>
	<g>
		<path fill="#F28C00" stroke="#030303" stroke-width="2.5" stroke-linejoin="round" stroke-miterlimit="10" d="M44.949,67.48
			c0-3.397,2.807-4.71,6.564-4.71c3.76,0,5.135-0.721,5.135-2.45c0-7.466,12.844-8.024,17.082-5.237
			c4.244,2.786,7.488,10.141,11.582,10.141c14.219,0,22.332,0.891,24.975,9.919v4.567c0,0,1.809,1.008,2.133,4.957
			c0.518,6.317,0.965,19.783,0.965,24.462c0,4.682,0,26.637,0,30.092c0,3.454-6.113,14.324,1.719,16.023
			c5.908,1.283,2.08-10.108,2.084-15.902c0.004-6.021-0.99-49.179-0.99-54.416s-5.734-15.801-5.734-25.056
			s9.014-13.729,6.227-16.438c-2.785-2.708-20.873,0-35.521,0s-32.227-1.715-34.789-1.715s-5.92,6.488-5.023,9.592
			C43.678,59.36,44.949,67.48,44.949,67.48z"/>
	</g>
	<g>
		<path fill="#030303" d="M173.229,46.251c0,0,8.143,18.595,13.633,36.971c5.492,18.375,6.541,28.571,6.541,28.571
			s-0.393-24.419-5.607-37.154C182.463,61.616,179.434,53.464,173.229,46.251z"/>
	</g>
</g>
</svg>
