<?xml version="1.0" encoding="utf-8"?>
<!-- Generator: Adobe Illustrator 16.0.0, SVG Export Plug-In . SVG Version: 6.00 Build 0)  -->
<!DOCTYPE svg PUBLIC "-//W3C//DTD SVG 1.1//EN" "http://www.w3.org/Graphics/SVG/1.1/DTD/svg11.dtd">
<svg version="1.1" id="Calque_1" xmlns="http://www.w3.org/2000/svg" xmlns:xlink="http://www.w3.org/1999/xlink" x="0px" y="0px"
	 width="250px" height="250px" viewBox="0 0 250 250" enable-background="new 0 0 250 250" xml:space="preserve">
<g id="XMLID_10_">
	<g id="XMLID_11_">
		<g>
			<path fill="#442F20" d="M65.524,77.358c0.146,0.346,0.575,0.408,0.648,0.828c-0.135,0.375-0.32,0.586-0.521,0.684
				c-0.016,0.008-0.035,0.012-0.051,0.02c-0.02,0.008-0.034,0.012-0.05,0.016c-0.004,0.004-0.008,0.004-0.012,0.004
				C64.591,79.163,63.429,77.12,65.524,77.358z"/>
			<path d="M23.788,65.354c1.02,0.281,2.54,0.238,3.521-0.094c0.347-0.119,1.385-0.559,1.76-0.277
				c-0.556,1.766-4.281,1.859-6.949,1.297c-0.166-0.467-0.139-1.316,0.186-1.574C23.063,64.702,23.232,65.2,23.788,65.354z"/>
			<path fill="#009FE3" d="M89.784,81.063c1.776,0.096,2.313-3.031-0.092-2.779C87.9,78.7,88.252,80.974,89.784,81.063z
				 M92.422,78.577c-0.758,1.98-1.506,3.533-1.68,3.678c-0.008,0.004-0.012,0.008-0.016,0.008c-0.038,0.02-0.081,0.035-0.123,0.043
				c-0.561,0.17-1.363,0.066-1.946-0.273c-0.208-0.201-0.382-0.43-0.617-0.598c-0.017-0.055-0.027-0.117-0.039-0.18
				c-0.081-0.479-0.054-1.17,0.046-1.975c0.159-0.693,0.556-2.627,0.958-4.479c0.382-1.406,0.811-2.734,1.169-3.688
				c0-0.004,0-0.008,0.004-0.012c0-0.004,0.005-0.004,0.005-0.008c0.016-0.023,0.03-0.045,0.042-0.068
				c0.004-0.004,0.004-0.004,0.004-0.008c0.286-0.469,0.556-0.896,0.792-1.256c0.957-0.553,2.27-0.336,2.903,0.453
				c0.092,0.109,0.169,0.242,0.231,0.377c0.127,0.721,0.046,1.695-0.162,2.775c-0.008,0.035-0.016,0.074-0.023,0.107
				c-0.479,2.189-1.448,4.568-1.548,5.098V78.577z"/>
			<path fill="#009BA7" d="M65.552,78.905c0.016-0.004,0.03-0.008,0.05-0.016C65.586,78.897,65.567,78.901,65.552,78.905z"/>
			<path fill="#009640" d="M197.252,69.569c0.24,0.664,0.771,2.133,0.494,3.225c-0.424,0.127-0.621,0.494-1.115,0.537
				c-0.004,0.002-0.008,0-0.008,0c-0.012,0-0.02-0.006-0.031-0.014c0,0,0,0,0-0.002c-0.012-0.066-0.063-0.24-0.135-0.494
				c0-0.006,0-0.008-0.004-0.016c-0.008-0.059-0.02-0.109-0.039-0.135c-0.443-1.521-1.563-5.109-1.706-5.43
				c0.158-0.365,0.532-0.5,1.085-0.455c0.034,0.012,0.063,0.023,0.088,0.039c0.004,0.004,0.01,0.004,0.012,0.008
				c0.078,0.092,0.178,0.24,0.287,0.424C196.561,67.917,197.051,69.024,197.252,69.569z"/>
			<path d="M22.298,61.978c1.599,0.238,5.161-0.299,5.93-0.279c-0.617,2.186-4.602,2.104-6.208,1.107
				C22.023,62.442,22.225,62.271,22.298,61.978z"/>
			<path fill="#442F20" d="M65.524,77.358c-2.096-0.238-0.934,1.805,0.016,1.551c-0.506,0.15-1.069,0.119-1.497-0.271
				c-1.804-2.594,3.543-3.258,2.593-0.461c-0.208,0.285-0.57,0.547-0.983,0.693c0.2-0.098,0.386-0.309,0.521-0.684
				C66.1,77.767,65.973,77.403,65.524,77.358z"/>
			<path fill="#442F20" d="M89.715,80.368c0.271,0.479,2.602-0.818,1.043-1.514C89.391,78.319,89.441,79.935,89.715,80.368z
				 M89.784,81.063c-1.532-0.09-1.884-2.363-0.092-2.779C92.098,78.032,91.561,81.159,89.784,81.063z"/>
			<path d="M42.454,52.151c0.652-0.016,0.71,0.139,1.297,0.281c-0.031-0.217-0.112-0.387-0.185-0.555
				c-0.487,0.324-0.699,0.008-1.112-0.186C42.28,51.864,42.442,51.923,42.454,52.151z M46.716,53.54
				c-0.656-0.803-2.02-1.285-2.779-1.014C44.848,52.88,45.519,53.472,46.716,53.54z M62.277,59.378
				c-0.254-0.273-0.902-0.629-1.292-0.463C61.305,59.187,61.684,59.394,62.277,59.378z M58.391,57.802
				c0.119,0.422,0.872,0.318,1.39,0.561C59.529,57.966,59,57.843,58.391,57.802z M57.371,57.339
				c0.042,0.271,0.197,0.426,0.464,0.463C57.792,57.54,57.638,57.386,57.371,57.339z M69.416,59.655
				c-0.301-0.154-0.459-0.008-0.645,0.186c0.294-0.074,0.123,0.309,0.367,0.283c0.019-0.117,0.104-0.063,0.185,0
				C69.4,60.015,69.446,59.872,69.416,59.655z M54.499,56.413c0.293,0.51,1.609,0.887,2.038,0.652
				C55.8,56.907,55.325,56.487,54.499,56.413z M67.563,59.655c-0.124,0.57-0.719-0.107-1.112,0.186
				c-0.32-0.16,0.247-0.678-0.186-0.645c-0.081,0.197,0.027,0.492-0.093,0.83c1.221,0.641,2.486,0.313,3.799,0.652
				c-0.417-0.494-1.42-0.695-1.853-0.463C68.092,59.872,67.807,59.788,67.563,59.655z M63.856,64.663
				c0.306,0.189,0.642,0.348,1.205,0.279c0.073-2.275,0.775-4.723,0.556-7.229c-0.663-0.242-1.617-0.027-2.224,0.088
				C64.054,60.231,63.71,62.466,63.856,64.663z M53.665,55.765c-2.089-0.443-4.429-1.641-6.671-2.406c0,0.121,0,0.248,0,0.367
				c2.204,0.881,4.656,1.818,6.671,2.6C53.738,56.257,53.869,55.804,53.665,55.765z M91.031,85.546
				c-0.401-0.758-4.71-5.146-4.633-5.793c-0.872,0.051-0.803,0.105-1.694,0.289c-5.783,1.211-11.319,0.021-16.029-1.385
				c-0.008,0.564-0.144,0.746-0.161,1.32c-0.6,1.035-2.197,1.68-3.73,1.734c-0.803,0.025-1.417-0.395-2.038-0.557
				c-1,3.965-2.529,16.986-2.532,18.284c-0.008,1.483-1.603,40.319-1.61,44.146c0,1.017-0.146,2.651-0.193,3.664
				c-0.192,4.297,0.267,7.512,0.387,11.713c5.149,1.545,9.068,0.438,14.284-0.265c0.744-0.092,0.822-0.717,1.097-1.405
				c0.4-2.054-1.039-33.981,1.991-35.976c0.316-1.1,2.189,0.123,2.791,0.51c3.193,0.974,2.811,31.974,2.873,36.037
				c0.977,0.384,1.725,3.685,14.93,1.933c2.021-0.271,0.93-0.336,1.285-2.961L91.031,85.546z M66.822,72.909
				c-0.074-2.834-0.672-5.166-1.205-7.041c-0.834-0.502-2.587-0.488-3.428,0c-0.317,2.309-0.325,4.4-0.186,6.389
				c0.062,0.877,0.273,2.154,0.464,3.34c0.199,1.254,0.238,2.732,0.741,3.701c0.25,0.494,0.821,0.779,1.467,0.889
				c0.192,0.063,0.389,0.107,0.586,0.129c0.012,0.002,0.027,0.008,0.039,0.008c0.525,0.113,1.042,0.164,1.471-0.416
				c0.371-0.184,0.634-0.453,0.699-0.793C67.807,77.368,66.876,75.026,66.822,72.909z M89.005,74.802
				c-0.421,1.539-0.791,3.164-0.958,4.479c-0.15,0.641-0.2,1.295-0.046,1.975c0.012,0.063,0.022,0.125,0.039,0.18
				c0.131,0.246,0.351,0.447,0.617,0.598c0.367,0.355,0.838,0.617,1.946,0.273c0.042-0.008,0.085-0.023,0.123-0.043
				c0.004,0,0.008-0.004,0.016-0.008c0.332-0.16,0.903-1.148,1.189-1.846c0.239-0.586,0.37-1.227,0.49-1.832v-0.004
				c0.605-1.59,1.219-3.461,1.548-5.098c0.008-0.033,0.016-0.072,0.023-0.107c0.228-1.055,0.328-2.055,0.162-2.775
				c-0.063-0.135-0.14-0.268-0.231-0.377l0.687-0.098c0.15,0.178,0.348,0.367,0.541,0.625c0.926,1.254-1.174,8.891-2.413,10.717
				c-0.437,0.645,1.482,6.449,1.602,6.918c0.255,1,3.104,19.582,3.43,22.52c0.305,2.791,2.972,34.521,2.871,39.563
				c-0.023,1.229,0.387,8.625-1.482,10.009c-2.062,1.516-5.273,2.348-8.71,2.313c-4.663-0.047-8.061-1.752-10.933-3.799
				c-1.062-8.709-0.22-33.353-1.02-35.668c-0.405-0.688-0.764-0.353-0.926-0.098c-0.426,3.86-0.646,19.53-0.927,23.071
				c-0.344,4.326-0.167,8.342-1.02,12.418c-2.273,1.379-5.046,2.924-8.153,3.707c-2.8,0.698-6.162,0.746-8.617-0.647
				c-0.614-0.349-1.765-1.063-1.946-1.672c-0.127-0.429,0.274-26.9,0.278-30.017c0.004-2.933,1.097-36.201,2.575-43.344
				c1.49-2.918,1.447-17.662,1.595-21.143c0.409-0.461,1.146-0.584,1.854-0.742c-0.112-0.723-0.031-1.656-0.186-2.502
				c-0.128-0.695-0.193-1.68-0.464-2.131c-0.355-0.602-2.2-1.051-3.335-1.486c-3.468-1.328-7.197-2.494-10.471-3.893
				c-2.467-1.049-4.922-1.867-7.315-2.895l0.104-0.242c0.081,0.035,0.166,0.061,0.263,0.084c0.008-0.297,0.046-0.568,0.186-0.742
				c0.046,0.109,0.1,0.209,0.185,0.277c0.012-0.389-0.259-0.598-0.637-0.74l0.065-0.162c5.934,2.434,16.817,6.629,20.492,7.57
				c0.49-0.002,0.143-0.494,0.648-0.834c0.846-0.822,2.586-0.521,3.613,0c0.221,0.418,0.375,0.861,0.386,1.363
				c2.042,0.316,4.047,0.664,6.023,1.031l-0.108,0.576c-0.012,0.203-0.394,0.033-0.557,0.092c0.063,0.412-0.154,0.213-0.37,0.186
				c0.054,0.4,0.514,0.135,0.648,0.277l0.186,0.186c-0.027,0.244,0.192,0.238,0.371,0.277l-0.055,0.379
				c-2.208-0.32-4.447-0.621-6.71-0.938c-0.127,0.266-0.208,0.59-0.258,0.945c-0.012,0.051-0.016,0.104-0.023,0.158
				c0,0.004,0,0.008,0,0.012c-0.008,0.055-0.012,0.111-0.02,0.17c-0.065,0.652-0.062,1.371-0.108,1.992
				c-0.022,0.348-0.065,0.668-0.146,0.918c0.004,0.016,0.008,0.023,0.012,0.027v0.004c-0.004,0.016-0.008,0.027-0.012,0.039
				c0.085,0.281,0.49,0.246,0.464,0.648c0.907,2.641,1.267,5.838,1.76,8.891c2.903,1.24,7.254,1.703,10.39,1.889
				c-3.796,0.154-7.247-0.221-10.251-1.453c-0.011,0.086-0.02,0.174-0.02,0.26c-0.038-0.008-0.08-0.027-0.119-0.047
				c-0.093,0.605,0.043,1.742,0.093,2.502c6.196,1.543,12.802,2.219,19.457,0.746c-0.019-0.156-0.019-0.307-0.004-0.449h0.004
				c0.132-0.617,0.379-0.826,0.348-1.488c0.008-0.035,0.016-0.066,0.023-0.102c-0.012,0-0.02,0-0.031,0
				c-0.004-0.039-0.008-0.082-0.011-0.129c-1.456,0.096-6.05,0.23-8.182,0.148h-0.004c-0.007-0.012-0.011-0.016-0.019-0.02
				c2.556-0.055,6.003-0.137,8.524-0.648c0.026-0.109,0.058-0.221,0.092-0.344c0.286-0.908,0.873-2.088,1.502-3.205
				C89.449,72.798,89.225,73.784,89.005,74.802z"/>
			<path fill="#8E6008" d="M22.02,62.806c1.606,0.996,5.591,1.078,6.208-1.107c-0.769-0.02-4.331,0.518-5.93,0.279
				C22.225,62.271,22.023,62.442,22.02,62.806z M22.306,64.706c-0.324,0.258-0.352,1.107-0.186,1.574
				c2.668,0.563,6.394,0.469,6.949-1.297c-0.375-0.281-1.413,0.158-1.76,0.277c-0.981,0.332-2.502,0.375-3.521,0.094
				C23.232,65.2,23.063,64.702,22.306,64.706z M33.13,73.161c0.345,16.01,0.927,37.731,1.418,54.933
				c0.439,15.438,0.807,27.229,0.86,27.973c-0.038,0.379,3.911,15.535-10.424,8.977c-0.058-5.527-1.501-10.52-1.609-15.848
				c0-0.004,0-0.012,0-0.016c-0.008-0.222-0.008-0.439-0.008-0.664c0.221-0.013,0.433-0.009,0.637,0.008
				c0.231,0.012,0.46,0.035,0.688,0.059c0.03,0,0.058,0.012,0.084,0.016c1.353,0.185,2.306,0.621,3.201,0.369
				c0.718-0.191,4.39-1.35,3.451-3.137v-0.006c-0.926-0.266-0.953,0.383-1.289,0.688c-0.089,0.059-0.181,0.107-0.286,0.15
				c-2.115,0.375-3.995,0.588-6.207,0.275c0,0,0-0.004-0.004-0.004c-0.035-0.07-0.093-0.91-0.158-2.379
				c0.111,0.09,0.234,0.174,0.366,0.248c1.387,3.735,4.807,0.038,4.313,0.284c0.004-0.289,0.221-0.603,0-0.838
				c-0.182,0.063-0.363,0.11-0.545,0.14c-0.015-0.045-0.038-0.093-0.081-0.14c-0.305,0.104-0.605,0.17-0.903,0.192
				c-1.077-0.082-2.05-0.571-2.733-1.022c-0.096,0.047-0.149,0.146-0.185,0.265c-0.097-0.054-0.186-0.103-0.274-0.16
				c-0.706-16.724-2.629-89.275-2.316-92.372c4.038,0.711,7.443,0.664,11.195-0.291c0.074,0.023,0.487,0.102,0.58,0.102
				c-0.167,0.582-0.055,9.064,0.204,20.982v0.004c0,0.004,0,0.012,0,0.016c-0.004,0.131-0.008,0.254-0.008,0.391
				c-0.004,0.252,0.008,0.518,0.03,0.779C33.126,73.142,33.126,73.149,33.13,73.161z"/>
			<path d="M226.92,88.536c-0.061,0.402,0.456,2.135-2.316,2.127c-1.744-0.01-3.164-0.352-3.242-2.033
				c0.476-0.447,3.568,0.559,4.355,0.645C226.188,89.097,226.249,88.515,226.92,88.536z"/>
			<path fill="#E0E053" d="M145.207,88.476c0.626,2.619-0.195,5.725-1.574,7.229c-0.873,0.939-2.234,1.215-3.613,0.551
				c-2.336-1.113-2.166-4.125-2.225-7.039C140.158,88.333,142.227,88.372,145.207,88.476z"/>
			<path fill="#009FE3" d="M66.636,78.177c0.95-2.797-4.396-2.133-2.593,0.461c0.428,0.391,0.991,0.422,1.497,0.271
				c0.004,0,0.008,0,0.012-0.004c0.016-0.004,0.034-0.008,0.05-0.016c0.016-0.008,0.035-0.012,0.051-0.02
				C66.065,78.724,66.428,78.462,66.636,78.177z M62.482,66.774c0.741-0.443,2.293-0.467,3.03,0c0.472,1.734,1,3.893,1.066,6.51
				c0.05,1.953,0.729,3.922,0.575,5.729c-0.035,0.391-0.174,0.684-0.383,0.895c-0.354,0.357-0.906,0.473-1.471,0.416
				c-0.012,0-0.027-0.006-0.039-0.008c-0.197-0.049-0.394-0.098-0.586-0.129c-0.568-0.189-1.074-0.547-1.294-1
				c-0.444-0.896-0.479-2.262-0.656-3.424c-0.166-1.094-0.355-2.273-0.409-3.086C62.193,70.841,62.201,68.913,62.482,66.774z"/>
			<path fill="#004A99" d="M87.145,98.267c0.208,3.307-0.796,6.738-2.502,9.26c-5.652,8.344-13.478,1.703-14.084,1.117
				c-0.405-0.398-1.374-1.916-1.668-2.506c-1.455-2.945-2.436-7.255-1.945-10.836c1.482-0.086,15.778-1.375,19.272-1.113
				c0.062,0,0.124,0,0.185,0C86.808,94.636,87.09,97.382,87.145,98.267z"/>
			<path fill="#009FE3" d="M86.398,79.753c-0.077,0.646,4.231,5.035,4.633,5.793l7.016,71.289c-0.355,2.625,0.736,2.688-1.285,2.961
				c-13.205,1.752-13.953-1.549-14.93-1.933c-0.063-4.063,0.32-35.063-2.873-36.036c-0.602-0.388-2.475-1.609-2.791-0.511
				c-3.03,1.992-1.591,33.922-1.991,35.976c-0.274,0.688-0.353,1.313-1.097,1.405c-5.216,0.701-9.135,1.81-14.284,0.265
				c-0.12-4.2-0.579-7.416-0.387-11.713c0.047-1.013,0.193-2.647,0.193-3.664c0.008-3.826,1.603-42.662,1.61-44.146
				c0.003-1.297,1.532-14.318,2.532-18.284c0.621,0.162,1.235,0.582,2.038,0.557c1.533-0.055,3.131-0.699,3.73-1.734
				c0.018-0.574,0.153-0.756,0.161-1.32c4.71,1.406,10.246,2.596,16.029,1.385C85.596,79.858,85.526,79.804,86.398,79.753z
				 M84.643,107.525c1.706-2.521,2.71-5.953,2.502-9.259c-0.055-0.885-0.337-3.631-0.742-4.078c-0.061,0-0.123,0-0.185,0
				c-3.494-0.262-17.79,1.027-19.272,1.113c-0.49,3.582,0.49,7.891,1.945,10.836c0.294,0.59,1.263,2.107,1.668,2.506
				C71.165,109.229,78.99,115.87,84.643,107.525z"/>
			<path fill="#8E6008" d="M224.604,90.663c2.772,0.008,2.256-1.725,2.316-2.127c-0.671-0.021-0.732,0.561-1.203,0.738
				c-0.787-0.086-3.881-1.092-4.355-0.645C221.439,90.312,222.859,90.653,224.604,90.663z M228.92,55.69
				c-0.768,3.137-0.029,6.764-0.127,10.424c-0.063,2.256-0.238,9.561-0.259,9.779c-0.22,2.637-0.054,5.857-0.386,8.621
				c-0.256,2.139-0.861,18.236-1.375,33.486c-0.404,12.176-0.752,23.809-0.814,27.383c-0.007,0.561,0.533,10.123,0.387,14.281
				c-0.039,1.092,0.328,5.713,0.518,6.953c0.062,0.166-0.02,0.377-0.166,0.602c0,0.004-0.004,0.004-0.004,0.008
				c-0.02,0.023-0.043,0.053-0.063,0.08c-0.021,0.035-0.047,0.066-0.064,0.098c-0.186,0.224-0.418,0.439-0.613,0.605
				c-2.316,1.945-6.787,0.973-7.816-1.479c-0.685-1.625,0.59-3.563,0.361-5.578c4.261-0.443,5.041-2.424,4.076-3.451
				c-0.069,0.031-0.139,0.061-0.208,0.096c-1.166,0.58-2.575,1.865-4.521,1.6c-0.018-0.541-0.205-1.649-0.052-2.045
				c0.341,0.07,0.694,0.113,1.054,0.125c1.32,0.162,2.707,0.091,3.656-0.42c0.363-0.188,0.854-0.811,0.898-1.328
				c0.009-0.059,0.009-0.106,0.005-0.163c-0.448-0.111-0.83,0.467-1.39,0.563c-0.039,0.006-0.074,0.006-0.115,0.01
				c-1.209,0.133-3.729-0.586-4.274-0.648c-0.062-5.355,0.062-10.594,0.224-15.697c0.108-3.424,0.112-6.471,0.09-9.773
				c0-0.065,0-0.137,0-0.204c0-0.027,0-0.048,0-0.074c0-2.795,1.088-16.849,1.199-19.16c0.09-1.909-0.015-7.887,0-8.879
				c0.035-2.33,0.519-27.105,0.514-28.438c-0.012-4.791-0.207-16.121,0.129-17.373c0.216,0.186,1.561,0.236,3.158,0.217
				c0.004,0,0.004,0,0.007,0c0.125,0.023,0.247,0.035,0.366,0.047c0.086,0.004,0.174-0.021,0.268-0.055
				c0.676-0.012,1.374-0.035,2.034-0.059c0.008,0,0.021,0,0.026,0c0.949,0.031,2,0.051,2.49-0.076
				c0.047-0.008,0.094-0.023,0.135-0.043h0.004C228.662,55.698,228.904,55.69,228.92,55.69z"/>
			<path d="M195.221,64.593c-0.088-0.961-0.357-1.744-0.629-2.527c-0.645-0.023-1.143,0.092-1.574,0.281
				c0.043,0.166,0.088,0.324,0.14,0.49c-0.048,0.008-0.093,0.027-0.14,0.037c0.207,0.607,0.443,1.201,0.701,1.773
				c0.158,0.477,0.325,0.943,0.504,1.406c0.442,0.01,0.775-0.094,1.019-0.279c0.008-0.143,0.012-0.281,0.012-0.412
				c0.004-0.055,0.004-0.104,0.004-0.156c0-0.052-0.004-0.107-0.004-0.156c-0.004-0.139-0.012-0.279-0.026-0.41
				C195.225,64.628,195.225,64.612,195.221,64.593z M191.627,68.644c-0.973,0.482-0.648,2.895-0.277,3.711
				c0.551,1.207,1.017,2.807,2.408,1.939c-0.216-0.848-0.869-1.238-1.205-2.037c-0.455-1.064-0.281-2.541-0.648-3.52
				C191.785,68.737,191.777,68.62,191.627,68.644z M195.891,73.743c-0.781-2.32-0.832-4.795-2.225-6.486
				c-1.518,0.438-1.085,1.221-0.834,2.961c0.063,0.426-0.008,0.975,0.092,1.301c0.344,1.109,1.479,2.322,2.039,2.408
				C195.395,73.997,195.604,73.897,195.891,73.743z M196.537,62.718c-0.23,0.078-0.497,0.119-0.834,0.088c0,0.129,0,0.252,0,0.375
				C196.059,63.099,196.529,63.14,196.537,62.718z M197.928,72.909c0.316-1.135-0.285-2.656-0.556-3.34
				c-0.298-0.744-0.374-1.619-0.741-2.037c-0.115-0.133-0.29-0.197-0.451-0.275c-0.074-0.119-0.102-0.32-0.287-0.424
				c-0.002-0.004-0.008-0.004-0.012-0.008c-0.008-0.012-0.016-0.02-0.023-0.027c-0.021-0.004-0.045-0.004-0.063-0.012
				c0-0.021,0-0.055,0.004-0.088c-0.659-0.07-1.108,0.068-1.298,0.467c0.2,0.412,0.63,0.895,0.371,1.479
				c0.936,0.918,0.74,2.969,1.544,4.027c0.017,0.045,0.026,0.092,0.039,0.135c0.004,0.008,0.004,0.01,0.004,0.016
				c0.021,0.123,0.026,0.277,0.08,0.322c0,0.098,0.026,0.152,0.056,0.172c0,0.002,0,0.002,0,0.002
				c0.004,0.014,0.004,0.016,0.004,0.021c0.008,0,0.02,0,0.026-0.008c0,0,0.004,0.002,0.008,0c0,0.045,0,0.092,0,0.129
				C197.221,73.438,197.438,73.032,197.928,72.909z M196.631,62.806c1.049-0.119,1.949-0.393,2.501-1.014
				C198.09,61.987,197.348,62.157,196.631,62.806z M198.854,72.538c1.506-0.822,0.938-3.992,0-5.096
				c-0.528-0.625-1.319-1.035-2.131-0.926c-0.063,0-0.123,0-0.187,0C197.9,68.085,198.477,70.167,198.854,72.538z M180.509,68.921
				c0.097,1.826-0.171,3.363-0.093,4.912c0.598,0.158,1.035,0.143,1.668,0.094c0.502-1.639-0.016-3.258-0.279-5.006
				C181.543,68.778,180.771,68.778,180.509,68.921z M182.641,65.683c0.019-0.295,0.605-0.016,0.555-0.375
				C182.998,65.003,182.238,65.388,182.641,65.683z M190.7,64.292c0.622,0.15,1.472,0.055,1.853-0.463
				c-0.021-0.131-0.203-0.104-0.277-0.186C192.113,64.397,190.943,63.767,190.7,64.292z M171.707,67.72
				c-0.047,0.332,0.859,0.24,0.834,0C172.277,67.577,171.907,67.712,171.707,67.72z M184.307,73.927
				c1.027-0.254,1.205-3.193,0.279-3.709C184.539,71.356,184.539,72.489,184.307,73.927z M160.495,67.813
				c-0.39-0.533-1.694-0.027-2.409,0C158.959,67.964,159.604,67.929,160.495,67.813z M176.736,74.056l-0.582-4.668
				c-2.271,1.26-0.857,3.943-0.834,4.727C175.85,74.388,176.246,74.151,176.736,74.056z M174.208,67.257
				c0.224,0.576,1.181,0.197,1.853,0.186C175.857,66.714,174.787,67.257,174.208,67.257z M186.809,65.22
				c0.672-0.117,2.43-0.09,2.131-0.557C188.338,64.952,187.164,64.675,186.809,65.22z M176.896,69.106
				c-1.217,1.672,0.1,3.281,1.019,4.354c-0.276-1.658,0.131-2.48,0.187-4.441C177.598,68.948,177.381,69.165,176.896,69.106z
				 M164.85,67.532c-0.22,0.002-0.272-0.158-0.556-0.09C164.32,67.747,164.766,67.751,164.85,67.532z M163.83,68.272
				c-0.764,0.043-2.195-0.004-2.871,0.371C161.835,68.644,163.117,68.794,163.83,68.272z M190.422,69.569
				c-2.455,0.814-0.922,4.926,1.113,5.467c0.281-0.555-0.422-0.852-0.557-1.293C190.52,72.419,190.215,70.862,190.422,69.569z
				 M189.402,64.755c0.166-0.088,0.928-0.053,0.557-0.373C189.887,64.62,189.361,64.405,189.402,64.755z M182.547,69.019
				c0.426,1.672,0.617,3.666,0.371,5.096c0.799,0.059,1-1.525,1.111-2.596c0.063-0.604-0.039-1.184-0.092-1.67
				C183.527,69.521,183.322,68.983,182.547,69.019z M179.768,64.478c-0.293,1.088,0.231,2.07,0,3.15
				c0.463,0.186,1.051,0.225,1.668,0.092c0.146-1.211,0.476-2.242,0.557-3.52C181.13,64.288,180.594,64.126,179.768,64.478z
				 M164.197,67.442c-1.393,0.09-2.617-0.068-3.609,0.371C161.457,67.556,163.363,68.095,164.197,67.442z M178.654,66.237
				c-0.104,0.947-1.883,0.213-2.129,1.02c0.803-0.154,1.729-0.184,2.686-0.277c0.02-0.301-0.162-0.393-0.092-0.742
				C178.833,66.304,178.941,66.304,178.654,66.237z M178.934,67.442c-0.281,0.023-0.722-0.104-0.742,0.186
				C178.314,67.72,178.91,67.728,178.934,67.442z M178.471,72.538c0.057,0.455,0.258,1.344,0.926,1.295
				c0.398-1.479,0.476-3.473,0.558-5c-0.468-0.064-0.519,0.285-1.021,0.186C178.566,69.894,178.322,71.423,178.471,72.538z
				 M148.357,68.272c0.008-0.285-0.281-0.277-0.557-0.277c-0.008,0.309-0.707,0.398-0.835,0.277
				c-0.038-0.254,0.349-0.08,0.371-0.277c-0.424,0.055-0.896-0.008-1.28-0.008l-0.005-0.34c12.404-0.146,30.226-1.197,33.066-1.873
				c0.319-0.764-0.274-1.793,0-2.502c0.795-0.223,2.598-0.27,3.521,0.094c0.34,0.436-0.205,1.084,0,1.389
				c3.512,0.205,6.504-0.91,9.449-1.574c0.232-0.324-0.054-1.166,0.279-1.389c0.972-0.051,1.902-0.135,2.686-0.375
				c0.537-0.039,0.082,0.91,0.465,1.023c1.871-0.631,3.752-1.33,5.639-2.051l0.105,0.289c-0.406,0.676-1.783,0.379-1.945,1.299
				c0.826-0.477,1.832-0.508,2.871-0.836l0.066,0.193c-2.15,0.738-4.324,1.463-6.459,2.309c-0.098,0.594,0.088,1.443,0.186,2.131
				c5.722-0.574,4.062,5.648,4.447,7.783c0.092,0.518,0.227,1.02,0.395,1.514l-0.336,0.111c-0.188-0.656-0.688-1.27-0.801-2
				c-0.004-0.053-0.016-0.107-0.092-0.088c-0.498,0.27-0.881,0.738-1.391,1.02c-0.961,0.523-2.115,0.904-3.242,1.205
				c-1.154,0.309-2.371,0.475-3.613,0.828c0.539,1.676,2.004,3.924,2.038,6.213c0.022,1.549-0.493,3.162-1.019,4.262
				c-1.283,1.008-2.742,1.846-4.035,2.846l-0.277-0.379c0.834-0.609,1.641-1.195,2.365-1.91c0.273-0.268,0.695-0.484,0.928-0.74
				c1.327-1.473,1.416-3.039,1.021-5.375c-0.194-1.135-0.589-2.467-0.929-3.34c-0.965-2.463-4.961-5.559-2.502-8.154
				c1.17-1.227,3.078-2.262,4.541-3.332c-0.271-0.625-0.455-1.334-0.928-1.76c-3.142,1.02-6.933,1.141-10.191,1.854
				c-0.135,0.377-0.412,1.035-0.186,1.482c1.434,0.59,3.398,1.107,3.893,2.594c0.023,0.078,0.047,0.154,0.064,0.232
				c0.113,0.51,0.09,1.127,0,1.746c-0.004,0.002-0.004,0.002-0.004,0.006c-0.216,0.889-0.697,1.715-1.08,2.557
				c-0.059,0.367,0.247,0.371,0.186,0.736c-0.248,1.482-0.391,2.953-0.301,4.355l-0.422,0.031c-0.084-1.178-0.072-2.383,0.078-3.475
				c-1.486-1.838-6.259-1.719-8.714-0.813c-0.013,0.137-0.026,0.271-0.038,0.402c-0.023,0.012-0.043,0.02-0.066,0.027
				c-0.238,2.439-0.106,5.32-1.412,7.057c-1.594,1.148-4.383,1.482-6.072,2.73c0,0,0,0.004-0.004,0.004
				c-0.008,0.004-0.012,0.01-0.02,0.01c-0.371,0.199-0.711,0.434-1.008,0.693c-1.572,1.393-1.529,3.934,0,5.693
				c2.385,0.969,5.262,1.518,8.62,1.264c0.224-0.021,0.519-0.057,0.86-0.098l0.051,0.391c-2.752,0.354-6.174,0.518-8.51-0.293
				c-1.783-0.617-4.965-2.205-4.262-5.102c0.413-1.701,2.186-3.061,3.799-3.701c2.459-0.973,5.578-0.75,6.485-3.525
				c0.328-1.008,0.166-2.17,0.277-3.15c0.124-1.078,0.387-2.035,0.278-3.053c-0.146-1.398-1.553-2.287-1.576-3.711
				c-0.033-2.178,1.992-2.861,3.707-3.703c-7.022,0.85-14.471,1.299-22.145,1.482c-2.498,0.063-5.05-0.254-7.598-0.281
				c-0.869-0.008-1.733,0.059-2.604,0.09l-0.003-0.213c1.154-0.035,2.4-0.275,3.531-0.244c2.711,0.074,5.54,0.549,8.062,0.184
				c0.104-0.414-0.285-0.328-0.463-0.465c-0.127,0.43-0.744,0.387-1.021,0.186c-0.188,0.213-1.058,0.221-1.574-0.088
				c0.119-0.129,0.119-0.344,0-0.463c-1.791-0.018-2.765,0.15-4.54,0.088C148.423,67.972,148.531,68.265,148.357,68.272z"/>
			<path fill="#C0D23E" d="M121.882,76.083c-1.034,3.447,5.583,9.021,13.058,8.818c3.479-0.098,7.797-0.328,10.006-3.299
				c0.101-0.137,0.197-0.266,0.293-0.385c0.797-0.715,1.46-1.465,2.085-2.215c0.004-0.006,0.008-0.008,0.012-0.014
				c0.622-0.57,1.252-1.131,1.933-1.816c1.407,0.186,7.168,2.84,9.487,3.484c-1.594,4.707-2.83,7.371-4.987,11.512
				c-1.756-0.498-6.969-3.678-6.949-2.186c0.016,0.156,0.031,0.318,0.043,0.477c0.811,9.313-0.482,18.863-1.135,27.896
				c-6.563,5.791-26.431-0.326-27.604-1.287c0.016-0.115,0.039-0.238,0.059-0.381c0.811-5.135,4.74-26.025,3.289-27.603
				c-0.285-0.168-1.031-0.225-1.941-0.238c-1.753-0.008-4.116,0.195-4.973,0.291c-0.676-0.801-2.779-8.041-2.818-11.072
				C115.678,78.435,121.453,75.96,121.882,76.083z M143.633,95.704c1.379-1.504,2.2-4.609,1.574-7.229
				c-2.98-0.104-5.049-0.143-7.412,0.74c0.059,2.914-0.111,5.926,2.225,7.039C141.396,96.919,142.76,96.644,143.633,95.704z"/>
			<path d="M231.098,52.337c-0.254-0.221-0.158-0.58-0.092-0.924C231.398,51.427,231.129,52.151,231.098,52.337z"/>
			<path d="M230.912,52.526c0.518,0.689-0.352,2.037-1.204,1.662C229.998,53.524,230.611,53.183,230.912,52.526z"/>
			<path d="M229.801,52.614c0.12-0.123,0.455-0.039,0.463-0.277c0.363,0.219-0.054,0.584-0.371,0.652
				C229.904,52.823,229.781,52.792,229.801,52.614z"/>
			<path d="M229.061,35.106c0.107-2.32,0.088-4.564-0.371-6.49l0.642-0.289c1.192,2.549,1.433,5.564,1.306,9.188
				c-0.044,1.229-0.464,6.557-0.414,9.197h-0.761c0-1.158-0.366-2.436-0.494-3.545C229.661,40.89,228.932,37.874,229.061,35.106z"/>
			<path d="M229.615,54.282c-0.17,0.379-0.83,0.684-1.205,0.555C228.592,54.216,228.982,54.181,229.615,54.282z"/>
			<path d="M228.133,54.935c-0.242,0.027-0.396-0.035-0.371-0.283C227.891,54.519,228.203,54.61,228.133,54.935z"/>
			<path d="M227.206,54.651c0.247,0.109,0.008,0.496-0.278,0.375C226.848,54.726,227.168,54.829,227.206,54.651z"/>
			<path d="M227.113,119.421c-0.229-0.463-0.27-0.94-0.25-1.412c0.025-0.514,0.131-1.016,0.158-1.459
				c0.258-4.383,0.178-8.838,0.369-13.342c0.102-2.418,0.414-4.93,0.648-7.418c0.361-3.836,0.374-8.021,0.833-11.855
				c0.333-2.771-0.034-5.613,0.187-8.25c0.02-0.215,0.252-0.432,0.278-0.648c0.106-0.887-0.31-1.861,0.185-2.682
				c-0.5-1.885-0.15-4.418-0.092-6.672c0.092-3.57-0.285-7.254,0.418-10.352l0.693,0.156c-0.234,0.914-0.072,2.277,0,3.34
				c0.089,1.33,0.063,5.836,0.093,6.855c0.179,5.502-1.766,36.13-1.946,40.395c-0.164,3.887-0.775,7.739-0.832,11.397
				c-0.133,8.058-0.209,15.814-0.094,23.072c0.051,3.082-0.005,6.119-0.055,9.162l-0.354-0.002c0.015-0.959,0.025-1.906,0.037-2.859
				c0.01-0.549-0.191-1.109-0.186-1.674C227.346,137.126,226.852,128.303,227.113,119.421z"/>
			<path d="M226.773,118.001c0.514-15.25,1.119-31.348,1.375-33.486c0.332-2.764,0.166-5.984,0.386-8.621
				c0.021-0.219,0.196-7.523,0.259-9.779c0.098-3.66-0.641-7.287,0.127-10.424c-0.016,0-0.258,0.008-0.648,0.031
				c0.51-0.188,0.896-0.648,1.438-0.695c0.072,0.02,0.094,0.09,0.186,0.09c-0.02,0.072-0.035,0.146-0.045,0.215
				c-0.703,3.098-0.326,6.781-0.418,10.352c-0.06,2.254-0.408,4.787,0.092,6.672c-0.494,0.82-0.076,1.795-0.185,2.682
				c-0.026,0.217-0.26,0.434-0.278,0.648c-0.221,2.637,0.146,5.479-0.187,8.25c-0.459,3.834-0.472,8.02-0.833,11.855
				c-0.234,2.488-0.548,5-0.648,7.418c-0.191,4.504-0.111,8.959-0.369,13.342c-0.027,0.443-0.133,0.945-0.158,1.459L226.773,118.001
				z"/>
			<path d="M226.346,159.665c0.146-4.158-0.394-13.722-0.387-14.281c0.063-3.573,0.41-15.206,0.814-27.383l0.09,0.008
				c-0.02,0.472,0.021,0.949,0.25,1.412c-0.264,8.882,0.232,17.705,0.093,25.754c-0.007,0.563,0.194,1.125,0.185,1.675
				c-0.011,0.953-0.021,1.899-0.037,2.858c-0.051,3.224-0.127,6.438-0.24,9.647c-0.037,1.084,0.314,2.304,0.277,3.424
				c-0.033,1.197-0.188,2.566,0,3.804c0.147,0.392-0.305,0.219-0.463,0.369c-0.08,0.073-0.152,0.166-0.23,0.269
				c0.146-0.226,0.228-0.437,0.166-0.603C226.674,165.378,226.307,160.757,226.346,159.665z"/>
			<path d="M231.006,51.413c-0.066,0.344-0.162,0.703,0.092,0.924C231.129,52.151,231.398,51.427,231.006,51.413z M230.264,52.337
				c-0.008,0.238-0.343,0.154-0.463,0.277c-0.02,0.178,0.104,0.209,0.092,0.375C230.21,52.921,230.627,52.556,230.264,52.337z
				 M229.708,54.188c0.853,0.375,1.722-0.973,1.204-1.662C230.611,53.183,229.998,53.524,229.708,54.188z M228.41,54.837
				c0.375,0.129,1.035-0.176,1.205-0.555C228.982,54.181,228.592,54.216,228.41,54.837z M227.762,54.651
				c-0.025,0.248,0.129,0.311,0.371,0.283C228.203,54.61,227.891,54.519,227.762,54.651z M226.928,55.026
				c0.286,0.121,0.525-0.266,0.278-0.375C227.168,54.829,226.848,54.726,226.928,55.026z M224.432,54.935c0.153,0,0.305,0,0.459,0
				c-0.244-0.324-0.316-0.529,0-0.834c-0.231-0.076-0.363-0.254-0.648-0.277l-0.012-0.352c2.072-0.051,4.088-0.459,5.479-1.594
				c-0.18-1.213-0.186-2.596-0.557-3.617c0.229-0.477,0.31-0.996,0.31-1.549h0.761c0.012,0.652,0.055,1.141,0.135,1.363
				c0.183,0.49,0.793,0.314,1.221,0.668c1.591,1.291,1.217,4.234,0.285,5.836c-0.315,0.398-1.02,0.172-1.204,0.574
				c-0.046,0.105-0.085,0.213-0.115,0.334l-0.694-0.156c0.012-0.068,0.026-0.143,0.045-0.215c-0.092,0-0.11-0.07-0.185-0.09
				c-0.54,0.047-0.927,0.508-1.437,0.695h-0.004c-0.603,0.035-1.563,0.076-2.625,0.119c-0.008,0-0.021,0-0.027,0
				c-0.439-0.018-0.855-0.045-1.186-0.057V54.935L224.432,54.935z"/>
			<path d="M224.891,54.935c-0.154,0-0.306,0-0.459,0h-0.004c0.115-0.529-0.515-0.668-0.187-1.111
				c0.286,0.023,0.417,0.201,0.649,0.277C224.572,54.405,224.646,54.61,224.891,54.935z"/>
			<path fill="#59404B" d="M223.581,55.899c0.153-0.059,0.315-0.139,0.476-0.135c0.104,0.004,0.23,0.012,0.375,0.02
				c0.327,0.012,0.744,0.039,1.184,0.057C224.955,55.864,224.257,55.888,223.581,55.899z"/>
			<path d="M223.406,54.837c-0.072-0.318,0.105-0.385,0.188-0.555C223.891,54.302,223.781,54.942,223.406,54.837z"/>
			<path d="M221.184,54.009c0.246,0.033,0.434,0.494,0,0.461C221.172,54.241,221.01,54.181,221.184,54.009z"/>
			<path d="M219.84,29.536l-0.602-0.082c0.224-1.127,4.517-7.326,9.82-1.668c0.098,0.18,0.186,0.359,0.271,0.541l-0.643,0.289
				c-0.791-1.01-2.729-1.227-4.816-1.107c-1.078,0.063-1.209,0.197-1.854,0.463c-0.688,0.279-1.426,0.402-1.668,0.645
				C220.152,28.821,219.982,29.136,219.84,29.536z"/>
			<path fill="#8E6008" d="M220.428,42.438c-0.043-1.367-1.225-11.135,0-12.357c0.242-0.248,2.27-1.738,3.346-1.799
				c2.09-0.125,3.584-0.246,4.375,0.768c0.459,1.926,0.429,21.596,0.899,22.777c-2.548,2.1-5.663,0.574-8.88,1.031
				C219.991,49.827,220.539,45.946,220.428,42.438z"/>
			<path d="M219.786,55.661c0.429,0.084,0.907-0.059,1.489-0.078c0.514-0.016,1.102,0.215,1.664,0.324
				c-1.599,0.021-2.941-0.031-3.158-0.217L219.786,55.661z"/>
			<path d="M222.504,156.857c-0.949,0.511-2.336,0.582-3.656,0.42c1.291,0.056,2.629-0.225,3.541-0.702
				c0.365-0.199,0.945-0.578,1.016-1.046C223.357,156.048,222.867,156.669,222.504,156.857z"/>
			<path d="M220.428,30.081c-1.225,1.223-0.043,10.99,0,12.357c0.111,3.508-0.437,7.389-0.26,10.42
				c3.217-0.457,6.332,1.068,8.88-1.031c-0.472-1.182-0.44-20.852-0.899-22.777c-0.791-1.014-2.285-0.893-4.375-0.768
				C222.697,28.343,220.67,29.833,220.428,30.081z M219.238,38.622c-0.189-2.678-0.139-7.029,0.602-9.086
				c0.143-0.4,0.313-0.715,0.51-0.92c0.244-0.242,0.98-0.365,1.668-0.645c0.646-0.266,0.775-0.4,1.854-0.463
				c2.088-0.119,4.026,0.098,4.817,1.107c0.459,1.926,0.479,4.17,0.371,6.49c-0.129,2.768,0.602,5.783-0.094,8.061
				c0.127,1.109,0.494,2.387,0.494,3.545c0,0.553-0.081,1.072-0.309,1.549c0.369,1.021,0.377,2.404,0.556,3.617
				c-1.39,1.135-3.405,1.543-5.478,1.594c-1.688,0.035-3.418-0.154-4.877-0.371c-0.039-0.008-0.078-0.02-0.115-0.023
				c-0.178-3.029,0.297-6.955,0.186-10.471C219.381,41.249,219.335,39.956,219.238,38.622z"/>
			<path d="M218.219,51.692c0.201,0.072,0.328,0.227,0.278,0.555C218.164,52.298,218.215,51.974,218.219,51.692z"/>
			<path d="M217.662,118.029c0.09-2.518,0.352-5.268,0.465-7.596c0.092-1.914,0.242-3.992,0.37-6.213
				c0.054-0.965-0.108-1.973-0.093-2.965c0.037-2.332,0.664-4.686,0.277-7.041c0.271-3.826,0.51-7.664,0.371-11.484
				c-0.064-1.758-0.638-3.584-0.557-5.373c0.042-0.955-0.182-2.563-0.186-3.898c-0.013-4.781,0.748-9.824,1.02-14.355
				c0.081-1.371-0.43-2.455-0.094-3.707c0.175,0.154,0.355,0.229,0.549,0.264l-0.004,0.029c-0.336,1.252-0.141,12.582-0.129,17.373
				c0.004,1.332-0.479,26.107-0.514,28.438c-0.015,0.992,0.09,6.969,0,8.879c-0.111,2.313-1.199,16.365-1.199,19.16
				c-0.02-2.598-0.082-5.182-0.092-7.713C217.846,120.553,217.62,119.294,217.662,118.029z"/>
			<path d="M217.628,155.29c0.545,0.063,3.065,0.78,4.274,0.647c-1.127,0.162-2.402-0.135-3.127,0.355
				c-0.159-0.586-0.656-0.871-1.155-0.973L217.628,155.29z"/>
			<path d="M217.662,51.413c-0.309-0.834,0.43-1.172,0.557-1.852C218.705,50.151,218.258,51.29,217.662,51.413z"/>
			<path d="M218.404,54.188c-0.604,0.342-0.946-0.551-0.776-1.111c0.013-0.029,0.021-0.063,0.034-0.088
				c0.672-0.096,1.217,0.27,1.622,0.584c0.12,0.094,0.228,0.18,0.323,0.25c-0.039,0.313-0.357-0.25-0.276,0.186
				c-0.429-0.158-0.826-0.352-1.298-0.469C217.979,53.935,218.535,53.722,218.404,54.188z"/>
			<path d="M217.756,166.396c-0.688-1.629,0.135-3.459-0.094-5.467c1.398-0.842,3.533-0.445,4.355-2.131
				c0.549-0.045,1.03-0.799,0.555-1.297c0.966,1.027,0.186,3.008-4.075,3.451c0.228,2.016-1.046,3.953-0.362,5.578
				c1.03,2.451,5.5,3.424,7.817,1.479c0.196-0.166,0.429-0.383,0.612-0.605c-0.234,0.328-0.463,0.693-0.748,0.939
				C223.5,170.288,218.781,168.841,217.756,166.396z"/>
			<path d="M217.662,159.167c-0.324-0.521-0.204-1.694,0-2.039c0.043,0.013,0.086,0.021,0.132,0.024
				c-0.153,0.396,0.034,1.504,0.052,2.045C217.781,159.188,217.725,159.184,217.662,159.167z"/>
			<path d="M217.385,155.279c-0.063-5.354-0.255-10.098-0.093-15.196c0.108-3.42,0.649-6.94,0.649-10.265
				c0.021,3.304,0.019,6.351-0.09,9.773c-0.162,5.104-0.285,10.342-0.225,15.697l-0.008,0.031
				C217.543,155.298,217.462,155.288,217.385,155.279z"/>
			<path d="M218.219,51.692c-0.004,0.281-0.055,0.605,0.278,0.555C218.547,51.919,218.42,51.765,218.219,51.692z M218.219,49.562
				c-0.127,0.68-0.865,1.018-0.557,1.852C218.258,51.29,218.705,50.151,218.219,49.562z M217.014,52.989
				c0.295-0.744-0.467-1.355-0.351-2.078c0.144-0.883,0.915-1.59,1.647-2c0.584-0.332-1.211-14.113,0.928-19.457l0.602,0.082
				c-0.74,2.057-0.791,6.408-0.602,9.086c0.097,1.334,0.143,2.627,0.186,3.984c0.111,3.516-0.363,7.441-0.186,10.471
				c0.037,0.004,0.076,0.016,0.115,0.023l-0.069,0.473c-0.405-0.314-0.95-0.68-1.622-0.584c-0.016,0.025-0.021,0.059-0.034,0.088
				L217.014,52.989z"/>
			<path d="M216.645,54.101c0.365-0.051,0.17,0.645-0.094,0.551C216.354,54.468,216.578,54.29,216.645,54.101z"/>
			<path d="M215.254,55.116c-0.093,0.4-0.482,0.506-0.926,0.561c0.162-0.338,0.479-0.516,0.646-0.84
				C215.111,54.894,215.204,54.981,215.254,55.116z"/>
			<path d="M207.379,58.915c0.188-0.906,1.996-0.955,2.872-1.482c0.115,0.043,0.188,0.119,0.185,0.281
				C209.289,58.192,208.579,58.556,207.379,58.915z"/>
			<path d="M206.081,59.196c0.188-0.293,0.729-0.836,1.112-0.369C206.953,59.255,206.596,59.011,206.081,59.196z"/>
			<path d="M205.525,59.196c0.084,0.391-0.221,0.391-0.558,0.371C204.973,59.263,205.232,59.212,205.525,59.196z"/>
			<path fill="#009640" d="M203.209,87.915c-1.352-1.875-1.409-6.041,0.277-7.131c2.572,1.447,2.748,5.756,0.928,8.336
				C204.174,88.741,203.572,88.421,203.209,87.915z"/>
			<path d="M223.594,54.282c-0.082,0.17-0.26,0.236-0.188,0.555C223.781,54.942,223.891,54.302,223.594,54.282z M221.184,54.47
				c0.434,0.033,0.246-0.428,0-0.461C221.01,54.181,221.172,54.241,221.184,54.47z M216.551,54.651
				c0.264,0.094,0.459-0.602,0.094-0.551C216.578,54.29,216.354,54.468,216.551,54.651z M214.328,55.677
				c0.443-0.055,0.833-0.16,0.926-0.561c-0.05-0.135-0.143-0.223-0.277-0.279C214.807,55.161,214.49,55.339,214.328,55.677z
				 M210.251,57.433c-0.876,0.527-2.685,0.576-2.872,1.482c1.2-0.359,1.91-0.723,3.057-1.201
				C210.439,57.552,210.366,57.476,210.251,57.433z M207.193,58.827c-0.383-0.467-0.924,0.076-1.112,0.369
				C206.596,59.011,206.953,59.255,207.193,58.827z M204.969,59.567c0.336,0.02,0.643,0.02,0.557-0.371
				C205.232,59.212,204.973,59.263,204.969,59.567z M201.634,60.952c-0.081-0.131-0.14-0.293-0.37-0.273l-0.104-0.289
				c1.889-0.723,3.776-1.451,5.663-2.123c1.957-0.691,3.826-1.26,5.56-2.221c1.664-0.926,3.183-1.945,4.634-3.057l0.613,0.088
				c-0.17,0.561,0.174,1.453,0.775,1.111c0.132-0.467-0.424-0.254-0.37-0.648c0.472,0.117,0.868,0.311,1.298,0.469
				c-0.081-0.436,0.238,0.127,0.277-0.186c-0.098-0.07-0.205-0.156-0.324-0.25l0.068-0.473c1.459,0.217,3.189,0.406,4.877,0.371
				l0.012,0.352c-0.328,0.443,0.302,0.582,0.186,1.111h0.004v0.85c-0.144-0.008-0.271-0.016-0.373-0.02
				c-0.16-0.004-0.322,0.076-0.477,0.135c-0.212,0.004-0.425,0.008-0.635,0.008c-0.002,0-0.002,0-0.006,0
				c-0.563-0.109-1.151-0.34-1.664-0.324c-0.584,0.02-1.063,0.162-1.49,0.078c-0.191-0.035-0.374-0.109-0.549-0.264
				c-0.336,1.252,0.175,2.336,0.094,3.707c-0.271,4.531-1.031,9.574-1.02,14.355c0.004,1.336,0.228,2.943,0.186,3.898
				c-0.081,1.789,0.493,3.615,0.557,5.373c0.139,3.82-0.102,7.658-0.371,11.484c0.387,2.355-0.24,4.709-0.277,7.041
				c-0.016,0.992,0.146,2,0.093,2.966c-0.128,2.221-0.278,4.299-0.37,6.213c-0.113,2.328-0.375,5.078-0.465,7.596
				c-0.042,1.264,0.184,2.521,0.188,3.797c0.01,2.531,0.072,5.115,0.092,7.713c0,0.027,0,0.047,0,0.074c0,0.068,0,0.139,0,0.205
				c0,3.322-0.541,6.844-0.648,10.264c-0.162,5.1,0.031,9.842,0.094,15.197c0.076,0.008,0.157,0.018,0.234,0.041
				c0.499,0.102,0.996,0.387,1.154,0.973c0.726-0.49,2-0.193,3.127-0.355c0.043-0.004,0.078-0.004,0.115-0.01
				c0.561-0.096,0.941-0.674,1.391-0.563c0.004,0.057,0.004,0.105-0.004,0.164c-0.069,0.467-0.649,0.846-1.016,1.045
				c-0.912,0.479-2.25,0.758-3.541,0.703c-0.351-0.043-0.693-0.1-1.026-0.174c-0.007,0.016-0.019,0.035-0.026,0.049
				c-0.046-0.006-0.089-0.014-0.132-0.025c-0.204,0.344-0.324,1.518,0,2.039c0.063,0.016,0.12,0.021,0.183,0.031
				c0,0.01,0,0.018,0,0.029c2.043,0.362,3.34-1.031,4.521-1.629c0.068-0.035,0.139-0.064,0.208-0.097
				c0.476,0.498-0.007,1.252-0.556,1.297c-0.822,1.687-2.957,1.289-4.355,2.132c0.229,2.008-0.594,3.838,0.094,5.467
				c1.026,2.442,5.744,3.891,8.061,1.947c0.285-0.246,0.515-0.611,0.75-0.939c0.019-0.031,0.043-0.063,0.064-0.098
				c0.02-0.027,0.043-0.058,0.063-0.08c0-0.004,0.005-0.004,0.005-0.008c0.077-0.103,0.149-0.193,0.229-0.269
				c0.158-0.149,0.61,0.021,0.463-0.369c-0.188-1.235-0.033-2.604,0-3.804c0.035-1.12-0.314-2.34-0.276-3.424
				c0.112-3.209,0.188-6.426,0.239-9.647l0.354,0.002c-0.085,4.793-0.17,9.631,0.147,14.834c0.063,1.074,0.361,2.187-0.188,3.054
				c-0.281,0.448-1.281,1.164-2.13,1.674c-0.896,0.537-2.136,1.285-3.149,1.291c-1.812,0.024-3.097-1.104-4.447-2.033
				c-3.209-0.977-2.75-18.164-2.822-20.09c-0.217-5.738,2.475-87.104,3.1-90.452c0.278-1.479-0.591-1.621-0.447-2.777
				c-1.02-0.232-4.022,1.156-4.834,1.578c-0.76,0.395-1.455,0.822-2.223,1.199c-2.668,1.342-5.545,2.344-8.459,3.348l-0.066-0.193
				c1.127-0.357,2.236-1.34,2.502-1.018c-0.004-0.221,0.158-0.279,0.093-0.557c-0.302-0.213-0.485,0.166-0.74,0.273
				c-0.221,0.098-0.506,0.012-0.741,0.098c-0.228,0.076-0.472,0.393-0.834,0.463C201.966,60.489,201.83,60.521,201.634,60.952z"/>
			<path d="M199.316,61.978c0.162-0.92,1.541-0.623,1.947-1.299c0.229-0.02,0.289,0.143,0.369,0.273
				c0.196-0.432,0.332-0.463,0.834-0.551c0.362-0.07,0.605-0.387,0.833-0.463c0.236-0.086,0.521,0,0.742-0.098
				c0.254-0.107,0.438-0.486,0.739-0.273c0.066,0.277-0.096,0.336-0.092,0.557c-0.267-0.322-1.375,0.66-2.502,1.018
				C201.15,61.47,200.145,61.501,199.316,61.978z"/>
			<path d="M196.631,62.806c0.717-0.648,1.459-0.818,2.501-1.014C198.58,62.413,197.68,62.687,196.631,62.806z"/>
			<path fill="#009640" d="M196.537,66.517c0.063,0,0.124,0,0.186,0c0.813-0.109,1.604,0.301,2.133,0.926
				c0.938,1.104,1.504,4.273,0,5.096C198.477,70.167,197.9,68.085,196.537,66.517z"/>
			<path fill="#009640" d="M196.592,73.315c-0.027-0.02-0.055-0.074-0.055-0.172c-0.055-0.045-0.061-0.199-0.08-0.322
				C196.529,73.075,196.58,73.249,196.592,73.315z"/>
			<path d="M196.18,67.257c0.161,0.078,0.336,0.143,0.451,0.275c0.367,0.418,0.443,1.293,0.741,2.037
				c0.271,0.684,0.872,2.205,0.556,3.34c-0.49,0.123-0.707,0.529-1.297,0.551c0-0.037,0-0.084,0-0.129
				c0.494-0.043,0.691-0.41,1.115-0.537c0.277-1.092-0.254-2.561-0.494-3.225C197.051,69.024,196.561,67.917,196.18,67.257z"/>
			<path fill="#009640" d="M195.893,66.833c0.187,0.104,0.213,0.305,0.287,0.424C196.07,67.073,195.971,66.925,195.893,66.833z"/>
			<path d="M196.537,62.718c-0.008,0.422-0.479,0.381-0.834,0.463c0-0.123,0-0.246,0-0.375
				C196.04,62.837,196.307,62.796,196.537,62.718z"/>
			<path d="M203.486,80.784c-1.688,1.09-1.629,5.256-0.277,7.131c0.363,0.506,0.965,0.826,1.205,1.205
				C206.234,86.54,206.059,82.231,203.486,80.784z M195.283,95.989c1.527-0.828,2.914-1.865,4.313-2.789
				c1.752-1.158,3.652-2.105,4.447-3.432c-0.664,0.186-1.035-0.596-1.574-0.83c-0.715-1.178-1.691-2.309-1.669-3.988
				c0.027-2.045,1.235-3.443,2.132-4.721c-0.434-1.502-1.924-2.525-2.41-4.082c-0.076-0.242,0.051-0.59,0-0.828
				c-0.008-0.047-0.02-0.094-0.033-0.137l0.336-0.111c0.808,2.387,2.396,4.447,4.054,6.084c1.166,1.146,1.86,3.49,1.204,5.834
				c-0.251,0.896-1.29,2.85-1.854,3.525c-0.231,0.27-0.842,0.598-1.297,1.014c-1.035,0.961-1.758,1.348-3.059,2.225
				c-1.158,0.783-2.486,1.566-3.799,2.316c-0.201,0.115-0.387,0.221-0.57,0.32L195.283,95.989z"/>
			<path d="M195.252,65.362c0.004-0.055,0.004-0.104,0.004-0.156C195.256,65.259,195.256,65.308,195.252,65.362z"/>
			<path d="M194.87,68.644c0.259-0.584-0.171-1.066-0.371-1.479c0.188-0.398,0.638-0.537,1.298-0.467
				c-0.004,0.033-0.004,0.066-0.004,0.088c-0.553-0.045-0.927,0.09-1.085,0.455c0.144,0.32,1.263,3.908,1.706,5.43
				C195.611,71.612,195.805,69.562,194.87,68.644z"/>
			<path d="M194.223,66.054c-0.179-0.463-0.346-0.93-0.504-1.406c0.154,0.367,0.325,0.727,0.504,1.082
				c0.442,0.008,0.775-0.066,1.019-0.213c0.004-0.051,0.008-0.104,0.012-0.154c0,0.131-0.004,0.27-0.012,0.412
				C194.998,65.96,194.665,66.063,194.223,66.054z"/>
			<path fill="#5F7884" d="M193.719,64.647c-0.203-0.59-0.393-1.197-0.563-1.811c0.4-0.119,0.859-0.189,1.436-0.174
				c0.271,0.602,0.537,1.201,0.629,1.93c0.004,0.02,0.004,0.035,0.004,0.047c0.017,0.131,0.023,0.271,0.027,0.41
				c0,0.049,0.004,0.104,0.004,0.156c0,0.052,0,0.102-0.004,0.156c-0.004,0.051-0.008,0.104-0.012,0.154
				c-0.242,0.146-0.575,0.221-1.02,0.213C194.044,65.374,193.873,65.015,193.719,64.647z"/>
			<path d="M193.018,62.347c0.433-0.189,0.93-0.305,1.574-0.281c0.271,0.783,0.541,1.566,0.629,2.527
				c-0.092-0.729-0.357-1.328-0.629-1.93c-0.574-0.016-1.033,0.055-1.436,0.174C193.105,62.671,193.061,62.513,193.018,62.347z"/>
			<path fill="#009640" d="M192.832,70.218c-0.251-1.74-0.684-2.523,0.834-2.961c1.393,1.691,1.443,4.166,2.225,6.486
				c-0.287,0.154-0.496,0.254-0.928,0.184c-0.561-0.086-1.695-1.299-2.039-2.408C192.824,71.192,192.895,70.644,192.832,70.218z"/>
			<path d="M192.553,63.829c-0.381,0.518-1.23,0.613-1.853,0.463c0.243-0.525,1.413,0.105,1.575-0.648
				C192.35,63.726,192.529,63.698,192.553,63.829z"/>
			<path fill="#009640" d="M191.35,72.354c-0.371-0.816-0.695-3.229,0.277-3.711c0.15-0.023,0.158,0.094,0.277,0.094
				c0.367,0.979,0.193,2.455,0.647,3.52c0.337,0.799,0.989,1.189,1.205,2.037C192.365,75.161,191.9,73.562,191.35,72.354z"/>
			<path d="M189.959,64.382c0.371,0.32-0.391,0.285-0.557,0.373C189.361,64.405,189.887,64.62,189.959,64.382z"/>
			<path fill="#009640" d="M191.535,75.036c-2.035-0.541-3.568-4.652-1.113-5.467c-0.207,1.293,0.098,2.85,0.557,4.174
				C191.113,74.185,191.816,74.481,191.535,75.036z"/>
			<path d="M188.939,64.663c0.297,0.467-1.459,0.439-2.131,0.557C187.164,64.675,188.338,64.952,188.939,64.663z"/>
			<path fill="#5FAE30" d="M187.975,95.964c-1.481-0.693-1.664-2.555-1.104-4.453c1.336-2.422,4.301-3.32,6.385-4.986
				c1.158-0.912,1.158-2.65,0.967-4.195c-0.275-2.209-1.533-4.008-2.022-5.551c1.782,0.146,6.84-2.756,7.296-3.008
				c0.068-0.02,0.076,0.035,0.085,0.084c0.106,0.719,1.735,5.621,2.965,6.514c-1.375,1.037-1.761,2.637-1.948,4.369
				c-0.201,1.838,1.659,4.809,2.266,4.637c-0.727,1.225-1.764,1.924-3.366,2.992c-2.151,1.441-4.271,3.182-7.03,3.768
				C191.168,96.417,189.283,96.587,187.975,95.964z"/>
			<path d="M186.717,85.788c-0.186-0.479-0.17-0.951-0.371-1.395c0.182,0.41,0.664,1.662,0.801,2.117
				C187.041,86.251,186.816,86.044,186.717,85.788z"/>
			<path d="M186.871,91.511c-0.561,1.898-0.379,3.76,1.104,4.453c1.31,0.623,3.193,0.453,4.49,0.17
				c2.76-0.586,4.879-2.326,7.03-3.768c1.603-1.068,2.64-1.768,3.366-2.992c-0.605,0.172-2.467-2.799-2.266-4.637
				c0.188-1.732,0.573-3.332,1.948-4.369c-1.229-0.893-2.856-5.795-2.965-6.514c-0.009-0.049-0.017-0.104-0.085-0.084
				c-0.456,0.252-5.514,3.154-7.297,3.008c0.49,1.543,1.748,3.342,2.023,5.551c0.191,1.545,0.191,3.283-0.967,4.195
				C191.172,88.19,188.207,89.089,186.871,91.511z M186.994,97.093c-1.617-0.758-1.818-2.773-1.205-4.822
				c0.639-1.143,1.541-2.027,2.545-2.803c1.293-1,2.752-1.838,4.035-2.846c0.523-1.1,1.041-2.713,1.02-4.262
				c-0.035-2.289-1.5-4.537-2.039-6.213c1.242-0.354,2.459-0.52,3.613-0.828c1.127-0.301,2.281-0.682,3.242-1.205
				c0.51-0.281,0.893-0.75,1.391-1.02c0.076-0.02,0.088,0.035,0.092,0.088c0.112,0.73,0.611,1.344,0.801,2
				c0.015,0.043,0.025,0.09,0.033,0.137c0.051,0.238-0.076,0.586,0,0.828c0.486,1.557,1.978,2.58,2.41,4.082
				c-0.896,1.277-2.104,2.676-2.132,4.721c-0.022,1.68,0.954,2.811,1.669,3.988c0.539,0.234,0.91,1.016,1.574,0.83
				c-0.795,1.326-2.695,2.273-4.447,3.432c-1.396,0.924-2.783,1.961-4.313,2.789c-1.043,0.566-2.15,1.029-3.379,1.289
				C190.488,97.575,188.428,97.755,186.994,97.093z"/>
			<path d="M185.049,74.948c0.383-0.842,0.864-1.668,1.08-2.557c-0.223,1.506-0.854,3.047-0.896,3.293
				C185.296,75.319,184.99,75.315,185.049,74.948z"/>
			<path fill="#009640" d="M184.586,70.218c0.926,0.516,0.748,3.455-0.279,3.709C184.539,72.489,184.539,71.356,184.586,70.218z"/>
			<path fill="#009640" d="M182.918,74.114c0.246-1.43,0.055-3.424-0.371-5.096c0.775-0.035,0.98,0.502,1.391,0.83
				c0.054,0.486,0.154,1.066,0.092,1.67C183.918,72.589,183.717,74.173,182.918,74.114z"/>
			<path d="M182.641,65.683c-0.402-0.295,0.357-0.68,0.555-0.375C183.246,65.667,182.658,65.388,182.641,65.683z"/>
			<path fill="#009640" d="M182.918,91.626c-0.854-1.664-1.576-3.902-0.371-5.93c0.328-0.553,1.865-2.223,2.688-1.762
				c0.938,1.648,1.259,3.359,0.463,5.094C185.127,90.269,183.785,91.204,182.918,91.626z"/>
			<path fill="#009640" d="M180.416,73.833c-0.078-1.549,0.188-3.086,0.093-4.912c0.263-0.143,1.034-0.143,1.296,0
				c0.264,1.748,0.781,3.367,0.279,5.006C181.451,73.976,181.014,73.991,180.416,73.833z"/>
			<path fill="#5F7884" d="M179.768,67.628c0.231-1.08-0.293-2.063,0-3.15c0.826-0.352,1.362-0.189,2.225-0.277
				c-0.081,1.277-0.409,2.309-0.557,3.52C180.816,67.853,180.23,67.813,179.768,67.628z"/>
			<path fill="#009640" d="M179.396,73.833c-0.668,0.049-0.869-0.84-0.926-1.295c-0.148-1.115,0.096-2.645,0.463-3.52
				c0.502,0.1,0.551-0.25,1.02-0.186C179.871,70.36,179.795,72.354,179.396,73.833z"/>
			<path d="M178.934,67.442c-0.022,0.285-0.617,0.277-0.742,0.186C178.212,67.339,178.652,67.466,178.934,67.442z"/>
			<path d="M182.547,85.696c-1.205,2.027-0.482,4.266,0.371,5.93c0.867-0.422,2.209-1.357,2.779-2.598
				c0.795-1.734,0.475-3.445-0.465-5.094C184.412,83.474,182.875,85.144,182.547,85.696z M178.748,93.665
				c-0.591,0.1-1.251,0.203-1.961,0.293l-0.051-0.391c1.842-0.244,5.039-0.865,5.191-1.533c0.116-0.494-0.373-0.791-0.679-1.412
				c-0.021-0.039-0.039-0.078-0.056-0.115c-0.254-0.611-0.586-1.584-0.641-2.078c-0.297-2.645,2.719-4.104,4.401-5.148
				c-0.204-0.967-0.366-2.074-0.444-3.209l0.422-0.031c0.076,1.238,0.336,2.424,0.855,3.525c0.16,0.332,0.422,0.535,0.557,0.828
				c0.201,0.443,0.186,0.916,0.371,1.395c0.1,0.256,0.324,0.463,0.43,0.723c0.019,0.041,0.025,0.08,0.033,0.111
				c0.281,1.209-0.221,2.479-0.648,3.613c0.511-0.418,1.023-0.783,1.525-1.146l0.277,0.379c-1.004,0.775-1.907,1.66-2.545,2.803
				c-0.613,2.049-0.412,4.064,1.205,4.822c1.433,0.662,3.494,0.482,4.91,0.186c1.229-0.26,2.336-0.723,3.379-1.289l0.221,0.4
				c-1.275,0.688-2.213,1.037-4.063,1.537c-0.885,0.234-1.978,0.667-2.779,0.644c-1.586-0.032-3.83-1.247-4.355-2.501
				c-0.621-1.475,0.344-2.75,0.742-4.355c-1.408,0.229-2.068,1.068-3.059,1.391C181.165,93.38,179.922,93.458,178.748,93.665z"/>
			<path d="M183.658,76.958c-1.336-1.67-5.582-1.572-7.82-0.771c0.012-0.131,0.025-0.266,0.038-0.402
				c2.455-0.906,7.228-1.025,8.714,0.813c-0.15,1.092-0.162,2.297-0.078,3.475c0.078,1.135,0.24,2.242,0.444,3.209
				c-1.683,1.045-4.698,2.504-4.401,5.148c0.055,0.494,0.387,1.467,0.641,2.078c0.017,0.037,0.035,0.076,0.056,0.115l-0.093,0.041
				c-0.146-0.254-0.405-0.514-0.571-0.914c-0.231-0.561-0.528-1.451-0.579-1.912c-0.271-2.428,2.458-3.768,3.983-4.729
				C183.616,81.294,183.389,78.931,183.658,76.958z"/>
			<path d="M179.211,66.979c-0.957,0.094-1.883,0.123-2.686,0.277c0.246-0.807,2.024-0.072,2.129-1.02
				c0.287,0.066,0.179,0.066,0.465,0C179.049,66.587,179.23,66.679,179.211,66.979z"/>
			<path fill="#009640" d="M177.914,73.46c-0.919-1.072-2.234-2.682-1.02-4.354c0.485,0.059,0.703-0.158,1.205-0.088
				C178.045,70.979,177.637,71.802,177.914,73.46z"/>
			<path fill="#009640" d="M175.32,74.114c-0.023-0.783-1.438-3.467,0.834-4.727l0.582,4.668
				C176.246,74.151,175.85,74.388,175.32,74.114z"/>
			<path d="M176.061,67.442c-0.672,0.012-1.629,0.391-1.853-0.186C174.787,67.257,175.857,66.714,176.061,67.442z"/>
			<path d="M172.541,67.72c0.025,0.24-0.881,0.332-0.834,0C171.907,67.712,172.277,67.577,172.541,67.72z"/>
			<path fill="#5FAE30" d="M167.965,91.489c-1.385-1.609-1.424-3.943,0-5.23c0.094-0.084,0.197-0.162,0.299-0.244
				c0.008,0,0.012-0.006,0.02-0.01c0.004,0,0.004-0.004,0.004-0.004c1.867-1.027,4.47-1.432,6.029-2.541
				c1.367-1.799,1.31-4.709,1.521-7.273c2.238-0.801,6.484-0.898,7.82,0.771c-0.27,1.973-0.042,4.336,0.332,6.15
				c-1.525,0.961-4.254,2.301-3.983,4.729c0.05,0.461,0.347,1.352,0.579,1.912c0.166,0.4,0.426,0.66,0.57,0.914
				c0.09,0.156,0.137,0.314,0.094,0.5c-0.166,0.721-4.195,1.396-5.479,1.492C172.729,92.888,170.123,92.382,167.965,91.489z"/>
			<path d="M167.256,92.401c-1.529-1.76-1.572-4.301,0-5.693c0.297-0.26,0.637-0.494,1.008-0.693
				c-0.102,0.082-0.205,0.16-0.299,0.244c-1.424,1.287-1.385,3.621,0,5.23c2.158,0.893,4.766,1.398,7.807,1.166
				c1.283-0.096,5.313-0.771,5.479-1.492c0.043-0.186-0.004-0.344-0.093-0.5l0.093-0.041c0.306,0.621,0.795,0.918,0.679,1.412
				c-0.152,0.668-3.351,1.289-5.191,1.533c-0.344,0.041-0.637,0.076-0.86,0.098C172.518,93.919,169.641,93.37,167.256,92.401z"/>
			<path d="M164.85,67.532c-0.084,0.219-0.527,0.215-0.556-0.09C164.576,67.374,164.63,67.534,164.85,67.532z"/>
			<path d="M163.83,68.272c-0.713,0.521-1.995,0.371-2.871,0.371C161.635,68.269,163.066,68.315,163.83,68.272z"/>
			<path d="M164.197,67.442c-0.834,0.652-2.74,0.113-3.609,0.371C161.58,67.374,162.805,67.532,164.197,67.442z"/>
			<path d="M160.495,67.813c-0.892,0.115-1.536,0.15-2.409,0C158.801,67.786,160.105,67.28,160.495,67.813z"/>
			<path fill="#2F2C78" d="M159.477,84.95c0.498,0.229-0.162,0.311-0.186,0.561C159.032,85.364,159.492,85.159,159.477,84.95z"/>
			<path fill="#2F2C78" d="M158.086,89.028c-0.127,0.16-0.382,0.443-0.555,0.279c-0.137-0.354,0.254-0.18,0.184-0.467
				c0.078-0.01,0.09,0.039,0.094,0.098C157.824,89.046,157.979,89.017,158.086,89.028z"/>
			<path fill="#E0E053" d="M156.148,92.88c-0.154,0-0.359,0.066-0.515,0.066c0.888-2.229,5.05-12.211,5.918-12.359
				c0.282-0.045,0.464-0.127,0.646,0.197C161.967,81.22,157.232,91.919,156.148,92.88z"/>
			<path d="M161.553,80.587c-0.867,0.148-5.029,10.131-5.918,12.359c0.154,0,0.359-0.066,0.514-0.066
				c1.084-0.961,5.818-11.66,6.049-12.096C162.018,80.46,161.835,80.542,161.553,80.587z M149.543,91.31
				c1.676,0.57,3.182,1.305,4.93,1.795c2.217-4.234,4.66-8.246,6.301-13.063c-2.383-0.658-4.68-1.998-7.319-2.684
				c-0.548-0.762-1.604-1.012-2.744-1.184l0.058-0.393c1.899,0.037,6.856,2.4,7.319,2.59c1.595,0.652,3.238,1.061,4.911,1.764
				c0.064,1.148-0.467,2.213-0.833,3.244c-1.452,4.076-3.313,8.01-6.302,10.654c-2.447-0.475-4.315-1.521-6.471-2.289L149.543,91.31
				z"/>
			<path fill="#CBE1B5" d="M134.182,83.101c-3.297-0.17-11.381-1.838-11.675-8.527c0.919-0.127,1.988-0.213,2.688,0.186
				c0.143,6.145,15.375,6.732,17.731,4.602c0.324-0.047,4.756-3.672,4.69-4.041c0.239-0.357,0.718-0.406,1.294,0.08
				c-0.244,1.178-4.626,6.322-7.039,6.961c-0.246,0.066-2.99,0.867-4.107,0.957C136.582,83.405,135.625,83.175,134.182,83.101z"/>
			<path d="M146.816,89.983c-0.02-1.492,5.192,1.688,6.949,2.186c2.157-4.141,3.395-6.805,4.987-11.512
				c-2.319-0.645-8.08-3.299-9.487-3.484c-0.681,0.686-1.311,1.246-1.933,1.816c0.834-1.012,1.599-2.023,2.506-2.93
				c0.29,0.039,0.583,0.072,0.869,0.115c1.14,0.172,2.196,0.422,2.744,1.184c2.641,0.686,4.938,2.025,7.319,2.684
				c-1.641,4.816-4.084,8.828-6.301,13.063c-1.748-0.49-3.254-1.225-4.93-1.795c-0.055-0.016-0.107-0.039-0.166-0.055
				c-0.51-0.395-1.451-1.385-2.039-0.838l-0.479,0.043C146.848,90.302,146.832,90.14,146.816,89.983z"/>
			<path d="M147.709,112.563c-0.281,2.375-0.707,4.703-0.906,6.957l-0.375-0.027c0.684-9.357,1.822-19.457,0.91-29.074
				c0.588-0.547,1.529,0.443,2.039,0.838c0.059,0.016,0.111,0.039,0.166,0.055l-0.15,0.436c-0.31-0.107-0.621-0.213-0.941-0.305
				c-0.391,1.98,0.22,4.018,0.277,6.203c0.031,1.244,0.213,2.496,0.092,3.798c-0.18,1.992-0.471,4.396-0.739,6.771
				C147.914,109.661,147.875,111.163,147.709,112.563z"/>
			<path d="M142.613,68.37c-0.521-0.047-1.146,0.547-1.482-0.191c1.309,0.125,3.174-0.445,4.17,0.094
				c0.111-0.236,0.396-0.285,0.756-0.285c0.387,0,0.857,0.063,1.281,0.008c-0.021,0.197-0.408,0.023-0.371,0.277
				c0.129,0.121,0.827,0.031,0.836-0.277c0.273,0,0.563-0.008,0.555,0.277c0.175-0.008,0.065-0.301,0.279-0.277
				c1.775,0.063,2.748-0.105,4.539-0.088c0.119,0.119,0.119,0.334,0,0.463c0.518,0.309,1.387,0.301,1.574,0.088
				c0.275,0.201,0.893,0.244,1.02-0.186c0.179,0.137,0.568,0.051,0.463,0.465c-2.521,0.365-5.35-0.109-8.061-0.184
				c-1.131-0.031-2.377,0.209-3.531,0.244c-0.588,0.02-1.146-0.012-1.656-0.154C142.841,68.604,142.645,68.374,142.613,68.37z"/>
			<path d="M139.463,68.37c-0.085,0.346-0.367,0.072-0.645,0.088C138.949,68.312,139.293,68.2,139.463,68.37z"/>
			<path d="M138.352,68.179c0.076,0.307-0.699,0.223-0.648,0.191C137.715,67.979,138.119,68.431,138.352,68.179z"/>
			<path d="M134.016,72.493c0.189-1.932-0.119-4.035,0.443-6.162c0.482-0.459,1.813-0.467,2.502-0.189
				c0.229,2.596-0.594,4.85-1.428,6.723c0.787-1.824,1.22-3.643,0.992-6.232c-0.691-0.291-1.514-0.139-1.996,0.32
				C133.969,69.075,134.221,70.69,134.016,72.493z"/>
			<path fill="#5F7884" d="M135.387,73.183c-0.344,0.193-1.047,0.277-1.482,0.098c0.025-0.137,0.051-0.273,0.064-0.406
				c0.02-0.127,0.035-0.254,0.047-0.381c0.205-1.803-0.047-3.418,0.514-5.541c0.482-0.459,1.306-0.611,1.996-0.32
				c0.229,2.59-0.205,4.408-0.991,6.232C135.482,72.966,135.438,73.075,135.387,73.183z"/>
			<path d="M133.255,68.644c-0.519,0.02-1.459,0.131-1.667-0.273C132.043,68.343,132.938,68.134,133.255,68.644z"/>
			<path d="M129.549,68.554c-0.158-0.092-0.238-0.254-0.186-0.559c0.75,0.023,0.822-0.07,1.482-0.088
				c0.004,0.4-0.267,0.535-0.464,0.736C130.109,68.237,130.059,68.536,129.549,68.554z"/>
			<path d="M126.504,75.001c0.531,1.189,1.161,2.162,2.301,2.758c4.725,1.15,9.725,2.658,13.704,0.455
				c1.579-0.881,2.015-1.063,2.829-2.451c-0.447-0.352-8.041-1.604-8.559-1.801c-0.428-0.162-0.812,0.275-1.228,0.502
				c0.408-0.238,0.779-0.713,1.224-0.816c0.502-0.113,1.447,0.002,2.039,0.096c2.025,0.309,4.045,0.85,6.115,0.83
				c0.4,0.402,1.219,0.389,1.668,0.746c-0.814,1.389-2.127,2.182-3.707,3.053c-3.977,2.213-9.447,0.779-14.177-0.367
				C127.576,77.403,127.02,76.222,126.504,75.001z"/>
			<path fill="#C0D23E" d="M126.504,75.001c-0.035-0.072-0.07-0.158-0.105-0.242c1.742-0.729,3.545-1.051,5.561-0.832
				c1.157,0.129,2.23,0.947,3.335,0.646c0.065-0.012,0.128-0.039,0.188-0.07c0.023-0.01,0.047-0.021,0.07-0.039
				c0.416-0.227,0.799-0.664,1.227-0.502c0.519,0.197,8.111,1.449,8.56,1.801c-0.813,1.389-1.25,1.57-2.829,2.451
				c-3.98,2.203-8.979,0.695-13.705-0.455C127.665,77.163,127.035,76.19,126.504,75.001z"/>
			<path d="M126.916,68.37c-0.719-0.066-1.409-0.199-1.814-0.557c1.235,0.051,2.462,0.258,3.521,0.094
				c0.271,0.08,0.104,0.137,0.093,0.365c0.353,0.139,0.021-0.408,0.371-0.277c-0.008,0.135-0.017,0.266,0.093,0.277
				c-0.012,0.18-0.306,0.07-0.277,0.281C128.383,68.438,127.634,68.431,126.916,68.37z"/>
			<path d="M123.619,67.72c0.34,0.043,1.05-0.242,1.266,0.117c0.013,0.02,0.023,0.045,0.031,0.07
				C124.333,67.802,123.824,68.071,123.619,67.72z"/>
			<path d="M134.938,84.901c-7.474,0.203-14.09-5.371-13.057-8.818l0.136-0.047c0.609,1.885,1.647,3.328,2.713,4.748
				c1.387,1.086,3.15,1.77,5.189,2.41c0.949,0.293,1.987,0.363,2.872,0.645c0.714,0.23,1.301,0.539,2.409,0.555
				c3.603,0.059,7.628-1.021,10.006-3.145c0.012-0.008,0.021-0.021,0.03-0.031c-0.096,0.119-0.192,0.248-0.293,0.385
				C142.736,84.573,138.417,84.804,134.938,84.901z"/>
			<path d="M121.303,67.628c0.556-0.104,1.807-0.395,2.224,0.092C122.666,67.882,122.01,67.813,121.303,67.628z"/>
			<path d="M120.886,67.509c-0.073-0.023-0.144-0.047-0.22-0.066C120.754,67.454,120.836,67.481,120.886,67.509z"/>
			<path d="M120.283,67.532c0.035-0.109,0.217-0.119,0.383-0.09c0.076,0.02,0.146,0.043,0.22,0.066c0.004,0,0.011,0.004,0.015,0.004
				c0.004,0.004,0.009,0.004,0.012,0.004c0.009,0.008,0.016,0.01,0.02,0.016C120.893,67.847,120.492,67.585,120.283,67.532z"/>
			<path d="M120.098,67.257c-0.107,0.016-0.076,0.17-0.092,0.275c-0.016-0.395-0.738-0.205-0.927-0.648
				c0.216-0.008,0.405,0,0.575,0.027c0.59,0.076,0.977,0.299,1.557,0.254c0.135,0.215,0.195,0.174,0.092,0.463
				c-0.127-0.035-0.254-0.07-0.391-0.111c-0.003,0-0.008,0-0.012-0.004c-0.004,0-0.011-0.004-0.015-0.004
				c-0.05-0.027-0.132-0.055-0.22-0.066C120.484,67.38,120.299,67.319,120.098,67.257z"/>
			<path d="M117.164,116.534c0.822-5.246,2.783-17.029,2.934-19.816c0.059-1.078,0.201-2.217,0.186-3.238
				c-0.019-0.994-0.297-1.99-0.297-2.916c0-0.475,0.073-0.926,0.297-1.348c-0.234-0.129-0.49-0.186-0.76-0.186l0.004-0.182
				c0.91,0.014,1.656,0.07,1.941,0.238c1.451,1.576-2.479,22.467-3.289,27.602L117.164,116.534z"/>
			<path d="M120.283,93.479c0.016,1.021-0.127,2.16-0.186,3.238c-0.15,2.787-2.111,14.57-2.934,19.816
				c-0.059,0.359-0.108,0.695-0.154,0.986l-0.56-0.095c0.185-1.19,0.347-2.348,0.405-3.291c0.235-3.67,1.358-7.5,1.668-11.487
				c0.158-2.006,0.162-4.144,0.463-6.116c0.078-0.506,0.548-4.162,0.49-5.953l0.51-0.016
				C119.986,91.489,120.265,92.485,120.283,93.479z"/>
			<path d="M117.01,117.521c0.046-0.291,0.096-0.627,0.154-0.986l1.016,0.154c-0.02,0.143-0.043,0.266-0.059,0.381
				c1.174,0.961,21.041,7.078,27.604,1.287c0.652-9.033,1.945-18.584,1.135-27.896l0.479-0.043
				c0.912,9.617-0.228,19.717-0.909,29.074c-0.005,0.068-0.013,0.139-0.017,0.209c-3.647,2.838-9.501,3.404-15.011,2.779
				c-1.948-0.229-3.854-0.349-5.651-0.742c-0.556-0.127-1.281-0.377-1.854-0.559c-0.941-0.298-1.655-0.691-2.408-1.017
				c-1.595-0.685-3.332-1.24-4.54-2.226C116.967,117.813,116.986,117.669,117.01,117.521z"/>
			<path d="M111.986,89.556c0.017,0.012,0.035,0.023,0.051,0.033C112.018,89.579,112.003,89.567,111.986,89.556z"/>
			<path fill="#2F2C78" d="M111.13,88.159c0.305,0.682,0.618,1.223,0.856,1.396C111.531,89.298,111.373,88.733,111.13,88.159z"/>
			<path d="M111.736,78.067c0.039,3.031,2.143,10.271,2.818,11.072c0.856-0.096,3.22-0.299,4.973-0.291l-0.004,0.182
				c-0.715,0-1.525,0.348-2.297,0.373c-1.051,0.021-2.648,0.029-3.984,0.186c-0.695-0.824-2.371-9.129-2.409-12.23
				c4.05,0.369,7.103-0.867,9.913-2.039c0.144-0.066,0.58-0.322,1.02-0.186c0.074,0.313,0.158,0.617,0.252,0.902l-0.136,0.047
				C121.453,75.96,115.678,78.435,111.736,78.067z"/>
			<path fill="#2F2C78" d="M110.794,87.335c0.085,0.229,0.178,0.457,0.271,0.674c-0.043-0.094-0.089-0.182-0.139-0.275
				C110.887,87.661,110.841,87.521,110.794,87.335z"/>
			<path d="M139.463,68.37c-0.17-0.17-0.514-0.059-0.645,0.088C139.096,68.442,139.378,68.716,139.463,68.37z M137.702,68.37
				c-0.05,0.031,0.726,0.115,0.649-0.191C138.119,68.431,137.715,67.979,137.702,68.37z M134.459,66.331
				c-0.563,2.127-0.254,4.23-0.443,6.162c-0.012,0.127-0.027,0.254-0.047,0.381c-0.015,0.133-0.039,0.27-0.064,0.406
				c0.437,0.18,1.14,0.096,1.482-0.098c0.051-0.107,0.096-0.217,0.146-0.318c0.834-1.873,1.656-4.127,1.428-6.723
				C136.271,65.864,134.941,65.872,134.459,66.331z M131.588,68.37c0.208,0.404,1.148,0.293,1.667,0.273
				C132.938,68.134,132.043,68.343,131.588,68.37z M129.363,67.995c-0.055,0.305,0.027,0.467,0.186,0.559
				c0.51-0.018,0.561-0.316,0.834,0.09c0.197-0.201,0.467-0.336,0.463-0.736C130.186,67.925,130.113,68.019,129.363,67.995z
				 M131.958,73.927c-2.017-0.219-3.817,0.104-5.56,0.832c0.035,0.084,0.069,0.17,0.104,0.242c0.517,1.221,1.072,2.402,2.211,3.004
				c4.729,1.146,10.2,2.58,14.177,0.367c1.58-0.871,2.893-1.664,3.707-3.053c-0.449-0.357-1.268-0.344-1.668-0.746
				c-2.07,0.02-4.09-0.521-6.115-0.83c-0.592-0.094-1.537-0.209-2.039-0.096c-0.443,0.104-0.814,0.578-1.224,0.816
				c-0.022,0.018-0.047,0.029-0.069,0.039c-0.063,0.031-0.123,0.059-0.189,0.07C134.189,74.874,133.115,74.056,131.958,73.927z
				 M125.194,74.759c-0.699-0.398-1.769-0.313-2.688-0.186c0.294,6.689,8.378,8.357,11.676,8.527
				c1.442,0.074,2.399,0.305,3.582,0.217c1.116-0.09,3.86-0.891,4.106-0.957c2.413-0.639,6.795-5.783,7.039-6.961
				c-0.576-0.486-1.056-0.438-1.294-0.08c0.064,0.369-4.366,3.994-4.69,4.041C140.57,81.491,125.337,80.903,125.194,74.759z
				 M119.477,90.579c-0.004-0.162-0.012-0.311-0.027-0.439c-1.771-0.082-7.313,0.344-8.061,0c-0.424-0.186-2.965-6.775-3.058-7.594
				c-0.243-2.115-0.228-4.719-0.008-6.439c4.05-0.432,8.813-0.012,12.161-1.789c1.239-0.654,8.112-2.539,11.632-1.686
				c0.792-0.719,0.872-1.965,0.579-3.24c-1.115-0.057-3.197-0.238-5.83-0.496l0.051-0.525c0.718,0.061,1.467,0.068,1.984,0.184
				c-0.027-0.211,0.267-0.102,0.276-0.281c-0.106-0.012-0.1-0.143-0.092-0.277c-0.353-0.131-0.021,0.416-0.371,0.277
				c0.013-0.229,0.179-0.285-0.093-0.365c-1.059,0.164-2.285-0.043-3.521-0.094l-0.217,0.023c-0.216-0.359-0.926-0.074-1.266-0.117
				h-0.093c-0.417-0.486-1.668-0.195-2.224-0.092c0.104-0.289,0.043-0.248-0.092-0.463c-0.58,0.045-0.967-0.178-1.557-0.254
				l0.035-0.252c3.22,0.414,5.902,0.76,7.08,0.873c2.15,0.211,4.315-0.295,6.485-0.182c0.31-0.395-0.022-0.889,0.187-1.297
				c1.08-0.758,2.91-0.738,4.168-0.65c0,0.691-0.234,1.498,0,2.129c2.154,0.123,5.104,0.145,8.443,0.115l0.004,0.34
				c-0.359,0-0.645,0.049-0.756,0.285c-0.997-0.539-2.861,0.031-4.17-0.094c0.336,0.738,0.961,0.145,1.482,0.191
				c0.031,0.004,0.228,0.234,0.369,0.273c0.51,0.143,1.069,0.174,1.658,0.154l0.002,0.213c-0.429,0.014-0.856,0.021-1.289,0.008
				c-1.938-0.07-3.838-0.232-5.836,0c-0.261,1.285-1,2.084-1.021,3.613c3.039,0.676,7.11,0.996,10.563,1.756
				c1.246-0.725,3.192,0.066,3.705,1.395l-0.058,0.393c-0.286-0.043-0.579-0.076-0.869-0.115c-0.907,0.906-1.672,1.918-2.506,2.93
				c-0.004,0.006-0.009,0.008-0.013,0.014c-0.689,0.643-1.369,1.313-2.084,2.215c-0.012,0.01-0.02,0.023-0.03,0.031
				c-2.378,2.123-6.404,3.203-10.007,3.145c-1.107-0.016-1.694-0.324-2.408-0.555c-0.885-0.281-1.924-0.352-2.872-0.645
				c-2.039-0.641-3.804-1.324-5.189-2.41c-1.065-1.42-2.104-2.863-2.713-4.748c-0.094-0.285-0.178-0.59-0.252-0.902
				c-0.439-0.137-0.876,0.119-1.02,0.186c-2.811,1.172-5.863,2.408-9.913,2.039c0.038,3.102,1.714,11.406,2.409,12.23
				c1.336-0.156,2.934-0.164,3.984-0.186c0.771-0.025,1.582-0.373,2.297-0.373c0.27,0,0.525,0.057,0.76,0.186
				c-0.224,0.422-0.297,0.873-0.297,1.348L119.477,90.579z M111.13,88.159c0.243,0.574,0.401,1.139,0.856,1.396
				c0.017,0.012,0.031,0.023,0.051,0.033c-0.841-3.604-1.834-8.205-1.761-12.23c-0.216,0-0.433,0-0.647,0
				c-0.004,0.113-0.12,0.125-0.094,0.275c-0.026,0.113,0.02,0.734,0.109,1.623c0.022,1.732,0.107,4.211,0.355,5.512
				c0.118,0.627,0.432,1.635,0.794,2.566c0.047,0.186,0.093,0.326,0.132,0.398c0.05,0.094,0.096,0.182,0.139,0.275
				C111.088,88.058,111.111,88.108,111.13,88.159z"/>
			<path d="M108.701,66.237c0.113-0.258,0.568-0.174,0.928-0.184C109.539,66.45,109.029,66.284,108.701,66.237z"/>
			<path fill="#2F2C78" d="M109.629,77.358c0,0.041-0.004,0.824,0.016,1.898c-0.09-0.889-0.136-1.51-0.109-1.623
				C109.509,77.483,109.625,77.472,109.629,77.358z"/>
			<path d="M108.609,66.142c0.016,0.154-0.607,0.189-0.464-0.088C108.32,65.872,108.52,65.987,108.609,66.142z"/>
			<path d="M108.146,66.054c-0.144,0.277,0.479,0.242,0.464,0.088C108.52,65.987,108.32,65.872,108.146,66.054z M109.629,66.054
				c-0.359,0.01-0.814-0.074-0.928,0.184C109.029,66.284,109.539,66.45,109.629,66.054z M126.865,68.896
				c-5.67-0.545-13.913-1.418-20.65-2.137l0.078-0.705c0.162-0.027,0.212-0.164,0.186-0.371l0.085-0.703
				c3.88,0.465,8.952,1.135,13.126,1.68l-0.035,0.252c-0.17-0.027-0.359-0.035-0.575-0.027c0.188,0.443,0.911,0.254,0.927,0.648
				c0.016-0.105-0.016-0.26,0.092-0.275c0.201,0.063,0.387,0.123,0.568,0.186c-0.166-0.029-0.348-0.02-0.383,0.09
				c0.209,0.053,0.609,0.314,0.648,0c-0.004-0.006-0.011-0.008-0.02-0.016c0.137,0.041,0.264,0.076,0.391,0.111
				c0.707,0.186,1.363,0.254,2.224,0.092h0.093c0.205,0.352,0.714,0.082,1.297,0.188c-0.008-0.025-0.019-0.051-0.031-0.07
				l0.217-0.023c0.405,0.357,1.096,0.49,1.814,0.557L126.865,68.896z"/>
			<path d="M105.645,65.956c0.038-0.328,0.479-0.258,0.834-0.273c0.026,0.207-0.023,0.344-0.186,0.371
				C106.003,65.907,106.042,65.864,105.645,65.956z"/>
			<path d="M103.235,65.028c-0.255,0.102-1.212,0.109-1.39-0.18C102.366,64.853,102.799,64.944,103.235,65.028z"/>
			<path d="M98.324,65.308c0.162,0.059,0.545-0.107,0.557,0.096C98.934,65.763,98.271,65.538,98.324,65.308z"/>
			<path d="M98.047,64.567c0.096,0.316-0.29,0.143-0.464,0.188c0-0.061,0-0.123,0-0.188C97.737,64.567,97.893,64.567,98.047,64.567z
				"/>
			<path d="M98.881,65.403c-0.012-0.203-0.395-0.037-0.557-0.096C98.271,65.538,98.934,65.763,98.881,65.403z M101.846,64.849
				c0.178,0.289,1.135,0.281,1.39,0.18C102.799,64.944,102.366,64.853,101.846,64.849z M97.583,64.755
				c0.174-0.045,0.56,0.129,0.464-0.188c-0.154,0-0.31,0-0.464,0C97.583,64.632,97.583,64.694,97.583,64.755z M106.215,66.759
				c-4.527-0.482-8.377-0.891-10.3-1.076c-0.204,0.537-0.524,1.195-0.834,1.945c-0.15,0.359-0.401,0.826-0.571,1.242l-0.529-0.123
				c0.433-1.08,0.642-2.381,1.009-3.527c0.358,0.158,0.798-0.035,0.833-0.465c-0.428-0.178-0.667,0.309-0.833,0.094
				c0.08-0.725,0.23-1.684,0.181-2.506l0.455-0.023c0.028,0.541,0.039,1.092,0.105,1.604c2.019,0.385,4.064,0.389,6.115,0.555
				c1.08,0.084,2.744,0.266,4.718,0.502l-0.085,0.703c-0.355,0.016-0.796-0.055-0.834,0.273c0.397-0.092,0.358-0.049,0.648,0.098
				L106.215,66.759z"/>
			<path fill="#009BA7" d="M94.155,70.593c0.166,0.721,0.065,1.721-0.162,2.775C94.201,72.288,94.282,71.313,94.155,70.593z"/>
			<path fill="#5F7884" d="M93.661,68.427c-0.352-0.057-0.502-0.355-0.881-0.391c-0.131-1.053-0.097-2.139-0.135-3.266
				c-0.039-1.17-0.313-2.508,0.069-3.107c0.549,0.139,1.313,0.039,1.822,0.232c0.27,0.783,0.081,2.021,0,2.875
				C94.657,64.952,94.078,67.458,93.661,68.427z"/>
			<path d="M92.78,68.036c0.379,0.035,0.529,0.334,0.881,0.391c0.417-0.969,0.996-3.475,0.876-3.656c0.081-0.854,0.27-2.092,0-2.875
				c-0.51-0.193-1.273-0.094-1.822-0.232c-0.382,0.6-0.108,1.938-0.069,3.107C92.684,65.897,92.649,66.983,92.78,68.036z
				 M94.989,65.22c-0.367,1.146-0.576,2.447-1.009,3.527c-0.057,0.164-0.127,0.311-0.196,0.455
				c-0.482-0.072-0.688-0.424-1.205-0.465c-0.181-1.26-0.135-2.553-0.185-3.889c-0.054-1.398-0.433-2.988,0.093-3.707
				c0.757,0.166,1.799,0.055,2.502,0.275c0.107,0.273,0.162,0.586,0.181,0.926c0.05,0.822-0.101,1.781-0.181,2.506
				c0.166,0.215,0.405-0.271,0.833-0.094C95.787,65.185,95.348,65.378,94.989,65.22z"/>
			<path d="M92.422,78.577c-0.12,0.605-0.251,1.246-0.49,1.832c-0.286,0.697-0.857,1.686-1.189,1.846
				C90.916,82.11,91.664,80.558,92.422,78.577z"/>
			<path fill="#009BA7" d="M90.634,70.032c0.12-0.107,0.247-0.195,0.387-0.27c-0.236,0.359-0.506,0.787-0.792,1.256
				c0.035-0.109,0.073-0.213,0.112-0.318c0.042-0.115,0.089-0.23,0.135-0.326v-0.006c0.012-0.033,0.027-0.064,0.047-0.096
				C90.561,70.181,90.6,70.103,90.634,70.032z"/>
			<path fill="#009BA7" d="M90.341,70.7c-0.039,0.105-0.077,0.209-0.112,0.318c0,0.004,0,0.004-0.004,0.008
				c-0.012,0.023-0.026,0.045-0.042,0.068C90.236,70.96,90.286,70.819,90.341,70.7z"/>
			<path fill="#009BA7" d="M90.174,71.114c-0.181,0.297-0.361,0.609-0.54,0.93c0.101-0.389,0.186-0.715,0.259-0.941
				c0.004-0.004,0.336-0.885,0.336-0.887c0.286-0.469,0.498-0.453,0.792-0.453c-0.14,0.074-0.267,0.162-0.387,0.27
				c-0.034,0.07-0.073,0.148-0.111,0.24c-0.02,0.031-0.035,0.063-0.047,0.096v0.006c-0.046,0.096-0.093,0.211-0.135,0.326
				c-0.055,0.119-0.104,0.26-0.158,0.395c0,0.004-0.005,0.004-0.005,0.008C90.174,71.106,90.174,71.11,90.174,71.114z"/>
			<path fill="#009BA7" d="M89.005,74.802c0.22-1.018,0.444-2.004,0.629-2.754v-0.004c0.179-0.32,0.359-0.633,0.54-0.93
				C89.815,72.067,89.387,73.396,89.005,74.802z"/>
			<path fill="#442F20" d="M89.715,80.368c-0.273-0.434-0.324-2.049,1.043-1.514C92.316,79.55,89.985,80.847,89.715,80.368z"/>
			<path fill="#009BA7" d="M90.604,82.306c-1.108,0.344-1.579,0.082-1.946-0.273C89.24,82.372,90.043,82.476,90.604,82.306z"/>
			<path d="M89.634,72.048c-0.629,1.117-1.216,2.297-1.502,3.205l-0.092-0.027c0.756-7.174,3.177-6.273,3.675-6.631
				c0.008,0.045,0.02,0.096,0.03,0.143c-0.107,0.115-0.378,0.498-0.725,1.025c-0.294,0-0.506-0.016-0.792,0.453
				c0,0.002-0.332,0.883-0.336,0.887c-0.073,0.227-0.158,0.553-0.259,0.941L89.634,72.048L89.634,72.048z"/>
			<path d="M88.047,79.28c-0.1,0.805-0.127,1.496-0.046,1.975C87.847,80.575,87.896,79.921,88.047,79.28z"/>
			<path d="M87.73,76.245c0.012,0,0.02,0,0.031,0c-0.008,0.035-0.016,0.066-0.023,0.102C87.738,76.315,87.734,76.28,87.73,76.245z"
				/>
			<path d="M82.388,61.88c-0.139,0.262-0.401,0.168-0.556,0C81.871,61.679,82.322,61.806,82.388,61.88z"/>
			<path d="M81.832,61.88c0.154,0.168,0.417,0.262,0.556,0C82.322,61.806,81.871,61.679,81.832,61.88z M91.745,60.583
				c1.197-0.229,2.232,0.174,3.614,0c0.182,0.486,0.235,1.1,0.266,1.736l-0.455,0.023c-0.019-0.34-0.073-0.652-0.181-0.926
				c-0.703-0.221-1.745-0.109-2.502-0.275c-0.525,0.719-0.146,2.309-0.093,3.707c0.05,1.336,0.004,2.629,0.185,3.889
				c0.518,0.041,0.723,0.393,1.205,0.465c0.069-0.145,0.14-0.291,0.196-0.455l0.529,0.123c-0.104,0.268-0.177,0.514-0.17,0.699
				c0.008,0.209,0.116,0.371,0.271,0.549l-0.687,0.098c-0.634-0.789-1.946-1.006-2.903-0.453c0.347-0.527,0.617-0.91,0.725-1.025
				c-0.011-0.047-0.022-0.098-0.03-0.143c0.012-0.01,0.023-0.021,0.03-0.033c-0.285-1.104-0.308-2.459-0.556-3.602
				c-3.513-0.941-7.165-1.67-10.925-2.297l0.085-0.506c0.05-0.188,0.143-0.193,0.278-0.092c-0.017-0.137,0.034-0.34-0.094-0.367
				c-0.216,0.463-0.127-0.217-0.378-0.287l0.081-0.385c3.66,0.752,7.277,1.51,10.952,2.154
				C91.564,62.421,91.727,61.454,91.745,60.583z"/>
			<path d="M80.156,61.411c0.251,0.07,0.162,0.75,0.378,0.287c0.128,0.027,0.077,0.23,0.094,0.367
				c-0.136-0.102-0.229-0.096-0.278,0.092c-0.278-0.061-0.31-0.365-0.278-0.74C80.103,61.411,80.134,61.411,80.156,61.411z"/>
			<path fill="#194093" d="M79.423,76.333c-0.077,0-0.154-0.008-0.231-0.008C79.199,76.298,79.261,76.298,79.423,76.333z"/>
			<path d="M78.511,62.378c0.187,0.027,0.371,0.059,0.557,0.088C78.882,62.437,78.697,62.407,78.511,62.378z"/>
			<path d="M79.145,61.142c0.016,0.27-0.374,0.277-0.463,0.186C78.697,61.126,78.913,61.126,79.145,61.142z"/>
			<path d="M79.516,75.858c2.556-0.049,6.003-0.135,8.524-0.633l0.092,0.027c-0.034,0.123-0.065,0.234-0.092,0.344
				c-2.521,0.512-5.969,0.594-8.524,0.648c0.008,0.004,0.012,0.008,0.019,0.02c-0.223-0.008-0.416-0.016-0.578-0.023
				c0.123-0.008,0.247-0.02,0.374-0.023c-0.012-0.016-0.34-0.063-0.88-0.123C78.535,76.03,78.867,75.96,79.516,75.858z"/>
			<path d="M75.995,60.679c-0.754,0.473-1.263-0.242-2.224-0.189C74.288,60.235,75.377,60.472,75.995,60.679z"/>
			<path d="M72.938,61.142c-0.179-0.039-0.398-0.033-0.371-0.277c0.224,0.039,0.201-0.17,0.463-0.092
				C73.068,60.966,72.968,61.015,72.938,61.142z"/>
			<path d="M73.771,60.489c0.961-0.053,1.47,0.662,2.224,0.189C75.377,60.472,74.288,60.235,73.771,60.489z M78.682,61.327
				c0.089,0.092,0.479,0.084,0.463-0.186C78.913,61.126,78.697,61.126,78.682,61.327z M72.381,60.679
				c-0.093-0.309,0.127-0.309,0.371-0.277c-0.016-0.107,0.016-0.262-0.093-0.277l0.108-0.576c2.524,0.467,5.007,0.973,7.47,1.475
				v0.004l-0.081,0.385c-0.022,0-0.054,0-0.085,0.006c-0.031,0.375,0,0.68,0.278,0.74l-0.085,0.506
				c-0.397-0.066-0.795-0.135-1.197-0.197c-0.186-0.029-0.37-0.061-0.557-0.088c-1.852-0.305-3.729-0.584-5.628-0.857l0.055-0.379
				c0.03-0.127,0.131-0.176,0.092-0.369c-0.262-0.078-0.239,0.131-0.463,0.092L72.381,60.679z"/>
			<path d="M72.103,60.216c0.163-0.059,0.545,0.111,0.557-0.092c0.108,0.016,0.077,0.17,0.093,0.277
				c-0.244-0.031-0.464-0.031-0.371,0.277c-0.135-0.143-0.595,0.123-0.648-0.277C71.948,60.429,72.165,60.628,72.103,60.216z"/>
			<path d="M68.771,59.841c0.186-0.193,0.344-0.34,0.645-0.186c0.03,0.217-0.016,0.359-0.093,0.469
				c-0.081-0.063-0.166-0.117-0.185,0C68.895,60.149,69.065,59.767,68.771,59.841z"/>
			<path fill="#004A99" d="M87.387,77.835c-6.934,1.193-12.99,0.787-19.187-0.705c-0.046-0.646-0.243-1.455-0.24-2.047
				c3.282,1.34,7.931,1.391,11.277,1.336c-0.027-0.039-0.058-0.072-0.046-0.094c0.077,0,0.154,0.008,0.231,0.008
				c-0.162-0.035-0.224-0.035-0.231-0.008c-0.302-0.01-0.614-0.035-0.946-0.049c0.235-0.012,0.471-0.027,0.711-0.035
				c0.162,0.008,0.355,0.016,0.578,0.023h0.004c0.209,0.225,1.009,0.139,1.618,0.111c1.877-0.088,4.262,0.016,6.574-0.131
				c0.004,0.035,0.008,0.07,0.008,0.102C87.6,76.97,87.43,77.394,87.387,77.835z"/>
			<path d="M67.934,77.538c-0.05-0.76-0.186-1.896-0.093-2.502c0.039,0.02,0.081,0.039,0.119,0.047
				c-0.003,0.592,0.194,1.4,0.24,2.047c6.196,1.492,12.253,1.898,19.187,0.705c-0.015,0.143-0.015,0.293,0.004,0.449
				C80.735,79.757,74.13,79.081,67.934,77.538z"/>
			<path d="M67.563,59.655c0.243,0.133,0.528,0.217,0.556,0.561c0.433-0.232,1.436-0.031,1.853,0.463
				c-1.313-0.34-2.578-0.012-3.799-0.652c0.12-0.338,0.012-0.633,0.093-0.83c0.433-0.033-0.135,0.484,0.186,0.645
				C66.845,59.548,67.439,60.226,67.563,59.655z"/>
			<path d="M66.173,60.583c2.263,0.316,4.502,0.617,6.71,0.938c1.899,0.273,3.776,0.553,5.628,0.857
				c-4.011-0.629-8.13-1.174-12.338-1.736c-0.127,0.25-0.208,0.559-0.258,0.887C65.965,61.173,66.046,60.849,66.173,60.583z"/>
			<path d="M65.892,61.687c0.008-0.055,0.012-0.107,0.023-0.158C65.907,61.583,65.899,61.632,65.892,61.687z"/>
			<path d="M66.081,65.497c0.026-0.402-0.379-0.367-0.464-0.648c0.004-0.012,0.008-0.023,0.012-0.039
				c0.104,0.246,0.479,0.236,0.452,0.604c0.907,2.57,1.267,5.674,1.76,8.643c2.645,1.092,8.409,1.768,10.609,2.039
				c-0.093,0.061,0.108,0.111,0.506,0.146c-0.24,0.008-0.476,0.023-0.711,0.035c-0.003,0-0.011,0-0.015,0
				c-3.136-0.186-7.486-0.648-10.39-1.889C67.348,71.335,66.988,68.138,66.081,65.497z"/>
			<path fill="#442F20" d="M66.173,78.187c-0.073-0.42-0.502-0.482-0.648-0.828C65.973,77.403,66.1,77.767,66.173,78.187z"/>
			<path fill="#009BA7" d="M65.301,80.323c0.564,0.057,1.116-0.059,1.471-0.416C66.343,80.487,65.826,80.437,65.301,80.323z"/>
			<path fill="#5F7884" d="M64.911,64.476c-0.579,0-0.691-0.041-1-0.23c-0.146-2.197,0.212-3.746-0.448-6.172
				c0.606-0.123,1.429-0.178,2.089,0.059C65.771,60.642,64.984,62.2,64.911,64.476z"/>
			<path d="M65.062,64.942c-0.563,0.068-0.899-0.09-1.205-0.279c-0.146-2.197,0.197-4.432-0.463-6.861
				c0.606-0.115,1.561-0.33,2.224-0.088C65.837,60.22,65.135,62.667,65.062,64.942z M65.552,58.132
				c-0.66-0.236-1.482-0.182-2.089-0.059c0.66,2.426,0.302,3.975,0.448,6.172c0.309,0.189,0.421,0.23,1,0.23
				C64.984,62.2,65.771,60.642,65.552,58.132z"/>
			<path d="M65.617,65.868c0.533,1.875,1.131,4.207,1.205,7.041c0.054,2.117,0.984,4.459,0.648,6.205
				c-0.065,0.34-0.328,0.609-0.699,0.793c0.209-0.211,0.348-0.504,0.383-0.895c0.154-1.807-0.525-3.775-0.575-5.729
				c-0.066-2.617-0.595-4.775-1.066-6.51c-0.737-0.467-2.289-0.443-3.03,0c-0.281,2.139-0.289,4.066-0.166,5.902
				c0.054,0.813,0.243,1.992,0.409,3.086c0.178,1.162,0.212,2.527,0.656,3.424c0.22,0.453,0.726,0.811,1.294,1
				c-0.646-0.109-1.217-0.395-1.467-0.889c-0.503-0.969-0.542-2.447-0.741-3.701c-0.19-1.186-0.402-2.463-0.464-3.34
				c-0.14-1.988-0.132-4.08,0.186-6.389C63.03,65.38,64.783,65.366,65.617,65.868z"/>
			<path d="M62.277,59.378c-0.594,0.016-0.973-0.191-1.292-0.463C61.375,58.749,62.023,59.104,62.277,59.378z"/>
			<path d="M59.78,58.362c-0.518-0.242-1.271-0.139-1.39-0.561C59,57.843,59.529,57.966,59.78,58.362z"/>
			<path d="M57.371,57.339c0.267,0.047,0.421,0.201,0.464,0.463C57.568,57.765,57.413,57.61,57.371,57.339z"/>
			<path d="M56.537,57.065c-0.429,0.234-1.745-0.143-2.038-0.652C55.325,56.487,55.8,56.907,56.537,57.065z"/>
			<path d="M53.665,55.765c0.204,0.039,0.073,0.492,0,0.561c-2.015-0.781-4.467-1.719-6.671-2.6c0-0.119,0-0.246,0-0.367
				C49.236,54.124,51.576,55.321,53.665,55.765z"/>
			<path d="M43.937,52.526c0.76-0.271,2.123,0.211,2.779,1.014C45.519,53.472,44.848,52.88,43.937,52.526z"/>
			<path d="M43.751,52.433c-0.587-0.143-0.645-0.297-1.297-0.281c-0.012-0.229-0.174-0.287,0-0.459
				c0.413,0.193,0.625,0.51,1.112,0.186C43.639,52.046,43.72,52.216,43.751,52.433z"/>
			<path d="M41.063,50.761c-0.003,0.271-0.829,0.209-0.741-0.186C40.767,50.44,40.709,50.812,41.063,50.761z"/>
			<path d="M40.322,50.575c-0.088,0.395,0.738,0.457,0.741,0.186C40.709,50.812,40.767,50.44,40.322,50.575z M41.539,50.579
				c0.378,0.143,0.648,0.352,0.637,0.74c-0.085-0.068-0.139-0.168-0.185-0.277c-0.14,0.174-0.178,0.445-0.186,0.742
				c-0.097-0.023-0.182-0.049-0.263-0.084c-0.235-0.121-0.401-0.299-0.571-0.475c0.347-0.043,0.42-0.113,0.556,0.188
				c0.073-0.02,0.093-0.094,0.186-0.094c-0.232-0.459-0.772-0.369-1.02,0c-0.324-0.477-1.193-0.416-1.575-0.832
				c0.023-0.316,0.66-0.02,0.463-0.561C40.014,50.29,40.921,50.353,41.539,50.579z"/>
			<path d="M37.732,49.464c0.166-0.178,1.035-0.193,1.016,0.283c-0.564-0.15-0.414-0.191-0.927,0
				C37.829,49.61,37.837,49.487,37.732,49.464z"/>
			<path d="M37.08,48.911c-0.379,0.205-1.425,0.125-1.482-0.559c0.594,0.035,0.791,0.609,1.39,0.369
				C36.972,48.831,37.006,48.892,37.08,48.911z"/>
			<path d="M36.432,155.833c-0.15-2.049-0.568-4.5-0.742-7.133c-0.162-2.447-0.396-6.212-0.092-8.433
				c-0.475-0.617-0.112-1.934-0.186-2.965c-0.031-0.436-0.235-0.869-0.278-1.297c-0.115-1.221,0.07-2.447,0-3.707
				c-0.046-0.891-0.401-1.783-0.463-2.686c-0.034-0.506-0.055-1.008-0.065-1.521c-0.035-1.451,0.003-2.951-0.027-4.414
				c-0.038-1.863,0.235-3.678,0.278-5.553c0.031-1.283-0.155-2.6-0.186-3.896c-0.178-7.522-0.316-14.938-0.741-23.065
				c-0.127-2.467-0.023-4.938-0.093-7.414l1.154-0.037c1.008,30.86,2.428,72.817,2.768,80.947l-0.428,0.022
				c-0.131-2.668-0.606-5.934-0.529-8.203C36.629,156.316,36.393,156.214,36.432,155.833z"/>
			<path d="M33.651,58.085c0.085,0.016,0.108,0.092,0.108,0.197c0,0.143-0.046,0.334-0.016,0.447
				c-0.104-0.088-0.197-0.305-0.173-0.479C33.582,58.185,33.609,58.128,33.651,58.085z"/>
			<path d="M33.467,56.417c0.158,0.213,0.196,0.549,0.185,0.922C33.366,57.271,33.358,56.595,33.467,56.417z"/>
			<path d="M34.856,118.126c-0.043,1.875-0.316,3.688-0.278,5.554c0.03,1.463-0.008,2.963,0.027,4.414h-0.058
				c-0.491-17.199-1.073-38.923-1.418-54.933c0.066,0.713,0.197,1.439,0.244,2.158c0.065,1.014-0.062,1.998,0,2.965
				c0.115,1.807,0.409,3.629,0.463,5.465c0.069,2.477-0.034,4.947,0.093,7.414c0.425,8.129,0.563,15.543,0.741,23.065
				C34.701,115.525,34.888,116.844,34.856,118.126z"/>
			<path d="M33.744,48.171c0.14,0.107,0.413,0.082,0.371,0.371c-0.379,0.285-0.741,0.094-0.927,0.459c-0.281-0.113,0.1-0.32,0-0.551
				C33.463,48.712,33.641,48.353,33.744,48.171z"/>
			<path d="M34.169,58.267c0.192,6.152,0.486,15.188,0.822,25.445l-1.154,0.037c-0.054-1.836-0.348-3.658-0.463-5.465
				c-0.062-0.967,0.065-1.951,0-2.965c-0.047-0.719-0.178-1.445-0.244-2.158c-0.004-0.012-0.004-0.02-0.004-0.027
				c-0.007-0.395-0.015-0.783-0.022-1.17c0-0.004,0-0.012,0-0.016v-0.004c0.042-2.58,0.166-5.102-0.008-7.652
				c-0.135-2.029-0.016-4.061,0.097-6.064l0.379,0.023c-0.024,0.174,0.069,0.391,0.173,0.479c-0.03-0.113,0.016-0.305,0.016-0.447
				L34.169,58.267z"/>
			<path d="M34.115,48.542c0.042-0.289-0.231-0.264-0.371-0.371c-0.104,0.182-0.281,0.541-0.556,0.279c0.1,0.23-0.281,0.438,0,0.551
				C33.374,48.636,33.736,48.827,34.115,48.542z M34.764,46.688c0.332,1.178-0.274,2.98-2.224,2.873
				c-0.035-0.346,0.231-0.389,0.463-0.465c-0.073-0.172-0.12-0.377-0.277-0.461c0.42-0.381,1.011-1.152,1.76-1.113
				C34.717,47.384,34.602,46.899,34.764,46.688z"/>
			<path d="M31.428,145.822c-0.548,0.009-0.845,0.419-1.289,0.689C30.475,146.206,30.502,145.559,31.428,145.822z"/>
			<path d="M31.428,145.829c0.938,1.787-2.733,2.944-3.451,3.137c-0.896,0.252-1.849-0.187-3.201-0.368
				c1.077,0.118,2.104,0.319,3.225,0.008c0.718-0.193,1.471-0.728,2.131-1.111C30.771,147.126,31.49,146.604,31.428,145.829z"/>
			<path d="M29.853,146.661c-1.799,0.711-3.995,0.588-6.207,0.274C25.857,147.249,27.737,147.036,29.853,146.661z"/>
			<path d="M35.689,148.7c0.174,2.633,0.592,5.084,0.742,7.133c-0.039,0.381,0.197,0.483,0.37,0.646
				c-0.077,2.271,0.398,5.535,0.529,8.203c0.012,0.301,0.022,0.596,0.027,0.875c-0.707,0.937-2.174,0.939-3.521,1.113
				c-1.425,0.182-2.884,0.592-4.263,0.561c-2.135-0.055-3.81-0.949-5.096-1.949c-0.058-5.524-1.038-10.741-1.104-16.088
				c0.108,5.328,1.552,10.32,1.609,15.849c14.335,6.56,10.386-8.599,10.424-8.978c-0.054-0.744-0.421-12.535-0.86-27.973h0.058
				c0.011,0.514,0.031,1.016,0.065,1.521c0.062,0.902,0.417,1.795,0.463,2.686c0.07,1.26-0.115,2.486,0,3.707
				c0.043,0.428,0.247,0.861,0.278,1.297c0.073,1.031-0.289,2.348,0.186,2.965C35.293,142.488,35.527,146.253,35.689,148.7z"/>
			<path fill="#8E6008" d="M28.162,144.249c0.221,0.235,0.004,0.549,0,0.838c0.494-0.246-2.926,3.451-4.313-0.284
				c-0.132-0.074-0.255-0.158-0.366-0.248c-0.012-0.316-0.027-0.664-0.043-1.031c0.089,0.059,0.178,0.106,0.274,0.16
				c0.035-0.117,0.089-0.218,0.185-0.265c0.684,0.451,1.656,0.94,2.733,1.022c0.298-0.022,0.599-0.09,0.903-0.192
				c0.043,0.047,0.066,0.094,0.081,0.14C27.799,144.359,27.98,144.313,28.162,144.249z"/>
			<path d="M22.996,144.063c0.07-0.237,0.074-0.541,0.278-0.645c0.054,0.033,0.108,0.068,0.166,0.104
				c0.016,0.367,0.031,0.715,0.043,1.031C23.29,144.406,23.124,144.241,22.996,144.063z"/>
			<path d="M22.348,49.376c0.383-0.023,0.664-0.139,0.742-0.465c0.212,0.063,0.474,0.082,0.647,0.186
				c-0.135,0.271-0.362-0.127-0.647,0c-0.013,0.162,0.11,0.193,0.092,0.367c0.726,0.012,0.695,0.107,1.204,0.375
				c0.205-0.043,0.124-0.549-0.185-0.375c0.073-0.076,0.101-0.209,0.093-0.367c0.363,0.082,0.618,0.41,0.463,0.742
				c0.482,0.217,0.652-0.414,1.204-0.092c0.297-0.014,0.205-0.418,0.371-0.561c0.336-0.023,0.212,0.41,0.371,0.561
				c0.15-0.133,0.1-0.461,0.277-0.561c0.439,0.166,0.413-0.051,0.834-0.09c0.039,0.148,0.289,0.076,0.186,0.367
				c0.684-0.066,1.069,0.141,1.204-0.463c0.162,0.027,0.213,0.162,0.186,0.375c0.301-0.303,1.37-0.672,1.761-0.279
				c0.34-0.539,0.722-0.043,1.205-0.555c0.003,0.215-0.159,0.273-0.094,0.555c-0.86,0.549-2.633,0.375-3.892,0.928
				c-0.76,0.008-1.818,0.195-2.783,0.195c-0.776,0-1.494-0.119-1.941-0.57C23.448,50.147,22.395,49.866,22.348,49.376z"/>
			<path fill="#8E6008" d="M21.221,46.423c-0.514-3.244-0.726-13.721-0.097-15.246c0.575-1.396,2.749-2.34,4.633-2.51
				c2.927-0.266,5.162,0.625,6.466,2.123c0.341,3.139,0.387,13.092,0.387,15.246C31.081,46.993,22.896,46.772,21.221,46.423z"/>
			<path d="M20.68,64.567c-0.011-1.395,0.209-2.766,0.186-4.166c-0.058-3.248-0.988-6.721-0.656-10.195
				c0.004-0.031,0.004-0.059,0.008-0.09c1.642,0.291,3.49,0.463,5.359,0.514c2.721,0.074,5.481-0.135,7.705-0.703
				c0.073,0.023,0.093,0.098,0.186,0.098c-0.592,2.078-0.077,4.25-0.186,6.578c-0.027,0.541-0.058,1.084-0.089,1.625
				c-0.112,2.004-0.231,4.035-0.097,6.064c0.174,2.551,0.05,5.072,0.008,7.652c-0.259-11.918-0.371-20.4-0.204-20.982
				c-0.093,0-0.506-0.078-0.58-0.102c-3.752,0.955-7.157,1.002-11.195,0.291c-0.313,3.096,1.61,75.648,2.316,92.371
				c-0.058-0.035-0.112-0.069-0.166-0.104c-0.204,0.104-0.208,0.406-0.278,0.645c0.128,0.179,0.294,0.344,0.487,0.49
				c0.065,1.469,0.123,2.309,0.158,2.379c-0.371-0.24-0.24-0.984-0.646-1.197c-0.926-9.934-0.664-20.028-1.111-29.561
				c-0.541-11.447-0.799-22.406-0.834-33.264c-0.016-4.641,0.069-9.203-0.186-13.805C20.78,67.601,20.695,66.056,20.68,64.567z"/>
			<path d="M33.651,57.339c0.012-0.373-0.026-0.709-0.185-0.922C33.358,56.595,33.366,57.271,33.651,57.339z M32.54,49.562
				c1.949,0.107,2.556-1.695,2.224-2.873c-0.162,0.211-0.047,0.695-0.278,0.834c-0.749-0.039-1.34,0.732-1.76,1.113
				c0.157,0.084,0.204,0.289,0.277,0.461C32.771,49.173,32.505,49.216,32.54,49.562z M38.748,49.747
				c0.02-0.477-0.85-0.461-1.016-0.283c0.104,0.023,0.097,0.146,0.089,0.283C38.334,49.556,38.184,49.597,38.748,49.747z
				 M35.319,47.243c0.263,0.73,2.112,1.367,2.965,1.758c0.676,0.313,1.846,0.811,3.32,1.416l-0.065,0.162
				c-0.618-0.227-1.525-0.289-1.958-0.652c0.197,0.541-0.439,0.244-0.463,0.561c0.382,0.416,1.251,0.355,1.575,0.832
				c0.247-0.369,0.787-0.459,1.02,0c-0.093,0-0.112,0.074-0.186,0.094c-0.136-0.301-0.209-0.23-0.556-0.188
				c0.17,0.176,0.336,0.354,0.571,0.475l-0.104,0.242c-0.969-0.408-1.931-0.861-2.876-1.367c-1.711-0.914-3.231-2.018-4.633-0.736
				c-0.004,0.316,0.085,3.428,0.239,8.428l-0.409,0.016c0-0.105-0.023-0.182-0.108-0.197c-0.042,0.043-0.069,0.1-0.08,0.166
				l-0.379-0.023c0.031-0.541,0.062-1.084,0.089-1.625c0.108-2.328-0.406-4.5,0.186-6.578c-0.093,0-0.112-0.074-0.186-0.098
				c-2.224,0.568-4.984,0.777-7.705,0.703l0.011-0.41c0.965,0,2.023-0.188,2.783-0.195c1.259-0.553,3.031-0.379,3.892-0.928
				c-0.065-0.281,0.097-0.34,0.094-0.555c-0.483,0.512-0.865,0.016-1.205,0.555c-0.391-0.393-1.46-0.023-1.761,0.279
				c0.027-0.213-0.023-0.348-0.186-0.375l-0.026-0.588c1.899-0.107,3.142-0.49,4.382-1.266c0-0.83,0-1.662,0-2.502
				c-0.549-1.096-0.395-2.146-0.371-3.613c0.062-3.83,0.224-7.443-0.186-11.207c-1.305-1.498-4.485-1.846-7.412-1.574
				c-1.884,0.174-4.706,1.012-5.281,2.404c-0.178,0.424-0.247,0.92-0.263,1.437l-0.656-0.004c0.008-0.443,0.008-0.895-0.008-1.336
				c1.935-6.432,19.693-8.361,14.918,8.154c-0.468,1.609-0.464,3.398-0.094,4.91c0.128,0.521,0.761,0.98,0.927,1.576
				C35.305,45.997,35.13,46.72,35.319,47.243z M36.987,48.722c-0.599,0.24-0.796-0.334-1.39-0.369
				c0.058,0.684,1.104,0.764,1.482,0.559C37.006,48.892,36.972,48.831,36.987,48.722z"/>
			<path d="M23.09,48.911c-0.078,0.326-0.359,0.441-0.742,0.465c0.047,0.49,1.101,0.771,1.298,0.273
				c0.447,0.451,1.165,0.57,1.941,0.57l-0.011,0.41c-1.869-0.051-3.718-0.223-5.359-0.514c-0.004,0.031-0.004,0.059-0.008,0.09
				l-0.224-0.021c0.015-0.053,0.03-0.111,0.047-0.16c-0.232-0.02-0.448-0.02-0.464,0.186l-1.051,0.076
				c-0.354-0.539-0.513-0.768-0.895-1.285c-0.213-1.779-1.001-4.836,1.481-4.906c-0.587-3.912,0.217-8.084,0.286-12.008l0.656,0.004
				c-0.042,1.352,0.305,2.908,0.263,4.129c-0.132,3.666-0.698,7.963-0.186,11.205c1.676,0.352,3.664,1.201,5.652,1.211
				c0.598,0.002,1.277-0.191,1.946-0.186c0.523,0.002,1.007-0.014,1.455-0.037l0.026,0.588c-0.135,0.604-0.521,0.396-1.204,0.463
				c0.104-0.291-0.146-0.219-0.186-0.367c-0.421,0.039-0.395,0.256-0.834,0.09c-0.178,0.1-0.127,0.428-0.277,0.561
				c-0.159-0.15-0.035-0.584-0.371-0.561c-0.166,0.143-0.074,0.547-0.371,0.561c-0.552-0.322-0.722,0.309-1.204,0.092
				c0.155-0.332-0.1-0.66-0.463-0.742c0.008,0.158-0.02,0.291-0.093,0.367c0.309-0.174,0.39,0.332,0.185,0.375
				c-0.509-0.268-0.479-0.363-1.204-0.375c0.019-0.174-0.104-0.205-0.092-0.367c0.285-0.127,0.513,0.271,0.647,0
				C23.563,48.993,23.302,48.974,23.09,48.911z"/>
			<path d="M21.221,46.423c1.675,0.35,9.86,0.57,11.389-0.387c0-2.154-0.046-12.107-0.387-15.246
				c-1.304-1.498-3.539-2.389-6.466-2.123c-1.884,0.17-4.058,1.115-4.633,2.51C20.495,32.702,20.707,43.179,21.221,46.423z
				 M25.776,48.636c-1.988-0.01-3.977-0.859-5.652-1.211c-0.513-3.242,0.054-7.539,0.186-11.205
				c0.042-1.221-0.305-2.777-0.263-4.129c0.016-0.516,0.085-1.012,0.263-1.436c0.575-1.393,3.397-2.23,5.281-2.404
				c2.927-0.271,6.107,0.076,7.412,1.574c0.409,3.764,0.247,7.377,0.186,11.207c-0.023,1.467-0.178,2.518,0.371,3.613
				c0,0.84,0,1.672,0,2.502c-1.24,0.775-2.482,1.158-4.382,1.266c-0.448,0.023-0.932,0.039-1.455,0.037
				C27.054,48.444,26.374,48.638,25.776,48.636z"/>
			<path d="M19.568,50.21c0.016-0.205,0.231-0.205,0.464-0.186c-0.017,0.049-0.032,0.107-0.047,0.16
				c-0.055,0.156-0.14,0.279-0.324,0.303C19.669,50.353,19.676,50.22,19.568,50.21z"/>
			<path d="M37.821,165.934c-3.162,2.942-11.176,3.387-14.269,0.188c-2.46-1.688-4.888-110.521-5.035-115.834l1.051-0.076
				c0.107,0.01,0.101,0.143,0.093,0.277c0.185-0.023,0.27-0.146,0.324-0.303l0.224,0.021c-0.332,3.475,0.599,6.947,0.656,10.195
				c0.023,1.4-0.196,2.771-0.186,4.166c0.016,1.488,0.101,3.033,0.186,4.539c0.255,4.602,0.17,9.164,0.186,13.805
				c0.035,10.857,0.293,21.815,0.834,33.264c0.447,9.531,0.186,19.628,1.111,29.562c0.405,0.213,0.274,0.957,0.646,1.197
				c0.004,0,0.004,0.004,0.004,0.004c2.212,0.313,4.408,0.436,6.207-0.275c0.12-0.023,0.213-0.072,0.286-0.15
				c0.444-0.27,0.741-0.68,1.289-0.688v0.006c0.063,0.773-0.656,1.297-1.297,1.664c-0.66,0.385-1.413,0.918-2.131,1.111
				c-1.12,0.313-2.147,0.11-3.225-0.008c-0.026-0.004-0.054-0.017-0.084-0.017c-0.228-0.022-0.456-0.047-0.688-0.06
				c-0.204-0.016-0.416-0.02-0.637-0.008c0,0.225,0,0.443,0.008,0.664c0,0.004,0,0.012,0,0.016
				c0.065,5.347,1.046,10.563,1.104,16.089c1.286,1,2.961,1.896,5.096,1.948c1.379,0.031,2.838-0.379,4.263-0.561
				c1.348-0.174,2.814-0.178,3.521-1.113c-0.005-0.279-0.016-0.574-0.027-0.875l0.428-0.022
				C37.786,165.303,37.81,165.732,37.821,165.934z"/>
		</g>
		<g>
			<path fill="none" stroke="#000000" stroke-width="1.5442" stroke-linecap="round" stroke-linejoin="round" d="M79.538,76.265
				c0.209,0.225,1.009,0.139,1.618,0.111c1.877-0.088,4.262,0.016,6.574-0.131c0.004,0.035,0.008,0.07,0.008,0.102
				c-0.139,0.623-0.309,1.047-0.352,1.488"/>
			<path fill="none" stroke="#000000" stroke-width="1.5442" stroke-linecap="round" stroke-linejoin="round" d="M78.956,76.241
				c0.162,0.008,0.355,0.016,0.578,0.023"/>
			<path fill="none" stroke="#000000" stroke-width="1.5442" stroke-linecap="round" stroke-linejoin="round" d="M79.191,76.325
				c-0.302-0.01-0.614-0.035-0.946-0.049"/>
			<path fill="none" stroke="#000000" stroke-width="1.5442" stroke-linecap="round" stroke-linejoin="round" d="M67.96,75.083
				c3.282,1.34,7.931,1.391,11.277,1.336c-0.027-0.039-0.058-0.072-0.046-0.094"/>
			<path fill="none" stroke="#000000" stroke-width="1.5442" stroke-linecap="round" stroke-linejoin="round" d="M67.96,75.083
				c-0.003,0.592,0.194,1.4,0.24,2.047c6.196,1.492,12.253,1.898,19.187,0.705"/>
			<path fill="none" stroke="#000000" stroke-width="1.5442" stroke-linecap="round" stroke-linejoin="round" d="M79.423,76.333
				c-0.077,0-0.154-0.008-0.231-0.008C79.199,76.298,79.261,76.298,79.423,76.333z"/>
			<path fill="none" stroke="#000000" stroke-width="1.5442" stroke-linecap="round" stroke-linejoin="round" d="M78.956,76.241
				c-0.24,0.008-0.476,0.023-0.711,0.035c-0.003,0-0.011,0-0.015,0"/>
			<path fill="none" stroke="#000000" stroke-width="0.193" stroke-linecap="round" stroke-linejoin="round" d="M27.31,65.261
				c-0.981,0.332-2.502,0.375-3.521,0.094c-0.556-0.154-0.726-0.652-1.482-0.648c-0.324,0.258-0.352,1.107-0.186,1.574
				c2.668,0.563,6.394,0.469,6.949-1.297C28.694,64.702,27.656,65.142,27.31,65.261z"/>
			<path fill="none" stroke="#000000" stroke-width="0.193" stroke-linecap="round" stroke-linejoin="round" d="M226.92,88.536
				c-0.061,0.402,0.456,2.135-2.316,2.127c-1.744-0.01-3.164-0.352-3.242-2.033c0.476-0.447,3.568,0.559,4.355,0.645
				C226.188,89.097,226.249,88.515,226.92,88.536z"/>
			<path fill="none" stroke="#000000" stroke-width="1.5442" stroke-linecap="round" stroke-linejoin="round" d="M86.218,94.188
				c0.062,0,0.124,0,0.185,0c0.405,0.447,0.688,3.193,0.742,4.078c0.208,3.306-0.796,6.738-2.502,9.259
				c-5.652,8.345-13.478,1.703-14.084,1.117c-0.405-0.397-1.374-1.916-1.668-2.506c-1.455-2.945-2.436-7.254-1.945-10.835
				C68.428,95.216,82.724,93.927,86.218,94.188z"/>
			<path fill="none" stroke="#000000" stroke-width="1.1582" stroke-linecap="round" stroke-linejoin="round" d="M143.633,95.704
				c1.379-1.504,2.2-4.609,1.574-7.229c-2.98-0.104-5.049-0.143-7.412,0.74c0.059,2.914-0.111,5.926,2.225,7.039
				C141.396,96.919,142.76,96.644,143.633,95.704z"/>
			<path fill="none" stroke="#000000" stroke-width="0.7721" stroke-linecap="round" stroke-linejoin="round" d="M65.652,78.87
				c0.413-0.146,0.775-0.408,0.983-0.693c0.95-2.797-4.396-2.133-2.593,0.461c0.428,0.391,0.991,0.422,1.497,0.271
				c0.004,0,0.008,0,0.012-0.004c0.016-0.004,0.03-0.008,0.05-0.016C65.617,78.882,65.637,78.878,65.652,78.87z"/>
			<path fill="none" stroke="#000000" stroke-width="0.7721" stroke-linecap="round" stroke-linejoin="round" d="M89.784,81.063
				c1.776,0.096,2.313-3.031-0.092-2.779C87.9,78.7,88.252,80.974,89.784,81.063z"/>
		</g>
	</g>
	<path fill="#E0E053" d="M112.454,89.357c-0.118,0.082-0.604,0.201-0.722,0.283c-3.031-6.215-2.567-11.671-2.567-12.321
		c0.192-0.185,0.804-0.105,1.111,0.039C110.326,77.806,112.784,88.063,112.454,89.357z"/>
</g>
<g>
	<path d="M43.833,218.492l-10.213-15.5l-3.836,3.784v11.716h-7.102V184.07h7.102v13.997l13.168-13.997h9.331L38.7,197.652
		l13.894,20.84H43.833z"/>
	<path d="M57.316,218.492v-34.836h6.739v34.836H57.316z"/>
	<path d="M76.621,207.503c0.104,1.936,0.665,3.474,1.686,4.613c1.019,1.14,2.358,1.711,4.018,1.711c1.105,0,2.081-0.25,2.929-0.753
		c0.847-0.499,1.391-1.199,1.633-2.098h6.946c-0.795,2.626-2.177,4.647-4.147,6.064c-1.97,1.418-4.32,2.125-7.05,2.125
		c-8.501,0-12.752-4.631-12.752-13.893c0-1.97,0.276-3.75,0.829-5.34c0.552-1.59,1.355-2.955,2.41-4.096
		c1.054-1.14,2.341-2.013,3.862-2.618c1.521-0.604,3.267-0.906,5.235-0.906c3.94,0,6.922,1.262,8.942,3.784
		c2.022,2.523,3.033,6.324,3.033,11.405H76.621z M87.248,203.251c-0.034-0.933-0.198-1.754-0.492-2.462s-0.683-1.296-1.166-1.763
		c-0.484-0.466-1.037-0.812-1.659-1.036s-1.261-0.338-1.918-0.338c-1.348,0-2.514,0.492-3.499,1.478
		c-0.984,0.985-1.548,2.36-1.685,4.121H87.248z"/>
	<path d="M99.959,189.929v-6.272h6.739v6.272H99.959z M99.959,218.492v-25.505h6.739v25.505H99.959z"/>
	<path d="M130.865,218.492l-0.052-3.11c-1.555,2.523-3.924,3.784-7.102,3.784c-1.625,0-3.11-0.312-4.458-0.932
		c-1.349-0.623-2.507-1.521-3.475-2.697c-0.967-1.174-1.728-2.608-2.28-4.302c-0.555-1.693-0.829-3.611-0.829-5.754
		c0-1.937,0.233-3.707,0.699-5.314c0.467-1.606,1.148-2.998,2.049-4.174c0.897-1.173,1.994-2.08,3.291-2.721
		c1.297-0.639,2.774-0.959,4.433-0.959c3.145,0,5.668,1.33,7.568,3.991v-12.648h6.636v34.836H130.865z M125.267,213.672
		c1.623,0,2.981-0.674,4.069-2.022c1.089-1.348,1.633-3.11,1.633-5.287c0-5.529-1.884-8.295-5.65-8.295
		c-3.871,0-5.806,2.627-5.806,7.88c0,2.281,0.535,4.14,1.606,5.573S123.573,213.672,125.267,213.672z"/>
	<path d="M160.507,218.492v-3.576c-1.729,2.833-4.372,4.25-7.932,4.25c-1.279,0-2.445-0.225-3.499-0.674
		c-1.056-0.449-1.962-1.088-2.721-1.919c-0.762-0.828-1.357-1.813-1.789-2.955c-0.434-1.138-0.647-2.417-0.647-3.835v-16.796h6.737
		v15.759c0,3.18,1.435,4.769,4.305,4.769c1.728,0,3.032-0.544,3.912-1.632c0.882-1.089,1.323-2.479,1.323-4.173v-14.723h6.687
		v25.505H160.507z"/>
	<path d="M189.833,218.492v-15.447c0-1.972-0.33-3.302-0.985-3.992c-0.657-0.691-1.781-1.037-3.37-1.037
		c-3.49,0-5.235,1.953-5.235,5.858v14.618h-6.739v-25.505h6.429v3.72c0.791-1.464,1.843-2.57,3.151-3.321
		c1.309-0.75,2.998-1.124,5.064-1.124c1.206,0,2.326,0.182,3.359,0.546c1.034,0.363,1.922,0.909,2.662,1.636
		c0.74,0.729,1.324,1.619,1.757,2.675c0.431,1.056,0.646,2.277,0.646,3.662v17.712H189.833z"/>
	<path d="M220.578,215.036c-0.484,1.151-1.357,2.051-2.617,2.695c-1.263,0.646-2.722,0.968-4.38,0.968
		c-2.11,0-3.881-0.37-5.314-1.114c-1.436-0.743-2.593-1.719-3.474-2.929c-0.881-1.209-1.521-2.608-1.919-4.199
		c-0.396-1.588-0.596-3.213-0.596-4.874c0-1.969,0.293-3.773,0.882-5.416c0.587-1.641,1.381-3.041,2.386-4.199
		c1.001-1.157,2.176-2.055,3.523-2.695c1.349-0.639,2.8-0.959,4.354-0.959c3.179,0,5.563,1.277,7.154,3.836v-3.162h6.739v25.764
		c0,1.936-0.33,3.638-0.984,5.106c-0.658,1.469-1.556,2.697-2.696,3.681c-1.141,0.985-2.488,1.737-4.043,2.256
		c-1.557,0.519-3.215,0.777-4.977,0.777c-1.763,0-3.405-0.254-4.926-0.758c-1.521-0.508-2.825-1.223-3.913-2.145
		c-1.089-0.925-1.945-2.046-2.567-3.362c-0.62-1.32-0.933-2.808-0.933-4.466h6.221c0,1.555,0.512,2.754,1.536,3.602
		c1.023,0.848,2.387,1.271,4.087,1.271c1.805,0,3.332-0.492,4.582-1.475c1.249-0.984,1.874-2.321,1.874-4.012V215.036z
		 M215.031,213.36c1.658,0,3.033-0.628,4.121-1.886c1.09-1.257,1.633-2.971,1.633-5.141c0-5.441-1.918-8.162-5.754-8.162
		s-5.754,2.582-5.754,7.749c0,2.273,0.543,4.082,1.633,5.425C211.998,212.688,213.373,213.36,215.031,213.36z"/>
</g>
</svg>
