<?xml version="1.0" encoding="utf-8"?>
<!-- Generator: Adobe Illustrator 16.0.0, SVG Export Plug-In . SVG Version: 6.00 Build 0)  -->
<!DOCTYPE svg PUBLIC "-//W3C//DTD SVG 1.1//EN" "http://www.w3.org/Graphics/SVG/1.1/DTD/svg11.dtd">
<svg version="1.1" id="Calque_1" xmlns="http://www.w3.org/2000/svg" xmlns:xlink="http://www.w3.org/1999/xlink" x="0px" y="0px"
	 width="250px" height="250px" viewBox="0 0 250 250" enable-background="new 0 0 250 250" xml:space="preserve">
<g id="XMLID_18_">
	<g id="XMLID_19_">
		<path fill="#AB3A8D" stroke="#000000" stroke-linecap="round" stroke-linejoin="round" stroke-miterlimit="10" d="M94.806,230.075
			c-3.137,0.624-4.843-0.925-5.955-2.737c1.972-8.73,5.619-18.264,6.618-27.844c0.13-1.278,0.118-3.218,0-4.83
			c-0.106-1.406-0.109-3.637-1.822-3.7c1.646,12.722-3.454,24.364-5.957,35.567c-1.865-0.578-3.619,0.258-5.294-0.161
			c-1.863-0.463-2.827-2.239-4.467-2.735c2.982-2.585,3.513-6.895,4.633-11.265c1.804-7.035,5.137-15.575,4.634-23.661
			c-0.524-8.4-0.931-17.396-0.498-24.945c0.446-7.776,4.215-15.152,5.461-21.729c2.706-4.055,3.873-9.555,6.452-13.678
			c1.009-1.616,2.721-2.677,2.979-4.347c-0.922-0.399-1.6,0.854-1.988,1.289c-3.258,3.66-4.713,8.441-7.279,13.518
			c-1.918,3.797-4.098,7.939-5.294,11.91c-0.646,2.142-0.912,4.646-1.324,7.081c-0.415,2.467-1.149,4.967-1.321,7.242
			c-0.186,2.419,0.148,4.821,0.163,7.083c0.025,3.809-0.297,7.89,0.167,11.428c0.533,4.084,1.233,8.13,0.66,12.229
			c-0.503,3.606-1.757,7.522-2.813,11.267c-1.76,6.262-2.324,12.135-5.791,16.255c-3.83-0.338-7.863,0.492-10.754-1.126
			c-2.364-1.324-3.676-3.468-5.127-5.47c2.075-6.459,4.424-12.648,7.278-18.349c3.223-2.598,6.332-6.985,7.613-11.589
			c0.215-0.776,0.445-1.869,0.494-2.737c0.336-5.813-0.211-12.437,0.167-18.349c0.817-12.836,5.812-21.949,11.745-29.452
			c0.73-0.921,2.273-1.923,1.985-3.378c-0.768-0.477-1.303,0.563-1.654,0.966c-5.267,6.053-9.562,12.854-11.91,21.564
			c-0.448,1.655-0.936,3.382-1.16,4.991c-0.894,6.43,0.024,13.272-0.662,20.922c-0.657,7.343-5.997,12.19-8.769,18.188
			c-2.892,6.256-4.861,12.155-7.445,18.186c-1.75-1.193-5.07-0.86-7.112-1.77c-2.686-1.981-2.13-5.625-1.655-9.494
			c0.233-1.895,0.291-3.814,0.497-5.473c0.579-4.688,2.26-8.806,3.473-12.876c0.757-2.539,1.416-5.245,2.152-7.888
			c1.388-4.995,3.369-9.928,4.964-14.968c1.668-5.276,2.681-10.758,3.969-15.934c1.337-5.373,3.528-10.18,5.131-14.967
			c0.395-1.183,0.554-2.318,0.991-3.379c1.319-3.198,3.073-6.165,4.467-9.177c3.984-3.049,5.355-8.03,7.942-12.23
			c2.57-4.17,5.983-7.667,8.934-11.267c0.331-1.021,1.124-1.588,1.158-2.896c2.314-2.631,4.601-5.288,4.47-10.301
			c3.384-0.82,6.903-2.631,11.085-2.896c13.728-0.877,31.001-1.594,44.008,0.484c1.981,6.146,5.238,11.743,7.445,17.704
			c3.343,9.033,8.828,16.948,12.74,25.427c4.109,8.903,7.819,17.52,12.574,25.752c1.626,6.001,5.639,12.338,7.281,18.186
			c0.661,2.361,1.088,4.945,1.654,7.404c0.598,2.604,0.585,5.356,1.321,7.727c0.425,1.352,1.122,2.38,1.325,3.701
			c1.102,7.2,2.224,17.608-0.991,22.372c-0.595,0.875-1.661,1.482-2.483,2.252c-0.842,0.787-1.723,1.597-2.979,1.93
			c-0.854-4.499,0.431-8.324,0.331-12.552c-0.036-1.578-0.424-3.069-0.497-4.506c-0.079-1.572,0.209-3.058,0.166-4.666
			c-0.111-4.361-1.657-8.925-1.82-13.361c-0.047-1.285,0.335-2.495,0.329-3.7c-0.002-2.17-0.646-3.4-0.991-4.828
			c-0.376-1.555-0.263-3.169-0.661-4.669c-0.973-3.664-2.791-6.922-4.633-10.301c-1.839-3.363-3.133-7.051-4.8-10.3
			c-0.524-1.023-1.313-1.903-1.818-2.897c-0.542-1.063-0.982-2.145-1.487-3.219c-2.492-5.257-5.768-10.548-8.274-15.45
			c-0.427-0.834-0.721-2.412-1.984-2.573c0.114,2.551,1.618,4.899,2.813,7.081c3.636,6.652,7.129,13.35,10.421,20.277
			c2.136,4.497,4.393,9.402,5.957,14.485c1.606,5.227,3.386,10.908,3.806,16.739c0.258,3.606-0.302,7.233,0.494,10.943
			c0.222,1.023,1.094,2.003,1.158,3.381c0.037,0.77-0.32,1.592-0.329,2.412c-0.02,1.743,0.633,3.569,0.663,5.313
			c0.036,2.167-0.542,4.406-0.663,6.598c-0.128,2.318,0.644,4.479,0.663,6.761c0.013,1.754-0.809,3.26-0.828,5.151
			c-3.359,0.794-6.087,2.927-9.927,2.733c-0.206-4.628,1.367-8.981,0.991-14c-0.447-6.021-1.947-10.94-3.969-14.486
			c-0.612-1.072-1.188-2.326-1.818-3.219c-1.273-1.796-3.128-3.274-4.304-5.149c-0.803-1.28-1.23-3.231-1.655-4.988
			c-1.473-6.099-1.718-14.328-3.143-20.926c-0.746-3.439-2.506-6.646-4.136-9.173c-0.454-0.703-0.846-2.434-2.151-2.092
			c-0.442,1.328,0.921,2.128,1.491,3.058c1.072,1.759,2.296,4.249,2.976,6.437c1.684,5.441,1.512,11.74,2.317,18.029
			c0.417,3.26,1.574,7.103,2.483,9.012c1.56,3.279,3.685,4.624,5.458,7.563c0.467,0.776,0.66,1.855,1.157,2.737
			c0.473,0.832,1.261,1.478,1.654,2.251c0.825,1.609,1.089,4.076,1.491,6.439c0.412,2.422,0.858,5.03,0.827,7.242
			c-0.052,3.562-1.748,7.268-0.827,11.265c-2.917,0.034-4.154,0.942-6.288,1.772c-1.455,0.566-2.667,1.621-3.969,1.609
			c-1.495-0.016-2.837-1.206-4.304-1.127c-1.349,0.072-2.665,1.081-4.137,1.287c-1.792,0.248-3.406-0.224-5.458,0.161
			c-0.867-4.106-1.849-8.748-2.979-12.231c-1.339-4.127-2.67-7.905-2.979-12.876c-0.172-2.79-0.097-4.984-0.827-7.082
			c-0.401-1.151-1.516-2.335-1.818-3.538c-0.664-2.632-0.422-5.678-0.828-8.37c-0.183-1.197-0.682-2.486-0.995-3.704
			c-0.267-1.049-0.157-2.851-1.654-3.057c-1.061,0.736-0.609,2.205-0.497,3.218c0.406,3.595,0.836,7.203,1.82,10.301
			c0.637,2.006,1.879,3.944,2.483,5.633c1.699,4.757,0.59,9.909,1.984,14.807c0.845,2.967,2.391,5.755,3.143,8.691
			c0.787,3.075,0.821,6.097,1.984,9.015c-1.211,1.634-4.026,1.982-5.787,0.643c-1.334-1.974-2.194-4.057-3.309-6.115
			c-1.097-2.019-2.658-3.87-3.642-5.955c-1.174-2.487-2.155-5.535-3.144-8.529c-1.251-3.801-2.434-7.295-3.309-11.428
			c-0.172-0.815-0.527-1.622-0.661-2.416c-1.575-9.4,0.682-20.016,1.985-28.807c0.655-4.409,1.833-8.815,2.151-13.197
			c0.34-4.725,0.131-9.804-0.329-13.682c-0.164-1.36-0.676-2.785-0.664-4.185c0.007-0.68,0.336-1.407,0.331-2.092
			c-0.015-2.682-0.776-5.496-1.654-7.402c-1.058-2.298-2.57-5.634-4.961-5.795c0.172,1.339,0.972,2.366,1.487,3.54
			c0.576,1.321,0.718,2.521,1.158,3.862c0.263,0.804,0.918,1.452,1.158,2.255c0.415,1.392,0.519,3.109,0.828,4.828
			c0.857,4.775,1.693,10.104,1.654,15.128c-0.04,4.973-1.664,9.827-2.482,15.131c-0.815,5.294-1.634,10.663-2.315,15.77
			c-1.172,8.785-0.075,18.61,1.985,25.591c1.886,6.389,4.082,12.104,7.446,16.9c2.76,1.283,3.225,4.801,4.965,7.079
			c-3.667,0.982-4.737,4.258-9.598,3.704c-1.813-0.555-5.131-1.729-7.939-2.415c-2.661-0.652-5.609-1.328-7.78-1.128
			c-1.603,0.151-3.012,0.945-4.629,1.288c-4.301,0.914-8.795,1.518-13.237,2.255c-2.054-0.713-4.42-1.304-6.288-2.576
			c1.179-3.694,3.649-7.445,4.136-11.588c0.327-2.77,1.072-3.81,1.655-5.955c0.655-2.403,0.87-4.369,1.158-7.242
			c0.103-1.01,0.642-2.043,0.663-3.058c0.022-1.158-0.272-2.573-0.497-3.704c-1.138-5.754-2.461-12.254-3.806-18.024
			c-0.233-1-0.876-1.913-0.991-2.896c-0.31-2.652-0.158-5.319-0.331-7.886c-0.424-6.26-0.979-11.937,0.164-17.703
			c0.4-2.019,1.407-3.945,1.654-6.119c0.085-0.75-0.139-1.523,0-2.25c0.41-2.125,2.477-3.919,2.152-5.955
			c-1.262-0.191-1.294,1.215-1.656,1.93c-2.856,5.661-5.329,13.27-5.293,20.922c0.037,7.352,1.526,14.606,2.979,21.567
			c1.564,7.521,5.382,17.021,3.473,25.431c-0.391,1.719-1.743,2.985-2.315,4.667c-0.636,1.863-0.288,3.924-0.497,5.633
			C98.09,222.744,96.12,226.086,94.806,230.075z"/>
		<path fill="#AB3A8D" stroke="#000000" stroke-linecap="round" stroke-linejoin="round" stroke-miterlimit="10" d="M157.346,17.626
			c1.595,0.019,4.577-0.39,6.286,0.482c0.479,7.468-3.458,13.354-3.307,21.567c-11.898,0.728-23.104,4.73-31.107,10.3
			c0-0.16,0-0.32,0-0.481c2.491-5.346,4.572-9.719,9.431-12.715c2.464-1.519,5.299-2.249,7.445-4.025
			c1.591-1.312,2.776-3.139,3.64-4.988C153.116,25.205,155.022,21.211,157.346,17.626z"/>
		<path fill="#E6ACD6" stroke="#000000" stroke-linecap="round" stroke-linejoin="round" stroke-miterlimit="10" d="M128.228,53.839
			c7.537-5.045,20.77-8.888,32.592-7.081c-1.267,9.16-5.498,16.437-7.447,25.428c-2.441,1.791-5.139,2.521-8.602,3.543
			c-1.507,0.441-3.098,1.105-4.632,1.448c-2.684,0.597-5.959,0.654-9.1,0.803c-6.482,0.309-12.228,0.506-18.363,0
			c-1.967-0.161-4.868-0.272-6.122-0.642c-2.901-0.855-5.782-2.319-7.942-3.54c-0.316-0.821-0.919-1.36-1.656-1.772
			c-1.723-7.589-6.339-12.91-6.12-21.89c0.694-1.199,2.011-1.797,2.979-2.735C106.292,43.346,119.958,48.81,128.228,53.839z"/>
		<path fill="#EBCEE3" stroke="#000000" stroke-linecap="round" stroke-linejoin="round" stroke-miterlimit="10" d="M137.161,48.207
			c-2.697,0.772-4.846,1.822-6.618,2.896c-0.1-0.01-0.197-0.024-0.167-0.161c7.556-5.69,18.013-9.409,30.28-9.979
			c-0.082,1.793,0.434,3.009,0.331,4.827c-3.327-0.964-7.405-1.024-11.416-0.482C144.846,45.949,140.73,47.185,137.161,48.207z"/>
		<path fill="#EBCEE3" stroke="#000000" stroke-linecap="round" stroke-linejoin="round" stroke-miterlimit="10" d="M148.744,80.877
			c-7.744-0.788-16.689-0.852-24.489-0.643l-0.013-0.521c3.295-0.061,6.749-0.297,10.106-0.445c1.316-0.058,2.76-0.301,4.136-0.481
			c1.537-0.204,3.137-0.075,4.467-0.322c1.591-0.297,3.146-1.203,4.964-1.608c1.867-0.418,3.64-1.075,5.128-1.773
			c-0.331,1.909,0.675,5.122-0.662,6.279C151.171,80.606,149.946,81,148.744,80.877z"/>
		<path fill="#9E124F" stroke="#000000" stroke-linecap="round" stroke-linejoin="round" stroke-miterlimit="10" d="M125.249,34.366
			c4.397,0.285,9.48-0.134,13.567-1.127c3.297-0.804,5.795-2.773,8.438-3.542c-2.382,2.778-5.716,4.633-9.431,6.114
			c-4.691,3.325-7.882,8.107-9.925,14.004c-0.012,0.097-0.027,0.19-0.167,0.16c-3.766-7.976-9-14.526-17.042-18.346
			c-0.222-0.963-1.085-1.306-1.489-2.094C113.442,31.942,118.891,33.951,125.249,34.366z"/>
		<path fill="#AB3A8D" stroke="#000000" stroke-linecap="round" stroke-linejoin="round" stroke-miterlimit="10" d="M114.991,35.651
			c5.376,3.667,8.834,8.614,11.583,14.809c-0.036,0.125-0.14,0.186-0.331,0.161c-6.797-6.99-21.504-12.31-34.416-7.888
			c-0.319-3.275,1.093-5.854,0.993-8.853c-0.179-5.433-2.387-10.188-3.309-15.287c2.633-1.088,5.049-2.385,8.771-2.416
			c1.129,3.109,2.466,5.616,4.467,7.885c1.369,1.562,3.359,2.665,4.633,4.346c0.8,1.064,1.167,2.628,1.985,3.543
			C110.673,33.418,113.166,34.409,114.991,35.651z"/>
		<path fill="#EBCEE3" stroke="#000000" stroke-linecap="round" stroke-linejoin="round" stroke-miterlimit="10" d="M124.255,80.234
			c-5.525,0.147-11.203,1.069-15.716,0.805c-3.789,0.204-6.792,2.063-10.425,2.896c-0.037-2.461,0.169-4.294,0-6.758
			c4.449,0.872,9.546,1.725,14.725,2.091c1.342,0.097,2.797-0.003,4.136,0.16c2.249,0.278,4.709,0.334,7.267,0.285L124.255,80.234z"
			/>
		<path fill="#EBCEE3" stroke="#000000" stroke-linecap="round" stroke-linejoin="round" stroke-miterlimit="10" d="M92.324,47.239
			c-0.5,0.364-1.204,1.045-1.324,0.807c-0.031-1.482,0.553-2.361,0.497-3.864c2.146-1.148,4.633-1.725,7.445-1.931
			c10.688-0.787,19.913,3.257,25.479,7.885c0.185,0.233,0.179,0.395-0.166,0.485c-8.104-4.094-19.686-8.14-30.277-4.506
			C93.563,46.428,92.909,46.818,92.324,47.239z"/>
		<path stroke="#000000" stroke-linecap="round" stroke-linejoin="round" stroke-miterlimit="10" d="M149.57,45.309
			c4.011-0.542,8.089-0.481,11.416,0.482c0.104-1.818-0.413-3.034-0.331-4.827c-12.267,0.569-22.724,4.288-30.28,9.979
			c-0.03,0.137,0.067,0.151,0.167,0.161c1.772-1.074,3.921-2.124,6.618-2.896C140.73,47.185,144.846,45.949,149.57,45.309z
			 M106.555,77.338c1.254,0.369,4.154,0.48,6.122,0.642c6.136,0.506,11.881,0.309,18.363,0c3.14-0.148,6.416-0.206,9.1-0.803
			c1.534-0.343,3.125-1.007,4.632-1.448c3.463-1.022,6.161-1.752,8.602-3.543c1.949-8.991,6.18-16.268,7.447-25.428
			c-11.822-1.807-25.055,2.036-32.592,7.081c-8.27-5.029-21.937-10.493-34.413-6.438c-0.967,0.938-2.285,1.536-2.979,2.735
			c-0.219,8.979,4.397,14.301,6.12,21.89c0.737,0.412,1.339,0.951,1.656,1.772C100.773,75.019,103.654,76.482,106.555,77.338z
			 M108.54,81.039c4.513,0.265,10.19-0.657,15.716-0.805c7.799-0.209,16.745-0.146,24.489,0.643
			c1.202,0.123,2.427-0.271,3.638,0.484c1.337-1.157,0.331-4.37,0.662-6.279c-1.489,0.698-3.261,1.355-5.128,1.773
			c-1.818,0.405-3.373,1.312-4.964,1.608c-1.33,0.247-2.93,0.118-4.467,0.322c-1.376,0.181-2.82,0.424-4.136,0.481
			c-3.357,0.148-6.812,0.385-10.106,0.445c-2.557,0.049-5.018-0.007-7.267-0.285c-1.339-0.163-2.794-0.063-4.136-0.16
			c-5.179-0.366-10.276-1.219-14.725-2.091c0.169,2.464-0.037,4.297,0,6.758C101.748,83.102,104.751,81.243,108.54,81.039z
			 M127.73,49.976c0.14,0.03,0.155-0.063,0.167-0.16c2.042-5.896,5.233-10.679,9.925-14.004c3.715-1.481,7.049-3.336,9.431-6.114
			c-2.643,0.769-5.14,2.738-8.438,3.542c-4.087,0.993-9.17,1.412-13.567,1.127c-6.357-0.415-11.806-2.424-16.049-4.83
			c0.403,0.788,1.267,1.131,1.489,2.094C118.73,35.449,123.965,42,127.73,49.976z M94.973,231.844c-1.137-0.197-2.01,0.225-2.813,0
			c-0.927-0.257-1.979-1.16-2.815-1.93c-0.789-0.733-1.521-1.761-2.316-1.935c-1.057-0.229-3.279,0.319-4.136,0.161
			c-1.052-0.191-2.197-1.057-2.813-1.609c-0.678-0.608-2.208-1.415-3.969-1.77c-3.349-0.672-7.473,0.406-10.754-0.481
			c-3.537-0.958-4.943-4.846-8.438-5.956c-1.369-0.436-2.921-0.299-4.136-0.645c-6.021-1.713-4.694-7.084-4.136-13.036
			c0.267-2.869,0.476-5.776,0.991-8.206c0.652-3.067,2.225-6.056,2.813-8.531c0.463-1.945,0.36-3.924,0.827-5.793
			c0.927-3.698,2.249-6.998,2.979-10.623c0.621-3.094,1.439-6.227,2.152-9.496c1.09-5.01,2.751-10.113,4.3-14.324
			c0.349-0.943,0.485-1.965,0.827-2.897c1.052-2.846,2.985-5.504,4.136-8.371c0.958-2.378,1.182-5.009,2.153-7.239
			c0.411-0.947,1.324-1.82,1.82-2.899c2.563-5.567,5.584-10.725,8.436-15.771c1.131-2,2.162-4.342,3.64-6.118
			c1.006-1.203,2.47-2.155,3.477-3.218c2.282-2.412,3.964-4.813,5.954-7.403c0.997-1.294,2.31-2.627,2.813-3.861
			c1.272-3.118,1.206-8.425,0.827-11.912c-0.927-8.536-5.555-14.902-7.112-22.853c-1.174-5.988,1.02-11.693,0.99-17.061
			c-0.039-7.3-3.033-13.682-2.645-19.958c2.797-1.733,6.997-2.952,10.918-3.058c2.16,4.164,3.837,7.516,6.949,10.3
			c3.477,3.115,10.013,6.543,15.552,7.243c11.3,1.434,22.458-1.46,28.458-6.918c1.716-1.563,2.015-3.94,3.309-5.958
			c0.868-1.349,1.87-2.773,3.143-3.219c1.757-0.611,7.482-0.673,8.604,0.807c1.218,1.601,0.018,5.042-0.498,7.242
			c-1.047,4.479-2.675,8.592-2.645,13.519c0.016,2.637,0.818,5.027,0.661,7.403c-0.137,2.066-0.873,4.285-1.325,6.275
			c-0.494,2.191-1.054,4.161-1.818,5.795c-0.664,9-6.985,14.87-4.963,24.625c0.291,1.403,1.339,2.96,1.985,4.667
			c0.64,1.688,1.131,3.515,1.821,4.99c1.804,3.86,3.322,8.907,5.791,11.749c1.701,4.438,5.192,7.215,7.447,11.428
			c1.46,2.73,1.476,6.097,2.645,9.494c0.8,2.327,2.2,4.81,3.309,7.243c2.264,4.966,4.47,9.6,6.781,14.324
			c1.156,2.357,2.686,4.521,3.643,6.92c1.98,4.961,4.746,9.465,6.783,14.326c4.203,10.036,8.239,22.245,7.115,35.728
			c-0.336,4.023-2.314,6.081-4.467,8.531c-1.133,1.287-2.145,2.604-3.145,3.378c-0.934,0.725-2.622,1.006-3.143,2.094
			c-0.848,1.768,0.127,4.403-1.324,5.795c-3.534,0.229-5.573,2.235-8.767,2.572c-1.397,0.149-2.943-0.236-4.634,0
			c-3.053,0.431-5.464,3.03-8.105,3.221c-1.704,0.122-3.204-1.047-4.964-0.966c-1.595,0.073-3.191,0.993-4.8,1.127
			c-1.464,0.118-2.64-0.161-4.136-0.161c-1.179,1.464-2.54,2.815-4.632,2.897c-1.245,0.046-2.375-0.692-3.638-0.484
			c-2.101,0.348-3.368,2.317-5.297,3.058c-6.713,2.584-12.744-1.516-20.183-1.609c-1.964-0.024-3.849,0.782-5.792,1.127
			c-1.317,0.236-2.836,0.027-4.303,0.161c-3.164,0.29-6.334,1.085-9.1,0.807c-1.595-0.165-2.695-0.846-3.971-1.448
			C96.466,232.741,95.706,231.971,94.973,231.844z M91,48.046c0.12,0.238,0.823-0.442,1.324-0.807
			c0.585-0.421,1.24-0.812,1.654-1.124c10.591-3.634,22.173,0.412,30.277,4.506c0.345-0.091,0.351-0.252,0.166-0.485
			c-5.567-4.628-14.791-8.672-25.479-7.885c-2.813,0.206-5.299,0.782-7.445,1.931C91.553,45.685,90.969,46.563,91,48.046z
			 M89.511,18.594c0.922,5.1,3.13,9.854,3.309,15.287c0.1,2.998-1.312,5.577-0.993,8.853c12.912-4.422,27.619,0.897,34.416,7.888
			c0.19,0.024,0.294-0.036,0.331-0.161c-2.749-6.194-6.207-11.142-11.583-14.809c-1.825-1.242-4.318-2.233-5.624-3.7
			c-0.818-0.915-1.186-2.479-1.985-3.543c-1.273-1.681-3.264-2.784-4.633-4.346c-2.001-2.269-3.338-4.775-4.467-7.885
			C94.561,16.209,92.145,17.506,89.511,18.594z M58.572,217.68c2.584-6.03,4.554-11.93,7.445-18.186
			c2.772-5.997,8.112-10.845,8.769-18.188c0.686-7.649-0.232-14.492,0.662-20.922c0.224-1.609,0.712-3.336,1.16-4.991
			c2.349-8.71,6.643-15.512,11.91-21.564c0.351-0.403,0.887-1.442,1.654-0.966c0.288,1.455-1.255,2.457-1.985,3.378
			c-5.934,7.503-10.928,16.616-11.745,29.452c-0.379,5.912,0.168,12.535-0.167,18.349c-0.049,0.868-0.279,1.961-0.494,2.737
			c-1.281,4.604-4.39,8.991-7.613,11.589c-2.854,5.7-5.203,11.89-7.278,18.349c1.451,2.002,2.763,4.146,5.127,5.47
			c2.892,1.618,6.924,0.788,10.754,1.126c3.467-4.12,4.031-9.993,5.791-16.255c1.055-3.744,2.309-7.66,2.813-11.267
			c0.573-4.1-0.127-8.146-0.66-12.229c-0.464-3.538-0.143-7.619-0.167-11.428c-0.015-2.262-0.349-4.664-0.163-7.083
			c0.172-2.275,0.906-4.775,1.321-7.242c0.412-2.436,0.678-4.939,1.324-7.081c1.197-3.971,3.376-8.113,5.294-11.91
			c2.566-5.076,4.021-9.857,7.279-13.518c0.388-0.435,1.066-1.688,1.988-1.289c-0.258,1.67-1.97,2.73-2.979,4.347
			c-2.579,4.123-3.746,9.623-6.452,13.678c-1.246,6.576-5.015,13.952-5.461,21.729c-0.433,7.549-0.026,16.545,0.498,24.945
			c0.503,8.086-2.831,16.626-4.634,23.661c-1.121,4.37-1.651,8.68-4.633,11.265c1.641,0.496,2.604,2.272,4.467,2.735
			c1.675,0.419,3.43-0.417,5.294,0.161c2.502-11.203,7.602-22.846,5.957-35.567c1.713,0.063,1.716,2.294,1.822,3.7
			c0.118,1.612,0.13,3.552,0,4.83c-1,9.58-4.646,19.113-6.618,27.844c1.111,1.813,2.818,3.361,5.955,2.737
			c1.314-3.989,3.284-7.331,3.807-11.59c0.209-1.709-0.14-3.77,0.497-5.633c0.572-1.682,1.924-2.948,2.315-4.667
			c1.91-8.41-1.909-17.909-3.473-25.431c-1.452-6.961-2.942-14.216-2.979-21.567c-0.036-7.652,2.437-15.261,5.293-20.922
			c0.362-0.715,0.394-2.121,1.656-1.93c0.324,2.036-1.743,3.83-2.152,5.955c-0.139,0.727,0.085,1.5,0,2.25
			c-0.248,2.174-1.254,4.101-1.654,6.119c-1.143,5.767-0.587,11.443-0.164,17.703c0.172,2.566,0.021,5.233,0.331,7.886
			c0.114,0.983,0.757,1.896,0.991,2.896c1.345,5.771,2.667,12.271,3.806,18.024c0.225,1.131,0.519,2.546,0.497,3.704
			c-0.021,1.015-0.56,2.048-0.663,3.058c-0.288,2.873-0.503,4.839-1.158,7.242c-0.583,2.146-1.328,3.186-1.655,5.955
			c-0.487,4.143-2.958,7.894-4.136,11.588c1.867,1.272,4.233,1.863,6.288,2.576c4.442-0.737,8.937-1.341,13.237-2.255
			c1.617-0.343,3.027-1.137,4.629-1.288c2.17-0.2,5.119,0.476,7.78,1.128c2.809,0.687,6.127,1.86,7.939,2.415
			c4.861,0.554,5.931-2.722,9.598-3.704c-1.74-2.278-2.205-5.796-4.965-7.079c-3.364-4.796-5.56-10.512-7.446-16.9
			c-2.06-6.98-3.157-16.806-1.985-25.591c0.682-5.106,1.5-10.476,2.315-15.77c0.818-5.304,2.442-10.158,2.482-15.131
			c0.039-5.024-0.797-10.353-1.654-15.128c-0.309-1.719-0.413-3.437-0.828-4.828c-0.24-0.803-0.895-1.451-1.158-2.255
			c-0.439-1.342-0.582-2.541-1.158-3.862c-0.515-1.174-1.315-2.201-1.487-3.54c2.391,0.161,3.903,3.497,4.961,5.795
			c0.878,1.906,1.639,4.721,1.654,7.402c0.005,0.685-0.324,1.412-0.331,2.092c-0.012,1.399,0.5,2.824,0.664,4.185
			c0.46,3.878,0.669,8.957,0.329,13.682c-0.317,4.382-1.496,8.788-2.151,13.197c-1.303,8.791-3.561,19.406-1.985,28.807
			c0.134,0.794,0.489,1.601,0.661,2.416c0.875,4.133,2.058,7.627,3.309,11.428c0.988,2.994,1.97,6.042,3.144,8.529
			c0.984,2.085,2.545,3.937,3.642,5.955c1.115,2.059,1.975,4.142,3.309,6.115c1.761,1.34,4.576,0.991,5.787-0.643
			c-1.163-2.918-1.197-5.939-1.984-9.015c-0.752-2.937-2.298-5.725-3.143-8.691c-1.394-4.897-0.285-10.05-1.984-14.807
			c-0.604-1.688-1.847-3.627-2.483-5.633c-0.984-3.098-1.415-6.706-1.82-10.301c-0.113-1.013-0.564-2.481,0.497-3.218
			c1.498,0.206,1.387,2.008,1.654,3.057c0.313,1.218,0.812,2.507,0.995,3.704c0.406,2.692,0.164,5.738,0.828,8.37
			c0.302,1.203,1.417,2.387,1.818,3.538c0.73,2.098,0.655,4.292,0.827,7.082c0.309,4.971,1.639,8.749,2.979,12.876
			c1.13,3.483,2.112,8.125,2.979,12.231c2.051-0.385,3.666,0.087,5.458-0.161c1.472-0.206,2.788-1.215,4.137-1.287
			c1.466-0.079,2.809,1.111,4.304,1.127c1.302,0.012,2.514-1.043,3.969-1.609c2.133-0.83,3.37-1.738,6.288-1.772
			c-0.92-3.997,0.775-7.703,0.827-11.265c0.031-2.212-0.415-4.82-0.827-7.242c-0.402-2.363-0.667-4.83-1.491-6.439
			c-0.393-0.773-1.181-1.419-1.654-2.251c-0.497-0.882-0.69-1.961-1.157-2.737c-1.772-2.939-3.898-4.284-5.458-7.563
			c-0.909-1.909-2.067-5.752-2.483-9.012c-0.805-6.289-0.633-12.588-2.317-18.029c-0.68-2.188-1.904-4.678-2.976-6.437
			c-0.57-0.93-1.933-1.729-1.491-3.058c1.306-0.342,1.697,1.389,2.151,2.092c1.63,2.527,3.391,5.733,4.136,9.173
			c1.425,6.598,1.67,14.827,3.143,20.926c0.424,1.757,0.852,3.708,1.655,4.988c1.176,1.875,3.03,3.354,4.304,5.149
			c0.63,0.893,1.206,2.146,1.818,3.219c2.021,3.546,3.521,8.465,3.969,14.486c0.376,5.019-1.197,9.372-0.991,14
			c3.84,0.193,6.568-1.939,9.927-2.733c0.019-1.892,0.84-3.397,0.828-5.151c-0.019-2.282-0.791-4.442-0.663-6.761
			c0.121-2.191,0.699-4.431,0.663-6.598c-0.03-1.743-0.682-3.569-0.663-5.313c0.009-0.82,0.366-1.643,0.329-2.412
			c-0.063-1.378-0.936-2.357-1.158-3.381c-0.796-3.71-0.236-7.337-0.494-10.943c-0.42-5.831-2.199-11.513-3.806-16.739
			c-1.564-5.083-3.821-9.988-5.957-14.485c-3.292-6.928-6.785-13.625-10.421-20.277c-1.194-2.182-2.699-4.53-2.813-7.081
			c1.263,0.161,1.557,1.739,1.984,2.573c2.506,4.902,5.782,10.193,8.274,15.45c0.505,1.074,0.945,2.155,1.487,3.219
			c0.505,0.994,1.294,1.874,1.818,2.897c1.667,3.249,2.961,6.937,4.8,10.3c1.842,3.379,3.66,6.637,4.633,10.301
			c0.398,1.5,0.285,3.114,0.661,4.669c0.345,1.428,0.988,2.658,0.991,4.828c0.006,1.205-0.376,2.415-0.329,3.7
			c0.163,4.437,1.709,9,1.82,13.361c0.043,1.608-0.245,3.094-0.166,4.666c0.073,1.437,0.46,2.928,0.497,4.506
			c0.1,4.228-1.185,8.053-0.331,12.552c1.255-0.333,2.137-1.143,2.979-1.93c0.822-0.77,1.888-1.377,2.483-2.252
			c3.214-4.764,2.093-15.172,0.991-22.372c-0.204-1.321-0.9-2.35-1.325-3.701c-0.736-2.37-0.724-5.122-1.321-7.727
			c-0.566-2.459-0.993-5.043-1.654-7.404c-1.642-5.848-5.655-12.185-7.281-18.186c-4.755-8.232-8.465-16.849-12.574-25.752
			c-3.912-8.479-9.397-16.394-12.74-25.427c-2.207-5.961-5.464-11.559-7.445-17.704c-13.007-2.078-30.28-1.361-44.008-0.484
			c-4.182,0.266-7.701,2.076-11.085,2.896c0.131,5.013-2.155,7.67-4.47,10.301c-0.034,1.309-0.827,1.875-1.158,2.896
			c-2.951,3.6-6.364,7.097-8.934,11.267c-2.587,4.2-3.958,9.182-7.942,12.23c-1.394,3.012-3.148,5.979-4.467,9.177
			c-0.437,1.061-0.596,2.196-0.991,3.379c-1.603,4.787-3.794,9.594-5.131,14.967c-1.288,5.176-2.3,10.657-3.969,15.934
			c-1.595,5.04-3.576,9.973-4.964,14.968c-0.736,2.643-1.395,5.349-2.152,7.888c-1.212,4.07-2.894,8.188-3.473,12.876
			c-0.206,1.658-0.263,3.578-0.497,5.473c-0.476,3.869-1.031,7.513,1.655,9.494C53.501,216.819,56.822,216.486,58.572,217.68z
			 M160.326,39.676c-0.152-8.213,3.785-14.1,3.307-21.567c-1.709-0.872-4.691-0.464-6.286-0.482
			c-2.324,3.585-4.23,7.579-7.611,10.14c-0.864,1.85-2.049,3.677-3.64,4.988c-2.146,1.776-4.981,2.507-7.445,4.025
			c-4.858,2.996-6.939,7.369-9.431,12.715c0,0.161,0,0.321,0,0.481C137.222,44.406,148.428,40.403,160.326,39.676z"/>
	</g>
</g>
</svg>
