<?xml version="1.0" encoding="utf-8"?>
<!-- Generator: Adobe Illustrator 15.0.0, SVG Export Plug-In . SVG Version: 6.00 Build 0)  -->
<!DOCTYPE svg PUBLIC "-//W3C//DTD SVG 1.1//EN" "http://www.w3.org/Graphics/SVG/1.1/DTD/svg11.dtd">
<svg version="1.1" id="Ebene_1" xmlns="http://www.w3.org/2000/svg" xmlns:xlink="http://www.w3.org/1999/xlink" x="0px" y="0px"
	 width="250px" height="250px" viewBox="0 0 250 250" enable-background="new 0 0 250 250" xml:space="preserve">
<g>
	<defs>
		<rect id="SVGID_1_" width="250" height="250"/>
	</defs>
	<clipPath id="SVGID_2_">
		<use xlink:href="#SVGID_1_"  overflow="visible"/>
	</clipPath>
	<path clip-path="url(#SVGID_2_)" fill="#FFED00" d="M91.192,64.439h12.366c0,0-5.059-22.221,7.346-31.854
		C99.417,39.46,93.062,47.439,91.192,64.439"/>
	
		<path clip-path="url(#SVGID_2_)" fill="none" stroke="#000000" stroke-width="4" stroke-linejoin="round" stroke-miterlimit="2" d="
		M91.192,64.439h12.366c0,0-5.059-22.221,7.346-31.854C99.417,39.46,93.062,47.439,91.192,64.439z"/>
	<path clip-path="url(#SVGID_2_)" fill="#FFED00" d="M107.369,174.439H95.031c0,0,5.042,22.209-7.357,31.85
		C99.156,199.414,105.511,190.439,107.369,174.439"/>
	
		<path clip-path="url(#SVGID_2_)" fill="none" stroke="#000000" stroke-width="4" stroke-linejoin="round" stroke-miterlimit="2" d="
		M107.369,174.439H95.031c0,0,5.042,22.209-7.357,31.85C99.156,199.414,105.511,190.439,107.369,174.439z"/>
	<path clip-path="url(#SVGID_2_)" fill="#FFED00" d="M152.633,108.156l0.164,12.348c0,0,22.125-5.346,31.946,6.927
		C177.697,116.051,167.638,109.838,152.633,108.156"/>
	
		<path clip-path="url(#SVGID_2_)" fill="none" stroke="#000000" stroke-width="3.684" stroke-linejoin="round" stroke-miterlimit="2" d="
		M152.633,108.156l0.164,12.348c0,0,22.125-5.346,31.946,6.927C177.697,116.051,167.638,109.838,152.633,108.156z"/>
	<path clip-path="url(#SVGID_2_)" fill="#FFED00" d="M46.7,126.52l-0.176-12.367c0,0-22.131,5.365-31.935-6.918
		C21.624,118.618,30.971,124.844,46.7,126.52"/>
	
		<path clip-path="url(#SVGID_2_)" fill="none" stroke="#000000" stroke-width="3.684" stroke-linejoin="round" stroke-miterlimit="2" d="
		M46.7,126.52l-0.176-12.367c0,0-22.131,5.365-31.935-6.918C21.624,118.618,30.971,124.844,46.7,126.52z"/>
	<path clip-path="url(#SVGID_2_)" fill="#FFED00" d="M119.956,67.605l10.558,6.418c0,0,7.211-21.606,22.827-23.422
		C139.939,50.534,129.342,55.773,119.956,67.605"/>
	
		<path clip-path="url(#SVGID_2_)" fill="none" stroke="#000000" stroke-width="3.684" stroke-linejoin="round" stroke-miterlimit="2" d="
		M119.956,67.605l10.558,6.418c0,0,7.211-21.606,22.827-23.422C139.939,50.534,129.342,55.773,119.956,67.605z"/>
	<path clip-path="url(#SVGID_2_)" fill="#FFED00" d="M79.365,167.143l-10.558-6.406c0,0-7.215,21.615-22.821,23.422
		C59.383,184.221,69.617,179.594,79.365,167.143"/>
	
		<path clip-path="url(#SVGID_2_)" fill="none" stroke="#000000" stroke-width="3.684" stroke-linejoin="round" stroke-miterlimit="2" d="
		M79.365,167.143l-10.558-6.406c0,0-7.215,21.615-22.821,23.422C59.383,184.221,69.617,179.594,79.365,167.143z"/>
	<path clip-path="url(#SVGID_2_)" fill="#FFED00" d="M149.223,137.799l-6.275,10.641c0,0,21.711,6.921,23.733,22.498
		C166.567,157.549,161.191,147.02,149.223,137.799"/>
	
		<path clip-path="url(#SVGID_2_)" fill="none" stroke="#000000" stroke-width="3.684" stroke-linejoin="round" stroke-miterlimit="2" d="
		M149.223,137.799l-6.275,10.641c0,0,21.711,6.921,23.733,22.498C166.567,157.549,161.191,147.02,149.223,137.799z"/>
	<path clip-path="url(#SVGID_2_)" fill="#FFED00" d="M49.141,98.545l6.271-10.65c0,0-21.71-6.916-23.728-22.493
		C31.792,78.789,36.556,88.965,49.141,98.545"/>
	
		<path clip-path="url(#SVGID_2_)" fill="none" stroke="#000000" stroke-width="3.684" stroke-linejoin="round" stroke-miterlimit="2" d="
		M49.141,98.545l6.271-10.65c0,0-21.71-6.916-23.728-22.493C31.792,78.789,36.556,88.965,49.141,98.545z"/>
	<path clip-path="url(#SVGID_2_)" fill="#FFED00" d="M141.916,84.281l6.021,10.779c0,0,16.942-15.232,31.414-9.107
		C167.723,79.285,155.924,78.611,141.916,84.281"/>
	
		<path clip-path="url(#SVGID_2_)" fill="none" stroke="#000000" stroke-width="3.684" stroke-linejoin="round" stroke-miterlimit="2" d="
		M141.916,84.281l6.021,10.779c0,0,16.942-15.232,31.414-9.107C167.723,79.285,155.924,78.611,141.916,84.281z"/>
	<path clip-path="url(#SVGID_2_)" fill="#FFED00" d="M57.484,150.83l-6.016-10.785c0,0-16.924,15.238-31.402,9.115
		C31.684,155.826,42.859,156.852,57.484,150.83"/>
	
		<path clip-path="url(#SVGID_2_)" fill="none" stroke="#000000" stroke-width="3.684" stroke-linejoin="round" stroke-miterlimit="2" d="
		M57.484,150.83l-6.016-10.785c0,0-16.924,15.238-31.402,9.115C31.684,155.826,42.859,156.852,57.484,150.83z"/>
	<path clip-path="url(#SVGID_2_)" fill="#FFED00" d="M132.734,159.764l-10.7,6.174c0,0,15.464,16.715,9.533,31.271
		C138.07,185.514,138.603,173.703,132.734,159.764"/>
	
		<path clip-path="url(#SVGID_2_)" fill="none" stroke="#000000" stroke-width="3.684" stroke-linejoin="round" stroke-miterlimit="2" d="
		M132.734,159.764l-10.7,6.174c0,0,15.464,16.715,9.533,31.271C138.07,185.514,138.603,173.703,132.734,159.764z"/>
	<path clip-path="url(#SVGID_2_)" fill="#FFED00" d="M65.059,76.256l10.704-6.187c0,0-15.468-16.704-9.532-31.266
		C59.716,50.506,58.85,61.709,65.059,76.256"/>
	
		<path clip-path="url(#SVGID_2_)" fill="none" stroke="#000000" stroke-width="3.684" stroke-linejoin="round" stroke-miterlimit="2" d="
		M65.059,76.256l10.704-6.187c0,0-15.468-16.704-9.532-31.266C59.716,50.506,58.85,61.709,65.059,76.256z"/>
</g>
<g>
	<defs>
		<path id="SVGID_3_" d="M51.689,118.299c0,26.22,21.272,47.484,47.487,47.484c26.227,0,47.479-21.265,47.479-47.484
			c0-26.226-21.252-47.488-47.479-47.488C72.961,70.811,51.689,92.073,51.689,118.299"/>
	</defs>
	<clipPath id="SVGID_4_">
		<use xlink:href="#SVGID_3_"  overflow="visible"/>
	</clipPath>
	
		<linearGradient id="SVGID_5_" gradientUnits="userSpaceOnUse" x1="0" y1="250" x2="1" y2="250" gradientTransform="matrix(94.9658 0 0 -94.9658 51.71 23859.7559)">
		<stop  offset="0" style="stop-color:#FFED00"/>
		<stop  offset="0.2675" style="stop-color:#FFED02"/>
		<stop  offset="0.4105" style="stop-color:#FFEE0A"/>
		<stop  offset="0.5241" style="stop-color:#FFEE18"/>
		<stop  offset="0.6222" style="stop-color:#FFF02B"/>
		<stop  offset="0.7104" style="stop-color:#FFF144"/>
		<stop  offset="0.7914" style="stop-color:#FFF363"/>
		<stop  offset="0.867" style="stop-color:#FFF588"/>
		<stop  offset="0.9363" style="stop-color:#FFF7B1"/>
		<stop  offset="1" style="stop-color:#FFFADE"/>
	</linearGradient>
	<rect x="51.689" y="70.811" clip-path="url(#SVGID_4_)" fill="url(#SVGID_5_)" width="94.965" height="94.972"/>
</g>
<g>
	<defs>
		<rect id="SVGID_6_" width="250" height="250"/>
	</defs>
	<clipPath id="SVGID_7_">
		<use xlink:href="#SVGID_6_"  overflow="visible"/>
	</clipPath>
	
		<path clip-path="url(#SVGID_7_)" fill="none" stroke="#000000" stroke-width="3.684" stroke-linejoin="round" stroke-miterlimit="2" d="
		M99.176,70.811c-26.215,0-47.487,21.262-47.487,47.488c0,26.221,21.272,47.485,47.487,47.485c26.227,0,47.479-21.264,47.479-47.485
		C146.654,92.072,125.402,70.811,99.176,70.811z"/>
	<path clip-path="url(#SVGID_7_)" d="M98.119,154.551c-2.173-3.822,17.44,4.35,38.987-27.592
		C131.741,143.379,104.551,165.85,98.119,154.551"/>
</g>
<g>
	<defs>
		<path id="SVGID_8_" d="M119.468,118.235c-4.289-2.257-8.946-3.871-14.131-3.871c-17.093,0-30.969,13.875-30.969,30.968
			c0,3.59,1.009,6.867,2.128,10.066c-8.511,4.773-14.517,13.555-14.517,24.002c0,15.383,12.491,27.873,27.873,27.873h117.686
			c15.388,0,27.873-12.49,27.873-27.873c0-10.447-6.005-19.229-14.519-24.002c1.126-3.199,2.132-6.477,2.132-10.066
			c0-17.094-13.869-30.968-30.971-30.968c-5.185,0-9.836,1.614-14.131,3.871c-3.768-12.854-15.164-22.454-29.228-22.454
			C134.633,95.781,123.235,105.381,119.468,118.235"/>
	</defs>
	<clipPath id="SVGID_9_">
		<use xlink:href="#SVGID_8_"  overflow="visible"/>
	</clipPath>
	
		<linearGradient id="SVGID_10_" gradientUnits="userSpaceOnUse" x1="4.882813e-004" y1="250" x2="1.0005" y2="250" gradientTransform="matrix(173.4316 0 0 -173.4316 61.9199 43509.3867)">
		<stop  offset="0" style="stop-color:#89CFE5"/>
		<stop  offset="1" style="stop-color:#FFFADE"/>
	</linearGradient>
	<rect x="61.979" y="95.781" clip-path="url(#SVGID_9_)" fill="url(#SVGID_10_)" width="173.432" height="111.492"/>
</g>
<g>
	<defs>
		<rect id="SVGID_11_" width="250" height="250"/>
	</defs>
	<clipPath id="SVGID_12_">
		<use xlink:href="#SVGID_11_"  overflow="visible"/>
	</clipPath>
	<path clip-path="url(#SVGID_12_)" fill="none" stroke="#000000" stroke-width="4" stroke-miterlimit="2" d="M148.695,95.781
		c-14.063,0-25.46,9.6-29.228,22.453c-4.288-2.256-8.946-3.871-14.13-3.871c-17.093,0-30.969,13.875-30.969,30.969
		c0,3.59,1.009,6.867,2.128,10.066c-8.511,4.773-14.517,13.555-14.517,24.002c0,15.383,12.49,27.873,27.873,27.873h117.686
		c15.389,0,27.873-12.49,27.873-27.873c0-10.447-6.006-19.229-14.518-24.002c1.126-3.199,2.131-6.477,2.131-10.066
		c0-17.094-13.87-30.969-30.971-30.969c-5.185,0-9.835,1.615-14.131,3.871C174.155,105.381,162.758,95.781,148.695,95.781z"/>
	<path clip-path="url(#SVGID_12_)" fill="#EEEEEC" d="M53.801,103.92c-5.453,0-9.847,4.393-9.847,9.846v71.974
		c-4.544,3.133-7.521,8.373-7.521,14.307c0,9.588,7.779,17.367,17.368,17.367c9.588,0,17.367-7.779,17.367-17.367
		c0-5.934-2.977-11.174-7.521-14.307v-71.974C63.647,108.313,59.254,103.92,53.801,103.92"/>
	
		<path clip-path="url(#SVGID_12_)" fill="none" stroke="#000000" stroke-width="3.07" stroke-linecap="round" stroke-linejoin="round" d="
		M53.801,103.92c-5.453,0-9.847,4.393-9.847,9.846v71.974c-4.544,3.133-7.521,8.373-7.521,14.307
		c0,9.588,7.779,17.367,17.368,17.367c9.588,0,17.367-7.779,17.367-17.367c0-5.934-2.977-11.174-7.521-14.307v-71.974
		C63.647,108.313,59.254,103.92,53.801,103.92z"/>
	<path clip-path="url(#SVGID_12_)" fill="#CC0000" d="M53.801,119.953c-3.393,0-6.12,3.406-6.12,7.631v60.359
		c-4.411,2.236-7.44,6.822-7.44,12.104c0,7.484,6.077,13.545,13.56,13.545s13.56-6.061,13.56-13.545
		c0-5.281-3.029-9.867-7.44-12.104v-60.359C59.921,123.359,57.193,119.953,53.801,119.953"/>
	
		<path clip-path="url(#SVGID_12_)" fill="none" stroke="#000000" stroke-width="3.07" stroke-linecap="round" stroke-linejoin="round" d="
		M53.801,119.953c-3.393,0-6.12,3.406-6.12,7.631v60.359c-4.411,2.236-7.44,6.822-7.44,12.104c0,7.484,6.077,13.545,13.56,13.545
		s13.56-6.061,13.56-13.545c0-5.281-3.029-9.867-7.44-12.104v-60.359C59.921,123.359,57.193,119.953,53.801,119.953z"/>
	
		<line clip-path="url(#SVGID_12_)" fill="none" stroke="#000000" stroke-width="3.07" x1="51.782" y1="160.527" x2="62.783" y2="160.527"/>
	
		<line clip-path="url(#SVGID_12_)" fill="none" stroke="#000000" stroke-width="3.07" x1="51.782" y1="145.279" x2="62.783" y2="145.279"/>
	
		<line clip-path="url(#SVGID_12_)" fill="none" stroke="#000000" stroke-width="3.07" x1="51.782" y1="130.031" x2="62.783" y2="130.031"/>
	
		<line clip-path="url(#SVGID_12_)" fill="none" stroke="#000000" stroke-width="3.07" x1="51.782" y1="175.773" x2="62.783" y2="175.773"/>
</g>
</svg>
