<?xml version="1.0" encoding="utf-8"?>
<!-- Generator: Adobe Illustrator 15.0.0, SVG Export Plug-In . SVG Version: 6.00 Build 0)  -->
<!DOCTYPE svg PUBLIC "-//W3C//DTD SVG 1.1//EN" "http://www.w3.org/Graphics/SVG/1.1/DTD/svg11.dtd">
<svg version="1.1" id="Ebene_1" xmlns="http://www.w3.org/2000/svg" xmlns:xlink="http://www.w3.org/1999/xlink" x="0px" y="0px"
	 width="250px" height="250px" viewBox="0 0 250 250" enable-background="new 0 0 250 250" xml:space="preserve">
<g>
	<defs>
		<rect id="SVGID_1_" width="250" height="250"/>
	</defs>
	<clipPath id="SVGID_2_">
		<use xlink:href="#SVGID_1_"  overflow="visible"/>
	</clipPath>
	<g clip-path="url(#SVGID_2_)">
		<defs>
			<rect id="SVGID_3_" width="250" height="250"/>
		</defs>
		<clipPath id="SVGID_4_">
			<use xlink:href="#SVGID_3_"  overflow="visible"/>
		</clipPath>
		<path clip-path="url(#SVGID_4_)" fill="#EDD400" d="M158.869,150.174l-12.998,17.801h15.721c0,0-11.244,18.826-31.514,53.768
			c8.721-33.057,12.283-45.633,12.283-45.633h-21.474l16.816-25.936H158.869z"/>
		<path clip-path="url(#SVGID_4_)" fill="none" stroke="#000000" stroke-width="4.16" d="M158.869,150.174l-12.998,17.801h15.721
			c0,0-11.244,18.826-31.514,53.768c8.721-33.057,12.283-45.633,12.283-45.633h-21.474l16.816-25.936H158.869z"/>
	</g>
	<g clip-path="url(#SVGID_2_)">
		<defs>
			<path id="SVGID_5_" d="M140.348,150.222L125,173.953l20.375-0.369c0,0,0.115,0.073-8.606,33.129
				c20.265-34.941,20.851-36.85,20.851-36.85l-16.459,0.73l15.572-21.471L140.348,150.222z"/>
		</defs>
		<clipPath id="SVGID_6_">
			<use xlink:href="#SVGID_5_"  overflow="visible"/>
		</clipPath>
		<defs>
			<filter id="Adobe_OpacityMaskFilter" filterUnits="userSpaceOnUse" x="97.996" y="133.828" width="86.627" height="88.18">
				<feColorMatrix  type="matrix" values="1 0 0 0 0  0 1 0 0 0  0 0 1 0 0  0 0 0 1 0"/>
			</filter>
		</defs>
		<mask maskUnits="userSpaceOnUse" x="97.996" y="133.828" width="86.627" height="88.18" id="SVGID_7_">
			<g filter="url(#Adobe_OpacityMaskFilter)">
				
					<linearGradient id="SVGID_8_" gradientUnits="userSpaceOnUse" x1="0" y1="249.9609" x2="1" y2="249.9609" gradientTransform="matrix(-23.7625 16.5422 -16.5422 -23.7625 4288.208 6109.2695)">
					<stop  offset="0" style="stop-color:#FFFFFF"/>
					<stop  offset="1" style="stop-color:#000000"/>
				</linearGradient>
				<polygon clip-path="url(#SVGID_6_)" fill="url(#SVGID_8_)" points="146.972,133.828 97.996,167.922 135.647,222.008 
					184.623,187.914 				"/>
			</g>
		</mask>
		
			<linearGradient id="SVGID_9_" gradientUnits="userSpaceOnUse" x1="0" y1="249.9609" x2="1" y2="249.9609" gradientTransform="matrix(-23.7625 16.5422 -16.5422 -23.7625 4288.208 6109.2695)">
			<stop  offset="0" style="stop-color:#FFFFFF"/>
			<stop  offset="1" style="stop-color:#FFFFFF"/>
		</linearGradient>
		<polygon clip-path="url(#SVGID_6_)" mask="url(#SVGID_7_)" fill="url(#SVGID_9_)" points="146.972,133.828 97.996,167.922 
			135.647,222.008 184.623,187.914 		"/>
	</g>
	<g clip-path="url(#SVGID_2_)">
		<defs>
			<rect id="SVGID_10_" width="250" height="250"/>
		</defs>
		<clipPath id="SVGID_11_">
			<use xlink:href="#SVGID_10_"  overflow="visible"/>
		</clipPath>
		<path clip-path="url(#SVGID_11_)" fill="#EDD400" d="M92.318,137.695L79.32,155.496H95.04c0,0-11.244,18.826-31.512,53.768
			c8.721-33.057,12.283-45.633,12.283-45.633H54.334l16.816-25.936H92.318z"/>
		<path clip-path="url(#SVGID_11_)" fill="none" stroke="#000000" stroke-width="4.16" d="M92.318,137.695L79.32,155.496H95.04
			c0,0-11.244,18.826-31.512,53.768c8.721-33.057,12.283-45.633,12.283-45.633H54.334l16.816-25.936H92.318z"/>
	</g>
	<g clip-path="url(#SVGID_2_)">
		<defs>
			<path id="SVGID_12_" d="M73.795,137.744L58.45,161.474l20.374-0.368c0,0,0.113,0.072-8.607,33.129
				c20.265-34.941,20.849-36.85,20.849-36.85l-16.459,0.73l15.575-21.472L73.795,137.744z"/>
		</defs>
		<clipPath id="SVGID_13_">
			<use xlink:href="#SVGID_12_"  overflow="visible"/>
		</clipPath>
		<defs>
			<filter id="Adobe_OpacityMaskFilter_1_" filterUnits="userSpaceOnUse" x="31.446" y="121.35" width="86.625" height="88.177">
				<feColorMatrix  type="matrix" values="1 0 0 0 0  0 1 0 0 0  0 0 1 0 0  0 0 0 1 0"/>
			</filter>
		</defs>
		<mask maskUnits="userSpaceOnUse" x="31.446" y="121.35" width="86.625" height="88.177" id="SVGID_14_">
			<g filter="url(#Adobe_OpacityMaskFilter_1_)">
				
					<linearGradient id="SVGID_15_" gradientUnits="userSpaceOnUse" x1="0" y1="249.9619" x2="1" y2="249.9619" gradientTransform="matrix(-23.7659 16.5445 -16.5445 -23.7659 4222.2734 6097.644)">
					<stop  offset="0" style="stop-color:#FFFFFF"/>
					<stop  offset="1" style="stop-color:#000000"/>
				</linearGradient>
				<polygon clip-path="url(#SVGID_13_)" fill="url(#SVGID_15_)" points="80.419,121.35 31.446,155.443 69.097,209.527 
					118.07,175.436 				"/>
			</g>
		</mask>
		
			<linearGradient id="SVGID_16_" gradientUnits="userSpaceOnUse" x1="0" y1="249.9619" x2="1" y2="249.9619" gradientTransform="matrix(-23.7659 16.5445 -16.5445 -23.7659 4222.2734 6097.644)">
			<stop  offset="0" style="stop-color:#FFFFFF"/>
			<stop  offset="1" style="stop-color:#FFFFFF"/>
		</linearGradient>
		<polygon clip-path="url(#SVGID_13_)" mask="url(#SVGID_14_)" fill="url(#SVGID_16_)" points="80.419,121.35 31.446,155.443 
			69.097,209.527 118.07,175.436 		"/>
	</g>
	<g clip-path="url(#SVGID_2_)">
		<defs>
			<rect id="SVGID_17_" width="250" height="250"/>
		</defs>
		<clipPath id="SVGID_18_">
			<use xlink:href="#SVGID_17_"  overflow="visible"/>
		</clipPath>
		<path clip-path="url(#SVGID_18_)" d="M127.049,28.258c-11.531,0-21.248,6.543-26.646,15.857
			c-3.928-1.978-8.172-3.378-12.868-3.378c-16.074,0-29.117,13.039-29.117,29.115c0,16.07,13.043,29.117,29.117,29.117
			c10.065,0,18.428-5.492,23.657-13.258c4.716,2.867,9.939,4.94,15.857,4.94c3.799,0,7.293-0.967,10.66-2.211
			c2.123,3.607,4.902,6.568,8.318,8.968c-0.029,0.541-0.26,1.008-0.26,1.561c0,16.068,13.043,29.117,29.115,29.117
			c16.074,0,29.117-13.049,29.117-29.117c0-9.859-5.236-18.133-12.738-23.397c0.029-0.544,0.26-1.011,0.26-1.56
			c0-16.078-13.043-29.117-29.118-29.117c-2.585,0-4.884,0.922-7.276,1.56C150.158,35.813,139.564,28.258,127.049,28.258"/>
		<path clip-path="url(#SVGID_18_)" fill="#B2B2B2" d="M127.049,32.416c-11.564,0-21.354,7.328-25.217,17.549
			c-4.097-2.953-8.867-5.07-14.297-5.07c-13.775,0-24.957,11.179-24.957,24.957c0,13.775,11.182,24.957,24.957,24.957
			c10.098,0,18.688-6.057,22.618-14.688c4.662,3.815,10.41,6.369,16.896,6.369c4.473,0,8.502-1.328,12.219-3.25
			c1.658,4.16,4.578,7.426,8.059,10.139c-0.746,2.478-1.559,4.947-1.559,7.67c0,14.924,12.113,27.037,27.037,27.037
			s27.035-12.113,27.035-27.037c0-9.822-5.547-18.012-13.387-22.748c0.26-1.446,0.908-2.77,0.908-4.289
			c0-13.78-11.182-24.957-24.958-24.957c-3.544,0-6.948,0.74-10.007,2.08C148.846,40.346,139.02,32.416,127.049,32.416"/>
		<path clip-path="url(#SVGID_18_)" fill="#B2B2B2" d="M156.227,80.25c-9.447,0-17.096,6.447-19.627,15.08
			c-2.885-1.516-6.012-2.601-9.488-2.601c-11.481,0-20.799,9.314-20.799,20.798c0,2.405,0.674,4.606,1.43,6.758
			c-5.711,3.201-9.748,9.104-9.748,16.119c0,10.33,8.384,18.717,18.716,18.717h79.032c10.334,0,18.717-8.387,18.717-18.717
			c0-7.016-4.037-12.918-9.748-16.119c0.756-2.152,1.43-4.353,1.43-6.758c0-11.484-9.318-20.798-20.797-20.798
			c-3.482,0-6.605,1.085-9.488,2.601C173.32,86.697,165.672,80.25,156.227,80.25"/>
		<path clip-path="url(#SVGID_18_)" fill="none" stroke="#000000" stroke-width="4.16" stroke-miterlimit="2" d="M156.227,80.25
			c-9.447,0-17.096,6.447-19.627,15.08c-2.885-1.516-6.012-2.601-9.488-2.601c-11.481,0-20.799,9.314-20.799,20.798
			c0,2.405,0.674,4.606,1.43,6.758c-5.711,3.201-9.748,9.104-9.748,16.119c0,10.33,8.384,18.717,18.716,18.717h79.032
			c10.334,0,18.717-8.387,18.717-18.717c0-7.016-4.037-12.918-9.748-16.119c0.756-2.152,1.43-4.353,1.43-6.758
			c0-11.484-9.318-20.798-20.797-20.798c-3.482,0-6.605,1.085-9.488,2.601C173.32,86.697,165.672,80.25,156.227,80.25z"/>
	</g>
	<g clip-path="url(#SVGID_2_)">
		<defs>
			<path id="SVGID_19_" d="M137.943,98.318c-2.781-1.43-6.438-3.468-9.793-3.468c-11.3,0-19.781,8.066-19.781,18.904
				c0,2.276,1.111,5.549,1.84,7.58c-5.507,3.031-10.134,7.863-10.134,14.031c0,9.756,6.429,17.678,18.046,17.678h76.207
				c11.529,0,18.053-7.922,18.053-17.678c0-6.627-4.631-11.093-10.138-14.121c0.729-2.031,1.933-5.214,1.933-7.49
				c0-10.838-8.803-18.994-19.873-18.994c-3.354,0-6.832,2.031-9.608,3.46c-2.698-10.068-9.36-15.89-18.468-15.89
				S140.738,87.887,137.943,98.318"/>
		</defs>
		<clipPath id="SVGID_20_">
			<use xlink:href="#SVGID_19_"  overflow="visible"/>
		</clipPath>
		<defs>
			<filter id="Adobe_OpacityMaskFilter_2_" filterUnits="userSpaceOnUse" x="67.796" y="31.064" width="176.864" height="173.244">
				<feColorMatrix  type="matrix" values="1 0 0 0 0  0 1 0 0 0  0 0 1 0 0  0 0 0 1 0"/>
			</filter>
		</defs>
		<mask maskUnits="userSpaceOnUse" x="67.796" y="31.064" width="176.864" height="173.244" id="SVGID_21_">
			<g filter="url(#Adobe_OpacityMaskFilter_2_)">
				
					<linearGradient id="SVGID_22_" gradientUnits="userSpaceOnUse" x1="0" y1="249.8857" x2="1" y2="249.8857" gradientTransform="matrix(58.2624 37.7766 -37.7766 58.2624 9559.6836 -14464.8604)">
					<stop  offset="0" style="stop-color:#FFFFFF"/>
					<stop  offset="1" style="stop-color:#000000"/>
				</linearGradient>
				<polygon clip-path="url(#SVGID_20_)" fill="url(#SVGID_22_)" points="67.796,132.113 179.141,204.309 244.66,103.259 
					133.314,31.064 				"/>
			</g>
		</mask>
		
			<linearGradient id="SVGID_23_" gradientUnits="userSpaceOnUse" x1="0" y1="249.8857" x2="1" y2="249.8857" gradientTransform="matrix(58.2624 37.7766 -37.7766 58.2624 9559.6836 -14464.8604)">
			<stop  offset="0" style="stop-color:#FFFFFF"/>
			<stop  offset="1" style="stop-color:#FFFFFF"/>
		</linearGradient>
		<polygon clip-path="url(#SVGID_20_)" mask="url(#SVGID_21_)" fill="url(#SVGID_23_)" points="67.796,132.113 179.141,204.309 
			244.66,103.259 133.314,31.064 		"/>
	</g>
	<g clip-path="url(#SVGID_2_)">
		<defs>
			<rect id="SVGID_24_" width="250" height="250"/>
		</defs>
		<clipPath id="SVGID_25_">
			<use xlink:href="#SVGID_24_"  overflow="visible"/>
		</clipPath>
		<path clip-path="url(#SVGID_25_)" d="M208.037,114.217c-0.004,11.164-13.596,15.445-13.596,15.445s9.766-6.759,9.717-15.412
			L208.037,114.217z"/>
		<path clip-path="url(#SVGID_25_)" fill="#B2B2B2" d="M93.773,63.543c-9.443,0-17.098,6.447-19.627,15.078
			c-2.881-1.514-6.008-2.599-9.49-2.599c-11.479,0-20.797,9.318-20.797,20.798c0,2.409,0.678,4.61,1.43,6.758
			c-5.715,3.205-9.748,9.104-9.748,16.119c0,10.331,8.386,18.717,18.716,18.717h79.032c10.334,0,18.717-8.387,18.717-18.717
			c0-7.015-4.033-12.914-9.748-16.119c0.756-2.148,1.43-4.349,1.43-6.758c0-11.48-9.314-20.798-20.797-20.798
			c-3.482,0-6.605,1.085-9.49,2.599C110.872,69.99,103.216,63.543,93.773,63.543"/>
		<path clip-path="url(#SVGID_25_)" fill="none" stroke="#000000" stroke-width="4.16" stroke-miterlimit="2" d="M93.773,63.543
			c-9.443,0-17.098,6.447-19.627,15.078c-2.881-1.514-6.008-2.599-9.49-2.599c-11.479,0-20.797,9.318-20.797,20.798
			c0,2.409,0.678,4.61,1.43,6.758c-5.715,3.205-9.748,9.104-9.748,16.119c0,10.331,8.386,18.717,18.716,18.717h79.032
			c10.334,0,18.717-8.387,18.717-18.717c0-7.015-4.033-12.914-9.748-16.119c0.756-2.148,1.43-4.349,1.43-6.758
			c0-11.48-9.314-20.798-20.797-20.798c-3.482,0-6.605,1.085-9.49,2.599C110.872,69.99,103.216,63.543,93.773,63.543z"/>
		<path clip-path="url(#SVGID_25_)" d="M145.584,97.51c-0.004,11.168-13.596,15.449-13.596,15.449s9.77-6.763,9.721-15.412
			L145.584,97.51z"/>
	</g>
</g>
</svg>
