<?xml version="1.0" encoding="utf-8"?>
<!-- Generator: Adobe Illustrator 16.0.0, SVG Export Plug-In . SVG Version: 6.00 Build 0)  -->
<!DOCTYPE svg PUBLIC "-//W3C//DTD SVG 1.1//EN" "http://www.w3.org/Graphics/SVG/1.1/DTD/svg11.dtd">
<svg version="1.1" id="Calque_1" xmlns="http://www.w3.org/2000/svg" xmlns:xlink="http://www.w3.org/1999/xlink" x="0px" y="0px"
	 width="250px" height="250px" viewBox="0 0 250 250" enable-background="new 0 0 250 250" xml:space="preserve">
<g id="schattierung">
	<g>
		<path fill="#6B1623" stroke="#000000" stroke-miterlimit="10" d="M97.85,156.614c0,0-0.155,12.481,0.412,15.421
			c0.568,2.939,1.29,7.323,1.393,8.715c0.103,1.393,0.567,7.84,0.567,7.84s-1.547,1.031-1.702,1.96
			c-0.155,0.928-0.051,2.27,0.207,2.631c0.257,0.359-0.774,0.617-0.362,1.392c0.413,0.774,1.29,1.6,1.29,1.6
			s-0.412,5.777-0.361,8.047c0.051,2.27-0.154,6.188,0,7.323c0.155,1.136,0.309,2.269,0.309,2.269s-0.36,2.218-0.515,4.023
			s-0.258,6.241-0.464,7.529c-0.207,1.289-0.516,2.425-0.516,2.425s1.032,0.103,2.063,0.361c1.031,0.257,4.332,0.771,5.982,0.722
			c1.65-0.051,3.971-0.929,4.384-1.135c0.413-0.207,1.134-0.723,1.134-0.723s-0.774-3.713-0.928-4.797
			c-0.154-1.082-0.619-7.58-0.67-8.922c-0.052-1.341-0.258-4.074-0.052-5.775c0.206-1.702,0.361-3.3,0.31-3.868
			c-0.052-0.567,0.619-2.837,0.773-3.714c0.155-0.876,0.774-1.753,0.516-2.217c-0.258-0.464-0.464-0.929-0.464-0.929
			s0.722-0.104,0.928-0.67c0.207-0.567,0.258-1.187,0.052-1.238c-0.207-0.051-0.207-0.051-0.207-0.051s0.465-0.671,0.414-1.135
			s0.412-0.825,0.515-1.6c0.103-0.773,0.207-2.218-0.104-3.196c-0.309-0.98-0.412-1.911-0.257-2.427
			c0.154-0.516,0.103-3.197,0.052-3.817c-0.052-0.618,0.515-3.713,0.566-4.899s1.496-10.624,1.6-11.759
			c0.103-1.135,0.67-5.931,0.67-5.931l0.567-2.682l3.095-0.671c0,0,1.341,10.831,1.599,12.018s1.032,6.395,1.393,7.427
			c0.36,1.031,0.67,3.146,0.67,3.146s-0.31,3.403-0.155,4.178c0.155,0.773,0.464,2.939,0.207,3.455
			c-0.258,0.515-0.98,0.671-0.67,1.444c0.309,0.773,0.876,1.135,1.186,1.444c0.31,0.31-0.309,0.464-0.413,1.236
			c-0.103,0.774-0.361,1.497,0.104,2.013c0.464,0.516,0.773,0.258,0.773,0.258s0.258,11.037,0.207,12.225
			c-0.052,1.186-0.207,5.363-0.31,6.859c-0.103,1.495-0.773,8.509-0.876,9.747c-0.104,1.238-0.258,6.188-0.258,6.188
			s2.218,0.876,4.59,0.928c2.372,0.052,3.868-0.051,4.899-0.361c1.032-0.308,2.424-0.875,2.424-0.875s-1.341-7.891-1.444-9.954
			c-0.104-2.063-0.104-10.573-0.104-11.294c0-0.723,0.207-10.572,0.207-10.572l0.154-2.786c0,0,0.258,0.104,0.31-0.67
			c0.052-0.773-0.361-1.135-0.567-1.289c-0.207-0.156,0.517-0.569,0.774-1.653c0.258-1.083,0.516-2.836,0.31-3.713
			c-0.207-0.877-0.567-1.496-0.515-3.197c0.051-1.701,0.567-8.871,0.618-11.656s0.154-9.438,0.154-11.191
			c0-1.753,0.361-3.816,0.413-5.003c0.051-1.186-0.052-3.146-0.052-3.146l-20.114,3.816l-16.659-0.772L97.85,156.614z"/>
		<path fill="none" stroke="#000000" stroke-width="0.3457" stroke-miterlimit="10" d="M101.462,170.283"/>
		<ellipse cx="110.485" cy="90.486" rx="1.389" ry="1.418"/>
		<ellipse cx="120.066" cy="91.428" rx="1.389" ry="1.418"/>
		<ellipse cx="110.43" cy="110.648" rx="1.389" ry="1.419"/>
		<ellipse cx="120.248" cy="109.992" rx="1.389" ry="1.418"/>
		<ellipse cx="109.251" cy="132.833" rx="1.389" ry="1.419"/>
		<ellipse cx="118.037" cy="131.708" rx="1.389" ry="1.418"/>
		<ellipse cx="109.897" cy="151.673" rx="1.39" ry="1.418"/>
		<ellipse cx="121.313" cy="151.732" rx="1.389" ry="1.419"/>
		
			<ellipse transform="matrix(-0.2932 -0.9561 0.9561 -0.2932 77.7667 210.476)" fill="#593217" cx="116.685" cy="76.492" rx="0.674" ry="0.891"/>
		<path fill="#593217" d="M90.019,44.373c0,0-1.515,4.063-1.739,5.439c-0.221,1.359,0.032,8.798,0.952,10.308
			c0.919,1.508,4.286,5.658,5.057,6.453s3.798,3.354,5.67,4.45c1.871,1.095,5.221,3.11,5.221,3.11l0.897,0.547
			c0,0-0.242-2.679-0.479-3.431s-0.886-3.033-0.886-3.033l-5.981-6.076l-5.211-2.876c0,0-0.09-1.941,0.243-2.189
			c0.332-0.25,0.505-0.435,0.505-0.435s1.827,2.175,2.649,2.551c0.822,0.375,2.487,0.878,2.775,0.869
			c0.29-0.009,0.512-0.033,0.512-0.033s-2.192-2.243-2.502-3.196c-0.31-0.953-0.753-3.523-0.675-4.184
			c0.08-0.66,0.713-2.706,1.471-3.859c0.756-1.152,1.728-2.371,1.913-2.779c0.184-0.409,0.78-2.511,0.78-2.511l-2.942-0.832
			l-6.963-1.139L90.019,44.373z"/>
		<path fill="#593217" d="M115.398,76.201c-0.114-0.085-2.139-2.494-2.139-2.494l5.104-5.98l4.989-8.268l-1.437-12.367
			l-11.059-1.898l-2.773-1.536c0,0,5.428-5.949,11.076-5.982c5.647-0.032,6.16-0.729,6.16-0.729l0.603,0.782
			c0,0,2.491,3.649,3.134,6.08c0.643,2.432,1.428,6.507,1.01,8.981c-0.417,2.475-1.27,5.396-1.573,6.054
			c-0.304,0.658-2.405,4.1-2.782,4.578c-0.376,0.479-2.438,2.879-2.844,3.325c-0.408,0.446-2.855,3.094-3.259,3.646
			c-1.869,2.554-2.211,3.116-2.873,3.738c-0.468,0.44-0.372,1.272-0.076,1.659"/>
		<path fill="#593217" d="M132.393,85.188"/>
		<path fill="#422A19" d="M108.309,76.22c-0.069-0.043-7-4.312-9.307-5.563c-2.5-1.356-5.266-4.113-8.967-8.938
			c-2.036-2.652-2.317-9.639-1.984-12.018c0.359-2.566,2.669-7.64,2.677-7.659L91,42.161c-0.008,0.019-2.304,5.061-2.657,7.589
			c-0.324,2.319-0.044,9.218,1.927,11.789c3.675,4.789,6.412,7.521,8.873,8.856c2.314,1.256,9.251,5.529,9.322,5.573L108.309,76.22z
			"/>
		<path fill="#422A19" d="M116.546,75.886c-0.689-0.743-0.004-1.698,0.547-2.467c0.062-0.085,0.122-0.168,0.178-0.25
			c1.54-2.205,3.23-4.055,4.866-5.844c3.881-4.245,7.548-8.256,7.833-15.932c0.438-11.826-8.742-21.801-20.464-22.235l0.011-0.296
			c5.758,0.213,11.088,2.676,15.007,6.934c3.918,4.258,5.958,9.801,5.743,15.609c-0.289,7.783-3.991,11.833-7.91,16.12
			c-1.629,1.782-3.313,3.623-4.841,5.813c-0.058,0.082-0.118,0.167-0.181,0.254c-0.514,0.717-1.098,1.529-0.566,2.096l0.009,0.011"
			/>
		<path d="M114.969,75.626c0,0,1.337-1.121,1.726-0.784c0.388,0.338,0.167,0.854,0.167,0.854s-0.267,0.487-0.473,0.694
			c-0.207,0.208-0.991,0.468-0.993,0.646c-0.003,0.178-0.38-0.015-0.38-0.015L114.969,75.626"/>
		<path fill="#FCE097" d="M93.975,56.26l-0.805,3.08c0,0,0.588,1.148,1.885,1.838c1.298,0.688,3.337,1.099,3.337,1.099l3.275,3.167
			c0,0,1.545,1.727,2.09,2.125c0.545,0.397,6.042,4.012,6.215,4.109c0.174,0.099,2.961,1.814,4.295,1.438
			c1.335-0.376,1.671-0.63,2.293-1.337c0.622-0.707,5.306-6.431,5.306-6.431s2.541-3.808,2.882-4.357
			c0.342-0.55,1.25-2.894,1.211-4.451c-0.04-1.557-0.393-3.054-0.67-3.78c-0.277-0.729-1.507-3.503-1.635-3.797
			c-0.129-0.291-0.385-1.534-0.275-1.982c0.109-0.447,0.247-0.698,0.247-0.698l-5.046,0.132l-7.371-1.778
			c0,0-2.784-0.75-5.101-1.785c-2.258-1.01-4.043-2.495-4.089-2.5c-0.092-0.008-1.13,4.411-1.13,4.411s-0.488,1.303-0.621,1.484
			s-2.177,3.229-2.323,3.521c-0.147,0.292-0.94,1.933-0.919,2.883c0.021,0.95,0.447,3.75,1.146,4.91
			c0.698,1.159,2.032,2.47,2.032,2.47s-2.874-0.352-3.59-1.019C95.899,58.343,93.975,56.26,93.975,56.26z"/>
		<g>
			<path fill="#FFFFFF" d="M109.574,63.92l5.64,0.618l2.964-0.299c0,0-1.742,2.416-2.046,2.542
				c-0.305,0.124-4.352-0.473-4.352-0.473L109.574,63.92z"/>
			<path d="M115.832,66.845c-0.996-0.037-4.027-0.482-4.058-0.487l-0.017-0.003l-2.309-2.498l5.766,0.631l3.068-0.309l-0.064,0.088
				c-0.179,0.25-1.758,2.433-2.067,2.56C116.121,66.837,116.057,66.853,115.832,66.845z M111.805,66.263
				c0.249,0.035,3.079,0.448,4.03,0.483c0.208,0.007,0.264-0.007,0.278-0.012c0.208-0.085,1.262-1.471,1.96-2.436l-2.859,0.289
				l-0.006-0.001l-5.508-0.604L111.805,66.263z"/>
		</g>
		<path fill="#FCE097" d="M104.504,68.077c0,0,1.695,4.395,1.644,5.8c-0.051,1.407-1.204,6.596-1.204,6.596l-2.296,1.481
			l7.807,2.226l3.193-0.423l3.911-1.366c0,0-2.441-4.382-2.501-4.804c-0.06-0.422-0.257-5.132-0.257-5.132s-8.947-4.63-8.864-4.807
			c0.081-0.177-1.225,0.568-1.225,0.568L104.504,68.077z"/>
		<g>
			<path fill="#EFBA7A" d="M123.327,46.364c0,0-3.65,0.222-4.937-0.022c-1.286-0.244-5.339-1.126-7.023-1.664
				c-1.684-0.537-5.708-1.991-5.708-1.991l4.921,2.949c0,0,7.475,2.24,8.092,2.156c0.617-0.084,4.177,0.155,4.177,0.155l0.464-0.141
				L123.327,46.364z"/>
			<path fill="#EFBA7A" d="M118.604,47.942c-0.951-0.035-7.776-2.078-8.066-2.164l-0.034-0.016l-4.921-2.948l0.126-0.268
				c0.041,0.016,4.04,1.459,5.702,1.99c1.654,0.528,5.713,1.413,7.007,1.659c0.249,0.048,0.612,0.08,1.078,0.098
				c1.564,0.058,3.799-0.076,3.821-0.078l0.16-0.009l-0.017,1.711l-0.594,0.179l-0.026-0.002c-0.017,0-1.595-0.105-2.816-0.15
				c-0.884-0.033-1.212-0.021-1.332-0.005C118.667,47.943,118.638,47.943,118.604,47.942z M110.64,45.499
				c0.396,0.117,7.085,2.113,7.975,2.146c0.015,0.001,0.027,0.001,0.038,0c0.194-0.026,0.645-0.026,1.383,0.002
				c1.137,0.042,2.583,0.135,2.797,0.148l0.334-0.1l0.012-1.175c-0.542,0.029-2.358,0.118-3.692,0.068
				c-0.481-0.018-0.859-0.053-1.122-0.103c-1.34-0.254-5.351-1.128-7.041-1.668c-1.033-0.33-2.962-1.01-4.291-1.483L110.64,45.499z"
				/>
		</g>
		<g>
			<path fill="#FFFFFF" d="M102.657,52.899c0.063,1.551,1.867,2.846,4.129,2.929c1.398,0.052,2.657-0.37,3.455-1.064
				c-0.926-1.425-2.638-2.416-4.631-2.488C104.536,52.234,103.524,52.466,102.657,52.899z"/>
			<path d="M106.781,55.977c-2.329-0.086-4.206-1.436-4.272-3.07l-0.004-0.097l0.086-0.043c0.917-0.459,1.963-0.681,3.024-0.642
				c1.982,0.074,3.757,1.029,4.75,2.557l0.07,0.109l-0.097,0.083C109.474,55.627,108.177,56.028,106.781,55.977z M102.813,52.989
				c0.13,1.438,1.852,2.612,3.98,2.69c1.249,0.047,2.452-0.306,3.251-0.945c-0.952-1.382-2.602-2.244-4.439-2.313
				C104.627,52.387,103.664,52.583,102.813,52.989z"/>
		</g>
		<g>
			<path fill="#FFFFFF" d="M120.395,50.684c-2.441,0.625-4.155,2.312-4.076,3.905c0.841,0.126,1.795,0.081,2.77-0.168
				c2.441-0.626,4.155-2.312,4.076-3.905C122.325,50.39,121.369,50.435,120.395,50.684z"/>
			<path d="M117.006,54.801L117.006,54.801c-0.242-0.009-0.48-0.03-0.709-0.065l-0.12-0.019l-0.006-0.121
				c-0.084-1.679,1.716-3.424,4.187-4.056c0.713-0.184,1.427-0.263,2.12-0.236c0.242,0.008,0.48,0.031,0.71,0.065l0.119,0.018
				l0.007,0.121c0.083,1.681-1.717,3.424-4.187,4.056C118.414,54.747,117.7,54.827,117.006,54.801z M116.465,54.459
				c0.179,0.023,0.366,0.039,0.552,0.045c0.665,0.024,1.351-0.052,2.036-0.228c2.275-0.582,3.95-2.128,3.967-3.631
				c-0.181-0.023-0.367-0.039-0.553-0.046c-0.665-0.024-1.35,0.053-2.036,0.228C118.157,51.41,116.48,52.956,116.465,54.459z"/>
		</g>
		<g>
			
				<ellipse transform="matrix(0.0371 -0.9993 0.9993 0.0371 48.6737 157.6512)" fill="#056734" cx="106.147" cy="53.567" rx="2.136" ry="2.232"/>
			<path d="M106.064,55.85c-1.311-0.049-2.34-1.112-2.294-2.371c0.047-1.259,1.152-2.244,2.463-2.194
				c1.312,0.047,2.341,1.111,2.294,2.371C108.481,54.914,107.376,55.898,106.064,55.85z M106.223,51.579
				c-1.149-0.042-2.116,0.814-2.157,1.91c-0.04,1.095,0.861,2.021,2.009,2.063c1.148,0.044,2.116-0.813,2.156-1.909
				C108.272,52.548,107.371,51.622,106.223,51.579z"/>
		</g>
		<g>
			
				<ellipse transform="matrix(0.037 -0.9993 0.9993 0.037 61.9091 168.9474)" fill="#056734" cx="118.611" cy="52.353" rx="2.041" ry="2.27"/>
			<path d="M118.533,54.538c-1.333-0.05-2.38-1.07-2.336-2.278c0.045-1.206,1.166-2.147,2.499-2.098
				c1.333,0.05,2.381,1.071,2.336,2.277C120.987,53.646,119.866,54.588,118.533,54.538z M118.684,50.459
				c-1.169-0.043-2.151,0.77-2.19,1.812c-0.039,1.044,0.881,1.927,2.05,1.971c1.169,0.043,2.152-0.771,2.192-1.813
				C120.775,51.386,119.854,50.502,118.684,50.459z"/>
		</g>
		<path fill="#422A19" d="M99.564,60.208c-0.854-0.031-2.412-0.337-3.992-1.902c-2.277-2.253-2.811-3.799-2.832-3.863l0.281-0.094
			c0.006,0.015,0.539,1.55,2.759,3.747c1.675,1.658,3.348,1.827,4.049,1.813c-0.328-0.289-0.897-0.834-1.465-1.577
			c-0.943-1.235-1.459-3.117-1.491-5.44c-0.033-2.297,2.11-5.171,3.025-6.397c0.098-0.133,0.183-0.245,0.248-0.337
			c0.647-0.896,1.494-4.952,1.503-4.992l0.291,0.06c-0.035,0.17-0.869,4.159-1.552,5.107c-0.067,0.091-0.152,0.205-0.251,0.34
			c-0.897,1.203-2.998,4.021-2.967,6.216c0.032,2.259,0.527,4.078,1.431,5.263c0.829,1.087,1.685,1.753,1.694,1.76l0.26,0.202
			l-0.324,0.061C100.202,60.18,99.957,60.222,99.564,60.208z"/>
		<path fill="#422A19" d="M118.686,46.479c-0.052-0.002-0.094-0.005-0.119-0.007c-0.956-0.1-6.143-1.375-9.008-2.254
			c-2.801-0.859-6.058-2.334-7.576-3.428c-1.512-1.092-2.984-5.239-3.046-5.415l0.279-0.1c0.015,0.043,1.503,4.236,2.939,5.272
			c1.496,1.08,4.715,2.535,7.489,3.387c2.853,0.875,8.007,2.144,8.952,2.241c0.612,0.063,4.704-0.037,4.978-0.121l0.116,0.271
			C123.424,46.448,119.518,46.51,118.686,46.479z"/>
		<path fill="#EFBA7A" d="M113.84,73.271c-0.354-0.013-0.754-0.069-1.198-0.192c-2.149-0.59-6.25-3.518-6.423-3.641
			c-0.116-0.074-3.014-1.917-3.997-2.977c-0.91-0.979-3.329-3.469-3.649-3.799c-0.33-0.051-2.097-0.359-3.6-1.363l-0.183-0.121
			c-1.467-0.977-2.015-1.343-1.694-2.72c0.251-1.075,0.409-1.423,0.486-1.534c0.036-0.105,0.149-0.413,0.284-0.535l0.199,0.22
			c-0.065,0.06-0.164,0.293-0.209,0.431l-0.017,0.053l-0.019,0.009c-0.032,0.051-0.179,0.329-0.435,1.425
			c-0.274,1.177,0.116,1.437,1.57,2.405l0.183,0.122c1.573,1.049,3.506,1.319,3.526,1.321l0.051,0.007l0.035,0.037
			c0.027,0.027,2.718,2.794,3.69,3.84c0.958,1.032,3.916,2.914,3.946,2.933c0.048,0.034,4.238,3.025,6.335,3.602
			c1.963,0.538,2.985-0.288,3.061-0.354l4.122-4.687c0.126-0.167,3.643-4.817,4.771-6.821c1.056-1.877,1.26-4.297,1.098-5.935
			c-0.133-1.349-1.724-4.961-2.25-5.966c-0.503-0.961-0.328-2.204-0.17-2.56l0.272,0.12c-0.133,0.297-0.283,1.455,0.161,2.302
			c0.483,0.923,2.137,4.62,2.282,6.073c0.167,1.684-0.045,4.173-1.134,6.11c-1.154,2.048-4.761,6.812-4.798,6.859l-0.007,0.009
			l-4.142,4.709C115.952,72.688,115.245,73.323,113.84,73.271z"/>
		<g>
			<path fill="#881815" d="M108.753,63.536c0,0,0.074,0.021,0.193,0.056c0.422,0.117,1.407,0.386,1.705,0.397
				c0.381,0.015,3.468-0.573,4.287-0.288c0.819,0.286,0.432,0.399,0.819,0.286c0.388-0.113,0.779-0.354,1.227-0.401
				s1.509,0.63,1.509,0.63s-0.399,0.433-0.847,0.479s-2.5,0.29-3.77,0.116l-3.292-0.429L108.753,63.536z"/>
			<path fill="#58120C" d="M114.547,65.015c-0.257-0.011-0.489-0.029-0.691-0.056l-3.313-0.432l-1.851-0.856l0.111-0.273l0,0
				c0,0,0.072,0.02,0.184,0.051c0.85,0.239,1.475,0.386,1.67,0.393c0.098,0.004,0.456-0.046,0.87-0.103
				c0.838-0.114,2.105-0.29,2.896-0.261c0.245,0.01,0.429,0.037,0.563,0.084c0.42,0.146,0.548,0.255,0.616,0.315
				c0.025-0.006,0.068-0.02,0.113-0.032c0.134-0.039,0.271-0.096,0.416-0.155c0.262-0.106,0.533-0.219,0.838-0.251
				c0.028-0.004,0.058-0.004,0.089-0.004c0.505,0.02,1.413,0.592,1.515,0.657l0.149,0.095l-0.121,0.131
				c-0.018,0.02-0.442,0.474-0.94,0.526l-0.104,0.011C117.046,64.909,115.688,65.056,114.547,65.015z M110.626,64.239l3.269,0.425
				c0.193,0.026,0.416,0.044,0.663,0.054c1.12,0.041,2.462-0.104,2.968-0.158l0.104-0.011c0.231-0.024,0.468-0.181,0.62-0.308
				c-0.332-0.194-0.902-0.497-1.203-0.508c-0.016-0.002-0.032-0.002-0.047,0c-0.262,0.028-0.513,0.131-0.756,0.23
				c-0.145,0.061-0.295,0.122-0.445,0.166c-0.125,0.036-0.175,0.051-0.23,0.049c-0.082-0.002-0.129-0.046-0.16-0.075
				c-0.045-0.041-0.139-0.128-0.52-0.261c-0.105-0.037-0.267-0.06-0.478-0.066c-0.764-0.029-2.016,0.144-2.845,0.258
				c-0.525,0.071-0.803,0.109-0.921,0.104c-0.081-0.003-0.203-0.022-0.35-0.053L110.626,64.239z"/>
		</g>
		<g>
			<path fill="#881815" d="M108.848,63.663c0,0,1.815,2.967,3.699,3.802c1.883,0.835,2.998,0.637,4.121-0.723
				c0.255-0.31,0.638-0.768,0.834-1.102c0.597-1.015,0.881-1.319,0.881-1.319s-0.345,0.189-0.888,0.79
				c-0.399,0.444-1.278,1.24-2.041,1.347c-1.797,0.253-2.229-0.046-3.293-0.596c-0.505-0.262-1.277-0.771-1.949-1.231
				C109.469,64.118,108.848,63.663,108.848,63.663z"/>
			<path fill="#58120C" d="M114.355,68.109c-0.53-0.02-1.14-0.187-1.868-0.509c-1.905-0.844-3.691-3.736-3.766-3.859
				c-0.037-0.061-0.026-0.139,0.026-0.187c0.051-0.049,0.131-0.052,0.187-0.011c0.007,0.005,0.629,0.46,1.362,0.965
				c0.866,0.596,1.516,1.006,1.934,1.223l0.179,0.093c0.633,0.329,1.05,0.548,1.777,0.573c0.337,0.013,0.745-0.015,1.248-0.087
				c0.706-0.098,1.559-0.861,1.951-1.298c0.553-0.613,0.912-0.813,0.927-0.822c0.047-0.025,0.104-0.024,0.149,0.005
				c0.045,0.027,0.073,0.078,0.071,0.132c-0.001,0.034-0.015,0.068-0.039,0.095c-0.012,0.013-0.292,0.323-0.862,1.294
				c-0.192,0.327-0.549,0.759-0.809,1.073l-0.04,0.048C116.027,67.751,115.278,68.143,114.355,68.109z M109.429,64.265
				c0.651,0.916,1.908,2.501,3.177,3.064c0.692,0.308,1.269,0.466,1.76,0.484c0.821,0.029,1.496-0.33,2.187-1.165l0.041-0.05
				c0.253-0.307,0.602-0.727,0.781-1.033c0.062-0.105,0.121-0.203,0.176-0.295c-0.253,0.27-1.192,1.21-2.075,1.335
				c-0.527,0.073-0.941,0.102-1.3,0.089c-0.795-0.03-1.259-0.271-1.903-0.607l-0.178-0.094c-0.429-0.221-1.09-0.639-1.966-1.241
				C109.875,64.578,109.635,64.41,109.429,64.265z"/>
		</g>
		<g>
			<path d="M116.358,46.076c0,0-1.185,0.977-1.015,1.557c0.169,0.582,0.22,0.966,1.005,0.421c0.786-0.546,1.404-1.735,1.404-1.735
				L116.358,46.076z"/>
			<path d="M115.753,48.464L115.753,48.464c-0.331-0.012-0.424-0.34-0.523-0.687l-0.029-0.103c-0.192-0.655,0.934-1.607,1.063-1.714
				l0.053-0.043l1.662,0.29l-0.094,0.179c-0.025,0.051-0.644,1.229-1.451,1.788C116.136,48.382,115.926,48.47,115.753,48.464z
				 M116.4,46.232c-0.427,0.365-1.015,1.02-0.915,1.359l0.029,0.103c0.093,0.326,0.145,0.47,0.249,0.473l0,0
				c0.069,0.003,0.212-0.037,0.5-0.235c0.569-0.395,1.056-1.156,1.257-1.503L116.4,46.232z"/>
		</g>
		<g>
			<path d="M100.105,48.919c0,0,2.191-4.003,4.788-3.461c2.597,0.544,5.299,1.665,4.633,2.407c-0.666,0.74-1.801,0.379-2.107,0.049
				c-0.307-0.33-1.174-1.063-1.681-1.147c-0.507-0.083-1.313-0.687-2.429,0.102c-1.114,0.789-2.221,1.385-2.62,1.817
				C100.29,49.118,100.105,48.919,100.105,48.919z"/>
			<path d="M100.22,49.112c-0.136-0.005-0.21-0.077-0.224-0.092l-0.073-0.078l0.051-0.094c0.082-0.15,2.042-3.679,4.522-3.586
				c0.143,0.005,0.285,0.021,0.426,0.051c1.779,0.372,4.534,1.251,4.827,2.146c0.06,0.181,0.02,0.354-0.114,0.504
				c-0.378,0.421-0.861,0.495-1.2,0.482c-0.494-0.018-0.941-0.229-1.127-0.432c-0.322-0.345-1.153-1.029-1.595-1.102
				c-0.124-0.02-0.258-0.065-0.4-0.115c-0.232-0.08-0.495-0.169-0.794-0.181c-0.383-0.014-0.752,0.107-1.125,0.372
				c-0.44,0.311-0.881,0.594-1.271,0.844c-0.588,0.378-1.097,0.705-1.326,0.953C100.591,49.009,100.396,49.12,100.22,49.112z
				 M104.486,45.559c-1.955-0.073-3.648,2.438-4.12,3.21c0.055-0.033,0.126-0.089,0.213-0.184c0.255-0.277,0.753-0.596,1.383-1.001
				c0.388-0.248,0.826-0.53,1.26-0.837c0.43-0.304,0.857-0.443,1.308-0.426c0.342,0.013,0.64,0.113,0.879,0.195
				c0.136,0.047,0.253,0.088,0.352,0.104c0.591,0.097,1.501,0.908,1.765,1.193c0.141,0.151,0.512,0.321,0.92,0.336
				c0.275,0.011,0.667-0.047,0.969-0.384c0.062-0.069,0.078-0.136,0.053-0.214c-0.191-0.582-2.258-1.456-4.607-1.948
				C104.739,45.578,104.612,45.563,104.486,45.559z"/>
		</g>
		<g>
			<path d="M124.039,48.913c0.095-0.117,0.196-0.296,0.294-0.5c-0.533,0.049-1.084,0.063-1.648,0.042
				c-0.352-0.012-0.839-0.044-1.178-0.082c-3.174,0.674-5.328,2.537-5.412,4.81c-0.014,0.389,0.039,0.77,0.149,1.14
				c0.047-0.012,0.093-0.024,0.139-0.036c0.005-1.561,1.695-3.181,4.077-3.791c0.975-0.25,1.93-0.296,2.77-0.168
				c0.007,0.147,0,0.298-0.023,0.446c0.642-0.576,1.203-1.199,1.67-1.86C124.351,49.102,123.799,49.209,124.039,48.913z"/>
			<path d="M116.141,54.501l-0.041-0.137c-0.116-0.394-0.168-0.792-0.154-1.187c0.085-2.313,2.256-4.255,5.529-4.95l0.024-0.005
				l0.023,0.003c0.349,0.039,0.837,0.07,1.167,0.082c0.545,0.021,1.094,0.006,1.63-0.041l0.261-0.023l-0.114,0.236
				c-0.094,0.193-0.184,0.35-0.264,0.463c0.148-0.02,0.377-0.08,0.624-0.169l0.442-0.158l-0.272,0.384
				c-0.472,0.667-1.041,1.301-1.692,1.885l-0.309,0.277l0.063-0.41c0.014-0.099,0.022-0.197,0.023-0.294
				c-0.18-0.022-0.365-0.039-0.552-0.046c-0.665-0.025-1.349,0.052-2.035,0.228c-2.293,0.588-3.96,2.122-3.965,3.647l-0.001,0.113
				l-0.163,0.043c-0.029,0.008-0.058,0.016-0.087,0.024L116.141,54.501z M121.514,48.522c-3.123,0.671-5.191,2.5-5.271,4.664
				c-0.008,0.211,0.005,0.421,0.037,0.632c0.296-1.494,1.948-2.905,4.142-3.467c0.713-0.183,1.427-0.263,2.12-0.237
				c0.242,0.009,0.479,0.031,0.71,0.066l0.119,0.018l0.006,0.122c0.002,0.028,0.002,0.06,0.003,0.09
				c0.407-0.389,0.779-0.798,1.108-1.222c-0.141,0.035-0.285,0.062-0.393,0.056c-0.154-0.005-0.218-0.074-0.244-0.132
				c-0.04-0.086-0.016-0.185,0.072-0.292c0.047-0.06,0.099-0.138,0.155-0.237c-0.463,0.031-0.933,0.038-1.4,0.021
				C122.351,48.592,121.868,48.562,121.514,48.522z"/>
		</g>
		<g>
			<ellipse transform="matrix(0.0371 -0.9993 0.9993 0.0371 61.2137 168.9611)" cx="118.285" cy="52.715" rx="1.512" ry="1.633"/>
			<path d="M118.227,54.373c-0.982-0.038-1.753-0.812-1.72-1.726c0.034-0.916,0.861-1.631,1.842-1.595
				c0.981,0.037,1.752,0.812,1.719,1.727C120.034,53.694,119.208,54.41,118.227,54.373z M118.339,51.35
				c-0.819-0.03-1.507,0.558-1.535,1.309c-0.028,0.751,0.615,1.388,1.434,1.418c0.817,0.031,1.505-0.556,1.533-1.309
				C119.799,52.017,119.157,51.381,118.339,51.35z"/>
		</g>
		<path d="M110.242,54.764c0,0-1.447-4.732-3.884-4.684c-2.437,0.05-3.571,0.594-4.201,0.477c-0.63-0.118-1.191-0.292-1.191-0.292
			s0.073,0.646,0.227,1.106c0.153,0.461,0.513,0.747,0.513,0.747s-0.402,0.222-0.843,0.121c-0.439-0.102-0.127,0.758,0.312,0.859
			c0.439,0.1,1.382,0.308,1.382,0.308l0.19-0.654c0.886-0.392,1.907-0.576,2.979-0.485
			C107.713,52.435,109.385,53.297,110.242,54.764z"/>
		<g>
			<ellipse transform="matrix(0.037 -0.9993 0.9993 0.037 47.8576 158.3023)" cx="106.065" cy="54.32" rx="1.339" ry="1.435"/>
			<path d="M106.008,55.81c-0.873-0.032-1.558-0.726-1.527-1.545c0.031-0.82,0.765-1.461,1.638-1.428
				c0.873,0.031,1.557,0.725,1.527,1.545C107.616,55.201,106.881,55.842,106.008,55.81z M106.107,53.134
				c-0.708-0.026-1.306,0.484-1.329,1.141c-0.025,0.658,0.533,1.213,1.241,1.238c0.709,0.026,1.306-0.485,1.331-1.143
				C107.374,53.714,106.817,53.158,106.107,53.134z"/>
		</g>
		<circle fill="#FFFFFF" cx="105.708" cy="53.654" r="0.455"/>
		<circle fill="#FFFFFF" cx="118.621" cy="52.303" r="0.451"/>
		<circle fill="#FFFFFF" cx="106.448" cy="53.387" r="0.188"/>
		<circle fill="#FFFFFF" cx="119.411" cy="52.659" r="0.266"/>
		<g>
			
				<ellipse transform="matrix(0.0371 -0.9993 0.9993 0.0371 32.306 157.745)" fill="#431B46" cx="98.005" cy="62.109" rx="0.968" ry="1.07"/>
			<path fill="#2F112F" d="M97.964,63.131c-0.617-0.022-1.101-0.497-1.081-1.058c0.021-0.561,0.54-0.998,1.157-0.976
				c0.617,0.022,1.102,0.497,1.081,1.058S98.581,63.153,97.964,63.131z M98.037,61.196c-0.563-0.021-1.036,0.374-1.055,0.879
				c-0.019,0.508,0.424,0.937,0.986,0.957s1.035-0.374,1.054-0.881C99.041,61.646,98.599,61.218,98.037,61.196z"/>
		</g>
		
			<linearGradient id="SVGID_1_" gradientUnits="userSpaceOnUse" x1="190.958" y1="-3944.3359" x2="207.4268" y2="-3944.3359" gradientTransform="matrix(0.9993 0.0371 0.0371 -0.9993 64.7324 -3913.3594)">
			<stop  offset="0" style="stop-color:#422A19;stop-opacity:0"/>
			<stop  offset="0.0099" style="stop-color:#482D1A;stop-opacity:0.0278"/>
			<stop  offset="0.059" style="stop-color:#644025;stop-opacity:0.1659"/>
			<stop  offset="0.1128" style="stop-color:#794E2D;stop-opacity:0.317"/>
			<stop  offset="0.1728" style="stop-color:#885833;stop-opacity:0.4858"/>
			<stop  offset="0.2442" style="stop-color:#905E36;stop-opacity:0.6862"/>
			<stop  offset="0.3558" style="stop-color:#936037"/>
			<stop  offset="0.535" style="stop-color:#946237;stop-opacity:0.8551"/>
			<stop  offset="0.5996" style="stop-color:#9B693D;stop-opacity:0.8029"/>
			<stop  offset="0.6456" style="stop-color:#A47447;stop-opacity:0.7657"/>
			<stop  offset="0.6825" style="stop-color:#B38453;stop-opacity:0.7358"/>
			<stop  offset="0.714" style="stop-color:#C69A64;stop-opacity:0.7103"/>
			<stop  offset="0.7178" style="stop-color:#C89D66;stop-opacity:0.7073"/>
			<stop  offset="1" style="stop-color:#422A19;stop-opacity:0"/>
		</linearGradient>
		<path fill="url(#SVGID_1_)" d="M112.896,31.462c6.778,0.863,11.981,4.976,12.566,9.597c0.025-0.217,0.043-0.436,0.051-0.657
			c0.197-5.324-4.625-9.823-10.772-10.052c-1.931-0.071-3.761,0.287-5.371,0.977C110.508,31.267,111.69,31.308,112.896,31.462z"/>
		<path fill="#422A19" d="M98.445,65.502c4.281,1.979,6.981,5.299,6.578,7.842c0.054-0.107,0.103-0.217,0.145-0.331
			c1.034-2.734-1.351-6.169-5.328-7.675c-1.249-0.473-2.507-0.698-3.675-0.701C96.919,64.862,97.684,65.15,98.445,65.502z"/>
		
			<linearGradient id="SVGID_2_" gradientUnits="userSpaceOnUse" x1="185.7036" y1="-3946.1426" x2="206.2739" y2="-3946.1426" gradientTransform="matrix(0.9993 0.0371 0.0371 -0.9993 64.7324 -3913.3594)">
			<stop  offset="0" style="stop-color:#422A19;stop-opacity:0"/>
			<stop  offset="0.0099" style="stop-color:#482D1A;stop-opacity:0.0278"/>
			<stop  offset="0.059" style="stop-color:#644025;stop-opacity:0.1659"/>
			<stop  offset="0.1128" style="stop-color:#794E2D;stop-opacity:0.317"/>
			<stop  offset="0.1728" style="stop-color:#885833;stop-opacity:0.4858"/>
			<stop  offset="0.2442" style="stop-color:#905E36;stop-opacity:0.6862"/>
			<stop  offset="0.3558" style="stop-color:#936037"/>
			<stop  offset="0.535" style="stop-color:#946237;stop-opacity:0.8551"/>
			<stop  offset="0.5996" style="stop-color:#9B693D;stop-opacity:0.8029"/>
			<stop  offset="0.6456" style="stop-color:#A47447;stop-opacity:0.7657"/>
			<stop  offset="0.6825" style="stop-color:#B38453;stop-opacity:0.7358"/>
			<stop  offset="0.714" style="stop-color:#C69A64;stop-opacity:0.7103"/>
			<stop  offset="0.7178" style="stop-color:#C89D66;stop-opacity:0.7073"/>
			<stop  offset="1" style="stop-color:#422A19;stop-opacity:0"/>
		</linearGradient>
		<path fill="url(#SVGID_2_)" d="M124.295,42.107c0.004-0.219-0.001-0.438-0.018-0.659c-0.012-0.162-0.03-0.323-0.053-0.482
			c-0.021-0.455-0.132-0.895-0.319-1.313c-1.503-4.357-7.154-7.314-13.637-6.829c-2.305,0.172-4.44,0.759-6.274,1.647
			c1.348-0.203,2.759-0.312,4.21-0.312c3.907,0.001,7.472,0.787,10.266,2.101c-0.306-0.04-0.619-0.065-0.937-0.075
			c-1.185-0.035-2.307,0.146-3.291,0.493c0.699-0.031,1.425-0.012,2.167,0.065c2.365,0.245,4.427,1.017,5.84,2.062
			C123.261,39.803,123.967,40.917,124.295,42.107z"/>
		
			<linearGradient id="SVGID_3_" gradientUnits="userSpaceOnUse" x1="183.9478" y1="-3950.8408" x2="206.1226" y2="-3950.8408" gradientTransform="matrix(0.9993 0.0371 0.0371 -0.9993 64.7324 -3913.3594)">
			<stop  offset="0" style="stop-color:#422A19;stop-opacity:0"/>
			<stop  offset="0.0099" style="stop-color:#482D1A;stop-opacity:0.0278"/>
			<stop  offset="0.059" style="stop-color:#644025;stop-opacity:0.1659"/>
			<stop  offset="0.1128" style="stop-color:#794E2D;stop-opacity:0.317"/>
			<stop  offset="0.1728" style="stop-color:#885833;stop-opacity:0.4858"/>
			<stop  offset="0.2442" style="stop-color:#905E36;stop-opacity:0.6862"/>
			<stop  offset="0.3558" style="stop-color:#936037"/>
			<stop  offset="0.535" style="stop-color:#946237;stop-opacity:0.8551"/>
			<stop  offset="0.5996" style="stop-color:#9B693D;stop-opacity:0.8029"/>
			<stop  offset="0.6456" style="stop-color:#A47447;stop-opacity:0.7657"/>
			<stop  offset="0.6825" style="stop-color:#B38453;stop-opacity:0.7358"/>
			<stop  offset="0.714" style="stop-color:#C69A64;stop-opacity:0.7103"/>
			<stop  offset="0.7178" style="stop-color:#C89D66;stop-opacity:0.7073"/>
			<stop  offset="1" style="stop-color:#422A19;stop-opacity:0"/>
		</linearGradient>
		<path fill="url(#SVGID_3_)" d="M123.73,45.591c-3.097,0.006-6.711-0.479-10.473-1.495c-4.45-1.202-8.348-2.942-11.196-4.851
			l0.065,0.069c0.266-0.258,0.361-0.615,0.375-0.983l-0.119-0.041c2.849,1.908,6.747,3.65,11.196,4.851
			c3.762,1.017,7.377,1.501,10.473,1.496l-0.166,0.005c-0.011,0.35-0.313,0.592-0.337,0.948"/>
		<path d="M114.882,59.528c-0.406-0.014-0.801-0.102-1.144-0.252l0.121-0.272c0.308,0.136,0.665,0.215,1.034,0.229
			c1.093,0.04,2.003-0.491,2.028-1.186c0.012-0.325-0.173-0.642-0.524-0.893l0.171-0.241c0.435,0.311,0.666,0.718,0.649,1.145
			C117.187,58.915,116.139,59.576,114.882,59.528z"/>
		
			<linearGradient id="SVGID_4_" gradientUnits="userSpaceOnUse" x1="179.1729" y1="-3958.8379" x2="179.7544" y2="-3949.4307" gradientTransform="matrix(0.9993 0.0371 0.0371 -0.9993 64.7324 -3913.3594)">
			<stop  offset="0" style="stop-color:#422A19;stop-opacity:0"/>
			<stop  offset="0.0099" style="stop-color:#482D1A;stop-opacity:0.0278"/>
			<stop  offset="0.059" style="stop-color:#644025;stop-opacity:0.1659"/>
			<stop  offset="0.1128" style="stop-color:#794E2D;stop-opacity:0.317"/>
			<stop  offset="0.1728" style="stop-color:#885833;stop-opacity:0.4858"/>
			<stop  offset="0.2442" style="stop-color:#905E36;stop-opacity:0.6862"/>
			<stop  offset="0.3558" style="stop-color:#936037"/>
			<stop  offset="0.535" style="stop-color:#946237;stop-opacity:0.8551"/>
			<stop  offset="0.5996" style="stop-color:#9B693D;stop-opacity:0.8029"/>
			<stop  offset="0.6456" style="stop-color:#A47447;stop-opacity:0.7657"/>
			<stop  offset="0.6825" style="stop-color:#B38453;stop-opacity:0.7358"/>
			<stop  offset="0.714" style="stop-color:#C69A64;stop-opacity:0.7103"/>
			<stop  offset="0.7178" style="stop-color:#C89D66;stop-opacity:0.7073"/>
			<stop  offset="1" style="stop-color:#422A19;stop-opacity:0"/>
		</linearGradient>
		<path fill="url(#SVGID_4_)" d="M96.087,50.634c-0.383-1.062-0.54-2.352-0.394-3.715c0.205-1.928,0.968-3.579,1.987-4.584
			c0,0-1.926,4.285-1.074,4.139c0.853-0.146,2.042-4.161,2.042-4.161c0.399,1.374,0.258,3.188-0.502,4.971
			c-0.539,1.262-1.305,2.31-2.158,3.051"/>
		
			<ellipse transform="matrix(0.4932 -0.8699 0.8699 0.4932 -0.9726 131.6255)" fill="#B33720" cx="112.476" cy="66.647" rx="0.319" ry="0.778"/>
		
			<ellipse transform="matrix(0.4936 -0.8697 0.8697 0.4936 -0.6613 132.8701)" fill="#B33720" cx="113.769" cy="67.003" rx="0.22" ry="0.537"/>
		<path opacity="0.48" fill="#941C80" enable-background="new    " d="M98.263,61.687c0.389,0.179,0.602,0.57,0.538,0.938
			c0.041-0.049,0.077-0.104,0.104-0.164c0.189-0.411-0.026-0.914-0.481-1.123c-0.456-0.207-0.977-0.043-1.166,0.368
			c-0.027,0.061-0.046,0.124-0.057,0.187C97.438,61.603,97.874,61.509,98.263,61.687z"/>
		
			<linearGradient id="SVGID_5_" gradientUnits="userSpaceOnUse" x1="185.5605" y1="-3947.0996" x2="203.2035" y2="-3949.7808" gradientTransform="matrix(0.9993 0.0371 0.0371 -0.9993 64.7324 -3913.3594)">
			<stop  offset="0" style="stop-color:#422A19;stop-opacity:0"/>
			<stop  offset="0.0099" style="stop-color:#482D1A;stop-opacity:0.0278"/>
			<stop  offset="0.059" style="stop-color:#644025;stop-opacity:0.1659"/>
			<stop  offset="0.1128" style="stop-color:#794E2D;stop-opacity:0.317"/>
			<stop  offset="0.1728" style="stop-color:#885833;stop-opacity:0.4858"/>
			<stop  offset="0.2442" style="stop-color:#905E36;stop-opacity:0.6862"/>
			<stop  offset="0.3558" style="stop-color:#936037"/>
			<stop  offset="0.535" style="stop-color:#946237;stop-opacity:0.8551"/>
			<stop  offset="0.5996" style="stop-color:#9B693D;stop-opacity:0.8029"/>
			<stop  offset="0.6456" style="stop-color:#A47447;stop-opacity:0.7657"/>
			<stop  offset="0.6825" style="stop-color:#B38453;stop-opacity:0.7358"/>
			<stop  offset="0.714" style="stop-color:#C69A64;stop-opacity:0.7103"/>
			<stop  offset="0.7178" style="stop-color:#C89D66;stop-opacity:0.7073"/>
			<stop  offset="1" style="stop-color:#422A19;stop-opacity:0"/>
		</linearGradient>
		<path fill="url(#SVGID_5_)" d="M121.283,41.567c-2.547,0.082-5.484-0.307-8.5-1.213c-3.568-1.074-6.642-2.692-8.839-4.504
			l0.012,0.001c0.021,0.366,0.291,1.12-0.344,1.058l-0.013-0.009c2.197,1.81,5.271,3.429,8.84,4.501
			c0.429,0.131,0.862,0.25,1.298,0.36c0.425,0.108,0.852,0.207,1.282,0.297c0.419,0.086,0.839,0.164,1.261,0.233
			c0.41,0.065,0.822,0.123,1.235,0.172c0.4,0.046,0.8,0.082,1.203,0.109c0.387,0.025,0.775,0.043,1.164,0.05
			c0.189,0.003,0.378,0.005,0.566,0.002c0.093-0.001,0.186-0.001,0.28-0.003c0.045-0.001,0.092-0.003,0.137-0.005
			c0.033,0,0.1,0.007,0.056-0.038c-0.014-0.014-0.034-0.021-0.046-0.039c-0.042-0.064-0.045-0.155-0.038-0.23
			c0.008-0.089,0.034-0.172,0.056-0.257c0.01-0.041,0.013-0.07,0.032-0.108c0.025-0.055,0.071-0.104,0.108-0.152
			c0.021-0.027,0.045-0.062,0.072-0.086c0.014-0.014,0.032-0.025,0.048-0.038c0.019-0.019,0.04-0.033,0.061-0.048
			c0.021-0.016,0.043-0.041,0.068-0.05"/>
		
			<linearGradient id="SVGID_6_" gradientUnits="userSpaceOnUse" x1="177.2026" y1="-3958.918" x2="177.2026" y2="-3949.9353" gradientTransform="matrix(0.9993 0.0371 0.0371 -0.9993 64.7324 -3913.3594)">
			<stop  offset="0" style="stop-color:#422A19;stop-opacity:0"/>
			<stop  offset="0.0099" style="stop-color:#482D1A;stop-opacity:0.0278"/>
			<stop  offset="0.059" style="stop-color:#644025;stop-opacity:0.1659"/>
			<stop  offset="0.1128" style="stop-color:#794E2D;stop-opacity:0.317"/>
			<stop  offset="0.1728" style="stop-color:#885833;stop-opacity:0.4858"/>
			<stop  offset="0.2442" style="stop-color:#905E36;stop-opacity:0.6862"/>
			<stop  offset="0.3558" style="stop-color:#936037"/>
			<stop  offset="0.535" style="stop-color:#946237;stop-opacity:0.8551"/>
			<stop  offset="0.5996" style="stop-color:#9B693D;stop-opacity:0.8029"/>
			<stop  offset="0.6456" style="stop-color:#A47447;stop-opacity:0.7657"/>
			<stop  offset="0.6825" style="stop-color:#B38453;stop-opacity:0.7358"/>
			<stop  offset="0.714" style="stop-color:#C69A64;stop-opacity:0.7103"/>
			<stop  offset="0.7178" style="stop-color:#C89D66;stop-opacity:0.7073"/>
			<stop  offset="1" style="stop-color:#422A19;stop-opacity:0"/>
		</linearGradient>
		<path fill="url(#SVGID_6_)" d="M95.057,49.41c-0.424-0.016-0.849-0.031-1.273-0.047l0.137,0.187
			c-0.383-1.061-0.541-2.352-0.395-3.716c0.197-1.844,0.905-3.437,1.859-4.45l0.019,0.086c0.522,0.019,0.935,0.044,1.368,0.203
			l0.021-0.244c-1.019,1.004-1.783,2.657-1.987,4.583c-0.146,1.364,0.011,2.653,0.394,3.715"/>
		
			<linearGradient id="SVGID_7_" gradientUnits="userSpaceOnUse" x1="174.5962" y1="-3957.6689" x2="175.0433" y2="-3948.5305" gradientTransform="matrix(0.9993 0.0371 0.0371 -0.9993 64.7324 -3913.3594)">
			<stop  offset="0" style="stop-color:#422A19;stop-opacity:0"/>
			<stop  offset="0.0099" style="stop-color:#482D1A;stop-opacity:0.0278"/>
			<stop  offset="0.059" style="stop-color:#644025;stop-opacity:0.1659"/>
			<stop  offset="0.1128" style="stop-color:#794E2D;stop-opacity:0.317"/>
			<stop  offset="0.1728" style="stop-color:#885833;stop-opacity:0.4858"/>
			<stop  offset="0.2442" style="stop-color:#905E36;stop-opacity:0.6862"/>
			<stop  offset="0.3558" style="stop-color:#936037"/>
			<stop  offset="0.535" style="stop-color:#946237;stop-opacity:0.8551"/>
			<stop  offset="0.5996" style="stop-color:#9B693D;stop-opacity:0.8029"/>
			<stop  offset="0.6456" style="stop-color:#A47447;stop-opacity:0.7657"/>
			<stop  offset="0.6825" style="stop-color:#B38453;stop-opacity:0.7358"/>
			<stop  offset="0.714" style="stop-color:#C69A64;stop-opacity:0.7103"/>
			<stop  offset="0.7178" style="stop-color:#C89D66;stop-opacity:0.7073"/>
			<stop  offset="1" style="stop-color:#422A19;stop-opacity:0"/>
		</linearGradient>
		<path fill="url(#SVGID_7_)" d="M90.917,48.288c0.389,0.015,0.781,0.018,1.166,0.052c0.002,0.116,0.024,0.284-0.009,0.399
			l0.029,0.147c-0.282-1.2-0.289-2.619,0.042-4.081c0.467-2.063,1.503-3.76,2.736-4.722L94.79,40.12
			c-0.293-0.257-0.941-0.302-1.365-0.305l0.122-0.031c-1.163,0.979-2.132,2.617-2.579,4.594c-0.331,1.461-0.323,2.881-0.042,4.08"/>
		<path fill="#B3B2B2" d="M116.086,79.734c0,0-0.566-0.89-0.701-1.454c-0.135-0.566-0.296-1.537-0.296-1.537l0.834-0.377
			l1.832,0.755l2.074,0.674c0,0-0.472,0.579-0.727,0.754s-1.158,0.35-1.563,0.539C117.137,79.275,116.086,79.734,116.086,79.734"/>
		<polygon fill="#EFBA7A" points="103.12,81.827 102.952,81.582 104.222,80.706 104.822,80.371 105.464,78.411 106.572,75.551 
			106.849,75.658 105.743,78.511 105.068,80.574 104.373,80.962 		"/>
		<path fill="#B3B2B2" d="M105.471,75.585l0.808-0.08l-0.269,3.421c0,0-1.024-0.431-1.158-0.809
			c-0.135-0.377-0.108-1.266-0.108-1.266L105.471,75.585"/>
		<path fill="#EFBA7A" d="M117.129,81.919c-1.54-2.381-1.658-2.771-1.807-3.266c-0.03-0.098-0.06-0.198-0.104-0.321
			c-0.373-1.041-0.583-4.969-0.593-5.137l0.297-0.015c0.002,0.039,0.218,4.051,0.576,5.051c0.046,0.131,0.078,0.235,0.109,0.337
			c0.141,0.47,0.254,0.843,1.771,3.189L117.129,81.919z"/>
		<g>
			<path fill="#EFBA7A" d="M105.274,68.64l5.587,3.67c0,0-1.391-0.49-2.183,0.959s-0.871,4.251-0.871,4.251s-1.31,0.285-1.441,1.057
				c-0.13,0.771-0.76-0.119-0.76-0.119s0.365-1.618,0.547-3.752c0.08-0.938-0.181-2.263-0.497-3.452
				c-0.404-1.52-0.902-2.822-0.902-2.822L105.274,68.64z"/>
			<path fill="#EFBA7A" d="M106.129,79.038c-0.287-0.01-0.587-0.414-0.645-0.495l-0.039-0.055l0.014-0.063
				c0.004-0.017,0.367-1.634,0.544-3.733c0.066-0.778-0.1-1.924-0.493-3.401c-0.398-1.494-0.891-2.792-0.896-2.806l-0.122-0.315
				l0.862,0.345l6.604,4.341l-1.148-0.405c-0.001,0-0.178-0.061-0.432-0.07c-0.468-0.018-1.122,0.136-1.572,0.96
				c-0.766,1.401-0.853,4.156-0.854,4.185l-0.004,0.115l-0.113,0.024c-0.012,0.004-1.213,0.274-1.326,0.938
				C106.446,78.992,106.244,79.044,106.129,79.038L106.129,79.038z M105.765,78.423c0.122,0.158,0.293,0.316,0.375,0.319
				c0.019,0,0.057-0.059,0.08-0.19c0.122-0.726,1.104-1.057,1.442-1.149c0.024-0.547,0.167-2.891,0.885-4.205
				c0.496-0.909,1.227-1.099,1.698-1.115l-5.041-3.311l-0.198-0.078c0.172,0.478,0.506,1.45,0.792,2.521
				c0.402,1.511,0.571,2.689,0.502,3.502C106.142,76.596,105.835,78.094,105.765,78.423z"/>
		</g>
		<ellipse fill="#593217" cx="125.924" cy="84.924" rx="1.347" ry="1.114"/>
		<ellipse fill="#593217" cx="128.023" cy="84.275" rx="1.27" ry="0.985"/>
		<ellipse fill="#593217" cx="124.784" cy="82.825" rx="1.296" ry="1.452"/>
		<ellipse fill="#593217" cx="126.521" cy="83.032" rx="1.166" ry="1.296"/>
		<ellipse fill="#593217" cx="122.943" cy="81.451" rx="1.375" ry="1.063"/>
		<ellipse fill="#593217" cx="121.751" cy="80.31" rx="0.803" ry="0.648"/>
		<path fill="#593217" d="M130.382,98.324c0,0,0.312,1.556,0.104,2.8s-1.141,3.888-1.141,3.888s0.778,0.155,1.141-0.519
			c0.362-0.675,0.933-1.918,0.933-1.918l0.103-1.141c0,0-0.052,1.192,0.053,2.333c0.104,1.141,0.104,2.125,0.623,2.696
			c0.517,0.57,1.035,0.776,1.035,0.776s-0.414-1.969-0.414-2.851c0-0.881,0-2.125,0-2.125l-0.208-0.83c0,0,0.415,2.074,0.933,2.592
			c0.52,0.519,1.918,0.777,1.918,0.777s-0.933-1.192-1.296-2.229c-0.363-1.037-1.348-2.334-1.659-2.747
			c-0.311-0.415-0.986-2.178-0.986-2.178L130.382,98.324z"/>
		<path d="M131.522,96.665c0,0,1.038-1.658,1.919-1.658c0.881,0,2.384,0.053,2.384,0.053s-0.622,0.621-1.348,0.933
			c-0.726,0.311-2.488,0.829-2.488,0.829L131.522,96.665z"/>
		<path d="M132.031,97.066c0,0,1.65-1.051,2.445-0.672s2.13,1.073,2.13,1.073s-0.829,0.294-1.618,0.262
			c-0.789-0.03-2.603-0.321-2.603-0.321L132.031,97.066z"/>
		<ellipse fill="#593217" cx="128.283" cy="92.259" rx="1.218" ry="1.347"/>
		<ellipse fill="#593217" cx="129.683" cy="91.56" rx="1.27" ry="1.374"/>
		<ellipse fill="#593217" cx="128.931" cy="94.074" rx="0.83" ry="0.933"/>
		<ellipse fill="#593217" cx="129.839" cy="93.892" rx="0.855" ry="1.27"/>
		<ellipse fill="#593217" cx="130.123" cy="95.811" rx="1.192" ry="0.959"/>
		<ellipse fill="#593217" cx="128.309" cy="90.108" rx="1.504" ry="1.53"/>
		<ellipse fill="#593217" cx="129.475" cy="89.124" rx="1.426" ry="1.374"/>
		<ellipse fill="#593217" cx="127.22" cy="87.827" rx="1.452" ry="1.529"/>
		<ellipse fill="#593217" cx="129.164" cy="86.842" rx="1.218" ry="1.322"/>
		<ellipse fill="#593217" cx="126.857" cy="86.323" rx="1.4" ry="1.114"/>
		<ellipse fill="#593217" cx="128.568" cy="85.365" rx="1.711" ry="1.037"/>
		<ellipse transform="matrix(-0.2107 -0.9775 0.9775 -0.2107 63.439 245.8071)" cx="130.951" cy="97.293" rx="0.882" ry="1.712"/>
		<path fill="#B3B2B2" stroke="#000000" stroke-miterlimit="10" d="M99.916,227.993c0,0-1.444,3.25-2.011,4.075
			s-1.341,1.393-1.341,1.393s-1.134-0.206-1.753,0.104c-0.62,0.309-3.095,1.082-3.456,1.855c-0.361,0.774-0.98,3.198-0.309,4.281
			c0.67,1.083,6.755,0.412,7.117,0.361c0.361-0.052,3.92-0.155,3.92-0.155s2.991-0.773,4.023-2.218
			c1.031-1.444,2.011-3.353,2.836-5.467c0.826-2.114,1.496-5.261,1.496-5.261L99.916,227.993z"/>
		<path fill="#DADADA" d="M102.532,231.707c0,0,1.866-1.011,2.177-1.399c0.311-0.389,0.661-1.166,0.661-1.166l0.194-0.271
			c0,0,3.577-0.468,4.044-0.701c0.466-0.232,0.427,0.233,0.427,0.233l-0.855,1.983l-0.544,1.166c0,0-1.828-0.116-2.372,0.117
			c-0.544,0.232-2.372,0.35-2.372,0.35L102.532,231.707z"/>
		<path fill="#B3B2B2" stroke="#000000" stroke-miterlimit="10" d="M122.97,228.509c0,0-1.651,3.095-1.496,4.591
			c0.154,1.494,0.104,2.783,2.785,2.783c2.681,0,5.26-0.617,6.756-0.153c1.495,0.464,6.653,2.166,8.819,2.011
			c2.166-0.154,5.313-0.154,5.982-1.599c0.671-1.443,0.878-3.609-0.722-4.332c-1.598-0.723-3.456-0.979-5.054-0.877
			c-1.599,0.104-2.424,0.516-3.661-0.205c-1.238-0.723-2.321-2.889-2.321-2.889h-10.675L122.97,228.509z"/>
		<path fill="#DADADA" d="M134.412,228.682c0,0,1.274,1.796,2.013,2.262c0.739,0.468,2.047,0.165,2.047,0.165
			s-1.128,0.934-1.672,1.283c-0.544,0.35-2.063,0.644-3.074,1.032c-1.011,0.389,1.22-0.474-0.063,0.071
			c-1.283,0.543-3.628-0.637-4.483-0.481c-0.856,0.155-1.4-0.194-1.4-0.194s0.233-1.516,0.039-1.944
			c-0.195-0.428-1.05-1.516-1.05-1.516l7.27-1.167L134.412,228.682z"/>
		<path fill="#585857" stroke="#000000" stroke-miterlimit="10" d="M92.438,239.236c0,0,1.547-0.052,3.661,0.154
			c2.114,0.207,3.972,0.567,6.396-0.257c2.424-0.825,1.908,0.257,3.094-1.238c1.186-1.496,4.281-8.51,4.281-8.51
			s-1.445,7.17-1.908,8.407c-0.465,1.236-1.083,2.526-2.476,3.094s-5.982,0.619-8.715,0.567c-2.734-0.051-4.849-0.051-5.107-0.774
			c-0.258-0.722-0.104-1.082,0.207-1.289C92.18,239.185,92.438,239.236,92.438,239.236z"/>
		<path fill="none" stroke="#000000" stroke-miterlimit="10" d="M96.564,233.46c0,0,0.98,0.206,1.341,1.031
			c0.362,0.826,0.826,1.29,0.826,1.29"/>
		<path fill="none" stroke="#000000" stroke-miterlimit="10" d="M97.131,233.718c0,0,1.444-0.206,2.166,0.155
			c0.722,0.36,1.548,0.67,1.548,0.67"/>
		<path fill="none" stroke="#000000" stroke-miterlimit="10" d="M101.876,231.758c0,0,1.29-0.153,2.063-0.877
			c0.774-0.722,1.083-0.722,1.29-1.289s0.309-1.03,0.309-1.03"/>
		<path fill="none" stroke="#000000" stroke-miterlimit="10" d="M102.546,232.841c0,0,0.877-0.722,2.425-0.877
			c1.547-0.154,2.475-0.412,3.094-0.309c0.619,0.103,0.619,0.103,0.619,0.103"/>
		<path fill="#585857" stroke="#000000" stroke-miterlimit="10" d="M121.887,234.955c0,0-0.773,1.187-0.361,1.6
			c0.413,0.413,2.683,0.772,4.539,0.772s1.7-0.372,3.061-0.254c1.36,0.115,3.577,0.466,4.821,0.776
			c1.244,0.312,5.443,1.245,6.92,1.245c1.477,0,3.966,0.077,4.86-0.428c0.895-0.506,1.478-1.167,1.438-1.866
			c-0.039-0.7-0.816-2.527-0.816-2.527s0.194,1.788-1.672,2.371c-1.866,0.584-3.888,1.089-6.299,0.739s-4.976-1.05-6.026-1.438
			c-1.049-0.389-1.282-0.661-2.721-0.545c-1.438,0.117-3.227,0.272-4.471,0.312c-1.244,0.039-2.333-0.194-2.761-0.467
			C121.972,234.973,121.887,234.955,121.887,234.955z"/>
		<path fill="none" stroke="#000000" stroke-miterlimit="10" d="M126.598,229.258c0,0,1.166,0.855,1.205,1.788
			c0.039,0.934-0.077,2.061-0.077,2.061"/>
		<path fill="none" stroke="#000000" stroke-miterlimit="10" d="M129.747,233.185c0,0,2.45,0.544,3.733,0.35
			c1.282-0.194,2.449-0.622,3.148-1.05c0.7-0.427,2.178-1.516,2.178-1.516"/>
		<path fill="#585857" stroke="#000000" stroke-width="0.3457" stroke-miterlimit="10" d="M134.023,228.169"/>
		<path fill="none" stroke="#000000" stroke-miterlimit="10" d="M107.649,159.502c0,0-0.309,5.415-0.67,6.963
			c-0.361,1.547-0.928,4.126-1.031,5.208c-0.104,1.084-0.825,4.178-0.825,4.178"/>
		<path fill="none" stroke="#000000" stroke-miterlimit="10" d="M104.659,177.191c0,0-0.413,3.714-0.671,5.209
			c-0.257,1.496,0.051,2.889-0.309,3.713c-0.361,0.825-0.825,2.32-0.465,3.869c0.361,1.547,0.929,5.775,0.929,5.775"/>
		<path fill="none" stroke="#000000" stroke-miterlimit="10" d="M103.989,197.255c0,0-0.516,4.797-0.62,6.447
			c-0.103,1.65-0.67,6.344-0.825,8.098c-0.155,1.753-0.516,8.715-0.361,10.159c0.155,1.444,0.722,5.726,0.722,5.726"/>
		<path fill="none" stroke="#000000" stroke-miterlimit="10" d="M129.93,155.119c0,0,0.877,4.744,0.928,7.633
			c0.052,2.888-0.154,5.519-0.052,7.632c0.104,2.115-0.413,6.345-0.413,8.149c0,1.806,0,4.692,0,4.692"/>
		<path fill="none" stroke="#000000" stroke-miterlimit="10" d="M130.291,184.877c0,0-0.051,6.704-0.103,8.046
			c-0.052,1.341-0.516,5.52-0.516,6.653c0,1.135,0.104,6.396,0.104,6.396"/>
		<path fill="none" stroke="#000000" stroke-miterlimit="10" d="M129.827,207.984c0,0-0.258,6.137-0.258,7.633
			s0.517,6.809,0.671,7.633c0.154,0.825,0.619,2.166,0.773,2.991c0.155,0.825,0.773,1.547,0.773,1.547"/>
		<path fill="none" stroke="#000000" stroke-width="0.3457" stroke-miterlimit="10" d="M98.78,192.975c0,0,1.032,0.774,1.393,1.238
			s0.361,0.464,0.361,0.464"/>
		<path fill="none" stroke="#000000" stroke-width="0.3457" stroke-miterlimit="10" d="M112.344,193.284c0,0-0.516,0.104-0.928,0"/>
		<path fill="none" stroke="#000000" stroke-width="0.3457" stroke-miterlimit="10" d="M111.932,194.677
			c0,0-0.516,0.206-0.825-0.052"/>
		<path fill="none" stroke="#000000" stroke-width="0.3457" stroke-miterlimit="10" d="M123.275,189.827c0,0,0.467,0.157,0.621,0.26
			"/>
		
			<line fill="none" stroke="#000000" stroke-width="0.3457" stroke-miterlimit="10" x1="133.23" y1="193.438" x2="132.458" y2="193.131"/>
		<path fill="#DADADA" d="M135.421,152.493c0,0-4.22,1.786-5.082,1.948"/>
		<path fill="#DADADA" d="M136.227,152.196l-0.069-0.072c0,0-3.609,1.617-3.986,1.778c-0.377,0.162-2.748,0.809-3.206,0.835
			c-0.459,0.027-1.967,0.135-1.967,0.135l0.35,0.485l0.13,0.209c0,0-4.792,0.249-5.195,0.384c-0.404,0.135-4.311,0.889-4.876,1.104
			c-0.566,0.216-4.068,0.486-5.092,0.593c-1.024,0.107-2.937,0.189-3.475,0.243c-0.54,0.054-5.361-0.162-6.332-0.323
			c-0.97-0.162-4.122-0.646-5.119-1.104c-0.997-0.458-1.918-1.382-2.318-1.672c-0.4-0.289-0.377-0.457-0.377-0.457
			s5.712,0.296,7.948-0.188c2.236-0.485,7.273-0.889,8.783-0.539c1.508,0.351,5.442,0.646,7.678,0.188
			c2.236-0.458,6.789-0.996,7.516-1.346s8.244-0.782,8.782-0.862C135.941,151.506,136.227,152.196,136.227,152.196z"/>
		<path fill="#DADADA" d="M100.761,134.642c0,0-1.594,2.1-1.809,2.801c-0.215,0.699-0.862,2.396-1.051,3.124
			c-0.188,0.728-1.131,4.041-1.131,4.122s1.482-2.937,2.075-4.015c0.592-1.077,1.401-2.962,1.617-4.04
			C100.676,135.556,100.761,134.642,100.761,134.642s0.013-0.029,0.036-0.077c0.064-0.133,0.206-0.415,0.364-0.652
			c0.216-0.323,0.486-0.728,0.378-1.212c-0.108-0.485-0.458-1.078-0.243-1.59c0.216-0.512,0.512-1.509,0.512-1.509l-0.811,1.139
			c0,0-0.751,0.936-0.671,1.151c0.081,0.215,0.79,0.563,0.79,0.563l-0.654,0.811c0,0-0.297,0.674-0.135,0.81"/>
		<path fill="#DADADA" d="M89.496,100.29c0,0-0.7-0.216-0.646,0.35c0.054,0.566,0.593,2.883,0.593,2.883s0.997,1.832,1.239,2.155
			s3.313,4.337,3.664,4.688s1.266,1.858,1.563,2.397c0.297,0.539,3.502,5.658,3.502,5.658s-2.56-0.271-3.099-0.189
			c-0.538,0.081-2.209,0.647-2.505,0.782s-1.858-8.379-2.532-9.78c-0.674-1.4-2.802-5.253-2.937-6.358
			c-0.135-1.104-0.458-2.155,0.054-2.532s0.728-0.485,0.89-0.404C89.442,100.02,89.496,100.29,89.496,100.29"/>
		<path fill="#C7C6C7" d="M89.172,126.341c0,0,1.213-2.667,1.537-3.475c0.323-0.809,0.646-2.533,0.646-2.533l0.054-0.7l2.775-0.942
			c0,0,1.292-0.378,1.374-0.323c0.081,0.054,0.108,0.431-0.027,0.942c-0.134,0.513-0.646,1.968-0.969,2.183
			c-0.324,0.216-0.621,0.754-0.728,0.943c-0.107,0.188-0.862,0.754-1.212,1.023c-0.35,0.269-1.562,0.915-1.723,1.347
			c-0.162,0.431-1.509,1.644-1.509,1.644L89.172,126.341"/>
		<path fill="#FFFFFF" d="M105.364,84.395l5.792,5.55l2.156-0.484l2.29-3.26c0,0-2.959-1.308-3.61-1.644
			c-0.65-0.336-1.078-0.323-1.078-0.323l-4.526,0.161H105.364z"/>
		<path fill="#3F1114" d="M111.468,157.905c0,0,0.876,5.519,0.722,7.271c-0.154,1.754-0.929,8.046-0.876,10.057
			c0.051,2.013,0,5.57-0.104,7.427c-0.103,1.857,0,4.745,0.413,6.086c0.413,1.341,0.722,3.042,0.62,3.352
			c-0.104,0.31,0.67-0.516,0.67-0.516s-0.207-2.578-0.464-3.248c-0.258-0.672,0.154-1.703,0.104-2.218
			c-0.052-0.516-0.155-3.25-0.155-3.816c0-0.568,1.702-13.152,1.753-13.822c0.052-0.67,1.083-8.355,1.083-8.355l0.567-2.579
			L111.468,157.905"/>
		<path fill="#3F1114" d="M93.313,173.583"/>
		<path fill="#3F1114" d="M119.152,156.925l1.703,12.068c0,0,1.495,8.354,1.649,8.563c0.155,0.205,0.258,1.494,0.258,1.494
			s-0.207,1.806-0.207,2.424c0,0.619,0.258,3.302,0.311,3.559c0.051,0.259,0.206,1.6,0.051,1.805
			c-0.155,0.207-1.032,0.877-0.928,1.29c0.103,0.413,0.928,1.237,1.289,1.548c0.362,0.31,0.723,0.258,0.723,0.258
			s-0.413-8.664-0.207-11.243s0.361-9.593-0.928-14.132c-1.29-4.538-1.754-4.539-2.114-5.93c-0.361-1.393-0.414-2.321-0.414-2.168
			C120.339,156.615,119.152,156.925,119.152,156.925z"/>
		<path fill="#3F1114" d="M109.92,210.511c0,0,0.464,10.263,1.032,12.791c0.568,2.526,0.568,3.508,0.568,3.508
			s-1.548,1.133-2.991,1.443c-1.444,0.309,1.031-2.683,0.876-6.344C109.25,218.246,109.92,210.511,109.92,210.511z"/>
		<path fill="#3F1114" d="M123.896,208.551c0,0-0.773,10.934-0.876,11.604c-0.103,0.671-0.412,6.293-0.412,6.654
			c0,0.36,0.051,1.289,0.051,1.289s1.393,0.824,2.63,0.928s2.991,0.104,2.991,0.104s-2.682-2.527-3.094-4.849
			c-0.413-2.321-0.464-4.177-0.723-6.859C124.207,214.739,123.896,208.551,123.896,208.551z"/>
		<path fill="#FCE097" d="M89.496,100.29c0,0-0.727,0.217-0.618,0.621c0.107,0.404,0.323,1.967,0.512,2.398
			c0.188,0.43,1.212,2.209,1.481,2.532c0.269,0.322,1.912,2.451,2.236,2.855c0.323,0.404-0.162-1.724-0.162-1.724l-2.155-4.257
			L89.496,100.29"/>
		<path fill="#DADADA" d="M147.723,103.768c0,0,3.603-3.11,5.858-4.044c2.254-0.933,5.987-1.243,5.987-1.243
			s-0.336,2.255-0.466,3.032c-0.129,0.777-0.104,2.722-0.104,2.722s-3.913-0.674-4.225-0.674c-0.311,0-3.188-0.208-3.188-0.208
			l-2.54,0.337l-1.297,0.286L147.723,103.768z"/>
		<path fill="#EEEDED" d="M167.396,101.616l-2.333-1.503l-2.669-2.359l-1.011-1.451c0,0-1.323,0.415-1.607,1.321
			c-0.286,0.908-0.699,3.345-0.752,4.045c-0.051,0.699,0.234,5.365,0.363,5.883c0.129,0.519,1.4,3.889,1.4,3.889l2.254,3.888
			l4.355,1.607l-0.492-6.48c0,0-0.13-1.581-0.052-2.255c0.078-0.674,0.519-5.364,0.519-5.364L167.396,101.616z"/>
		<path fill="#DADADA" d="M135.644,111.233l-1.063-1.4c0,0-0.026-0.933-0.156-1.27c-0.129-0.337-0.623-2.073-0.623-2.178
			c0-0.104,0.831-0.155,1.375,1.166c0.544,1.322,1.426,3.215,2.54,4.407c1.115,1.191,1.84,2.747,3.163,3.758
			c1.322,1.011,4.303,2.955,4.873,3.577c0.57,0.622,2.1,1.943,2.1,1.943s-5.573-3.732-6.04-4.096
			c-0.467-0.361-2.462-1.918-2.462-1.918L135.644,111.233z"/>
		<path fill="#DADADA" d="M157.545,104.156c0,0-0.258,1.944,0.078,2.955c0.337,1.011,0.518,1.736,0.493,2.592
			c-0.026,0.856-0.337,2.126-0.337,2.126l1.504-2.333l0.362-0.648c0,0-0.623-3.24-0.623-3.654c0-0.415-0.103-0.959-0.103-0.959
			L157.545,104.156z"/>
		<path fill="none" stroke="#000000" stroke-miterlimit="10" d="M118.848,113.54c0,0-1.97,0.388-3.474,1.062
			c-1.504,0.674-1.866,1.037-3.369,0.986c-1.504-0.053-3.137-1.012-3.888-1.063"/>
		<path fill="#FCE097" stroke="#EFBA7A" stroke-width="0.3457" stroke-miterlimit="10" d="M159.889,78.099c0,0-1.606,0.472-2.188,0
			c-0.582-0.471-0.831-0.969-0.637-2.05c0.194-1.079,0.692-2.908,1.108-3.489c0.416-0.581,1.163-1.385,1.855-1.634
			c0.693-0.25,2.243-0.11,2.714-0.083s3.934,0.997,4.515,1.468c0.582,0.47,0.914,1.274,0.914,1.274"/>
		<path fill="#EFBA7A" d="M158.398,72.186c0,0,1.144-1.179,1.629-1.26c0.485-0.081,2.714-0.083,2.714-0.083l0.298,0.776
			c0,0-3.147-0.774-3.662,2.166c-0.515,2.938-0.515,4.486-0.515,4.486s-1.497,0.31-1.703-0.877
			c-0.207-1.187,0.206-3.043,0.413-3.661C157.779,73.114,158.398,72.186,158.398,72.186z"/>
		<path fill="#9E9D9C" stroke="#3D3D3B" stroke-width="0.3457" stroke-miterlimit="10" d="M167.065,44.96
			c-2.067-0.168-3.977,0.362-5.376,1.332l-1.069,10.702l4.321,4.469l-0.554,7.626l1.552,0.113l0.544-7.483l4.947-3.921l0.725-10.655
			C170.933,45.959,169.134,45.129,167.065,44.96z M164.382,52.622c-0.185,2.381-0.584,4.291-0.892,4.268
			c-0.309-0.024-0.409-1.974-0.224-4.354c0.184-2.38,0.583-4.291,0.891-4.267C164.466,48.294,164.567,50.243,164.382,52.622z
			 M167.002,52.53c-0.223,2.878-0.654,5.191-0.962,5.169c-0.308-0.024-0.377-2.378-0.153-5.256c0.222-2.877,0.653-5.191,0.961-5.168
			S167.226,49.652,167.002,52.53z M169.67,52.995c-0.185,2.381-0.585,4.291-0.893,4.268c-0.308-0.023-0.409-1.973-0.225-4.354
			c0.185-2.379,0.583-4.29,0.892-4.267S169.854,50.615,169.67,52.995z"/>
		<path fill="#24244E" stroke="#000000" stroke-width="0.25" stroke-miterlimit="10" d="M162.627,68.518l4.25,0.206
			c0,0-1.399,10.68-1.347,13.22c0.052,2.54,0.104,5.649,0.104,5.649s0.155,2.904-1.089,3.059c-1.245,0.156-4.095-0.361-4.562-1.087
			c-0.467-0.727-0.777-0.934-0.57-2.179c0.208-1.243,2.644-10.471,2.644-10.471l0.622-3.939L162.627,68.518z"/>
		<path fill="#FCE097" stroke="#EFBA7A" stroke-width="0.3457" stroke-miterlimit="10" d="M148.134,70.846"/>
		<path fill="#C7C6C7" stroke="#000000" stroke-linecap="round" stroke-linejoin="bevel" stroke-miterlimit="10" d="M159.672,91.015
			c0,0,1.14,1.012,1.27,1.192c0.13,0.182,4.847,5.599,5.158,6.143c0.311,0.545,1.397,3.148,1.397,3.148s-4.404-2.344-5.466-4.055
			c-1.064-1.711-2.151-4.796-2.151-4.796L159.672,91.015z"/>
		<path fill="#FCE097" stroke="#EFBA7A" stroke-width="0.3457" stroke-miterlimit="10" d="M167.063,84.803
			c0,0-1.26-0.192-2.542-0.421c-1.055-0.188-2.126-0.399-2.526-0.549c-0.887-0.334-2.161-0.859-2.161-0.859l0.416,0.692
			c0,0-0.11,0.941-0.11,1.053s-0.416,0.997-0.416,0.997s-0.969-0.083-1.191-0.665c-0.221-0.581-0.47-1.718-0.166-2.382
			c0.305-0.664,1.025-1.689,1.025-1.689s0.249-1.717,0.332-2.215c0.083-0.498,0.36-1.191,0.36-1.191s0-0.914,0.138-1.44
			c0.139-0.526,0.859-1.273,0.859-1.273s-0.416-1.025-0.333-1.634c0.083-0.61,0.416-1.413,0.665-1.413
			c0.25,0,2.88,0.331,5.317,1.219c2.438,0.886,3.712,1.19,4.016,1.412c0.305,0.222,0.526,1.469,0.194,2.16
			c-0.332,0.692-0.36,1.274-0.304,1.495c0.055,0.223,0.249,1.274-0.055,1.746c-0.305,0.472-0.776,1.107-0.666,1.634
			c0.111,0.526,0.361,1.302-0.055,1.912c-0.416,0.608-0.859,0.525-0.748,0.913c0.111,0.387,0.249,1.191-0.139,1.302
			c-0.387,0.11-0.442,0.831-0.442,0.831l-2.022,4.403c0,0-1.33,4.32-1.496,5.235c-0.167,0.914-0.313,3.52-0.313,3.52
			s-2.845-1.692-3.842-4.378c-0.996-2.688-0.746-2.103-0.746-2.103l1.438-1.498l1.107-1.08l1.275-4.82l0.221-0.997l0.083-0.305"/>
		<path fill="#EFBA7A" stroke="#EFBA7A" stroke-width="0.3457" stroke-miterlimit="10" d="M162.658,90.536
			c0,0,2.445-0.712,2.599-1.897c0.154-1.187,0.103-2.372,0.103-2.372s1.186,1.393,1.134,2.32c-0.052,0.929,0.155,1.856-0.825,2.991
			c-0.979,1.134-0.98,1.547-2.063,0.773c-1.083-0.773-1.083-1.393-1.083-1.393L162.658,90.536"/>
		<path fill="none" stroke="#EFBA7A" stroke-width="0.3457" stroke-miterlimit="10" d="M159.39,80.979c0,0,2.991,0,3.823,0.139
			c0.83,0.138,3.434,0.111,3.434,0.111"/>
		<path fill="none" stroke="#EFBA7A" stroke-width="0.3457" stroke-miterlimit="10" d="M160.083,77.435c0,0,1.938-0.221,3.047-0.139
			c1.108,0.084,3.185,0.61,3.517,0.664c0.333,0.056,1.275,0.666,1.275,0.666"/>
		<path fill="none" stroke="#EFBA7A" stroke-width="0.3457" stroke-miterlimit="10" d="M168.447,76.466c0,0-0.776-0.472-0.969-0.609
			c-0.195-0.14-2.77-0.997-4.044-1.274s-2.354,0.277-2.354,0.277"/>
		<path fill="#24244E" d="M159.413,87.386c-0.208,1.245,0.103,1.452,0.57,2.179c0.467,0.726,3.317,1.243,4.562,1.087
			c1.244-0.154,1.089-3.059,1.089-3.059s-0.119-0.284-0.17-2.823l-3.146-0.62l-1.237,0.672L159.413,87.386z"/>
		<path fill="#24244E" d="M161.336,80.952"/>
		<path fill="#DADADA" stroke="#000000" stroke-miterlimit="10" d="M100.465,82.388c0,0,3.605,1.538,4.374,1.893
			s6.502-0.06,6.502-0.06l-2.661-1.655l-0.118-1.949c0,0-2.246-1.42-3.192-2.01c-0.945-0.592-0.532-1.656-0.295-2.306
			c0.247-0.679,0.812-0.758,0.582-0.749c0,0-0.359-0.055-0.969,0.416c-0.609,0.471-2.852,2.299-2.852,2.299l-1.496,2.714
			L100.465,82.388z"/>
		<path fill="#FCE097" stroke="#D5A76E" stroke-width="0.3457" stroke-miterlimit="10" d="M94.669,110.771l0.122-0.365
			c0,0,0.827-7.093,1.063-8.394c0.236-1.3,0.592-8.157,0.709-10.167c0.119-2.009,1.655-5.674,2.069-6.62
			c0.413-0.945,2.246-3.191,2.837-4.197c0.592-1.004,1.832-3.604,2.01-4.196c0.177-0.591-0.178-2.01-0.178-2.01l-0.531-2.188
			c0,0-0.591-0.177-0.946-0.118c-0.355,0.061-0.473,0.828-0.65,1.419c-0.178,0.591-0.296,0.946-0.237,1.655
			c0.059,0.71,0.474,1.3,0.474,1.3s-0.887,0.887-1.182,1.359c-0.295,0.474-0.415,1.006-0.415,1.006s-0.295,0.177-1.123,0.59
			c-0.828,0.414-2.01-0.413-2.306-1.063c-0.296-0.649,0.119-2.541,0.474-3.191c0.355-0.65,1.596-1.242,1.892-1.596
			c0.295-0.354,2.127,0.887,2.127,0.887l0.709-1.95c0,0-2.069-1.242-2.423-1.36c-0.355-0.117-2.542,0.769-2.542,0.769l-3.132,3.546
			l-0.592-0.591l0.059-2.601c0,0,0.415-4.019,0.533-4.847c0.118-0.827,1.005-2.128,1.3-3.015c0.295-0.888,0.118-1.418-0.236-1.951
			c-0.355-0.531-1.301,0.533-1.36,0.828c-0.059,0.295-0.709,1.182-1.063,2.127c-0.354,0.946-1.005,3.37-1.123,4.493
			c-0.119,1.123-0.709,3.901-0.709,3.901l-2.364-3.133c0,0,0.177-2.601,0.177-3.251s0-3.073,0-3.546s0.354-2.246,0.177-2.778
			c-0.178-0.533-0.709-0.178-0.946-0.061c-0.237,0.119-0.65,1.479-0.768,2.425c-0.119,0.946-0.474,3.546-0.533,4.965
			c-0.059,1.419,0.119,3.429,0.119,3.429l1.123,2.364l-3.192-3.429c0,0-0.295-1.359-0.354-1.655
			c-0.059-0.295-1.005-1.241-1.005-1.241s-1.004-1.537-1.478-2.068c-0.474-0.532-1.183-0.945-1.479-0.71
			c-0.295,0.237,0.177,1.36,0.177,1.36s1.064,2.246,1.419,2.719c0.354,0.473,0.946,2.542,1.004,3.074
			c0.059,0.531,1.3,2.364,1.832,3.25c0.532,0.887,2.66,3.191,2.779,3.606c0.118,0.413,0.354,1.773,0.945,3.428
			c0.592,1.655,2.778,5.024,3.015,6.029c0.236,1.004,0,2.778-0.237,5.911c-0.236,3.132-1.62,7.393-1.62,7.393"/>
		<path fill="none" stroke="#000000" stroke-miterlimit="10" d="M90.161,87.605c0,0-1.713,1.123-2.127,1.537
			c-0.414,0.413-1.892,1.36-1.773,2.009c0.119,0.65,0.649,1.064,0.532,1.596c-0.118,0.533-1.596,2.306-1.596,2.306
			s0.354,1.479,0,1.95c-0.354,0.474-1.596,2.128-1.537,2.601c0.059,0.473,0.414,1.715,0.059,2.482
			c-0.354,0.769-1.359,1.774-1.478,2.425c-0.118,0.65,0.237,1.3,0.237,1.3s-0.769,0.414-0.769,1.005s0.178,0.887-0.118,1.478
			s-1.36,1.714-1.301,2.306s0.059,1.183,0.059,1.183s-1.241,0.53-1.064,1.003c0.177,0.475,0.473,0.771,0.473,0.771
			s-1.242,0.887-1.183,1.596s0.709,1.3,0.709,1.3s-1.655,2.188-1.418,3.134c0.235,0.945,1.95,2.541,2.482,3.369
			c0.531,0.827,2.187,1.714,3.192,2.305c1.005,0.59,2.837,1.3,3.25,1.714c0.414,0.414,0.769,1.124,1.241,0.532
			s0.591-0.237,1.242-1.419c0.65-1.183,1.537-3.428,1.714-3.842c0.177-0.414,0.295-2.187,0.295-2.187"/>
		<path fill="none" stroke="#000000" stroke-miterlimit="10" d="M89.116,126.661c0,0,1.242-0.827,1.537-1.359
			c0.295-0.532,0.828-1.005,1.301-1.3c0.473-0.296,1.478-0.828,1.891-1.655c0.414-0.828,1.005-0.828,1.301-1.773
			c0.295-0.945,0.473-1.892,0.473-1.892"/>
		<path fill="none" stroke="#000000" stroke-miterlimit="10" d="M89.589,100.299c0,0-0.827-0.118-0.709,0.768
			c0.118,0.888,0.65,2.956,1.182,3.724c0.533,0.77,5.379,6.798,5.793,7.744c0.413,0.946,3.724,6.028,3.724,6.028s-3.428-0.53-4.61,0
			c-1.182,0.533-4.965,1.302-6.088,1.893c-1.123,0.591-3.546,1.892-4.669,1.773s-3.191,0.059-3.133-1.773
			c0.06-1.832,0.591-3.961,1.064-5.32c0.473-1.359,1.359-3.842,1.655-5.142c0.295-1.301,2.364-6.148,2.66-7.33
			c0.295-1.182,1.063-3.251,1.36-3.369c0.295-0.118,0.945-0.473,1.359-0.118S89.589,100.299,89.589,100.299z"/>
		<path fill="none" stroke="#000000" stroke-miterlimit="10" d="M96.505,95.681c0,0,4.433,2.845,5.615,5.859
			c1.182,3.015,2.896,7.329,3.251,9.693c0.354,2.365,0.65,8.689,0.65,8.689s-2.128-1.713-3.074-1.713
			c-0.945,0-3.487-0.178-3.487-0.178"/>
		<path fill="#EEEDED" stroke="#000000" stroke-miterlimit="10" d="M115.296,76.354l4.616,1.364c0,0-0.414,0.65-1.064,1.005
			c-0.65,0.354-2.483,0.591-3.31,1.418c-0.827,0.828-1.36,1.596-1.537,2.188s-0.119,1.241-0.119,1.241s3.369,0.235,4.315,0
			c0.945-0.237,3.605-1.359,3.605-1.359s-1.005-1.714-1.182-2.364c-0.177-0.651-0.708-2.128-0.708-2.128"/>
		<path fill="none" stroke="#000000" stroke-miterlimit="10" d="M111.341,84.221c0,0,2.66,1.832,5.202,2.188
			c2.542,0.354,7.212,0.474,7.212,0.474s-0.828,3.367-0.946,7.565c-0.119,4.196-0.237,10.403,0,11.585
			c0.237,1.183,0.532,2.601,0.473,3.546c-0.059,0.946-1.005,4.907-1.418,6.799c-0.414,1.891-1.537,7.625-1.301,10.58
			s1.064,8.807,1.301,10.167c0.237,1.359,0.354,6.029,0.531,7.034c0.178,1.004,0.592,3.604,1.005,4.551
			c0.414,0.945,4.079,6.856,4.079,6.856s-3.487,0.178-4.847,0.355c-1.359,0.177-4.315,1.123-6.325,1.478
			c-2.009,0.354-9.28,0.65-11.408,0.473c-2.127-0.178-6.975-0.827-8.157-1.654c-1.182-0.828-2.068-1.715-2.068-1.715
			s1.833-8.452,2.187-10.226c0.354-1.773,1.655-5.261,1.892-6.206c0.237-0.946,1.537-2.72,1.537-2.72l0.473-0.708
			c0,0-0.65-0.651-0.414-1.124c0.237-0.473,0.769-1.063,0.769-1.063s-0.886-0.178-0.65-0.71c0.237-0.531,0.531-1.004,0.531-1.004
			s-0.945-2.542-1.063-3.429c-0.118-0.886-0.178-3.251-0.178-3.251l-1.124-3.191l-0.118-2.483"/>
		<path fill="none" stroke="#000000" stroke-miterlimit="10" d="M127.124,155.033c0,0,3.31-0.473,4.492-0.945
			c1.182-0.473,4.611-1.892,4.611-1.892s-2.069-5.084-2.542-7.093c-0.474-2.01-1.656-4.435-1.773-5.733
			c-0.118-1.302-0.887-4.316-0.946-4.789c-0.059-0.473-0.887-2.188-0.887-2.188s0.414-0.769,0.118-0.945
			c-0.295-0.177-0.709-0.709-0.709-0.709s0.414-0.237,0.474-0.709c0.059-0.473-0.118-1.183-0.355-1.301s-0.533-0.236-0.414-0.65
			c0.119-0.414,0.354-2.305,0.473-3.487c0.118-1.183,0.709-1.714,0.828-2.896c0.118-1.183-0.059-2.659,0.236-3.96
			c0.296-1.301,0.709-2.896,0.709-2.896"/>
		<path fill="none" stroke="#000000" stroke-miterlimit="10" d="M126.415,115.193c0,0,1.656,0.946,2.719,0.532
			c1.064-0.414,1.95-0.769,2.778-1.359c0.828-0.592,1.536-1.124,1.951-2.01c0.414-0.887,0.827-2.482,0.59-3.605
			c-0.236-1.123-0.708-2.365-0.767-2.838c-0.06-0.473-0.178-1.3-0.178-1.3"/>
		<path fill="none" stroke="#000000" stroke-miterlimit="10" d="M134.572,109.933c0,0,3.843,4.434,4.965,5.438
			c1.123,1.005,5.556,3.961,6.324,4.552c0.77,0.591,2.66,2.128,3.369,1.772c0.709-0.354,3.901-4.314,4.789-5.496
			c0.886-1.182,2.955-3.015,3.487-3.842c0.532-0.828,2.128-3.311,2.128-3.311"/>
		<path fill="none" stroke="#000000" stroke-miterlimit="10" d="M130.198,84.989c0,0,2.542,0.827,3.31,0.769
			c0.768-0.06,1.832-0.532,1.832-0.532s2.069,4.492,2.601,5.496c0.532,1.005,2.365,3.784,3.133,4.729
			c0.768,0.945,1.301,1.478,1.833,2.778c0.532,1.3,1.714,2.896,2.364,4.256s3.251,5.438,3.251,5.438l1.005-1.597
			c0,0,2.013-2.56,1.954-2.974"/>
		<path fill="none" stroke="#000000" stroke-miterlimit="10" d="M159.516,91.254c0,0-6.207,4.492-7.152,5.557
			c-0.946,1.063-2.956,4.02-3.428,4.492c-0.472,0.474-1.3,1.3-1.3,1.3l0.06,1.419c0,0,2.955-0.709,4.019-0.65
			c1.063,0.061,4.493,0.415,4.493,0.415l2.778,0.473"/>
		<g id="XMLID_1_">
			<g>
				<path fill="none" stroke="#000000" stroke-miterlimit="10" d="M159.574,97.934c0,0-0.768,4.669-0.65,5.91
					c0.119,1.241,0.414,4.258,0.946,5.734c0.531,1.479,2.6,5.142,3.072,5.674c0.477,0.532,4.437,1.773,4.437,1.773
					s-0.709-7.032-0.473-9.279c0.236-2.248,0.591-6.326,0.591-6.326s-5.027-2.659-6.15-5.081c-1.122-2.424-1.654-4.138-1.654-4.138
					l-0.059-1.362"/>
			</g>
		</g>
		<path fill="none" stroke="#000000" stroke-width="0.3457" stroke-miterlimit="10" d="M134.918,114.109"/>
		<path fill="none" stroke="#000000" stroke-width="0.3457" stroke-miterlimit="10" d="M148.901,121.682"/>
		<line fill="none" stroke="#000000" stroke-miterlimit="10" x1="111.183" y1="84.152" x2="113.883" y2="83.57"/>
		<path fill="#FCE097" d="M94.669,110.771"/>
		<g>
			<path fill="#EFBA7A" d="M101.175,73.937c0,0-1.83-1.288-2.345-0.875c-0.516,0.412-1.754,1.754-1.754,1.754l-0.206,0.516
				c0,0,1.599-1.496,1.909-1.496c0.309,0,1.495,0.825,1.495,0.825l0.606,0.222L101.175,73.937z"/>
			<polygon fill="#EFBA7A" points="93.49,67.848 92.898,75.022 92.435,71.359 			"/>
			<path fill="#EFBA7A" d="M101.412,76.891l1.028-0.064c0,0-0.723,0.155-1.135,0.773c-0.413,0.619-0.825,0.877-0.825,0.877
				l-0.251-0.227L101.412,76.891z"/>
			<path fill="#EFBA7A" d="M91.044,89.441c0,0-0.207,5.261-0.413,6.756c-0.206,1.496-1.296,5.899-1.296,5.899l0.404,1.536
				c0,0,1.821-3.052,1.976-4.96c0.155-1.908,0.31-5.828,0.104-6.859C91.612,90.782,91.044,89.441,91.044,89.441z"/>
		</g>
		<path fill="#FFFFFF" stroke="#000000" stroke-miterlimit="10" d="M91.374,35.561c0,0,0.234,3.104,0.117,4.101
			c-0.117,0.996-1.171,2.519-1.171,2.519s9.079,2.987,14.468,2.109c5.391-0.879,15.524-4.452,16.988-5.037
			c1.464-0.587,3.541-1.217,4.01-1.394c0.469-0.176,1.245,0.415,1.245,0.415l-2.402-4.277c0,0-0.118-0.872-0.235-2.747
			c-0.116-1.874-0.393-4.885-0.393-4.885l-25.54,4.921L91.374,35.561z"/>
		<path fill="#C7C6C7" d="M123.189,12.832c-1.81,0-3.472,0.674-4.777,1.797c-2.839-2.988-7.69-4.96-13.2-4.96
			c-7.336,0-13.506,3.494-15.31,8.235c-3.418,0.165,4.907,16.922,5.621,17.417c0.669,0.296,1.518,0.474,2.443,0.474
			c1.874,0,3.437-0.727,3.81-1.693c0.341,0.705,1.027,1.188,1.821,1.188c1.065,0,1.941-0.872,2.04-1.985
			c1.3,1.423,3.155,2.314,5.216,2.314c3.198,0,5.901-2.142,6.799-5.09c0.709,0.219,1.501,0.346,2.34,0.346
			c2.229,0,3.252-0.634,4.085-1.87C123.305,25.396,127.386,12.832,123.189,12.832z"/>
		<path fill="none" stroke="#000000" stroke-width="0.3457" stroke-miterlimit="10" d="M116.801,22.139
			c1.136,1.281,1.828,2.979,1.828,4.839c0,0.748-0.112,1.469-0.319,2.148"/>
		<path fill="#FFFFFF" stroke="#000000" stroke-miterlimit="10" d="M131.115,19.775c0-4.464-3.403-8.082-7.601-8.082
			c-1.81,0-3.473,0.674-4.777,1.797c-2.839-2.989-7.69-4.96-13.2-4.96c-7.337,0-13.506,3.494-15.31,8.235
			c-3.418,0.165-6.145,3.454-6.145,7.489c0,1.77,0.525,3.396,1.402,4.677c-0.356,0.708-0.561,1.494-0.561,2.326
			c0,3.041,2.649,5.507,5.917,5.507c2.112,0,3.96-1.033,5.008-2.583c0.668,0.297,1.517,0.475,2.443,0.475
			c1.874,0,3.437-0.728,3.81-1.693c0.341,0.705,1.027,1.188,1.821,1.188c1.066,0,1.941-0.872,2.041-1.985
			c1.299,1.422,3.155,2.314,5.216,2.314c3.197,0,5.9-2.142,6.799-5.091c0.708,0.219,1.5,0.346,2.339,0.346
			c2.229,0,4.141-0.866,4.973-2.103C128.631,26.782,131.115,23.587,131.115,19.775z"/>
		<path fill="#DADADA" stroke="#000000" stroke-miterlimit="10" d="M123.294,13.126c-1.969,0-3.752,0.789-5.054,2.067
			c-0.777-1.547-2.834-2.653-5.258-2.653c-2.943,0-5.35,1.631-5.572,3.699c0.748-1.164,1.853-1.906,3.091-1.906
			c1.862,0,3.429,1.676,3.914,3.959c0.801-0.717,1.797-1.147,2.881-1.147c2.164,0,3.988,1.697,4.574,4.021
			c0.125,0.321,0.241,0.651,0.317,0.959c0.293,1.172,0.352,2.226,0.352,2.226s1.582-1.348,2.05-2.226
			c0.242-0.452,0.481-1.335,0.659-2.09c0.389,1.013,0.629,2.361,0.629,3.848c0,1.247-0.17,2.396-0.455,3.334
			c2.943-0.907,5.082-3.647,5.082-6.886C130.503,16.352,127.275,13.126,123.294,13.126z"/>
	</g>
</g>
</svg>
