<?xml version="1.0" encoding="utf-8"?>
<!-- Generator: Adobe Illustrator 16.0.0, SVG Export Plug-In . SVG Version: 6.00 Build 0)  -->
<!DOCTYPE svg PUBLIC "-//W3C//DTD SVG 1.1//EN" "http://www.w3.org/Graphics/SVG/1.1/DTD/svg11.dtd">
<svg version="1.1" id="Ebene_1" xmlns="http://www.w3.org/2000/svg" xmlns:xlink="http://www.w3.org/1999/xlink" x="0px" y="0px"
	 width="150px" height="150px" viewBox="0 0 150 150" enable-background="new 0 0 150 150" xml:space="preserve">
<g>
	<circle fill="#EDDAAB" stroke="#000000" stroke-width="8" stroke-miterlimit="10" cx="75" cy="75" r="59.333"/>
	<rect x="55.819" y="53.404" fill="none" width="45.695" height="26.309"/>
	<g enable-background="new    ">
		<path fill="#009FE3" d="M67.331,78.708c0-15.45,15.976-13.873,15.976-26.906c0-4.309-2.313-9.038-7.252-9.038
			c-5.991,0-7.462,6.516-9.144,6.516c-1.156,0-8.198-8.093-8.198-9.354c0-3.363,7.988-10.615,17.657-10.615
			c13.349,0,22.283,11.981,22.283,24.699c0,19.023-20.811,23.438-20.811,31.53c0,4.624-0.946,3.994-5.571,3.994
			c-3.469,0-4.94,0.63-4.94-3.259V78.708z M61.13,108.242c0-6.307,5.255-11.456,11.562-11.456c6.621,0,11.981,5.045,11.981,11.562
			c0,6.516-5.36,11.561-11.876,11.561C66.28,119.908,61.13,114.653,61.13,108.242z"/>
	</g>
	<g enable-background="new    ">
		<path fill="none" stroke="#050505" stroke-width="3" stroke-miterlimit="10" d="M67.331,78.708
			c0-15.45,15.976-13.873,15.976-26.906c0-4.309-2.313-9.038-7.252-9.038c-5.991,0-7.462,6.516-9.144,6.516
			c-1.156,0-8.198-8.093-8.198-9.354c0-3.363,7.988-10.615,17.657-10.615c13.349,0,22.283,11.981,22.283,24.699
			c0,19.023-20.811,23.438-20.811,31.53c0,4.624-0.946,3.994-5.571,3.994c-3.469,0-4.94,0.63-4.94-3.259V78.708z M61.13,108.242
			c0-6.307,5.255-11.456,11.562-11.456c6.621,0,11.981,5.045,11.981,11.562c0,6.516-5.36,11.561-11.876,11.561
			C66.28,119.908,61.13,114.653,61.13,108.242z"/>
	</g>
</g>
</svg>
