<?xml version="1.0" encoding="utf-8"?>
<!-- Generator: Adobe Illustrator 16.0.0, SVG Export Plug-In . SVG Version: 6.00 Build 0)  -->
<!DOCTYPE svg PUBLIC "-//W3C//DTD SVG 1.1//EN" "http://www.w3.org/Graphics/SVG/1.1/DTD/svg11.dtd">
<svg version="1.1" id="Ebene_1" xmlns="http://www.w3.org/2000/svg" xmlns:xlink="http://www.w3.org/1999/xlink" x="0px" y="0px"
	 width="150px" height="150px" viewBox="0 0 150 150" enable-background="new 0 0 150 150" xml:space="preserve">
<g>
	<circle fill="#EDDAAB" stroke="#000000" stroke-width="8" stroke-miterlimit="10" cx="75" cy="75" r="59.334"/>
</g>
<g>
	<path fill="#EDDAAB" stroke="#000000" stroke-width="2.851" stroke-miterlimit="10" d="M92.468,110.082
		c0.037-1.629,1.776-8.519,0.026-11.55c-1.278-2.223-3.665-3.901-7.199-4.002c0,0-2.287,0.099-4.289,1.104
		c-2.001,1.002-3.394,2.676-3.394,2.676c-1.654,2.173-1.542,4.482-1.28,5.563c1.386,5.708,13.357,12.298,14.946,11.688
		C92.87,114.951,92.409,112.477,92.468,110.082z"/>
	<path fill="#B17F4A" stroke="#000000" stroke-width="2.851" stroke-miterlimit="10" d="M76.562,95.56c0,0,0.858-1.282,3.577-2.248
		c2.718-0.965,5.156-1.815,5.156-1.815s1.818,0.923,1.418,3.113c-0.398,2.189-7.213,3.942-8.254,3.961
		C77.419,98.591,75.832,97.722,76.562,95.56z"/>
	<path fill="#CA9E67" stroke="#000000" stroke-width="2.851" stroke-miterlimit="10" d="M75.159,92.558c0,0,0.857-1.282,3.577-2.248
		c2.719-0.965,5.157-1.815,5.157-1.815s1.817,0.923,1.418,3.113c-0.399,2.188-7.213,3.941-8.254,3.961
		C76.017,95.587,74.43,94.72,75.159,92.558z"/>
	<path fill="#7D4E24" stroke="#000000" stroke-width="2.851" stroke-miterlimit="10" d="M74.889,92.812
		c0.145,0.119,0.373,0.181,0.662,0.202c0,0,2.441,0.359,5.326-0.932c2.884-1.291,3.562-2.996,3.562-2.996
		c0.166-0.213,0.131-0.556,0.192-0.752c0.721-2.21-8.304-12.608-9.963-16.891c-1.75-4.521-7.786-16.082-8.185-16.732
		c-0.394-0.653-2.644-6.291-2.849-6.836c-0.206-0.546-3.281-7.044-5.336-10.909c-2.058-3.863-3.976-6.722-5.813-6.265
		c-1.839,0.456,0.401,5.684,2.582,9.737c1.29,2.407,2.197,4.591,3.074,6.543c0.875,1.952,3.476,6.884,4.152,8.334
		c0.682,1.45,3.47,8.473,4.165,10.709c0.694,2.244,3.232,10.002,4.071,14.292C71.369,84.608,73.551,91.709,74.889,92.812z"/>
	<g>
		<g>
			<path d="M83.804,112.455c1.947,0,4.368-0.543,5.413-2.403c0.947-1.685-0.803-2.993-2.39-2.993c-1.947,0-4.368,0.543-5.413,2.403
				C80.467,111.147,82.217,112.455,83.804,112.455L83.804,112.455z"/>
		</g>
	</g>
	<path fill="none" stroke="#000000" stroke-width="2.851" stroke-miterlimit="10" d="M88.08,113.313"/>
	<path fill="#9E124F" stroke="#000000" stroke-width="2.851" stroke-miterlimit="10" d="M81.947,111.246
		c-0.648-0.504,0.133-1.61,0.857-1.753c0.725-0.144,2.451-0.024,3.473-0.419c1.023-0.395,1.793-2.451,2.792-2.936
		c0.998-0.487,2.776-0.016,3.654,0.816c0.877,0.833,0.096,1.731,0.092,3.052c-0.005,1.319,0.535,5.106-1.044,6.012
		C90.191,116.924,82.594,111.751,81.947,111.246z"/>
</g>
</svg>
