<?xml version="1.0" encoding="utf-8"?>
<!-- Generator: Adobe Illustrator 16.0.0, SVG Export Plug-In . SVG Version: 6.00 Build 0)  -->
<!DOCTYPE svg PUBLIC "-//W3C//DTD SVG 1.1//EN" "http://www.w3.org/Graphics/SVG/1.1/DTD/svg11.dtd">
<svg version="1.1" id="Ebene_1" xmlns="http://www.w3.org/2000/svg" xmlns:xlink="http://www.w3.org/1999/xlink" x="0px" y="0px"
	 width="150px" height="150px" viewBox="0 0 150 150" enable-background="new 0 0 150 150" xml:space="preserve">
<g>
	<circle fill="#EDDAAB" stroke="#000000" stroke-width="8" stroke-miterlimit="10" cx="75" cy="75" r="59.334"/>
	<g>
		<g>
			<path fill="#F9ECC5" d="M92.26,53.937c0.963-0.63,1.963-1.196,2.987-1.718c-0.514-0.025-1.027-0.051-1.541-0.077
				c-0.81,1.807-3.389,1.638-5.054,1.899c-0.86,0.135-1.651,1.128-0.305,0.918c2.48-0.388,6.078-0.42,7.278-3.101
				c0.268-0.597-1.396-0.15-1.541-0.077c-1.153,0.587-2.263,1.241-3.345,1.949c-0.34,0.222-0.207,0.523,0.153,0.572
				C91.373,54.368,91.865,54.195,92.26,53.937L92.26,53.937z"/>
		</g>
	</g>
	<path fill="none" stroke="#072172" stroke-width="4" stroke-miterlimit="10" d="M115.666,41"/>
	<path fill="none" stroke="#072172" stroke-width="4" stroke-miterlimit="10" d="M48,41"/>
	<path fill="none" stroke="#072172" stroke-width="4" stroke-miterlimit="10" d="M124.666,58"/>
	<path fill="none" stroke="#072172" stroke-width="4" stroke-miterlimit="10" d="M36.334,58"/>
	<path fill="none" stroke="#072172" stroke-width="4" stroke-miterlimit="10" d="M125.334,67.333"/>
	<path fill="none" stroke="#072172" stroke-width="4" stroke-miterlimit="10" d="M121.334,77"/>
	<path fill="none" stroke="#072172" stroke-width="4" stroke-miterlimit="10" d="M42,77"/>
	<path fill="none" stroke="#072172" stroke-width="4" stroke-miterlimit="10" d="M124,88.667"/>
	<path fill="none" stroke="#072172" stroke-width="4" stroke-miterlimit="10" d="M39.666,88.667"/>
	<path fill="none" stroke="#072172" stroke-width="4" stroke-miterlimit="10" d="M128.334,104"/>
	<path fill="none" stroke="#072172" stroke-width="4" stroke-miterlimit="10" d="M51,104"/>
	<path fill="none" stroke="#072172" stroke-width="4" stroke-miterlimit="10" d="M125.334,112.333"/>
	<path fill="none" stroke="#072172" stroke-width="4" stroke-miterlimit="10" d="M42,112.333"/>
	<polygon stroke="#000000" stroke-width="3" stroke-linejoin="round" stroke-miterlimit="10" points="60.664,50.32 67.561,43.391 
		81.355,43.391 88.252,50.32 	"/>
	
		<rect x="52.416" y="49" fill="#218F90" stroke="#000000" stroke-width="3" stroke-linejoin="round" stroke-miterlimit="10" width="43.75" height="57.25"/>
	
		<line fill="none" stroke="#000000" stroke-width="3" stroke-linecap="round" stroke-linejoin="round" stroke-miterlimit="10" x1="44" y1="49" x2="104.916" y2="49"/>
	
		<line fill="none" stroke="#000000" stroke-width="3" stroke-linecap="round" stroke-linejoin="round" stroke-miterlimit="10" x1="63.916" y1="56.75" x2="63.916" y2="98"/>
	
		<line fill="none" stroke="#000000" stroke-width="3" stroke-linecap="round" stroke-linejoin="round" stroke-miterlimit="10" x1="84.916" y1="57" x2="84.916" y2="98.25"/>
	
		<line fill="none" stroke="#000000" stroke-width="3" stroke-linecap="round" stroke-linejoin="round" stroke-miterlimit="10" x1="74.291" y1="56.75" x2="74.291" y2="98"/>
</g>
</svg>
