<?xml version="1.0" encoding="utf-8"?>
<!-- Generator: Adobe Illustrator 16.0.0, SVG Export Plug-In . SVG Version: 6.00 Build 0)  -->
<!DOCTYPE svg PUBLIC "-//W3C//DTD SVG 1.1//EN" "http://www.w3.org/Graphics/SVG/1.1/DTD/svg11.dtd">
<svg version="1.1" id="Calque_1" xmlns="http://www.w3.org/2000/svg" xmlns:xlink="http://www.w3.org/1999/xlink" x="0px" y="0px"
	 width="250px" height="250px" viewBox="0 0 250 250" enable-background="new 0 0 250 250" xml:space="preserve">
<g>
	<linearGradient id="SVGID_1_" gradientUnits="userSpaceOnUse" x1="79.3145" y1="184.5049" x2="137.4806" y2="98.27">
		<stop  offset="0" style="stop-color:#FFFFFF"/>
		<stop  offset="0.8554" style="stop-color:#FFFFFF"/>
		<stop  offset="1" style="stop-color:#FFFFFF"/>
	</linearGradient>
	<path fill="url(#SVGID_1_)" d="M28.894,107.844c0,0,8.788,113.952,154.919,84.739c44.305-9.046,42.254-30.814,42.254-30.814
		s-0.511-9.454-18.714-11.54c-18.206-2.093-115.549-2.426-129.715-63.775C70.83,73.806,62.813,70.759,62.813,70.759l-16.021-6.083
		c-1.723-13.143-13.609-12.025-13.609-12.025C36.355,67.542,21.465,80.861,28.894,107.844z"/>
	<g>
		<path d="M137.706,200.836c-0.004,0-0.007,0-0.01,0c-54.923-0.002-82.938-25.197-96.766-46.333
			c-14.143-21.614-16.609-42.976-16.897-46.046C19.531,91.801,23.1,79.908,25.97,70.342c1.885-6.276,3.511-11.697,2.387-16.968
			l-0.802-3.764l3.864-0.406c0,0,0.371-0.039,1.011-0.039c6.499,0,13.865,3.456,15.988,12.973l14.188,5.385
			c0.378,0.143,9.311,3.663,16.644,17.292l0.221,0.41l0.105,0.452c12.159,52.659,89.645,58.324,118.813,60.455
			c3.359,0.246,6.012,0.439,7.924,0.66c19.914,2.282,21.625,13.221,21.764,14.655l0,0c0.097,1.014,1.806,24.975-45.009,34.531
			C166.933,199.202,151.673,200.836,137.706,200.836z M35.653,56.557c0.094,5.304-1.443,10.424-3.049,15.776
			c-2.77,9.232-5.911,19.695-1.809,34.593l0.087,0.32l0.026,0.332c0.018,0.214,1.889,21.985,15.978,43.375
			c18.771,28.503,49.325,42.956,90.811,42.958c0.002,0,0.007,0,0.01,0c13.515,0,28.313-1.589,43.99-4.723
			c40.122-8.19,39.502-26.907,39.485-27.094l-0.018-0.176c-0.1-0.557-1.484-6.625-15.642-8.247c-1.771-0.204-4.36-0.393-7.638-0.633
			c-30.481-2.228-111.313-8.132-124.949-65.338C66.96,76.831,60.213,74.022,60.146,73.997l-17.958-6.817l-0.269-2.053
			C41.198,59.623,38.357,57.397,35.653,56.557z"/>
	</g>
	<g>
		<path d="M36.703,96.468c0,0,0,57.458,55.496,81.133c33.604,13.749,62.844,7.912,69.381,6.285
			C141.605,177.054,61.304,182.243,36.703,96.468"/>
	</g>
</g>
</svg>
