<?xml version="1.0" encoding="utf-8"?>
<!-- Generator: Adobe Illustrator 16.0.0, SVG Export Plug-In . SVG Version: 6.00 Build 0)  -->
<!DOCTYPE svg PUBLIC "-//W3C//DTD SVG 1.1//EN" "http://www.w3.org/Graphics/SVG/1.1/DTD/svg11.dtd">
<svg version="1.1" id="Calque_1" xmlns="http://www.w3.org/2000/svg" xmlns:xlink="http://www.w3.org/1999/xlink" x="0px" y="0px"
	 width="250px" height="250px" viewBox="0 0 250 250" enable-background="new 0 0 250 250" xml:space="preserve">
<g>
	<g>
		<linearGradient id="SVGID_1_" gradientUnits="userSpaceOnUse" x1="37.2905" y1="125" x2="212.709" y2="125">
			<stop  offset="0" style="stop-color:#FFFFFF"/>
			<stop  offset="0.9385" style="stop-color:#FFFFFF"/>
			<stop  offset="1" style="stop-color:#FFFFFF"/>
		</linearGradient>
		<path fill="url(#SVGID_1_)" d="M84.355,179.776c-12.804,10.921-32.017,7.716-35.406,4.892c-3.389-2.825,1.318-1.317-3.578-6.025
			c-4.896-4.707-6.779-5.648-6.779-5.648C35.392,154.353,48.95,135.9,48.95,135.9l6.025,3.765
			c-1.744-1.635-10.168-12.813-10.168-16.121c0-5.387-6.778-11.842-6.778-11.842c-7.625-57.899,46.32-48.578,46.32-48.578
			L79.266,78.28c13.368-33.704,31.444-30.314,45.378-32.574c13.935-2.26,22.031,6.098,22.031,6.098l36.718,9.154
			c8.851-0.564,10.986,17.322,10.986,17.322l-0.064,1.319c0.187,2.824,16.568,7.343,16.568,7.343c4.896,22.22-1.6,35.212-1.6,35.212
			c0.658,3.954,2.354,4.331,2.354,4.331c-0.376,9.603-4.707,17.887-4.707,17.887s-1.695-5.46-0.378,3.579
			c1.318,9.038,4.707-0.753,3.014,20.524c-1.695,21.276-24.291,11.675-24.291,11.675c-4.143,4.142-10.168,1.694-10.168,1.694
			c-7.531-14.311-12.05-18.642-12.05-18.642l3.012,6.777c-5.461,3.579-5.837,11.11-5.837,11.11
			c-1.318,12.051-15.816,18.829-15.816,18.829c-15.44,12.993-30.504-4.707-32.01-4.896c-1.508-0.188-12.428,2.637-22.031-8.474
			c-9.603-11.108-5.271-12.615-16.004-19.206c-10.734-6.589-9.416-14.875-9.416-14.875"/>
		<path fill="#0D0D0D" d="M84.575,180.049l-1.271,1.109c-0.452,0.349-0.896,0.723-1.361,1.054c-0.926,0.667-1.881,1.302-2.88,1.862
			c-0.992,0.575-2.021,1.089-3.076,1.543c-1.053,0.462-2.136,0.85-3.229,1.212c-4.392,1.39-9.029,1.993-13.664,1.825
			c-2.32-0.093-4.64-0.34-6.966-0.914c-1.17-0.304-2.318-0.63-3.568-1.333c-0.723-0.445-1.114-0.795-1.658-1.327
			c-0.254-0.278-0.556-0.564-0.841-1.228c-0.139-0.326-0.221-0.826-0.168-1.227c0.049-0.399,0.133-0.607,0.138-0.663
			c0.012-0.061-0.012,0.01-0.011,0.068c-0.004,0.061,0.003,0.093-0.002,0.087c-0.007-0.014-0.083-0.156-0.191-0.303
			c-0.217-0.307-0.548-0.677-0.902-1.031l-0.554-0.537l-0.253-0.235l-0.317-0.276l-1.269-1.107
			c-0.845-0.735-1.697-1.507-2.521-2.107c-0.416-0.313-0.828-0.658-1.242-0.947l-0.62-0.413l-0.305-0.205
			c-0.063-0.03-0.123-0.064-0.182-0.101l-0.979-0.615l-0.141-0.894c-0.136-0.86-0.318-1.72-0.398-2.589
			c-0.118-0.866-0.17-1.735-0.216-2.605c-0.034-0.87-0.05-1.741-0.029-2.608c0.018-0.869,0.059-1.735,0.135-2.598
			c0.28-3.454,0.962-6.849,1.92-10.14c0.962-3.29,2.178-6.493,3.65-9.569c0.732-1.54,1.517-3.054,2.356-4.541
			c0.421-0.743,0.853-1.481,1.306-2.213c0.462-0.744,0.896-1.43,1.451-2.221l1.455-2.07l2.242,1.362l6.072,3.689l-3.467,4.506
			c-0.421-0.397-0.643-0.657-0.918-0.959l-0.731-0.851c-0.47-0.561-0.921-1.119-1.364-1.682c-0.883-1.125-1.736-2.261-2.568-3.421
			c-0.83-1.16-1.626-2.35-2.402-3.577c-0.771-1.237-1.519-2.493-2.204-3.941c-0.337-0.747-0.676-1.476-0.924-2.623
			c-0.029-0.154-0.058-0.29-0.08-0.46c-0.02-0.19-0.035-0.382-0.044-0.573l-0.023-0.469l-0.031-0.221l-0.058-0.316
			c-0.189-0.896-0.636-1.931-1.216-2.943c-0.581-1.019-1.295-2.033-2.08-3.01c-0.393-0.489-0.804-0.97-1.228-1.438
			c-0.411-0.455-0.888-0.953-1.264-1.313l-0.806-0.773l-0.132-1.07l-0.32-2.601l-0.249-2.615l-0.17-2.631l-0.062-2.646
			c0.007-1.769,0.047-3.542,0.19-5.32c0.132-1.777,0.349-3.559,0.66-5.334c0.317-1.773,0.71-3.544,1.247-5.289
			c0.508-1.75,1.172-3.469,1.963-5.134c1.552-3.343,3.684-6.464,6.271-9.135c2.578-2.687,5.648-4.859,8.917-6.487
			c3.269-1.641,6.725-2.77,10.213-3.509c3.495-0.725,7.026-1.055,10.538-1.104c1.757-0.02,3.51,0.031,5.258,0.157
			c1.767,0.135,3.451,0.304,5.292,0.632l2.421,0.431l-0.816,2.257l-5.438,15.038l-3.17-1.159c0.72-1.628,1.421-3.26,2.219-4.854
			c0.376-0.806,0.787-1.597,1.209-2.383c0.411-0.791,0.828-1.578,1.287-2.346c0.886-1.548,1.813-3.079,2.819-4.561
			c0.502-0.742,1.004-1.483,1.558-2.192l0.81-1.075l0.862-1.038c1.14-1.391,2.405-2.684,3.717-3.923
			c1.342-1.212,2.758-2.343,4.254-3.365c1.506-1.007,3.079-1.918,4.727-2.673c1.649-0.748,3.353-1.365,5.083-1.859
			c3.466-1.003,7.022-1.425,10.513-1.826l5.201-0.572c0.868-0.108,1.685-0.227,2.577-0.367l1.302-0.186l1.375-0.136
			c3.619-0.273,7.308,0.12,10.798,1.207c1.742,0.548,3.434,1.267,5.037,2.155c1.616,0.911,3.095,1.886,4.546,3.253l-0.606-0.35
			c3.065,0.741,6.143,1.436,9.216,2.143l9.223,2.116l18.446,4.225l-0.6-0.055c1.201-0.098,2.483,0.083,3.627,0.545
			c1.15,0.456,2.134,1.159,2.957,1.93c1.646,1.563,2.721,3.379,3.605,5.192c0.874,1.824,1.532,3.688,2.074,5.565
			c0.271,0.939,0.511,1.883,0.724,2.834l0.298,1.433c0.093,0.491,0.176,0.943,0.256,1.492l0.021,0.147l-0.008,0.262l-0.035,1.321
			l-0.003-0.284c-0.032-0.45-0.178-0.642-0.2-0.696c-0.033-0.059-0.018-0.034,0.033,0.008c0.109,0.092,0.329,0.249,0.574,0.396
			c0.501,0.305,1.118,0.611,1.756,0.896c1.286,0.571,2.672,1.094,4.074,1.584c1.404,0.488,2.837,0.944,4.278,1.378l2.171,0.632
			l2.162,0.589l1.652,0.449l0.353,1.663l0.479,2.263c0.152,0.756,0.336,1.506,0.462,2.269c0.228,1.53,0.523,3.05,0.667,4.595
			l0.24,2.315c0.087,0.771,0.098,1.551,0.149,2.326c0.034,0.777,0.106,1.553,0.094,2.334l0.013,2.34
			c-0.007,0.781-0.057,1.563-0.084,2.346c-0.02,0.782-0.09,1.563-0.162,2.346c-0.066,0.783-0.133,1.565-0.25,2.347
			c-0.107,0.781-0.196,1.563-0.352,2.342c-0.275,1.559-0.598,3.114-1.036,4.663c-0.2,0.776-0.453,1.549-0.712,2.326
			c-0.14,0.391-0.265,0.774-0.427,1.174c-0.161,0.412-0.293,0.748-0.544,1.28l0.298-1.978c0.063,0.324,0.13,0.64,0.211,0.925
			c0.083,0.28,0.173,0.538,0.268,0.733c0.046,0.102,0.091,0.186,0.132,0.25c0.039,0.063,0.075,0.115,0.091,0.128
			c0.019,0.026,0.015,0.006-0.033-0.029c-0.027-0.026-0.067-0.055-0.139-0.099c-0.039-0.022-0.088-0.051-0.151-0.079
			c-0.123-0.045-0.036-0.043-0.503-0.164l2.562,3.325c-0.058,0.843-0.069,1.696-0.171,2.53c-0.078,0.84-0.179,1.674-0.313,2.5
			c-0.253,1.654-0.593,3.286-1.018,4.888c-0.418,1.604-0.903,3.186-1.469,4.739c-0.283,0.778-0.581,1.551-0.899,2.32l-0.5,1.155
			c-0.177,0.397-0.339,0.748-0.572,1.214l-3.693,7.385l-2.618-7.956c-0.065-0.197-0.166-0.479-0.238-0.653
			c-0.034-0.085-0.075-0.17-0.061-0.135c0.021,0.03,0.016,0.059,0.204,0.316c0.069,0.09,0.12,0.155,0.278,0.315l0.111,0.104
			c0.063,0.058,0.129,0.111,0.196,0.163c0.073,0.056,0.126,0.093,0.222,0.154c0.129,0.083,0.265,0.157,0.405,0.222
			c0.187,0.099,0.817,0.31,1.309,0.304c0.573,0.044,1.379-0.195,1.763-0.437c0.231-0.129,0.454-0.295,0.637-0.466
			c0.112-0.104,0.22-0.217,0.317-0.338c0.09-0.105,0.207-0.28,0.246-0.345l0.12-0.209l0.104-0.219l0.053-0.129
			c0.03-0.078,0.057-0.158,0.079-0.238c0.024-0.077,0.049-0.188,0.06-0.242c0.021-0.109,0.027-0.167,0.031-0.203
			c0.007-0.058,0.005-0.065,0.006-0.041l0.011,0.255l0.07,0.789c0.126,1.125,0.311,2.439,0.505,3.568
			c0.157,1.02,0.512,1.97,0.641,2.061c0.042,0.056,0.082,0.103,0.334,0.357c0.238,0.24,0.687,0.714,1.042,1.271
			c0.739,1.155,0.982,2.212,1.154,3.053c0.308,1.703,0.328,3.068,0.356,4.456c0.011,1.368-0.02,2.697-0.073,4.012
			c-0.052,1.315-0.125,2.616-0.208,3.912l-0.141,2.001c-0.033,0.336-0.045,0.595-0.097,0.994c-0.05,0.379-0.089,0.781-0.152,1.14
			c-0.227,1.456-0.576,2.938-1.113,4.414c-0.541,1.476-1.295,2.946-2.312,4.295c-1.006,1.351-2.29,2.559-3.726,3.489
			c-1.437,0.931-3.006,1.593-4.566,2.001c-3.139,0.824-6.192,0.778-9.054,0.407c-1.437-0.19-2.834-0.475-4.206-0.832
			c-0.687-0.179-1.365-0.378-2.043-0.596c-0.7-0.23-1.3-0.434-2.11-0.765l4.111-0.799c-0.927,0.916-2.026,1.728-3.235,2.299
			c-1.204,0.581-2.488,0.938-3.739,1.099c-1.255,0.17-2.479,0.14-3.653-0.009c-0.589-0.075-1.166-0.182-1.739-0.319
			c-0.287-0.069-0.572-0.145-0.862-0.233l-0.444-0.142c-0.17-0.059-0.264-0.089-0.542-0.199l-1.235-0.489l-0.658-1.226l-2.576-4.798
			l-1.358-2.343c-0.457-0.776-0.892-1.575-1.379-2.322l-1.427-2.275c-0.488-0.744-0.993-1.466-1.488-2.2
			c-0.497-0.731-1.026-1.403-1.537-2.107l-0.786-0.975c-0.133-0.173-0.254-0.292-0.381-0.441l-0.296-0.333l5.738-4.031l2.966,6.798
			l1.217,2.786L168,172.928c-0.899,0.571-1.67,1.375-2.331,2.363c-0.659,0.986-1.181,2.169-1.548,3.43
			c-0.183,0.629-0.331,1.283-0.43,1.918l-0.155,1.212c-0.072,0.421-0.097,0.725-0.229,1.295c-0.226,1.067-0.478,1.941-0.82,2.848
			c-0.32,0.901-0.722,1.761-1.153,2.594c-1.75,3.333-4.198,6.052-6.845,8.347c-1.332,1.145-2.725,2.188-4.171,3.141
			c-0.725,0.475-1.458,0.934-2.214,1.361c-0.776,0.438-1.479,0.819-2.396,1.249l0.672-0.43c-1.883,1.53-4.005,2.872-6.355,3.812
			c-2.342,0.948-4.909,1.448-7.444,1.439c-2.539-0.004-5.018-0.504-7.307-1.311c-2.292-0.813-4.417-1.907-6.376-3.172
			c-1.96-1.261-3.776-2.688-5.472-4.144l-1.236-1.065l-0.556-0.466l-0.187-0.146c-0.029-0.023,0.003,0.001,0.03,0.01
			c0.052,0.028,0.107,0.052,0.164,0.069c0.176,0.067,0.341,0.107,0.591,0.124c-0.041-0.002-0.196-0.018-0.142-0.008
			c-0.001,0.005,0.061-0.001,0.009,0l-0.344,0.016l-0.815,0.047c-0.568,0.032-1.155,0.053-1.744,0.06
			c-2.362,0.02-4.769-0.263-7.072-0.909c-2.311-0.63-4.504-1.644-6.495-2.916c-1.99-1.281-3.776-2.819-5.343-4.52
			c-0.78-0.828-1.54-1.772-2.189-2.608c-0.675-0.825-1.348-1.776-2.016-2.69c-1.289-1.842-2.457-3.807-3.442-5.8
			c-0.992-1.999-1.827-3.809-3.176-5.276c-1.319-1.502-3.018-2.788-4.772-3.994l-1.346-0.925c-0.443-0.294-0.909-0.65-1.367-0.99
			c-0.889-0.697-1.739-1.44-2.532-2.248c-1.586-1.607-2.933-3.489-3.805-5.584c-0.865-2.095-1.339-4.348-1.032-6.644l0.691,0.109
			c-0.107,2.05,0.499,4.179,1.451,6.015c0.969,1.853,2.304,3.494,3.865,4.885c0.779,0.696,1.614,1.335,2.478,1.926
			c0.437,0.28,0.852,0.563,1.335,0.84l1.403,0.835c1.899,1.137,3.8,2.365,5.477,4.029c0.855,0.809,1.58,1.781,2.226,2.744
			c0.642,0.979,1.163,1.937,1.712,2.865c1.076,1.839,2.239,3.56,3.527,5.223c0.662,0.808,1.282,1.607,2.029,2.431
			c0.732,0.845,1.378,1.563,2.127,2.282c1.46,1.427,3.068,2.661,4.795,3.648c1.732,0.972,3.57,1.715,5.481,2.151
			c1.911,0.446,3.877,0.593,5.862,0.49c0.498-0.027,0.997-0.066,1.514-0.118l0.811-0.083l0.471-0.04
			c0.084-0.008,0.281-0.013,0.417-0.012l0.266,0.006c0.317,0.021,0.547,0.088,0.789,0.171c0.118,0.047,0.234,0.099,0.349,0.155
			c0.145,0.075,0.298,0.165,0.38,0.22c0.204,0.129,0.34,0.229,0.477,0.328l0.72,0.551l1.281,1.011
			c1.664,1.308,3.336,2.499,5.083,3.519c3.466,2.05,7.242,3.388,10.886,3.254c1.815-0.063,3.585-0.469,5.253-1.212
			c1.67-0.736,3.238-1.791,4.688-3.053l0.235-0.206l0.437-0.224c0.528-0.271,1.229-0.672,1.839-1.048
			c0.627-0.389,1.25-0.791,1.858-1.214c1.216-0.846,2.376-1.762,3.456-2.739c2.15-1.956,3.998-4.174,5.174-6.578
			c0.29-0.601,0.558-1.206,0.757-1.825c0.218-0.6,0.38-1.283,0.477-1.788c0.063-0.211,0.11-0.709,0.164-1.081l0.02-0.149l0.01-0.074
			l0.005-0.037l0.002-0.01c0.027-0.284-0.037,0.379-0.03,0.3l0.003-0.05l0.031-0.423l0.08-0.737c0.124-0.956,0.31-1.877,0.551-2.797
			c0.486-1.833,1.207-3.653,2.284-5.373c1.064-1.717,2.539-3.312,4.335-4.498l-1.288,4.378l-3.058-6.757l-8.286-18.316
			l14.024,14.286l0.374,0.381l0.276,0.304c0.178,0.2,0.383,0.412,0.536,0.604l0.977,1.178c0.592,0.786,1.218,1.567,1.773,2.361
			c0.554,0.795,1.121,1.586,1.661,2.386l1.562,2.416c0.534,0.801,0.999,1.625,1.494,2.439l1.464,2.452l2.754,4.967l-1.894-1.715
			c-0.067-0.027,0.054,0.018,0.099,0.03l0.205,0.062c0.145,0.042,0.299,0.08,0.453,0.115c0.311,0.069,0.628,0.123,0.94,0.158
			c0.625,0.067,1.231,0.069,1.775-0.002c1.103-0.146,1.918-0.549,2.647-1.257l1.804-1.751l2.308,0.953
			c0.37,0.152,0.978,0.371,1.489,0.537c0.538,0.173,1.083,0.335,1.632,0.479c1.098,0.288,2.206,0.514,3.3,0.662
			c2.185,0.296,4.341,0.273,6.151-0.209c1.824-0.479,3.219-1.381,4.26-2.76c1.041-1.378,1.749-3.28,2.109-5.409
			c0.054-0.27,0.074-0.503,0.116-0.756c0.039-0.232,0.068-0.611,0.104-0.91l0.157-1.816c0.1-1.25,0.19-2.496,0.26-3.731
			c0.07-1.235,0.117-2.458,0.126-3.642c0.008-1.162-0.032-2.361-0.172-3.175c-0.065-0.406-0.16-0.609-0.118-0.53
			c0.014,0.018,0.03,0.015-0.176-0.201c-0.192-0.202-0.594-0.619-0.925-1.082c-0.701-0.957-1.073-1.937-1.329-2.758
			c-0.136-0.426-0.221-0.81-0.315-1.207c-0.074-0.379-0.177-0.869-0.212-1.142c-0.213-1.392-0.364-2.608-0.501-4.022
			c-0.032-0.352-0.061-0.713-0.079-1.119c-0.009-0.208-0.016-0.423-0.011-0.702c0.002-0.135,0.008-0.303,0.028-0.519
			c0.012-0.116,0.028-0.252,0.064-0.439c0.018-0.095,0.053-0.243,0.086-0.359c0.028-0.099,0.062-0.198,0.099-0.295l0.063-0.157
			l0.117-0.245l0.134-0.235c0.043-0.074,0.168-0.256,0.264-0.369c0.104-0.128,0.218-0.249,0.336-0.36
			c0.191-0.177,0.423-0.349,0.662-0.483c0.399-0.254,1.228-0.492,1.819-0.451c0.51-0.002,1.162,0.209,1.365,0.319
			c0.149,0.068,0.295,0.148,0.432,0.235c0.104,0.067,0.164,0.11,0.245,0.172l0.221,0.182l0.133,0.126
			c0.188,0.188,0.262,0.285,0.356,0.405c0.284,0.386,0.356,0.554,0.45,0.726c0.16,0.319,0.242,0.53,0.326,0.741
			c0.161,0.419,0.27,0.741,0.397,1.152l-6.312-0.571c0.117-0.227,0.291-0.575,0.434-0.885l0.439-0.975
			c0.286-0.659,0.558-1.33,0.816-2.007c0.518-1.354,0.967-2.736,1.354-4.129c0.395-1.392,0.71-2.798,0.949-4.207
			c0.127-0.704,0.224-1.409,0.3-2.114c0.101-0.705,0.114-1.406,0.18-2.11l2.562,3.325c-0.57-0.148-0.582-0.188-0.803-0.277
			c-0.159-0.074-0.304-0.151-0.435-0.229c-0.256-0.152-0.468-0.308-0.664-0.465c-0.373-0.312-0.683-0.635-0.927-0.945
			c-0.256-0.316-0.454-0.624-0.633-0.929c-0.177-0.304-0.325-0.601-0.451-0.891c-0.259-0.584-0.438-1.14-0.585-1.682
			c-0.144-0.54-0.245-1.063-0.335-1.58l-0.174-1.008l0.472-0.97c0.068-0.142,0.226-0.493,0.337-0.774
			c0.125-0.289,0.235-0.613,0.353-0.923c0.221-0.633,0.445-1.274,0.627-1.939c0.397-1.313,0.703-2.678,0.968-4.05
			c0.15-0.682,0.236-1.382,0.352-2.074c0.123-0.691,0.196-1.393,0.272-2.095c0.082-0.7,0.164-1.401,0.196-2.11
			c0.04-0.707,0.104-1.413,0.127-2.122l0.038-2.132c0.029-0.71-0.023-1.424-0.037-2.136c-0.031-0.713-0.021-1.427-0.086-2.139
			l-0.172-2.139c-0.093-1.429-0.353-2.845-0.505-4.271c-0.092-0.712-0.241-1.417-0.358-2.127l-0.374-2.127l2.005,2.111l-2.267-0.7
			l-2.234-0.735c-1.487-0.503-2.969-1.03-4.45-1.604c-1.482-0.575-2.959-1.184-4.452-1.932c-0.748-0.378-1.499-0.781-2.29-1.311
			c-0.398-0.271-0.806-0.565-1.258-0.999c-0.227-0.223-0.471-0.484-0.724-0.858c-0.239-0.37-0.552-0.924-0.613-1.76l-0.012-0.155
			l0.009-0.129l0.094-1.317l0.014,0.409c-0.037-0.371-0.099-0.835-0.161-1.259l-0.212-1.302c-0.154-0.867-0.335-1.73-0.541-2.583
			c-0.411-1.705-0.927-3.375-1.591-4.928c-0.661-1.544-1.486-2.994-2.5-4.036c-1.021-1.055-2.136-1.584-3.427-1.543l-0.356,0.011
			l-0.244-0.066l-18.271-4.929l-9.137-2.461c-3.046-0.819-6.089-1.65-9.143-2.435l-0.341-0.087l-0.266-0.262
			c-1.074-1.058-2.502-2.083-3.919-2.907c-1.439-0.839-2.97-1.528-4.553-2.064c-1.587-0.523-3.223-0.922-4.891-1.107
			c-1.665-0.198-3.351-0.237-5.031-0.122l-1.236,0.111l-1.297,0.176c-0.837,0.126-1.752,0.253-2.621,0.354
			c-1.759,0.205-3.505,0.36-5.235,0.539c-3.461,0.343-6.873,0.85-10.134,1.811c-1.629,0.482-3.217,1.076-4.747,1.787
			c-1.528,0.719-2.981,1.581-4.375,2.531c-1.394,0.953-2.665,2.074-3.895,3.234c-1.196,1.198-2.35,2.442-3.39,3.79l-0.787,1.002
			l-0.739,1.043c-0.505,0.685-0.963,1.407-1.422,2.127c-0.917,1.439-1.774,2.923-2.543,4.457c-0.404,0.755-0.77,1.532-1.131,2.312
			c-0.37,0.774-0.729,1.553-1.057,2.35c-0.696,1.571-1.302,3.186-1.924,4.789l-3.17-1.159l4.729-15.275l1.604,2.688
			c-1.5-0.193-3.189-0.3-4.799-0.335c-1.628-0.035-3.259,0-4.881,0.099c-3.244,0.206-6.456,0.682-9.552,1.477
			c-3.095,0.788-6.073,1.909-8.793,3.417c-2.719,1.507-5.169,3.399-7.233,5.634c-2.059,2.239-3.738,4.817-4.962,7.64
			c-1.237,2.812-2.107,5.828-2.633,8.939c-0.265,1.557-0.45,3.137-0.56,4.731c-0.121,1.593-0.148,3.201-0.148,4.813
			c0.031,1.615,0.096,3.233,0.198,4.855l0.203,2.436l0.271,2.437l-0.938-1.844c0.615,0.604,1.084,1.114,1.595,1.689
			c0.497,0.563,0.979,1.139,1.444,1.733c0.931,1.189,1.805,2.448,2.58,3.84c0.766,1.396,1.459,2.916,1.831,4.734
			c0.203,0.724,0.229,2.621,0.219,2.076c0.029,0.208,0.226,0.767,0.463,1.274c0.483,1.059,1.13,2.196,1.809,3.31
			c0.687,1.119,1.421,2.232,2.178,3.336c0.752,1.106,1.533,2.201,2.331,3.271c0.398,0.535,0.804,1.062,1.209,1.57l0.602,0.736
			c0.183,0.217,0.415,0.479,0.496,0.558l19.787,19.44l-23.254-14.935l-5.978-3.84l3.697-0.708c-0.403,0.543-0.87,1.232-1.289,1.874
			c-0.429,0.655-0.843,1.325-1.249,2.001c-0.809,1.354-1.573,2.741-2.286,4.151c-1.419,2.822-2.691,5.723-3.675,8.709
			c-0.992,2.98-1.725,6.039-2.093,9.125c-0.098,0.771-0.164,1.543-0.209,2.316c-0.048,0.773-0.063,1.547-0.063,2.318
			c0.012,0.771,0.031,1.543,0.093,2.311c0.029,0.772,0.156,1.53,0.233,2.297l-1.12-1.508l0.542,0.33l0.382,0.28l0.753,0.56
			c0.487,0.379,0.918,0.776,1.378,1.164c0.947,0.781,1.718,1.561,2.529,2.34l1.211,1.17l0.303,0.292l0.347,0.354
			c0.208,0.214,0.415,0.438,0.622,0.668c0.412,0.463,0.819,0.943,1.221,1.575c0.198,0.321,0.404,0.671,0.565,1.194
			c0.078,0.261,0.14,0.57,0.143,0.912c0.004,0.34-0.067,0.688-0.13,0.898c-0.067,0.215-0.079,0.273-0.062,0.153
			c0.017-0.122-0.02-0.338-0.057-0.403c-0.075-0.14-0.011,0.015,0.116,0.145c0.234,0.274,0.686,0.681,0.914,0.83
			c0.679,0.453,1.681,0.848,2.665,1.155c2,0.627,4.151,0.996,6.305,1.21c4.32,0.399,8.741,0.148,13.003-0.863
			c1.06-0.27,2.116-0.563,3.149-0.932c1.034-0.361,2.062-0.755,3.055-1.227c1.002-0.454,1.97-0.984,2.918-1.55
			c0.476-0.28,0.92-0.596,1.384-0.893l1.357-0.994L84.575,180.049z"/>
	</g>
	<g>
		<path fill="#0D0D0D" d="M93.387,76.209c0,0,0.137-0.551,0.508-1.467c0.371-0.915,0.958-2.209,1.922-3.637
			c0.479-0.716,1.04-1.479,1.751-2.208c0.704-0.732,1.519-1.488,2.572-2.077c1.033-0.591,2.336-1.063,3.768-0.997
			c0.708,0.015,1.42,0.175,2.079,0.427c0.314,0.146,0.654,0.27,0.938,0.456l0.729,0.432c0.46,0.269,0.974,0.628,1.343,0.746
			c0.199,0.086,0.396,0.176,0.591,0.274l0.665,0.224c0.887,0.311,1.813,0.443,2.726,0.542c0.914,0.027,1.824,0.051,2.685-0.082
			c0.436-0.041,0.85-0.132,1.256-0.218c0.414-0.061,0.795-0.186,1.174-0.284c0.745-0.224,1.419-0.478,2.013-0.735
			c0.577-0.279,1.08-0.541,1.476-0.798c0.371-0.272,0.702-0.48,0.867-0.672c0.191-0.182,0.293-0.279,0.293-0.279
			s-0.051,0.132-0.146,0.38c-0.09,0.259-0.291,0.599-0.585,1.018c-0.159,0.194-0.331,0.422-0.535,0.655
			c-0.211,0.221-0.451,0.453-0.715,0.693c-0.539,0.462-1.184,0.958-1.958,1.381c-0.77,0.429-1.643,0.861-2.636,1.13
			c-0.979,0.319-2.067,0.503-3.215,0.574c-1.145,0.011-2.361-0.053-3.544-0.403c-0.297-0.084-0.593-0.159-0.894-0.256
			c-0.305-0.121-0.608-0.252-0.911-0.386c-0.663-0.268-1.054-0.551-1.547-0.829l-0.684-0.421c-0.173-0.126-0.359-0.18-0.535-0.275
			c-0.364-0.134-0.721-0.26-1.099-0.279c-0.744-0.082-1.553,0.101-2.35,0.44c-1.612,0.678-3.035,1.915-4.211,2.979
			c-1.166,1.097-2.106,2.102-2.762,2.815C93.761,75.795,93.387,76.209,93.387,76.209z"/>
	</g>
	<g>
		<path fill="#0D0D0D" d="M69.85,90.896c0,0-0.228,0.519-0.694,1.382c-0.478,0.863-1.14,2.079-2.176,3.464
			c-0.141,0.175-0.268,0.351-0.44,0.539c-0.082,0.093-0.159,0.186-0.284,0.295l-0.175,0.157c-0.11,0.078-0.262,0.16-0.403,0.221
			l-0.055,0.022l-0.027,0.011c0.082,0.001-0.827,0.034-0.446,0.02l-0.042-0.005c0.048,0.017-0.231-0.043-0.419-0.164
			c-0.098-0.06-0.188-0.132-0.265-0.209c-0.036-0.036-0.077-0.083-0.101-0.113l-0.024-0.032l-0.093-0.131
			c-0.121-0.181-0.176-0.29-0.247-0.419c-0.128-0.243-0.234-0.467-0.339-0.688c-0.413-0.878-0.819-1.773-1.262-2.544
			c-0.109-0.186-0.229-0.365-0.333-0.493c-0.102-0.147-0.213-0.214-0.181-0.18c0.021,0.023,0.03,0.021,0.076,0.046
			c0.057,0.036,0.123,0.052,0.191,0.057c0.083,0.024,0.178,0.024,0.262,0c0.066-0.002,0.13-0.015,0.187-0.047
			c0.155-0.062,0.082-0.058,0.009,0.089c-0.162,0.246-0.345,0.693-0.509,1.144c-0.168,0.451-0.317,0.944-0.453,1.446
			c-0.148,0.496-0.277,1.013-0.408,1.523c-0.139,0.522-0.276,1.043-0.412,1.559c-0.246,1.014-0.469,2.021-0.665,2.998
			c-0.177,0.979-0.376,1.928-0.488,2.832c-0.117,0.904-0.22,1.763-0.271,2.557c-0.042,0.401-0.036,0.778-0.048,1.143
			c-0.02,0.366-0.03,0.715-0.008,1.037c0.011,0.654,0.062,1.222,0.119,1.696c0.039,0.48,0.147,0.838,0.187,1.101
			c0.046,0.262,0.071,0.401,0.071,0.401s-0.082-0.114-0.235-0.328c-0.131-0.224-0.414-0.528-0.613-0.984
			c-0.226-0.446-0.504-1.002-0.702-1.675c-0.233-0.666-0.429-1.441-0.558-2.295c-0.301-1.707-0.352-3.729-0.19-5.861
			c0.095-1.065,0.23-2.163,0.449-3.267l0.17-0.832l0.096-0.424l0.093-0.365c0.133-0.554,0.258-1.108,0.419-1.669
			c0.161-0.558,0.339-1.116,0.563-1.689c0.222-0.574,0.473-1.139,0.929-1.786c0.222-0.305,0.534-0.703,1.155-1.023
			c0.183-0.078,0.371-0.144,0.565-0.185c0.217-0.028,0.445-0.032,0.661-0.012c0.198,0.034,0.392,0.095,0.576,0.167
			c0.169,0.073,0.283,0.155,0.421,0.244c0.46,0.345,0.701,0.685,0.886,0.975c0.197,0.302,0.324,0.582,0.449,0.855
			c0.48,1.078,0.713,2.079,0.971,2.97c0.062,0.206,0.123,0.409,0.183,0.609c0.024,0.079,0.063,0.179,0.063,0.19l-0.004,0.012
			l-0.002,0.004c-0.015-0.02-0.045-0.057-0.071-0.083c-0.057-0.057-0.128-0.109-0.206-0.148c-0.146-0.084-0.395-0.089-0.286-0.071
			l0.04,0.015c0.388-0.014-0.515,0.021-0.427,0.018l-0.008,0.002l-0.018,0.003c-0.043,0.01-0.094,0.045-0.108,0.069l0.085-0.046
			c0.052-0.02,0.131-0.077,0.206-0.132c0.147-0.097,0.305-0.233,0.455-0.351c1.213-1.034,2.251-1.989,2.986-2.621
			C69.407,91.25,69.85,90.896,69.85,90.896z"/>
	</g>
	<g>
		<path fill="#0D0D0D" d="M178.495,72.066c0,0-0.305,0.206-0.843,0.513c-0.538,0.312-1.311,0.725-2.24,1.181
			c-1.859,0.912-4.368,1.917-6.854,2.853c-2.488,0.934-4.958,1.8-6.676,2.635c-0.421,0.216-0.806,0.42-1.125,0.634
			c-0.308,0.221-0.568,0.43-0.767,0.635c-0.167,0.213-0.333,0.397-0.388,0.547c-0.081,0.149-0.125,0.229-0.125,0.229
			s-0.019-0.089-0.052-0.256c-0.042-0.177-0.051-0.435,0.002-0.78c0.068-0.329,0.189-0.74,0.426-1.153
			c0.229-0.416,0.533-0.852,0.914-1.276c0.383-0.413,0.826-0.833,1.322-1.223c0.496-0.389,1.037-0.77,1.616-1.113
			c0.577-0.353,1.187-0.68,1.819-0.974c0.629-0.307,1.284-0.565,1.939-0.821c2.635-0.987,5.381-1.517,7.48-1.671
			c1.052-0.076,1.938-0.077,2.563-0.044C178.132,72.008,178.495,72.066,178.495,72.066z"/>
	</g>
	<g>
		<path fill="#0D0D0D" d="M154.019,87.884c0,0-0.605-0.257-1.766-0.662c-1.158-0.41-2.881-0.941-5.087-1.542
			c-4.404-1.185-10.881-2.436-18.646-2.329c-3.873,0.069-8.057,0.535-12.33,1.602c-4.266,1.095-8.581,2.878-12.661,5.355
			c-4.086,2.476-7.855,5.73-11.2,9.477c-3.347,3.753-6.22,8.035-8.675,12.553c-1.135,2.017-1.6,4.397-1.187,6.555
			c0.105,0.539,0.251,1.072,0.474,1.577c0.092,0.26,0.209,0.51,0.354,0.75l0.197,0.366l0.175,0.328l0.105,0.22
			c0.14,0.308,0.284,0.552,0.42,0.912c0.131,0.42,0.25,0.849,0.354,1.277c0.114,0.796,0.201,1.555,0.137,2.29
			c-0.055,1.486-0.385,2.858-0.792,4.154c-0.404,1.305-0.92,2.522-1.442,3.709c-0.527,1.148-1.051,2.289-1.57,3.423
			c-0.248,0.545-0.455,1.086-0.569,1.496c-0.025,0.098,0,0.086-0.026,0.132c-0.015-0.012-0.012,0.119-0.007,0.182l0.008,0.252
			l0.007,0.967c0.005,1.204,0.038,2.364,0.202,3.455c0.154,1.084,0.451,2.119,0.911,2.797c0.475,0.64,0.989,0.883,1.88,0.771
			c0.86-0.102,1.829-0.541,2.724-1.064c1.819-1.045,3.453-2.48,4.996-3.854c1.565-1.431,3.077-2.813,4.528-4.14
			c2.878-2.672,5.303-5.17,6.802-7.967c0.809-1.357,1.507-2.697,2.203-3.892c0.698-1.199,1.339-2.301,1.918-3.295
			c1.186-1.973,2.197-3.473,2.851-4.516c0.663-1.036,1.018-1.589,1.018-1.589s-1.214,2.326-3.337,6.397
			c-0.51,1.026-1.073,2.163-1.687,3.401c-0.616,1.241-1.213,2.602-1.945,4.045c-0.703,1.443-1.586,3.004-2.742,4.433
			c-1.127,1.472-2.469,2.816-3.833,4.266c-1.389,1.397-2.835,2.854-4.331,4.36c-1.554,1.514-3.19,3.052-5.239,4.342
			c-1.025,0.633-2.145,1.25-3.581,1.493c-0.701,0.131-1.54,0.107-2.337-0.188c-0.802-0.288-1.487-0.859-1.954-1.481
			c-0.918-1.265-1.254-2.613-1.478-3.901c-0.222-1.296-0.279-2.581-0.313-3.834l-0.023-0.881l-0.011-0.212
			c-0.008-0.092-0.009-0.115-0.002-0.281c0.011-0.26,0.03-0.587,0.079-0.789c0.192-0.792,0.442-1.412,0.692-2.012
			c0.498-1.147,0.999-2.305,1.504-3.468c0.474-1.139,0.928-2.282,1.255-3.432c0.354-1.143,0.61-2.303,0.636-3.4
			c0.055-0.554-0.036-1.091-0.093-1.571c-0.061-0.199-0.106-0.397-0.142-0.604c-0.085-0.248-0.27-0.571-0.399-0.854l-0.107-0.219
			c0.024,0.042-0.092-0.172,0.048,0.081l-0.034-0.062l-0.068-0.122l-0.271-0.49c-0.19-0.321-0.353-0.658-0.485-1.013
			c-0.304-0.687-0.515-1.421-0.664-2.159c-0.585-2.986,0.043-6.065,1.451-8.619c2.586-4.684,5.623-9.15,9.182-13.084
			c3.541-3.947,7.665-7.272,12.038-9.82c4.37-2.565,9.02-4.264,13.524-5.258c4.516-0.987,8.887-1.253,12.877-1.128
			c3.996,0.11,7.621,0.654,10.774,1.324c3.156,0.669,5.85,1.467,8.034,2.209c2.188,0.732,3.849,1.463,4.974,1.964
			C153.439,87.574,154.019,87.884,154.019,87.884z"/>
	</g>
	<g>
		<path fill="#0D0D0D" d="M145.921,98.993c0,0-0.263,0.398-0.768,1.044c-0.506,0.646-1.245,1.551-2.195,2.563
			c-1.871,2.06-4.586,4.554-7.52,6.789c-2.937,2.227-6.097,4.203-8.732,5.291c-1.304,0.56-2.479,0.906-3.373,0.949
			c-0.435,0.035-0.854-0.072-1.025-0.286c-0.156-0.217-0.093-0.352-0.111-0.345c0.006-0.011,0.054,0.134,0.223,0.205
			c0.169,0.069,0.436-0.009,0.77-0.177c0.666-0.346,1.549-1.046,2.603-1.885c2.082-1.726,4.87-4.035,7.764-6.233
			c2.896-2.193,5.894-4.279,8.277-5.689c1.177-0.724,2.2-1.277,2.927-1.655C145.484,99.186,145.921,98.993,145.921,98.993z"/>
	</g>
	<g>
		<path fill="#0D0D0D" d="M177.366,97.298c0,0-5.532,3.706-13.832,9.265c-2.058,1.405-4.287,2.927-6.646,4.535
			c-2.335,1.636-4.797,3.36-7.345,5.145c-2.54,1.791-5.109,3.713-7.723,5.652c-2.606,1.95-5.211,3.982-7.738,6.094
			c-2.546,2.087-5.025,4.248-7.305,6.509c-2.26,2.268-4.426,4.574-6.017,7.057c-0.796,1.232-1.417,2.514-1.79,3.764
			c-0.168,0.632-0.238,1.193-0.301,1.979c-0.047,0.708-0.167,1.495-0.288,2.263c-0.286,1.491-0.712,2.941-1.399,4.253
			c-0.684,1.307-1.627,2.464-2.757,3.295c-1.139,0.822-2.418,1.302-3.637,1.492c-1.225,0.192-2.385,0.135-3.434-0.036
			c-2.104-0.351-3.783-1.132-5.054-1.897c-1.281-0.762-2.143-1.563-2.682-2.136c-0.264-0.294-0.46-0.521-0.576-0.688
			c-0.122-0.161-0.186-0.244-0.186-0.244s0.074,0.073,0.218,0.216c0.138,0.146,0.363,0.343,0.66,0.592
			c0.599,0.492,1.555,1.117,2.854,1.711c1.295,0.59,2.974,1.118,4.902,1.262c1.91,0.134,4.139-0.253,5.829-1.681
			c1.685-1.439,2.615-3.848,2.962-6.497c0.063-0.652,0.136-1.302,0.146-2.062c0.013-0.68,0.064-1.603,0.248-2.434
			c0.377-1.663,1.113-3.173,1.948-4.595c1.714-2.822,3.865-5.369,6.222-7.739c2.35-2.38,4.867-4.628,7.45-6.784
			c2.605-2.129,5.273-4.163,7.936-6.11c2.656-1.955,5.354-3.755,7.963-5.492c2.606-1.741,5.183-3.335,7.631-4.832
			c2.443-1.505,4.79-2.866,6.967-4.104C171.292,100.085,177.366,97.298,177.366,97.298z"/>
	</g>
	<g>
		<path fill="#0D0D0D" d="M69.85,173.557c0,0-0.193,0.225-0.578,0.561c-0.382,0.342-0.954,0.791-1.689,1.258
			c-0.37,0.227-0.771,0.48-1.22,0.698c-0.448,0.219-0.914,0.474-1.428,0.662c-0.505,0.213-1.04,0.398-1.598,0.554
			c-0.548,0.184-1.135,0.279-1.711,0.403c-0.582,0.103-1.181,0.148-1.761,0.201c-0.592,0.001-1.171,0.012-1.731-0.043
			c-0.563-0.081-1.102-0.138-1.603-0.282s-0.971-0.273-1.382-0.459c-0.411-0.193-0.773-0.393-1.087-0.567
			c-0.315-0.171-0.548-0.411-0.75-0.564c-0.397-0.332-0.598-0.537-0.598-0.537s0.304,0.044,0.788,0.147
			c0.246,0.043,0.523,0.133,0.858,0.175c0.339,0.033,0.713,0.07,1.104,0.135c0.398,0.04,0.842,0.016,1.288,0.058
			c0.449,0.027,0.937-0.048,1.423-0.039c0.491-0.042,0.998-0.086,1.515-0.131c0.515-0.098,1.04-0.138,1.563-0.241
			c0.523-0.104,1.05-0.179,1.566-0.304c0.518-0.107,1.028-0.218,1.523-0.342c0.998-0.216,1.924-0.478,2.741-0.667
			c0.805-0.217,1.5-0.374,1.986-0.496C69.566,173.621,69.85,173.557,69.85,173.557z"/>
	</g>
	<g>
		<path fill="#0D0D0D" d="M122.95,179.396c0,0,0.329-0.034,0.861-0.109c0.261-0.045,0.577-0.099,0.94-0.16
			c0.355-0.06,0.749-0.16,1.167-0.255c0.417-0.101,0.861-0.22,1.316-0.357c0.457-0.145,0.929-0.288,1.403-0.48
			c0.483-0.152,0.949-0.404,1.44-0.594c0.475-0.234,0.958-0.47,1.433-0.722c0.46-0.288,0.949-0.521,1.396-0.823
			c0.437-0.318,0.919-0.56,1.337-0.879c0.42-0.314,0.845-0.604,1.259-0.879c0.383-0.31,0.761-0.596,1.121-0.855
			c0.369-0.254,0.71-0.494,0.992-0.729c0.283-0.233,0.56-0.42,0.783-0.58c0.449-0.317,0.742-0.485,0.742-0.485
			s-0.064,0.316-0.239,0.847c-0.089,0.264-0.192,0.592-0.344,0.949c-0.073,0.182-0.152,0.375-0.234,0.578
			c-0.105,0.19-0.216,0.39-0.331,0.599c-0.238,0.414-0.512,0.858-0.815,1.321c-0.345,0.43-0.722,0.878-1.13,1.33
			c-0.404,0.454-0.911,0.845-1.404,1.26c-0.492,0.42-1.09,0.727-1.645,1.084c-0.593,0.297-1.2,0.58-1.818,0.796
			c-0.632,0.188-1.246,0.388-1.872,0.455c-0.614,0.114-1.222,0.131-1.79,0.129c-0.569-0.014-1.105-0.074-1.589-0.165
			c-0.485-0.094-0.919-0.221-1.293-0.362c-0.376-0.115-0.688-0.293-0.94-0.415C123.193,179.619,122.95,179.396,122.95,179.396z"/>
	</g>
	<g>
		<path fill="#0D0D0D" d="M178.495,159.623c0,0,0.271-0.035,0.712-0.063c0.441-0.026,1.06-0.049,1.773-0.047
			c0.713,0.004,1.521,0.036,2.365,0.085c0.843,0.046,1.724,0.128,2.585,0.174c0.435,0.059,0.856,0.042,1.278,0.089
			c0.422,0.029,0.822,0.024,1.227,0.063c0.392,0.001,0.772,0.002,1.148,0.022c0.355-0.023,0.707-0.03,1.047-0.028
			c0.318-0.037,0.628-0.061,0.916-0.079c0.294-0.012,0.521-0.084,0.739-0.112c0.423-0.075,0.709-0.104,0.709-0.104
			s-0.105,0.234-0.367,0.62c-0.138,0.18-0.283,0.463-0.533,0.654c-0.235,0.218-0.512,0.473-0.843,0.717
			c-0.339,0.202-0.723,0.412-1.145,0.619c-0.423,0.153-0.884,0.316-1.367,0.437c-0.479,0.083-0.988,0.197-1.495,0.214
			c-0.506,0.024-1.03,0.043-1.535-0.004c-0.509-0.043-1.015-0.097-1.498-0.209c-0.491-0.084-0.957-0.226-1.403-0.369
			c-0.893-0.292-1.685-0.673-2.33-1.062c-0.645-0.398-1.147-0.788-1.48-1.099C178.661,159.838,178.495,159.623,178.495,159.623z"/>
	</g>
	<g>
		<path fill="#0D0D0D" d="M173.162,110.76c0,0-0.182,0.662-0.555,1.747c-0.181,0.545-0.41,1.191-0.668,1.924
			c-0.255,0.731-0.563,1.541-0.851,2.42c-0.321,0.872-0.574,1.821-0.905,2.792c-0.303,0.975-0.685,1.979-0.867,3.101
			c-0.034,0.546-0.083,1.134,0.068,1.69c0.102,0.634,0.366,1.178,0.514,1.861c0.346,1.33,0.53,2.7,0.457,4.147
			c-0.082,1.434-0.459,2.894-1.144,4.124c-0.661,1.237-1.487,2.358-2.276,3.313c-0.354,0.461-0.562,0.793-0.844,1.239
			c-0.256,0.432-0.499,0.859-0.701,1.285c-0.408,0.848-0.7,1.668-0.795,2.422c-0.141,0.761-0.023,1.433,0.152,2.056
			c0.054,0.155,0.105,0.307,0.155,0.452c0.064,0.143,0.144,0.274,0.212,0.409c0.125,0.278,0.291,0.511,0.453,0.722
			c0.296,0.449,0.614,0.756,0.819,0.984c0.208,0.236,0.318,0.362,0.318,0.362l-0.146,0.275c0,0-0.166-0.045-0.478-0.13
			c-0.311-0.096-0.786-0.213-1.329-0.542c-0.141-0.078-0.288-0.16-0.443-0.246c-0.145-0.103-0.286-0.228-0.44-0.353
			c-0.151-0.128-0.318-0.259-0.478-0.409c-0.14-0.173-0.284-0.352-0.433-0.536c-0.577-0.755-1.054-1.842-1.143-3.045
			c-0.088-1.199,0.1-2.478,0.555-3.689c0.227-0.607,0.519-1.198,0.867-1.772c0.343-0.548,0.83-1.198,1.288-1.648
			c0.852-0.85,1.646-1.672,2.348-2.607c0.679-0.935,1.362-1.896,1.812-3.011c0.464-1.098,0.591-2.394,0.307-3.545
			c-0.098-0.576-0.422-1.18-0.647-1.759c-0.12-0.316-0.304-0.626-0.39-0.952c-0.099-0.33-0.196-0.658-0.293-0.983
			c-0.289-1.319-0.363-2.672-0.137-3.869c0.234-1.192,0.663-2.25,1.122-3.168c0.92-1.846,2.011-3.16,2.839-4.011
			c0.829-0.85,1.424-1.233,1.424-1.233L173.162,110.76z"/>
	</g>
	<g>
		<path fill="#0D0D0D" d="M188.476,100.122c0,0,0.438,0.041,1.165,0.275c0.37,0.106,0.799,0.275,1.292,0.488
			c0.471,0.241,1.042,0.479,1.581,0.865c0.278,0.186,0.568,0.38,0.868,0.58c0.283,0.226,0.563,0.475,0.86,0.726
			c0.309,0.241,0.567,0.547,0.845,0.853c0.27,0.312,0.575,0.609,0.812,0.973c0.487,0.716,0.995,1.469,1.319,2.341
			c0.429,0.829,0.579,1.769,0.804,2.685c0.106,0.46,0.076,0.934,0.117,1.397c0.013,0.464,0.063,0.934,0.009,1.385
			s-0.118,0.897-0.189,1.335c-0.082,0.435-0.101,0.88-0.268,1.273c-0.269,0.805-0.54,1.574-0.825,2.281
			c-0.364,0.671-0.733,1.287-1.075,1.846c-0.175,0.277-0.319,0.554-0.496,0.793c-0.193,0.228-0.377,0.443-0.55,0.646
			c-0.337,0.407-0.657,0.742-0.913,1.019c-0.516,0.55-0.836,0.836-0.836,0.836s0.094-0.438,0.303-1.152
			c0.106-0.356,0.227-0.79,0.395-1.264c0.079-0.237,0.164-0.49,0.254-0.757c0.067-0.271,0.138-0.557,0.212-0.854
			c0.143-0.594,0.297-1.226,0.488-1.875c0.104-0.67,0.2-1.366,0.336-2.071c0.117-0.707,0.062-1.436,0.145-2.164
			c0.027-0.364-0.065-0.723-0.072-1.086c-0.042-0.359-0.014-0.733-0.107-1.084c-0.172-0.701-0.253-1.429-0.541-2.09
			c-0.138-0.33-0.198-0.69-0.372-1.003c-0.159-0.317-0.316-0.634-0.459-0.954c-0.136-0.325-0.363-0.594-0.524-0.897
			c-0.173-0.298-0.344-0.59-0.55-0.851c-0.192-0.271-0.388-0.53-0.565-0.797c-0.202-0.249-0.397-0.488-0.585-0.719
			c-0.375-0.47-0.771-0.859-1.099-1.243c-0.359-0.339-0.651-0.686-0.923-0.928C188.805,100.412,188.476,100.122,188.476,100.122z"/>
	</g>
</g>
</svg>
