<?xml version="1.0" encoding="utf-8"?>
<!-- Generator: Adobe Illustrator 16.0.0, SVG Export Plug-In . SVG Version: 6.00 Build 0)  -->
<!DOCTYPE svg PUBLIC "-//W3C//DTD SVG 1.1//EN" "http://www.w3.org/Graphics/SVG/1.1/DTD/svg11.dtd">
<svg version="1.1" id="Calque_1" xmlns="http://www.w3.org/2000/svg" xmlns:xlink="http://www.w3.org/1999/xlink" x="0px" y="0px"
	 width="250px" height="250px" viewBox="0 0 250 250" enable-background="new 0 0 250 250" xml:space="preserve">
<g>
	<path fill="#FFFFFF" stroke="#030303" stroke-width="3" stroke-linejoin="round" stroke-miterlimit="10" d="M45.136,87.952
		c0.297-0.474,2.781-4.825,4.494-4.825c-0.023,0.087-0.04,0.183-0.063,0.271c0.187-0.455,0.414-0.715,0.69-0.715
		c0-8.749,3.863-29.038-4.052-36.949l-3.976,7.874C49.761,59.393,45.136,80.419,45.136,87.952z"/>
	<g>
		<path fill="#FFFFFF" stroke="#030303" stroke-width="3" stroke-linejoin="round" stroke-miterlimit="10" d="M51.672,81.274h58.302
			c0-8.749-3.697-29.065,4.185-36.949H47.619C55.535,52.238,51.672,72.525,51.672,81.274z"/>
	</g>
	<g>
		<path d="M87.524,234.56c-1.32,1.043-3.041,1.322-4.689,1.354c-0.437,0.008-0.859,0.737-1.284,0.741
			c2.527-0.026,5.614-0.684,7.259-2.836C88.534,234.177,87.804,234.194,87.524,234.56c-0.177,0.232-0.365,0.439-0.576,0.64
			c-0.255,0.192-0.223,0.196,0.098,0.015c-0.243,0.115-0.501,0.197-0.757,0.28c-1.104,0.356-2.304,0.407-3.454,0.419
			c-0.428,0.247-0.856,0.494-1.284,0.741c2.693-0.049,5.166-1.184,7.259-2.836C88.427,234.12,87.909,234.256,87.524,234.56z"/>
	</g>
	<g>
		<path fill="#FFFFFF" stroke="#030303" stroke-width="3" stroke-linejoin="round" stroke-miterlimit="10" d="M72.391,152.532
			c0,16.498-4.771,54.695-4.771,62.412c0,13.569,5.524,21.34,14.573,21.34c-9.174,0-11.836-11.177-11.836-18.892
			c0-7.717,4.521-53.485,4.521-69.981c0-16.498-3.722-29.536-23.678-36.985v-2.13l-5.123,5.121v2.13
			C66.033,122.998,72.391,136.035,72.391,152.532z"/>
	</g>
	<g>
		<path fill="#FFFFFF" stroke="#030303" stroke-width="3" stroke-linejoin="round" stroke-miterlimit="10" d="M74.878,147.411
			c0,16.496-4.521,62.265-4.521,69.981c0,7.715,2.662,18.892,11.836,18.892c9.173,0,11.838-11.177,11.838-18.892
			c0-7.717-4.526-53.485-4.526-69.981c0-16.498,3.726-29.536,23.682-36.985v-2.13H51.2v2.13
			C71.156,117.875,74.878,130.913,74.878,147.411z"/>
	</g>
	<g>
		<circle fill="#FFFFFF" stroke="#030303" stroke-width="3" stroke-miterlimit="10" cx="82.192" cy="215.557" r="6.96"/>
		<g>
			<path fill="#030303" d="M88.51,215.928c-0.118,2.493-1.215,4.479-3.267,5.899c0.363-0.213,0.729-0.425,1.094-0.638
				c-3.348,1.894-7.264,0.777-9.402-2.312c-2.233-3.226-0.799-7.512,2.207-9.592c-0.364,0.213-0.729,0.426-1.094,0.638
				C82.792,207.242,88.26,210.675,88.51,215.928c-0.01-0.217,1.297-0.506,1.285-0.741c-0.236-4.973-5.427-8.689-10.126-6.2
				c-2.826,1.497-4.917,3.506-5.079,6.941c-0.243,5.109,5.755,8.516,10.125,6.2c2.826-1.497,4.916-3.508,5.08-6.941
				C89.782,215.443,88.523,215.651,88.51,215.928z"/>
		</g>
	</g>
	<g>
		
			<linearGradient id="SVGID_1_" gradientUnits="userSpaceOnUse" x1="160.4668" y1="-362.0029" x2="166.7002" y2="-362.0029" gradientTransform="matrix(-1 0 0 -1 211.668 -264.4355)">
			<stop  offset="0" style="stop-color:#FFFFFF"/>
			<stop  offset="1" style="stop-color:#FFFFFF"/>
		</linearGradient>
		<path fill="url(#SVGID_1_)" stroke="#030303" stroke-width="3" stroke-linejoin="round" stroke-miterlimit="10" d="M51.2,108.296
			c0,0-2.191-18.574-0.156-26.576c-1.713,0-4.197,4.35-4.494,4.823c-3.262,5.19-0.473,26.874-0.473,26.874
			C47.416,111.279,48.408,110.433,51.2,108.296z"/>
	</g>
	<g>
		
			<linearGradient id="SVGID_2_" gradientUnits="userSpaceOnUse" x1="98.3154" y1="-359.2197" x2="161.4053" y2="-359.2197" gradientTransform="matrix(-1 0 0 -1 211.668 -264.4355)">
			<stop  offset="0" style="stop-color:#FFFFFF"/>
			<stop  offset="0.8587" style="stop-color:#FFFFFF"/>
			<stop  offset="1" style="stop-color:#FFFFFF"/>
		</linearGradient>
		<path fill="url(#SVGID_2_)" stroke="#030303" stroke-width="3" stroke-miterlimit="10" d="M51.2,108.296h61.985
			c0,0,1.064-27.021-2.197-27.021c-3.265,0-28.796,0-28.796,0s-27.257,0-30.521,0C48.802,81.274,51.2,108.296,51.2,108.296z"/>
	</g>
	<g>
		<path fill="#FFFFFF" stroke="#030303" stroke-width="3" stroke-linejoin="bevel" stroke-miterlimit="10" d="M79.342,211.845
			c3.843,0,6.96,3.115,6.96,6.959c0,1.187-0.537,2.045-1.059,3.023c2.191-1.172,3.909-3.217,3.909-5.874
			c0-3.845-3.117-6.959-6.96-6.959c-2.658,0-4.939,1.506-6.112,3.697C77.057,212.167,78.158,211.845,79.342,211.845z"/>
	</g>
	<g>
		<path stroke="#030303" stroke-width="3" stroke-linejoin="round" stroke-miterlimit="10" d="M112.984,101.194
			c-10.772,0-20.55,0-31.322,0c-7.218,0-14.438,0-21.657,0c-2.245,0-4.49,0-6.735,0c-0.732,0-1.673-0.194-2.328,0.178
			c-2.584,1.472-3.786,3.672-5.673,5.929c0.296-0.353,0.394,0.594,0.694,0.235c1.767-2.114,3.533-4.229,5.3-6.342
			c-0.428,0.247-0.856,0.494-1.284,0.741c20.905,0,41.813,0,62.718,0c0.434,0,0.223-0.741,0.646-0.741H112.984z"/>
	</g>
	<g>
		<path fill="#030303" d="M83.049,105.135c-0.018,0.334-0.105,0.606-0.289,0.886c-0.269,0.408-0.673,0.274,0.55-0.205
			c-0.202,0.08-0.425,0.079-0.637,0.067c-0.781-0.041-1.296-0.767-1.335-1.488c-0.017-0.321,0.118-0.624,0.289-0.885
			c0.269-0.408,0.673-0.272-0.55,0.206c0.202-0.079,0.425-0.078,0.637-0.066C82.494,103.69,83.009,104.413,83.049,105.135
			c-0.012-0.213,1.297-0.508,1.284-0.74c-0.063-1.186-1.237-1.818-2.277-1.28c-0.871,0.45-1.942,0.911-2.003,2.021
			c-0.065,1.221,1.323,1.777,2.277,1.283c0.873-0.452,1.943-0.912,2.003-2.023c-0.002,0.063-0.587,0.33-0.646,0.363
			C83.621,104.797,83.054,105.055,83.049,105.135z"/>
	</g>
	<g>
		<path fill="#030303" d="M63.553,105.135c-0.018,0.334-0.105,0.606-0.289,0.886c-0.267,0.408-0.674,0.277,0.553-0.205
			c-0.202,0.08-0.425,0.079-0.637,0.067c-0.782-0.041-1.297-0.766-1.336-1.488c-0.017-0.32,0.118-0.624,0.289-0.885
			c0.268-0.408,0.672-0.271-0.55,0.206c0.202-0.079,0.426-0.078,0.638-0.066C63.001,103.69,63.515,104.414,63.553,105.135
			c-0.003-0.047,0.598-0.335,0.646-0.363c0.056-0.032,0.642-0.313,0.639-0.377c-0.064-1.187-1.235-1.818-2.276-1.28
			c-0.872,0.449-1.943,0.911-2.002,2.021c-0.066,1.22,1.323,1.779,2.276,1.283c0.873-0.453,1.942-0.91,2.002-2.023
			c-0.004,0.063-0.587,0.33-0.646,0.363C64.126,104.797,63.557,105.055,63.553,105.135z"/>
	</g>
	<g>
		<path fill="#030303" d="M105.352,105.135c-0.018,0.334-0.104,0.606-0.288,0.886c-0.269,0.409-0.673,0.273,0.549-0.205
			c-0.202,0.08-0.425,0.079-0.638,0.067c-0.779-0.042-1.293-0.768-1.332-1.488c-0.017-0.32,0.119-0.624,0.289-0.885
			c0.269-0.408,0.675-0.274-0.551,0.206c0.202-0.079,0.423-0.078,0.636-0.066C104.797,103.69,105.313,104.412,105.352,105.135
			c-0.003-0.047,0.598-0.335,0.646-0.363c0.055-0.032,0.643-0.313,0.639-0.377c-0.064-1.185-1.237-1.819-2.277-1.28
			c-0.87,0.451-1.94,0.91-2.001,2.021c-0.066,1.221,1.321,1.777,2.276,1.283c0.872-0.452,1.942-0.912,2.002-2.023
			c-0.003,0.063-0.587,0.33-0.646,0.363C105.925,104.797,105.356,105.055,105.352,105.135z"/>
	</g>
	<g>
		<path stroke="#030303" stroke-width="3" stroke-linejoin="round" stroke-miterlimit="10" d="M112.808,86.259
			c-10.772,0-20.373,0-31.146,0c-7.218,0-14.438,0-21.657,0c-2.245,0-4.49,0-6.735,0c-0.732,0-1.673-0.194-2.328,0.178
			c-2.584,1.473-4.377,4.647-6.264,6.904c0.295-0.353,0.984-0.383,1.285-0.741c1.767-2.114,3.533-4.228,5.3-6.341
			c-0.428,0.248-0.856,0.494-1.284,0.741c20.905,0,41.813,0,62.718,0c0.434,0-0.135-0.792,0.288-0.792L112.808,86.259z"/>
	</g>
	<g>
		<g>
			<path fill="#FFFFFF" stroke="#030303" stroke-width="3" stroke-linejoin="round" stroke-miterlimit="10" d="M126.976,195.241
				c4.079-1.74,5.663-22.133,11.491-22.607c5.827-0.476,0.588,9.394,3.648,8.089c3.061-1.304-0.236-16.577,6.925-17.218
				c7.162-0.643-14.139,43.707-6.144,40.299c7.992-3.407,9.783-38.84,16.585-40.329c6.8-1.491-3.848,11.484,3.099,10.335
				c6.947-1.153,1.768-16.83,7.644-18.132c5.877-1.299-9.422,26.768,0.025,23.947s4.309-29.812,13.048-30.521
				c8.74-0.713,1.126,19.613,5.717,17.655c3.645-1.554,13.042-36.45,14.039-60.707l0.006,0.006
				c1.836,22.661,3.241,26.646,0.016,45.431c-3.225,18.788,3.165,12.695,4.753-2.026c1.59-14.715,4.064-56.777-18.925-98.646
				c-10.692-23.509-20.263-39.726-26.154-37.215c-7.015,2.99,2.764,10.661-3.747,13.436c-6.511,2.775-5.922-6.947-10.928-4.813
				c-5.011,2.135,6.528,14.722,0.017,17.497c-6.514,2.776-7.592-21.37-13.602-18.809c-6.008,2.562,8.839,15.175-0.179,19.019
				c-9.018,3.843-5.548-12.191-10.557-10.056c-4.66,1.987-3.553,9.506,1.607,22.237l-0.031,0.013
				c0.406,0.953,0.818,1.912,1.23,2.881l0.028,0.064c10.34,24.146,22.929,53.576,12.707,94.214
				c-3.229,10.945-9.338,24.187-14.013,35.8C120.601,196.727,122.896,196.979,126.976,195.241z"/>
		</g>
		<g>
			<path fill="#FFFFFF" stroke="#030303" stroke-width="3" stroke-linejoin="round" stroke-miterlimit="10" d="M181.559,186.824
				c0.959,2.252,3.566,3.301,5.817,2.342c2.126-0.906,3.155-3.276,2.463-5.434c0.965,0.903,2.408,1.206,3.698,0.656
				c1.749-0.746,2.566-2.771,1.82-4.521c-0.607-1.426-2.06-2.212-3.524-2.062c-0.074-0.423-0.185-0.845-0.36-1.257
				c-0.691-1.623-2.053-2.737-3.618-3.217c0.051-0.427,0.035-0.863-0.145-1.284c-0.55-1.289-2.042-1.888-3.328-1.34
				c-1.279,0.545-1.872,2.019-1.343,3.299c-2.287,1.494-3.249,4.45-2.141,7.049c0.257,0.604,0.623,1.125,1.043,1.585
				C181.15,183.843,180.953,185.403,181.559,186.824z"/>
		</g>
		<g>
			<circle fill="#FFFFFF" stroke="#030303" stroke-width="3" stroke-miterlimit="10" cx="176.239" cy="183.586" r="3.042"/>
			<g>
				<path stroke="#030303" stroke-width="3" d="M178.611,182.963c0.231,0.637,0.284,1.214,0.162,1.882
					c-0.025,0.141-0.419,0.773-0.091,0.45c-0.314,0.31-0.729,0.485-1.135,0.634c-1.491,0.542-3.031-0.399-3.679-1.718
					c-0.288-0.586-0.278-1.262-0.166-1.885c0.024-0.141,0.42-0.772,0.092-0.451c0.315-0.31,0.729-0.484,1.135-0.633
					C176.424,180.698,177.962,181.644,178.611,182.963c-0.092-0.184,0.952-0.937,0.854-1.138c-1.051-2.141-3.746-2.437-5.257-0.604
					c-1.015,1.229-1.793,2.483-1.195,4.128c0.84,2.304,3.873,2.279,5.258,0.601c1.012-1.229,1.793-2.481,1.194-4.124
					C179.551,182.06,178.519,182.711,178.611,182.963z"/>
			</g>
		</g>
		<g>
			<circle fill="#FFFFFF" stroke="#030303" stroke-width="3" stroke-miterlimit="10" cx="195.635" cy="168.809" r="4.477"/>
			<g>
				<path stroke="#030303" stroke-width="3" d="M199.325,167.623c0.786,2.158,0.265,4.092-1.967,4.904
					c-2.195,0.799-4.461-0.591-5.415-2.531c-1.018-2.071-0.09-4.152,1.966-4.901C196.104,164.296,198.371,165.682,199.325,167.623
					c-0.091-0.184,0.953-0.937,0.855-1.138c-1.542-3.139-5.508-3.588-7.729-0.896c-1.354,1.643-2.144,3.399-1.363,5.544
					c1.232,3.382,5.692,3.368,7.729,0.896c1.354-1.642,2.145-3.399,1.363-5.545C200.266,166.72,199.233,167.371,199.325,167.623z"/>
			</g>
		</g>
	</g>
	<g>
		<path fill="#FFFFFF" stroke="#030303" stroke-width="3" stroke-linejoin="round" stroke-miterlimit="10" d="M44.948,67.48
			c0-3.396,2.807-4.71,6.566-4.71c3.758,0,5.134-0.72,5.134-2.45c0-7.465,12.843-8.024,17.082-5.237
			c4.243,2.787,7.487,10.141,11.582,10.141c14.218,0,22.332,0.891,24.975,9.92v4.566c0,0,1.808,1.009,2.132,4.957
			c0.52,6.317,0.966,19.783,0.966,24.463c0,4.681,0,26.636,0,30.091c0,3.454-6.113,14.324,1.72,16.023
			c5.906,1.283,2.079-10.108,2.083-15.901c0.004-6.021-0.989-49.18-0.989-54.416c0-5.238-5.735-15.802-5.735-25.057
			s9.013-13.729,6.226-16.438c-2.784-2.707-20.872,0-35.521,0c-14.649,0-32.226-1.714-34.789-1.714s-5.92,6.487-5.023,9.591
			C43.678,59.36,44.948,67.48,44.948,67.48z"/>
	</g>
	<g>
		<path fill="#030303" d="M173.228,46.252c0,0,8.144,18.594,13.633,36.971c5.493,18.374,6.541,28.57,6.541,28.57
			s-0.393-24.418-5.606-37.154C182.464,61.617,179.435,53.465,173.228,46.252z"/>
	</g>
</g>
</svg>
