<?xml version="1.0" encoding="utf-8"?>
<!-- Generator: Adobe Illustrator 16.0.0, SVG Export Plug-In . SVG Version: 6.00 Build 0)  -->
<!DOCTYPE svg PUBLIC "-//W3C//DTD SVG 1.1//EN" "http://www.w3.org/Graphics/SVG/1.1/DTD/svg11.dtd">
<svg version="1.1" id="Calque_1" xmlns="http://www.w3.org/2000/svg" xmlns:xlink="http://www.w3.org/1999/xlink" x="0px" y="0px"
	 width="250px" height="250px" viewBox="0 0 250 250" enable-background="new 0 0 250 250" xml:space="preserve">
<g>
	<path fill-rule="evenodd" clip-rule="evenodd" fill="none" d="M-18.368,23.442c95.697,0,191.398,0,287.094,0
		c0,67.705,0,135.41,0,203.115c-95.81,0-191.627,0-287.436,0c0-67.363,0-134.727,0-202.092
		C-18.739,23.981-18.767,23.499-18.368,23.442z M104.185,100.593c-23.441,0-46.883,0-70.322,0
		c15.664,17.105,39.263,29.236,55.984,46.426c-6.665,23.832-13.764,47.227-21.166,70.322c21.191-11.467,38.563-29.713,59.74-42.33
		c19.336,14.461,38.033,29.559,58.033,43.355c-6.943-23.895-13.912-47.762-21.506-71.006c17.941-17.107,39.509-30.588,58.375-46.768
		c-24.011,0-48.02,0-72.029,0c-8.49-23.145-15.326-47.943-23.214-71.689C118.698,51.384,112.846,77.392,104.185,100.593z"/>
	
		<path fill-rule="evenodd" clip-rule="evenodd" stroke="#000000" stroke-width="4" stroke-linecap="round" stroke-linejoin="round" stroke-miterlimit="10" d="
		M128.08,28.903c7.888,23.746,14.724,48.545,23.214,71.689c24.01,0,48.019,0,72.029,0c-18.866,16.18-40.434,29.66-58.375,46.768
		c7.594,23.244,14.563,47.111,21.506,71.006c-20-13.797-38.697-28.895-58.033-43.355c-21.178,12.617-38.549,30.863-59.74,42.33
		c7.402-23.096,14.501-46.49,21.166-70.322c-16.722-17.189-40.32-29.32-55.984-46.426c23.439,0,46.881,0,70.322,0
		C112.846,77.392,118.698,51.384,128.08,28.903z M105.208,101.274c-22.326,0.094-45.031,1.617-67.25,0.682
		c3.211,4.461,7.815,8.053,12.289,11.607c13.871,11.027,29.617,20.688,41.307,33.455c-6.365,22.65-13.962,44.07-19.8,67.25
		c1.429,0.795,2.239-1.088,3.071-1.707c17.718-13.154,35.13-27.449,53.596-39.256c13.91,10.244,27.205,20.754,40.625,31.064
		c4.507,3.463,8.791,8.063,14.678,9.557c-6.141-21.965-13.944-45.225-20.141-68.273c16.769-13.58,35.523-27.578,52.23-40.965
		c0.793-0.637,2.787-1.313,2.389-2.732c-22.689,0.957-45.792-0.631-68.615-0.682c-7.556-22.598-13.988-46.322-22.189-68.273
		C119.795,55.552,113.441,79.353,105.208,101.274z"/>
	<linearGradient id="SVGID_1_" gradientUnits="userSpaceOnUse" x1="81.1357" y1="218.8477" x2="163.2503" y2="50.4879">
		<stop  offset="0" style="stop-color:#FFFFFF"/>
		<stop  offset="0.8573" style="stop-color:#FFFFFF"/>
		<stop  offset="1" style="stop-color:#FFFFFF"/>
	</linearGradient>
	
		<path fill-rule="evenodd" clip-rule="evenodd" fill="url(#SVGID_1_)" stroke="#000000" stroke-width="6" stroke-linecap="round" stroke-linejoin="round" stroke-miterlimit="10" d="
		M127.397,33.001c8.201,21.951,14.634,45.676,22.189,68.273c22.823,0.051,45.926,1.639,68.615,0.682
		c0.398,1.42-1.596,2.096-2.389,2.732c-16.707,13.387-35.462,27.385-52.23,40.965c6.196,23.049,14,46.309,20.141,68.273
		c-5.887-1.494-10.171-6.094-14.678-9.557c-13.42-10.311-26.715-20.82-40.625-31.064c-18.466,11.807-35.878,26.102-53.596,39.256
		c-0.832,0.619-1.643,2.502-3.071,1.707c5.838-23.18,13.435-44.6,19.8-67.25c-11.689-12.768-27.436-22.428-41.307-33.455
		c-4.474-3.555-9.078-7.146-12.289-11.607c22.219,0.936,44.924-0.588,67.25-0.682C113.441,79.353,119.795,55.552,127.397,33.001z"/>
</g>
<g>
	<g>
		<path fill-rule="evenodd" clip-rule="evenodd" fill="none" d="M-271.131,25.026c94.204,0,188.411,0,282.613,0
			c0,66.648,0,133.299,0,199.947c-94.314,0-188.636,0-282.949,0c0-66.314,0-132.625,0-198.938
			C-271.496,25.558-271.522,25.083-271.131,25.026z M-187.455,66.36c-11.383,14.635-20.949,36.557-19.827,63.176
			c1.088,25.805,10.792,44.613,24.867,58.137c14.352,13.785,35.29,22.957,61.16,20.834c23.938-1.965,42.511-12.791,55.111-27.893
			c12.306-14.746,21.472-36.105,19.154-63.176c-2.056-24-12.52-43.771-25.876-57.127c-13.586-13.586-33.131-25.301-60.151-23.188
			C-157.442,39.034-176.048,51.692-187.455,66.36z"/>
	</g>
</g>
</svg>
