<?xml version="1.0" encoding="utf-8"?>
<!-- Generator: Adobe Illustrator 16.0.0, SVG Export Plug-In . SVG Version: 6.00 Build 0)  -->
<!DOCTYPE svg PUBLIC "-//W3C//DTD SVG 1.1//EN" "http://www.w3.org/Graphics/SVG/1.1/DTD/svg11.dtd">
<svg version="1.1" id="Calque_1" xmlns="http://www.w3.org/2000/svg" xmlns:xlink="http://www.w3.org/1999/xlink" x="0px" y="0px"
	 width="250px" height="250px" viewBox="0 0 250 250" enable-background="new 0 0 250 250" xml:space="preserve">
<g>
	<path fill-rule="evenodd" clip-rule="evenodd" fill="none" d="M-273.368,23.442c95.697,0,191.398,0,287.094,0
		c0,67.705,0,135.41,0,203.115c-95.81,0-191.627,0-287.436,0c0-67.363,0-134.727,0-202.092
		C-273.739,23.981-273.767,23.499-273.368,23.442z M-150.815,100.593c-23.441,0-46.883,0-70.322,0
		c15.664,17.105,39.263,29.236,55.984,46.426c-6.665,23.832-13.764,47.227-21.166,70.322c21.191-11.467,38.563-29.713,59.74-42.33
		c19.336,14.461,38.033,29.559,58.033,43.355c-6.943-23.895-13.912-47.762-21.506-71.006c17.941-17.107,39.509-30.588,58.375-46.768
		c-24.011,0-48.02,0-72.029,0c-8.49-23.145-15.326-47.943-23.214-71.689C-136.302,51.384-142.154,77.392-150.815,100.593z"/>
</g>
<g>
	<g>
		<linearGradient id="SVGID_1_" gradientUnits="userSpaceOnUse" x1="74.5879" y1="199.833" x2="149.9635" y2="22.2592">
			<stop  offset="0" style="stop-color:#FFFFFF"/>
			<stop  offset="0.8573" style="stop-color:#FFFFFF"/>
			<stop  offset="1" style="stop-color:#FFFFFF"/>
		</linearGradient>
		
			<path fill-rule="evenodd" clip-rule="evenodd" fill="url(#SVGID_1_)" stroke="#000000" stroke-width="4" stroke-linecap="round" stroke-linejoin="round" stroke-miterlimit="10" d="
			M124.958,59.533c0,0,17.954-31.625,37.436-28.266c19.482,3.358,47.588,8.341,49.902,51.037
			c2.313,42.696-43.451,64.326-49.389,81.976c-5.938,17.65-30.842,24.587-34.045,51.362c-3.204,26.773-14.975-41.174-46.805-56.301
			S21.99,63.87,48.846,48.18C75.701,32.49,82.272,15.414,124.958,59.533z"/>
		<g>
			
				<path fill-rule="evenodd" clip-rule="evenodd" stroke="#000000" stroke-width="4" stroke-linecap="round" stroke-linejoin="round" stroke-miterlimit="10" d="
				M123.168,221.78c-7.139-29.729-27.857-48.076-47.323-69.026c-9.651-10.391-18.05-20.103-25.617-32.378
				c-7.528-12.214-13.669-25.967-12.453-45.543c1.46-23.499,17.691-42.987,41.629-44.832c23.487-1.81,35.019,10.724,43.765,24.551
				c10.046-7.486,16.507-16.405,27.041-22.06c11.618-6.236,27.282-5.57,38.782,1.067c20.401,11.775,29.704,40.268,18.503,69.738
				c-12.747,33.536-43.679,54.978-62.978,84.325C137.024,199.016,133.224,213.354,123.168,221.78z M152.7,171.255
				c10.994-12.451,23.883-24.215,35.225-38.427c10.713-13.422,21.936-29.229,21.704-51.947
				c-0.225-22.022-12.13-38.805-27.753-46.255c-18.37-8.759-38.019-0.147-46.611,12.453c-4.447,6.523-5.957,16.445-12.097,20.638
				c-2.361-21.827-20.872-35.454-41.629-35.58c-12.687-0.078-22.237,5.157-29.177,12.097c-6.651,6.652-12.407,16.56-13.164,28.108
				c-1.229,18.761,8.189,34.525,16.012,46.255c22.41,33.608,56.058,61.422,70.448,100.337c0.021,0.218-0.322-1.18-0.019-1.245
				C129.909,198.119,140.927,184.588,152.7,171.255z"/>
		</g>
	</g>
	<g>
		<path d="M173.334,45.225c0,0,16.552,16.936,14.54,38.746c-2.006,21.812-4.976,24.481-5.103,29.524
			c-0.114,5.04,0.188,3.155,0.188,3.155s4.53-10.202,6.66-14.146c2.136-3.954,9.479-15.153,5.604-31.196
			C191.343,55.254,179.333,48.074,173.334,45.225z"/>
	</g>
</g>
</svg>
