<?xml version="1.0" encoding="utf-8"?>
<!-- Generator: Adobe Illustrator 16.0.0, SVG Export Plug-In . SVG Version: 6.00 Build 0)  -->
<!DOCTYPE svg PUBLIC "-//W3C//DTD SVG 1.1//EN" "http://www.w3.org/Graphics/SVG/1.1/DTD/svg11.dtd">
<svg version="1.1" id="Calque_1" xmlns="http://www.w3.org/2000/svg" xmlns:xlink="http://www.w3.org/1999/xlink" x="0px" y="0px"
	 width="250px" height="250px" viewBox="0 0 250 250" enable-background="new 0 0 250 250" xml:space="preserve">
<g id="XMLID_16_">
	<g id="XMLID_17_">
		<path stroke="#000000" stroke-linecap="round" stroke-linejoin="round" stroke-miterlimit="10" d="M128.76,227.415
			c0.013-0.004,0.038-0.014,0.079-0.029c0-0.004,0-0.006,0-0.01c0.178-0.076,0.654-0.254,0.852-0.248
			c0.152,0.045,0.523,0.561,0.344,0.172c-0.084-0.004-0.068-0.105-0.086-0.172c0.282,0.338,0.698-0.262,0.936,0.258
			c0.303-0.025-0.302-0.23,0-0.258c-0.139,0.277,1.125-0.146,1.792-0.086c0.093,0.01,0.196,0.145,0.111,0.168
			c0.162-0.012,0.365-0.115,0.486-0.254c0.261,0.004-0.125,0.537,0.086,0.258c0.421,0.141,0.048-0.01,0.255-0.172
			c1.663,0,3.341-0.188,4.348,0c-0.073-0.037-0.152-0.072-0.168-0.168c0.803-0.006,0.78-0.016,1.447,0.082
			c0.97-5.182,2.332-11.02,2.986-16.721c0.168-1.461,0.258-3.521,0.426-5.291c0.152-1.617,0.737-3.096,1.108-4.693
			c0.871-3.744,1.011-7.736,1.963-11.773c0.251-3.127,1.001-6.125,1.362-9.215c-0.47-0.693-0.199-2.063,0.086-2.729
			c-0.133-0.152-0.234-0.334-0.34-0.512c-0.091-2.727-0.174-5.643-0.085-8.277c0.054-1.641-0.254-2.873-0.086-4.352
			c0.555-4.924,0.061-10.676-0.172-16.555c-0.01-0.24-0.087-0.453-0.087-0.678c-0.009-4.914-0.573-7.813-0.253-12.885
			c0.111-1.756,0.096-3.568,0.34-5.035c0.086-0.518,0.289-0.996,0.343-1.451c0.703-5.984,1.385-13.104,3.068-19.281
			c-0.047-0.152,0.105-0.502-0.086-0.514c1.139-3.383,1.926-7.119,4.096-9.471c0.729-2.039,2.31-3.521,3.497-5.375
			c0.801-1.254,1.347-2.66,2.132-3.924c0.35-0.564,0.821-1.004,1.193-1.535c1.122-1.604,1.796-3.576,3.069-5.121
			c0.219-0.607,0.406-1.244,0.939-1.533c2.414-4.355,5.308-8.402,7.331-13.229c0.627-1.484,0.69-3.203,1.706-4.604
			c0.209-1.311,0.832-2.438,1.194-3.756c0.557-2.02,0.436-4.336,0.511-6.4c0.046-1.129,0.477-2.637-0.167-3.838
			c-0.976-0.061-1.732-0.4-2.562-0.428c-1.302-1.027-3.347-1.316-4.348-2.643c-1.956-0.494-3.021-2.607-4.605-3.754
			c-0.551-1.002-1.345-1.93-2.218-2.82c-1.719-4.195-4.597-7.232-5.457-12.285c-1.052-0.152-2.021,0.359-2.729,0.344
			c-4.317-0.105-9.352,1.172-13.986,1.021c-0.14,0.5,0.137,1.023,0.171,1.623c0.032,0.588,0.03,1.107,0.083,1.621
			c0.121,1.09-0.146,3.4-0.254,4.691c-0.072,0.836,0.1,1.734,0,2.475c-0.063,0.467-0.436,1.055-0.597,1.705
			c-0.233,0.934-0.073,1.842-0.684,2.732c-0.264,0.385-0.749,0.568-0.851,1.021c-0.35-0.203-0.737,0.379-1.141,0.201
			c-0.02-0.006-0.035-0.02-0.054-0.029c0,0.01,0.003,0.023,0.003,0.031l-0.857,0.055c-0.4-0.035-0.634,0.102-1.108-0.258
			c-1.598-1.203-2.243-5.037-2.644-7.422c-0.168-0.994-0.117-1.656-0.086-2.475c0.035-0.85-0.181-1.824-0.085-2.729
			c0.13-1.215,0.869-2.098,0.854-3.072c-1.639,0.328-3.277,0.213-4.86,0.512c-0.219-0.01-0.332-0.125-0.343-0.34
			c-0.066,0.477-0.701,0.34-1.279,0.34c-2.491,0.004-4.787,0.146-7.76-0.34c-1.506,0.537-2.996,0.088-4.775,0.082
			c-0.209,1.785,0.239,3.586,0.086,5.463c-0.06,0.723-0.505,1.777-0.854,2.559c-0.554,1.244-1.404,2.619-1.961,3.5
			c-2.229,3.529-5.92,6.121-10.063,6.824c-0.302,1.385-0.048,2.715-0.086,3.84c-0.02,0.508-0.337,0.869-0.34,1.365
			c-0.003,0.441,0.279,0.867,0.34,1.279c0.372,2.52-0.262,4.826-0.34,7.678c-0.013,0.381-0.079,0.922-0.172,1.281
			c-0.314,1.244-0.684,2.359-0.854,3.582c-0.102,0.734-0.239,1.209-0.425,1.793c-0.521,1.645-0.668,3.4-1.194,4.947
			c-0.55,1.621-1.252,3.418-2.132,4.949c-0.155,0.277-0.482,0.537-0.598,0.854c-0.101,0.283-0.003,0.627-0.086,0.939
			c-0.113,0.443-0.476,0.621-0.679,1.025c-0.229,0.447-0.223,1.039-0.516,1.533c-0.124,0.217-0.388,0.357-0.511,0.598
			c-0.166,0.334-0.175,0.773-0.34,1.109c-0.19,0.391-0.59,0.668-0.769,1.025c-0.438,0.893-0.591,1.908-1.023,2.814
			c-0.406,0.854-0.715,1.74-1.194,2.561c-1.41,2.42-2.846,4.828-4.177,7.508s-2.817,5.564-4.349,8.189
			c-1.715,4.768-4.189,8.779-5.972,13.482c-1.757,2.705-3.3,7.338-2.472,10.92c0.382,1.658,1.693,2.426,2.386,3.754
			c0.981,0.697,2.284,1.662,3.412,2.303c0.364,0.211,1.365,0.471,1.365,0.941c0,0.238-0.559,0.641-0.769,0.684
			c-1.208,0.236-2.655-1.154-3.24-1.453c0.495,1.119,0.976,2.285,1.535,3.498c0.384,0.828,1.061,1.496,1.365,2.391
			c0.092,0.268,0.01,0.582,0.086,0.852c0.854,3.051,2.08,5.906,2.558,9.727c0.364,2.93,0.491,5.68,0.937,8.434l-0.082,0.014
			c-0.404-0.127-1.023,0.037-1.367-0.084l-0.231,0.064c-0.079-0.301-0.149-0.607-0.194-0.918c-0.127-0.898-0.097-1.842-0.171-2.732
			c-0.327-4.006-0.968-7.506-2.132-11.088c-0.585-1.805-0.911-3.822-1.534-5.121c-0.184-0.381-0.502-0.658-0.684-1.023
			c-0.618-1.264-1.13-2.51-1.619-3.754c-1.829-2.723-3.617-5.355-3.583-8.961c0.038-3.615,1.62-6.363,2.814-9.129
			c1.248-2.889,3.043-5.951,4.18-8.787c0.309-0.773,0.582-1.592,0.938-2.305c0.405-0.814,0.645-1.627,1.021-2.305
			c0.28-0.498,0.706-0.865,0.938-1.365c0.451-0.957,0.766-1.703,1.194-2.557c0.932-1.857,1.785-3.625,2.732-5.377
			c1.852-3.438,4.1-6.609,5.371-10.492c0.4-1.229,1.032-2.396,1.362-3.588c0.105-0.375,0.067-0.732,0.172-1.021
			c0.14-0.385,0.432-0.678,0.597-1.109c0.267-0.689,0.404-1.441,0.598-2.217c0.572-2.297,1.391-4.559,2.218-6.826
			c2.029-5.584,3.239-11.652,3.497-18.004c0.068-1.734,0.388-3.406,0.425-5.035c0.08-3.295-0.231-6.387-0.085-9.641
			c0.13-2.871,0.165-5.609,0.085-7.85c-0.098-2.779-0.088-6.041,0.172-9.043c0.069-0.834,0.102-2.363,0.511-2.818
			c0.726-0.807,2.878-0.482,4.009-0.596c0.29-0.029,0.394-0.221,0.681-0.256c0.295-0.037,0.645,0.115,0.94,0.088
			c1.197-0.119,1.981-0.252,3.325-0.258c0.175,0.021,0.02,0.379,0.255,0.34c-0.061-0.061-0.214-0.416,0.086-0.34
			c1.288,0.145,3.118-0.121,4.944,0.17c0.534,0.084,0.888,0.059,0.94,0c0.144-0.154,0.045,0.084,0.169,0.088
			c1.747,0.037,3.814-0.059,5.288,0c0.445,0.016,1.033,0.016,1.363,0.082c0.556,0.113,0.559,0.01,1.026,0
			c1.687-0.029,3.617,0.264,4.859-0.34c0.123,0.133,0.334,0.178,0.598,0.17c0.91-0.221,1.67-0.52,2.643-0.342
			c1.842-0.355,3.586-0.523,5.288-0.426c0.006-0.133-0.012-0.295,0.168-0.258c0.284,0.236,0.393-0.053,0.77-0.082
			c0.731-0.061,1.775,0.248,2.218-0.172c2.563,0.518,3.659-0.111,5.968,0.172c0.692-0.42,1.735-0.422,2.281-0.217
			c0.028,0.033,0.069,0.051,0.107,0.045c-0.034-0.016-0.069-0.031-0.107-0.045c-0.089-0.088-0.111-0.266,0.107-0.213
			c0.639,0.01,0.61-0.129,1.366-0.254c0.302,0.07-0.128,0.389,0.341,0.34c-0.162-0.098-0.229-0.244,0.086-0.254
			c0.955-0.094,1.781-0.238,2.13-0.256c0.658-0.039,0.782,0.211,1.242,0.252c-0.199-0.029,0.327-0.164,0.465-0.168
			c0.558-0.021,1.238-0.082,1.79,0.172c-0.102,0.471-0.355,0.008-0.428,0.082c0.349,0.674,0.378-0.311,0.854-0.254
			c1.906,0.105,4.073,0.055,6.141,0.172c2.03,0.115,3.243,0.244,4.349,0.342c0.216,0.225-0.214,0.285-0.254,0.51
			c0.702-0.791,2.081,0.232,2.644,0.77c0.231,0.221,0.549,0.457,0.682,0.598c0.286,0.297,0.223,0.793,0.427,1.193
			c0.158,0.318,0.511,0.496,0.597,0.684c0.289,0.637,0.568,1.695,0.767,2.475c0.171,0.662,0.345,1.26,0.514,1.877
			c0.361,1.35,0.797,2.533,1.19,3.836c0.268,0.881,0.61,1.535,0.855,2.393c0.05,0.182,0.196,0.334,0.253,0.512
			c0.71,2.09,1.248,4.018,1.965,6.143c0.307,0.922,0.694,1.75,0.936,2.643c0.604,2.225,1.238,4.461,1.62,6.402
			c0.052,0.25-0.05,0.635,0,0.936c0.306,1.783,1.064,3.646,1.452,5.207c0.247,1.01,0.031,2.918,0.34,4.008
			c0.025,3.52-1.029,7.1-2.218,10.07c-1.444,3.617-2.89,6.998-4.348,10.408c-0.705,1.643-1.837,3.061-2.729,4.607
			c-0.231,0.402-0.333,0.814-0.597,1.193c-0.781,1.119-1.608,2.197-2.303,3.328c-0.699,1.131-1.268,2.268-2.046,3.326
			c-0.766,1.047-1.508,2.123-2.389,3.072c-2.176,3.129-4.006,6.922-5.886,10.154c-0.258,0.445-0.433,0.967-0.68,1.449
			c-0.261,0.508-0.505,1.051-0.598,1.623c-1.12,1.844-2.232,4.371-2.899,6.912c-0.273,1.039-0.465,2.377-0.512,3.412
			c-0.061,1.229-0.211,2.365-0.258,3.498c-0.21,5.158-0.721,10.502-1.277,15.441c-0.143,1.264-0.151,2.654-0.086,3.672
			c0.07,1.098-0.098,2.24,0,3.328c0.056,0.604,0.252,1.168,0.254,1.791c0.014,1.305-0.196,2.719,0,4.094
			c0.414,2.865,0.964,6.135,1.109,8.193c0.063,0.904,0.312,1.719,0.343,2.557c0.013,0.387-0.101,0.807-0.085,1.195
			c0.172,4.51,0.608,9.195,0,13.822c-0.403,3.041-1.373,6.004-1.878,9.043c-0.305,1.848-0.419,3.699-0.683,5.547
			c-0.461,3.254-0.94,6.689-1.534,10.07c-0.251,1.428-0.257,2.926-0.512,4.348c-0.632,3.549-1.858,6.709-1.96,10.328
			c-0.009,0.332,0.107,0.672,0.083,1.021c-0.305,4.154-1.776,7.764-1.874,11.689c-0.038,1.443,0.19,3.002-0.172,4.436
			c-0.095,0.377-0.781,0.959-0.852,1.707c-0.388,0.039-0.565,0.287-0.769,0.514c-0.261-0.084-0.34-0.346-0.597-0.428
			c0.425,0.324,0.047,0.383-0.171,0.68c-1.938,0.229-3.815,0.518-6.224,0.43c-2.466-0.092-4.727,0.551-6.909,0
			c-1.067,0.117-2.134,0.287-3.239,0.34c-0.722,0.037-1.462,0.127-1.964-0.172c0.252,0.313-0.19,0.314-0.339,0.344
			c-0.273,0.053-1.354-0.061-1.879-0.172c-0.202-0.041-0.535-0.311-0.682-0.34c-0.055-0.014-0.2,0.102-0.34,0.086
			c-1.506-0.193-2.649-0.918-3.583-1.791c-0.071-0.414-0.048-0.92-0.255-1.197c0.445-2.512,1.033-5.414,1.279-8.189
			c0.621-2.535,1.806-5.01,1.961-7.682c1.382-4.201,2.729-8.557,3.752-12.711c0.184-0.748,0.151-1.465,0.257-2.303
			c0.114-0.91,0.623-1.758,0.852-2.646c0.092-0.355-0.006-0.734,0.085-1.109c0.141-0.563,0.55-1.088,0.77-1.619
			c0.254-0.623,0.412-1.246,0.597-1.879c0.369-1.273,0.931-2.492,1.109-3.754c0.047-0.35-0.061-0.768,0-1.109
			c0.146-0.855,0.632-1.635,0.765-2.473c0.595-3.705,1.08-7.064,1.538-10.922c0.413-3.506,1.292-7.008,1.62-10.666
			c0.044-0.492,0.069-0.982,0.091-1.48l0.675,0.029c0.069,0.025,0.555,0.238,0.597-0.084l0.182,0.014
			c-0.003,0.053-0.007,0.105-0.011,0.154c-0.133,1.783-0.4,3.502-0.339,5.121c-0.09,0.424-0.347,1.1,0,1.453
			c-1.643,5.143-0.743,12.215-2.049,17.148c-0.572,2.16-1.239,4.838-2.046,6.91c-0.363,0.93-0.687,1.928-1.022,2.902
			c-0.321,0.92-0.811,1.789-1.109,2.729c-0.204,0.639-0.206,1.391-0.426,2.049c-0.143,0.416-0.471,0.779-0.598,1.193
			c-0.157,0.516-0.136,1.111-0.257,1.621c-0.628,2.625-1.385,5.143-2.303,7.68c-0.797,2.383-1.029,4.857-1.705,7.168
			c-0.369,1.258-0.858,2.35-1.108,3.582c-0.489,2.398-0.839,5.076-1.194,7.51c3.304-0.324,4.983-0.299,7.931-0.598
			c0.07,0.07,0.073,0.152,0.032,0.223c-0.052,0.031-0.093,0.07-0.117,0.117c0.054-0.031,0.096-0.072,0.117-0.117
			c0.32-0.227,1.073-0.238,1.502-0.309c0.016,0.242-0.241,0.213-0.34,0.34c0.196-0.156,1.354-0.508,1.792-0.426
			c0.12,0.039,0,0.074,0,0.162C128.798,227.392,128.77,227.405,128.76,227.415z M176.937,62.372c0.931-2.949,0.944-6.098,0.68-9.131
			c-0.05-0.123-0.102,0.01,0,0c-0.759,5.338-2.516,10.607-4.603,15.273c-0.673,1.506-1.302,2.943-2.131,4.438
			c-1.575,2.832-3.421,5.471-5.118,8.191c-0.863,1.385-1.464,2.881-2.388,4.268c-0.871,1.297-1.535,2.754-2.644,3.922
			c-0.762,2.018-2.032,3.695-3.158,5.461c-0.355,0.561-0.91,1.076-1.193,1.621c-0.482,0.936-0.524,2.002-1.276,2.73
			c-0.261,1.355-0.862,2.512-1.367,3.84c-0.44,1.16-0.971,2.514-1.533,3.84c-0.354,0.828-0.823,1.605-1.109,2.389
			c-0.301,0.824-0.368,1.98-0.597,2.986c-0.438,1.936-0.531,3.479-0.852,5.289c-0.285,1.592-0.526,3.205-0.682,4.863
			c-0.345,3.672-1.135,7.82-1.281,10.924c-0.107,2.271,0.179,4.514,0.172,6.824c-0.003,1-0.127,1.945,0,2.902
			c0.257,1.963,0.298,4.094,0.512,6.313c0.189,1.994,0.616,4.193,0.683,6.4c0.111,3.83,0.174,7.76-0.085,12.371
			c-0.086,1.521,0.215,3.016,0.168,4.521c-0.03,0.992-0.21,1.973-0.254,2.984c-0.055,1.23-0.08,2.287-0.259,4.098
			c-0.037,0.406-0.27,0.764-0.339,1.193c-0.155,0.949-0.048,2.025-0.172,2.988c-0.257,1.99-0.759,3.975-1.109,5.971
			c-0.368,2.115-0.717,4.27-1.022,6.314c-0.218,1.471-0.304,2.965-0.682,4.352c-0.277,1.012-0.802,2.021-0.938,3.498
			c-0.074,0.801-0.171,1.5-0.257,2.131c-0.03,0.232,0.177,0.73,0.171,1.195c-0.003,0.27-0.035,0.563-0.083,0.873
			c-0.123,0.791-0.353,1.688-0.515,2.541c-0.197,1.049-0.146,2.184-0.34,3.158c-0.336,1.703-0.822,3.387-1.108,5.035
			c-0.21,1.213-0.105,2.533-0.343,3.668c-0.188,0.9-0.884,1.773-1.023,2.729c-0.083,0.578,0.188,1.1-0.168,1.619
			c0.677-0.109,0.887,0.268,1.276,0.258c0.464-5.301,1.274-10.375,2.219-15.443c0.218-1.162,0.231-2.348,0.428-3.498
			c0.099-0.58,0.407-1.141,0.512-1.705c0.311-1.695,0.6-3.463,0.937-5.121c0.182-0.898,0.328-1.752,0.426-2.646
			c0.261-2.361,0.833-4.797,1.194-6.994c0.429-2.598,0.556-5.273,0.873-7.912c0.048-0.379,0.096-0.756,0.149-1.131
			c0.303-2.094,1.084-4.129,1.366-6.229c0.092-0.688,0.051-1.498,0.086-2.221c0.107-2.4-0.086-5.02,0.083-7.338
			c0.024-0.35,0.229-0.701,0.257-1.023c0.127-1.396,0.086-2.85,0.086-4.18c0-2.316-0.003-4.484-0.343-7.764
			c-0.299-2.906-0.661-5.184-0.852-8.447c-0.028-0.475-0.251-0.932-0.257-1.363c-0.005-0.307,0.175-0.676,0.171-0.941
			c-0.009-0.6-0.216-1.188-0.254-1.791c-0.162-2.561-0.058-6.086,0.254-8.705c0.072-0.609,0.204-1.168,0.258-1.789
			c0.283-3.324,0.838-8.975,1.193-13.053c0.178-2.059-0.047-3.836,0.34-5.621c0.026-0.117,0.055-0.238,0.086-0.355
			c0.89-3.35,2.307-6.564,3.752-9.555c0.699-1.445,1.554-2.795,2.389-4.266c0.708-1.244,1.232-2.633,1.96-3.926
			c0.329-0.582,0.851-1.127,1.28-1.705c1.203-1.627,2.472-3.393,3.666-5.119c0.815-1.178,1.463-2.42,2.303-3.586
			c0.822-1.139,1.441-2.432,2.134-3.668c0.358-0.178,0.419-0.658,0.852-0.766c2.37-4.508,4.794-9.648,6.565-14.846
			C176.336,63.763,176.712,63.077,176.937,62.372z M175.146,46.417c0.212-0.207-0.188-1.139-0.173-1.707
			c-0.68-0.131-0.794-0.152-1.363-0.254c-1.654-1.25-3.925-1.877-5.117-3.584c-4.659-3.318-7.601-8.715-8.868-14.932
			c-0.94,0.008-1.001,0.068-1.877,0.17c-0.058,0.313,0.184,0.328,0.172,0.598c0.143,1.504,0.535,2.762,1.277,3.67
			c2.375,4.848,4.91,9.537,8.871,12.797c1.457,0.912,2.767,1.523,4.177,2.391c0.1-0.016,0.048-0.086,0-0.086
			c0.302-0.023,0.935,0.23,1.022,0.51C174.074,45.796,174.688,46.149,175.146,46.417z M174.377,42.833c0.086,0,0.172,0,0.257,0
			c-1.509-5.984-2.57-11.398-5.031-17.404c-3.15,0.127-4.971,0.156-8.443,0.34c0.102,0.553,0.526,1.236,0.426,1.705
			c0.086,0.172,0.149,0.367,0.343,0.43c0.4,2.359,1.687,4.566,2.896,6.396c-0.222,0.363,0.303,0.195,0.172,0.684
			c0.995,1.195,2.037,2.344,3.072,3.498c1.655,1.328,3.211,2.959,5.199,3.5C173.43,42.474,174.129,42.429,174.377,42.833z
			 M167.982,23.892c0.33-0.273,0.81-0.338,1.194-0.168c-0.471-1.816-0.893-3.314-1.365-4.949c-0.268,0.057-0.35-0.01-0.427,0.086
			c0.061-0.389-0.73-0.229-0.768-0.6c-0.292,0.201-0.51,0.066-0.767-0.17c-0.102,0.012-0.072,0.156-0.086,0.254
			c-0.076-0.047-0.485-0.178-0.257-0.254c0-0.131-0.402,0.043-0.512,0.086c0.348,1.76,0.169,3.713,0.258,5.629
			c0.921,0.156,1.531-0.08,2.385,0.086c-0.168-0.197,0.022-0.096,0.087-0.254C167.912,23.622,167.999,23.708,167.982,23.892z
			 M163.634,23.978c0.112-2.275-0.067-4.313-0.257-6.143c-0.213-0.102-0.503-0.125-0.77-0.172c0.251,2.207,0.14,4.357,0.513,6.398
			C163.23,23.841,163.402,23.897,163.634,23.978z M161.585,24.149c-0.523-2.256-0.378-3.639-0.512-6.402
			c-2.78-0.352-5.584,0.113-8.185-0.51c-0.125,2.262,0.555,5.027-0.258,7.68c0.272-0.006,0.746-0.02,1.194-0.086
			c-0.038,0.076-0.076,0.152-0.173,0.168C156.279,24.364,158.643,24.407,161.585,24.149z M151.182,24.999
			c0.341-2.848,0.044-5.059,0.172-7.676c-0.28-0.195-0.619-0.121-0.854-0.086c0.429,1.615,0.203,3.359,0,4.949
			c-0.14,1.094,0.22,2.195-0.511,2.813C150.376,25.206,150.734,24.886,151.182,24.999z M148.621,25.257
			c0.073-3.08,0.824-4.984,0.259-8.02c-1.122,0.188-2.421-0.17-3.155,0.258c-2.338-0.176-4.491-0.014-6.397,0
			c-0.849,0.006-1.801,0.09-2.474-0.086c-2.325,1.725-2.476,5.355-2.896,8.531c0.983,0.432,2.265-0.238,3.41,0.17
			c-0.205,0.449,0.111,0.053,0.169-0.17c1.932,0,3.844,0.156,5.542-0.172c0.127,0.039-0.031,0.111,0,0.258
			c0.201-0.527,0.763-0.061,1.024-0.086c0-0.016,0.282-0.227,0.429-0.258c0.148-0.029,0.313,0.105,0.426,0.086
			c0.313-0.051,1.038-0.488,1.446-0.168C146.599,25.323,147.978,25.331,148.621,25.257z M141.459,229.519
			c0.199,0.002,0.251-0.146,0.511-0.086c-0.089-0.223-0.102-0.525-0.085-0.854c-1.782,0.357-3.114-0.303-4.349,0.088
			c-1.77-0.307-4.136,0.205-6.394,0.254c-0.85,0.018-1.665-0.156-2.73-0.086c-0.723,0.051-1.426,0.098-2.047,0.17
			c-1.831,0.217-4.369,0.307-6.906,0.258c-0.359,0.393-1.198,0.314-1.706,0.256c0.521,1.178,2.617,1.58,3.751,1.365
			c0.017,0.072-0.035,0.078-0.086,0.086c0.985,0.25,2.119-0.229,3.154,0.17c0.128-0.037-0.031-0.111,0-0.256
			c0.709,0.137,1.846,0.035,2.814-0.172c0.159,0.012,0.055,0.289,0.172,0.342c0.117-0.084-0.035-0.143,0.172-0.256
			c1.613,0.199,3.357-0.055,4.945,0.086c0.337,0.027,0.54-0.221,0.852-0.258c2.205-0.26,4.504,0.32,6.483-0.426
			C140.271,230.526,141.236,230.005,141.459,229.519z M137.88,34.983c0.009-1.09,0.041-1.979,0-3.326
			c-0.045-1.346-0.575-2.607-0.429-3.926c-1.447,0.08-2.755,0.203-4.007,0.086c-1.162,2.195-1.176,6.076-0.514,9.129
			c0.188,0.855,0.24,1.852,0.514,2.561c0.054,0.141,0.289,0.264,0.341,0.426c0.358,1.141,0.346,2.268,1.448,2.561
			c0.46,0.006,0.453,0.039,0.768,0.086c1.021-0.434,1.042-1.527,1.366-2.986c0.108-0.498,0.392-0.947,0.427-1.195
			C137.93,37.427,137.866,36.134,137.88,34.983z M136.77,228.237c-0.061-0.498,0.524-0.402,0.341-0.598
			c-0.267-0.139-0.241,0.426-0.341,0.172c-0.098,0.016-0.047,0.086,0,0.086c0.011,0.152-0.104,0.18-0.085,0.34
			c0.067,0.047,0.136,0.088,0.254,0.086C136.938,228.239,136.834,228.257,136.77,228.237z M132.251,26.11
			c0.257-1.969,0.234-6.234,2.045-8.363c-2.414,0.514-5.534,0.521-8.186,1.027c0.235,2.557,0.305,5.908,0.34,7.934
			C128.451,26.323,130.675,26.128,132.251,26.11z M124.83,26.794c-0.223-3.018,0.051-5.477-0.341-8.105
			c-0.498,0.111-0.8,0.061-1.279,0c-0.403,3.018,0.41,6.037,0,8.02C123.792,26.88,124.183,26.671,124.83,26.794z M121.759,26.624
			c-0.095-2.16-0.471-5.424-0.169-7.85c-0.215-0.07-0.413-0.004-0.77-0.172c-0.707,0.48-1.527-0.107-2.216,0
			c-0.226,0.035-0.382,0.229-0.597,0.258c-0.976,0.117-2.095-0.176-3.068,0c-0.236,0.041-0.462,0.234-0.685,0.254
			c-0.288,0.025-0.568-0.039-0.937,0c-2.084,0.217-4.177,0.467-6.482,0.258c0.178,2.365,0.229,3.982,0.342,6.482
			c-0.009,0.219-0.158,0.299-0.257,0.426c2.56,0.199,4.746,0.025,8.272,0.172c0.171,0.213,0.635,0.324,0.171,0.086
			C116.994,26.392,119.646,26.401,121.759,26.624z M111.271,29.866c0.257-0.527,0.021-0.953,0.171-1.709
			c-0.943-0.254-1.947-0.006-2.643-0.086c0.311,2.572-0.168,5.211-1.023,7.596c-0.276,0.766-0.939,1.379-1.537,2.135
			c-0.295,0.373-0.41,0.879-0.684,1.193c-1.21,1.389-2.896,2.578-4.516,3.072c-0.309,0.021-0.414-0.158-0.684-0.172
			c0.061,1.17-0.035,2.156-0.086,2.986c0.226-0.104,0.598-0.252,0.938-0.086c1.09-0.705,2.785-0.797,3.497-1.877
			c0.474,0.02,0.45-0.457,0.937-0.426c0.025-0.262,0.331-0.242,0.344-0.512c2.689-1.486,3.69-4.67,5.286-7.252
			C111.64,33.177,111.877,31.692,111.271,29.866z M107.178,30.974c-0.184-1.102,0.079-1.898,0.17-2.984
			c-2.234-0.193-4.718-0.686-7.163-1.025c0.132,4.65,0.3,8.771,0.085,13.736c0.848-0.174,1.369-0.676,2.046-1.025
			c0.412-0.553,0.966-0.965,1.537-1.361c0.687-1.293,2.094-2.291,2.557-3.842C106.797,33.171,106.619,31.894,107.178,30.974z
			 M105.473,26.11c-0.146-2.559-0.114-4.881-0.172-6.738c-0.317-0.213-0.511-0.076-0.937-0.086c0.2,2.537,0.272,4.619,0.253,6.74
			C104.98,25.976,105.185,26.087,105.473,26.11z M103.083,25.854c0.198-0.971-0.37-3.076,0-4.18
			c-0.164-0.934-0.205-1.398-0.256-2.389c-0.763,0.193-1.548-0.051-2.472,0.086c-0.119,1.826-0.089,4.088-0.086,5.971
			C101.136,25.54,102.178,25.519,103.083,25.854z"/>
		<path fill="#FFFFFF" stroke="#000000" stroke-linecap="round" stroke-linejoin="round" stroke-miterlimit="10" d="M177.616,53.241
			c0.265,3.033,0.251,6.182-0.68,9.131c-0.225,0.705-0.601,1.391-0.854,2.135c-1.771,5.197-4.195,10.338-6.565,14.846
			c-0.433,0.107-0.493,0.588-0.852,0.766c-0.692,1.236-1.312,2.529-2.134,3.668c-0.84,1.166-1.487,2.408-2.303,3.586
			c-1.194,1.727-2.463,3.492-3.666,5.119c-0.43,0.578-0.951,1.123-1.28,1.705c-0.728,1.293-1.252,2.682-1.96,3.926
			c-0.835,1.471-1.689,2.82-2.389,4.266c-1.445,2.99-2.862,6.205-3.752,9.555c-0.031,0.117-0.06,0.238-0.086,0.355l-0.597-0.098
			c0.229-1.006,0.296-2.162,0.597-2.986c0.286-0.783,0.756-1.561,1.109-2.389c0.563-1.326,1.093-2.68,1.533-3.84
			c0.505-1.328,1.106-2.484,1.367-3.84c0.752-0.729,0.794-1.795,1.276-2.73c0.283-0.545,0.838-1.061,1.193-1.621
			c1.126-1.766,2.396-3.443,3.158-5.461c1.108-1.168,1.772-2.625,2.644-3.922c0.924-1.387,1.524-2.883,2.388-4.268
			c1.697-2.721,3.543-5.359,5.118-8.191c0.829-1.494,1.458-2.932,2.131-4.438C175.101,63.849,176.857,58.579,177.616,53.241z"/>
		<path fill="#FFFFFF" stroke="#000000" stroke-linecap="round" stroke-linejoin="round" stroke-miterlimit="10" d="M177.616,53.241
			C177.515,53.251,177.566,53.118,177.616,53.241L177.616,53.241z"/>
		<path fill="#FFFFFF" stroke="#000000" stroke-linecap="round" stroke-linejoin="round" stroke-miterlimit="10" d="M175.317,48.21
			c0.644,1.201,0.213,2.709,0.167,3.838c-0.075,2.064,0.046,4.381-0.511,6.4c-0.362,1.318-0.985,2.445-1.194,3.756
			c-1.016,1.4-1.079,3.119-1.706,4.604c-2.023,4.826-4.917,8.873-7.331,13.229c-0.533,0.289-0.721,0.926-0.939,1.533
			c-1.273,1.545-1.947,3.518-3.069,5.121c-0.372,0.531-0.844,0.971-1.193,1.535c-0.785,1.264-1.331,2.67-2.132,3.924
			c-1.188,1.854-2.768,3.336-3.497,5.375c-2.17,2.352-2.957,6.088-4.096,9.471c0.191,0.012,0.039,0.361,0.086,0.514
			c-1.684,6.178-2.365,13.297-3.068,19.281c-0.054,0.455-0.257,0.934-0.343,1.451c-0.244,1.467-0.229,3.279-0.34,5.035
			c-0.32,5.072,0.244,7.971,0.253,12.885c0,0.225,0.077,0.438,0.087,0.678c0.232,5.879,0.727,11.631,0.172,16.555
			c-0.168,1.479,0.14,2.711,0.086,4.352c-0.089,2.635-0.006,5.551,0.085,8.277c0.105,0.178,0.207,0.359,0.34,0.512
			c-0.285,0.666-0.556,2.035-0.086,2.729c-0.361,3.09-1.111,6.088-1.362,9.215c-0.952,4.037-1.092,8.029-1.963,11.773
			c-0.371,1.598-0.956,3.076-1.108,4.693c-0.168,1.77-0.258,3.83-0.426,5.291c-0.654,5.701-2.017,11.539-2.986,16.721
			c-0.667-0.098-0.645-0.088-1.447-0.082c0.016,0.096,0.095,0.131,0.168,0.168c-1.007-0.188-2.685,0-4.348,0
			c-0.207,0.162,0.166,0.313-0.255,0.172c-0.211,0.279,0.175-0.254-0.086-0.258c-0.121,0.139-0.324,0.242-0.486,0.254
			c0.085-0.023-0.019-0.158-0.111-0.168c-0.667-0.061-1.931,0.363-1.792,0.086c-0.302,0.027,0.303,0.232,0,0.258
			c-0.237-0.52-0.653,0.08-0.936-0.258c0.018,0.066,0.002,0.168,0.086,0.172c0.18,0.389-0.191-0.127-0.344-0.172
			c-0.197-0.006-0.674,0.172-0.852,0.248c0-0.088,0.12-0.123,0-0.162c-0.438-0.082-1.596,0.27-1.792,0.426
			c0.099-0.127,0.355-0.098,0.34-0.34c-0.429,0.07-1.182,0.082-1.502,0.309c0.041-0.07,0.038-0.152-0.032-0.223
			c-2.947,0.299-4.627,0.273-7.931,0.598c0.355-2.434,0.705-5.111,1.194-7.51c0.25-1.232,0.739-2.324,1.108-3.582
			c0.676-2.311,0.908-4.785,1.705-7.168c0.918-2.537,1.675-5.055,2.303-7.68c0.121-0.51,0.1-1.105,0.257-1.621
			c0.127-0.414,0.455-0.777,0.598-1.193c0.22-0.658,0.222-1.41,0.426-2.049c0.299-0.939,0.788-1.809,1.109-2.729
			c0.336-0.975,0.659-1.973,1.022-2.902c0.807-2.072,1.474-4.75,2.046-6.91c1.306-4.934,0.406-12.006,2.049-17.148
			c-0.347-0.354-0.09-1.029,0-1.453c-0.062-1.619,0.206-3.338,0.339-5.121c0.004-0.049,0.008-0.102,0.011-0.154
			c0.206-2.752,0.378-5.645,0.244-8.631c0.981-0.721,0.604-1.943,0.769-2.73c0.299-1.418,2.449-2.844,1.791-4.096
			c-1.334-0.404-1.935,1.191-2.388,2.217c0.13,0.035,0.012,0.105-0.086,0c-0.004,0.092-0.108,0.066-0.086-0.086
			c0.27-1.154,0.076-2.248,0.086-3.238c0.063-5.508,0.949-11.379,1.366-17.15c0.019-0.281-0.033-0.576,0-0.854
			c0.771-6.965-0.01-13.863,0.768-20.82c0.058-0.527-0.075-1.064,0-1.533c0.118-0.768,0.392-1.535,0.513-2.307
			c0.225-1.465,0.333-2.844,0.764-4.18c-0.012-0.242-0.154-0.357-0.168-0.598c0.811-6.176,1.067-12.182-0.428-17.576
			c0.19-0.01,0.037-0.361,0.085-0.512c-0.426-1.006-0.421-1.998-0.426-3.328c0.035-0.203-0.388,0.047-0.257-0.254
			c-0.175-1.5,0.048-3.082,0-4.695c-0.02-0.715-0.282-1.451-0.254-2.131c0.016-0.35,0.234-0.66,0.254-1.025
			c0.223-4.254,0.965-8.592,1.279-12.627c0.992-0.076,1.744-0.836,2.644-1.367c0.804-0.473,1.903-0.488,2.561-1.193
			c0.829-0.123,1.585-0.279,2.131-0.512c0.231,0.148,0.706-0.021,0.938,0.086c0.05-0.336,0.562,0.092,0.343-0.258
			c0.266,0.049,0.326,0.299,0.597,0.344c0.915-0.609,3.24,0.594,3.24-1.193c0-0.678-0.826-1.375-1.452-0.941
			c-0.327-0.01-0.549-0.188-0.938-0.168c-0.107,0.002-0.395,0.256-0.511,0.254c-0.045,0-0.197-0.15-0.34-0.172
			c-0.708-0.107-0.771,0.096-1.194,0.172c-0.273,0.049-0.623-0.125-0.855-0.086c-0.421,0.068-1.048,0.424-1.619,0.598
			c-0.303,0.096-0.616,0.152-0.938,0.258c-0.35,0.109-0.75,0.133-1.022,0.256c-0.314,0.141-0.56,0.512-0.854,0.68
			c-0.894,0.516-1.856,0.922-2.645,1.537c0.093-2.979,0.449-6.533,0.09-9.184l0.051-0.002c0.403,0.178,0.791-0.404,1.141-0.201
			c0.102-0.453,0.587-0.637,0.851-1.021c0.61-0.891,0.45-1.799,0.684-2.732c0.161-0.65,0.533-1.238,0.597-1.705
			c0.1-0.74-0.072-1.639,0-2.475c0.108-1.291,0.375-3.602,0.254-4.691c-0.053-0.514-0.051-1.033-0.083-1.621
			c-0.034-0.6-0.311-1.123-0.171-1.623c4.635,0.15,9.669-1.127,13.986-1.021c0.708,0.016,1.677-0.496,2.729-0.344
			c0.86,5.053,3.738,8.09,5.457,12.285c0.873,0.891,1.667,1.818,2.218,2.82c1.584,1.146,2.649,3.26,4.605,3.754
			c1.001,1.326,3.046,1.615,4.348,2.643C173.585,47.81,174.342,48.149,175.317,48.21z"/>
		<path fill="#FFFFFF" stroke="#000000" stroke-linecap="round" stroke-linejoin="round" stroke-miterlimit="10" d="M174.974,44.71
			c-0.015,0.568,0.385,1.5,0.173,1.707c-0.458-0.268-1.072-0.621-1.879-0.428c-0.088-0.279-0.721-0.533-1.022-0.51
			c0.048,0,0.1,0.07,0,0.086c-1.41-0.867-2.72-1.479-4.177-2.391c-3.961-3.26-6.496-7.949-8.871-12.797
			c-0.742-0.908-1.135-2.166-1.277-3.67c0.012-0.27-0.229-0.285-0.172-0.598c0.876-0.102,0.937-0.162,1.877-0.17
			c1.268,6.217,4.209,11.613,8.868,14.932c1.192,1.707,3.463,2.334,5.117,3.584C174.18,44.558,174.294,44.579,174.974,44.71z"/>
		<path fill="#FFFFFF" stroke="#000000" stroke-linecap="round" stroke-linejoin="round" stroke-miterlimit="10" d="M174.634,42.833
			c-0.085,0-0.171,0-0.257,0c-0.248-0.404-0.947-0.359-1.109-0.852c-1.988-0.541-3.544-2.172-5.199-3.5
			c-1.035-1.154-2.077-2.303-3.072-3.498c0.131-0.488-0.394-0.32-0.172-0.684c-1.21-1.83-2.496-4.037-2.896-6.396
			c-0.193-0.063-0.257-0.258-0.343-0.43c0.101-0.469-0.324-1.152-0.426-1.705c3.473-0.184,5.293-0.213,8.443-0.34
			C172.063,31.435,173.125,36.849,174.634,42.833z"/>
		<path fill="#FFFFFF" stroke="#000000" stroke-linecap="round" stroke-linejoin="round" stroke-miterlimit="10" d="M169.177,23.724
			c-0.385-0.17-0.864-0.105-1.194,0.168c0.017-0.184-0.07-0.27-0.257-0.254c-0.064,0.158-0.255,0.057-0.087,0.254
			c-0.854-0.166-1.464,0.07-2.385-0.086c-0.089-1.916,0.09-3.869-0.258-5.629c0.109-0.043,0.512-0.217,0.512-0.086
			c-0.229,0.076,0.181,0.207,0.257,0.254c0.014-0.098-0.016-0.242,0.086-0.254c0.257,0.236,0.475,0.371,0.767,0.17
			c0.037,0.371,0.828,0.211,0.768,0.6c0.077-0.096,0.159-0.029,0.427-0.086C168.284,20.409,168.706,21.907,169.177,23.724z"/>
		<path fill="#FFFFFF" stroke="#000000" stroke-linecap="round" stroke-linejoin="round" stroke-miterlimit="10" d="M163.377,17.835
			c0.189,1.83,0.369,3.867,0.257,6.143c-0.231-0.08-0.403-0.137-0.514,0.084c-0.373-2.041-0.262-4.191-0.513-6.398
			C162.874,17.71,163.164,17.733,163.377,17.835z"/>
		<path fill="#FFFFFF" stroke="#000000" stroke-linecap="round" stroke-linejoin="round" stroke-miterlimit="10" d="M161.073,17.747
			c0.134,2.764-0.012,4.146,0.512,6.402c-2.942,0.258-5.306,0.215-7.933,0.85c0.097-0.016,0.135-0.092,0.173-0.168
			c-0.448,0.066-0.922,0.08-1.194,0.086c0.813-2.652,0.133-5.418,0.258-7.68C155.489,17.86,158.293,17.396,161.073,17.747z"/>
		<path fill="#FFFFFF" stroke="#000000" stroke-linecap="round" stroke-linejoin="round" stroke-miterlimit="10" d="M151.354,17.323
			c-0.128,2.617,0.169,4.828-0.172,7.676c-0.447-0.113-0.806,0.207-1.193,0c0.73-0.617,0.371-1.719,0.511-2.813
			c0.203-1.59,0.429-3.334,0-4.949C150.734,17.202,151.073,17.128,151.354,17.323z"/>
		<path fill="#FFFFFF" stroke="#000000" stroke-linecap="round" stroke-linejoin="round" stroke-miterlimit="10" d="M150.499,112.2
			l0.597,0.098c-0.387,1.785-0.162,3.563-0.34,5.621c-0.355,4.078-0.91,9.729-1.193,13.053c-0.054,0.621-0.186,1.18-0.258,1.789
			c-0.312,2.619-0.416,6.145-0.254,8.705c0.038,0.604,0.245,1.191,0.254,1.791c0.004,0.266-0.176,0.635-0.171,0.941
			c0.006,0.432,0.229,0.889,0.257,1.363c0.19,3.264,0.553,5.541,0.852,8.447c0.34,3.279,0.343,5.447,0.343,7.764
			c0,1.33,0.041,2.783-0.086,4.18c-0.028,0.322-0.232,0.674-0.257,1.023c-0.169,2.318,0.024,4.938-0.083,7.338
			c-0.035,0.723,0.006,1.533-0.086,2.221c-0.282,2.1-1.063,4.135-1.366,6.229c-0.054,0.375-0.102,0.752-0.149,1.131l-0.447-0.021
			c0.124-0.963,0.017-2.039,0.172-2.988c0.069-0.43,0.302-0.787,0.339-1.193c0.179-1.811,0.204-2.867,0.259-4.098
			c0.044-1.012,0.224-1.992,0.254-2.984c0.047-1.506-0.254-3-0.168-4.521c0.259-4.611,0.196-8.541,0.085-12.371
			c-0.066-2.207-0.493-4.406-0.683-6.4c-0.214-2.219-0.255-4.35-0.512-6.313c-0.127-0.957-0.003-1.902,0-2.902
			c0.007-2.311-0.279-4.553-0.172-6.824c0.146-3.104,0.937-7.252,1.281-10.924c0.155-1.658,0.396-3.271,0.682-4.863
			C149.968,115.679,150.061,114.136,150.499,112.2z"/>
		<path fill="#FFFFFF" stroke="#000000" stroke-linecap="round" stroke-linejoin="round" stroke-miterlimit="10" d="M148.88,17.237
			c0.565,3.035-0.186,4.939-0.259,8.02c-0.644,0.074-2.022,0.066-2.218,0.344c-0.408-0.32-1.133,0.117-1.446,0.168
			c-0.112,0.02-0.277-0.115-0.426-0.086c-0.146,0.031-0.429,0.242-0.429,0.258c-0.262,0.025-0.823-0.441-1.024,0.086
			c-0.031-0.146,0.127-0.219,0-0.258c-1.698,0.328-3.61,0.172-5.542,0.172c-0.058,0.223-0.374,0.619-0.169,0.17
			c-1.146-0.408-2.427,0.262-3.41-0.17c0.421-3.176,0.571-6.807,2.896-8.531c0.673,0.176,1.625,0.092,2.474,0.086
			c1.906-0.014,4.06-0.176,6.397,0C146.459,17.067,147.758,17.425,148.88,17.237z M143.082,24.485
			c1.261-0.461,2.392-2.246,1.106-2.896c-0.15-0.674-0.947-0.701-1.363-1.109c-0.086,0.506-1.128-0.52-1.621-0.086
			c-0.171-0.406-0.784-0.139-0.938-0.426c-0.332,0.283-0.434-0.072-1.021-0.086c0,0.004-0.931,0.049-1.197,0.086
			c-0.238,0.033-0.743,0.105-0.938,0.168c-1.636,0.547-2.607,2.936-0.086,3.588c0.144,0.139,0.384,0.184,0.512,0.338
			c1.336-0.266,3.04,0.334,4.181,0.514c0.013-0.213-0.134-0.266-0.172-0.426c0.188,0.066,0.213,0.299,0.34,0.426
			c0.416,0.193,0.813-0.213,1.025-0.254C142.958,24.308,143.082,24.456,143.082,24.485z"/>
		<path fill="#FFFFFF" stroke="#000000" stroke-linecap="round" stroke-linejoin="round" stroke-miterlimit="10" d="M148.11,183.872
			l0.447,0.021c-0.317,2.639-0.444,5.314-0.873,7.912c-0.361,2.197-0.934,4.633-1.194,6.994c-0.098,0.895-0.244,1.748-0.426,2.646
			c-0.337,1.658-0.626,3.426-0.937,5.121c-0.104,0.564-0.413,1.125-0.512,1.705l-0.426-0.066c0.048-0.311,0.08-0.604,0.083-0.873
			c0.006-0.465-0.201-0.963-0.171-1.195c0.086-0.631,0.183-1.33,0.257-2.131c0.136-1.477,0.66-2.486,0.938-3.498
			c0.378-1.387,0.464-2.881,0.682-4.352c0.306-2.045,0.654-4.199,1.022-6.314C147.352,187.847,147.854,185.862,148.11,183.872z"/>
		<path stroke="#000000" stroke-linecap="round" stroke-linejoin="round" stroke-miterlimit="10" d="M146.916,49.573
			c0.626-0.434,1.452,0.264,1.452,0.941c0,1.787-2.325,0.584-3.24,1.193c-0.271-0.045-0.331-0.295-0.597-0.344
			c0.219,0.35-0.293-0.078-0.343,0.258c-0.232-0.107-0.707,0.063-0.938-0.086c-0.546,0.232-1.302,0.389-2.131,0.512
			c-0.657,0.705-1.757,0.721-2.561,1.193c-0.899,0.531-1.651,1.291-2.644,1.367c-0.314,4.035-1.057,8.373-1.279,12.627
			c-0.02,0.365-0.238,0.676-0.254,1.025c-0.028,0.68,0.234,1.416,0.254,2.131c0.048,1.613-0.175,3.195,0,4.695
			c-0.131,0.301,0.292,0.051,0.257,0.254c0.005,1.33,0,2.322,0.426,3.328c-0.048,0.15,0.105,0.502-0.085,0.512
			c1.495,5.395,1.238,11.4,0.428,17.576c0.014,0.24,0.156,0.355,0.168,0.598c-0.431,1.336-0.539,2.715-0.764,4.18
			c-0.121,0.771-0.395,1.539-0.513,2.307c-0.075,0.469,0.058,1.006,0,1.533c-0.777,6.957,0.003,13.855-0.768,20.82
			c-0.033,0.277,0.019,0.572,0,0.854c-0.417,5.771-1.304,11.643-1.366,17.15c-0.01,0.99,0.184,2.084-0.086,3.238
			c-0.022,0.152,0.082,0.178,0.086,0.086c0.098,0.105,0.216,0.035,0.086,0c0.453-1.025,1.054-2.621,2.388-2.217
			c0.658,1.252-1.492,2.678-1.791,4.096c-0.165,0.787,0.213,2.01-0.769,2.73c0.134,2.986-0.038,5.879-0.244,8.631l-0.182-0.014
			c-0.238,0.133-0.361-0.098-0.597,0.084l-0.675-0.029c0.042-1.051,0.058-2.145,0.163-3.383c0.041-0.488,0.27-0.932,0.257-1.451
			c-0.013-0.5-0.25-1.018-0.257-1.533c-0.01-0.873,0.041-1.818,0.085-2.732c0.048-0.963-0.155-1.854-0.171-2.816
			c-0.006-0.418,0.242-0.793,0.257-1.193c0.022-0.557-0.102-1.135-0.086-1.705c0.077-2.869,0.141-4.893,0.343-7.252
			c0.269-3.162,0.628-7.338,0.766-10.242c0.064-1.285,0.414-2.547,0.513-3.836c0.13-1.715-0.248-3.516,0.257-5.207
			c-0.175-2.883-0.216-5.482-0.172-8.189c0.067-4.033,0.95-7.83,0.684-11.605c-0.114-1.627,0.225-3.412,0.341-5.117
			c0.113-1.658,0.148-3.381,0.084-5.035c-0.108-2.895-0.054-5.484-0.254-8.703c-0.188-2.975,0.103-5.816-0.343-8.533
			c-2.891,6.484-6.585,12.256-10.316,17.748c-0.944,1.387-2.092,2.715-2.986,4.012c-0.344,0.492-0.509,1.068-0.852,1.533
			c-0.965,1.316-2.132,2.5-2.813,4.012c-2.123,2.533-3.896,5.324-5.802,8.018c-0.949,1.348-2,2.637-2.984,4.014
			c-2.546,3.561-5.407,6.654-8.188,9.896c-1.861,1.578-3.702,3.176-5.288,5.035c-0.188,0.121-0.395,0.229-0.598,0.34
			c-0.34,1.045-0.707,0.602-1.022,1.705c1.043,1.074,1.273,2.588,2.049,4.012c0.826,1.516,1.538,3.225,2.218,4.779
			c1.048,2.4,2.01,4.445,2.813,6.994c0.441,1.406,1.03,2.744,1.535,4.098c0.612,1.639,0.813,3.664,1.194,5.627
			c0.371,1.92,0.882,3.834,1.021,5.633c0.217,2.824,0.351,5.496,0.685,8.533c0.11,1.01,0.381,1.984,0.425,3.242
			c0.175,4.826,1.255,9.67,1.877,14.59c0.63,4.992,1.5,10,2.387,14.676c0.263,1.385,0.85,2.67,0.682,4.094
			c0.909,1.398,0.493,3.332,0.77,5.205c0.048,0.334,0.222,0.625,0.254,0.939c0.089,0.813-0.099,1.607,0,2.391
			c0.061,0.469,0.309,0.902,0.343,1.363c0.21,2.918-0.017,5.82,0.426,8.531c-0.346,3.305,0.12,6.879-0.343,10.41
			c-1.998,1.537-3.831,0.768-6.48,1.279c-1.279-0.467-2.434,0.127-3.665-0.168c-1.318,0.523-3.259,0.113-5.032,0
			c-1.054-0.07-2.154-0.023-3.157-0.086c-0.752-0.049-1.334-0.557-1.96-0.258c-0.594-0.572-1.801-0.529-2.389-1.109
			c-1.124,0.213-2.555-0.506-3.24-1.365c-0.692-0.859-0.559-2.287-0.683-3.584c-0.174-1.83,0.003-3.238-0.086-4.947
			c-0.114-2.258,0.105-4.787-0.086-7.166c-0.076-0.963-0.381-1.889-0.426-2.9c-0.142-3.271-0.412-6.723-0.34-10.068
			c0.016-0.801-0.116-1.592-0.171-2.391c-0.051-0.75,0.127-1.533,0.171-2.303c0.229-4.168-0.828-8.596-1.107-12.969
			c-0.07-1.061-0.038-2.135-0.087-3.156c-0.043-0.914-0.212-1.762-0.257-2.648c-0.025-0.529,0.168-1.082,0.172-1.619
			c0.019-2.389-0.474-5.266-0.597-7.51c-0.094-1.686-0.077-3.438-0.255-5.117c-0.082-0.766-0.34-1.467-0.344-2.219
			c0-0.271,0.169-0.586,0.172-0.852c0.004-0.551-0.168-1.131-0.317-1.729l0.231-0.064c0.146,0.264,0.957,0.121,1.367,0.084
			l0.082-0.014c0.098,0.6,0.21,1.205,0.343,1.809c-0.083,0.227-0.188,0.434-0.257,0.68c1.502,8.658,0.364,17.537,1.705,25.938
			c0.221,1.361,0.372,2.713,0.512,4.01c0.362,3.334,0.095,6.51,0.257,10.752c0.095,2.477,0.048,5.01,0.172,7.51
			c0.201,4.125,0.671,8.018,0.766,11.857c0.037,1.57-0.349,3.135-0.086,4.695c0.102-0.369,0.396-0.096,0.598-0.258
			c1.182,0.68,2.277,0.166,3.669,0.34c0.041,0.006,0.13,0.111,0.152,0.188c-0.025,0.02-0.048,0.041-0.066,0.068
			c0.066,0.012,0.079-0.023,0.066-0.068c0.248-0.201,0.661,0.074,1.124-0.188c-0.007,0.094-0.026,0.182-0.063,0.246
			c-0.052,0.027-0.091,0.061-0.105,0.096c0.045-0.021,0.079-0.055,0.105-0.096c0.343-0.186,1.358-0.201,1.686-0.074
			c-0.06,0.055-0.199,0.75,0.169,0.344c-0.02-0.08-0.359,0.186-0.169-0.174c1.28-0.383,3.081,0.135,4.604,0
			c0.143-0.012,0.543,0.068,0.682,0.086c2.663,0.369,5.474,0.906,8.187,1.195c-0.079-2.76-0.181-6.387-0.426-9.727
			c-0.429-5.857-0.26-11.775-1.28-17.406c-0.158-0.881-0.505-1.748-0.679-2.646c-0.064-0.314,0.047-0.734,0-1.023
			c-0.138-0.773-0.437-1.504-0.513-2.303c-0.12-1.213-0.184-2.52-0.343-3.668c-0.353-2.57-1.457-5.135-1.873-7.682
			c-0.16-0.955-0.169-2.014-0.259-2.984c-0.466-5.025-0.562-10.059-1.791-15.104c-0.436-1.783-1.08-4.428-1.023-6.398
			c-0.45-0.607-0.263-1.535-0.339-2.729c-0.077-1.145-0.33-1.656-0.511-3.072c-0.186-1.418-0.794-2.799-1.109-4.094
			c-0.283-1.154-0.518-2.225-0.854-3.33c-0.709-2.332-1.789-5.025-2.9-7.508c-0.231-0.52-0.302-1.123-0.512-1.621
			c-0.361-0.865-0.952-1.639-1.362-2.475c-0.575-1.172-0.845-2.484-1.537-3.582c-0.68-0.896-1.708-2.539-2.643-3.756
			c-0.464-0.605-1.36-1.146-1.28-1.963c0.051-0.492,0.536-0.709,0.854-0.682c1.144-1.129,2.324-2.225,3.838-2.986
			c0.844-0.998,1.896-1.855,2.813-2.814c0.915-0.957,2.033-1.77,2.813-2.818c0.245-0.324,0.347-0.715,0.598-1.021
			c0.661-0.816,1.557-1.463,2.217-2.305c0.369-0.465,0.582-1.021,0.938-1.451c0.356-0.426,0.82-0.686,1.195-1.107
			c0.477-0.539,0.729-1.313,1.193-1.879c0.28-0.34,0.68-0.527,0.938-0.85c0.276-0.35,0.416-0.758,0.683-1.111
			c1.897-2.518,4.047-5.033,6.14-7.508c1.871-2.213,3.533-4.584,5.372-6.826c0.854-1.678,2.204-2.857,3.157-4.436
			c2.472-2.896,4.523-6.359,6.991-9.557c1.205-1.563,2.138-3.389,3.24-5.035c0.559-0.832,1.22-1.572,1.792-2.389
			c0.882-1.258,1.816-2.391,2.729-3.668c0.225-0.318,0.667-1.008,0.683-1.367c0.149-3.4,0.868-7.295,1.194-10.494
			c-1.131-1.172-2.389-2.215-3.923-2.986c-0.658-0.193-1.782-0.615-2.643-0.854c-0.541-0.146-1.745-0.775-2.218-0.68
			c-0.072,0.012-0.051,0.152,0,0.168c-1.302-0.395-2.022-2.145-0.343-2.389c1.427,0.686,3.84,1.094,5.203,2.049
			c0.118,0.02,0.441,0.053,0.683,0.172c1.235,0.811,2.675,1.416,3.326,2.814c0.568-2.705,0.207-7.412,0.852-10.922l0.857-0.055
			c0.359,2.65,0.003,6.205-0.09,9.184c0.788-0.615,1.751-1.021,2.645-1.537c0.294-0.168,0.539-0.539,0.854-0.68
			c0.272-0.123,0.673-0.146,1.022-0.256c0.321-0.105,0.635-0.162,0.938-0.258c0.571-0.174,1.198-0.529,1.619-0.598
			c0.232-0.039,0.582,0.135,0.855,0.086c0.423-0.076,0.486-0.279,1.194-0.172c0.143,0.021,0.295,0.172,0.34,0.172
			c0.116,0.002,0.403-0.252,0.511-0.254C146.367,49.386,146.589,49.563,146.916,49.573z M132.164,70.903
			c-0.978,1.434-1.992,2.91-2.985,4.438c-0.972,1.5-1.846,3.072-2.899,4.523c-0.41,0.566-0.957,1.004-1.363,1.533
			c-0.813,1.068-1.464,2.365-2.303,3.502c-0.604,0.814-1.426,1.314-1.706,2.473c-1.804,1.832-3.044,4.117-4.773,6.145
			c-0.614,0.711-1.084,1.436-1.624,2.217c-0.931,1.348-2.091,2.697-3.154,4.094c-0.683,0.902-1.379,1.895-2.132,2.732
			c-0.759,0.842-1.622,1.531-2.388,2.389c-0.757,0.844-1.256,1.986-1.96,2.986c-0.358,0.508-0.794,1.029-1.194,1.533
			c-0.811,1.029-1.611,2.076-2.562,3.072c-0.676,0.719-1.43,1.518-1.874,2.561c-1.684,1.332-2.715,3.314-4.266,4.777
			c-1.385,1.629-3.18,2.846-4.603,4.438c-0.893,0.391-1.697,0.863-2.135,1.707c-0.623,0.4-1.258,0.787-1.706,1.365
			c1.421,1.396,2.37,3.262,3.755,4.691c1.141,2.932,2.888,5.75,4.009,8.789c0.127,0.346,0.115,0.771,0.254,1.109
			c0.14,0.342,0.445,0.594,0.598,0.939c0.883,2.021,1.454,4.346,2.045,6.57c0.805,3.02,1.704,6.174,2.049,9.555
			c0.175,1.727,0.493,3.35,0.767,5.035c0.371,2.291,0.892,4.094,1.194,6.652c0.098,0.83,0.285,1.752,0.429,2.646
			c0.14,0.902,0.203,1.922,0.426,2.732c0.193,0.707,0.638,1.426,0.8,2.188c0.048,0.236,0.069,0.471,0.051,0.713
			c-0.025,0.342-0.312,0.697-0.34,1.021c-0.102,1.154,0.493,2.996,0.683,4.014c0.363,1.963,0.385,3.902,0.852,5.885
			c0.063,0.264-0.296,0.105-0.171,0.426c0.664,2.51,0.876,6.354,1.365,8.961c0.458,2.439,1.001,4.732,1.194,7.166
			c0.188,2.377,0.306,4.707,0.683,7.08c-0.415,4.953,0.454,11.283,0.681,16.299c-0.268-0.098-0.207,0.135-0.34,0.17
			c0.648-0.145,0.806,0.211,1.791,0.17c0.082-3.104,0.02-6.305,0-9.641c-0.004-0.523-0.181-1.064-0.172-1.619
			c0.02-0.996,0.058-1.768-0.085-2.99c-0.051-0.428-0.029-0.822-0.086-1.279c-0.118-0.967-0.08-1.688-0.168-2.814
			c-0.049-0.609-0.282-1.293-0.343-1.963c-0.064-0.721-0.007-1.439-0.087-2.133c-0.181-1.613-0.752-3.291-1.108-4.947
			c-1.144-5.369-1.96-10.652-2.729-16.043c-0.409-2.883-0.972-5.656-1.404-8.516c-0.336-2.227-0.594-4.504-0.642-6.928
			c-0.016-0.805-0.175-1.637-0.258-2.473c-0.082-0.871,0.154-1.727,0-2.391c-0.068-0.314-0.329-0.557-0.425-0.852
			c-0.346-1.072-0.178-2.314-0.937-3.328c-0.426-2.822-0.87-6.004-1.28-8.703c-0.169-1.115-0.591-2.154-0.852-3.072
			c-0.324-1.133-0.232-2.377-0.512-3.496c-0.34-1.346-1.08-2.863-1.537-4.268c-0.201-0.615-0.306-1.264-0.511-1.877
			c-0.207-0.617-0.623-1.162-0.767-1.707c-0.202-0.76-0.051-1.646-0.768-2.215c-0.194-0.369-0.105-0.846-0.259-1.281
			c-0.412-1.197-1.616-2.605-2.131-3.926c-0.165-0.432-0.079-0.861-0.254-1.195c-0.159-0.299-0.575-0.539-0.854-0.939
			c-0.33-0.473-0.401-1.076-0.598-1.447c-0.183-0.35-0.606-0.621-0.597-0.941c0.017-0.396,1.251-1.492,1.537-1.791
			c0.642-0.668,1.125-1.115,1.788-1.535c0.764-1.455,2.088-2.43,3.158-3.582c1.086-1.174,2.179-2.311,3.24-3.502
			c1.474-0.969,2.677-2.211,3.582-3.75c1.941-2.225,4.219-4.246,5.883-6.828c0.547-0.846,1.265-1.564,1.792-2.387
			c2.186-3.412,4.657-6.621,6.906-9.984c1.12-1.678,2.471-3.205,3.582-4.863c1.138-1.693,2.26-3.377,3.412-5.033
			C127.623,79.946,129.7,75.265,132.164,70.903z M109.396,231.905c-0.679-0.098-1.684-0.328-2.389-0.338
			c-0.086-0.004-0.257,0.184-0.343,0.17c-0.778-0.129-1.843-0.539-2.896-0.684c-0.227-0.031-0.458,0.023-0.685,0
			c-1.495-0.15-2.372-0.449-4.094-0.682c-0.463-0.064-0.813-0.313-1.448-0.172c-0.08-0.063-0.13-0.156-0.171-0.254
			c-0.194,0.049,0.104,0.131-0.086,0.254c-1.861-0.324-3.307-0.258-5.372-0.598c0.044-0.068,0.09-0.141,0.086-0.256
			c-0.117,0.086-0.172,0.229-0.258,0.342c-0.877-0.26-2.025,0.027-2.982-0.342c-1.061,0.244-2.166,0.25-3.071-0.17
			c0.045,0.395,0.016,1.154,0.086,1.707c1.604,0.275,3.363,1.061,4.52,1.107c0.823,0.035,1.938,0.141,2.764,0.459
			c-0.024-0.02-0.042-0.055-0.035-0.115c1.108-0.02,1.28,0.031,2.389,0.426c-0.063-0.162,0.778-0.148,0.938,0.172
			c0.251-0.348,0.991-0.203,1.28-0.516c0.905,0.258,1.925-0.164,2.982-0.168c1.183-0.006,2.28,0.275,3.412,0
			C105.883,231.792,107.356,232.335,109.396,231.905z M98.649,160.749c-0.171,0.205-0.405-0.143-0.598,0.084
			C98.123,160.858,98.608,161.071,98.649,160.749z M93.193,232.503c0.154-0.107,0.006-0.012-0.096-0.037
			C93.129,232.478,93.16,232.491,93.193,232.503z"/>
		<path fill="#FFFFFF" stroke="#000000" stroke-linecap="round" stroke-linejoin="round" stroke-miterlimit="10" d="M147.173,15.616
			c-0.038,0.006-0.079-0.012-0.107-0.045C147.104,15.585,147.139,15.601,147.173,15.616z"/>
		<path fill="#FFFFFF" stroke="#000000" stroke-linecap="round" stroke-linejoin="round" stroke-miterlimit="10" d="M144.19,208.206
			l0.426,0.066c-0.196,1.15-0.21,2.336-0.428,3.498c-0.944,5.068-1.755,10.143-2.219,15.443c-0.39,0.01-0.6-0.367-1.276-0.258
			c0.355-0.52,0.085-1.041,0.168-1.619c0.14-0.955,0.836-1.828,1.023-2.729c0.237-1.135,0.133-2.455,0.343-3.668
			c0.286-1.648,0.772-3.332,1.108-5.035c0.194-0.975,0.143-2.109,0.34-3.158C143.838,209.894,144.067,208.997,144.19,208.206z"/>
		<path stroke="#000000" stroke-linecap="round" stroke-linejoin="round" stroke-miterlimit="10" d="M144.188,21.589
			c1.285,0.65,0.154,2.436-1.106,2.896c0-0.029-0.124-0.178-0.172-0.164c-0.212,0.041-0.609,0.447-1.025,0.254
			c-0.127-0.127-0.152-0.359-0.34-0.426c0.038,0.16,0.185,0.213,0.172,0.426c-1.141-0.18-2.845-0.779-4.181-0.514
			c-0.128-0.154-0.368-0.199-0.512-0.338c-2.521-0.652-1.55-3.041,0.086-3.588c0.194-0.063,0.699-0.135,0.938-0.168
			c0.267-0.037,1.197-0.082,1.197-0.086c0.587,0.014,0.688,0.369,1.021,0.086c0.154,0.287,0.768,0.02,0.938,0.426
			c0.493-0.434,1.535,0.592,1.621,0.086C143.241,20.888,144.038,20.915,144.188,21.589z M140.861,23.552
			c0.489-0.09,1.538-0.111,2.049-0.941c-0.282-0.322-0.893-1.006-1.279-0.68c-0.127-0.037,0.034-0.111,0-0.256
			c-0.712,0.098-1.077-0.531-1.879-0.172c-0.043-0.129-0.05-0.135-0.253-0.256c-0.124,0.039,0.007,0.074,0,0.17
			c-0.114-0.086-0.318-0.08-0.343-0.254c-0.963,0.025-1.649,0.275-2.387,0.852c-0.002,0.203,0.146,0.25,0.084,0.514
			c0.222,0.045,0.555,0.203,0.343,0.426c0.432-0.307,0.692,0.244,1.194-0.084c0.151,0.332,0.481-0.035,0.68,0.256
			C139.144,22.944,140.455,23.386,140.861,23.552z"/>
		<path fill="#FFFFFF" stroke="#000000" stroke-linecap="round" stroke-linejoin="round" stroke-miterlimit="10" d="M142.91,22.61
			c-0.511,0.83-1.56,0.852-2.049,0.941c-0.406-0.166-1.718-0.607-1.791-0.426c-0.198-0.291-0.528,0.076-0.68-0.256
			c-0.502,0.328-0.763-0.223-1.194,0.084c0.212-0.223-0.121-0.381-0.343-0.426c0.063-0.264-0.086-0.311-0.084-0.514
			c0.737-0.576,1.424-0.826,2.387-0.852c0.024,0.174,0.229,0.168,0.343,0.254c0.007-0.096-0.124-0.131,0-0.17
			c0.203,0.121,0.21,0.127,0.253,0.256c0.802-0.359,1.167,0.27,1.879,0.172c0.034,0.145-0.127,0.219,0,0.256
			C142.018,21.604,142.628,22.288,142.91,22.61z"/>
		<path fill="#FFFFFF" stroke="#000000" stroke-linecap="round" stroke-linejoin="round" stroke-miterlimit="10" d="M141.97,229.433
			c-0.26-0.061-0.312,0.088-0.511,0.086c-0.223,0.486-1.188,1.008-1.448,0.682c-1.979,0.746-4.278,0.166-6.483,0.426
			c-0.312,0.037-0.515,0.285-0.852,0.258c-1.588-0.141-3.332,0.113-4.945-0.086c-0.207,0.113-0.055,0.172-0.172,0.256
			c-0.117-0.053-0.013-0.33-0.172-0.342c-0.969,0.207-2.105,0.309-2.814,0.172c-0.031,0.145,0.128,0.219,0,0.256
			c-1.035-0.398-2.169,0.08-3.154-0.17c0.051-0.008,0.103-0.014,0.086-0.086c-1.134,0.215-3.23-0.188-3.751-1.365
			c0.508,0.059,1.347,0.137,1.706-0.256c2.537,0.049,5.075-0.041,6.906-0.258c0.621-0.072,1.324-0.119,2.047-0.17
			c1.065-0.07,1.881,0.104,2.73,0.086c2.258-0.049,4.624-0.561,6.394-0.254c1.234-0.391,2.566,0.27,4.349-0.088
			C141.868,228.907,141.881,229.21,141.97,229.433z"/>
		<path fill="#FFFFFF" stroke="#000000" stroke-linecap="round" stroke-linejoin="round" stroke-miterlimit="10" d="M137.88,31.657
			c0.041,1.348,0.009,2.236,0,3.326c-0.014,1.15,0.05,2.443-0.086,3.414c-0.035,0.248-0.318,0.697-0.427,1.195
			c-0.324,1.459-0.346,2.553-1.366,2.986c-0.314-0.047-0.308-0.08-0.768-0.086c-1.103-0.293-1.09-1.42-1.448-2.561
			c-0.052-0.162-0.287-0.285-0.341-0.426c-0.273-0.709-0.326-1.705-0.514-2.561c-0.662-3.053-0.648-6.934,0.514-9.129
			c1.252,0.117,2.56-0.006,4.007-0.086C137.305,29.05,137.835,30.312,137.88,31.657z"/>
		<path fill="#FFFFFF" stroke="#000000" stroke-linecap="round" stroke-linejoin="round" stroke-miterlimit="10" d="M137.11,227.64
			c0.184,0.195-0.401,0.1-0.341,0.598c0.064,0.02,0.169,0.002,0.169,0.086c-0.118,0.002-0.187-0.039-0.254-0.086
			c-0.019-0.16,0.096-0.188,0.085-0.34c-0.047,0-0.098-0.07,0-0.086C136.869,228.065,136.844,227.501,137.11,227.64z"/>
		<path fill="#FFFFFF" stroke="#000000" stroke-linecap="round" stroke-linejoin="round" stroke-miterlimit="10" d="M136.142,43.716
			l-0.051,0.002c0-0.008-0.003-0.021-0.003-0.031C136.106,43.696,136.122,43.71,136.142,43.716z"/>
		<path fill="#FFFFFF" stroke="#000000" stroke-linecap="round" stroke-linejoin="round" stroke-miterlimit="10" d="M134.125,43.515
			c0.475,0.359,0.708,0.223,1.108,0.258c-0.645,3.51-0.283,8.217-0.852,10.922c-0.651-1.398-2.091-2.004-3.326-2.814
			c-0.241-0.119-0.564-0.152-0.683-0.172c-1.363-0.955-3.776-1.363-5.203-2.049c-1.68,0.244-0.959,1.994,0.343,2.389
			c-0.051-0.016-0.072-0.156,0-0.168c0.473-0.096,1.677,0.533,2.218,0.68c0.86,0.238,1.984,0.66,2.643,0.854
			c1.534,0.771,2.792,1.814,3.923,2.986c-0.326,3.199-1.045,7.094-1.194,10.494c-0.016,0.359-0.458,1.049-0.683,1.367
			c-0.912,1.277-1.847,2.41-2.729,3.668c-0.572,0.816-1.233,1.557-1.792,2.389c-1.103,1.646-2.035,3.473-3.24,5.035
			c-2.468,3.197-4.52,6.66-6.991,9.557c-0.953,1.578-2.303,2.758-3.157,4.436c-1.839,2.242-3.501,4.613-5.372,6.826
			c-2.093,2.475-4.242,4.99-6.14,7.508c-0.267,0.354-0.406,0.762-0.683,1.111c-0.258,0.322-0.657,0.51-0.938,0.85
			c-0.464,0.566-0.717,1.34-1.193,1.879c-0.375,0.422-0.839,0.682-1.195,1.107c-0.355,0.43-0.568,0.986-0.938,1.451
			c-0.66,0.842-1.556,1.488-2.217,2.305c-0.251,0.307-0.353,0.697-0.598,1.021c-0.78,1.049-1.898,1.861-2.813,2.818
			c-0.918,0.959-1.97,1.816-2.813,2.814c-1.514,0.762-2.694,1.857-3.838,2.986c-0.318-0.027-0.804,0.189-0.854,0.682
			c-0.08,0.816,0.816,1.357,1.28,1.963c0.935,1.217,1.963,2.859,2.643,3.756c0.692,1.098,0.962,2.41,1.537,3.582
			c0.41,0.836,1.001,1.609,1.362,2.475c0.21,0.498,0.28,1.102,0.512,1.621c1.111,2.482,2.191,5.176,2.9,7.508
			c0.337,1.105,0.571,2.176,0.854,3.33c0.315,1.295,0.924,2.676,1.109,4.094c0.181,1.416,0.434,1.928,0.511,3.072
			c0.076,1.193-0.111,2.121,0.339,2.729c-0.057,1.971,0.588,4.615,1.023,6.398c1.229,5.045,1.325,10.078,1.791,15.104
			c0.09,0.971,0.099,2.029,0.259,2.984c0.416,2.547,1.521,5.111,1.873,7.682c0.159,1.148,0.223,2.455,0.343,3.668
			c0.076,0.799,0.375,1.529,0.513,2.303c0.047,0.289-0.064,0.709,0,1.023c0.174,0.898,0.521,1.766,0.679,2.646
			c1.021,5.631,0.852,11.549,1.28,17.406c0.245,3.34,0.347,6.967,0.426,9.727c-2.713-0.289-5.523-0.826-8.187-1.195
			c-0.139-0.018-0.539-0.098-0.682-0.086c-1.522,0.135-3.323-0.383-4.604,0c-0.19,0.359,0.149,0.094,0.169,0.174
			c-0.368,0.406-0.229-0.289-0.169-0.344c-0.327-0.127-1.343-0.111-1.686,0.074c0.036-0.064,0.056-0.152,0.063-0.246
			c-0.463,0.262-0.876-0.014-1.124,0.188c-0.022-0.076-0.111-0.182-0.152-0.188c-1.392-0.174-2.487,0.34-3.669-0.34
			c-0.201,0.162-0.496-0.111-0.598,0.258c-0.263-1.561,0.123-3.125,0.086-4.695c-0.095-3.84-0.564-7.732-0.766-11.857
			c-0.124-2.5-0.077-5.033-0.172-7.51c-0.162-4.242,0.105-7.418-0.257-10.752c-0.14-1.297-0.291-2.648-0.512-4.01
			c-1.341-8.4-0.203-17.279-1.705-25.938c0.069-0.246,0.174-0.453,0.257-0.68c-0.133-0.604-0.245-1.209-0.343-1.809
			c-0.445-2.754-0.572-5.504-0.937-8.434c-0.478-3.82-1.703-6.676-2.558-9.727c-0.076-0.27,0.006-0.584-0.086-0.852
			c-0.305-0.895-0.981-1.563-1.365-2.391c-0.56-1.213-1.04-2.379-1.535-3.498c0.585,0.299,2.032,1.689,3.24,1.453
			c0.21-0.043,0.769-0.445,0.769-0.684c0-0.471-1.001-0.73-1.365-0.941c-1.128-0.641-2.431-1.605-3.412-2.303
			c-0.692-1.328-2.004-2.096-2.386-3.754c-0.828-3.582,0.715-8.215,2.472-10.92c1.782-4.703,4.257-8.715,5.972-13.482
			c1.531-2.625,3.018-5.51,4.349-8.189s2.767-5.088,4.177-7.508c0.479-0.82,0.788-1.707,1.194-2.561
			c0.433-0.906,0.585-1.922,1.023-2.814c0.179-0.357,0.578-0.635,0.769-1.025c0.165-0.336,0.174-0.775,0.34-1.109
			c0.123-0.24,0.387-0.381,0.511-0.598c0.293-0.494,0.287-1.086,0.516-1.533c0.203-0.404,0.565-0.582,0.679-1.025
			c0.083-0.313-0.015-0.656,0.086-0.939c0.115-0.316,0.442-0.576,0.598-0.854c0.88-1.531,1.582-3.328,2.132-4.949
			c0.526-1.547,0.673-3.303,1.194-4.947c0.186-0.584,0.323-1.059,0.425-1.793c0.171-1.223,0.54-2.338,0.854-3.582
			c0.093-0.359,0.159-0.9,0.172-1.281c0.078-2.852,0.712-5.158,0.34-7.678c-0.061-0.412-0.343-0.838-0.34-1.279
			c0.003-0.496,0.32-0.857,0.34-1.365c0.038-1.125-0.216-2.455,0.086-3.84c4.143-0.703,7.833-3.295,10.063-6.824
			c0.557-0.881,1.407-2.256,1.961-3.5c0.349-0.781,0.794-1.836,0.854-2.559c0.153-1.877-0.295-3.678-0.086-5.463
			c1.779,0.006,3.27,0.455,4.775-0.082c2.973,0.486,5.269,0.344,7.76,0.34c0.578,0,1.213,0.137,1.279-0.34
			c0.011,0.215,0.124,0.33,0.343,0.34c1.583-0.299,3.222-0.184,4.86-0.512c0.016,0.975-0.724,1.857-0.854,3.072
			c-0.096,0.904,0.12,1.879,0.085,2.729c-0.031,0.818-0.082,1.48,0.086,2.475C131.882,38.478,132.527,42.312,134.125,43.515z"/>
		<path fill="#FFFFFF" stroke="#000000" stroke-linecap="round" stroke-linejoin="round" stroke-miterlimit="10" d="M134.296,17.747
			c-1.811,2.129-1.788,6.395-2.045,8.363c-1.576,0.018-3.8,0.213-5.801,0.598c-0.035-2.025-0.104-5.377-0.34-7.934
			C128.762,18.269,131.882,18.261,134.296,17.747z"/>
		<path fill="#FFFFFF" stroke="#000000" stroke-linecap="round" stroke-linejoin="round" stroke-miterlimit="10" d="
			M131.311,160.833c0.235-0.182,0.358,0.049,0.597-0.084C131.865,161.071,131.38,160.858,131.311,160.833z"/>
		<path fill="#FFFFFF" stroke="#000000" stroke-linecap="round" stroke-linejoin="round" stroke-miterlimit="10" d="M129.179,75.341
			c0.993-1.527,2.008-3.004,2.985-4.438c-2.464,4.361-4.541,9.043-7.334,13.057c-1.152,1.656-2.274,3.34-3.412,5.033
			c-1.111,1.658-2.462,3.186-3.582,4.863c-2.249,3.363-4.721,6.572-6.906,9.984c-0.527,0.822-1.245,1.541-1.792,2.387
			c-1.664,2.582-3.941,4.604-5.883,6.828c-0.905,1.539-2.108,2.781-3.582,3.75c-1.062,1.191-2.154,2.328-3.24,3.502
			c-1.07,1.152-2.395,2.127-3.158,3.582c-0.663,0.42-1.146,0.867-1.788,1.535c-0.286,0.299-1.521,1.395-1.537,1.791
			c-0.01,0.32,0.414,0.592,0.597,0.941c0.196,0.371,0.268,0.975,0.598,1.447c0.279,0.4,0.695,0.641,0.854,0.939
			c0.175,0.334,0.089,0.764,0.254,1.195c0.515,1.32,1.719,2.729,2.131,3.926c0.153,0.436,0.064,0.912,0.259,1.281
			c0.717,0.568,0.565,1.455,0.768,2.215c0.144,0.545,0.56,1.09,0.767,1.707c0.205,0.613,0.31,1.262,0.511,1.877
			c0.457,1.404,1.197,2.922,1.537,4.268c0.279,1.119,0.188,2.363,0.512,3.496c0.261,0.918,0.683,1.957,0.852,3.072
			c0.41,2.699,0.854,5.881,1.28,8.703c0.759,1.014,0.591,2.256,0.937,3.328c0.096,0.295,0.356,0.537,0.425,0.852
			c0.154,0.664-0.082,1.52,0,2.391c0.083,0.836,0.242,1.668,0.258,2.473c0.048,2.424,0.306,4.701,0.642,6.928l-0.267,0.041
			c-0.162-0.762-0.606-1.48-0.8-2.188c-0.223-0.811-0.286-1.83-0.426-2.732c-0.144-0.895-0.331-1.816-0.429-2.646
			c-0.303-2.559-0.823-4.361-1.194-6.652c-0.273-1.686-0.592-3.309-0.767-5.035c-0.345-3.381-1.244-6.535-2.049-9.555
			c-0.591-2.225-1.162-4.549-2.045-6.57c-0.152-0.346-0.458-0.598-0.598-0.939c-0.139-0.338-0.127-0.764-0.254-1.109
			c-1.121-3.039-2.868-5.857-4.009-8.789c-1.385-1.43-2.334-3.295-3.755-4.691c0.448-0.578,1.083-0.965,1.706-1.365
			c0.438-0.844,1.242-1.316,2.135-1.707c1.423-1.592,3.218-2.809,4.603-4.438c1.551-1.463,2.582-3.445,4.266-4.777
			c0.444-1.043,1.198-1.842,1.874-2.561c0.95-0.996,1.751-2.043,2.562-3.072c0.4-0.504,0.836-1.025,1.194-1.533
			c0.704-1,1.203-2.143,1.96-2.986c0.766-0.857,1.629-1.547,2.388-2.389c0.753-0.838,1.449-1.83,2.132-2.732
			c1.063-1.396,2.224-2.746,3.154-4.094c0.54-0.781,1.01-1.506,1.624-2.217c1.729-2.027,2.97-4.313,4.773-6.145
			c0.28-1.158,1.102-1.658,1.706-2.473c0.839-1.137,1.489-2.434,2.303-3.502c0.406-0.529,0.953-0.967,1.363-1.533
			C127.333,78.413,128.207,76.841,129.179,75.341z"/>
		<path fill="#FFFFFF" stroke="#000000" stroke-linecap="round" stroke-linejoin="round" stroke-miterlimit="10" d="
			M128.839,227.376c0,0.004,0,0.006,0,0.01c-0.041,0.016-0.066,0.025-0.079,0.029C128.77,227.405,128.798,227.392,128.839,227.376z"
			/>
		<path fill="#FFFFFF" stroke="#000000" stroke-linecap="round" stroke-linejoin="round" stroke-miterlimit="10" d="
			M125.768,227.726c0.024-0.047,0.065-0.086,0.117-0.117C125.863,227.653,125.821,227.694,125.768,227.726z"/>
		<path fill="#FFFFFF" stroke="#000000" stroke-linecap="round" stroke-linejoin="round" stroke-miterlimit="10" d="M124.489,18.688
			c0.392,2.629,0.118,5.088,0.341,8.105c-0.647-0.123-1.038,0.086-1.62-0.086c0.41-1.982-0.403-5.002,0-8.02
			C123.689,18.749,123.991,18.8,124.489,18.688z"/>
		<path fill="#FFFFFF" stroke="#000000" stroke-linecap="round" stroke-linejoin="round" stroke-miterlimit="10" d="M121.59,18.774
			c-0.302,2.426,0.074,5.689,0.169,7.85c-2.113-0.223-4.765-0.232-6.395-0.086c0.464,0.238,0,0.127-0.171-0.086
			c-3.526-0.146-5.713,0.027-8.272-0.172c0.099-0.127,0.248-0.207,0.257-0.426c-0.113-2.5-0.164-4.117-0.342-6.482
			c2.306,0.209,4.398-0.041,6.482-0.258c0.368-0.039,0.648,0.025,0.937,0c0.223-0.02,0.448-0.213,0.685-0.254
			c0.974-0.176,2.093,0.117,3.068,0c0.215-0.029,0.371-0.223,0.597-0.258c0.688-0.107,1.509,0.48,2.216,0
			C121.177,18.771,121.375,18.704,121.59,18.774z"/>
		<path fill="#FFFFFF" stroke="#000000" stroke-linecap="round" stroke-linejoin="round" stroke-miterlimit="10" d="M111.441,28.157
			c-0.149,0.756,0.086,1.182-0.171,1.709c0.606,1.826,0.369,3.311,0,4.863c-1.596,2.582-2.597,5.766-5.286,7.252
			c-0.013,0.27-0.318,0.25-0.344,0.512c-0.486-0.031-0.463,0.445-0.937,0.426c-0.712,1.08-2.407,1.172-3.497,1.877
			c-0.34-0.166-0.712-0.018-0.938,0.086c0.051-0.83,0.146-1.816,0.086-2.986c0.27,0.014,0.375,0.193,0.684,0.172
			c1.619-0.494,3.306-1.684,4.516-3.072c0.273-0.314,0.389-0.82,0.684-1.193c0.598-0.756,1.261-1.369,1.537-2.135
			c0.855-2.385,1.334-5.023,1.023-7.596C109.494,28.151,110.498,27.903,111.441,28.157z"/>
		<path fill="#FFFFFF" stroke="#000000" stroke-linecap="round" stroke-linejoin="round" stroke-miterlimit="10" d="M109.31,220.56
			c0.02,3.336,0.082,6.537,0,9.641c-0.985,0.041-1.143-0.314-1.791-0.17c0.133-0.035,0.072-0.268,0.34-0.17
			c-0.227-5.016-1.096-11.346-0.681-16.299c-0.377-2.373-0.495-4.703-0.683-7.08c-0.193-2.434-0.736-4.727-1.194-7.166
			c-0.489-2.607-0.701-6.451-1.365-8.961c-0.125-0.32,0.234-0.162,0.171-0.426c-0.467-1.982-0.488-3.922-0.852-5.885
			c-0.189-1.018-0.784-2.859-0.683-4.014c0.028-0.324,0.314-0.68,0.34-1.021c0.019-0.242-0.003-0.477-0.051-0.713l0.267-0.041
			c0.433,2.859,0.995,5.633,1.404,8.516c0.769,5.391,1.585,10.674,2.729,16.043c0.356,1.656,0.928,3.334,1.108,4.947
			c0.08,0.693,0.022,1.412,0.087,2.133c0.061,0.67,0.294,1.354,0.343,1.963c0.088,1.127,0.05,1.848,0.168,2.814
			c0.057,0.457,0.035,0.852,0.086,1.279c0.143,1.223,0.104,1.994,0.085,2.99C109.129,219.495,109.306,220.036,109.31,220.56z"/>
		<path fill="#FFFFFF" stroke="#000000" stroke-linecap="round" stroke-linejoin="round" stroke-miterlimit="10" d="
			M107.007,231.567c0.705,0.01,1.71,0.24,2.389,0.338c-2.039,0.43-3.513-0.113-5.374,0.344c-1.132,0.275-2.229-0.006-3.412,0
			c-1.058,0.004-2.077,0.426-2.982,0.168c-0.289,0.313-1.029,0.168-1.28,0.516c-0.159-0.32-1.001-0.334-0.938-0.172
			c-1.108-0.395-1.28-0.445-2.389-0.426c-0.007,0.061,0.011,0.096,0.035,0.115c-0.825-0.318-1.94-0.424-2.764-0.459
			c-1.156-0.047-2.916-0.832-4.52-1.107c-0.07-0.553-0.041-1.313-0.086-1.707c0.905,0.42,2.011,0.414,3.071,0.17
			c0.957,0.369,2.105,0.082,2.982,0.342c0.086-0.113,0.141-0.256,0.258-0.342c0.004,0.115-0.042,0.188-0.086,0.256
			c2.065,0.34,3.511,0.273,5.372,0.598c0.19-0.123-0.108-0.205,0.086-0.254c0.041,0.098,0.091,0.191,0.171,0.254
			c0.636-0.141,0.985,0.107,1.448,0.172c1.722,0.232,2.599,0.531,4.094,0.682c0.227,0.023,0.458-0.031,0.685,0
			c1.054,0.145,2.118,0.555,2.896,0.684C106.75,231.751,106.921,231.563,107.007,231.567z"/>
		<path fill="#FFFFFF" stroke="#000000" stroke-linecap="round" stroke-linejoin="round" stroke-miterlimit="10" d="M107.348,27.989
			c-0.091,1.086-0.354,1.883-0.17,2.984c-0.559,0.92-0.381,2.197-0.769,3.498c-0.463,1.551-1.87,2.549-2.557,3.842
			c-0.571,0.396-1.125,0.809-1.537,1.361c-0.677,0.35-1.198,0.852-2.046,1.025c0.215-4.965,0.047-9.086-0.085-13.736
			C102.63,27.304,105.113,27.796,107.348,27.989z"/>
		<path fill="#FFFFFF" stroke="#000000" stroke-linecap="round" stroke-linejoin="round" stroke-miterlimit="10" d="M105.301,19.372
			c0.058,1.857,0.025,4.18,0.172,6.738c-0.288-0.023-0.492-0.135-0.855-0.084c0.02-2.121-0.053-4.203-0.253-6.74
			C104.79,19.296,104.983,19.159,105.301,19.372z"/>
		<path fill="#FFFFFF" stroke="#000000" stroke-linecap="round" stroke-linejoin="round" stroke-miterlimit="10" d="M103.083,21.675
			c-0.37,1.104,0.198,3.209,0,4.18c-0.905-0.336-1.947-0.314-2.813-0.512c-0.003-1.883-0.033-4.145,0.086-5.971
			c0.924-0.137,1.709,0.107,2.472-0.086C102.878,20.276,102.919,20.741,103.083,21.675z"/>
		<path fill="#FFFFFF" stroke="#000000" stroke-linecap="round" stroke-linejoin="round" stroke-miterlimit="10" d="M98.052,160.833
			c0.192-0.227,0.427,0.121,0.598-0.084C98.608,161.071,98.123,160.858,98.052,160.833z"/>
		<path fill="#FFFFFF" stroke="#000000" stroke-linecap="round" stroke-linejoin="round" stroke-miterlimit="10" d="M93.098,232.466
			c0.102,0.025,0.25-0.07,0.096,0.037C93.16,232.491,93.129,232.478,93.098,232.466z"/>
		<path fill="#FFFFFF" stroke="#000000" stroke-linecap="round" stroke-linejoin="round" stroke-miterlimit="10" d="M90.995,228.397
			c-0.026,0.041-0.061,0.074-0.105,0.096C90.904,228.458,90.943,228.425,90.995,228.397z"/>
		<path fill="#FFFFFF" stroke="#000000" stroke-linecap="round" stroke-linejoin="round" stroke-miterlimit="10" d="M89.934,228.339
			c0.013,0.045,0,0.08-0.066,0.068C89.886,228.38,89.908,228.358,89.934,228.339z"/>
		<path fill="#FFFFFF" stroke="#000000" stroke-linecap="round" stroke-linejoin="round" stroke-miterlimit="10" d="M80.654,160.749
			c0.344,0.121,0.963-0.043,1.367,0.084C81.611,160.87,80.801,161.013,80.654,160.749z"/>
	</g>
</g>
</svg>
