<?xml version="1.0" encoding="utf-8"?>
<!-- Generator: Adobe Illustrator 15.0.0, SVG Export Plug-In . SVG Version: 6.00 Build 0)  -->
<!DOCTYPE svg PUBLIC "-//W3C//DTD SVG 1.1//EN" "http://www.w3.org/Graphics/SVG/1.1/DTD/svg11.dtd">
<svg version="1.1" id="Ebene_1" xmlns="http://www.w3.org/2000/svg" xmlns:xlink="http://www.w3.org/1999/xlink" x="0px" y="0px"
	 width="250px" height="250px" viewBox="0 0 250 250" enable-background="new 0 0 250 250" xml:space="preserve">
<g>
	<defs>
		<rect id="SVGID_1_" width="250" height="250"/>
	</defs>
	<clipPath id="SVGID_2_">
		<use xlink:href="#SVGID_1_"  overflow="visible"/>
	</clipPath>
	<g clip-path="url(#SVGID_2_)">
		<defs>
			<path id="SVGID_3_" d="M61.062,220.261c0,0-10.433-10.219,3.919-15.712c-0.288-0.31-0.732-0.452-1.281-0.452
				C58.595,204.097,44.373,216.377,61.062,220.261"/>
		</defs>
		<clipPath id="SVGID_4_">
			<use xlink:href="#SVGID_3_"  overflow="visible"/>
		</clipPath>
		<defs>
			<filter id="Adobe_OpacityMaskFilter" filterUnits="userSpaceOnUse" x="40.439" y="197.944" width="28.476" height="28.469">
				<feColorMatrix  type="matrix" values="1 0 0 0 0  0 1 0 0 0  0 0 1 0 0  0 0 0 1 0"/>
			</filter>
		</defs>
		<mask maskUnits="userSpaceOnUse" x="40.439" y="197.944" width="28.476" height="28.469" id="SVGID_5_">
			<g filter="url(#Adobe_OpacityMaskFilter)">
				
					<linearGradient id="SVGID_6_" gradientUnits="userSpaceOnUse" x1="0" y1="250.3828" x2="1" y2="250.3828" gradientTransform="matrix(3.5833 13.5622 -12.241 3.9675 3117.249 -790.1925)">
					<stop  offset="0" style="stop-color:#FFFFFF"/>
					<stop  offset="1" style="stop-color:#000000"/>
				</linearGradient>
				<polygon clip-path="url(#SVGID_4_)" fill="url(#SVGID_6_)" points="40.439,205.372 45.999,226.413 68.915,218.986 
					63.355,197.944 				"/>
			</g>
		</mask>
		
			<linearGradient id="SVGID_7_" gradientUnits="userSpaceOnUse" x1="0" y1="250.3828" x2="1" y2="250.3828" gradientTransform="matrix(3.5833 13.5622 -12.241 3.9675 3117.2507 -790.1943)">
			<stop  offset="0" style="stop-color:#FFFFFF"/>
			<stop  offset="1" style="stop-color:#FFFFFF"/>
		</linearGradient>
		<polygon clip-path="url(#SVGID_4_)" mask="url(#SVGID_5_)" fill="url(#SVGID_7_)" points="40.439,205.372 45.999,226.413 
			68.915,218.986 63.355,197.944 		"/>
	</g>
	<g clip-path="url(#SVGID_2_)">
		<defs>
			<rect id="SVGID_8_" width="250" height="250"/>
		</defs>
		<clipPath id="SVGID_9_">
			<use xlink:href="#SVGID_8_"  overflow="visible"/>
		</clipPath>
		<path clip-path="url(#SVGID_9_)" d="M127.049,29.738c-11.531,0-21.248,6.544-26.646,15.857c-3.928-1.977-8.172-3.378-12.868-3.378
			c-16.074,0-29.117,13.039-29.117,29.116c0,16.069,13.043,29.116,29.117,29.116c10.065,0,18.428-5.491,23.657-13.258
			c4.716,2.867,9.939,4.94,15.857,4.94c3.799,0,7.293-0.967,10.66-2.21c2.123,3.607,4.902,6.568,8.318,8.968
			c-0.029,0.54-0.26,1.008-0.26,1.56c0,16.069,13.043,29.117,29.115,29.117c16.074,0,29.117-13.048,29.117-29.117
			c0-9.858-5.236-18.133-12.738-23.397c0.029-0.544,0.26-1.011,0.26-1.56c0-16.077-13.043-29.116-29.118-29.116
			c-2.585,0-4.884,0.922-7.276,1.559C150.158,37.293,139.564,29.738,127.049,29.738"/>
		<path clip-path="url(#SVGID_9_)" fill="#FFFFFF" d="M127.049,33.897c-11.564,0-21.354,7.328-25.217,17.548
			c-4.097-2.953-8.867-5.069-14.297-5.069c-13.775,0-24.957,11.178-24.957,24.957c0,13.774,11.182,24.957,24.957,24.957
			c10.098,0,18.688-6.057,22.618-14.689c4.662,3.815,10.41,6.369,16.896,6.369c4.473,0,8.502-1.328,12.219-3.249
			c1.658,4.159,4.578,7.425,8.059,10.139c-0.746,2.477-1.559,4.947-1.559,7.669c0,14.924,12.113,27.037,27.037,27.037
			s27.035-12.113,27.035-27.037c0-9.822-5.547-18.011-13.387-22.747c0.26-1.447,0.908-2.771,0.908-4.29
			c0-13.779-11.182-24.957-24.958-24.957c-3.544,0-6.948,0.74-10.007,2.08C148.846,41.827,139.02,33.897,127.049,33.897"/>
		<path clip-path="url(#SVGID_9_)" fill="#FFFFFF" d="M156.227,81.731c-9.447,0-17.096,6.446-19.627,15.079
			c-2.885-1.516-6.012-2.6-9.488-2.6c-11.481,0-20.799,9.314-20.799,20.797c0,2.405,0.674,4.607,1.43,6.759
			c-5.711,3.201-9.748,9.104-9.748,16.118c0,10.33,8.384,18.718,18.716,18.718h79.032c10.334,0,18.717-8.388,18.717-18.718
			c0-7.015-4.037-12.917-9.748-16.118c0.756-2.152,1.43-4.354,1.43-6.759c0-11.483-9.318-20.797-20.797-20.797
			c-3.482,0-6.605,1.084-9.488,2.6C173.32,88.177,165.672,81.731,156.227,81.731"/>
		<path clip-path="url(#SVGID_9_)" fill="none" stroke="#000000" stroke-width="4.16" stroke-miterlimit="2" d="M156.227,81.731
			c-9.447,0-17.096,6.446-19.627,15.079c-2.885-1.516-6.012-2.6-9.488-2.6c-11.481,0-20.799,9.314-20.799,20.797
			c0,2.405,0.674,4.607,1.43,6.759c-5.711,3.201-9.748,9.104-9.748,16.118c0,10.33,8.384,18.718,18.716,18.718h79.032
			c10.334,0,18.717-8.388,18.717-18.718c0-7.015-4.037-12.917-9.748-16.118c0.756-2.152,1.43-4.354,1.43-6.759
			c0-11.483-9.318-20.797-20.797-20.797c-3.482,0-6.605,1.084-9.488,2.6C173.32,88.177,165.672,81.731,156.227,81.731z"/>
	</g>
	<g clip-path="url(#SVGID_2_)">
		<defs>
			<path id="SVGID_10_" d="M137.943,99.8c-2.781-1.43-6.438-3.469-9.793-3.469c-11.3,0-19.781,8.066-19.781,18.905
				c0,2.274,1.111,5.548,1.84,7.58c-5.507,3.03-10.134,7.863-10.134,14.03c0,9.757,6.429,17.678,18.046,17.678h76.207
				c11.529,0,18.053-7.921,18.053-17.678c0-6.626-4.631-11.094-10.138-14.12c0.729-2.032,1.933-5.216,1.933-7.49
				c0-10.839-8.803-18.995-19.873-18.995c-3.354,0-6.832,2.032-9.608,3.461c-2.698-10.069-9.36-15.891-18.468-15.891
				S140.738,89.368,137.943,99.8"/>
		</defs>
		<clipPath id="SVGID_11_">
			<use xlink:href="#SVGID_10_"  overflow="visible"/>
		</clipPath>
		<defs>
			<filter id="Adobe_OpacityMaskFilter_1_" filterUnits="userSpaceOnUse" x="67.796" y="32.545" width="176.863" height="173.243">
				<feColorMatrix  type="matrix" values="1 0 0 0 0  0 1 0 0 0  0 0 1 0 0  0 0 0 1 0"/>
			</filter>
		</defs>
		<mask maskUnits="userSpaceOnUse" x="67.796" y="32.545" width="176.863" height="173.243" id="SVGID_12_">
			<g filter="url(#Adobe_OpacityMaskFilter_1_)">
				
					<linearGradient id="SVGID_13_" gradientUnits="userSpaceOnUse" x1="0" y1="249.8857" x2="1" y2="249.8857" gradientTransform="matrix(58.2623 37.7766 -37.7766 58.2623 9559.6582 -14463.3955)">
					<stop  offset="0" style="stop-color:#FFFFFF"/>
					<stop  offset="1" style="stop-color:#000000"/>
				</linearGradient>
				<polygon clip-path="url(#SVGID_11_)" fill="url(#SVGID_13_)" points="67.796,133.594 179.141,205.788 244.659,104.74 
					133.314,32.545 				"/>
			</g>
		</mask>
		
			<linearGradient id="SVGID_14_" gradientUnits="userSpaceOnUse" x1="0" y1="249.8857" x2="1" y2="249.8857" gradientTransform="matrix(58.2623 37.7766 -37.7766 58.2623 9559.6582 -14463.3955)">
			<stop  offset="0" style="stop-color:#FFFFFF"/>
			<stop  offset="1" style="stop-color:#FFFFFF"/>
		</linearGradient>
		<polygon clip-path="url(#SVGID_11_)" mask="url(#SVGID_12_)" fill="url(#SVGID_14_)" points="67.796,133.594 179.141,205.788 
			244.659,104.74 133.314,32.545 		"/>
	</g>
	<g clip-path="url(#SVGID_2_)">
		<defs>
			<rect id="SVGID_15_" width="250" height="250"/>
		</defs>
		<clipPath id="SVGID_16_">
			<use xlink:href="#SVGID_15_"  overflow="visible"/>
		</clipPath>
		<path clip-path="url(#SVGID_16_)" d="M208.037,115.698c-0.004,11.163-13.596,15.444-13.596,15.444s9.766-6.759,9.717-15.413
			L208.037,115.698z"/>
		<path clip-path="url(#SVGID_16_)" fill="#FFFFFF" d="M93.773,65.024c-9.443,0-17.098,6.446-19.627,15.078
			c-2.881-1.515-6.008-2.599-9.49-2.599c-11.479,0-20.797,9.318-20.797,20.797c0,2.41,0.678,4.611,1.43,6.759
			c-5.715,3.205-9.748,9.104-9.748,16.118c0,10.331,8.386,18.718,18.716,18.718h79.032c10.334,0,18.717-8.388,18.717-18.718
			c0-7.014-4.033-12.913-9.748-16.118c0.756-2.148,1.43-4.349,1.43-6.759c0-11.479-9.314-20.797-20.797-20.797
			c-3.482,0-6.605,1.084-9.49,2.599C110.872,71.47,103.216,65.024,93.773,65.024"/>
		<path clip-path="url(#SVGID_16_)" fill="none" stroke="#000000" stroke-width="4.16" stroke-miterlimit="2" d="M93.773,65.024
			c-9.443,0-17.098,6.446-19.627,15.078c-2.881-1.515-6.008-2.599-9.49-2.599c-11.479,0-20.797,9.318-20.797,20.797
			c0,2.41,0.678,4.611,1.43,6.759c-5.715,3.205-9.748,9.104-9.748,16.118c0,10.331,8.386,18.718,18.716,18.718h79.032
			c10.334,0,18.717-8.388,18.717-18.718c0-7.014-4.033-12.913-9.748-16.118c0.756-2.148,1.43-4.349,1.43-6.759
			c0-11.479-9.314-20.797-20.797-20.797c-3.482,0-6.605,1.084-9.49,2.599C110.872,71.47,103.216,65.024,93.773,65.024z"/>
		<path clip-path="url(#SVGID_16_)" d="M145.584,98.991c-0.004,11.167-13.596,15.448-13.596,15.448s9.77-6.763,9.721-15.412
			L145.584,98.991z"/>
		<path clip-path="url(#SVGID_16_)" fill="#FFFFFF" d="M71.135,160.837c0,3.85-3.121,6.965-6.969,6.965
			c-3.844,0-6.965-3.115-6.965-6.965c0-3.847,3.121-6.963,6.965-6.963C68.014,153.874,71.135,156.99,71.135,160.837"/>
		<path clip-path="url(#SVGID_16_)" fill="none" stroke="#000000" stroke-width="4" stroke-miterlimit="1" d="M71.135,160.837
			c0,3.85-3.121,6.965-6.969,6.965c-3.844,0-6.965-3.115-6.965-6.965c0-3.847,3.121-6.963,6.965-6.963
			C68.014,153.874,71.135,156.99,71.135,160.837z"/>
		<path clip-path="url(#SVGID_16_)" fill="#FFFFFF" d="M108.041,177.017c0,5.141-4.166,9.303-9.303,9.303
			c-5.136,0-9.302-4.162-9.302-9.303c0-5.137,4.166-9.299,9.302-9.299C103.875,167.718,108.041,171.88,108.041,177.017"/>
		<path clip-path="url(#SVGID_16_)" fill="none" stroke="#000000" stroke-width="4" stroke-miterlimit="1" d="M108.041,177.017
			c0,5.141-4.166,9.303-9.303,9.303c-5.136,0-9.302-4.162-9.302-9.303c0-5.137,4.166-9.299,9.302-9.299
			C103.875,167.718,108.041,171.88,108.041,177.017z"/>
		<path clip-path="url(#SVGID_16_)" fill="#FFFFFF" d="M75.508,197.742c0,3.834-3.063,6.95-6.834,6.95s-6.83-3.116-6.83-6.95
			s3.059-6.946,6.83-6.946S75.508,193.908,75.508,197.742"/>
		<path clip-path="url(#SVGID_16_)" fill="none" stroke="#000000" stroke-width="4" stroke-miterlimit="1" d="M75.508,197.742
			c0,3.834-3.063,6.95-6.834,6.95s-6.83-3.116-6.83-6.95s3.059-6.946,6.83-6.946S75.508,193.908,75.508,197.742z"/>
		<path clip-path="url(#SVGID_16_)" fill="#FFFFFF" d="M209.033,183.827c0,3.816-3.107,6.91-6.934,6.91
			c-3.824,0-6.932-3.094-6.932-6.91s3.107-6.911,6.932-6.911C205.926,176.916,209.033,180.011,209.033,183.827"/>
		<path clip-path="url(#SVGID_16_)" fill="none" stroke="#000000" stroke-width="4" stroke-miterlimit="1" d="M209.033,183.827
			c0,3.816-3.107,6.91-6.934,6.91c-3.824,0-6.932-3.094-6.932-6.91s3.107-6.911,6.932-6.911
			C205.926,176.916,209.033,180.011,209.033,183.827z"/>
		<path clip-path="url(#SVGID_16_)" fill="#FFFFFF" d="M158.174,165.558c0,6.268-5.033,11.351-11.248,11.351
			s-11.246-5.083-11.246-11.351c0-6.269,5.031-11.351,11.246-11.351S158.174,159.289,158.174,165.558"/>
		<path clip-path="url(#SVGID_16_)" fill="none" stroke="#000000" stroke-width="4" stroke-miterlimit="1" d="M158.174,165.558
			c0,6.268-5.033,11.351-11.248,11.351s-11.246-5.083-11.246-11.351c0-6.269,5.031-11.351,11.246-11.351
			S158.174,159.289,158.174,165.558z"/>
		<path clip-path="url(#SVGID_16_)" fill="#FFFFFF" d="M181.373,198.429c0,5.904-5.131,10.688-11.457,10.688
			s-11.459-4.784-11.459-10.688s5.133-10.686,11.459-10.686S181.373,192.524,181.373,198.429"/>
		
			<ellipse clip-path="url(#SVGID_16_)" fill="none" stroke="#000000" stroke-width="4" stroke-miterlimit="1" cx="169.915" cy="198.429" rx="11.458" ry="10.688"/>
		<path clip-path="url(#SVGID_16_)" fill="#FFFFFF" d="M130.834,202.219c0,3.821-3.115,6.91-6.963,6.91
			c-3.85,0-6.965-3.089-6.965-6.91s3.115-6.915,6.965-6.915C127.719,195.304,130.834,198.397,130.834,202.219"/>
		<path clip-path="url(#SVGID_16_)" fill="none" stroke="#000000" stroke-width="4" stroke-miterlimit="1" d="M130.834,202.219
			c0,3.821-3.115,6.91-6.963,6.91c-3.85,0-6.965-3.089-6.965-6.91s3.115-6.915,6.965-6.915
			C127.719,195.304,130.834,198.397,130.834,202.219z"/>
	</g>
</g>
</svg>
