<?xml version="1.0" encoding="utf-8"?>
<!-- Generator: Adobe Illustrator 16.0.0, SVG Export Plug-In . SVG Version: 6.00 Build 0)  -->
<!DOCTYPE svg PUBLIC "-//W3C//DTD SVG 1.1//EN" "http://www.w3.org/Graphics/SVG/1.1/DTD/svg11.dtd">
<svg version="1.1" id="Ebene_1" xmlns="http://www.w3.org/2000/svg" xmlns:xlink="http://www.w3.org/1999/xlink" x="0px" y="0px"
	 width="150px" height="150px" viewBox="0 0 150 150" enable-background="new 0 0 150 150" xml:space="preserve">
<g>
	<circle fill="#EDDAAB" stroke="#000000" stroke-width="8" stroke-miterlimit="10" cx="75" cy="75" r="59.334"/>
</g>
<g>
	<path fill="#FFED00" stroke="#000000" stroke-width="3.6789" stroke-miterlimit="10" d="M90.085,67.424
		c0,2.712-2.197,4.91-4.91,4.91H64.95c-2.713,0-4.909-2.198-4.909-4.91V51.798c0-2.712,2.196-4.91,4.909-4.91h20.225
		c2.713,0,4.91,2.198,4.91,4.91V67.424z"/>
	
		<path fill="#B2B2B2" stroke="#030303" stroke-width="3.6789" stroke-linecap="round" stroke-linejoin="round" stroke-miterlimit="10" d="
		M106.884,98.202c0,2.713-2.199,4.91-4.911,4.91H48.026c-2.713,0-4.91-2.197-4.91-4.91V60.503c0-2.712,2.197-4.91,4.91-4.91h53.946
		c2.712,0,4.911,2.198,4.911,4.91V98.202z"/>
	
		<ellipse fill="#878787" stroke="#000000" stroke-width="3.6828" stroke-miterlimit="10" cx="75.063" cy="79.316" rx="15.766" ry="16.614"/>
</g>
</svg>
