<?xml version="1.0" encoding="utf-8"?>
<!-- Generator: Adobe Illustrator 16.0.0, SVG Export Plug-In . SVG Version: 6.00 Build 0)  -->
<!DOCTYPE svg PUBLIC "-//W3C//DTD SVG 1.1//EN" "http://www.w3.org/Graphics/SVG/1.1/DTD/svg11.dtd">
<svg version="1.1" id="Ebene_1" xmlns="http://www.w3.org/2000/svg" xmlns:xlink="http://www.w3.org/1999/xlink" x="0px" y="0px"
	 width="150px" height="150px" viewBox="0 0 150 150" enable-background="new 0 0 150 150" xml:space="preserve">
<g>
	<path fill="none" stroke="#072172" stroke-width="4" stroke-miterlimit="10" d="M44.312,32.667"/>
	<path fill="none" stroke="#072172" stroke-width="4" stroke-miterlimit="10" d="M32.645,49.667"/>
	<path fill="none" stroke="#072172" stroke-width="4" stroke-miterlimit="10" d="M40.312,59"/>
	<path fill="none" stroke="#072172" stroke-width="4" stroke-miterlimit="10" d="M38.312,68.667"/>
	<path fill="none" stroke="#072172" stroke-width="4" stroke-miterlimit="10" d="M35.978,80.333"/>
	<path fill="none" stroke="#072172" stroke-width="4" stroke-miterlimit="10" d="M124.645,95.667"/>
	<path fill="none" stroke="#072172" stroke-width="4" stroke-miterlimit="10" d="M47.312,95.667"/>
	<path fill="none" stroke="#072172" stroke-width="4" stroke-miterlimit="10" d="M121.645,104"/>
	<path fill="none" stroke="#072172" stroke-width="4" stroke-miterlimit="10" d="M38.312,104"/>
	<rect x="52.485" y="56.18" fill="none" width="45.695" height="26.309"/>
	<path fill="none" stroke="#072172" stroke-width="4" stroke-miterlimit="10" d="M106.333,32.667"/>
	<path fill="none" stroke="#072172" stroke-width="4" stroke-miterlimit="10" d="M38.667,32.667"/>
	<path fill="none" stroke="#072172" stroke-width="4" stroke-miterlimit="10" d="M115.333,49.667"/>
	<path fill="none" stroke="#072172" stroke-width="4" stroke-miterlimit="10" d="M27,49.667"/>
	<path fill="none" stroke="#072172" stroke-width="4" stroke-miterlimit="10" d="M116,59"/>
	<path fill="none" stroke="#072172" stroke-width="4" stroke-miterlimit="10" d="M34.667,59"/>
	<path fill="none" stroke="#072172" stroke-width="4" stroke-miterlimit="10" d="M112,68.667"/>
	<path fill="none" stroke="#072172" stroke-width="4" stroke-miterlimit="10" d="M32.667,68.667"/>
	<path fill="none" stroke="#072172" stroke-width="4" stroke-miterlimit="10" d="M114.667,80.333"/>
	<path fill="none" stroke="#072172" stroke-width="4" stroke-miterlimit="10" d="M30.333,80.333"/>
	<path fill="none" stroke="#072172" stroke-width="4" stroke-miterlimit="10" d="M119,95.667"/>
	<path fill="none" stroke="#072172" stroke-width="4" stroke-miterlimit="10" d="M41.667,95.667"/>
	<path fill="none" stroke="#072172" stroke-width="4" stroke-miterlimit="10" d="M116,104"/>
	<path fill="none" stroke="#072172" stroke-width="4" stroke-miterlimit="10" d="M32.667,104"/>
	<circle fill="#EDDAAB" stroke="#000000" stroke-width="8" stroke-miterlimit="10" cx="75" cy="75" r="59.333"/>
	<path fill="#009B3E" stroke="#009B3E" stroke-width="4" stroke-linecap="round" stroke-miterlimit="10" d="M77.84,76.239
		c2.545-3.499,16.225-8.907,21.314-7.635s20.359,15.588,20.359,19.724c0,4.135-31.494,0-31.494,0S75.295,79.739,77.84,76.239z"/>
	<path fill="#009B3E" stroke="#009B3E" stroke-width="4" stroke-linecap="round" stroke-miterlimit="10" d="M40.621,72.74
		c-2.228-2.545,10.498-9.226,15.588-9.543c5.09-0.318,18.769,9.225,20.042,13.042c1.271,3.818-7.635,4.136-7.635,4.136
		S42.847,75.285,40.621,72.74z"/>
	<path fill="#C0D23E" stroke="#C0D23E" stroke-width="4" stroke-linecap="round" stroke-miterlimit="10" d="M27.895,89.918
		c6.045,2.545,15.588-1.272,15.588-1.272l20.996,5.408l32.449-3.181c0,0,23.858,7.317,25.131,3.817s-8.907-12.407-13.68-13.997
		c-4.771-1.591-9.543,2.545-25.768,1.909C66.388,81.966,66.07,67.968,50.8,70.513S21.852,87.374,27.895,89.918z"/>
	<path fill="#009FE3" stroke="#009FE3" stroke-width="4" stroke-linecap="round" stroke-miterlimit="10" d="M29.379,92.57
		c0,0,6.682-2.333,13.574-1.697s14.527,5.09,19.936,6.362s25.959-5.415,37.326-4.242s20.359,5.09,20.359,5.09"/>
	
		<line fill="none" stroke="#AD8F6C" stroke-width="4" stroke-linecap="round" stroke-miterlimit="10" x1="40.302" y1="58.425" x2="40.302" y2="71.786"/>
	
		<line fill="none" stroke="#AD8F6C" stroke-width="4" stroke-linecap="round" stroke-miterlimit="10" x1="48.891" y1="55.88" x2="48.891" y2="69.559"/>
	
		<line fill="none" stroke="#AD8F6C" stroke-width="4" stroke-linecap="round" stroke-miterlimit="10" x1="60.026" y1="51.426" x2="60.026" y2="66.378"/>
	<path fill="#009B3E" d="M66.601,38.581c-1.271-1.272-3.257-1.974-5.587-1.974c-3.047,0-5.534,0.973-7.004,2.741
		c-3.248,3.904-0.617,10.587,1.514,13.298c0.601,0.765,1.721,1.197,2.878,1.197c0.54,0,1.088-0.095,1.595-0.293
		c0.178-0.071,0.345-0.15,0.494-0.239c0.291,0.169,0.628,0.306,1.001,0.398c1.713,0.428,3.591-0.207,4.193-1.419
		C66.827,50.001,70.27,42.248,66.601,38.581z"/>
	<path fill="#009B3E" d="M44.616,46.351c-1.044-1.094-2.672-1.696-4.582-1.696c-2.5,0-4.54,0.836-5.746,2.355
		c-2.663,3.354-0.506,9.101,1.241,11.432c1.144,1.527,2.559,2.301,4.202,2.301c0.001,0,0.001,0,0.001,0
		c2.183,0,3.576-1.364,4.133-2.607C44.801,56.168,47.625,49.503,44.616,46.351z"/>
	<path fill="#009B3E" d="M53.878,42.182c-1.018-1.186-2.605-1.839-4.468-1.839c-2.439,0-4.43,0.908-5.605,2.555
		c-2.597,3.64-0.491,9.87,1.214,12.396c0.481,0.713,1.376,1.116,2.302,1.116c0.434,0,0.87-0.088,1.276-0.274
		c0.142-0.065,0.274-0.14,0.395-0.222c0.233,0.158,0.501,0.285,0.801,0.372c1.368,0.399,2.873-0.194,3.354-1.323
		C54.061,52.827,56.813,45.6,53.878,42.182z"/>
	<g>
		<g>
			<path fill="#009B3E" d="M37.704,49.385c1.078,0,2.296-0.105,2.997,0.874c0.031-0.06,0.062-0.12,0.093-0.179
				c-0.643,0.628-1.274,1.091-2.126,1.381c0.401,0.042,0.802,0.084,1.203,0.126c0.542-0.613,1.029-1.69,1.093-2.512
				c0.02-0.247-1.888-0.045-1.932,0.518c-0.027,0.34-0.206,0.698-0.331,1.01c-0.147,0.368-0.309,0.842-0.576,1.144
				c-0.438,0.496,1.057,0.176,1.203,0.126c1.239-0.422,2.272-1.035,3.21-1.952c0.064-0.044,0.096-0.104,0.093-0.179
				c-0.857-1.199-2.335-1.125-3.671-1.126c-0.462,0-0.97,0.124-1.366,0.366C37.29,49.169,37.332,49.385,37.704,49.385L37.704,49.385
				z"/>
		</g>
	</g>
</g>
</svg>
