<?xml version="1.0" encoding="utf-8"?>
<!-- Generator: Adobe Illustrator 16.0.0, SVG Export Plug-In . SVG Version: 6.00 Build 0)  -->
<!DOCTYPE svg PUBLIC "-//W3C//DTD SVG 1.1//EN" "http://www.w3.org/Graphics/SVG/1.1/DTD/svg11.dtd">
<svg version="1.1" id="Calque_1" xmlns="http://www.w3.org/2000/svg" xmlns:xlink="http://www.w3.org/1999/xlink" x="0px" y="0px"
	 width="250px" height="250px" viewBox="0 0 250 250" enable-background="new 0 0 250 250" xml:space="preserve">
<g>
	<g>
		<path fill="#FFFFFF" d="M197.163,83.213c0,0-33.081-21.432-66.967-10.042c-33.885,11.39-8.829-3.272-41.585,3.564
			c-32.756,6.834-64.333,17.533-71.032,51.987c-6.7,34.451,25.513,49.752,34.945,49.22c9.434-0.532,37.03,5.744,64.175-0.719
			c27.146-6.463,24.085,4.155,57.653-4.696C207.92,163.674,275.039,94.797,197.163,83.213z"/>
		<g>
			<g>
				<path fill="#191919" d="M164.345,73.704c0,0-0.584-0.114-1.712-0.269c-0.563-0.075-1.262-0.167-2.089-0.277
					c-0.829-0.082-1.786-0.177-2.866-0.284c-4.311-0.314-10.668-0.517-18.329,0.96c-1.911,0.37-3.896,0.854-5.934,1.47
					c-1.978,0.611-4.257,1.381-6.579,2.154c-1.153,0.399-2.364,0.759-3.597,1.124s-2.464,0.761-3.804,1.069
					c-0.66,0.164-1.325,0.329-1.996,0.496c-0.687,0.153-1.433,0.262-2.155,0.393c-0.376,0.056-0.708,0.142-1.123,0.17l-1.253,0.075
					c-0.77,0.099-1.853-0.049-2.844-0.198c-0.543-0.159-1.094-0.358-1.627-0.573c-0.444-0.229-0.905-0.509-1.28-0.74
					c-0.25-0.158-0.57-0.392-0.765-0.491c-0.185-0.079-0.348-0.201-0.536-0.271c-0.196-0.051-0.388-0.111-0.578-0.183
					c-0.19-0.072-0.494-0.072-0.735-0.118c-0.266-0.027-0.489-0.098-0.79-0.103l-0.92-0.007l-0.925-0.016
					c-0.317,0.006-0.665,0.051-0.997,0.073c-0.672,0.055-1.348,0.109-2.026,0.164c-1.401,0.205-2.817,0.413-4.248,0.623
					c-5.758,1.078-11.928,2.461-18.096,4.071c-6.183,1.628-12.461,3.553-18.602,6.048c-6.124,2.508-12.125,5.591-17.481,9.585
					c-5.353,3.98-10.008,8.915-13.353,14.711c-3.362,5.758-5.451,12.396-6.392,19.076c-0.854,6.648-0.136,13.357,2.406,19.33
					c2.543,5.963,6.784,11.147,11.9,15.098c2.55,1.985,5.311,3.686,8.17,5.024c1.429,0.659,2.879,1.262,4.323,1.705
					c1.432,0.446,2.896,0.776,4.119,0.863c0.16,0.019,0.275,0.002,0.414,0.009c0.155-0.001,0.208,0.011,0.495,0.005l1.425-0.011
					c0.965-0.016,1.79,0.073,2.688,0.107c1.728,0.118,3.406,0.271,5.045,0.44c3.248,0.335,6.45,0.666,9.601,0.99
					c12.484,1.251,24.316,1.509,35.341,0.104c1.371-0.203,2.732-0.405,4.085-0.605c1.345-0.231,2.666-0.526,3.987-0.782
					c1.369-0.28,2.729-0.56,4.079-0.836c0.688-0.142,1.372-0.283,2.055-0.425c0.694-0.109,1.387-0.219,2.076-0.327
					c5.479-0.892,11.157-1.108,16.372-0.476c2.616,0.268,5.047,0.608,7.423,0.778c0.592,0.04,1.182,0.08,1.769,0.12
					c0.586,0.013,1.169,0.024,1.751,0.037c1.161,0.049,2.318-0.018,3.466-0.062c4.597-0.241,9.09-0.979,13.431-1.898
					c2.171-0.458,4.3-1.021,6.402-1.515c1.998-0.513,3.925-1.195,5.813-1.973c3.771-1.554,7.312-3.468,10.633-5.5
					c6.642-4.091,12.44-8.663,17.489-13.314c5.047-4.658,9.356-9.423,12.895-14.179c3.532-4.756,6.3-9.521,8.089-14.159
					c1.792-4.628,2.554-9.148,2.07-13.094c-0.449-3.955-2.14-7.34-4.43-10.05c-1.134-1.37-2.463-2.524-3.771-3.612
					c-1.362-1.031-2.725-1.985-4.116-2.789c-2.768-1.628-5.464-2.901-7.912-3.911c-1.218-0.522-2.388-0.949-3.461-1.39
					c-1.051-0.392-2.054-0.766-3.007-1.121c-3.685-1.321-5.955-2.161-6.419-2.667c-0.473-0.478,0.856-0.565,4.23,0.036
					c3.363,0.669,4.068,0.673,7.323,1.321c0.813,0.173,1.789,0.367,2.991,0.715c1.21,0.306,2.643,0.77,4.39,1.381
					c1.725,0.678,3.782,1.475,6.108,2.8c2.32,1.308,4.979,3.067,7.584,5.825c1.265,1.408,2.538,3.038,3.58,5.012
					c1.032,1.971,1.851,4.246,2.283,6.74c0.896,5.004,0.157,10.709-1.93,16.396c-2.101,5.703-5.458,11.484-9.877,17.303
					c-4.442,5.804-9.952,11.671-16.675,17.411c-3.368,2.863-7.035,5.702-11.084,8.412c-4.048,2.707-8.456,5.319-13.432,7.531
					c-2.482,1.092-5.146,2.117-7.968,2.836c-2.68,0.643-5.372,1.397-8.227,1.931c-5.641,1.173-11.772,2.038-18.286,1.837
					c-3.24-0.127-6.461-0.54-9.504-0.842c-3.051-0.298-6.008-0.423-9.083-0.204c-3.074,0.255-6.232,0.685-9.464,1.403
					c-1.668,0.355-3.352,0.715-5.051,1.077c-0.887,0.186-1.777,0.373-2.673,0.561c-0.896,0.181-1.803,0.296-2.711,0.448
					c-7.27,1.169-14.872,1.63-22.695,1.553c-7.815-0.092-15.884-0.769-24.048-1.586c-2.038-0.194-4.046-0.385-5.989-0.523
					c-0.98-0.078-1.898-0.099-2.833-0.144l-1.285,0.015l-0.816,0.008c-0.337-0.002-0.703,0.013-1.016-0.014
					c-2.539-0.175-4.665-0.746-6.73-1.424c-2.05-0.689-3.983-1.527-5.844-2.457c-7.393-3.755-13.611-9.124-18.088-15.558
					c-4.525-6.408-6.93-13.955-7.409-21.197c-0.235-3.631-0.003-7.183,0.505-10.593c0.49-3.428,1.337-6.637,2.341-9.794
					c0.994-3.15,2.325-6.141,3.82-8.965c1.488-2.833,3.241-5.46,5.153-7.868c1.899-2.42,3.964-4.628,6.144-6.596
					c2.164-1.987,4.419-3.771,6.726-5.349c9.242-6.352,18.781-9.947,27.493-12.679c8.771-2.688,16.816-4.466,24.23-5.912
					c1.887-0.327,3.674-0.734,5.527-0.946c0.915-0.124,1.819-0.247,2.712-0.368c0.911-0.094,1.843-0.138,2.745-0.205
					c0.881-0.093,1.853-0.055,2.798-0.026c0.904-0.021,1.956,0.16,2.962,0.336l0.376,0.068l0.406,0.13l0.805,0.274
					c0.543,0.162,1.032,0.438,1.52,0.71c0.547,0.291,0.799,0.501,1.166,0.741l0.604,0.377c0.14,0.011,0.208,0.087,0.371,0.123
					c0.195,0.01,0.385,0.033,0.575,0.072c0.218,0.021,0.541-0.024,0.803-0.028c0.286-0.022,0.53,0.002,0.846-0.049
					c0.632-0.102,1.255-0.201,1.87-0.3c0.619-0.103,1.274-0.288,1.897-0.424c0.629-0.152,1.244-0.279,1.861-0.444
					c0.619-0.175,1.229-0.348,1.832-0.518c1.203-0.344,2.371-0.654,3.511-1.03c2.295-0.718,4.35-1.387,6.558-2.03
					c1.067-0.341,2.122-0.583,3.141-0.826c1.015-0.263,2.006-0.463,2.97-0.631c3.844-0.722,7.205-1.04,10.097-1.125
					c2.895-0.124,5.321-0.013,7.354,0.096c4.062,0.292,6.542,0.718,8.063,0.991c1.524,0.258,2.079,0.445,2.27,0.495
					c0.187,0.063-0.004,0.046-0.004,0.046c0,0,2.476,0.459,6.012,1.48c3.542,0.993,8.109,2.627,12.345,4.592
					c4.238,1.964,8.137,4.245,10.579,6.067c2.463,1.829,3.427,3.11,2.151,2.979c0,0-0.082,0.048-0.646-0.137
					c-0.567-0.181-1.619-0.6-3.608-1.437c-1.996-0.819-4.923-2.089-9.342-3.672C178.299,77.032,172.381,75.068,164.345,73.704z"/>
			</g>
		</g>
	</g>
	<g>
		<path fill="#0D0D0D" d="M50.636,135.541c0,0,0.099-0.13,0.303-0.352c0.207-0.212,0.5-0.553,0.916-0.914
			c0.814-0.76,2.047-1.758,3.694-2.716c1.646-0.954,3.701-1.896,6.174-2.42c1.234-0.26,2.581-0.415,4.019-0.336
			c1.435,0.063,2.974,0.389,4.464,1.07c0.368,0.174,0.726,0.393,1.081,0.6l0.837,0.59c0.243,0.171,0.484,0.341,0.718,0.522
			l0.354,0.267l0.244,0.138c0.161,0.094,0.319,0.193,0.477,0.298c0.176,0.104,0.383,0.196,0.572,0.299
			c0.378,0.23,0.798,0.328,1.189,0.524c0.823,0.255,1.663,0.519,2.54,0.617c0.869,0.138,1.751,0.198,2.6,0.223
			c0.848,0.036,1.663,0.031,2.405,0.041c0.74,0.003,1.416,0.039,1.971,0.071c0.559,0.028,1.002,0.104,1.302,0.165
			c0.298,0.063,0.45,0.108,0.45,0.108s-0.138,0.083-0.396,0.238c-0.254,0.129-0.607,0.4-1.063,0.667
			c-0.906,0.583-2.191,1.44-3.999,2.186c-0.444,0.199-0.946,0.338-1.455,0.519c-0.529,0.133-1.071,0.293-1.665,0.379
			c-1.169,0.224-2.488,0.23-3.854,0.076c-0.677-0.122-1.383-0.228-2.056-0.475c-0.342-0.114-0.681-0.214-1.032-0.351l-1.068-0.524
			l-0.532-0.276l-0.376-0.233c-0.253-0.152-0.499-0.317-0.746-0.481l-0.629-0.422c-0.165-0.079-0.318-0.171-0.488-0.248
			c-0.668-0.332-1.484-0.545-2.379-0.694c-0.897-0.136-1.869-0.193-2.851-0.192c-1.965,0.008-3.942,0.209-5.676,0.393
			c-1.788,0.197-3.277,0.361-4.32,0.477c-0.531,0.073-0.974,0.09-1.265,0.129C50.795,135.527,50.636,135.541,50.636,135.541z"/>
	</g>
	<g>
		<path fill="#0D0D0D" d="M121.741,142.506c0,0-0.011-0.107-0.009-0.297c0.009-0.185-0.006-0.477,0.038-0.808
			c0.054-0.685,0.201-1.625,0.521-2.671c0.316-1.048,0.802-2.204,1.469-3.349c0.654-1.156,1.511-2.283,2.502-3.313
			c0.996-1.022,2.13-1.948,3.356-2.642c0.604-0.355,1.238-0.646,1.858-0.887c0.627-0.233,1.256-0.4,1.847-0.508
			c0.604-0.097,1.17-0.131,1.675-0.106c0.512,0.031,0.948,0.119,1.301,0.23c0.345,0.079,0.61,0.247,0.777,0.331
			c0.168,0.093,0.251,0.155,0.251,0.155s-0.079,0.067-0.228,0.194c-0.146,0.11-0.341,0.296-0.566,0.512
			c-0.226,0.202-0.468,0.509-0.729,0.796c-0.26,0.308-0.533,0.648-0.82,1.014c-1.143,1.476-2.59,3.382-4.34,5.163
			c-1.728,1.789-3.746,3.443-5.546,4.537c-0.893,0.552-1.721,0.968-2.342,1.238c-0.294,0.147-0.569,0.234-0.737,0.308
			C121.838,142.471,121.741,142.506,121.741,142.506z"/>
	</g>
	<g>
		<path fill="#0D0D0D" d="M172.537,143.146c0,0-0.078-0.097-0.18-0.305c-0.101-0.212-0.255-0.522-0.361-0.94
			c-0.114-0.416-0.235-0.939-0.27-1.545c-0.031-0.6-0.03-1.304,0.098-2.036c0.063-0.367,0.133-0.759,0.234-1.15
			c0.111-0.385,0.254-0.775,0.393-1.187c0.125-0.427,0.358-0.782,0.546-1.195c0.2-0.401,0.414-0.82,0.681-1.188
			c0.514-0.763,1.075-1.554,1.758-2.211c0.338-0.334,0.654-0.711,1.021-1.016l1.117-0.891c0.756-0.596,1.56-1.071,2.373-1.506
			c0.793-0.479,1.632-0.805,2.444-1.098c0.813-0.295,1.599-0.575,2.378-0.713c0.773-0.157,1.509-0.277,2.189-0.364
			c0.678-0.102,1.325-0.076,1.891-0.076c0.567,0.006,1.071,0.056,1.48,0.09c0.406,0.023,0.739,0.096,0.958,0.122
			c0.222,0.036,0.343,0.066,0.343,0.066s-0.082,0.094-0.235,0.269c-0.159,0.158-0.379,0.425-0.678,0.694
			c-0.295,0.279-0.646,0.629-1.061,0.978c-0.407,0.363-0.895,0.703-1.378,1.143c-0.495,0.419-1.032,0.846-1.605,1.266
			c-0.591,0.395-1.147,0.886-1.758,1.32c-0.297,0.23-0.613,0.436-0.929,0.649c-0.313,0.22-0.596,0.471-0.91,0.687
			c-0.604,0.465-1.269,0.86-1.832,1.354l-0.913,0.66c-0.286,0.23-0.571,0.46-0.854,0.688c-0.27,0.238-0.599,0.43-0.85,0.668
			c-0.261,0.233-0.521,0.465-0.8,0.677c-0.293,0.207-0.493,0.462-0.756,0.675c-0.242,0.225-0.515,0.436-0.727,0.665
			c-0.454,0.448-0.906,0.88-1.285,1.318c-0.22,0.209-0.386,0.429-0.561,0.638c-0.177,0.208-0.361,0.412-0.505,0.611
			c-0.306,0.399-0.595,0.766-0.801,1.091c-0.193,0.322-0.396,0.599-0.488,0.785C172.596,143.038,172.537,143.146,172.537,143.146z"
			/>
	</g>
	<g>
		<g>
			<path fill="#191919" d="M66.166,106.389c0,0,0.085-0.167,0.259-0.464c0.179-0.29,0.408-0.756,0.771-1.264
				c0.347-0.528,0.78-1.16,1.324-1.815c0.528-0.684,1.17-1.381,1.894-2.096c0.711-0.738,1.556-1.383,2.418-2.087
				c0.896-0.629,1.843-1.255,2.826-1.792c0.999-0.492,2.012-0.971,3.025-1.325c1.022-0.321,2.029-0.58,2.982-0.764
				c3.846-0.575,6.825-0.817,9.194-0.956c2.374-0.079,4.12-0.148,5.46,0.026c1.342,0.167,2.384,0.526,2.947,0.538
				c0.566,0.037,0.674-0.084,0.196,0.071c-0.476,0.13-0.2,0.043-2.091,0.778c-0.471,0.192-1.075,0.432-1.854,0.723
				c-0.78,0.281-1.717,0.724-2.873,1.158c-0.576,0.227-1.208,0.451-1.896,0.689c-0.678,0.28-1.414,0.558-2.215,0.843
				c-0.803,0.274-1.671,0.549-2.582,0.9c-0.91,0.35-1.932,0.604-2.969,1.004c-2.112,0.717-3.921,1.36-5.497,1.938
				c-0.781,0.297-1.507,0.572-2.185,0.83c-0.659,0.279-1.274,0.53-1.854,0.75c-1.103,0.508-2.074,0.883-2.816,1.273
				c-0.779,0.353-1.36,0.679-1.834,0.926c-0.947,0.498-1.348,0.773-1.557,0.866c-0.2,0.101-0.165,0.063-0.165,0.063
				s-0.125,0.079-0.372,0.235c-0.221,0.144-0.521,0.332-0.777,0.547c-0.565,0.394-0.88,0.94-0.789,0.793
				c0,0,0.058-0.146,0.123-0.313C65.38,108.16,65.584,107.548,66.166,106.389z"/>
		</g>
	</g>
	<g>
		<path fill="#0D0D0D" d="M68.088,154.196c0,0,0.604,0.198,1.658,0.546c0.515,0.186,1.167,0.354,1.873,0.609
			c0.72,0.218,1.532,0.463,2.418,0.73c0.883,0.26,1.826,0.55,2.837,0.809c0.995,0.302,2.066,0.528,3.151,0.813
			c1.092,0.263,2.229,0.479,3.369,0.73c0.576,0.097,1.159,0.18,1.737,0.291l0.871,0.162l0.88,0.095
			c1.17,0.154,2.339,0.313,3.495,0.355c0.578,0.033,1.152,0.078,1.721,0.13c0.566-0.005,1.126-0.016,1.68-0.004
			c0.556,0.006,1.103,0.013,1.637,0.019c0.533-0.037,1.055-0.072,1.563-0.107c0.515-0.025,1.016-0.049,1.5-0.072
			c0.486-0.026,0.941-0.129,1.392-0.177c0.894-0.129,1.743-0.187,2.487-0.294c0.722-0.169,1.375-0.278,1.915-0.379
			c1.082-0.196,1.737-0.272,1.737-0.272s-0.495,0.394-1.427,1.021c-0.467,0.31-1.036,0.699-1.716,1.104
			c-0.692,0.366-1.506,0.719-2.403,1.105c-0.451,0.183-0.918,0.402-1.418,0.562c-0.508,0.139-1.032,0.282-1.572,0.43
			c-0.546,0.137-1.106,0.278-1.681,0.422c-0.578,0.113-1.179,0.161-1.787,0.245c-0.608,0.081-1.231,0.143-1.862,0.208
			c-0.63,0.015-1.269,0.017-1.913,0.01c-0.643-0.021-1.3,0.03-1.944-0.057c-0.647-0.071-1.297-0.142-1.945-0.212
			c-1.305-0.124-2.563-0.475-3.814-0.736c-0.622-0.146-1.222-0.356-1.818-0.54c-0.594-0.195-1.191-0.352-1.747-0.598
			c-1.126-0.449-2.21-0.886-3.188-1.405c-0.995-0.481-1.895-1.015-2.713-1.521c-0.821-0.497-1.527-1.038-2.157-1.492
			c-0.621-0.475-1.146-0.906-1.561-1.287C68.5,154.696,68.088,154.196,68.088,154.196z"/>
	</g>
	<g>
		<path fill="#0D0D0D" d="M135.387,95.252c0,0,0.949,0.144,2.582,0.428c0.813,0.152,1.811,0.303,2.934,0.53
			c1.126,0.216,2.405,0.427,3.781,0.71c2.747,0.538,5.953,1.167,9.388,1.84c0.854,0.172,1.722,0.346,2.601,0.522
			c0.882,0.161,1.772,0.327,2.666,0.511c1.788,0.371,3.614,0.67,5.432,1.021c1.815,0.354,3.643,0.613,5.43,0.964
			c1.796,0.254,3.56,0.557,5.271,0.823c1.715,0.229,3.373,0.452,4.944,0.663c1.574,0.154,3.069,0.327,4.455,0.496
			c1.38,0.081,2.655,0.192,3.793,0.292c1.142,0.124,2.125,0.089,2.951,0.138c1.647,0.058,2.616,0.142,2.616,0.142
			s-0.895,0.31-2.509,0.764c-0.809,0.2-1.792,0.563-2.943,0.706c-1.148,0.196-2.452,0.415-3.886,0.614
			c-1.43,0.113-2.984,0.211-4.637,0.295c-1.646,0.034-3.379-0.02-5.178-0.065c-1.788-0.108-3.634-0.271-5.505-0.468
			c-1.859-0.256-3.752-0.519-5.626-0.857c-1.864-0.387-3.744-0.711-5.554-1.192c-1.819-0.437-3.6-0.909-5.301-1.438
			c-1.711-0.493-3.338-1.056-4.877-1.596c-1.54-0.535-2.971-1.121-4.293-1.645c-2.627-1.109-4.773-2.128-6.246-2.913
			C136.196,95.768,135.387,95.252,135.387,95.252z"/>
	</g>
	<g>
		<path fill="#0D0D0D" d="M185.082,78.648c0,0,18.977,3.588,33.596,10.549"/>
		<path fill="#0D0D0D" d="M185.082,78.648c0,0,0.597-0.198,1.627-0.393c1.034-0.201,2.503-0.386,4.229-0.429
			c0.866-0.028,1.799-0.024,2.773,0.04c0.975,0.062,2,0.148,3.051,0.286c0.53,0.05,1.055,0.161,1.59,0.259
			c0.535,0.096,1.076,0.199,1.615,0.328c1.084,0.235,2.174,0.505,3.254,0.832c1.067,0.363,2.14,0.715,3.171,1.13
			c1.04,0.391,2.045,0.82,2.993,1.326c0.952,0.486,1.854,0.999,2.696,1.504c0.837,0.526,1.631,0.989,2.317,1.554
			c1.384,1.084,2.464,2.099,3.186,2.855c0.721,0.763,1.094,1.256,1.094,1.256s-0.639,0.054-1.688,0.047
			c-1.047-0.012-2.496-0.097-4.146-0.332c-0.813-0.141-1.738-0.203-2.668-0.363c-0.935-0.151-1.908-0.331-2.896-0.561
			c-0.502-0.096-0.986-0.253-1.504-0.354c-0.514-0.104-1.028-0.226-1.542-0.364c-1.035-0.249-2.063-0.572-3.095-0.885
			c-1.02-0.351-2.066-0.631-3.065-1.008c-1.01-0.344-1.984-0.751-2.934-1.135c-1.905-0.747-3.646-1.63-5.143-2.414
			c-1.493-0.811-2.716-1.59-3.572-2.179C185.571,79.044,185.082,78.648,185.082,78.648z"/>
	</g>
</g>
</svg>
