<?xml version="1.0" encoding="utf-8"?>
<!-- Generator: Adobe Illustrator 16.0.0, SVG Export Plug-In . SVG Version: 6.00 Build 0)  -->
<!DOCTYPE svg PUBLIC "-//W3C//DTD SVG 1.1//EN" "http://www.w3.org/Graphics/SVG/1.1/DTD/svg11.dtd">
<svg version="1.1" id="Calque_1" xmlns="http://www.w3.org/2000/svg" xmlns:xlink="http://www.w3.org/1999/xlink" x="0px" y="0px"
	 width="250px" height="250px" viewBox="0 0 250 250" enable-background="new 0 0 250 250" xml:space="preserve">
<g>
	<path fill="#FFFFFF" stroke="#000000" stroke-width="3" stroke-miterlimit="10" d="M83.473,205.046
		c0,0-11.104-18.653-10.961-26.946c0.145-8.294,2.099-20.682,2.099-20.682s-5.002-5.417,1.678-6.266s9.184,3.938,9.184,3.938
		l5.43,1.091l10.198,12.218l46.405,3.318c0,0,14.325-14.987,17.398-16.331c3.073-1.345,13.253-3.907,8.661,4.272
		c0,0,2.635,16.15,2.035,18.183c-0.6,2.033-13.697,28.018-11.973,32.387c1.728,4.369-78.153,0.775-78.153,0.775L83.473,205.046z"/>
	<path fill="#FFFFFF" stroke="#000000" stroke-width="3" stroke-miterlimit="10" d="M149.861,198.454
		c0,16.489-9.983,30.828-26.566,30.828s-21.066-12.946-21.066-29.437s7.013-45.228,23.598-45.228
		C142.41,154.618,149.861,181.965,149.861,198.454z"/>
	<path fill="#FFFFFF" stroke="#000000" stroke-width="3" stroke-miterlimit="10" d="M118.958,129.425l-2.508,11.213
		c0,0-9.575,10.543-10.34,11.485c-0.763,0.942-5.556,12.296-5.372,15.745c0.183,3.449-1.583,35.172-0.492,38.584
		c1.092,3.413,4.875,14.407,4.875,14.407l6.975,1.589l2.264-9.437c0,0-2.993-9.694-0.84-18.18
		c2.152-8.485,0.024-15.577,2.829-14.605c0,0-3.377-17.448,9.385-21.111c0,0,6.854-2.899,5.354,9.939l1.241-0.62l-0.194,10.86
		c0,0,5.209,30.707,6.211,32.548c1.003,1.841,1.401,9.745,1.401,9.745l11.902-1.472l0.114-10.09c0,0-5.325-36.066-4.357-39.544
		c0.97-3.479-5.326-23.078-13.173-28.1c0,0,0.261-10.089,2.221-11.354c1.962-1.267-5.559,1.185-11.222-0.903l-6.161-1.011"/>
	<path fill="#FFFFFF" stroke="#000000" stroke-width="3" stroke-miterlimit="10" d="M107.574,113.426
		c0,0-2.386,13.587,15.514,16.904c17.898,3.317,23.207-6.271,23.207-6.271l-7.644-16.479l-16.159-4.175l-15.023,9.44"/>
	<path fill="none" stroke="#000000" stroke-width="3" stroke-miterlimit="10" d="M156.696,52.607"/>
	<path fill="#FFFFFF" stroke="#000000" stroke-width="3" stroke-miterlimit="10" d="M117.199,75.353c0,0-17.748,3.491-17.581,22.014
		c0.163,18.523,18.807,19.328,20.588,18.582c1.783-0.747,8.164-3.563,13.093-14.224c0,0-5.058,10.109-0.668,15.413
		s15.06,7.397,17.853,6.7c2.793-0.699,18.648-4.477,22.42-16.815s-1.785-17.72-1.785-17.72s4.636-10.813,5.097-13.923
		c0.46-3.108-1.083-8.644-1.083-8.644s6.848-4.12,10.106-13.274c0,0,5.055,11.34,4.797,13.609
		c-0.259,2.27,6.766-17.932-3.892-25.077c-3.263-2.187-15.78-3.947-16.575-4.204c-0.794-0.257-10.935,11.791-11.483,13.653
		c-0.549,1.864-10.084-1.486-10.084-1.486l-14.274-31.406l-19.979,25.631l3.533-1.116c0,0-5.802,12.476,5.808,19.804
		c0,0-3.622-1.635-5.964,12.936"/>
	<path fill-rule="evenodd" clip-rule="evenodd" fill="#FFFFFF" stroke="#000000" stroke-width="3" stroke-miterlimit="10" d="
		M164.138,59.633c0,0,10.637,0.675,9.405,12.065c-1.232,11.39-4.751,17.915-4.751,17.915s-5.524,3.396-9.976,3.355
		c-2.854-0.025-12.811-5.705-12.019-13.359c0,0,2.479-5.566,2.921-7.431C152.551,60.221,160.715,58.92,164.138,59.633z"/>
	<path fill="#FFFFFF" stroke="#000000" stroke-width="3" stroke-miterlimit="10" d="M127.829,86.976c0,0,4.693-4.325,16.597-4.169
		c0,0,6.661,7.523,5.07,10.626"/>
	<path fill="#FFFFFF" stroke="#000000" stroke-width="3" stroke-miterlimit="10" d="M128.402,87.155c0,0-0.279,10.781,4.896,14.569
		c1.9,1.39,15.726-8.075,15.726-8.075L128.402,87.155z"/>
	<path fill-rule="evenodd" clip-rule="evenodd" fill="#FFFFFF" stroke="#000000" stroke-width="3" stroke-miterlimit="10" d="
		M128.402,76.463l13.878,4.688c0,0,11.119-14.408,0-18.281C131.158,58.996,128.143,74.361,128.402,76.463z"/>
	<path fill-rule="evenodd" clip-rule="evenodd" fill="#FFFFFF" stroke="#000000" stroke-width="3" stroke-miterlimit="10" d="
		M149.496,81.976l13.723,5c0,0,10.267-15.068,1.129-18.439C155.21,65.167,149.989,76.718,149.496,81.976z"/>
	<path fill-rule="evenodd" clip-rule="evenodd" stroke="#000000" stroke-width="3" stroke-miterlimit="10" d="M149.496,81.976
		l13.723,5c0,0,2.075-8.168-2.751-9.688C155.642,75.77,153.657,76.206,149.496,81.976z"/>
	<path fill-rule="evenodd" clip-rule="evenodd" stroke="#000000" stroke-width="3" stroke-miterlimit="10" d="M128.402,76.463
		l13.878,4.688c0,0,1.563-7.797-2.449-9.4C135.821,70.146,130.383,70.052,128.402,76.463z"/>
	<path fill-rule="evenodd" clip-rule="evenodd" fill="none" stroke="#000000" stroke-width="3" stroke-miterlimit="10" d="
		M130.777,57.651c0,0-4.048-1.539-2.482-8.845l-2.016,0.931c0,0,3.834-13.322,6.98-14.896c0,0-2.542,5.866,1.552,7.914
		c0.931,0.465,1.397-1.087,1.397-1.087s-0.913,3.239,1.869,5.561s2.63,9.8,2.63,9.8"/>
	<path fill-rule="evenodd" clip-rule="evenodd" fill="none" stroke="#000000" stroke-width="3" stroke-miterlimit="10" d="
		M167.698,40.133c0,0,10.654-2.775,17.555,11.088c6.594,13.242,4.782,15.851,4.782,15.851"/>
	<g>
		<path d="M87.954,165.952c0.303,0.184,0.562,0.41,0.826,0.65c0.257,0.238,0.559,0.472,0.771,0.747
			c0.464,0.532,0.924,1.081,1.368,1.647c0.382,0.594,0.77,1.191,1.134,1.806c0.377,0.608,0.751,1.224,1.025,1.874l0.858,1.951
			c0.267,0.657,0.621,1.297,0.795,1.979c0.418,1.349,0.817,2.708,1.204,4.073c0.09,0.342,0.198,0.683,0.272,1.026l0.19,1.039
			l0.353,2.082l0.331,2.087c0.1,0.696,0.234,1.392,0.281,2.091c0.177,2.8,0.27,5.605,0.291,8.399l-0.042-0.252
			c0.173,0.735,0.303,1.482,0.451,2.225c0.146,0.743,0.295,1.485,0.413,2.236c0.26,1.495,0.491,2.999,0.648,4.524
			c-0.689-1.37-1.304-2.762-1.891-4.161c-0.305-0.696-0.579-1.402-0.856-2.106c-0.274-0.705-0.567-1.405-0.818-2.118l-0.005-0.013
			l-0.037-0.239c-0.426-2.724-0.78-5.435-1.051-8.151c-0.074-0.679-0.234-1.341-0.333-2.013l-0.335-2.011l-0.313-2.015l-0.142-1.011
			c-0.058-0.334-0.148-0.658-0.222-0.988c-0.299-1.316-0.585-2.639-0.852-3.971c-0.107-0.677-0.339-1.303-0.514-1.956l-0.56-1.95
			c-0.146-0.673-0.386-1.298-0.632-1.926c-0.245-0.628-0.466-1.272-0.693-1.922c-0.292-0.604-0.584-1.218-0.865-1.852
			c-0.129-0.329-0.335-0.581-0.494-0.894C88.351,166.538,88.165,166.235,87.954,165.952z"/>
	</g>
	<g>
		<path d="M150.017,193.415c0.07-1.121,0.282-2.177,0.517-3.224c0.245-1.041,0.547-2.057,0.888-3.055
			c0.677-1.998,1.528-3.917,2.496-5.783l-0.082,0.23c0.395-1.225,0.852-2.433,1.39-3.619c0.267-0.595,0.557-1.183,0.878-1.763
			c0.306-0.584,0.658-1.155,1.052-1.717c0.071,0.682,0.102,1.353,0.084,2.012c-0.002,0.663-0.034,1.318-0.09,1.967
			c-0.106,1.299-0.295,2.577-0.546,3.839l-0.01,0.045l-0.072,0.187c-0.767,1.957-1.649,3.862-2.706,5.688
			c-0.525,0.914-1.091,1.811-1.714,2.681C151.469,191.769,150.813,192.624,150.017,193.415z"/>
	</g>
	<g>
		<path d="M164.912,52.53c0,0-0.045-0.228-0.028-0.606c0.01-0.381,0.078-0.913,0.261-1.52c0.353-1.21,1.258-2.694,2.621-3.739
			c0.336-0.263,0.688-0.507,1.066-0.698c0.358-0.221,0.754-0.367,1.132-0.501c0.372-0.149,0.762-0.219,1.124-0.282
			c0.359-0.071,0.709-0.092,1.033-0.079c0.643-0.004,1.174,0.117,1.538,0.236c0.363,0.108,0.563,0.207,0.563,0.207
			s-0.175,0.162-0.467,0.382c-0.146,0.107-0.317,0.245-0.515,0.366c-0.187,0.142-0.396,0.302-0.625,0.477
			c-0.229,0.151-0.465,0.321-0.703,0.515c-0.242,0.181-0.5,0.347-0.747,0.553c-0.253,0.191-0.516,0.375-0.771,0.582
			c-0.261,0.196-0.529,0.389-0.782,0.606c-0.533,0.396-1.048,0.828-1.569,1.221c-0.503,0.411-1.018,0.784-1.466,1.127
			c-0.461,0.333-0.867,0.623-1.169,0.827C165.106,52.408,164.912,52.53,164.912,52.53z"/>
	</g>
	<g>
		<path d="M173.642,58.964c-0.113-0.884-0.085-1.714-0.012-2.527c0.081-0.81,0.222-1.598,0.409-2.368l0.224-0.919l1.252,0.057
			c0.684,0.031,1.365,0.076,2.038,0.176l-1.719,1.476c-0.018-0.775,0.013-1.552,0.09-2.327l0.051-0.503l0.131-0.188
			c0.216-0.308,0.458-0.655,0.7-0.983c0.234-0.334,0.488-0.664,0.734-0.994c0.125-0.167,0.261-0.33,0.376-0.496
			c0.116-0.165,0.271-0.331,0.387-0.5c0.104-0.168,0.234-0.34,0.366-0.524c0.095-0.173,0.194-0.363,0.311-0.601
			c0.113,0.188,0.238,0.429,0.307,0.679c0.046,0.234,0.09,0.481,0.106,0.731c0.013,0.245,0.012,0.479,0.002,0.721
			c-0.007,0.245-0.034,0.476-0.072,0.704c-0.062,0.468-0.176,0.909-0.299,1.352c-0.136,0.438-0.276,0.854-0.477,1.292l0.182-0.689
			c0.077,0.775,0.107,1.552,0.09,2.327l-0.037,1.741l-1.682-0.266c-0.672-0.106-1.335-0.269-1.997-0.443l1.476-0.862
			c-0.368,0.702-0.783,1.386-1.258,2.048C174.838,57.733,174.311,58.376,173.642,58.964z"/>
	</g>
	<path fill="#FFFFFF" stroke="#000000" stroke-width="3" stroke-miterlimit="10" d="M189.257,208.566c0,0,8.575-3.154,9.964,5.846
		c1.387,8.999-4.495,11.619-4.495,11.619s-7.013,1.74-9.611-2.527C182.516,219.235,189.257,208.566,189.257,208.566z"/>
	<path fill="#FFFFFF" stroke="#000000" stroke-width="3" stroke-miterlimit="10" d="M177.923,210.021c0,0,5.289-8.426,10.066-3.525
		c4.779,4.9,4.704,18.102,4.704,18.102s-2.432,7.058-11.615,2.286C171.894,222.111,177.923,210.021,177.923,210.021z"/>
	<path fill="#FFFFFF" stroke="#000000" stroke-width="3" stroke-miterlimit="10" d="M62.972,201.906c0,0-13.54-6.375-12.327,13.807
		c0,0,1.594,9.025,12.019,8.269C73.089,223.225,62.972,201.906,62.972,201.906z"/>
	<path fill="#FFFFFF" stroke="#000000" stroke-width="3" stroke-miterlimit="10" d="M71.755,205.229c0,0-4.369-8.987-12.665-0.434
		c-8.296,8.555-1.444,23.635,7.738,17.831C76.012,216.823,71.755,205.229,71.755,205.229z"/>
	<path fill="#FFFFFF" stroke="#000000" stroke-width="3" stroke-miterlimit="10" d="M91.327,208.897c0,0-20.849-14.067-25.458,4.514
		s24.406,11.79,24.406,11.79L91.327,208.897z"/>
	<path fill="#FFFFFF" stroke="#000000" stroke-width="3" stroke-miterlimit="10" d="M103.159,210.482c0,0-4.932-8.797-12.979-0.254
		s0.291,18.079,4.89,16.93C99.669,226.008,103.159,210.482,103.159,210.482z"/>
	<path fill="#FFFFFF" stroke="#000000" stroke-width="3" stroke-miterlimit="10" d="M161.299,211.843
		c0,0,10.366-10.365,20.563,2.152c2.139,2.627,3.406,17.76-10.283,16.763c-13.688-0.998-12.767-6.731-12.767-6.731L161.299,211.843z
		"/>
	<path fill="#FFFFFF" stroke="#000000" stroke-width="3" stroke-miterlimit="10" d="M109.83,214.517c0,0-6.4-11.286-15.251,4.194
		c-6.043,10.571,7.596,13.493,13.021,8.447C113.028,222.111,109.83,214.517,109.83,214.517z"/>
	<path fill="#FFFFFF" stroke="#000000" stroke-width="3" stroke-miterlimit="10" d="M114.359,213.012c0,0-7.274,1.424-9.034,9.437
		c-1.761,8.013,13.299,13.407,13.633,1.108C119.291,211.257,114.359,213.012,114.359,213.012z"/>
	<path fill="#FFFFFF" stroke="#000000" stroke-width="3" stroke-miterlimit="10" d="M150.399,212.186c0,0,8.271-9.167,13.208,4.437
		c4.936,13.604-8.779,13.579-8.779,13.579l-3.809-10.519L150.399,212.186z"/>
	<path fill="#FFFFFF" stroke="#000000" stroke-width="3" stroke-miterlimit="10" d="M142.079,215.619c0,0,6.33-8.164,12.437,0
		c6.106,8.162,0.313,14.582,0.313,14.582s-2.739,3.75-13.71-1.753C130.145,222.946,142.079,215.619,142.079,215.619z"/>
	<path fill="#FFFFFF" stroke="#000000" stroke-width="3" stroke-miterlimit="10" d="M138.96,213.615c0,0-4.525,0.378-6.81,10.073
		s7.875,7.185,7.875,7.185s6.472-1.103,5.436-9.285C144.421,213.405,138.96,213.615,138.96,213.615z"/>
</g>
</svg>
