<?xml version="1.0" encoding="utf-8"?>
<!-- Generator: Adobe Illustrator 16.0.0, SVG Export Plug-In . SVG Version: 6.00 Build 0)  -->
<!DOCTYPE svg PUBLIC "-//W3C//DTD SVG 1.1//EN" "http://www.w3.org/Graphics/SVG/1.1/DTD/svg11.dtd">
<svg version="1.1" id="Calque_1" xmlns="http://www.w3.org/2000/svg" xmlns:xlink="http://www.w3.org/1999/xlink" x="0px" y="0px"
	 width="250px" height="250px" viewBox="0 0 250 250" enable-background="new 0 0 250 250" xml:space="preserve">
<g>
	<path fill="#FFFFFF" stroke="#030303" stroke-width="2" stroke-linejoin="round" stroke-miterlimit="10" d="M45.137,87.951
		c0.296-0.474,2.78-4.824,4.493-4.824c-0.022,0.086-0.04,0.183-0.063,0.271c0.187-0.455,0.414-0.715,0.69-0.715
		c0-8.748,3.863-29.037-4.053-36.949l-3.975,7.874C49.762,59.392,45.137,80.418,45.137,87.951z"/>
	<g>
		<path fill="#FFFFFF" stroke="#030303" stroke-width="2" stroke-linejoin="round" stroke-miterlimit="10" d="M51.673,81.273h58.301
			c0-8.748-3.697-29.065,4.185-36.948H47.62C55.535,52.237,51.673,72.525,51.673,81.273z"/>
	</g>
	<g>
		<path d="M87.524,234.56c-1.32,1.043-3.041,1.322-4.689,1.353c-0.437,0.008-0.859,0.738-1.284,0.741
			c2.528-0.026,5.614-0.684,7.259-2.835C88.535,234.177,87.804,234.193,87.524,234.56c-0.177,0.231-0.364,0.438-0.576,0.64
			c-0.255,0.191-0.223,0.196,0.098,0.014c-0.242,0.115-0.501,0.197-0.757,0.28c-1.104,0.356-2.304,0.407-3.454,0.419
			c-0.428,0.248-0.856,0.494-1.284,0.741c2.693-0.049,5.166-1.183,7.259-2.835C88.427,234.12,87.909,234.256,87.524,234.56z"/>
	</g>
	<g>
		<path fill="#FFFFFF" stroke="#030303" stroke-width="3" stroke-linejoin="round" stroke-miterlimit="10" d="M72.391,152.531
			c0,16.499-4.771,54.695-4.771,62.413c0,13.568,5.523,21.339,14.573,21.339c-9.174,0-11.837-11.176-11.837-18.891
			c0-7.718,4.522-53.485,4.522-69.982c0-16.498-3.723-29.535-23.679-36.985v-2.129l-5.123,5.121v2.129
			C66.033,122.998,72.391,136.035,72.391,152.531z"/>
	</g>
	<g>
		<path fill="#FFFFFF" stroke="#030303" stroke-width="3" stroke-linejoin="round" stroke-miterlimit="10" d="M74.879,147.41
			c0,16.497-4.522,62.265-4.522,69.982c0,7.715,2.663,18.891,11.837,18.891c9.173,0,11.837-11.176,11.837-18.891
			c0-7.718-4.525-53.485-4.525-69.982c0-16.498,3.725-29.535,23.681-36.985v-2.129H51.2v2.129
			C71.156,117.875,74.879,130.912,74.879,147.41z"/>
	</g>
	<g>
		<circle fill="#FFFFFF" stroke="#030303" stroke-width="2" stroke-miterlimit="10" cx="82.192" cy="215.557" r="6.96"/>
		<g>
			<path fill="#030303" d="M88.511,215.927c-0.119,2.493-1.216,4.479-3.268,5.899c0.364-0.212,0.729-0.425,1.094-0.638
				c-3.348,1.894-7.264,0.778-9.402-2.312c-2.232-3.225-0.799-7.512,2.207-9.591c-0.363,0.212-0.729,0.425-1.094,0.638
				C82.792,207.241,88.26,210.674,88.511,215.927c-0.011-0.216,1.296-0.505,1.284-0.741c-0.236-4.973-5.427-8.689-10.125-6.2
				c-2.827,1.498-4.917,3.507-5.08,6.941c-0.243,5.109,5.755,8.517,10.126,6.201c2.826-1.498,4.916-3.509,5.079-6.942
				C89.783,215.442,88.523,215.651,88.511,215.927z"/>
		</g>
	</g>
	<g>
		
			<linearGradient id="SVGID_1_" gradientUnits="userSpaceOnUse" x1="-859.5337" y1="-362.0029" x2="-853.3008" y2="-362.0029" gradientTransform="matrix(-1 0 0 -1 -808.332 -264.4355)">
			<stop  offset="0" style="stop-color:#FFFFFF"/>
			<stop  offset="1" style="stop-color:#FFFFFF"/>
		</linearGradient>
		<path fill="url(#SVGID_1_)" stroke="#030303" stroke-width="3" stroke-linejoin="round" stroke-miterlimit="10" d="M51.2,108.296
			c0,0-2.191-18.574-0.156-26.577c-1.713,0-4.197,4.35-4.493,4.824c-3.262,5.19-0.474,26.874-0.474,26.874
			C47.417,111.279,48.408,110.433,51.2,108.296z"/>
	</g>
	<g>
		
			<linearGradient id="SVGID_2_" gradientUnits="userSpaceOnUse" x1="-921.6851" y1="-359.2197" x2="-858.5952" y2="-359.2197" gradientTransform="matrix(-1 0 0 -1 -808.332 -264.4355)">
			<stop  offset="0" style="stop-color:#FFFFFF"/>
			<stop  offset="0.8587" style="stop-color:#FFFFFF"/>
			<stop  offset="1" style="stop-color:#FFFFFF"/>
		</linearGradient>
		<path fill="url(#SVGID_2_)" stroke="#030303" stroke-width="3" stroke-miterlimit="10" d="M51.2,108.296h61.985
			c0,0,1.064-27.022-2.197-27.022c-3.265,0-28.795,0-28.795,0s-27.258,0-30.521,0C48.802,81.273,51.2,108.296,51.2,108.296z"/>
	</g>
	<g>
		<path fill="#FFFFFF" stroke="#030303" stroke-width="1.5" stroke-linejoin="bevel" stroke-miterlimit="10" d="M79.342,211.844
			c3.844,0,6.96,3.115,6.96,6.959c0,1.188-0.537,2.046-1.059,3.023c2.191-1.172,3.909-3.216,3.909-5.874
			c0-3.844-3.117-6.959-6.959-6.959c-2.659,0-4.94,1.506-6.112,3.697C77.057,212.167,78.158,211.844,79.342,211.844z"/>
	</g>
	<g>
		<path stroke="#030303" stroke-width="2" stroke-linejoin="round" stroke-miterlimit="10" d="M112.984,101.194
			c-10.772,0-20.55,0-31.322,0c-7.218,0-14.438,0-21.657,0c-2.244,0-4.49,0-6.735,0c-0.731,0-1.673-0.195-2.328,0.178
			c-2.584,1.472-3.786,3.671-5.673,5.929c0.295-0.353,0.394,0.594,0.694,0.235c1.767-2.114,3.533-4.229,5.301-6.342
			c-0.429,0.247-0.857,0.493-1.285,0.74c20.905,0,41.813,0,62.718,0c0.434,0,0.223-0.74,0.646-0.74H112.984z"/>
	</g>
	<g>
		<path fill="#030303" d="M83.049,105.135c-0.018,0.334-0.105,0.605-0.289,0.885c-0.269,0.408-0.673,0.274,0.55-0.205
			c-0.202,0.08-0.425,0.079-0.637,0.068c-0.781-0.042-1.295-0.767-1.335-1.489c-0.017-0.32,0.118-0.624,0.289-0.884
			c0.269-0.408,0.673-0.273-0.55,0.206c0.202-0.079,0.425-0.078,0.637-0.067C82.494,103.69,83.009,104.412,83.049,105.135
			c-0.012-0.214,1.297-0.508,1.284-0.741c-0.063-1.186-1.237-1.818-2.277-1.28c-0.871,0.451-1.942,0.911-2.002,2.021
			c-0.066,1.22,1.323,1.776,2.276,1.282c0.873-0.452,1.943-0.912,2.003-2.023c-0.002,0.063-0.586,0.33-0.646,0.364
			C83.622,104.796,83.054,105.054,83.049,105.135z"/>
	</g>
	<g>
		<path fill="#030303" d="M63.553,105.135c-0.018,0.334-0.105,0.605-0.288,0.885c-0.268,0.408-0.675,0.277,0.552-0.205
			c-0.202,0.08-0.425,0.079-0.637,0.068c-0.781-0.042-1.297-0.766-1.336-1.489c-0.017-0.32,0.118-0.624,0.289-0.884
			c0.268-0.408,0.673-0.271-0.55,0.206c0.203-0.079,0.426-0.078,0.639-0.067C63.001,103.69,63.515,104.413,63.553,105.135
			c-0.003-0.047,0.598-0.336,0.646-0.364c0.056-0.032,0.643-0.313,0.639-0.377c-0.064-1.187-1.235-1.818-2.276-1.28
			c-0.872,0.45-1.943,0.911-2.002,2.021c-0.066,1.219,1.323,1.778,2.276,1.282c0.873-0.453,1.942-0.91,2.002-2.023
			c-0.004,0.063-0.587,0.33-0.646,0.364C64.126,104.796,63.557,105.054,63.553,105.135z"/>
	</g>
	<g>
		<path fill="#030303" d="M105.353,105.135c-0.019,0.334-0.105,0.605-0.289,0.885c-0.269,0.409-0.673,0.273,0.549-0.205
			c-0.202,0.08-0.425,0.079-0.638,0.068c-0.779-0.043-1.293-0.768-1.331-1.489c-0.018-0.32,0.118-0.624,0.288-0.884
			c0.269-0.408,0.675-0.275-0.551,0.206c0.202-0.079,0.423-0.078,0.636-0.067C104.797,103.69,105.313,104.411,105.353,105.135
			c-0.003-0.047,0.597-0.336,0.646-0.364c0.055-0.032,0.643-0.313,0.639-0.377c-0.063-1.185-1.236-1.819-2.277-1.28
			c-0.87,0.451-1.94,0.91-2.001,2.021c-0.065,1.22,1.321,1.776,2.276,1.282c0.872-0.452,1.942-0.912,2.002-2.023
			c-0.003,0.063-0.587,0.33-0.646,0.364C105.925,104.796,105.356,105.054,105.353,105.135z"/>
	</g>
	<g>
		<path stroke="#030303" stroke-linejoin="round" stroke-miterlimit="10" d="M112.808,86.259c-10.772,0-20.373,0-31.146,0
			c-7.218,0-14.438,0-21.657,0c-2.244,0-4.49,0-6.735,0c-0.731,0-1.673-0.195-2.328,0.178c-2.584,1.472-4.377,4.646-6.264,6.904
			c0.296-0.353,0.984-0.383,1.285-0.741c1.767-2.114,3.533-4.228,5.301-6.341c-0.429,0.247-0.857,0.493-1.285,0.741
			c20.905,0,41.813,0,62.718,0c0.434,0-0.135-0.792,0.288-0.792L112.808,86.259z"/>
	</g>
	<g>
		<g>
			<path fill="#FFFFFF" stroke="#030303" stroke-width="2.5" stroke-linejoin="round" stroke-miterlimit="10" d="M126.976,195.24
				c4.08-1.74,5.663-22.132,11.491-22.607c5.827-0.476,0.589,9.395,3.649,8.09c3.06-1.305-0.237-16.577,6.924-17.218
				c7.162-0.644-14.138,43.706-6.144,40.299c7.992-3.407,9.783-38.841,16.585-40.33c6.8-1.491-3.848,11.484,3.099,10.335
				c6.948-1.152,1.768-16.829,7.644-18.131c5.877-1.299-9.422,26.767,0.025,23.947c9.447-2.82,4.309-29.813,13.048-30.521
				c8.74-0.713,1.126,19.613,5.718,17.656c3.645-1.554,13.042-36.45,14.039-60.707l0.005,0.006
				c1.836,22.66,3.241,26.646,0.016,45.43c-3.225,18.789,3.165,12.695,4.753-2.025c1.59-14.716,4.065-56.777-18.925-98.646
				c-10.691-23.509-20.263-39.727-26.153-37.215c-7.016,2.989,2.763,10.66-3.748,13.435c-6.511,2.775-5.922-6.947-10.928-4.813
				c-5.011,2.135,6.528,14.722,0.017,17.497c-6.513,2.776-7.592-21.37-13.602-18.808c-6.008,2.561,8.839,15.174-0.179,19.018
				c-9.018,3.843-5.547-12.19-10.557-10.055c-4.66,1.986-3.553,9.506,1.607,22.236l-0.031,0.014c0.406,0.952,0.818,1.911,1.23,2.88
				l0.028,0.064c10.34,24.146,22.929,53.576,12.707,94.215c-3.229,10.944-9.338,24.186-14.013,35.8
				C120.601,196.727,122.896,196.979,126.976,195.24z"/>
		</g>
		<g>
			<path fill="#FFFFFF" stroke="#030303" stroke-width="3" stroke-linejoin="round" stroke-miterlimit="10" d="M181.559,186.823
				c0.96,2.252,3.566,3.302,5.817,2.342c2.126-0.906,3.155-3.276,2.463-5.433c0.965,0.902,2.408,1.205,3.698,0.655
				c1.749-0.746,2.566-2.771,1.821-4.521c-0.608-1.426-2.061-2.212-3.525-2.062c-0.074-0.423-0.185-0.845-0.36-1.256
				c-0.691-1.624-2.053-2.738-3.618-3.217c0.051-0.427,0.035-0.863-0.145-1.285c-0.55-1.289-2.042-1.888-3.328-1.34
				c-1.278,0.546-1.872,2.02-1.343,3.299c-2.287,1.495-3.248,4.451-2.141,7.05c0.257,0.603,0.623,1.125,1.043,1.585
				C181.15,183.842,180.953,185.402,181.559,186.823z"/>
		</g>
		<g>
			<circle fill="#FFFFFF" stroke="#030303" stroke-width="2" stroke-miterlimit="10" cx="176.239" cy="183.586" r="3.043"/>
			<g>
				<path stroke="#030303" stroke-width="2" d="M178.611,182.962c0.231,0.638,0.284,1.214,0.163,1.882
					c-0.025,0.142-0.42,0.774-0.092,0.45c-0.314,0.31-0.729,0.485-1.134,0.635c-1.492,0.541-3.031-0.4-3.68-1.719
					c-0.288-0.585-0.278-1.262-0.165-1.885c0.024-0.141,0.419-0.772,0.091-0.45c0.315-0.31,0.729-0.484,1.135-0.634
					C176.424,180.698,177.962,181.644,178.611,182.962c-0.091-0.184,0.952-0.936,0.854-1.137c-1.051-2.141-3.745-2.438-5.257-0.605
					c-1.014,1.229-1.793,2.484-1.194,4.128c0.839,2.305,3.873,2.28,5.257,0.602c1.013-1.229,1.793-2.482,1.194-4.124
					C179.551,182.059,178.519,182.711,178.611,182.962z"/>
			</g>
		</g>
		<g>
			<circle fill="#FFFFFF" stroke="#030303" stroke-width="2" stroke-miterlimit="10" cx="195.635" cy="168.809" r="4.477"/>
			<g>
				<path stroke="#030303" stroke-width="2" d="M199.325,167.622c0.786,2.158,0.266,4.092-1.967,4.905
					c-2.195,0.798-4.461-0.591-5.414-2.531c-1.018-2.072-0.091-4.153,1.965-4.902C196.104,164.296,198.371,165.681,199.325,167.622
					c-0.091-0.184,0.953-0.936,0.855-1.137c-1.542-3.139-5.508-3.588-7.729-0.896c-1.354,1.642-2.144,3.398-1.363,5.543
					c1.232,3.383,5.692,3.368,7.729,0.896c1.355-1.641,2.145-3.398,1.363-5.544C200.266,166.719,199.233,167.371,199.325,167.622z"
					/>
			</g>
		</g>
	</g>
	<g>
		<path fill="#FFFFFF" stroke="#030303" stroke-width="2.5" stroke-linejoin="round" stroke-miterlimit="10" d="M44.948,67.48
			c0-3.397,2.807-4.71,6.566-4.71c3.758,0,5.134-0.721,5.134-2.45c0-7.466,12.843-8.024,17.082-5.238
			c4.243,2.787,7.487,10.141,11.582,10.141c14.218,0,22.333,0.891,24.975,9.92v4.567c0,0,1.808,1.008,2.132,4.956
			c0.52,6.317,0.966,19.784,0.966,24.463c0,4.681,0,26.637,0,30.092c0,3.453-6.113,14.324,1.72,16.023
			c5.906,1.283,2.079-10.108,2.083-15.902c0.004-6.021-0.989-49.179-0.989-54.416s-5.735-15.802-5.735-25.056
			c0-9.255,9.013-13.729,6.226-16.438c-2.784-2.708-20.872,0-35.521,0c-14.649,0-32.226-1.715-34.79-1.715
			c-2.563,0-5.919,6.487-5.021,9.592C43.678,59.36,44.948,67.48,44.948,67.48z"/>
	</g>
	<g>
		<path fill="#030303" d="M173.228,46.251c0,0,8.145,18.594,13.633,36.971c5.494,18.375,6.541,28.571,6.541,28.571
			s-0.393-24.419-5.606-37.154C182.464,61.616,179.435,53.464,173.228,46.251z"/>
	</g>
</g>
</svg>
