<?xml version="1.0" encoding="utf-8"?>
<!-- Generator: Adobe Illustrator 16.0.0, SVG Export Plug-In . SVG Version: 6.00 Build 0)  -->
<!DOCTYPE svg PUBLIC "-//W3C//DTD SVG 1.1//EN" "http://www.w3.org/Graphics/SVG/1.1/DTD/svg11.dtd">
<svg version="1.1" id="Calque_1" xmlns="http://www.w3.org/2000/svg" xmlns:xlink="http://www.w3.org/1999/xlink" x="0px" y="0px"
	 width="250px" height="250px" viewBox="0 0 250 250" enable-background="new 0 0 250 250" xml:space="preserve">
<g id="XMLID_20_">
	<g id="XMLID_21_">
		<path stroke="#000000" stroke-linecap="round" stroke-linejoin="round" stroke-miterlimit="10" d="M225.11,133.219
			c0.173,4.606-3.096,14.003-4.901,18.098c-1.709,3.877-4.491,7.729-6.787,11.688c-6.225,10.738-14.121,23.147-21.869,32.426
			c3.929,21.678-20.323,17.609-38.836,16.968c-12.262-0.422-24.061,0.943-35.443,0.377c-6.805-0.339-17.906-1.169-28.278-0.754
			c-9.833,0.393-22.047-0.166-24.508-5.278c-3.481-7.225,3.888-17.525,1.508-25.64c-0.645-2.194-4.147-3.639-6.409-5.656
			c-4.525-4.037-7.478-8.275-11.689-12.442c-2.231-2.205-4.984-3.386-6.786-5.278c-5.31-5.569-15.81-16.636-16.214-26.771
			c-0.426-10.739,8.996-27.141,12.82-35.443c2.653-5.773,5.757-10.787,8.295-15.836c2.692-5.354,4.814-10.866,7.918-15.836
			c1.568-2.511,4.313-5.527,6.41-8.672c2.277-3.412,4.845-6.746,7.54-8.295c8.325-4.781,24.493-7.692,33.936-9.804
			c4.49-1.003,9.185,2.315,13.95,4.147c7.308,2.809,15.078,4.461,23.754,2.262c7.247-1.835,13.254-7.37,22.623-6.409
			c8.356,0.859,17.756,6.907,24.886,10.181c2.884,1.322,6.248,2.428,7.918,3.771c6.542,5.264,9.099,22.276,13.197,32.05
			c5.108,12.186,9.309,22.303,12.065,32.803c0.618,2.359,0.618,5.215,1.131,7.164C222.188,126.27,224.963,129.331,225.11,133.219z
			 M208.144,167.53c5.96-9.374,13.099-22.265,12.442-35.443c-9.694,1.365-18.695,3.424-27.524,5.656
			c-0.543,5.549-3.93,8.699-5.279,12.819c-1.901,5.811-3.272,10.538-6.409,15.082c-2.885,4.178-7.139,7.024-9.804,11.688
			c6.813,4.75,13.174,9.95,19.983,14.705C198.344,185.485,202.68,176.119,208.144,167.53z M219.832,126.055
			c-0.728-3.293-0.593-7.45-1.886-10.181c-10.444,3.001-20.467,6.429-30.164,10.181c0.577,2.815,2.79,3.996,3.394,6.786
			C200.719,130.571,207.403,125.439,219.832,126.055z M213.422,131.333c2.432-0.486,5.874-0.381,7.164-2.64
			c-10.87-2.077-19.916,3.877-28.279,6.786C198.77,133.825,206.303,132.759,213.422,131.333z M216.814,112.857
			c-1.198-5.071-6.832,0.223-10.557-0.377c-3.785,2.259-9.106,2.771-13.951,4.902c-3.178,1.397-8.4,3.128-6.409,6.408
			C194.264,119.716,205.553,115.297,216.814,112.857z M215.307,107.956c-2.036-7.138-4.46-13.891-7.163-20.361
			c-9.064,1.116-15.249,5.113-22.246,8.295c-0.706,8.345-2.674,15.426-3.017,24.132C192.325,114.633,202.4,109.878,215.307,107.956z
			 M207.012,85.71c-0.268-1.493-0.58-2.938-1.886-3.395c-6.968,0.951-12.435,3.401-17.721,6.033c0.434,1.226-1.149,2.319,0,3.017
			C193.838,89.378,199.799,86.921,207.012,85.71z M204.75,80.432c-4.261-8.507-4.133-22.329-10.935-27.902
			c-1.924-1.575-4.382-1.429-7.165-2.64c-3.702-1.609-7.189-4.758-11.311-6.41c-5.071-2.032-10.373-3.396-14.328-4.523
			c0,0.376,0,0.754,0,1.131c3.525,20.417-9.113,33.384-19.983,43.36c-2.877,2.64-8.099,7.997-11.689,7.918
			c-2.183-0.049-7.906-3.555-10.18-5.278c-7.066-5.354-14.433-19.361-16.968-28.655c-1.549-5.679-1.165-12.688-0.754-18.1
			c-5.9,1.169-11.873,2.508-17.722,4.147c-5.52,1.546-12.574,2.648-16.213,6.033c-1.798,1.675-2.644,4.541-4.147,6.787
			c-4.506,6.727-9.444,12.695-12.442,20.36c6.225,2.218,14.689,4.058,16.59,10.559c1.282,4.385-0.229,9.448,1.509,14.704
			c37.543-0.347,76.602-4.339,114.246,0c-0.241-5.297,2.326-10.331,3.017-15.082c0.282-1.961-0.977-5.015,1.508-6.033
			c2.259,0.589-0.987,4.532,0.755,4.525C193.486,83.248,198.362,81.083,204.75,80.432z M190.798,138.497
			c0.366-6.225-5.425-10.313-7.917-15.082c1.734,8.57,0.724,19.89,2.639,28.278C186.481,146.921,190.516,143.334,190.798,138.497z
			 M189.29,203.35c0.276-2.24,0.958-4.068,0.755-6.787c-6.844-1.674-10.467-4.317-13.951-7.163
			c-1.244-1.02-8.412-7.274-8.672-10.181c-0.396-4.431,4.141-7.24,7.164-11.312c1.522-2.052,4.848-5.735,6.032-7.919
			c1.527-2.813,0.882-2.548-1.508-2.262c-4.212,0.501-10.742,1.961-16.591,1.508c-5.98-0.46-10.727-1.52-15.081-1.508
			c-19.441,0.042-39.636,1.135-58.82,0.377c0.019,1.372,3.393,2.632,3.771,4.901c-6.174,7.402-11.494,15.654-18.854,21.869
			c-2.353,0.022-4.257-4.192-5.656-2.64c-0.647,6.104-0.169,11.795-1.508,16.591c6.716,8.068,22.31,6.595,35.065,6.032
			c15.6-0.687,34.078-0.765,50.902,0C165.619,205.461,178.627,206.607,189.29,203.35z M189.29,194.678
			c-1.451-3.3-5.697-5.721-9.049-8.296c-3.536-2.715-6.87-6.255-10.558-7.163C174.582,186.01,181.154,191.125,189.29,194.678z
			 M183.635,153.579c0.14-3.722-5.278-2.01-6.41-1.886c-27.626,3.066-63.325-0.878-94.263,1.131
			c3.322,4.631,10.346,3.771,16.214,3.771c12.971,0,26.457-0.867,39.59-0.376c12.522,0.467,22.702-1.056,33.936-0.755
			C174.201,155.506,183.495,157.342,183.635,153.579z M182.127,107.202c0.637-0.747,0.411-2.353,0.754-3.394
			c-23.456-3.152-49.778-1.772-72.017,0c-3.337,0.268-6.9,0.09-10.181,0.377c-1.915,0.166-4.072,1.134-6.033,1.131
			c-8.653-0.015-17.145-1.84-25.639-1.131c-0.279,1.787,0.422,2.593,0.376,4.147c26.926,2.359,57.315-1.795,84.837-1.509
			C163.733,106.923,173.077,108.552,182.127,107.202z M182.881,149.054c-0.908-3.74-1.021-8.279-1.508-12.442
			c-33.188,3.42-74.659,0.427-110.854,0.754c-0.139,3.326,1.109,6.09,4.147,8.295c2.459,1.788,5.261,4.412,7.541,4.902
			c6.568,1.41,14.233-0.807,21.492-0.755C129.241,149.997,160.359,151.521,182.881,149.054z M180.995,129.824
			c-0.788-6.292,0.166-13.837,0.755-19.983c-37.837-3.51-75.063,2.907-112.362,0.755c0.341,6.197,0.974,12.099,0.755,18.853
			C105.778,133.655,145.459,129.52,180.995,129.824z M176.094,134.727c1.309-0.132,4.283,1.044,4.901-1.131
			c-0.452-3.273-4.147-1.595-6.032-1.509c-8.615,0.393-16.5-0.849-24.509-0.377c-3.781,0.223-7.669,1.421-11.688,1.509
			c-20.111,0.429-41.834,0.572-61.082-0.755c-1.979-0.136-7.432-2.059-7.164,1.508c0.195,2.07,2.828,1.083,3.771,1.132
			c1.679,0.087,3.688,0,5.278,0c17.088,0,33.257,1.132,49.771,1.132c6.523,0,12.851-1.403,19.23-1.509
			c3.548-0.061,7.349,0.931,10.934,1.131C165.472,136.189,171.453,135.19,176.094,134.727z M186.274,206.743
			c-25.014,1.252-56.381-1.143-82.574,0.754c-9.487,0.687-19.229,1.765-26.771-0.377c-4.057-1.153-7.602-3.944-11.311-4.148
			c0.082,4.334,5.06,6.298,9.425,6.787c7.64,0.856,16.873,0,26.017,0c17.11,0,35.25-0.6,51.279,0
			C166.309,210.283,178.779,211.894,186.274,206.743z M152.02,66.57c5.025-7.771,10.244-16.537,6.354-27.614
			c-0.895,6.478-0.66,13.008-2.64,18.476c-1.282,3.536-2.733,6.42-4.366,8.958c-3.123,4.849-6.916,8.442-11.47,12.91
			c-2.733,2.678-6.438,6.806-9.804,7.164c-3.465,0.37-6.811-1.36-9.518-3.571c-2.039-1.658-3.717-3.593-4.811-5.101
			c-4.932-6.806-10.919-19.037-11.688-29.787c-0.223-3.088,0.656-6.029-0.377-9.049c-2.579,7.285-0.486,15.711,1.885,22.246
			c2.323,6.391,5.638,13.064,9.05,17.344c0.894,1.12,2.81,3.013,5.052,4.863c3.387,2.795,7.522,5.494,10.03,5.317
			c2.262-0.162,6.969-4.358,9.426-6.411c4.528-3.777,7.549-7.238,9.804-10.934C149.904,69.813,150.956,68.215,152.02,66.57z
			 M137.258,80.055c10.919-9.615,18.518-21.496,18.852-40.345c-9.637,2.956-17.404,9.162-27.901,7.918
			c-2.685-0.316-4.743-1.879-7.541-3.017c-4.863-1.979-10.765-3.187-14.704-4.901c0,0.377,0,0.754,0,1.131
			c-0.755,16.896,7.525,31.865,15.836,39.591C127.134,85.394,132.375,84.356,137.258,80.055z M89.749,163.382
			c-0.29-1.218-1.044-1.972-2.262-2.262c-4.646,6.794-13.031,11.847-15.082,19.983c4.129,1.829,5.135-5.215,8.672-6.409
			C83.396,170.35,87.083,167.379,89.749,163.382z M86.355,159.611c-3.619-3.669-6.53-8.204-10.934-11.312
			c-5.087-3.589-11.131-5.969-13.574-12.442c-8.718,3.597-21.857,2.779-29.787,7.164c10.06,14.701,24.316,25.202,38.082,36.197
			C74.385,171.519,81.209,166.402,86.355,159.611z M69.012,141.137c-0.6-8.45-0.32-17.779-1.509-25.641
			C61.252,121.271,61.056,137.103,69.012,141.137z M67.503,111.727c1.468-6.195-1.938-12.764-1.131-19.606
			c-4.796-4.254-11.304-6.795-18.853-8.295c-6.036,7.914-10.475,17.428-14.705,27.146c13.276-1.764,21.296,4.793,29.41,9.427
			C62.617,116.937,66.666,115.26,67.503,111.727z M65.995,89.103c0.4-1.583-0.611-3.004-1.508-3.77
			c-2.149-1.828-11.899-5.758-15.083-6.033c-0.313,0.942-1.033,1.481-1.131,2.64C55.344,83.165,61.123,85.68,65.995,89.103z
			 M61.094,132.841c-0.253,0-0.502,0-0.754,0c-0.125,0-0.253,0-0.378,0c-4.471,2.191-11.417,1.44-17.344,2.263
			c-5.162,0.716-10.648,1.647-12.442,4.524c2.092,0.856,4.977-0.207,7.541-0.754c5.542-1.184,11.349-1.882,16.59-3.017
			C56.735,135.333,59.988,134.877,61.094,132.841z M60.717,129.824c0-1.384,0-2.763,0-4.147c-9.842-2.251-18.713-7.394-31.295-5.655
			c-1.862,4.196-3.334,11.673-1.132,16.59C38.655,133.904,48.417,130.594,60.717,129.824z M38.848,117.005
			c8.759-0.358,14.26,5.973,22.623,6.786c-5.893-7.027-17.668-11.857-29.787-10.18c-0.252,1.509-0.936,2.583-1.508,3.771
			C33.554,118.185,36.091,117.118,38.848,117.005z"/>
		<path fill="#FFFFFF" stroke="#000000" stroke-linecap="round" stroke-linejoin="round" stroke-miterlimit="10" d="
			M220.586,132.087c0.656,13.179-6.482,26.069-12.442,35.443c-5.464,8.589-9.8,17.955-16.591,24.508
			c-6.81-4.755-13.171-9.955-19.983-14.705c2.665-4.664,6.919-7.511,9.804-11.688c3.137-4.544,4.508-9.271,6.409-15.082
			c1.35-4.12,4.736-7.271,5.279-12.819C201.891,135.511,210.892,133.452,220.586,132.087z"/>
		<path fill="#FFFFFF" stroke="#000000" stroke-linecap="round" stroke-linejoin="round" stroke-miterlimit="10" d="
			M217.946,115.874c1.293,2.73,1.158,6.888,1.886,10.181c-12.429-0.615-19.113,4.517-28.656,6.786
			c-0.604-2.79-2.816-3.971-3.394-6.786C197.479,122.303,207.502,118.875,217.946,115.874z"/>
		<path fill="#FFFFFF" stroke="#000000" stroke-linecap="round" stroke-linejoin="round" stroke-miterlimit="10" d="
			M220.586,128.693c-1.29,2.259-4.732,2.153-7.164,2.64c-7.119,1.426-14.652,2.492-21.115,4.146
			C200.67,132.57,209.716,126.616,220.586,128.693z"/>
		<path fill="#FFFFFF" stroke="#000000" stroke-linecap="round" stroke-linejoin="round" stroke-miterlimit="10" d="M206.258,112.48
			c3.725,0.6,9.358-4.694,10.557,0.377c-11.262,2.439-22.551,6.858-30.917,10.934c-1.991-3.28,3.231-5.011,6.409-6.408
			C197.151,115.251,202.473,114.739,206.258,112.48z"/>
		<path fill="#FFFFFF" stroke="#000000" stroke-linecap="round" stroke-linejoin="round" stroke-miterlimit="10" d="M208.144,87.595
			c2.703,6.471,5.127,13.224,7.163,20.361c-12.906,1.922-22.981,6.677-32.426,12.065c0.343-8.706,2.311-15.787,3.017-24.132
			C192.895,92.708,199.079,88.711,208.144,87.595z"/>
		<path fill="#FFFFFF" stroke="#000000" stroke-linecap="round" stroke-linejoin="round" stroke-miterlimit="10" d="M205.126,82.315
			c1.306,0.457,1.618,1.901,1.886,3.395c-7.213,1.211-13.174,3.668-19.606,5.655c-1.149-0.697,0.434-1.791,0-3.017
			C192.691,85.717,198.158,83.267,205.126,82.315z"/>
		<path fill="#FFFFFF" stroke="#000000" stroke-linecap="round" stroke-linejoin="round" stroke-miterlimit="10" d="M193.815,52.529
			c6.802,5.573,6.674,19.396,10.935,27.902c-6.388,0.651-11.264,2.816-16.213,4.901c-1.742,0.007,1.504-3.937-0.755-4.525
			c-2.484,1.019-1.226,4.072-1.508,6.033c-0.69,4.751-3.258,9.785-3.017,15.082c-37.645-4.339-76.703-0.347-114.246,0
			c-1.738-5.256-0.227-10.319-1.509-14.704c-1.9-6.501-10.365-8.341-16.59-10.559c2.998-7.665,7.937-13.634,12.442-20.36
			c1.504-2.246,2.35-5.112,4.147-6.787c3.639-3.385,10.693-4.487,16.213-6.033c5.849-1.64,11.821-2.979,17.722-4.147
			c-0.411,5.411-0.795,12.421,0.754,18.1c2.535,9.294,9.901,23.301,16.968,28.655c2.273,1.724,7.997,5.229,10.18,5.278
			c3.591,0.079,8.813-5.278,11.689-7.918c10.87-9.977,23.509-22.943,19.983-43.36c0-0.377,0-0.755,0-1.131
			c3.955,1.127,9.257,2.491,14.328,4.523c4.121,1.652,7.608,4.801,11.311,6.41C189.434,51.101,191.892,50.954,193.815,52.529z"/>
		<path fill="#FFFFFF" stroke="#000000" stroke-linecap="round" stroke-linejoin="round" stroke-miterlimit="10" d="
			M182.881,123.415c2.492,4.77,8.283,8.857,7.917,15.082c-0.282,4.837-4.316,8.424-5.278,13.196
			C183.604,143.305,184.615,131.985,182.881,123.415z"/>
		<path fill="#FFFFFF" stroke="#000000" stroke-linecap="round" stroke-linejoin="round" stroke-miterlimit="10" d="
			M190.045,196.563c0.203,2.719-0.479,4.547-0.755,6.787c-10.663,3.258-23.671,2.111-36.95,1.508
			c-16.824-0.765-35.303-0.687-50.902,0c-12.756,0.563-28.35,2.036-35.065-6.032c1.339-4.796,0.86-10.486,1.508-16.591
			c1.399-1.553,3.304,2.662,5.656,2.64c7.359-6.215,12.68-14.467,18.854-21.869c-0.379-2.27-3.753-3.529-3.771-4.901
			c19.185,0.758,39.379-0.335,58.82-0.377c4.354-0.012,9.101,1.048,15.081,1.508c5.849,0.453,12.379-1.007,16.591-1.508
			c2.39-0.286,3.035-0.551,1.508,2.262c-1.185,2.184-4.51,5.867-6.032,7.919c-3.023,4.071-7.561,6.881-7.164,11.312
			c0.26,2.906,7.428,9.161,8.672,10.181C179.578,192.245,183.201,194.889,190.045,196.563z"/>
		<path fill="#FFFFFF" stroke="#000000" stroke-linecap="round" stroke-linejoin="round" stroke-miterlimit="10" d="
			M180.241,186.382c3.352,2.575,7.598,4.996,9.049,8.296c-8.136-3.553-14.708-8.668-19.606-15.459
			C173.371,180.127,176.705,183.667,180.241,186.382z"/>
		<path fill="#FFFFFF" stroke="#000000" stroke-linecap="round" stroke-linejoin="round" stroke-miterlimit="10" d="
			M177.225,151.693c1.132-0.124,6.55-1.836,6.41,1.886c-0.14,3.763-9.434,1.927-10.934,1.885
			c-11.233-0.301-21.413,1.222-33.936,0.755c-13.133-0.491-26.619,0.376-39.59,0.376c-5.868,0-12.892,0.86-16.214-3.771
			C113.899,150.815,149.599,154.76,177.225,151.693z"/>
		<path fill="#FFFFFF" stroke="#000000" stroke-linecap="round" stroke-linejoin="round" stroke-miterlimit="10" d="
			M182.881,103.809c-0.343,1.041-0.117,2.646-0.754,3.394c-9.05,1.35-18.394-0.279-27.902-0.378
			c-27.521-0.286-57.911,3.868-84.837,1.509c0.046-1.555-0.655-2.36-0.376-4.147c8.494-0.709,16.985,1.116,25.639,1.131
			c1.961,0.003,4.118-0.965,6.033-1.131c3.28-0.287,6.844-0.109,10.181-0.377C133.103,102.036,159.425,100.656,182.881,103.809z"/>
		<path fill="#FFFFFF" stroke="#000000" stroke-linecap="round" stroke-linejoin="round" stroke-miterlimit="10" d="
			M181.373,136.611c0.486,4.163,0.6,8.702,1.508,12.442c-22.521,2.467-53.64,0.943-79.181,0.754
			c-7.259-0.052-14.924,2.165-21.492,0.755c-2.28-0.49-5.082-3.114-7.541-4.902c-3.038-2.205-4.286-4.969-4.147-8.295
			C106.714,137.038,148.185,140.031,181.373,136.611z"/>
		<path fill="#FFFFFF" stroke="#000000" stroke-linecap="round" stroke-linejoin="round" stroke-miterlimit="10" d="M181.75,109.841
			c-0.589,6.146-1.543,13.691-0.755,19.983c-35.536-0.305-75.217,3.831-110.853-0.376c0.219-6.754-0.414-12.655-0.755-18.853
			C106.687,112.748,143.913,106.331,181.75,109.841z"/>
		<path fill="#FFFFFF" stroke="#000000" stroke-linecap="round" stroke-linejoin="round" stroke-miterlimit="10" d="
			M180.995,133.596c-0.618,2.175-3.593,0.999-4.901,1.131c-4.641,0.464-10.622,1.463-16.591,1.131
			c-3.585-0.2-7.386-1.191-10.934-1.131c-6.38,0.105-12.707,1.509-19.23,1.509c-16.514,0-32.683-1.132-49.771-1.132
			c-1.591,0-3.6,0.087-5.278,0c-0.942-0.049-3.575,0.938-3.771-1.132c-0.268-3.566,5.185-1.644,7.164-1.508
			c19.248,1.327,40.971,1.184,61.082,0.755c4.02-0.088,7.907-1.286,11.688-1.509c8.009-0.472,15.894,0.77,24.509,0.377
			C176.848,132.001,180.543,130.322,180.995,133.596z"/>
		<path fill="#FFFFFF" stroke="#000000" stroke-linecap="round" stroke-linejoin="round" stroke-miterlimit="10" d="M103.7,207.497
			c26.193-1.896,57.561,0.498,82.574-0.754c-7.495,5.15-19.966,3.54-33.935,3.016c-16.029-0.6-34.169,0-51.279,0
			c-9.144,0-18.377,0.856-26.017,0c-4.365-0.489-9.343-2.453-9.425-6.787c3.709,0.204,7.254,2.995,11.311,4.148
			C84.471,209.262,94.213,208.184,103.7,207.497z"/>
		<path fill="#FFFFFF" stroke="#000000" stroke-linecap="round" stroke-linejoin="round" stroke-miterlimit="10" d="M158.373,38.956
			c3.891,11.077-1.328,19.844-6.354,27.614l-0.652-0.181c1.633-2.538,3.084-5.422,4.366-8.958
			C157.713,51.964,157.479,45.434,158.373,38.956z"/>
		<path fill="#FFFFFF" stroke="#000000" stroke-linecap="round" stroke-linejoin="round" stroke-miterlimit="10" d="M151.367,66.39
			l0.652,0.181c-1.063,1.645-2.115,3.243-3.073,4.812c-2.255,3.695-5.275,7.156-9.804,10.934c-2.457,2.053-7.164,6.249-9.426,6.411
			c-2.508,0.177-6.644-2.522-10.03-5.317l0.89-0.517c2.707,2.211,6.053,3.941,9.518,3.571c3.366-0.358,7.07-4.486,9.804-7.164
			C144.451,74.832,148.244,71.238,151.367,66.39z"/>
		<path fill="#FFFFFF" stroke="#000000" stroke-linecap="round" stroke-linejoin="round" stroke-miterlimit="10" d="M156.109,39.71
			c-0.334,18.849-7.933,30.729-18.852,40.345c-4.883,4.302-10.124,5.339-15.459,0.377c-8.311-7.726-16.591-22.695-15.836-39.591
			c0-0.377,0-0.754,0-1.131c3.939,1.715,9.841,2.922,14.704,4.901c2.798,1.138,4.856,2.7,7.541,3.017
			C138.705,48.872,146.473,42.666,156.109,39.71z"/>
		<path fill="#FFFFFF" stroke="#000000" stroke-linecap="round" stroke-linejoin="round" stroke-miterlimit="10" d="M120.576,82.893
			l-0.89,0.517c-2.242-1.851-4.158-3.743-5.052-4.863c-3.412-4.279-6.727-10.953-9.05-17.344
			c-2.371-6.535-4.464-14.961-1.885-22.246c1.033,3.02,0.154,5.961,0.377,9.049c0.77,10.75,6.757,22.981,11.688,29.787
			C116.859,79.3,118.537,81.234,120.576,82.893z"/>
		<path fill="#FFFFFF" stroke="#000000" stroke-linecap="round" stroke-linejoin="round" stroke-miterlimit="10" d="M87.487,161.12
			c1.218,0.29,1.972,1.044,2.262,2.262c-2.666,3.997-6.353,6.968-8.672,11.313c-3.537,1.194-4.543,8.238-8.672,6.409
			C74.456,172.967,82.842,167.914,87.487,161.12z"/>
		<path fill="#FFFFFF" stroke="#000000" stroke-linecap="round" stroke-linejoin="round" stroke-miterlimit="10" d="M75.422,148.3
			c4.403,3.107,7.314,7.643,10.934,11.312c-5.146,6.791-11.971,11.907-16.213,19.607c-13.766-10.995-28.022-21.496-38.082-36.197
			c7.93-4.385,21.069-3.567,29.787-7.164C64.291,142.331,70.335,144.711,75.422,148.3z"/>
		<path fill="#FFFFFF" stroke="#000000" stroke-linecap="round" stroke-linejoin="round" stroke-miterlimit="10" d="M67.503,115.496
			c1.188,7.861,0.909,17.19,1.509,25.641C61.056,137.103,61.252,121.271,67.503,115.496z"/>
		<path fill="#FFFFFF" stroke="#000000" stroke-linecap="round" stroke-linejoin="round" stroke-miterlimit="10" d="M66.372,92.12
			c-0.808,6.843,2.599,13.411,1.131,19.606c-0.837,3.533-4.886,5.21-5.278,8.672c-8.114-4.634-16.134-11.19-29.41-9.427
			c4.23-9.719,8.669-19.232,14.705-27.146C55.068,85.325,61.576,87.866,66.372,92.12z"/>
		<path fill="#FFFFFF" stroke="#000000" stroke-linecap="round" stroke-linejoin="round" stroke-miterlimit="10" d="M64.487,85.333
			c0.896,0.766,1.908,2.187,1.508,3.77c-4.872-3.423-10.651-5.938-17.722-7.163c0.098-1.158,0.818-1.697,1.131-2.64
			C52.588,79.575,62.338,83.505,64.487,85.333z"/>
		<path fill="#FFFFFF" stroke="#000000" stroke-linecap="round" stroke-linejoin="round" stroke-miterlimit="10" d="M60.34,132.841
			c0.252,0,0.501,0,0.754,0c-1.105,2.036-4.358,2.492-6.787,3.017c-5.241,1.135-11.048,1.833-16.59,3.017
			c-2.564,0.547-5.449,1.61-7.541,0.754c1.794-2.877,7.28-3.809,12.442-4.524c5.927-0.822,12.873-0.071,17.344-2.263
			C60.087,132.841,60.215,132.841,60.34,132.841z"/>
		<path fill="#FFFFFF" stroke="#000000" stroke-linecap="round" stroke-linejoin="round" stroke-miterlimit="10" d="M60.717,125.677
			c0,1.385,0,2.764,0,4.147c-12.3,0.77-22.062,4.08-32.427,6.787c-2.202-4.917-0.73-12.394,1.132-16.59
			C42.004,118.283,50.875,123.426,60.717,125.677z"/>
		<path fill="#FFFFFF" stroke="#000000" stroke-linecap="round" stroke-linejoin="round" stroke-miterlimit="10" d="M61.471,123.791
			c-8.363-0.813-13.864-7.145-22.623-6.786c-2.757,0.113-5.294,1.18-8.672,0.378c0.572-1.188,1.256-2.263,1.508-3.771
			C43.803,111.934,55.578,116.764,61.471,123.791z"/>
	</g>
</g>
</svg>
