<?xml version="1.0" encoding="utf-8"?>
<!-- Generator: Adobe Illustrator 16.0.0, SVG Export Plug-In . SVG Version: 6.00 Build 0)  -->
<!DOCTYPE svg PUBLIC "-//W3C//DTD SVG 1.1//EN" "http://www.w3.org/Graphics/SVG/1.1/DTD/svg11.dtd">
<svg version="1.1" xmlns="http://www.w3.org/2000/svg" xmlns:xlink="http://www.w3.org/1999/xlink" x="0px" y="0px" width="2048px"
	 height="1536px" viewBox="0 0 2048 1536" enable-background="new 0 0 2048 1536" xml:space="preserve">
<g id="Ebene_2" display="none">
	<g display="inline">
		<defs>
			<rect id="SVGID_9_" width="2048" height="1536"/>
		</defs>
		<clipPath id="SVGID_2_">
			<use xlink:href="#SVGID_9_"  overflow="visible"/>
		</clipPath>
		<g clip-path="url(#SVGID_2_)">
			<defs>
				<rect id="SVGID_11_" width="2048.744" height="1536.808"/>
			</defs>
			<clipPath id="SVGID_4_">
				<use xlink:href="#SVGID_11_"  overflow="visible"/>
			</clipPath>
			<g clip-path="url(#SVGID_4_)">
				<image overflow="visible" width="2049" height="1537" xlink:href="313F0A22.jpg"  transform="matrix(0.9999 0 0 0.9999 0 0)">
				</image>
			</g>
		</g>
	</g>
	<g display="inline">
		<defs>
			<rect id="SVGID_25_" x="1828" y="668" width="200" height="200"/>
		</defs>
		<clipPath id="SVGID_6_">
			<use xlink:href="#SVGID_25_"  overflow="visible"/>
		</clipPath>
		<g transform="matrix(1 0 0 1 -3.487649e-005 -5.015729e-006)" clip-path="url(#SVGID_6_)">
			<image overflow="visible" width="150" height="151" xlink:href="313F0A22.png"  transform="matrix(1.3333 0 0 1.3245 1828 668)">
			</image>
		</g>
	</g>
	<g display="inline">
		<defs>
			<rect id="SVGID_27_" x="20" y="668" width="200" height="200"/>
		</defs>
		<clipPath id="SVGID_8_">
			<use xlink:href="#SVGID_27_"  overflow="visible"/>
		</clipPath>
		<g transform="matrix(1 0 0 1 -5.800059e-006 -2.515446e-005)" clip-path="url(#SVGID_8_)">
			
				<image overflow="visible" width="150" height="151" xlink:href="313F0A26.png"  transform="matrix(-1.3333 0 0 -1.3245 220 868)">
			</image>
		</g>
	</g>
</g>
<g id="Ebene_3">
	<path fill="#FFFFFF" stroke="#000000" stroke-width="3.9955" stroke-miterlimit="10" d="M548.794,455.013
		c3.37,7.089,120.843,6.743,120.843,6.743s10.315-6.099,3.363-15.046c-9.377-12.068-17.723-41.702,13.041-41.619
		c34.21,0.094,15.664,37.599,10.553,44.46c-5.496,7.383,4.752,11.502,4.752,11.502l72.514-0.477l42.123-7.299
		c0,0,1.792,7.123,2.46-39.546c0.667-46.669-8.252-244.307-8.252-244.307S567.958,140.032,546,180.612
		C524.043,221.192,527.45,410.092,548.794,455.013z"/>
	<path fill="#FFFFFF" stroke="#000000" stroke-width="3.9955" stroke-miterlimit="10" d="M888.24,457.639
		c3.37,7.089,120.843,6.743,120.843,6.743s10.315-6.099,3.363-15.046c-9.377-12.068-17.723-41.702,13.041-41.619
		c34.21,0.094,15.664,37.599,10.553,44.46c-5.496,7.383,4.752,11.502,4.752,11.502l72.514-0.477l42.123-7.299
		c0,0,1.792,7.123,2.46-39.546c0.667-46.669-8.252-244.307-8.252-244.307s-242.233-29.392-264.191,11.188
		C863.489,223.818,866.896,412.718,888.24,457.639z"/>
	<path fill="#FFFFFF" stroke="#000000" stroke-width="3.9955" stroke-miterlimit="10" d="M1224.271,457.639
		c3.37,7.089,120.843,6.743,120.843,6.743s10.315-6.099,3.363-15.046c-9.377-12.068-17.723-41.702,13.041-41.619
		c34.21,0.094,15.664,37.599,10.553,44.46c-5.496,7.383,4.752,11.502,4.752,11.502l72.514-0.477l42.123-7.299
		c0,0,1.792,7.123,2.46-39.546c0.667-46.669-8.252-244.307-8.252-244.307s-242.233-29.392-264.191,11.188
		C1199.52,223.818,1202.927,412.718,1224.271,457.639z"/>
	<path fill="#FFFFFF" stroke="#000000" stroke-width="3.9955" stroke-miterlimit="10" d="M1224.271,1188.641
		c3.37,7.089,120.843,6.742,120.843,6.742s10.315-6.099,3.363-15.047c-9.377-12.067-17.723-41.701,13.041-41.618
		c34.21,0.095,15.664,37.599,10.553,44.46c-5.496,7.383,4.752,11.502,4.752,11.502l72.514-0.477l42.123-7.3
		c0,0,1.792,7.122,2.46-39.546c0.667-46.67-8.252-244.307-8.252-244.307s-242.233-29.392-264.191,11.188
		C1199.52,954.819,1202.927,1143.719,1224.271,1188.641z"/>
	<path fill="#FFFFFF" stroke="#000000" stroke-width="3.9955" stroke-miterlimit="10" d="M888.24,1188.641
		c3.37,7.089,120.843,6.742,120.843,6.742s10.315-6.099,3.363-15.047c-9.377-12.067-17.723-41.701,13.041-41.618
		c34.21,0.095,15.664,37.599,10.553,44.46c-5.496,7.383,4.752,11.502,4.752,11.502l72.514-0.477l42.123-7.3
		c0,0,1.792,7.122,2.46-39.546c0.667-46.67-8.252-244.307-8.252-244.307s-242.233-29.392-264.191,11.188
		C863.489,954.819,866.896,1143.719,888.24,1188.641z"/>
	<path fill="#FFFFFF" stroke="#000000" stroke-width="3.9955" stroke-miterlimit="10" d="M556.989,1188.641
		c3.37,7.089,120.843,6.742,120.843,6.742s10.315-6.099,3.363-15.047c-9.377-12.067-17.723-41.701,13.041-41.618
		c34.21,0.095,15.664,37.599,10.553,44.46c-5.496,7.383,4.752,11.502,4.752,11.502l72.514-0.477l42.123-7.3
		c0,0,1.792,7.122,2.46-39.546c0.667-46.67-8.252-244.307-8.252-244.307s-242.233-29.392-264.191,11.188
		C532.238,954.819,535.645,1143.719,556.989,1188.641z"/>
	<path fill="#FFFFFF" stroke="#000000" stroke-width="3.944" stroke-miterlimit="10" d="M675.256,1197.439
		c0,0-112.233-3.444-119.285-6.655c-7.375-3.36-5.293,84.144,6.171,94.582c11.466,10.438,255.567,0,255.567,0
		s14.727-75.706,0.483-95.822l-12.548,2.174l-27.507,4.558l-71.579,0.471c0,0-10.116-4.063-4.69-11.352
		c5.044-6.772,23.353-43.797-10.419-43.886c-30.365-0.087-22.128,29.169-12.873,41.081
		C685.438,1191.423,675.256,1197.439,675.256,1197.439z"/>
	<path fill="#FFFFFF" stroke="#000000" stroke-width="3.944" stroke-miterlimit="10" d="M673.54,601.079
		c0,0-112.233-3.444-119.285-6.655c-7.375-3.36-5.293,84.144,6.171,94.582c11.466,10.438,255.567,0,255.567,0
		s14.727-75.706,0.483-95.822l-12.548,2.174l-27.507,4.558l-71.579,0.471c0,0-10.116-4.063-4.69-11.352
		c5.044-6.772,23.353-43.797-10.419-43.886c-30.365-0.087-22.128,29.169-12.873,41.081
		C683.722,595.063,673.54,601.079,673.54,601.079z"/>
	<path fill="#FFFFFF" stroke="#000000" stroke-width="3.944" stroke-miterlimit="10" d="M1006.469,601.079
		c0,0-112.233-3.444-119.285-6.655c-7.375-3.36-5.293,84.144,6.171,94.582c11.466,10.438,255.567,0,255.567,0
		s14.727-75.706,0.483-95.822l-12.548,2.174l-27.507,4.558l-71.579,0.471c0,0-10.116-4.063-4.69-11.352
		c5.044-6.772,23.353-43.797-10.419-43.886c-30.365-0.087-22.128,29.169-12.873,41.081
		C1016.651,595.063,1006.469,601.079,1006.469,601.079z"/>
	<path fill="#FFFFFF" stroke="#000000" stroke-width="3.944" stroke-miterlimit="10" d="M1343.454,603.128
		c0,0-112.233-3.444-119.285-6.655c-7.375-3.36-5.293,84.144,6.171,94.582c11.466,10.438,255.567,0,255.567,0
		s14.727-75.706,0.483-95.822l-12.548,2.174l-27.507,4.558l-71.579,0.471c0,0-10.116-4.063-4.69-11.352
		c5.044-6.772,23.353-43.797-10.419-43.886c-30.365-0.087-22.128,29.169-12.873,41.081
		C1353.636,597.111,1343.454,603.128,1343.454,603.128z"/>
	<path fill="#FFFFFF" stroke="#000000" stroke-width="3.944" stroke-miterlimit="10" d="M1347.376,1330.443
		c0,0-112.233-3.444-119.285-6.655c-7.375-3.36-5.293,84.144,6.171,94.582c11.466,10.438,255.567,0,255.567,0
		s14.727-75.706,0.483-95.822l-12.548,2.174l-27.507,4.558l-71.579,0.471c0,0-10.116-4.063-4.69-11.352
		c5.044-6.772,23.353-43.797-10.419-43.886c-30.365-0.087-22.128,29.169-12.873,41.081
		C1357.559,1324.427,1347.376,1330.443,1347.376,1330.443z"/>
	<path fill="#FFFFFF" stroke="#000000" stroke-width="3.944" stroke-miterlimit="10" d="M1007.786,1330.443
		c0,0-112.233-3.444-119.285-6.655c-7.375-3.36-5.293,84.144,6.171,94.582c11.466,10.438,255.567,0,255.567,0
		s14.727-75.706,0.483-95.822l-12.548,2.174l-27.507,4.558l-71.579,0.471c0,0-10.116-4.063-4.69-11.352
		c5.044-6.772,23.353-43.797-10.419-43.886c-30.365-0.087-22.128,29.169-12.873,41.081
		C1017.968,1324.427,1007.786,1330.443,1007.786,1330.443z"/>
	<g>
		<circle fill="#EDDAAB" stroke="#000000" stroke-width="8" stroke-miterlimit="10" cx="539.271" cy="1290.006" r="59.333"/>
		
			<path fill="#C0D23E" stroke="#000000" stroke-width="3" stroke-linecap="round" stroke-linejoin="round" stroke-miterlimit="10" d="
			M505.241,1305.158c-1.303-8.858,1.393-12.17,6.764-9.176s7.877,16.16,14.719,10.985c6.842-5.175,35.166-51.985,43.174-50.028
			c8.008,1.959,4.178,6.902,4.178,6.902s-46.234,79.873-59.373,65.066C509.891,1323.355,506.545,1314.016,505.241,1305.158z"/>
	</g>
	<g>
		<g>
			<g>
				<path fill="#FFED00" stroke="#000000" stroke-width="3" stroke-linejoin="round" stroke-miterlimit="2" d="M660.567,222.422
					h15.185c0,0-6.212-27.287,9.021-39.117C670.666,191.749,662.862,201.422,660.567,222.422z"/>
				<path fill="#FFED00" stroke="#000000" stroke-width="3" stroke-linejoin="round" stroke-miterlimit="2" d="M680.43,355.422
					h-15.149c0,0,6.191,27.273-9.035,39.111C670.345,386.09,678.149,376.422,680.43,355.422z"/>
				<path fill="#FFED00" stroke="#000000" stroke-width="3" stroke-linejoin="round" stroke-miterlimit="2" d="M736.014,277.37
					l0.201,15.163c0,0,27.168-6.564,39.229,8.507C766.792,287.066,754.439,279.435,736.014,277.37z"/>
				<path fill="#FFED00" stroke="#000000" stroke-width="3" stroke-linejoin="round" stroke-miterlimit="2" d="M605.931,299.919
					l-0.216-15.185c0,0-27.176,6.588-39.216-8.498C575.138,290.217,586.616,297.861,605.931,299.919z"/>
				<path fill="#FFED00" stroke="#000000" stroke-width="3" stroke-linejoin="round" stroke-miterlimit="2" d="M695.887,227.575
					l12.965,7.881c0,0,8.854-26.529,28.031-28.761C720.426,206.611,707.413,213.045,695.887,227.575z"/>
				<path fill="#FFED00" stroke="#000000" stroke-width="3" stroke-linejoin="round" stroke-miterlimit="2" d="M646.043,349.805
					l-12.965-7.867c0,0-8.861,26.543-28.024,28.761C621.504,370.776,634.073,365.093,646.043,349.805z"/>
				<path fill="#FFED00" stroke="#000000" stroke-width="3" stroke-linejoin="round" stroke-miterlimit="2" d="M731.827,313.769
					l-7.707,13.069c0,0,26.66,8.498,29.144,27.626C753.125,338.023,746.524,325.092,731.827,313.769z"/>
				<path fill="#FFED00" stroke="#000000" stroke-width="3" stroke-linejoin="round" stroke-miterlimit="2" d="M608.928,265.568
					l7.7-13.079c0,0-26.66-8.491-29.137-27.619C587.625,241.307,593.474,253.804,608.928,265.568z"/>
				<path fill="#FFED00" stroke="#000000" stroke-width="3" stroke-linejoin="round" stroke-miterlimit="2" d="M722.854,248.052
					l7.394,13.237c0,0,20.804-18.705,38.575-11.186C754.543,241.917,740.055,241.09,722.854,248.052z"/>
				<path fill="#FFED00" stroke="#000000" stroke-width="3" stroke-linejoin="round" stroke-miterlimit="2" d="M619.174,329.773
					l-7.387-13.244c0,0-20.783,18.711-38.562,11.192C587.492,335.908,601.214,337.167,619.174,329.773z"/>
				<path fill="#FFED00" stroke="#000000" stroke-width="3" stroke-linejoin="round" stroke-miterlimit="2" d="M711.579,340.742
					l-13.139,7.582c0,0,18.988,20.526,11.706,38.401C718.13,372.362,718.785,357.86,711.579,340.742z"/>
				<path fill="#FFED00" stroke="#000000" stroke-width="3" stroke-linejoin="round" stroke-miterlimit="2" d="M628.474,238.197
					l13.146-7.597c0,0-18.995-20.512-11.706-38.395C621.915,206.577,620.851,220.334,628.474,238.197z"/>
			</g>
			<linearGradient id="SVGID_10_" gradientUnits="userSpaceOnUse" x1="612.0562" y1="289.8223" x2="728.6714" y2="289.8223">
				<stop  offset="0" style="stop-color:#FFED00"/>
				<stop  offset="0.2675" style="stop-color:#FFED02"/>
				<stop  offset="0.4105" style="stop-color:#FFEE0A"/>
				<stop  offset="0.5241" style="stop-color:#FFEE18"/>
				<stop  offset="0.6222" style="stop-color:#FFF02B"/>
				<stop  offset="0.7104" style="stop-color:#FFF144"/>
				<stop  offset="0.7914" style="stop-color:#FFF363"/>
				<stop  offset="0.867" style="stop-color:#FFF588"/>
				<stop  offset="0.9363" style="stop-color:#FFF7B1"/>
				<stop  offset="1" style="stop-color:#FFFADE"/>
			</linearGradient>
			<path fill="url(#SVGID_10_)" stroke="#000000" stroke-width="3" stroke-linejoin="round" stroke-miterlimit="2" d="
				M670.371,231.51c-32.191,0-58.314,26.11-58.314,58.315c0,32.197,26.123,58.309,58.314,58.309
				c32.205,0,58.301-26.111,58.301-58.309C728.671,257.621,702.576,231.51,670.371,231.51z"/>
		</g>
		<path d="M669.073,334.342c-2.668-4.694,21.417,5.34,47.875-33.882C710.359,320.623,676.97,348.216,669.073,334.342z"/>
	</g>
	<g>
		<g>
			<g>
				<path fill="#FFED00" stroke="#000000" stroke-width="3" stroke-linejoin="round" stroke-miterlimit="2" d="M661.424,958.842
					h15.185c0,0-6.212-27.287,9.021-39.117C671.523,928.168,663.719,937.842,661.424,958.842z"/>
				<path fill="#FFED00" stroke="#000000" stroke-width="3" stroke-linejoin="round" stroke-miterlimit="2" d="M681.288,1091.842
					h-15.149c0,0,6.191,27.273-9.035,39.111C671.203,1122.51,679.006,1112.842,681.288,1091.842z"/>
				<path fill="#FFED00" stroke="#000000" stroke-width="3" stroke-linejoin="round" stroke-miterlimit="2" d="M736.872,1013.789
					l0.201,15.163c0,0,27.168-6.564,39.229,8.507C767.65,1023.485,755.296,1015.854,736.872,1013.789z"/>
				<path fill="#FFED00" stroke="#000000" stroke-width="3" stroke-linejoin="round" stroke-miterlimit="2" d="M606.789,1036.339
					l-0.216-15.185c0,0-27.176,6.588-39.216-8.498C575.996,1026.637,587.473,1034.28,606.789,1036.339z"/>
				<path fill="#FFED00" stroke="#000000" stroke-width="3" stroke-linejoin="round" stroke-miterlimit="2" d="M696.745,963.994
					l12.965,7.881c0,0,8.854-26.529,28.031-28.761C721.284,943.03,708.27,949.465,696.745,963.994z"/>
				<path fill="#FFED00" stroke="#000000" stroke-width="3" stroke-linejoin="round" stroke-miterlimit="2" d="M646.901,1086.225
					l-12.965-7.867c0,0-8.861,26.543-28.024,28.761C622.362,1107.195,634.93,1101.513,646.901,1086.225z"/>
				<path fill="#FFED00" stroke="#000000" stroke-width="3" stroke-linejoin="round" stroke-miterlimit="2" d="M732.684,1050.188
					l-7.707,13.069c0,0,26.66,8.498,29.144,27.626C753.982,1074.442,747.381,1061.512,732.684,1050.188z"/>
				<path fill="#FFED00" stroke="#000000" stroke-width="3" stroke-linejoin="round" stroke-miterlimit="2" d="M609.786,1001.987
					l7.7-13.079c0,0-26.66-8.491-29.137-27.619C588.482,977.727,594.332,990.224,609.786,1001.987z"/>
				<path fill="#FFED00" stroke="#000000" stroke-width="3" stroke-linejoin="round" stroke-miterlimit="2" d="M723.711,984.472
					l7.394,13.237c0,0,20.804-18.705,38.575-11.186C755.401,978.337,740.913,977.51,723.711,984.472z"/>
				<path fill="#FFED00" stroke="#000000" stroke-width="3" stroke-linejoin="round" stroke-miterlimit="2" d="M620.032,1066.192
					l-7.387-13.244c0,0-20.783,18.711-38.562,11.192C588.349,1072.327,602.072,1073.587,620.032,1066.192z"/>
				<path fill="#FFED00" stroke="#000000" stroke-width="3" stroke-linejoin="round" stroke-miterlimit="2" d="M712.436,1077.161
					l-13.139,7.582c0,0,18.988,20.526,11.706,38.401C718.988,1108.781,719.642,1094.279,712.436,1077.161z"/>
				<path fill="#FFED00" stroke="#000000" stroke-width="3" stroke-linejoin="round" stroke-miterlimit="2" d="M629.332,974.616
					l13.146-7.597c0,0-18.995-20.512-11.706-38.395C622.772,942.996,621.708,956.754,629.332,974.616z"/>
			</g>
			<linearGradient id="SVGID_12_" gradientUnits="userSpaceOnUse" x1="612.9136" y1="1026.2422" x2="729.5288" y2="1026.2422">
				<stop  offset="0" style="stop-color:#FFED00"/>
				<stop  offset="0.2675" style="stop-color:#FFED02"/>
				<stop  offset="0.4105" style="stop-color:#FFEE0A"/>
				<stop  offset="0.5241" style="stop-color:#FFEE18"/>
				<stop  offset="0.6222" style="stop-color:#FFF02B"/>
				<stop  offset="0.7104" style="stop-color:#FFF144"/>
				<stop  offset="0.7914" style="stop-color:#FFF363"/>
				<stop  offset="0.867" style="stop-color:#FFF588"/>
				<stop  offset="0.9363" style="stop-color:#FFF7B1"/>
				<stop  offset="1" style="stop-color:#FFFADE"/>
			</linearGradient>
			<path fill="url(#SVGID_12_)" stroke="#000000" stroke-width="3" stroke-linejoin="round" stroke-miterlimit="2" d="
				M671.228,967.93c-32.191,0-58.314,26.11-58.314,58.315c0,32.197,26.123,58.309,58.314,58.309
				c32.205,0,58.301-26.111,58.301-58.309C729.529,994.04,703.433,967.93,671.228,967.93z"/>
		</g>
		<path d="M669.93,1070.762c-2.668-4.694,21.417,5.34,47.875-33.882C711.216,1057.042,677.828,1084.636,669.93,1070.762z"/>
	</g>
	<g>
		<path fill-rule="evenodd" clip-rule="evenodd" fill="#FEFEFE" d="M1045.591,366.849c13.329,0,26.66,0.114,39.987-0.031
			c14.726-0.16,25.519-15.542,18.62-28.342c-3.919-7.271-6.971-14.083-7.519-22.235c-0.218-3.243-3.12-5.727-3.212-9.299
			c-0.202-7.921-3.751-14.412-9.675-19.516c-1.923-1.656-2.721-3.29-2.844-5.848c-0.828-17.153-16.52-29.604-33.427-26.487
			c-2.241,0.413-3.077-0.064-4.253-1.861c-13.076-19.975-36.657-21.01-51.78-2.286c-1.319,1.633-2.082,2.158-4.382,1.357
			c-20.567-7.162-39.589,6.72-39.194,28.592c0.049,2.73-0.89,3.58-3.137,4.605c-9.816,4.478-14.719,13.664-13.124,24.368
			c0.258,1.733-0.084,2.684-1.365,3.814c-7.303,6.448-9.222,14.441-5.883,23.474c3.111,8.417,10.684,12.965,21.003,13.017
			c12.163,0.06,24.327,0.073,36.488-0.036c2.437-0.022,3.784,0.444,4.765,3.008c3.545,9.267,10.552,13.716,20.444,13.708
			C1019.932,366.841,1032.761,366.849,1045.591,366.849z"/>
		<path fill-rule="evenodd" clip-rule="evenodd" fill="#0E0E0E" d="M1045.591,366.849c-12.83,0-25.659-0.008-38.488,0.002
			c-9.893,0.008-16.899-4.442-20.444-13.708c-0.981-2.564-2.329-3.031-4.765-3.008c-12.162,0.109-24.326,0.096-36.488,0.036
			c-10.319-0.052-17.892-4.6-21.003-13.017c-3.339-9.033-1.419-17.026,5.883-23.474c1.28-1.13,1.623-2.081,1.365-3.814
			c-1.595-10.704,3.308-19.89,13.124-24.368c2.248-1.025,3.187-1.875,3.137-4.605c-0.395-21.873,18.627-35.754,39.194-28.592
			c2.3,0.801,3.063,0.275,4.382-1.357c15.123-18.724,38.705-17.689,51.78,2.286c1.176,1.796,2.012,2.274,4.253,1.861
			c16.907-3.117,32.599,9.334,33.427,26.487c0.124,2.559,0.921,4.192,2.844,5.848c5.924,5.104,9.473,11.595,9.675,19.516
			c0.092,3.572,2.994,6.056,3.212,9.299c0.547,8.152,3.6,14.965,7.519,22.235c6.898,12.8-3.895,28.182-18.62,28.342
			C1072.25,366.963,1058.92,366.849,1045.591,366.849z M1088.786,334.98c0.118-0.304,0.185-0.643,0.361-0.908
			c8.195-12.318,3.969-24.145-10.111-28.574c-5.571-1.752-10.494,0.188-15.438,2.399c-2.078-12.839-14.811-19.763-25.897-14.303
			c-2.875,1.416-4.96,2.893-3.278,6.854c0.987,2.325,1.236,5.341,0.731,7.825c-0.636,3.129,0.537,4.833,2.515,6.873
			c4.168,4.3,6.395,9.531,5.882,15.646c-0.942,11.246-9.291,19.11-20.87,19.33c-10.737,0.204-21.482,0.044-32.294,0.044
			c1.27,7.915,9.104,12.528,15.166,12.528c26.97-0.003,53.944,0.038,80.909-0.404c11.74-0.192,19.018-13.56,13.328-23.681
			c-1.814-3.227-3.682-7.523-8.667-3.422c-0.399,0.328-1.289,0.061-1.95,0.07l-0.097-0.275L1088.786,334.98z M1024.989,319.645
			c0.443-0.629,0.795-1.169,1.187-1.679c6.049-7.882,6.365-15.63,0.923-22.795c-5.406-7.115-13.767-9.246-22.646-5.082
			c-3.548,1.665-3.401-0.654-4.144-2.495c-3.038-7.531-9.74-12.401-17.074-12.394c-7.313,0.007-14.449,4.854-16.988,12.449
			c-1.19,3.558-2.304,3.274-5.082,1.927c-6.634-3.215-13.03-2.112-18.626,2.463c-5.914,4.834-8.284,11.207-6.218,18.688
			c0.669,2.425,0.7,3.607-1.579,5.243c-6.937,4.979-9.047,11.489-6.645,18.653c2.261,6.744,8.654,11.182,16.563,11.306
			c6.488,0.101,12.979,0.021,19.468,0.021c19.302-0.001,38.604,0.045,57.906-0.026c6.871-0.025,12.25-3.037,15.404-9.203
			c2.765-5.403,2.543-10.922-0.853-16.083c-2.086-3.17-4.292-6.377-8.097-1.615C1027.805,319.878,1026.79,320.725,1024.989,319.645z
			 M1088.316,304.26c-1.508-6.699-5.052-10.88-9.461-14.537c-1.146-0.951-2.632-1.331-2.406-3.752
			c1.668-17.865-13.369-30.676-31.072-26.474c-2.72,0.646-3.664,0.158-4.866-2.251c-4.669-9.366-12.237-14.786-22.854-15.189
			c-11.212-0.426-19.563,4.61-24.934,14.332c-1.307,2.367-2.048,2.476-4.349,1.256c-15.196-8.065-32.956,0.58-36.075,17.41
			c-1.236,6.667-0.592,7.572,6.015,8.897c2.17,0.436,3.817,1.486,5.627-1.527c9.179-15.283,29.009-15.367,38.661-0.411
			c0.889,1.378,0.973,3.232,3.862,2.414c8.959-2.538,16.758,0.007,23.108,6.75c1.279,1.359,1.961,1.332,3.595,0.406
			c12.746-7.225,23.942-4.443,32.144,7.947c1.121,1.693,2.012,2.124,3.952,1.493C1075.734,298.918,1081.726,300.592,1088.316,304.26
			z"/>
		<path fill-rule="evenodd" clip-rule="evenodd" fill="#F0F0F0" d="M1024.989,319.645c1.801,1.08,2.816,0.233,3.499-0.621
			c3.804-4.762,6.011-1.555,8.097,1.615c3.396,5.161,3.617,10.68,0.853,16.083c-3.154,6.167-8.533,9.178-15.404,9.203
			c-19.302,0.071-38.604,0.025-57.906,0.026c-6.489,0-12.98,0.079-19.468-0.021c-7.908-0.124-14.302-4.562-16.563-11.306
			c-2.402-7.164-0.292-13.674,6.645-18.653c2.279-1.636,2.249-2.817,1.579-5.243c-2.066-7.481,0.304-13.854,6.218-18.688
			c5.596-4.575,11.992-5.678,18.626-2.463c2.778,1.347,3.892,1.631,5.082-1.927c2.539-7.595,9.676-12.442,16.988-12.449
			c7.333-0.007,14.036,4.863,17.074,12.394c0.743,1.84,0.596,4.16,4.144,2.495c8.879-4.164,17.24-2.034,22.646,5.082
			c5.442,7.165,5.126,14.913-0.923,22.795C1025.784,318.476,1025.432,319.016,1024.989,319.645z"/>
		<path fill-rule="evenodd" clip-rule="evenodd" fill="#F3F3F3" d="M1089.174,335.258c0.661-0.01,1.551,0.258,1.95-0.07
			c4.985-4.101,6.853,0.195,8.667,3.422c5.689,10.121-1.588,23.488-13.328,23.681c-26.965,0.442-53.939,0.401-80.909,0.404
			c-6.063,0-13.896-4.613-15.166-12.528c10.812,0,21.557,0.16,32.294-0.044c11.579-0.22,19.928-8.084,20.87-19.33
			c0.512-6.115-1.714-11.346-5.882-15.646c-1.978-2.04-3.151-3.744-2.515-6.873c0.505-2.484,0.256-5.5-0.731-7.825
			c-1.682-3.961,0.402-5.439,3.278-6.854c11.087-5.46,23.819,1.463,25.897,14.303c4.944-2.211,9.867-4.152,15.438-2.399
			c14.08,4.429,18.306,16.256,10.111,28.574c-0.177,0.266-0.244,0.604-0.361,0.908c-1.235,0.011-1.792,0.726-1.935,1.868
			c-0.698,0.227-1.559,0.295-1.408,1.374c0.017,0.121,0.195,0.299,0.315,0.313c1.094,0.131,1.116-0.75,1.33-1.446
			C1089.073,337.948,1089.1,336.576,1089.174,335.258z"/>
		<path fill-rule="evenodd" clip-rule="evenodd" fill="#E3E3E3" d="M1088.316,304.26c-6.591-3.668-12.583-5.342-19.053-3.236
			c-1.939,0.631-2.831,0.2-3.952-1.493c-8.201-12.39-19.398-15.172-32.144-7.947c-1.634,0.926-2.316,0.953-3.595-0.406
			c-6.351-6.743-14.149-9.288-23.108-6.75c-2.89,0.818-2.974-1.036-3.862-2.414c-9.652-14.956-29.482-14.872-38.661,0.411
			c-1.81,3.014-3.457,1.963-5.627,1.527c-6.607-1.325-7.251-2.23-6.015-8.897c3.12-16.83,20.879-25.475,36.075-17.41
			c2.301,1.22,3.042,1.111,4.349-1.256c5.371-9.722,13.721-14.758,24.934-14.332c10.618,0.404,18.185,5.823,22.854,15.189
			c1.202,2.41,2.146,2.897,4.866,2.251c17.703-4.203,32.74,8.608,31.072,26.474c-0.226,2.421,1.26,2.801,2.406,3.752
			C1083.264,293.38,1086.808,297.562,1088.316,304.26z"/>
		<path fill-rule="evenodd" clip-rule="evenodd" fill="#EDEDED" d="M1089.174,335.258c-0.074,1.318-0.101,2.69-2.086,1.83
			l-0.238-0.241c0.145-1.141,0.701-1.856,1.936-1.867l0.292,0.003L1089.174,335.258z"/>
		<path fill-rule="evenodd" clip-rule="evenodd" fill="#EDEDED" d="M1087.087,337.088c-0.214,0.696-0.236,1.577-1.33,1.446
			c-0.12-0.014-0.298-0.191-0.315-0.313c-0.151-1.079,0.709-1.147,1.408-1.374C1086.85,336.847,1087.087,337.088,1087.087,337.088z"
			/>
	</g>
	<g>
		<path fill-rule="evenodd" clip-rule="evenodd" fill="#FEFEFE" d="M1045.591,1102.849c13.329,0,26.66,0.114,39.987-0.031
			c14.726-0.16,25.519-15.542,18.62-28.342c-3.919-7.271-6.971-14.083-7.519-22.235c-0.218-3.243-3.12-5.727-3.212-9.299
			c-0.202-7.921-3.751-14.412-9.675-19.516c-1.923-1.656-2.721-3.29-2.844-5.849c-0.828-17.153-16.52-29.604-33.427-26.486
			c-2.241,0.413-3.077-0.064-4.253-1.861c-13.076-19.976-36.657-21.01-51.78-2.286c-1.319,1.633-2.082,2.158-4.382,1.357
			c-20.567-7.162-39.589,6.72-39.194,28.592c0.049,2.73-0.89,3.58-3.137,4.605c-9.816,4.478-14.719,13.664-13.124,24.368
			c0.258,1.732-0.084,2.683-1.365,3.813c-7.303,6.447-9.222,14.44-5.883,23.474c3.111,8.417,10.684,12.966,21.003,13.018
			c12.163,0.06,24.327,0.073,36.488-0.036c2.437-0.022,3.784,0.443,4.765,3.008c3.545,9.267,10.552,13.716,20.444,13.708
			C1019.932,1102.841,1032.761,1102.849,1045.591,1102.849z"/>
		<path fill-rule="evenodd" clip-rule="evenodd" fill="#0E0E0E" d="M1045.591,1102.849c-12.83,0-25.659-0.008-38.488,0.002
			c-9.893,0.008-16.899-4.441-20.444-13.708c-0.981-2.564-2.329-3.03-4.765-3.008c-12.162,0.109-24.326,0.096-36.488,0.036
			c-10.319-0.052-17.892-4.601-21.003-13.018c-3.339-9.033-1.419-17.026,5.883-23.474c1.28-1.131,1.623-2.081,1.365-3.813
			c-1.595-10.704,3.308-19.891,13.124-24.368c2.248-1.025,3.187-1.875,3.137-4.605c-0.395-21.872,18.627-35.754,39.194-28.592
			c2.3,0.801,3.063,0.275,4.382-1.357c15.123-18.724,38.705-17.689,51.78,2.286c1.176,1.797,2.012,2.274,4.253,1.861
			c16.907-3.117,32.599,9.333,33.427,26.486c0.124,2.559,0.921,4.192,2.844,5.849c5.924,5.104,9.473,11.595,9.675,19.516
			c0.092,3.572,2.994,6.056,3.212,9.299c0.547,8.152,3.6,14.965,7.519,22.235c6.898,12.8-3.895,28.182-18.62,28.342
			C1072.25,1102.963,1058.92,1102.849,1045.591,1102.849z M1088.786,1070.98c0.118-0.305,0.185-0.643,0.361-0.908
			c8.195-12.318,3.969-24.145-10.111-28.574c-5.571-1.753-10.494,0.188-15.438,2.399c-2.078-12.839-14.811-19.764-25.897-14.303
			c-2.875,1.416-4.96,2.893-3.278,6.854c0.987,2.325,1.236,5.341,0.731,7.825c-0.636,3.13,0.537,4.833,2.515,6.873
			c4.168,4.3,6.395,9.531,5.882,15.646c-0.942,11.246-9.291,19.11-20.87,19.33c-10.737,0.204-21.482,0.044-32.294,0.044
			c1.27,7.915,9.104,12.527,15.166,12.527c26.97-0.003,53.944,0.038,80.909-0.404c11.74-0.192,19.018-13.56,13.328-23.681
			c-1.814-3.228-3.682-7.523-8.667-3.423c-0.399,0.328-1.289,0.061-1.95,0.07l-0.097-0.275L1088.786,1070.98z M1024.989,1055.645
			c0.443-0.629,0.795-1.168,1.187-1.678c6.049-7.882,6.365-15.63,0.923-22.795c-5.406-7.116-13.767-9.246-22.646-5.082
			c-3.548,1.665-3.401-0.654-4.144-2.494c-3.038-7.531-9.74-12.401-17.074-12.395c-7.313,0.007-14.449,4.854-16.988,12.449
			c-1.19,3.558-2.304,3.273-5.082,1.927c-6.634-3.215-13.03-2.111-18.626,2.463c-5.914,4.834-8.284,11.206-6.218,18.688
			c0.669,2.425,0.7,3.606-1.579,5.242c-6.937,4.979-9.047,11.488-6.645,18.652c2.261,6.745,8.654,11.183,16.563,11.307
			c6.488,0.101,12.979,0.021,19.468,0.021c19.302-0.001,38.604,0.045,57.906-0.026c6.871-0.025,12.25-3.036,15.404-9.203
			c2.765-5.403,2.543-10.922-0.853-16.083c-2.086-3.17-4.292-6.377-8.097-1.615
			C1027.805,1055.878,1026.79,1056.725,1024.989,1055.645z M1088.316,1040.26c-1.508-6.698-5.052-10.88-9.461-14.536
			c-1.146-0.951-2.632-1.331-2.406-3.752c1.668-17.865-13.369-30.676-31.072-26.474c-2.72,0.646-3.664,0.158-4.866-2.252
			c-4.669-9.365-12.237-14.785-22.854-15.189c-11.212-0.426-19.563,4.61-24.934,14.332c-1.307,2.367-2.048,2.477-4.349,1.256
			c-15.196-8.065-32.956,0.58-36.075,17.41c-1.236,6.667-0.592,7.572,6.015,8.897c2.17,0.436,3.817,1.486,5.627-1.527
			c9.179-15.283,29.009-15.367,38.661-0.411c0.889,1.378,0.973,3.232,3.862,2.414c8.959-2.538,16.758,0.007,23.108,6.75
			c1.279,1.359,1.961,1.332,3.595,0.406c12.746-7.225,23.942-4.442,32.144,7.947c1.121,1.693,2.012,2.124,3.952,1.493
			C1075.734,1034.918,1081.726,1036.592,1088.316,1040.26z"/>
		<path fill-rule="evenodd" clip-rule="evenodd" fill="#F0F0F0" d="M1024.989,1055.645c1.801,1.08,2.816,0.233,3.499-0.621
			c3.804-4.762,6.011-1.555,8.097,1.615c3.396,5.161,3.617,10.68,0.853,16.083c-3.154,6.167-8.533,9.178-15.404,9.203
			c-19.302,0.071-38.604,0.025-57.906,0.026c-6.489,0-12.98,0.079-19.468-0.021c-7.908-0.124-14.302-4.562-16.563-11.307
			c-2.402-7.164-0.292-13.674,6.645-18.652c2.279-1.636,2.249-2.817,1.579-5.242c-2.066-7.482,0.304-13.854,6.218-18.688
			c5.596-4.574,11.992-5.678,18.626-2.463c2.778,1.347,3.892,1.631,5.082-1.927c2.539-7.596,9.676-12.442,16.988-12.449
			c7.333-0.007,14.036,4.863,17.074,12.395c0.743,1.84,0.596,4.159,4.144,2.494c8.879-4.164,17.24-2.034,22.646,5.082
			c5.442,7.165,5.126,14.913-0.923,22.795C1025.784,1054.477,1025.432,1055.016,1024.989,1055.645z"/>
		<path fill-rule="evenodd" clip-rule="evenodd" fill="#F3F3F3" d="M1089.174,1071.258c0.661-0.01,1.551,0.258,1.95-0.07
			c4.985-4.101,6.853,0.195,8.667,3.423c5.689,10.121-1.588,23.488-13.328,23.681c-26.965,0.442-53.939,0.401-80.909,0.404
			c-6.063,0-13.896-4.612-15.166-12.527c10.812,0,21.557,0.16,32.294-0.044c11.579-0.22,19.928-8.084,20.87-19.33
			c0.512-6.115-1.714-11.347-5.882-15.646c-1.978-2.04-3.151-3.743-2.515-6.873c0.505-2.484,0.256-5.5-0.731-7.825
			c-1.682-3.962,0.402-5.438,3.278-6.854c11.087-5.461,23.819,1.464,25.897,14.303c4.944-2.211,9.867-4.152,15.438-2.399
			c14.08,4.43,18.306,16.256,10.111,28.574c-0.177,0.266-0.244,0.604-0.361,0.908c-1.235,0.01-1.792,0.725-1.935,1.867
			c-0.698,0.227-1.559,0.295-1.408,1.374c0.017,0.121,0.195,0.299,0.315,0.313c1.094,0.131,1.116-0.75,1.33-1.446
			C1089.073,1073.948,1089.1,1072.576,1089.174,1071.258z"/>
		<path fill-rule="evenodd" clip-rule="evenodd" fill="#E3E3E3" d="M1088.316,1040.26c-6.591-3.668-12.583-5.342-19.053-3.235
			c-1.939,0.631-2.831,0.2-3.952-1.493c-8.201-12.39-19.398-15.172-32.144-7.947c-1.634,0.926-2.316,0.953-3.595-0.406
			c-6.351-6.743-14.149-9.288-23.108-6.75c-2.89,0.818-2.974-1.036-3.862-2.414c-9.652-14.956-29.482-14.872-38.661,0.411
			c-1.81,3.014-3.457,1.963-5.627,1.527c-6.607-1.325-7.251-2.23-6.015-8.897c3.12-16.83,20.879-25.476,36.075-17.41
			c2.301,1.221,3.042,1.111,4.349-1.256c5.371-9.722,13.721-14.758,24.934-14.332c10.618,0.404,18.185,5.824,22.854,15.189
			c1.202,2.41,2.146,2.897,4.866,2.252c17.703-4.202,32.74,8.608,31.072,26.474c-0.226,2.421,1.26,2.801,2.406,3.752
			C1083.264,1029.38,1086.808,1033.562,1088.316,1040.26z"/>
		<path fill-rule="evenodd" clip-rule="evenodd" fill="#EDEDED" d="M1089.174,1071.258c-0.074,1.318-0.101,2.69-2.086,1.83
			l-0.238-0.241c0.145-1.142,0.701-1.856,1.936-1.866l0.292,0.002L1089.174,1071.258z"/>
		<path fill-rule="evenodd" clip-rule="evenodd" fill="#EDEDED" d="M1087.087,1073.088c-0.214,0.696-0.236,1.577-1.33,1.446
			c-0.12-0.014-0.298-0.191-0.315-0.313c-0.151-1.079,0.709-1.147,1.408-1.374
			C1086.85,1072.847,1087.087,1073.088,1087.087,1073.088z"/>
	</g>
	<g>
		<path fill-rule="evenodd" clip-rule="evenodd" fill="#FDFDFD" d="M1385.139,345.004c12.399,0,24.228,0.01,36.057-0.004
			c9.669-0.011,17.209-4.839,20.488-13.083c3.245-8.16,1.184-16.545-5.707-23.18c-0.905-0.871-1.981-1.323-1.75-3.156
			c0.78-6.197-4.467-28.065-7.695-33.256c-1.501-2.415-3.087-4.864-5.42-6.47c-2.475-1.704-3.031-3.798-3.186-6.654
			c-0.909-16.672-17.244-29.422-33.4-25.909c-2.827,0.615-3.381-0.621-4.486-2.312c-12.624-19.318-36.957-20.425-51.208-2.259
			c-1.591,2.028-2.634,2.47-5.243,1.559c-19.846-6.927-39.178,7.27-38.69,28.402c0.065,2.833-0.653,3.952-3.179,5.079
			c-9.596,4.285-14.916,13.905-13.092,23.881c0.469,2.569-0.722,3.574-2.115,4.951c-6.613,6.542-8.39,14.592-5.08,22.816
			c3.208,7.972,10.466,12.738,19.601,12.764c12.332,0.035,24.665,0.097,36.995-0.055c2.978-0.037,4.629,0.481,5.858,3.649
			c3.425,8.827,10.279,13.142,19.739,13.226c5.827,0.051,11.654,0.01,17.51,0.01c-1.598,10.373-0.271,14.857,5.31,18.251
			c4.627,2.814,10.833,2.622,14.983-0.742C1387.099,357.915,1387.879,352.026,1385.139,345.004z M1382.958,384.174
			c-0.239,7.249,5.572,13.142,13.146,13.331c7.236,0.18,13.479-5.39,13.74-12.257c0.272-7.181-5.637-13.144-13.172-13.292
			C1389.296,371.81,1383.187,377.253,1382.958,384.174z M1336.536,363.334c-0.003-6.381-5.089-11.445-11.422-11.375
			c-6.21,0.068-11.046,4.873-11.148,11.075c-0.106,6.452,4.762,11.565,11.119,11.679
			C1331.364,374.825,1336.54,369.682,1336.536,363.334z M1359.183,388.663c0.067-5.128-3.514-8.957-8.531-9.123
			c-5.152-0.17-9.266,3.87-9.215,9.048c0.049,4.984,3.936,8.876,8.881,8.892C1355.34,397.494,1359.116,393.738,1359.183,388.663z
			 M1281.793,347.263c0.054,5.115,3.665,8.708,8.782,8.739c5.227,0.032,9.273-3.966,9.139-9.031c-0.13-4.9-4.067-8.8-8.939-8.855
			C1285.602,338.057,1281.737,341.993,1281.793,347.263z M1428.735,361.116c-4.874-0.14-8.857,3.731-8.96,8.705
			c-0.107,5.21,3.353,8.992,8.399,9.176c5.245,0.192,9.342-3.682,9.348-8.839C1437.526,365.255,1433.641,361.255,1428.735,361.116z
			 M1304.011,383.974c-0.032-4.918-3.957-8.929-8.781-8.975c-4.93-0.047-9.271,4.417-9.076,9.332
			c0.192,4.838,4.355,8.769,9.18,8.664C1300.245,392.889,1304.044,388.94,1304.011,383.974z"/>
		<path fill-rule="evenodd" clip-rule="evenodd" fill="#0D0D0D" d="M1385.139,345.004c2.74,7.021,1.96,12.911-3.713,17.509
			c-4.15,3.364-10.355,3.557-14.983,0.742c-5.581-3.394-6.908-7.879-5.31-18.251c-5.856,0-11.684,0.041-17.51-0.01
			c-9.46-0.084-16.314-4.399-19.739-13.226c-1.229-3.167-2.88-3.686-5.858-3.649c-12.33,0.151-24.663,0.09-36.995,0.055
			c-9.134-0.026-16.393-4.792-19.601-12.764c-3.31-8.225-1.533-16.274,5.08-22.816c1.393-1.377,2.584-2.382,2.115-4.951
			c-1.823-9.976,3.497-19.596,13.092-23.881c2.526-1.127,3.245-2.245,3.179-5.079c-0.487-21.132,18.845-35.329,38.69-28.402
			c2.609,0.911,3.652,0.47,5.243-1.559c14.251-18.167,38.584-17.059,51.208,2.259c1.105,1.69,1.659,2.926,4.486,2.312
			c16.156-3.514,32.491,9.237,33.4,25.909c0.155,2.856,0.711,4.951,3.186,6.654c2.333,1.606,3.919,4.055,5.42,6.47
			c3.229,5.191,8.475,27.06,7.695,33.256c-0.231,1.833,0.845,2.285,1.75,3.156c6.891,6.635,8.952,15.02,5.707,23.18
			c-3.278,8.243-10.818,13.072-20.488,13.083C1409.367,345.014,1397.538,345.004,1385.139,345.004z M1328.026,328.359
			c-1.693,0.486-0.78,1.185-0.151,1.86c2.426,6.964,7.781,10.167,14.705,10.576c6.109,0.359,12.263-0.052,18.397-0.122
			c2.353,0.449,4.575,0.187,6.763-0.893c3.636-1.792,7.351-1.713,11.067-0.145c1.521,0.642,3.02,1.208,4.767,1.198
			c12.977-0.072,25.957,0.105,38.93-0.133c6.439-0.118,11.419-3.307,14.418-9.116c2.827-5.474,2.461-10.905-0.878-16.063
			c-2.078-3.209-4.258-6.234-8.072-1.624c-0.838,1.013-2.135,1.915-3.767,1.827c-0.323-2.088,1.403-2.693,2.235-3.781
			c5.377-7.029,5.223-16.237-0.688-22.844c-5.598-6.256-13.437-8.616-22.264-4.009c-3.049,1.592-2.89,0.393-3.481-1.968
			c-2.784-11.128-16.569-16.656-26.439-10.82c-2.268,1.341-3.477,2.846-2.338,5.631c1.287,3.146,1.166,6.496,0.787,9.808
			c-0.197,1.722-0.142,3.129,1.457,4.354c10.929,8.382,10.241,29.096-7.623,35.493c-2.145,0.199-4.287,0.547-6.434,0.571
			C1348.954,328.274,1338.49,328.301,1328.026,328.359z M1361.437,299.465c-0.172-0.193-0.351-0.379-0.538-0.558
			c0.363-0.535,0.666-1.126,1.099-1.596c6.97-7.544,7.878-15.915,2.521-23.443c-5.284-7.427-14.023-9.892-22.928-5.718
			c-3.886,1.822-3.612-0.883-4.42-2.753c-3.203-7.421-8.709-11.621-16.881-11.819c-7.401-0.179-14.401,4.395-16.837,11.75
			c-1.323,3.995-2.561,3.702-5.788,2.191c-6.673-3.122-13.059-1.672-18.543,3.009c-5.502,4.696-7.887,10.861-5.852,17.883
			c0.952,3.284,0.089,4.549-2.404,6.311c-5.72,4.042-7.821,10.664-5.98,17.147c1.881,6.627,7.703,11.958,14.312,12.001
			c27.296,0.177,54.596,0.204,81.892-0.017c6.29-0.051,10.986-3.748,13.603-9.464c2.518-5.499,2.124-10.951-1.385-16.07
			c-2.126-3.102-4.182-5.185-7.61-1.319C1364.666,298.164,1362.879,298.662,1361.437,299.465z M1425.644,282.64
			c-2.12-6.944-5.3-11.396-9.994-14.838c-1.28-0.938-2.39-1.571-2.136-3.881c1.893-17.262-13.76-30.607-30.865-26.325
			c-2.863,0.718-3.912,0.259-5.237-2.393c-4.784-9.583-12.769-14.94-23.484-15.076c-10.639-0.135-18.903,4.711-24.054,14.173
			c-1.329,2.441-2.225,2.703-4.757,1.38c-14.723-7.692-31.474,0.147-35.485,16.342c-0.736,2.974-1.391,6.211-0.185,8.811
			c1.013,2.185,4.326,0.479,6.468,1.343c1.91,0.77,3.231,1.165,4.8-1.309c10.034-15.809,28.895-15.791,39.162-0.118
			c0.838,1.278,1.179,2.555,3.292,1.973c9.176-2.525,17.088-0.258,23.504,6.807c1.101,1.212,1.802,1.448,3.224,0.408
			c11.005-8.049,27.021-3.546,32.586,7.827c0.548,1.121,0.974,2.312,2.937,1.682C1412.128,277.289,1418.523,278.508,1425.644,282.64
			z M1373.195,342.567c-4.939,0.133-9.077,4.429-9.024,9.368c0.056,5.172,4.538,9.4,9.692,9.143c4.943-0.247,9.128-4.75,8.884-9.559
			C1382.497,346.595,1378.06,342.437,1373.195,342.567z"/>
		<path fill-rule="evenodd" clip-rule="evenodd" fill="#0D0D0D" d="M1382.958,384.174c0.229-6.921,6.338-12.365,13.714-12.219
			c7.535,0.148,13.444,6.111,13.172,13.292c-0.261,6.867-6.504,12.437-13.74,12.257
			C1388.53,397.316,1382.719,391.423,1382.958,384.174z M1405.786,385.012c0.177-4.504-3.917-8.66-8.852-8.984
			c-5.014-0.329-9.752,3.666-9.934,8.374c-0.179,4.625,3.798,8.633,8.829,8.898C1400.999,393.573,1405.599,389.744,1405.786,385.012
			z"/>
		<path fill-rule="evenodd" clip-rule="evenodd" fill="#0D0D0D" d="M1336.536,363.334c0.003,6.348-5.172,11.491-11.452,11.378
			c-6.356-0.113-11.225-5.227-11.119-11.679c0.102-6.202,4.938-11.006,11.148-11.075
			C1331.447,351.889,1336.533,356.953,1336.536,363.334z M1332.43,363.225c-0.055-3.928-3.542-7.315-7.419-7.209
			c-3.871,0.107-7.183,3.7-7.001,7.591c0.18,3.83,3.295,6.833,7.148,6.893C1329.127,370.56,1332.486,367.2,1332.43,363.225z"/>
		<path fill-rule="evenodd" clip-rule="evenodd" fill="#0D0D0D" d="M1359.183,388.663c-0.066,5.075-3.843,8.831-8.865,8.816
			c-4.945-0.016-8.833-3.907-8.881-8.892c-0.051-5.178,4.063-9.218,9.215-9.048C1355.669,379.706,1359.25,383.535,1359.183,388.663z
			 M1355.098,387.582c-0.351-2.165-1.925-3.838-4.835-3.777c-2.926,0.062-4.652,1.805-4.638,4.688
			c0.016,3.16,1.987,4.934,5.081,4.719C1353.495,393.018,1355.158,391.278,1355.098,387.582z"/>
		<path fill-rule="evenodd" clip-rule="evenodd" fill="#0D0D0D" d="M1281.793,347.263c-0.056-5.27,3.809-9.206,8.981-9.147
			c4.873,0.055,8.809,3.955,8.939,8.855c0.134,5.065-3.912,9.063-9.139,9.031C1285.458,355.971,1281.847,352.377,1281.793,347.263z
			 M1290.625,342.085c-2.455,0.543-4.631,1.599-4.756,4.641c-0.128,3.138,1.514,5.045,4.655,5.208
			c2.958,0.153,4.711-1.673,4.938-4.446C1295.717,344.367,1293.75,342.716,1290.625,342.085z"/>
		<path fill-rule="evenodd" clip-rule="evenodd" fill="#0D0D0D" d="M1428.735,361.116c4.906,0.14,8.792,4.139,8.787,9.042
			c-0.006,5.157-4.104,9.031-9.348,8.839c-5.046-0.185-8.506-3.966-8.399-9.176C1419.877,364.847,1423.861,360.976,1428.735,361.116
			z M1433.466,370.113c-0.334-2.95-1.984-4.972-5.031-4.854c-2.675,0.103-4.619,1.745-4.595,4.755
			c0.025,3.176,1.828,4.917,4.914,4.893C1431.662,374.884,1433.087,372.968,1433.466,370.113z"/>
		<path fill-rule="evenodd" clip-rule="evenodd" fill="#0D0D0D" d="M1304.011,383.974c0.033,4.966-3.766,8.915-8.677,9.021
			c-4.825,0.104-8.988-3.826-9.18-8.664c-0.194-4.916,4.146-9.379,9.076-9.332C1300.054,375.045,1303.979,379.056,1304.011,383.974z
			 M1295.075,379.035c-2.949,0.524-4.768,2.277-4.652,5.059c0.124,2.975,2.029,5.058,5.203,4.77c2.831-0.258,4.509-2.294,4.282-5.14
			C1299.685,380.935,1297.817,379.352,1295.075,379.035z"/>
		<path fill-rule="evenodd" clip-rule="evenodd" fill="#F0F0F0" d="M1361.437,299.465c1.442-0.803,3.229-1.301,4.262-2.466
			c3.428-3.866,5.484-1.783,7.61,1.319c3.508,5.12,3.902,10.572,1.385,16.07c-2.617,5.717-7.313,9.414-13.603,9.464
			c-27.296,0.221-54.595,0.193-81.892,0.017c-6.609-0.043-12.431-5.374-14.312-12.001c-1.841-6.484,0.26-13.105,5.98-17.147
			c2.493-1.762,3.355-3.026,2.404-6.311c-2.035-7.022,0.349-13.187,5.852-17.883c5.484-4.681,11.87-6.131,18.543-3.009
			c3.228,1.51,4.465,1.803,5.788-2.191c2.436-7.354,9.436-11.928,16.837-11.75c8.172,0.198,13.678,4.398,16.881,11.819
			c0.808,1.87,0.534,4.576,4.42,2.753c8.904-4.174,17.644-1.708,22.928,5.718c5.357,7.528,4.449,15.899-2.521,23.443
			c-0.434,0.47-0.736,1.061-1.099,1.596c-0.298,0.226-0.597,0.451-0.895,0.676C1360.537,300.21,1360.988,299.846,1361.437,299.465z"
			/>
		<path fill-rule="evenodd" clip-rule="evenodd" fill="#E3E3E3" d="M1425.644,282.64c-7.12-4.132-13.515-5.351-20.223-3.196
			c-1.963,0.63-2.389-0.561-2.937-1.682c-5.566-11.374-21.581-15.876-32.586-7.827c-1.422,1.04-2.123,0.804-3.224-0.408
			c-6.417-7.064-14.328-9.332-23.504-6.807c-2.113,0.582-2.454-0.694-3.292-1.973c-10.267-15.673-29.128-15.69-39.162,0.118
			c-1.569,2.474-2.89,2.078-4.8,1.309c-2.142-0.863-5.455,0.842-6.468-1.343c-1.206-2.6-0.551-5.837,0.185-8.811
			c4.011-16.194,20.762-24.034,35.485-16.342c2.532,1.323,3.428,1.061,4.757-1.38c5.151-9.461,13.415-14.308,24.054-14.173
			c10.715,0.136,18.7,5.494,23.484,15.076c1.325,2.652,2.374,3.111,5.237,2.393c17.104-4.282,32.757,9.063,30.865,26.325
			c-0.253,2.31,0.856,2.943,2.136,3.881C1420.344,271.244,1423.523,275.696,1425.644,282.64z"/>
		<path fill-rule="evenodd" clip-rule="evenodd" fill="#F2F2F2" d="M1365.85,327.589c17.864-6.397,18.552-27.111,7.623-35.493
			c-1.598-1.225-1.654-2.632-1.457-4.354c0.379-3.312,0.5-6.662-0.787-9.808c-1.139-2.785,0.07-4.29,2.338-5.631
			c9.87-5.836,23.656-0.309,26.439,10.82c0.591,2.361,0.432,3.56,3.481,1.968c8.827-4.606,16.666-2.247,22.264,4.009
			c5.912,6.607,6.066,15.815,0.688,22.844c-0.832,1.088-2.558,1.693-2.235,3.781c1.631,0.088,2.928-0.814,3.767-1.827
			c3.814-4.611,5.995-1.586,8.072,1.624c3.339,5.158,3.705,10.589,0.878,16.063c-3,5.809-7.979,8.998-14.418,9.116
			c-12.973,0.238-25.953,0.061-38.93,0.133c-1.747,0.01-3.246-0.557-4.767-1.198c-3.717-1.569-7.432-1.648-11.067,0.145
			c-2.188,1.079-4.41,1.342-6.763,0.893c-0.166-2.119,1.034-3.772,1.95-5.494C1364.213,332.761,1366.481,330.74,1365.85,327.589z
			 M1421.348,317.258c0.28,0.121,0.622,0.399,0.821,0.32c0.202-0.08,0.263-0.515,0.386-0.795c-0.279-0.121-0.621-0.401-0.819-0.321
			C1421.533,316.543,1421.471,316.976,1421.348,317.258z"/>
		<path fill-rule="evenodd" clip-rule="evenodd" fill="#F8F8F8" d="M1365.85,327.589c0.631,3.151-1.636,5.172-2.922,7.59
			c-0.917,1.722-2.116,3.375-1.95,5.494c-6.134,0.07-12.289,0.481-18.397,0.122c-6.924-0.408-12.279-3.612-14.705-10.576
			c0.051-0.62,0.101-1.24,0.151-1.86c10.463-0.058,20.927-0.085,31.39-0.199C1361.563,328.136,1363.705,327.788,1365.85,327.589z"/>
		<path fill-rule="evenodd" clip-rule="evenodd" fill="#F8F8F8" d="M1373.195,342.567c4.865-0.131,9.302,4.027,9.552,8.952
			c0.244,4.808-3.94,9.312-8.884,9.559c-5.154,0.258-9.636-3.97-9.692-9.143C1364.118,346.996,1368.256,342.7,1373.195,342.567z"/>
		<path fill-rule="evenodd" clip-rule="evenodd" fill="#E3E3E3" d="M1328.026,328.359c-0.051,0.62-0.101,1.24-0.151,1.86
			C1327.247,329.543,1326.333,328.845,1328.026,328.359z"/>
		<path fill-rule="evenodd" clip-rule="evenodd" fill="#F8F8F8" d="M1405.786,385.012c-0.187,4.732-4.787,8.561-9.957,8.288
			c-5.031-0.266-9.007-4.274-8.829-8.898c0.182-4.708,4.92-8.703,9.934-8.374C1401.869,376.352,1405.963,380.508,1405.786,385.012z"
			/>
		<path fill-rule="evenodd" clip-rule="evenodd" fill="#F8F8F8" d="M1332.43,363.225c0.056,3.975-3.303,7.335-7.272,7.274
			c-3.853-0.06-6.968-3.063-7.148-6.893c-0.182-3.891,3.13-7.483,7.001-7.591C1328.889,355.909,1332.375,359.296,1332.43,363.225z"
			/>
		<path fill-rule="evenodd" clip-rule="evenodd" fill="#FDFDFD" d="M1355.098,387.582c0.061,3.696-1.603,5.436-4.393,5.63
			c-3.094,0.214-5.065-1.56-5.081-4.719c-0.014-2.883,1.711-4.626,4.638-4.688C1353.173,383.744,1354.747,385.417,1355.098,387.582z
			"/>
		<path fill-rule="evenodd" clip-rule="evenodd" fill="#F0F0F0" d="M1290.625,342.085c3.126,0.631,5.093,2.282,4.837,5.403
			c-0.228,2.772-1.98,4.599-4.938,4.446c-3.141-0.163-4.783-2.071-4.655-5.208C1285.993,343.684,1288.17,342.628,1290.625,342.085z"
			/>
		<path fill-rule="evenodd" clip-rule="evenodd" fill="#F0F0F0" d="M1433.466,370.113c-0.379,2.854-1.804,4.771-4.712,4.793
			c-3.085,0.023-4.888-1.717-4.914-4.893c-0.024-3.01,1.92-4.652,4.595-4.755C1431.481,365.142,1433.131,367.164,1433.466,370.113z"
			/>
		<path fill-rule="evenodd" clip-rule="evenodd" fill="#F2F2F2" d="M1295.075,379.035c2.743,0.316,4.61,1.899,4.833,4.689
			c0.227,2.846-1.451,4.882-4.282,5.14c-3.174,0.288-5.079-1.795-5.203-4.77C1290.307,381.313,1292.125,379.56,1295.075,379.035z"/>
		<path fill-rule="evenodd" clip-rule="evenodd" fill="#0D0D0D" d="M1361.437,299.465c-0.449,0.381-0.9,0.745-1.433,0.118
			c0.298-0.226,0.597-0.451,0.895-0.676C1361.086,299.085,1361.265,299.271,1361.437,299.465z"/>
		<path fill-rule="evenodd" clip-rule="evenodd" fill="#F0F0F0" d="M1421.348,317.257c0.123-0.281,0.185-0.714,0.388-0.795
			c0.198-0.08,0.54,0.2,0.819,0.321c-0.123,0.28-0.184,0.715-0.386,0.795C1421.97,317.657,1421.628,317.379,1421.348,317.257z"/>
	</g>
	<g>
		<path fill-rule="evenodd" clip-rule="evenodd" fill="#FDFDFD" d="M1385.139,1072.004c12.399,0,24.228,0.01,36.057-0.004
			c9.669-0.01,17.209-4.839,20.488-13.082c3.245-8.16,1.184-16.545-5.707-23.18c-0.905-0.871-1.981-1.323-1.75-3.156
			c0.78-6.196-4.467-28.064-7.695-33.256c-1.501-2.415-3.087-4.864-5.42-6.47c-2.475-1.704-3.031-3.799-3.186-6.655
			c-0.909-16.671-17.244-29.422-33.4-25.908c-2.827,0.615-3.381-0.621-4.486-2.312c-12.624-19.317-36.957-20.425-51.208-2.259
			c-1.591,2.028-2.634,2.47-5.243,1.559c-19.846-6.927-39.178,7.27-38.69,28.402c0.065,2.833-0.653,3.951-3.179,5.078
			c-9.596,4.285-14.916,13.905-13.092,23.881c0.469,2.568-0.722,3.573-2.115,4.951c-6.613,6.542-8.39,14.592-5.08,22.816
			c3.208,7.972,10.466,12.738,19.601,12.765c12.332,0.035,24.665,0.097,36.995-0.055c2.978-0.037,4.629,0.481,5.858,3.648
			c3.425,8.827,10.279,13.142,19.739,13.226c5.827,0.051,11.654,0.01,17.51,0.01c-1.598,10.373-0.271,14.858,5.31,18.252
			c4.627,2.814,10.833,2.622,14.983-0.742C1387.099,1084.915,1387.879,1079.026,1385.139,1072.004z M1382.958,1111.174
			c-0.239,7.25,5.572,13.143,13.146,13.331c7.236,0.18,13.479-5.391,13.74-12.258c0.272-7.181-5.637-13.144-13.172-13.292
			C1389.296,1098.81,1383.187,1104.253,1382.958,1111.174z M1336.536,1090.334c-0.003-6.381-5.089-11.444-11.422-11.375
			c-6.21,0.068-11.046,4.872-11.148,11.074c-0.106,6.451,4.762,11.565,11.119,11.679
			C1331.364,1101.825,1336.54,1096.682,1336.536,1090.334z M1359.183,1115.663c0.067-5.128-3.514-8.957-8.531-9.123
			c-5.152-0.17-9.266,3.87-9.215,9.048c0.049,4.984,3.936,8.876,8.881,8.892C1355.34,1124.494,1359.116,1120.738,1359.183,1115.663z
			 M1281.793,1074.263c0.054,5.115,3.665,8.708,8.782,8.739c5.227,0.032,9.273-3.966,9.139-9.031c-0.13-4.9-4.067-8.801-8.939-8.855
			C1285.602,1065.057,1281.737,1068.993,1281.793,1074.263z M1428.735,1088.115c-4.874-0.14-8.857,3.731-8.96,8.705
			c-0.107,5.211,3.353,8.992,8.399,9.177c5.245,0.192,9.342-3.682,9.348-8.839
			C1437.526,1092.255,1433.641,1088.255,1428.735,1088.115z M1304.011,1110.975c-0.032-4.919-3.957-8.929-8.781-8.975
			c-4.93-0.047-9.271,4.416-9.076,9.331c0.192,4.839,4.355,8.769,9.18,8.664C1300.245,1119.889,1304.044,1115.94,1304.011,1110.975z
			"/>
		<path fill-rule="evenodd" clip-rule="evenodd" fill="#0D0D0D" d="M1385.139,1072.004c2.74,7.022,1.96,12.911-3.713,17.51
			c-4.15,3.364-10.355,3.557-14.983,0.742c-5.581-3.394-6.908-7.879-5.31-18.252c-5.856,0-11.684,0.041-17.51-0.01
			c-9.46-0.084-16.314-4.398-19.739-13.226c-1.229-3.167-2.88-3.686-5.858-3.648c-12.33,0.151-24.663,0.09-36.995,0.055
			c-9.134-0.026-16.393-4.793-19.601-12.765c-3.31-8.225-1.533-16.274,5.08-22.816c1.393-1.378,2.584-2.383,2.115-4.951
			c-1.823-9.976,3.497-19.596,13.092-23.881c2.526-1.127,3.245-2.245,3.179-5.078c-0.487-21.133,18.845-35.329,38.69-28.402
			c2.609,0.911,3.652,0.47,5.243-1.559c14.251-18.166,38.584-17.059,51.208,2.259c1.105,1.69,1.659,2.927,4.486,2.312
			c16.156-3.514,32.491,9.237,33.4,25.908c0.155,2.856,0.711,4.951,3.186,6.655c2.333,1.605,3.919,4.055,5.42,6.47
			c3.229,5.191,8.475,27.06,7.695,33.256c-0.231,1.833,0.845,2.285,1.75,3.156c6.891,6.635,8.952,15.02,5.707,23.18
			c-3.278,8.243-10.818,13.072-20.488,13.082C1409.367,1072.014,1397.538,1072.004,1385.139,1072.004z M1328.026,1055.359
			c-1.693,0.486-0.78,1.184-0.151,1.859c2.426,6.965,7.781,10.168,14.705,10.576c6.109,0.359,12.263-0.052,18.397-0.122
			c2.353,0.449,4.575,0.187,6.763-0.893c3.636-1.793,7.351-1.714,11.067-0.145c1.521,0.642,3.02,1.208,4.767,1.198
			c12.977-0.072,25.957,0.105,38.93-0.133c6.439-0.118,11.419-3.308,14.418-9.116c2.827-5.474,2.461-10.904-0.878-16.063
			c-2.078-3.209-4.258-6.234-8.072-1.624c-0.838,1.013-2.135,1.915-3.767,1.827c-0.323-2.089,1.403-2.692,2.235-3.781
			c5.377-7.028,5.223-16.237-0.688-22.844c-5.598-6.257-13.437-8.616-22.264-4.01c-3.049,1.592-2.89,0.393-3.481-1.969
			c-2.784-11.128-16.569-16.655-26.439-10.819c-2.268,1.342-3.477,2.846-2.338,5.631c1.287,3.146,1.166,6.496,0.787,9.808
			c-0.197,1.723-0.142,3.129,1.457,4.354c10.929,8.382,10.241,29.096-7.623,35.493c-2.145,0.199-4.287,0.548-6.434,0.571
			C1348.954,1055.274,1338.49,1055.302,1328.026,1055.359z M1361.437,1026.465c-0.172-0.193-0.351-0.38-0.538-0.559
			c0.363-0.535,0.666-1.125,1.099-1.595c6.97-7.544,7.878-15.915,2.521-23.443c-5.284-7.427-14.023-9.893-22.928-5.719
			c-3.886,1.822-3.612-0.884-4.42-2.753c-3.203-7.421-8.709-11.621-16.881-11.819c-7.401-0.179-14.401,4.396-16.837,11.75
			c-1.323,3.994-2.561,3.701-5.788,2.19c-6.673-3.121-13.059-1.671-18.543,3.01c-5.502,4.695-7.887,10.861-5.852,17.883
			c0.952,3.284,0.089,4.549-2.404,6.311c-5.72,4.042-7.821,10.664-5.98,17.147c1.881,6.627,7.703,11.958,14.312,12.001
			c27.296,0.177,54.596,0.204,81.892-0.017c6.29-0.051,10.986-3.747,13.603-9.465c2.518-5.498,2.124-10.95-1.385-16.07
			c-2.126-3.102-4.182-5.185-7.61-1.318C1364.666,1025.163,1362.879,1025.661,1361.437,1026.465z M1425.644,1009.64
			c-2.12-6.944-5.3-11.396-9.994-14.838c-1.28-0.938-2.39-1.571-2.136-3.881c1.893-17.262-13.76-30.607-30.865-26.325
			c-2.863,0.718-3.912,0.259-5.237-2.393c-4.784-9.583-12.769-14.941-23.484-15.077c-10.639-0.135-18.903,4.712-24.054,14.174
			c-1.329,2.44-2.225,2.702-4.757,1.379c-14.723-7.692-31.474,0.147-35.485,16.342c-0.736,2.975-1.391,6.212-0.185,8.812
			c1.013,2.185,4.326,0.479,6.468,1.343c1.91,0.77,3.231,1.165,4.8-1.309c10.034-15.809,28.895-15.791,39.162-0.118
			c0.838,1.278,1.179,2.555,3.292,1.973c9.176-2.525,17.088-0.258,23.504,6.807c1.101,1.212,1.802,1.448,3.224,0.408
			c11.005-8.049,27.021-3.547,32.586,7.827c0.548,1.121,0.974,2.312,2.937,1.682
			C1412.128,1004.289,1418.523,1005.508,1425.644,1009.64z M1373.195,1069.567c-4.939,0.133-9.077,4.429-9.024,9.368
			c0.056,5.172,4.538,9.399,9.692,9.142c4.943-0.247,9.128-4.75,8.884-9.558C1382.497,1073.595,1378.06,1069.437,1373.195,1069.567z
			"/>
		<path fill-rule="evenodd" clip-rule="evenodd" fill="#0D0D0D" d="M1382.958,1111.174c0.229-6.921,6.338-12.364,13.714-12.219
			c7.535,0.148,13.444,6.111,13.172,13.292c-0.261,6.867-6.504,12.438-13.74,12.258
			C1388.53,1124.316,1382.719,1118.424,1382.958,1111.174z M1405.786,1112.012c0.177-4.504-3.917-8.66-8.852-8.983
			c-5.014-0.329-9.752,3.665-9.934,8.373c-0.179,4.625,3.798,8.633,8.829,8.898
			C1400.999,1120.573,1405.599,1116.744,1405.786,1112.012z"/>
		<path fill-rule="evenodd" clip-rule="evenodd" fill="#0D0D0D" d="M1336.536,1090.334c0.003,6.348-5.172,11.491-11.452,11.378
			c-6.356-0.113-11.225-5.228-11.119-11.679c0.102-6.202,4.938-11.006,11.148-11.074
			C1331.447,1078.89,1336.533,1083.953,1336.536,1090.334z M1332.43,1090.225c-0.055-3.928-3.542-7.315-7.419-7.209
			c-3.871,0.107-7.183,3.7-7.001,7.591c0.18,3.83,3.295,6.833,7.148,6.893C1329.127,1097.56,1332.486,1094.2,1332.43,1090.225z"/>
		<path fill-rule="evenodd" clip-rule="evenodd" fill="#0D0D0D" d="M1359.183,1115.663c-0.066,5.075-3.843,8.831-8.865,8.816
			c-4.945-0.016-8.833-3.907-8.881-8.892c-0.051-5.178,4.063-9.218,9.215-9.048
			C1355.669,1106.706,1359.25,1110.535,1359.183,1115.663z M1355.098,1114.582c-0.351-2.165-1.925-3.838-4.835-3.776
			c-2.926,0.062-4.652,1.805-4.638,4.688c0.016,3.16,1.987,4.934,5.081,4.719
			C1353.495,1120.018,1355.158,1118.278,1355.098,1114.582z"/>
		<path fill-rule="evenodd" clip-rule="evenodd" fill="#0D0D0D" d="M1281.793,1074.263c-0.056-5.27,3.809-9.206,8.981-9.147
			c4.873,0.055,8.809,3.955,8.939,8.855c0.134,5.065-3.912,9.063-9.139,9.031
			C1285.458,1082.971,1281.847,1079.378,1281.793,1074.263z M1290.625,1069.085c-2.455,0.543-4.631,1.6-4.756,4.641
			c-0.128,3.138,1.514,5.046,4.655,5.209c2.958,0.153,4.711-1.674,4.938-4.446
			C1295.717,1071.367,1293.75,1069.716,1290.625,1069.085z"/>
		<path fill-rule="evenodd" clip-rule="evenodd" fill="#0D0D0D" d="M1428.735,1088.115c4.906,0.14,8.792,4.14,8.787,9.043
			c-0.006,5.157-4.104,9.031-9.348,8.839c-5.046-0.185-8.506-3.966-8.399-9.177
			C1419.877,1091.847,1423.861,1087.976,1428.735,1088.115z M1433.466,1097.113c-0.334-2.949-1.984-4.972-5.031-4.854
			c-2.675,0.103-4.619,1.745-4.595,4.755c0.025,3.176,1.828,4.917,4.914,4.894
			C1431.662,1101.885,1433.087,1099.968,1433.466,1097.113z"/>
		<path fill-rule="evenodd" clip-rule="evenodd" fill="#0D0D0D" d="M1304.011,1110.975c0.033,4.966-3.766,8.914-8.677,9.021
			c-4.825,0.104-8.988-3.825-9.18-8.664c-0.194-4.915,4.146-9.378,9.076-9.331
			C1300.054,1102.046,1303.979,1106.056,1304.011,1110.975z M1295.075,1106.035c-2.949,0.524-4.768,2.277-4.652,5.059
			c0.124,2.976,2.029,5.059,5.203,4.771c2.831-0.258,4.509-2.294,4.282-5.14C1299.685,1107.935,1297.817,1106.352,1295.075,1106.035
			z"/>
		<path fill-rule="evenodd" clip-rule="evenodd" fill="#F0F0F0" d="M1361.437,1026.465c1.442-0.804,3.229-1.302,4.262-2.466
			c3.428-3.866,5.484-1.783,7.61,1.318c3.508,5.12,3.902,10.572,1.385,16.07c-2.617,5.718-7.313,9.414-13.603,9.465
			c-27.296,0.221-54.595,0.193-81.892,0.017c-6.609-0.043-12.431-5.374-14.312-12.001c-1.841-6.483,0.26-13.105,5.98-17.147
			c2.493-1.762,3.355-3.026,2.404-6.311c-2.035-7.021,0.349-13.188,5.852-17.883c5.484-4.681,11.87-6.131,18.543-3.01
			c3.228,1.511,4.465,1.804,5.788-2.19c2.436-7.354,9.436-11.929,16.837-11.75c8.172,0.198,13.678,4.398,16.881,11.819
			c0.808,1.869,0.534,4.575,4.42,2.753c8.904-4.174,17.644-1.708,22.928,5.719c5.357,7.528,4.449,15.899-2.521,23.443
			c-0.434,0.47-0.736,1.06-1.099,1.595c-0.298,0.226-0.597,0.451-0.895,0.677C1360.537,1027.21,1360.988,1026.846,1361.437,1026.465
			z"/>
		<path fill-rule="evenodd" clip-rule="evenodd" fill="#E3E3E3" d="M1425.644,1009.64c-7.12-4.132-13.515-5.351-20.223-3.195
			c-1.963,0.63-2.389-0.561-2.937-1.682c-5.566-11.374-21.581-15.876-32.586-7.827c-1.422,1.04-2.123,0.804-3.224-0.408
			c-6.417-7.064-14.328-9.332-23.504-6.807c-2.113,0.582-2.454-0.694-3.292-1.973c-10.267-15.673-29.128-15.69-39.162,0.118
			c-1.569,2.474-2.89,2.078-4.8,1.309c-2.142-0.863-5.455,0.842-6.468-1.343c-1.206-2.6-0.551-5.837,0.185-8.812
			c4.011-16.194,20.762-24.034,35.485-16.342c2.532,1.323,3.428,1.062,4.757-1.379c5.151-9.462,13.415-14.309,24.054-14.174
			c10.715,0.136,18.7,5.494,23.484,15.077c1.325,2.651,2.374,3.11,5.237,2.393c17.104-4.282,32.757,9.063,30.865,26.325
			c-0.253,2.31,0.856,2.942,2.136,3.881C1420.344,998.244,1423.523,1002.695,1425.644,1009.64z"/>
		<path fill-rule="evenodd" clip-rule="evenodd" fill="#F2F2F2" d="M1365.85,1054.589c17.864-6.397,18.552-27.111,7.623-35.493
			c-1.598-1.226-1.654-2.632-1.457-4.354c0.379-3.312,0.5-6.661-0.787-9.808c-1.139-2.785,0.07-4.289,2.338-5.631
			c9.87-5.836,23.656-0.309,26.439,10.819c0.591,2.361,0.432,3.561,3.481,1.969c8.827-4.606,16.666-2.247,22.264,4.01
			c5.912,6.606,6.066,15.815,0.688,22.844c-0.832,1.089-2.558,1.692-2.235,3.781c1.631,0.088,2.928-0.814,3.767-1.827
			c3.814-4.61,5.995-1.585,8.072,1.624c3.339,5.158,3.705,10.589,0.878,16.063c-3,5.809-7.979,8.998-14.418,9.116
			c-12.973,0.238-25.953,0.061-38.93,0.133c-1.747,0.01-3.246-0.557-4.767-1.198c-3.717-1.569-7.432-1.648-11.067,0.145
			c-2.188,1.079-4.41,1.342-6.763,0.893c-0.166-2.119,1.034-3.772,1.95-5.494C1364.213,1059.761,1366.481,1057.74,1365.85,1054.589z
			 M1421.348,1044.258c0.28,0.121,0.622,0.399,0.821,0.32c0.202-0.08,0.263-0.515,0.386-0.795c-0.279-0.121-0.621-0.401-0.819-0.321
			C1421.533,1043.543,1421.471,1043.976,1421.348,1044.258z"/>
		<path fill-rule="evenodd" clip-rule="evenodd" fill="#F8F8F8" d="M1365.85,1054.589c0.631,3.151-1.636,5.172-2.922,7.59
			c-0.917,1.722-2.116,3.375-1.95,5.494c-6.134,0.07-12.289,0.481-18.397,0.122c-6.924-0.408-12.279-3.611-14.705-10.576
			c0.051-0.62,0.101-1.24,0.151-1.859c10.463-0.058,20.927-0.085,31.39-0.199C1361.563,1055.137,1363.705,1054.788,1365.85,1054.589
			z"/>
		<path fill-rule="evenodd" clip-rule="evenodd" fill="#F8F8F8" d="M1373.195,1069.567c4.865-0.131,9.302,4.027,9.552,8.952
			c0.244,4.808-3.94,9.311-8.884,9.558c-5.154,0.258-9.636-3.97-9.692-9.142C1364.118,1073.996,1368.256,1069.7,1373.195,1069.567z"
			/>
		<path fill-rule="evenodd" clip-rule="evenodd" fill="#E3E3E3" d="M1328.026,1055.359c-0.051,0.619-0.101,1.239-0.151,1.859
			C1327.247,1056.543,1326.333,1055.846,1328.026,1055.359z"/>
		<path fill-rule="evenodd" clip-rule="evenodd" fill="#F8F8F8" d="M1405.786,1112.012c-0.187,4.732-4.787,8.562-9.957,8.288
			c-5.031-0.266-9.007-4.273-8.829-8.898c0.182-4.708,4.92-8.702,9.934-8.373
			C1401.869,1103.352,1405.963,1107.508,1405.786,1112.012z"/>
		<path fill-rule="evenodd" clip-rule="evenodd" fill="#F8F8F8" d="M1332.43,1090.225c0.056,3.976-3.303,7.335-7.272,7.274
			c-3.853-0.06-6.968-3.063-7.148-6.893c-0.182-3.891,3.13-7.483,7.001-7.591C1328.889,1082.909,1332.375,1086.297,1332.43,1090.225
			z"/>
		<path fill-rule="evenodd" clip-rule="evenodd" fill="#FDFDFD" d="M1355.098,1114.582c0.061,3.696-1.603,5.436-4.393,5.63
			c-3.094,0.215-5.065-1.559-5.081-4.719c-0.014-2.883,1.711-4.626,4.638-4.688
			C1353.173,1110.744,1354.747,1112.417,1355.098,1114.582z"/>
		<path fill-rule="evenodd" clip-rule="evenodd" fill="#F0F0F0" d="M1290.625,1069.085c3.126,0.631,5.093,2.282,4.837,5.403
			c-0.228,2.772-1.98,4.6-4.938,4.446c-3.141-0.163-4.783-2.071-4.655-5.209C1285.993,1070.685,1288.17,1069.628,1290.625,1069.085z
			"/>
		<path fill-rule="evenodd" clip-rule="evenodd" fill="#F0F0F0" d="M1433.466,1097.113c-0.379,2.854-1.804,4.771-4.712,4.794
			c-3.085,0.023-4.888-1.718-4.914-4.894c-0.024-3.01,1.92-4.652,4.595-4.755
			C1431.481,1092.142,1433.131,1094.164,1433.466,1097.113z"/>
		<path fill-rule="evenodd" clip-rule="evenodd" fill="#F2F2F2" d="M1295.075,1106.035c2.743,0.316,4.61,1.899,4.833,4.689
			c0.227,2.846-1.451,4.882-4.282,5.14c-3.174,0.288-5.079-1.795-5.203-4.771C1290.307,1108.313,1292.125,1106.56,1295.075,1106.035
			z"/>
		<path fill-rule="evenodd" clip-rule="evenodd" fill="#0D0D0D" d="M1361.437,1026.465c-0.449,0.381-0.9,0.745-1.433,0.118
			c0.298-0.226,0.597-0.451,0.895-0.677C1361.086,1026.085,1361.265,1026.271,1361.437,1026.465z"/>
		<path fill-rule="evenodd" clip-rule="evenodd" fill="#F0F0F0" d="M1421.348,1044.257c0.123-0.281,0.185-0.714,0.388-0.795
			c0.198-0.08,0.54,0.2,0.819,0.321c-0.123,0.28-0.184,0.715-0.386,0.795C1421.97,1044.657,1421.628,1044.379,1421.348,1044.257z"/>
	</g>
</g>
<g id="Layer_1">
	<g>
		<defs>
			<rect id="SVGID_51_" width="2048" height="1536"/>
		</defs>
		<clipPath id="SVGID_14_">
			<use xlink:href="#SVGID_51_"  overflow="visible"/>
		</clipPath>
		<g clip-path="url(#SVGID_14_)">
			<defs>
				<rect id="SVGID_53_" width="2048" height="1536"/>
			</defs>
			<clipPath id="SVGID_16_">
				<use xlink:href="#SVGID_53_"  overflow="visible"/>
			</clipPath>
		</g>
		<g clip-path="url(#SVGID_14_)">
			<defs>
				<rect id="SVGID_55_" width="2048" height="1536"/>
			</defs>
			<clipPath id="SVGID_18_">
				<use xlink:href="#SVGID_55_"  overflow="visible"/>
			</clipPath>
			<path clip-path="url(#SVGID_18_)" fill="#FFFFFF" d="M1873.241,488.95c1.459-0.152,3.681,0.51,4.075,2.037
				C1876.149,490.116,1874.908,489.323,1873.241,488.95"/>
		</g>
	</g>
	<g>
		<path d="M1305.128,663.417l-5.48-22.864l-5.587,22.864h-6.918l-10.004-35.143h7.876l5.8,22.758l4.896-22.758h7.769l5.374,22.758
			l5.747-22.758h7.556l-9.896,35.143H1305.128z"/>
		<path d="M1337.453,664.105c-2.126,0-4.02-0.337-5.684-1.008s-3.071-1.608-4.222-2.811s-2.026-2.651-2.628-4.349
			c-0.602-1.696-0.903-3.553-0.903-5.567c0-2.051,0.31-3.924,0.93-5.621c0.619-1.697,1.514-3.146,2.682-4.349
			c1.168-1.201,2.575-2.129,4.222-2.783s3.514-0.981,5.604-0.981c2.053,0,3.894,0.327,5.521,0.981
			c1.629,0.654,3.019,1.573,4.169,2.757c1.151,1.185,2.035,2.625,2.656,4.322c0.619,1.696,0.929,3.588,0.929,5.674
			c0,2.085-0.31,3.969-0.929,5.647c-0.621,1.679-1.505,3.12-2.656,4.321c-1.15,1.202-2.548,2.13-4.194,2.784
			C1341.303,663.777,1339.471,664.105,1337.453,664.105z M1337.479,658.336c4.221,0,6.332-2.646,6.332-7.938
			c0-5.257-2.111-7.886-6.332-7.886c-4.222,0-6.332,2.629-6.332,7.886C1331.147,655.689,1333.258,658.336,1337.479,658.336z"/>
		<path d="M1356.688,663.417v-35.566h6.917v35.566H1356.688z"/>
		<path d="M1386.38,663.417l-5.747-11.696l-3.353,3.439v8.257h-6.917v-35.566h6.917v19.424l8.62-9.896h8.461l-8.78,9.579
			l8.567,16.46H1386.38z"/>
		<path d="M1403.992,652.196c0.106,1.977,0.683,3.547,1.729,4.711c1.046,1.164,2.421,1.746,4.123,1.746
			c1.136,0,2.138-0.255,3.007-0.767s1.428-1.226,1.676-2.144h7.131c-0.816,2.682-2.235,4.745-4.257,6.192
			c-2.022,1.446-4.435,2.17-7.237,2.17c-8.727,0-13.09-4.729-13.09-14.185c0-2.011,0.284-3.828,0.852-5.451s1.392-3.017,2.475-4.182
			c1.081-1.164,2.402-2.055,3.964-2.673c1.561-0.616,3.353-0.926,5.375-0.926c4.044,0,7.104,1.288,9.179,3.863
			c2.075,2.576,3.112,6.457,3.112,11.644H1403.992z M1414.9,647.856c-0.036-0.952-0.205-1.79-0.506-2.514
			c-0.302-0.723-0.7-1.323-1.197-1.8c-0.497-0.476-1.064-0.828-1.702-1.059c-0.639-0.229-1.296-0.344-1.969-0.344
			c-1.384,0-2.581,0.503-3.592,1.509c-1.012,1.006-1.589,2.408-1.729,4.207H1414.9z"/>
		<path d="M1444.591,663.417v-15.771c0-2.012-0.337-3.369-1.011-4.076c-0.674-0.705-1.827-1.058-3.459-1.058
			c-3.583,0-5.374,1.993-5.374,5.98v14.925h-6.917v-26.039h6.598v3.798c0.813-1.495,1.892-2.625,3.235-3.391
			s3.077-1.148,5.199-1.148c1.236,0,2.387,0.186,3.447,0.558c1.062,0.371,1.973,0.928,2.732,1.67c0.76,0.743,1.361,1.652,1.804,2.73
			c0.441,1.079,0.663,2.325,0.663,3.739v18.083H1444.591z"/>
	</g>
	<g>
		<path d="M628.961,638.041c-0.178-1.799-0.835-3.14-1.973-4.022c-1.138-0.881-2.844-1.323-5.117-1.323
			c-4.194,0-6.291,1.43-6.291,4.287c0,1.024,0.435,1.879,1.306,2.567c0.87,0.688,2.266,1.262,4.186,1.72
			c2.273,0.529,4.246,1.024,5.917,1.482c1.671,0.459,3.198,0.988,4.585,1.588c0.781,0.317,1.519,0.714,2.212,1.19
			s1.279,1.067,1.76,1.773c0.479,0.706,0.862,1.553,1.146,2.54c0.284,0.988,0.426,2.188,0.426,3.599
			c0,1.694-0.354,3.194-1.063,4.499c-0.71,1.306-1.668,2.408-2.874,3.308c-1.206,0.9-2.625,1.588-4.257,2.064
			s-3.352,0.715-5.161,0.715c-5.145,0-9.011-0.998-11.6-2.991c-2.591-1.992-3.956-4.93-4.098-8.812h7.13
			c0.035,1.799,0.771,3.22,2.209,4.261c1.437,1.041,3.236,1.561,5.4,1.561c2.342,0,4.115-0.422,5.321-1.268
			c1.205-0.845,1.81-1.99,1.81-3.435c0-0.563-0.072-1.083-0.214-1.559c-0.143-0.476-0.418-0.907-0.827-1.294
			c-0.408-0.387-0.969-0.731-1.68-1.03c-0.712-0.3-1.637-0.573-2.774-0.819c-2.703-0.563-5.041-1.136-7.015-1.717
			c-1.974-0.582-3.602-1.304-4.882-2.167c-1.28-0.862-2.223-1.91-2.827-3.144c-0.604-1.232-0.906-2.801-0.906-4.703
			c0-1.443,0.266-2.8,0.8-4.068c0.533-1.268,1.35-2.368,2.452-3.302c1.102-0.933,2.461-1.673,4.078-2.219
			c1.616-0.546,3.527-0.819,5.731-0.819c2.132,0,4.051,0.273,5.757,0.82s3.172,1.322,4.398,2.328
			c1.226,1.006,2.177,2.223,2.853,3.652c0.675,1.429,1.047,3.008,1.119,4.736H628.961z"/>
		<path d="M655.289,663.499c-2.126,0-4.02-0.337-5.684-1.008s-3.071-1.608-4.222-2.811s-2.026-2.651-2.628-4.349
			c-0.602-1.696-0.903-3.553-0.903-5.567c0-2.051,0.31-3.924,0.93-5.621c0.619-1.697,1.514-3.146,2.682-4.349
			c1.168-1.201,2.575-2.129,4.222-2.783s3.514-0.981,5.604-0.981c2.053,0,3.894,0.327,5.521,0.981
			c1.629,0.654,3.019,1.573,4.169,2.757c1.151,1.185,2.035,2.625,2.656,4.322c0.619,1.696,0.929,3.588,0.929,5.674
			c0,2.085-0.31,3.969-0.929,5.647c-0.621,1.679-1.505,3.12-2.656,4.321c-1.15,1.202-2.548,2.13-4.194,2.784
			C659.139,663.171,657.307,663.499,655.289,663.499z M655.315,657.729c4.221,0,6.332-2.646,6.332-7.938
			c0-5.257-2.111-7.886-6.332-7.886c-4.222,0-6.332,2.629-6.332,7.886C648.983,655.083,651.094,657.729,655.315,657.729z"/>
		<path d="M691.231,662.811v-15.771c0-2.012-0.337-3.369-1.011-4.076c-0.674-0.705-1.827-1.058-3.459-1.058
			c-3.583,0-5.374,1.993-5.374,5.98v14.925h-6.917v-26.039h6.598v3.798c0.813-1.495,1.892-2.625,3.235-3.391
			s3.077-1.148,5.199-1.148c1.236,0,2.387,0.186,3.447,0.558c1.062,0.371,1.973,0.928,2.732,1.67c0.76,0.743,1.361,1.652,1.804,2.73
			c0.441,1.079,0.663,2.325,0.663,3.739v18.083H691.231z"/>
		<path d="M721.721,662.811v-15.771c0-2.012-0.337-3.369-1.011-4.076c-0.674-0.705-1.827-1.058-3.459-1.058
			c-3.583,0-5.374,1.993-5.374,5.98v14.925h-6.917v-26.039h6.598v3.798c0.813-1.495,1.892-2.625,3.235-3.391
			s3.077-1.148,5.199-1.148c1.236,0,2.387,0.186,3.447,0.558c1.062,0.371,1.973,0.928,2.732,1.67c0.76,0.743,1.361,1.652,1.804,2.73
			c0.441,1.079,0.663,2.325,0.663,3.739v18.083H721.721z"/>
		<path d="M741.462,651.59c0.106,1.977,0.683,3.547,1.729,4.711c1.046,1.164,2.421,1.746,4.123,1.746
			c1.136,0,2.138-0.255,3.007-0.767s1.428-1.226,1.676-2.144h7.131c-0.816,2.682-2.235,4.745-4.257,6.192
			c-2.022,1.446-4.435,2.17-7.237,2.17c-8.727,0-13.09-4.729-13.09-14.185c0-2.011,0.284-3.828,0.852-5.451s1.392-3.017,2.475-4.182
			c1.081-1.164,2.402-2.055,3.964-2.673c1.561-0.616,3.353-0.926,5.375-0.926c4.044,0,7.104,1.288,9.179,3.863
			c2.075,2.576,3.112,6.457,3.112,11.644H741.462z M752.37,647.25c-0.036-0.952-0.205-1.79-0.506-2.514
			c-0.302-0.723-0.7-1.323-1.197-1.8c-0.497-0.476-1.064-0.828-1.702-1.059c-0.639-0.229-1.296-0.344-1.969-0.344
			c-1.384,0-2.581,0.503-3.592,1.509c-1.012,1.006-1.589,2.408-1.729,4.207H752.37z"/>
	</g>
	<g>
		<path d="M948.067,638.647c-0.178-1.799-0.835-3.14-1.973-4.022c-1.138-0.881-2.844-1.323-5.117-1.323
			c-4.194,0-6.291,1.43-6.291,4.287c0,1.024,0.435,1.879,1.306,2.567c0.87,0.688,2.266,1.262,4.186,1.72
			c2.273,0.529,4.246,1.024,5.917,1.482c1.671,0.459,3.198,0.988,4.585,1.588c0.781,0.317,1.519,0.714,2.212,1.19
			s1.279,1.067,1.76,1.773c0.479,0.706,0.862,1.553,1.146,2.54c0.284,0.988,0.426,2.188,0.426,3.599
			c0,1.694-0.354,3.194-1.063,4.499c-0.71,1.306-1.668,2.408-2.874,3.308c-1.206,0.9-2.625,1.588-4.257,2.064
			s-3.352,0.715-5.161,0.715c-5.145,0-9.011-0.998-11.6-2.991c-2.591-1.992-3.956-4.93-4.098-8.812h7.13
			c0.035,1.799,0.771,3.22,2.209,4.261c1.437,1.041,3.236,1.561,5.4,1.561c2.342,0,4.115-0.422,5.321-1.268
			c1.205-0.845,1.81-1.99,1.81-3.435c0-0.563-0.072-1.083-0.214-1.559c-0.143-0.476-0.418-0.907-0.827-1.294
			c-0.408-0.387-0.969-0.731-1.68-1.03c-0.712-0.3-1.637-0.573-2.774-0.819c-2.703-0.563-5.041-1.136-7.015-1.717
			c-1.974-0.582-3.602-1.304-4.882-2.167c-1.28-0.862-2.223-1.91-2.827-3.144c-0.604-1.232-0.906-2.801-0.906-4.703
			c0-1.443,0.266-2.8,0.8-4.068c0.533-1.268,1.35-2.368,2.452-3.302c1.102-0.933,2.461-1.673,4.078-2.219
			c1.616-0.546,3.527-0.819,5.731-0.819c2.132,0,4.051,0.273,5.757,0.82s3.172,1.322,4.398,2.328
			c1.226,1.006,2.177,2.223,2.853,3.652c0.675,1.429,1.047,3.008,1.119,4.736H948.067z"/>
		<path d="M985.011,653.996c-0.178,1.518-0.612,2.894-1.304,4.128c-0.691,1.236-1.569,2.294-2.634,3.176
			c-1.064,0.883-2.28,1.57-3.646,2.064c-1.365,0.493-2.847,0.741-4.442,0.741c-1.774,0-3.397-0.292-4.869-0.874
			c-1.473-0.582-2.74-1.464-3.805-2.646c-1.064-1.183-1.889-2.646-2.475-4.394c-0.585-1.746-0.878-3.784-0.878-6.112
			c0-2.329,0.293-4.34,0.878-6.034c0.586-1.693,1.41-3.078,2.475-4.154s2.35-1.879,3.857-2.408s3.184-0.794,5.029-0.794
			c1.702,0,3.254,0.229,4.655,0.688s2.625,1.129,3.672,2.011c1.046,0.883,1.871,1.94,2.475,3.176
			c0.603,1.235,0.957,2.611,1.063,4.128h-6.971c-0.178-1.341-0.718-2.39-1.622-3.149c-0.905-0.758-2.014-1.138-3.326-1.138
			c-0.745,0-1.437,0.124-2.075,0.371s-1.197,0.661-1.676,1.243c-0.479,0.582-0.861,1.358-1.145,2.329
			c-0.284,0.971-0.426,2.161-0.426,3.572c0,2.858,0.514,4.975,1.543,6.352c1.029,1.376,2.217,2.063,3.565,2.063
			c1.348,0,2.501-0.37,3.459-1.111s1.507-1.816,1.649-3.229H985.011z"/>
		<path d="M1007.306,663.417v-16.143c0-1.976-0.346-3.325-1.037-4.049c-0.691-0.723-1.836-1.085-3.433-1.085
			c-0.851,0-1.614,0.168-2.288,0.503c-0.674,0.336-1.241,0.794-1.702,1.376c-0.462,0.582-0.808,1.253-1.038,2.012
			s-0.346,1.579-0.346,2.461v14.925h-6.917v-35.566h6.917l-0.016,12.914c0.248-0.563,0.628-1.103,1.142-1.614
			c0.513-0.511,1.105-0.943,1.778-1.297c0.672-0.352,1.415-0.635,2.229-0.847s1.664-0.317,2.549-0.317
			c2.69,0,4.876,0.732,6.558,2.196c1.681,1.465,2.521,3.502,2.521,6.113v18.418H1007.306z"/>
		<path d="M1037.794,663.417v-15.771c0-2.012-0.337-3.369-1.011-4.076c-0.674-0.705-1.827-1.058-3.459-1.058
			c-3.583,0-5.374,1.993-5.374,5.98v14.925h-6.917v-26.039h6.598v3.798c0.813-1.495,1.892-2.625,3.235-3.391
			s3.077-1.148,5.199-1.148c1.236,0,2.387,0.186,3.447,0.558c1.062,0.371,1.973,0.928,2.732,1.67c0.76,0.743,1.361,1.652,1.804,2.73
			c0.441,1.079,0.663,2.325,0.663,3.739v18.083H1037.794z"/>
		<path d="M1057.535,652.196c0.106,1.977,0.683,3.547,1.729,4.711c1.046,1.164,2.421,1.746,4.123,1.746
			c1.136,0,2.138-0.255,3.007-0.767s1.428-1.226,1.676-2.144h7.131c-0.816,2.682-2.235,4.745-4.257,6.192
			c-2.022,1.446-4.435,2.17-7.237,2.17c-8.727,0-13.09-4.729-13.09-14.185c0-2.011,0.284-3.828,0.852-5.451s1.392-3.017,2.475-4.182
			c1.081-1.164,2.402-2.055,3.964-2.673c1.561-0.616,3.353-0.926,5.375-0.926c4.044,0,7.104,1.288,9.179,3.863
			c2.075,2.576,3.112,6.457,3.112,11.644H1057.535z M1068.443,647.856c-0.036-0.952-0.205-1.79-0.506-2.514
			c-0.302-0.723-0.7-1.323-1.197-1.8c-0.497-0.476-1.064-0.828-1.702-1.059c-0.639-0.229-1.296-0.344-1.969-0.344
			c-1.384,0-2.581,0.503-3.592,1.509c-1.012,1.006-1.589,2.408-1.729,4.207H1068.443z"/>
		<path d="M1087.492,652.196c0.106,1.977,0.683,3.547,1.729,4.711c1.046,1.164,2.421,1.746,4.123,1.746
			c1.136,0,2.138-0.255,3.007-0.767s1.428-1.226,1.676-2.144h7.131c-0.816,2.682-2.235,4.745-4.257,6.192
			c-2.022,1.446-4.435,2.17-7.237,2.17c-8.727,0-13.09-4.729-13.09-14.185c0-2.011,0.284-3.828,0.852-5.451s1.392-3.017,2.475-4.182
			c1.081-1.164,2.402-2.055,3.964-2.673c1.561-0.616,3.353-0.926,5.375-0.926c4.044,0,7.104,1.288,9.179,3.863
			c2.075,2.576,3.112,6.457,3.112,11.644H1087.492z M1098.4,647.856c-0.036-0.952-0.205-1.79-0.506-2.514
			c-0.302-0.723-0.7-1.323-1.197-1.8c-0.497-0.476-1.064-0.828-1.702-1.059c-0.639-0.229-1.296-0.344-1.969-0.344
			c-1.384,0-2.581,0.503-3.592,1.509c-1.012,1.006-1.589,2.408-1.729,4.207H1098.4z"/>
	</g>
	<g id="XMLID_4_" opacity="0.15">
		<path d="M895.257,861.063c-2.258,7.381-10.001,34.583-15.025,38.931c-8.396,7.263-43.815,1.692-54.431,1.653
			c-10.098-0.025-15.324,0.875-27.229,0.842c-6.251-0.017-22.188,1.489-26.334-1.883c-5.87-4.784-11.476-30.883-16.571-42.642
			c-5.885-13.574-13.628-30.517-22.723-41.751c-7.709-9.527-21.951-19.961-25.381-28.175c-10.219-24.307,30.06-50.134,50.066-11.634
			c2.919-25.378,1.045-64.979,1.126-96.972c0.026-10.168-1.073-26.157,3.604-32.626c8.169-11.296,25.943-13.025,35.12-3.52
			c16.488,17.057-1.062,44.623,5.98,64.363c10.431-3.68,28.615-3.893,33.331,12.778c8.197-1.834,16.413-4.596,24.588-1.745
			c4.781,5.142,11.317,10.309,11.375,15.438c11.16-1.012,24.367-4.974,33.339,9.153c5.466,8.597,1.681,29.515,1.663,39.873
			C907.676,811.342,904.27,831.579,895.257,861.063z M874.995,890.906c11.17-28.229,24.816-77.147,24.862-112.303
			c0.016-9.941,0.344-27.994-2.544-31.736c-5.653-7.302-17.256-5.729-21.076-1.861c-7.737,7.817,2.378,17.988-7.093,27.17
			c-14.529-7.461,2.078-30.554-8.674-41.713c-4.737-4.916-13.73-6.743-20.195,0.852c-8.541,10.035,6.564,28.674-8.869,34.416
			c-8.697-14.645,5.078-31.952-4.275-44.421c-6.544-8.737-14.06-8.667-20.177-2.784c-11.565,11.135,5,35.723-10.648,39.857
			c-3.435-16.069-2.552-31.563-2.496-53.479c0.036-14.047,6.724-44.435-3.372-54.386c-4.939-4.871-14.757-4.354-18.427-0.965
			c-7.261,6.694-3.541,31.618-3.624,39.874c-0.278,29.916,0.111,52.856-0.203,79.755c-0.138,12.415,3.449,28.293-5.365,38.048
			c-6.19-16.855-35.14-64.07-47.342-27.317c32.189,37.544,53.76,75.069,62.927,112.553
			C810.604,890.586,842.781,894.298,874.995,890.906z"/>
		<path fill="#FFFFFF" d="M899.857,778.604c-0.046,35.155-13.692,84.074-24.862,112.303c-32.214,3.392-64.391-0.32-96.592,1.56
			c-9.167-37.483-30.737-75.009-62.927-112.553c12.202-36.753,41.151,10.462,47.342,27.317c8.814-9.755,5.228-25.633,5.365-38.048
			c0.314-26.898-0.075-49.839,0.203-79.755c0.083-8.256-3.637-33.18,3.624-39.874c3.67-3.39,13.487-3.906,18.427,0.965
			c10.096,9.951,3.408,40.339,3.372,54.386c-0.056,21.915-0.938,37.409,2.496,53.479c15.648-4.135-0.917-28.723,10.648-39.857
			c6.117-5.883,13.633-5.953,20.177,2.784c9.354,12.469-4.422,29.776,4.275,44.421c15.434-5.742,0.328-24.381,8.869-34.416
			c6.465-7.595,15.458-5.768,20.195-0.852c10.752,11.159-5.855,34.252,8.674,41.713c9.471-9.182-0.645-19.353,7.093-27.17
			c3.82-3.867,15.423-5.44,21.076,1.861C900.201,750.609,899.873,768.662,899.857,778.604z"/>
	</g>
	<g>
		
			<line fill="none" stroke="#000000" stroke-width="2.5391" stroke-miterlimit="10" stroke-dasharray="15.2344" x1="776.192" y1="633.685" x2="775.732" y2="471.131"/>
		
			<line fill="none" stroke="#000000" stroke-width="2.5391" stroke-miterlimit="10" stroke-dasharray="15.2344" x1="775.753" y1="471.107" x2="763.466" y2="484.536"/>
		
			<line fill="none" stroke="#000000" stroke-width="2.5391" stroke-miterlimit="10" stroke-dasharray="15.2344" x1="774.975" y1="470.439" x2="788.582" y2="482.888"/>
	</g>
	<g>
		
			<line fill="none" stroke="#000000" stroke-width="2.5391" stroke-miterlimit="10" stroke-dasharray="15.2344" x1="595.357" y1="633.685" x2="594.898" y2="471.131"/>
		
			<line fill="none" stroke="#000000" stroke-width="2.5391" stroke-miterlimit="10" stroke-dasharray="15.2344" x1="594.918" y1="471.107" x2="582.632" y2="484.536"/>
		
			<line fill="none" stroke="#000000" stroke-width="2.5391" stroke-miterlimit="10" stroke-dasharray="15.2344" x1="594.141" y1="470.439" x2="607.748" y2="482.888"/>
	</g>
	<g>
		<path d="M625.623,1232.311c-0.178-1.799-0.835-3.14-1.973-4.022c-1.138-0.881-2.844-1.323-5.117-1.323
			c-4.194,0-6.291,1.43-6.291,4.287c0,1.024,0.435,1.879,1.306,2.567c0.87,0.688,2.266,1.262,4.186,1.72
			c2.273,0.529,4.246,1.024,5.917,1.482c1.671,0.459,3.198,0.988,4.585,1.588c0.781,0.317,1.519,0.714,2.212,1.19
			s1.279,1.067,1.76,1.773c0.479,0.706,0.862,1.553,1.146,2.54c0.284,0.988,0.426,2.188,0.426,3.599
			c0,1.694-0.354,3.194-1.063,4.499c-0.71,1.306-1.668,2.408-2.874,3.308c-1.206,0.9-2.625,1.588-4.257,2.064
			s-3.352,0.715-5.161,0.715c-5.145,0-9.011-0.998-11.6-2.991c-2.591-1.992-3.956-4.93-4.098-8.812h7.13
			c0.035,1.799,0.771,3.22,2.209,4.261c1.437,1.041,3.236,1.561,5.4,1.561c2.342,0,4.115-0.422,5.321-1.268
			c1.205-0.845,1.81-1.99,1.81-3.435c0-0.563-0.072-1.083-0.214-1.559c-0.143-0.476-0.418-0.907-0.827-1.294
			c-0.408-0.387-0.969-0.731-1.68-1.03c-0.712-0.3-1.637-0.573-2.774-0.819c-2.703-0.563-5.041-1.136-7.015-1.717
			c-1.974-0.582-3.602-1.304-4.882-2.167c-1.28-0.862-2.223-1.91-2.827-3.144c-0.604-1.232-0.906-2.801-0.906-4.703
			c0-1.443,0.266-2.8,0.8-4.068c0.533-1.268,1.35-2.368,2.452-3.302c1.102-0.933,2.461-1.673,4.078-2.219
			c1.616-0.546,3.527-0.819,5.731-0.819c2.132,0,4.051,0.273,5.757,0.82s3.172,1.322,4.398,2.328
			c1.226,1.006,2.177,2.223,2.853,3.652c0.675,1.429,1.047,3.008,1.119,4.736H625.623z"/>
		<path d="M651.951,1257.769c-2.126,0-4.02-0.337-5.684-1.008s-3.071-1.608-4.222-2.811s-2.026-2.651-2.628-4.349
			c-0.602-1.696-0.903-3.553-0.903-5.567c0-2.051,0.31-3.924,0.93-5.621c0.619-1.697,1.514-3.146,2.682-4.349
			c1.168-1.201,2.575-2.129,4.222-2.783s3.514-0.981,5.604-0.981c2.053,0,3.894,0.327,5.521,0.981
			c1.629,0.654,3.019,1.573,4.169,2.757c1.151,1.185,2.035,2.625,2.656,4.322c0.619,1.696,0.929,3.588,0.929,5.674
			c0,2.085-0.31,3.969-0.929,5.647c-0.621,1.679-1.505,3.12-2.656,4.321c-1.15,1.202-2.548,2.13-4.194,2.784
			C655.801,1257.44,653.969,1257.769,651.951,1257.769z M651.978,1251.999c4.221,0,6.332-2.646,6.332-7.938
			c0-5.257-2.111-7.886-6.332-7.886c-4.222,0-6.332,2.629-6.332,7.886C645.646,1249.353,647.756,1251.999,651.978,1251.999z"/>
		<path d="M687.894,1257.08v-15.771c0-2.012-0.337-3.369-1.011-4.076c-0.674-0.705-1.827-1.058-3.459-1.058
			c-3.583,0-5.374,1.993-5.374,5.98v14.925h-6.917v-26.039h6.598v3.798c0.813-1.495,1.892-2.625,3.235-3.391
			s3.077-1.148,5.199-1.148c1.236,0,2.387,0.186,3.447,0.558c1.062,0.371,1.973,0.928,2.732,1.67c0.76,0.743,1.361,1.652,1.804,2.73
			c0.441,1.079,0.663,2.325,0.663,3.739v18.083H687.894z"/>
		<path d="M718.383,1257.08v-15.771c0-2.012-0.337-3.369-1.011-4.076c-0.674-0.705-1.827-1.058-3.459-1.058
			c-3.583,0-5.374,1.993-5.374,5.98v14.925h-6.917v-26.039h6.598v3.798c0.813-1.495,1.892-2.625,3.235-3.391
			s3.077-1.148,5.199-1.148c1.236,0,2.387,0.186,3.447,0.558c1.062,0.371,1.973,0.928,2.732,1.67c0.76,0.743,1.361,1.652,1.804,2.73
			c0.441,1.079,0.663,2.325,0.663,3.739v18.083H718.383z"/>
		<path d="M738.124,1245.859c0.106,1.977,0.683,3.547,1.729,4.711c1.046,1.164,2.421,1.746,4.123,1.746
			c1.136,0,2.138-0.255,3.007-0.767s1.428-1.226,1.676-2.144h7.131c-0.816,2.682-2.235,4.745-4.257,6.192
			c-2.022,1.446-4.435,2.17-7.237,2.17c-8.727,0-13.09-4.729-13.09-14.185c0-2.011,0.284-3.828,0.852-5.451s1.392-3.017,2.475-4.182
			c1.081-1.164,2.402-2.055,3.964-2.673c1.561-0.616,3.353-0.926,5.375-0.926c4.044,0,7.104,1.288,9.179,3.863
			c2.075,2.576,3.112,6.457,3.112,11.644H738.124z M749.032,1241.52c-0.036-0.952-0.205-1.79-0.506-2.514
			c-0.302-0.723-0.7-1.323-1.197-1.8c-0.497-0.476-1.064-0.828-1.702-1.059c-0.639-0.229-1.296-0.344-1.969-0.344
			c-1.384,0-2.581,0.503-3.592,1.509c-1.012,1.006-1.589,2.408-1.729,4.207H749.032z"/>
	</g>
	<g>
		<path d="M1304.653,1389.338l-5.48-22.864l-5.587,22.864h-6.918l-10.004-35.143h7.876l5.8,22.758l4.896-22.758h7.769l5.374,22.758
			l5.747-22.758h7.556l-9.896,35.143H1304.653z"/>
		<path d="M1336.979,1390.026c-2.126,0-4.02-0.337-5.684-1.008s-3.071-1.608-4.222-2.811s-2.026-2.651-2.628-4.349
			c-0.602-1.696-0.903-3.553-0.903-5.567c0-2.051,0.31-3.924,0.93-5.621c0.619-1.697,1.514-3.146,2.682-4.349
			c1.168-1.201,2.575-2.129,4.222-2.783s3.514-0.981,5.604-0.981c2.053,0,3.894,0.327,5.521,0.981
			c1.629,0.654,3.019,1.573,4.169,2.757c1.151,1.185,2.035,2.625,2.656,4.322c0.619,1.696,0.929,3.588,0.929,5.674
			c0,2.085-0.31,3.969-0.929,5.647c-0.621,1.679-1.505,3.12-2.656,4.321c-1.15,1.202-2.548,2.13-4.194,2.784
			C1340.828,1389.698,1338.996,1390.026,1336.979,1390.026z M1337.005,1384.257c4.221,0,6.332-2.646,6.332-7.938
			c0-5.257-2.111-7.886-6.332-7.886c-4.222,0-6.332,2.629-6.332,7.886C1330.673,1381.61,1332.783,1384.257,1337.005,1384.257z"/>
		<path d="M1356.214,1389.338v-35.566h6.917v35.566H1356.214z"/>
		<path d="M1385.905,1389.338l-5.747-11.696l-3.353,3.439v8.257h-6.917v-35.566h6.917v19.424l8.62-9.896h8.461l-8.78,9.579
			l8.567,16.46H1385.905z"/>
		<path d="M1403.518,1378.117c0.106,1.977,0.683,3.547,1.729,4.711c1.046,1.164,2.421,1.746,4.123,1.746
			c1.136,0,2.138-0.255,3.007-0.767s1.428-1.226,1.676-2.144h7.131c-0.816,2.682-2.235,4.745-4.257,6.192
			c-2.022,1.446-4.435,2.17-7.237,2.17c-8.727,0-13.09-4.729-13.09-14.185c0-2.011,0.284-3.828,0.852-5.451s1.392-3.017,2.475-4.182
			c1.081-1.164,2.402-2.055,3.964-2.673c1.561-0.616,3.353-0.926,5.375-0.926c4.044,0,7.104,1.288,9.179,3.863
			c2.075,2.576,3.112,6.457,3.112,11.644H1403.518z M1414.426,1373.777c-0.036-0.952-0.205-1.79-0.506-2.514
			c-0.302-0.723-0.7-1.323-1.197-1.8c-0.497-0.476-1.064-0.828-1.702-1.059c-0.639-0.229-1.296-0.344-1.969-0.344
			c-1.384,0-2.581,0.503-3.592,1.509c-1.012,1.006-1.589,2.408-1.729,4.207H1414.426z"/>
		<path d="M1444.116,1389.338v-15.771c0-2.012-0.337-3.369-1.011-4.076c-0.674-0.705-1.827-1.058-3.459-1.058
			c-3.583,0-5.374,1.993-5.374,5.98v14.925h-6.917v-26.039h6.598v3.798c0.813-1.495,1.892-2.625,3.235-3.391
			s3.077-1.148,5.199-1.148c1.236,0,2.387,0.186,3.447,0.558c1.062,0.371,1.973,0.928,2.732,1.67c0.76,0.743,1.361,1.652,1.804,2.73
			c0.441,1.079,0.663,2.325,0.663,3.739v18.083H1444.116z"/>
	</g>
	<g>
		<path d="M947.591,1364.568c-0.178-1.799-0.835-3.14-1.973-4.022c-1.138-0.881-2.844-1.323-5.117-1.323
			c-4.194,0-6.291,1.43-6.291,4.287c0,1.024,0.435,1.879,1.306,2.567c0.87,0.688,2.266,1.262,4.186,1.72
			c2.273,0.529,4.246,1.024,5.917,1.482c1.671,0.459,3.198,0.988,4.585,1.588c0.781,0.317,1.519,0.714,2.212,1.19
			s1.279,1.067,1.76,1.773c0.479,0.706,0.862,1.553,1.146,2.54c0.284,0.988,0.426,2.188,0.426,3.599
			c0,1.694-0.354,3.194-1.063,4.499c-0.71,1.306-1.668,2.408-2.874,3.308c-1.206,0.9-2.625,1.588-4.257,2.064
			s-3.352,0.715-5.161,0.715c-5.145,0-9.011-0.998-11.6-2.991c-2.591-1.992-3.956-4.93-4.098-8.812h7.13
			c0.035,1.799,0.771,3.22,2.209,4.261c1.437,1.041,3.236,1.561,5.4,1.561c2.342,0,4.115-0.422,5.321-1.268
			c1.205-0.845,1.81-1.99,1.81-3.435c0-0.563-0.072-1.083-0.214-1.559c-0.143-0.476-0.418-0.907-0.827-1.294
			c-0.408-0.387-0.969-0.731-1.68-1.03c-0.712-0.3-1.637-0.573-2.774-0.819c-2.703-0.563-5.041-1.136-7.015-1.717
			c-1.974-0.582-3.602-1.304-4.882-2.167c-1.28-0.862-2.223-1.91-2.827-3.144c-0.604-1.232-0.906-2.801-0.906-4.703
			c0-1.443,0.266-2.8,0.8-4.068c0.533-1.268,1.35-2.368,2.452-3.302c1.102-0.933,2.461-1.673,4.078-2.219
			c1.616-0.546,3.527-0.819,5.731-0.819c2.132,0,4.051,0.273,5.757,0.82s3.172,1.322,4.398,2.328
			c1.226,1.006,2.177,2.223,2.853,3.652c0.675,1.429,1.047,3.008,1.119,4.736H947.591z"/>
		<path d="M984.534,1379.917c-0.178,1.518-0.612,2.894-1.304,4.128c-0.691,1.236-1.569,2.294-2.634,3.176
			c-1.064,0.883-2.28,1.57-3.646,2.064c-1.365,0.493-2.847,0.741-4.442,0.741c-1.774,0-3.397-0.292-4.869-0.874
			c-1.473-0.582-2.74-1.464-3.805-2.646c-1.064-1.183-1.889-2.646-2.475-4.394c-0.585-1.746-0.878-3.784-0.878-6.112
			c0-2.329,0.293-4.34,0.878-6.034c0.586-1.693,1.41-3.078,2.475-4.154s2.35-1.879,3.857-2.408s3.184-0.794,5.029-0.794
			c1.702,0,3.254,0.229,4.655,0.688s2.625,1.129,3.672,2.011c1.046,0.883,1.871,1.94,2.475,3.176
			c0.603,1.235,0.957,2.611,1.063,4.128h-6.971c-0.178-1.341-0.718-2.39-1.622-3.149c-0.905-0.758-2.014-1.138-3.326-1.138
			c-0.745,0-1.437,0.124-2.075,0.371s-1.197,0.661-1.676,1.243c-0.479,0.582-0.861,1.358-1.145,2.329
			c-0.284,0.971-0.426,2.161-0.426,3.572c0,2.858,0.514,4.975,1.543,6.352c1.029,1.376,2.217,2.063,3.565,2.063
			c1.348,0,2.501-0.37,3.459-1.111s1.507-1.816,1.649-3.229H984.534z"/>
		<path d="M1006.829,1389.338v-16.143c0-1.976-0.346-3.325-1.037-4.049c-0.691-0.723-1.836-1.085-3.433-1.085
			c-0.851,0-1.614,0.168-2.288,0.503c-0.674,0.336-1.241,0.794-1.702,1.376c-0.462,0.582-0.808,1.253-1.038,2.012
			s-0.346,1.579-0.346,2.461v14.925h-6.917v-35.566h6.917l-0.016,12.914c0.248-0.563,0.628-1.103,1.142-1.614
			c0.513-0.511,1.105-0.943,1.778-1.297c0.672-0.352,1.415-0.635,2.229-0.847s1.664-0.317,2.549-0.317
			c2.69,0,4.876,0.732,6.558,2.196c1.681,1.465,2.521,3.502,2.521,6.113v18.418H1006.829z"/>
		<path d="M1037.317,1389.338v-15.771c0-2.012-0.337-3.369-1.011-4.076c-0.674-0.705-1.827-1.058-3.459-1.058
			c-3.583,0-5.374,1.993-5.374,5.98v14.925h-6.917v-26.039h6.598v3.798c0.813-1.495,1.892-2.625,3.235-3.391
			s3.077-1.148,5.199-1.148c1.236,0,2.387,0.186,3.447,0.558c1.062,0.371,1.973,0.928,2.732,1.67c0.76,0.743,1.361,1.652,1.804,2.73
			c0.441,1.079,0.663,2.325,0.663,3.739v18.083H1037.317z"/>
		<path d="M1057.059,1378.117c0.106,1.977,0.683,3.547,1.729,4.711c1.046,1.164,2.421,1.746,4.123,1.746
			c1.136,0,2.138-0.255,3.007-0.767s1.428-1.226,1.676-2.144h7.131c-0.816,2.682-2.235,4.745-4.257,6.192
			c-2.022,1.446-4.435,2.17-7.237,2.17c-8.727,0-13.09-4.729-13.09-14.185c0-2.011,0.284-3.828,0.852-5.451s1.392-3.017,2.475-4.182
			c1.081-1.164,2.402-2.055,3.964-2.673c1.561-0.616,3.353-0.926,5.375-0.926c4.044,0,7.104,1.288,9.179,3.863
			c2.075,2.576,3.112,6.457,3.112,11.644H1057.059z M1067.967,1373.777c-0.036-0.952-0.205-1.79-0.506-2.514
			c-0.302-0.723-0.7-1.323-1.197-1.8c-0.497-0.476-1.064-0.828-1.702-1.059c-0.639-0.229-1.296-0.344-1.969-0.344
			c-1.384,0-2.581,0.503-3.592,1.509c-1.012,1.006-1.589,2.408-1.729,4.207H1067.967z"/>
		<path d="M1087.016,1378.117c0.106,1.977,0.683,3.547,1.729,4.711c1.046,1.164,2.421,1.746,4.123,1.746
			c1.136,0,2.138-0.255,3.007-0.767s1.428-1.226,1.676-2.144h7.131c-0.816,2.682-2.235,4.745-4.257,6.192
			c-2.022,1.446-4.435,2.17-7.237,2.17c-8.727,0-13.09-4.729-13.09-14.185c0-2.011,0.284-3.828,0.852-5.451s1.392-3.017,2.475-4.182
			c1.081-1.164,2.402-2.055,3.964-2.673c1.561-0.616,3.353-0.926,5.375-0.926c4.044,0,7.104,1.288,9.179,3.863
			c2.075,2.576,3.112,6.457,3.112,11.644H1087.016z M1097.924,1373.777c-0.036-0.952-0.205-1.79-0.506-2.514
			c-0.302-0.723-0.7-1.323-1.197-1.8c-0.497-0.476-1.064-0.828-1.702-1.059c-0.639-0.229-1.296-0.344-1.969-0.344
			c-1.384,0-2.581,0.503-3.592,1.509c-1.012,1.006-1.589,2.408-1.729,4.207H1097.924z"/>
	</g>
	<g id="XMLID_3_">
		<path d="M895.861,1442.608c-2.258,7.378-10.001,34.583-15.024,38.928c-8.396,7.264-43.816,1.694-54.432,1.655
			c-10.096-0.027-15.323,0.874-27.228,0.844c-6.252-0.02-22.191,1.487-26.336-1.886c-5.869-4.782-11.476-30.882-16.571-42.641
			c-5.884-13.575-13.628-30.516-22.721-41.751c-7.711-9.529-21.95-19.963-25.382-28.174c-10.217-24.309,30.06-50.136,50.066-11.637
			c2.919-25.378,1.045-64.977,1.126-96.969c0.026-10.168-1.075-26.16,3.604-32.627c8.168-11.297,25.942-13.025,35.119-3.52
			c16.488,17.056-1.063,44.622,5.982,64.361c10.43-3.678,28.613-3.891,33.33,12.78c8.196-1.837,16.414-4.596,24.589-1.745
			c4.779,5.143,11.315,10.307,11.374,15.438c11.162-1.012,24.367-4.973,33.34,9.153c5.465,8.599,1.68,29.514,1.662,39.872
			C908.28,1392.887,904.874,1413.123,895.861,1442.608z M875.601,1472.451c11.17-28.229,24.815-77.148,24.862-112.303
			c0.018-9.942,0.344-27.995-2.545-31.736c-5.652-7.303-17.255-5.73-21.075-1.86c-7.737,7.817,2.377,17.987-7.094,27.168
			c-14.528-7.463,2.081-30.555-8.674-41.712c-4.736-4.916-13.731-6.745-20.195,0.85c-8.542,10.038,6.564,28.675-8.866,34.414
			c-8.698-14.641,5.077-31.949-4.277-44.419c-6.545-8.735-14.061-8.665-20.178-2.782c-11.564,11.133,5.001,35.723-10.646,39.857
			c-3.437-16.068-2.553-31.564-2.498-53.479c0.035-14.048,6.727-44.436-3.371-54.387c-4.939-4.871-14.758-4.354-18.428-0.966
			c-7.261,6.696-3.54,31.621-3.621,39.876c-0.278,29.916,0.109,52.856-0.204,79.752c-0.138,12.416,3.447,28.295-5.367,38.051
			c-6.189-16.855-35.14-64.07-47.341-27.316c32.188,37.543,53.761,75.068,62.928,112.549
			C811.209,1472.131,843.388,1475.843,875.601,1472.451z"/>
		<path fill="#FFFFFF" d="M900.463,1360.148c-0.047,35.154-13.692,84.074-24.862,112.303c-32.213,3.392-64.392-0.32-96.591,1.557
			c-9.167-37.48-30.74-75.006-62.928-112.549c12.201-36.754,41.151,10.461,47.341,27.316c8.814-9.756,5.229-25.635,5.367-38.051
			c0.313-26.896-0.074-49.836,0.204-79.752c0.081-8.255-3.64-33.18,3.621-39.876c3.67-3.389,13.488-3.905,18.428,0.966
			c10.098,9.951,3.406,40.339,3.371,54.387c-0.055,21.914-0.938,37.41,2.498,53.479c15.647-4.135-0.918-28.725,10.646-39.857
			c6.117-5.883,13.633-5.953,20.178,2.782c9.354,12.47-4.421,29.778,4.277,44.419c15.431-5.739,0.324-24.376,8.866-34.414
			c6.464-7.595,15.459-5.766,20.195-0.85c10.755,11.157-5.854,34.249,8.674,41.712c9.471-9.181-0.644-19.351,7.094-27.168
			c3.82-3.87,15.423-5.442,21.075,1.86C900.807,1332.153,900.48,1350.206,900.463,1360.148z"/>
	</g>
	<g>
		<path d="M52.76,160.64v-79.68h35.16c3.919,0,7.44,0.66,10.561,1.98c3.119,1.32,5.799,3.162,8.039,5.52
			c2.239,2.361,3.961,5.1,5.16,8.22c1.2,3.12,1.801,6.48,1.801,10.08s-0.601,6.941-1.801,10.02c-1.199,3.081-2.921,5.721-5.16,7.92
			c-2.24,2.201-4.92,3.92-8.039,5.16c-3.12,1.241-6.642,1.86-10.561,1.86H69.44v28.92H52.76z M85.28,118.16
			c4.8,0,8.259-1.099,10.38-3.3c2.118-2.2,3.18-5.059,3.18-8.58c0-3.36-1.062-6.12-3.18-8.28c-2.121-2.16-5.58-3.24-10.38-3.24
			H69.44v23.4H85.28z"/>
		<path d="M154.998,160.64v-8.28c-4.001,6.561-10.121,9.84-18.359,9.84c-2.961,0-5.661-0.521-8.101-1.56
			c-2.44-1.039-4.541-2.52-6.3-4.44c-1.761-1.92-3.141-4.2-4.14-6.84c-1.001-2.64-1.5-5.599-1.5-8.88V101.6h15.6v36.48
			c0,7.361,3.319,11.04,9.96,11.04c4,0,7.021-1.26,9.061-3.78s3.06-5.74,3.06-9.66V101.6h15.48v59.04H154.998z"/>
		<path d="M173.958,160.64v-12l30.12-34.68h-28.08V101.6h48v12.6l-30.12,33.72h30.96v12.72H173.958z"/>
		<path d="M226.757,160.64v-12l30.12-34.68h-28.08V101.6h48v12.6l-30.12,33.72h30.96v12.72H226.757z"/>
		<path d="M281.596,160.64V80h15.6v80.64H281.596z"/>
		<path d="M317.596,135.2c0.239,4.481,1.539,8.04,3.899,10.68c2.359,2.64,5.46,3.96,9.3,3.96c2.56,0,4.819-0.58,6.78-1.74
			c1.96-1.159,3.22-2.779,3.78-4.86h16.08c-1.842,6.081-5.04,10.761-9.601,14.04c-4.56,3.281-10.001,4.92-16.319,4.92
			c-19.681,0-29.521-10.719-29.521-32.16c0-4.56,0.64-8.679,1.92-12.36c1.279-3.679,3.139-6.84,5.58-9.48
			c2.439-2.64,5.419-4.66,8.94-6.06c3.52-1.399,7.56-2.1,12.12-2.1c9.12,0,16.02,2.921,20.699,8.76
			c4.681,5.84,7.021,14.64,7.021,26.4H317.596z M342.195,125.36c-0.081-2.16-0.461-4.06-1.14-5.7c-0.681-1.639-1.581-3-2.7-4.08
			c-1.121-1.08-2.4-1.879-3.84-2.4c-1.44-0.52-2.922-0.78-4.44-0.78c-3.12,0-5.82,1.14-8.1,3.42c-2.28,2.28-3.581,5.46-3.9,9.54
			H342.195z"/>
	</g>
</g>
</svg>
