<?xml version="1.0" encoding="utf-8"?>
<!-- Generator: Adobe Illustrator 15.0.0, SVG Export Plug-In . SVG Version: 6.00 Build 0)  -->
<!DOCTYPE svg PUBLIC "-//W3C//DTD SVG 1.1//EN" "http://www.w3.org/Graphics/SVG/1.1/DTD/svg11.dtd">
<svg version="1.1" id="Layer_1" xmlns="http://www.w3.org/2000/svg" xmlns:xlink="http://www.w3.org/1999/xlink" x="0px" y="0px"
	 width="122.666px" height="122.666px" viewBox="218.441 238.666 122.666 122.666"
	 enable-background="new 218.441 238.666 122.666 122.666" xml:space="preserve">
<g>
	<circle fill="#EDDAAB" stroke="#1C1C1C" stroke-width="4" stroke-miterlimit="10" cx="279.774" cy="299.999" r="59.333"/>
	<rect x="258.594" y="287.513" fill="none" width="45.695" height="26.309"/>
	<path fill="none" stroke="#072172" stroke-width="4" stroke-miterlimit="10" d="M312.441,263.999"/>
	<path fill="none" stroke="#072172" stroke-width="4" stroke-miterlimit="10" d="M244.775,263.999"/>
	<path fill="none" stroke="#072172" stroke-width="4" stroke-miterlimit="10" d="M321.441,280.999"/>
	<path fill="none" stroke="#072172" stroke-width="4" stroke-miterlimit="10" d="M233.107,280.999"/>
	<path fill="none" stroke="#072172" stroke-width="4" stroke-miterlimit="10" d="M322.107,290.334"/>
	<path fill="none" stroke="#072172" stroke-width="4" stroke-miterlimit="10" d="M240.775,290.334"/>
	<path fill="none" stroke="#072172" stroke-width="4" stroke-miterlimit="10" d="M318.107,299.999"/>
	<path fill="none" stroke="#072172" stroke-width="4" stroke-miterlimit="10" d="M238.775,299.999"/>
	<path fill="none" stroke="#072172" stroke-width="4" stroke-miterlimit="10" d="M320.775,311.666"/>
	<path fill="none" stroke="#072172" stroke-width="4" stroke-miterlimit="10" d="M236.441,311.666"/>
	<path fill="none" stroke="#072172" stroke-width="4" stroke-miterlimit="10" d="M325.107,326.999"/>
	<path fill="none" stroke="#072172" stroke-width="4" stroke-miterlimit="10" d="M247.775,326.999"/>
	<path fill="none" stroke="#072172" stroke-width="4" stroke-miterlimit="10" d="M322.107,335.334"/>
	<path fill="none" stroke="#072172" stroke-width="4" stroke-miterlimit="10" d="M238.775,335.334"/>
	<g>
		<path fill="#004A99" d="M311.812,319.11c5.117,6.873,2.672,10.221-5.432,7.438c-8.105-2.782-15.752,1.879-16.992,10.357
			c-1.242,8.479-5.338,9.116-9.102,1.42c-3.766-7.697-12.468-9.81-19.341-4.691s-10.221,2.673-7.439-5.431
			c2.781-8.104-1.88-15.751-10.358-16.993s-9.117-5.337-1.419-9.102s9.808-12.468,4.691-19.341s-2.674-10.221,5.432-7.439
			c8.105,2.781,15.752-1.88,16.993-10.358c1.241-8.479,5.336-9.117,9.102-1.419c3.764,7.698,12.467,9.809,19.34,4.691
			c6.873-5.118,10.221-2.674,7.439,5.432c-2.783,8.106,1.879,15.752,10.357,16.993s9.117,5.337,1.42,9.102
			C308.806,303.534,306.695,312.237,311.812,319.11z"/>
		<path fill="none" stroke="#1C1C1C" stroke-width="3" stroke-miterlimit="10" d="M311.812,319.11
			c5.117,6.873,2.672,10.221-5.432,7.438c-8.105-2.782-15.752,1.879-16.992,10.357c-1.242,8.479-5.338,9.116-9.102,1.42
			c-3.766-7.697-12.468-9.81-19.341-4.691s-10.221,2.673-7.439-5.431c2.781-8.104-1.88-15.751-10.358-16.993
			s-9.117-5.337-1.419-9.102s9.808-12.468,4.691-19.341s-2.674-10.221,5.432-7.439c8.105,2.781,15.752-1.88,16.993-10.358
			c1.241-8.479,5.336-9.117,9.102-1.419c3.764,7.698,12.467,9.809,19.34,4.691c6.873-5.118,10.221-2.674,7.439,5.432
			c-2.783,8.106,1.879,15.752,10.357,16.993s9.117,5.337,1.42,9.102C308.806,303.534,306.695,312.237,311.812,319.11z"/>
	</g>
	<circle fill="#EDDAAB" stroke="#1C1C1C" stroke-width="3" stroke-miterlimit="10" cx="278.775" cy="301.331" r="18.666"/>
</g>
</svg>
