<?xml version="1.0" encoding="utf-8"?>
<!-- Generator: Adobe Illustrator 16.0.0, SVG Export Plug-In . SVG Version: 6.00 Build 0)  -->
<!DOCTYPE svg PUBLIC "-//W3C//DTD SVG 1.1//EN" "http://www.w3.org/Graphics/SVG/1.1/DTD/svg11.dtd">
<svg version="1.1" id="Calque_1" xmlns="http://www.w3.org/2000/svg" xmlns:xlink="http://www.w3.org/1999/xlink" x="0px" y="0px"
	 width="250px" height="250px" viewBox="0 0 250 250" enable-background="new 0 0 250 250" xml:space="preserve">
<g>
	<g>
		<linearGradient id="SVGID_1_" gradientUnits="userSpaceOnUse" x1="187.5854" y1="227.1807" x2="102.1504" y2="79.2028">
			<stop  offset="0" style="stop-color:#F28C00"/>
			<stop  offset="0.3662" style="stop-color:#F18E02"/>
			<stop  offset="0.5699" style="stop-color:#F0960A"/>
			<stop  offset="0.7338" style="stop-color:#EDA418"/>
			<stop  offset="0.8756" style="stop-color:#E8B72C"/>
			<stop  offset="1" style="stop-color:#E3CF44"/>
		</linearGradient>
		<path fill="url(#SVGID_1_)" d="M199.558,205.95c0,0-5.634-7.649-12.973-30.114c-7.338-22.464-20.142-51.176-23.844-53.992
			c-3.702-2.817-19.014-25.817-19.492-29.229c-0.478-3.411-3.074-19.299-25.886-18.925c0,0-4.106,0.786-9.422,2.892
			c-4.854,1.924-10.717,4.947-15.388,9.48c-9.788,9.497-14.007,20.893-5.875,28.278c8.134,7.384,10.777,7.727,14.227,12.204
			c3.449,4.478,11.117,20.139,26.525,29.185c15.41,9.046,14.195,24.384,23.343,34.733c8.262,9.348,56.956,41.891,52.254,23.319
			C202.524,211.79,201.405,209.209,199.558,205.95z"/>
		<g>
			<g>
				<path fill="#191919" d="M186.373,183.406c0,0-0.625-1.735-1.769-4.91c-0.555-1.569-1.235-3.494-2.028-5.738
					c-0.8-2.228-1.737-4.766-2.817-7.572c-2.162-5.61-4.874-12.307-8.166-19.703c-1.645-3.695-3.438-7.569-5.414-11.518
					c-0.989-1.969-2.03-3.962-3.142-5.884c-0.553-0.953-1.135-1.913-1.709-2.711c-0.264-0.376-0.615-0.792-0.661-0.814l0.001,0.001
					c-0.026,0.03,0.034-0.037,0.118-0.137c0.141-0.167,0.277-0.339,0.407-0.517l0.191-0.27c0.306-0.311-1.787,1.512-0.93,0.732
					l-0.083-0.075l-0.334-0.302l-0.335-0.302c-0.115-0.107-0.265-0.273-0.396-0.408c-1.173-1.221-1.877-2.126-2.704-3.145
					c-0.793-0.997-1.564-2.007-2.317-3.025c-1.512-2.038-2.991-4.117-4.446-6.246c-2.912-4.285-5.779-8.587-8.461-13.494l-0.5-0.949
					c-0.167-0.336-0.335-0.723-0.5-1.083l-0.246-0.554c-0.104-0.302-0.199-0.609-0.285-0.919l-0.121-0.466
					c-0.039-0.16-0.077-0.329-0.079-0.366l-0.068-0.431c-0.181-1.125-0.475-2.199-0.816-3.265c-0.744-2.102-1.837-4.038-3.273-5.661
					c-1.43-1.627-3.186-2.977-5.246-3.907l-0.75-0.381l-0.813-0.286l-1.624-0.58l-1.721-0.399l-0.859-0.206
					c-0.288-0.065-0.596-0.08-0.893-0.123c-1.203-0.126-2.375-0.367-3.624-0.342l-1.846-0.054l-0.33-0.011l-0.069-0.004
					l-0.005,0.002l-0.267,0.057l-0.452,0.114c-2.415,0.567-4.836,1.388-7.187,2.254c-4.687,1.787-9.104,4.131-12.762,7.091
					c-1.78,1.462-3.513,3.177-5.055,4.955c-1.519,1.789-2.867,3.657-3.934,5.579c-2.177,3.837-2.977,7.936-1.668,11.052
					c0.197,0.38,0.39,0.76,0.57,1.148l0.747,1.077c0.272,0.35,0.614,0.661,0.909,1.001l0.229,0.253l0.311,0.28l0.62,0.561
					c1.645,1.509,3.295,2.927,5,4.267c1.681,1.364,3.475,2.579,5.335,4.242c0.901,0.83,1.797,1.731,2.539,2.686
					c0.804,0.915,1.462,1.973,2.051,2.868c2.303,3.666,4.389,7.034,6.706,10.176c2.291,3.135,4.717,6.008,7.296,8.557
					c2.576,2.551,5.301,4.771,8.122,6.65c0.721,0.464,1.438,0.925,2.148,1.382c0.792,0.523,1.578,1.044,2.357,1.56
					c1.493,1.132,2.953,2.286,4.209,3.619c2.572,2.602,4.571,5.555,6.14,8.494c1.579,2.944,2.76,5.875,3.889,8.609
					c1.128,2.74,2.223,5.303,3.474,7.604c1.211,2.321,2.714,4.308,4.285,5.99c1.689,1.69,3.618,3.271,5.473,4.747
					c1.872,1.477,3.73,2.858,5.548,4.162c7.29,5.2,13.871,9.24,19.659,12.363c2.897,1.554,5.643,2.968,8.216,4.139
					c2.552,1.148,5.022,2.133,7.02,2.428c0.505,0.074,0.744,0.105,1.047,0.09c0.299-0.016,0.611-0.09,0.868-0.261
					c0.526-0.352,0.718-0.984,0.795-1.606c0.063-0.792-0.053-1.706-0.181-2.514c-0.086-0.826-0.323-1.585-0.441-2.299
					c-0.677-2.822-1.144-4.61-0.958-5.169c0.15-0.547,0.881,0.154,2.063,2.458c0.556,1.13,0.891,1.813,1.269,2.58
					c0.171,0.357,0.366,0.691,0.554,1.116c0.181,0.444,0.385,0.946,0.629,1.549c0.1,0.334,0.22,0.69,0.32,1.121
					c0.045,0.223,0.091,0.455,0.14,0.697c0.043,0.272,0.067,0.635,0.086,0.978c0.018,0.7-0.042,1.488-0.335,2.291
					c-0.277,0.801-0.8,1.632-1.645,2.245c-0.827,0.62-1.961,1.026-3.226,1.146c-0.287,0.021-0.604,0.043-0.889,0.048
					c-0.256-0.005-0.517-0.011-0.783-0.016c-0.513-0.034-1.042-0.083-1.567-0.165c-2.105-0.324-4.332-0.981-6.801-1.921
					c-4.938-1.883-10.868-4.875-18.188-9.315c-3.655-2.229-7.651-4.823-11.992-7.926c-2.168-1.559-4.423-3.235-6.751-5.134
					c-1.165-0.956-2.345-1.954-3.551-3.102c-0.582-0.558-1.261-1.225-1.808-1.91c-0.547-0.684-1.138-1.36-1.659-2.082
					c-2.114-2.894-3.72-6.171-5.146-9.47c-1.434-3.304-2.727-6.659-4.372-9.821c-1.638-3.162-3.651-6.112-6.353-8.588
					c-0.659-0.635-1.43-1.165-2.144-1.77c-0.756-0.559-1.59-1.044-2.388-1.585c-0.969-0.61-1.948-1.228-2.937-1.851
					c-0.989-0.656-1.941-1.38-2.927-2.081c-3.858-2.911-7.424-6.435-10.732-10.355c-3.322-3.899-6.303-8.333-9.145-12.795
					c-0.35-0.538-0.702-1.078-1.055-1.62l-0.519-0.773l-0.49-0.68c-0.358-0.43-0.719-0.861-1.081-1.295
					c-0.403-0.387-0.771-0.783-1.204-1.169c-1.718-1.493-4.172-3.154-6.468-5.002c-1.146-0.937-2.313-1.872-3.423-2.874
					c-0.565-0.499-1.132-0.999-1.702-1.502c-0.63-0.661-1.299-1.278-1.879-2.012c-2.371-2.897-3.78-6.984-3.537-10.815
					c0.197-3.839,1.461-7.208,3.021-10.132c1.579-2.933,3.501-5.475,5.547-7.774c0.506-0.583,1.023-1.146,1.563-1.677
					c0.543-0.537,1.033-1.088,1.63-1.602c0.579-0.514,1.14-1.051,1.731-1.534c0.599-0.472,1.194-0.941,1.788-1.408
					c2.424-1.782,4.941-3.273,7.48-4.552c2.539-1.281,5.105-2.339,7.679-3.214c1.27-0.487,2.573-0.845,3.854-1.229
					c0.634-0.201,1.296-0.354,1.947-0.517l0.987-0.241l0.738-0.157c0.312-0.093,0.563-0.057,0.83-0.054
					c1.375,0.042,2.739,0.083,4.089,0.124c1.331,0.168,2.65,0.335,3.957,0.501c1.306,0.303,2.605,0.582,3.877,0.948
					c0.631,0.229,1.26,0.456,1.885,0.682l0.933,0.344c0.307,0.127,0.603,0.293,0.903,0.438c0.597,0.304,1.19,0.606,1.781,0.907
					c0.581,0.321,1.122,0.726,1.678,1.088c1.136,0.691,2.086,1.644,3.08,2.495c1.856,1.871,3.366,3.991,4.487,6.223
					c1.125,2.232,1.853,4.563,2.281,6.874c0.054,0.289,0.109,0.578,0.147,0.858l0.063,0.424l0.016,0.105
					c-3.94,0.588-0.607,0.125-1.27,0.229c0.279-0.031,0.558-0.069,0.834-0.114c0.32-0.054,0.571-0.104,0.472-0.08
					c0.012,0.008,0.018,0.018,0.019,0.029c0.003,0.015-0.022,0,0.04,0.123l0.245,0.544c0.136,0.343,0.379,0.778,0.582,1.178
					c0.204,0.402,0.418,0.81,0.658,1.224c1.843,3.295,3.854,6.473,5.805,9.464c1.961,2.993,3.902,5.829,5.813,8.465
					c0.955,1.313,1.907,2.592,2.847,3.748l0.692,0.852l0.542,0.625c0.123,0.188,0.5,0.495,0.756,0.744l0.211,0.196
					c-0.351-0.287-0.034-0.026-0.084-0.066l0.109,0.095l0.215,0.191c0.32,0.284,0.48,0.481,0.662,0.689
					c0.711,0.834,1.156,1.524,1.607,2.226c0.441,0.694,0.835,1.368,1.215,2.034c0.758,1.33,1.424,2.623,2.071,3.889
					c2.544,5.059,4.57,9.669,6.365,13.856c3.557,8.377,6.062,15.052,7.954,20.321c1.885,5.271,3.123,9.146,3.985,11.966
					c0.873,2.771,1.401,4.467,1.71,5.53c0.621,2.119,0.381,1.627,0.381,1.627s0.129,0.428,0.356,1.178
					c0.241,0.734,0.586,1.783,1.001,3.046c0.779,2.53,1.928,5.813,3.023,9.016c1.025,2.836,2.07,5.728,3.023,8.366
					c0.349,1.074,0.622,1.89,0.657,2.423c0.055,0.522-0.105,0.767-0.619,0.533c0,0-0.105,0.011-0.456-0.302
					c-0.365-0.313-0.987-0.969-1.968-2.336c-0.973-1.372-2.292-3.468-3.956-6.696c-0.844-1.61-1.693-3.527-2.722-5.748
					C188.555,188.928,187.47,186.366,186.373,183.406z"/>
			</g>
		</g>
	</g>
	<g>
		<g>
			<path fill="#0D0D0D" d="M143.76,95.123c0,0-0.065,0.021-0.188,0.058c-0.122,0.028-0.303,0.134-0.494,0.197
				c-0.186,0.065-0.417,0.193-0.677,0.298c-0.259,0.125-0.521,0.213-0.821,0.375c-0.295,0.146-0.602,0.285-0.917,0.407
				c-0.318,0.135-0.653,0.326-0.995,0.456c-0.341,0.151-0.692,0.24-1.051,0.428c-0.36,0.159-0.728,0.301-1.103,0.422l-0.567,0.17
				c-0.186,0.079-0.375,0.148-0.563,0.217c-0.378,0.134-0.762,0.243-1.145,0.336c-0.377,0.106-0.775,0.136-1.131,0.245
				c-0.362,0.093-0.717,0.165-1.055,0.221c-0.682,0.103-1.298,0.14-1.755,0.139c-0.221,0.012-0.421-0.017-0.548-0.02
				c-0.129-0.007-0.199-0.011-0.199-0.011s0.025-0.062,0.073-0.177c0.051-0.109,0.111-0.296,0.221-0.485
				c0.205-0.403,0.536-0.939,0.989-1.526c0.229-0.289,0.49-0.591,0.778-0.893c0.282-0.311,0.65-0.547,1.014-0.812
				c0.371-0.257,0.766-0.507,1.178-0.741c0.207-0.114,0.417-0.229,0.631-0.336c0.222-0.096,0.459-0.167,0.691-0.248
				c0.468-0.15,0.942-0.282,1.412-0.391c0.459-0.128,0.966-0.138,1.438-0.15c0.477-0.006,0.924-0.013,1.363,0.054
				c0.445,0.083,0.855,0.186,1.224,0.296c0.364,0.089,0.708,0.305,0.987,0.448c0.28,0.138,0.516,0.312,0.707,0.477
				c0.187,0.147,0.31,0.295,0.384,0.393C143.72,95.069,143.76,95.123,143.76,95.123z"/>
		</g>
		<g>
			<path fill="#0D0D0D" d="M149.736,106.146c0,0-0.094,0.01-0.269,0.027c-0.174,0.003-0.431,0.073-0.741,0.107
				c-0.308,0.03-0.678,0.111-1.107,0.205c-0.426,0.105-0.897,0.157-1.409,0.304c-0.511,0.146-1.057,0.305-1.633,0.442
				c-0.578,0.115-1.167,0.396-1.786,0.573c-0.611,0.226-1.264,0.347-1.892,0.63c-0.63,0.266-1.278,0.512-1.925,0.759
				c-0.654,0.228-1.307,0.459-1.922,0.773c-0.622,0.293-1.245,0.56-1.853,0.813c-0.603,0.265-1.216,0.466-1.768,0.722
				c-0.542,0.273-1.07,0.513-1.561,0.732c-0.975,0.448-1.83,0.773-2.44,0.994c-0.609,0.221-0.979,0.324-0.979,0.324
				s0.235-0.287,0.685-0.75c0.449-0.463,1.106-1.112,1.945-1.836c0.417-0.366,0.873-0.762,1.37-1.159
				c0.506-0.383,1.092-0.71,1.684-1.072c0.597-0.354,1.22-0.715,1.864-1.061c0.625-0.382,1.327-0.641,2.028-0.901
				c0.703-0.254,1.405-0.51,2.104-0.737c0.341-0.133,0.702-0.207,1.062-0.27c0.357-0.066,0.71-0.132,1.057-0.195
				c0.7-0.103,1.353-0.27,2.011-0.264c0.652-0.02,1.266-0.01,1.826,0.001c0.559-0.009,1.085,0.126,1.534,0.188
				c0.449,0.055,0.842,0.161,1.161,0.272C149.418,105.957,149.736,106.146,149.736,106.146z"/>
		</g>
		<g>
			<path fill="#0D0D0D" d="M157.478,116.861c0,0-0.297,0.098-0.817,0.268c-0.508,0.181-1.211,0.418-2.021,0.733
				c-0.808,0.32-1.729,0.663-2.681,1.095c-0.482,0.191-0.96,0.441-1.458,0.655c-0.488,0.235-0.984,0.476-1.481,0.715
				c-0.491,0.256-0.981,0.512-1.465,0.763c-0.468,0.282-0.954,0.524-1.419,0.774c-0.45,0.274-0.901,0.523-1.339,0.756
				c-0.433,0.249-0.841,0.483-1.219,0.7c-0.386,0.214-0.765,0.392-1.074,0.583c-0.311,0.188-0.607,0.334-0.848,0.459
				c-0.485,0.248-0.794,0.37-0.794,0.37s0.105-0.303,0.346-0.799c0.245-0.491,0.588-1.217,1.161-1.957
				c0.285-0.372,0.586-0.789,0.953-1.184c0.375-0.386,0.78-0.787,1.216-1.187c0.452-0.378,0.943-0.746,1.451-1.105
				c0.517-0.348,1.08-0.646,1.631-0.96c0.585-0.252,1.155-0.538,1.752-0.731c0.597-0.196,1.184-0.386,1.776-0.488
				c1.167-0.259,2.298-0.296,3.248-0.242c0.479,0.035,0.913,0.098,1.295,0.18c0.38,0.058,0.71,0.177,0.975,0.253
				C157.198,116.692,157.478,116.861,157.478,116.861z"/>
		</g>
		<g>
			<path fill="#0D0D0D" d="M169.073,131.792c0,0-1.663,0.629-4.157,1.572c-1.223,0.472-2.629,1.025-4.114,1.627
				c-0.735,0.312-1.494,0.634-2.266,0.961c-0.746,0.374-1.546,0.663-2.289,1.065c-0.758,0.37-1.524,0.727-2.244,1.135
				c-0.363,0.199-0.728,0.391-1.093,0.573c-0.35,0.207-0.695,0.411-1.035,0.612c-0.344,0.196-0.677,0.398-1.016,0.581
				c-0.319,0.209-0.632,0.413-0.936,0.612c-0.613,0.397-1.227,0.744-1.733,1.139c-0.514,0.385-1.018,0.716-1.465,1.017
				c-0.403,0.341-0.783,0.62-1.093,0.857c-0.624,0.472-1.018,0.729-1.018,0.729s0.173-0.418,0.541-1.126
				c0.186-0.354,0.408-0.791,0.695-1.273c0.315-0.455,0.682-0.968,1.112-1.508c0.404-0.568,0.921-1.103,1.484-1.661
				c0.284-0.277,0.576-0.563,0.875-0.854c0.323-0.26,0.654-0.525,0.99-0.796c0.668-0.555,1.402-1.063,2.182-1.526
				c0.755-0.509,1.584-0.905,2.403-1.322c0.819-0.42,1.684-0.727,2.52-1.062c0.851-0.295,1.695-0.563,2.523-0.774
				c0.832-0.199,1.634-0.389,2.409-0.499c0.769-0.136,1.508-0.199,2.187-0.25c1.357-0.11,2.498-0.068,3.292,0.002
				C168.623,131.687,169.073,131.792,169.073,131.792z"/>
		</g>
		<g>
			<path fill="#0D0D0D" d="M175.23,145.99c0,0-0.302,0.232-0.813,0.574c-0.511,0.349-1.233,0.806-2.088,1.289
				c-0.857,0.476-1.841,1.004-2.896,1.492c-0.523,0.257-1.066,0.504-1.619,0.74c-0.54,0.266-1.119,0.459-1.665,0.72
				c-0.561,0.226-1.122,0.451-1.674,0.673c-0.274,0.114-0.552,0.218-0.833,0.311c-0.271,0.106-0.534,0.224-0.807,0.315
				c-0.542,0.191-1.07,0.373-1.567,0.563c-0.506,0.176-1.009,0.319-1.454,0.486c-0.456,0.152-0.891,0.283-1.292,0.39
				c-0.379,0.133-0.738,0.226-1.032,0.31c-0.592,0.165-0.979,0.229-0.979,0.229s0.104-0.358,0.37-0.932
				c0.135-0.285,0.298-0.641,0.517-1.022c0.234-0.361,0.515-0.758,0.84-1.181c0.32-0.433,0.716-0.836,1.148-1.258
				c0.429-0.428,0.911-0.84,1.442-1.217c0.521-0.397,1.083-0.77,1.685-1.087c0.585-0.355,1.22-0.624,1.85-0.902
				c2.547-1.067,5.313-1.428,7.394-1.267c1.042,0.067,1.915,0.252,2.523,0.434C174.888,145.818,175.23,145.99,175.23,145.99z"/>
		</g>
		<g>
			<path fill="#0D0D0D" d="M179.663,158.474c0,0-0.026,0.046-0.077,0.132c-0.051,0.079-0.12,0.226-0.22,0.354
				c-0.195,0.282-0.485,0.638-0.822,1.003c-0.343,0.354-0.75,0.691-1.202,0.962c-0.452,0.275-0.937,0.539-1.454,0.693
				c-0.51,0.169-1.066,0.229-1.583,0.261c-0.502,0.05-1.012,0.019-1.489-0.063c-0.479-0.089-0.919-0.215-1.25-0.334
				c-0.159-0.047-0.306-0.124-0.397-0.158c-0.095-0.04-0.145-0.062-0.145-0.062s0.015-0.049,0.043-0.141
				c0.031-0.086,0.064-0.239,0.135-0.383c0.128-0.312,0.343-0.714,0.65-1.133c0.31-0.413,0.717-0.831,1.197-1.195
				c0.24-0.188,0.495-0.309,0.763-0.44c0.269-0.124,0.548-0.23,0.833-0.32c0.286-0.088,0.577-0.156,0.868-0.207
				c0.293-0.042,0.581-0.084,0.875-0.069c0.582,0.011,1.14,0.104,1.624,0.25c0.488,0.147,0.891,0.351,1.184,0.532
				c0.143,0.075,0.266,0.18,0.345,0.231C179.62,158.443,179.663,158.474,179.663,158.474z"/>
		</g>
		<g>
			<path fill="#0D0D0D" d="M201.481,205.953c0,0-0.026,0.046-0.077,0.132c-0.051,0.079-0.12,0.226-0.22,0.354
				c-0.195,0.282-0.485,0.638-0.823,1.003c-0.343,0.354-0.75,0.691-1.202,0.962c-0.452,0.274-0.937,0.539-1.454,0.692
				c-0.51,0.17-1.066,0.23-1.583,0.262c-0.502,0.05-1.012,0.019-1.489-0.063c-0.479-0.089-0.919-0.215-1.25-0.334
				c-0.158-0.047-0.306-0.124-0.397-0.158c-0.095-0.04-0.145-0.062-0.145-0.062s0.015-0.049,0.043-0.141
				c0.031-0.086,0.064-0.239,0.135-0.383c0.128-0.312,0.343-0.714,0.65-1.133c0.31-0.413,0.716-0.831,1.197-1.195
				c0.24-0.188,0.495-0.309,0.763-0.44c0.268-0.124,0.548-0.23,0.833-0.32c0.286-0.088,0.577-0.157,0.868-0.207
				c0.293-0.043,0.581-0.085,0.875-0.069c0.582,0.01,1.14,0.104,1.624,0.25c0.488,0.147,0.891,0.351,1.184,0.532
				c0.143,0.075,0.266,0.18,0.345,0.231C201.438,205.923,201.481,205.953,201.481,205.953z"/>
		</g>
		<g>
			<path fill="#0D0D0D" d="M186.023,168.414c0,0-0.337,0.147-0.926,0.406c-0.588,0.243-1.419,0.6-2.415,0.978
				c-1.982,0.798-4.601,1.764-7.126,2.84c-0.647,0.24-1.246,0.563-1.87,0.821c-0.604,0.292-1.197,0.579-1.772,0.857
				c-0.561,0.305-1.102,0.599-1.615,0.877c-0.483,0.316-0.958,0.604-1.407,0.871c-0.409,0.303-0.787,0.588-1.141,0.834
				c-0.365,0.238-0.613,0.508-0.856,0.709c-0.47,0.414-0.776,0.65-0.776,0.65s0.105-0.346,0.356-0.952
				c0.135-0.294,0.255-0.701,0.526-1.062c0.248-0.38,0.523-0.83,0.877-1.275c0.374-0.419,0.785-0.878,1.248-1.342
				c0.492-0.411,1.014-0.859,1.583-1.276c0.587-0.376,1.186-0.803,1.835-1.14c0.648-0.336,1.308-0.693,1.994-0.965
				c0.685-0.282,1.371-0.558,2.065-0.764c0.686-0.235,1.376-0.409,2.045-0.566c0.665-0.171,1.325-0.265,1.942-0.375
				c0.622-0.092,1.215-0.148,1.762-0.192c1.094-0.087,2.013-0.076,2.657-0.035C185.656,168.348,186.023,168.414,186.023,168.414z"/>
		</g>
		<g>
			<path fill="#0D0D0D" d="M178.426,188.574c0,0-0.011-0.064-0.03-0.186c-0.014-0.118-0.062-0.305-0.07-0.516
				c-0.015-0.214-0.045-0.479-0.034-0.762c-0.014-0.283,0.021-0.616,0.109-0.979c0.083-0.358,0.184-0.767,0.341-1.161
				c0.167-0.379,0.362-0.777,0.592-1.175c0.247-0.387,0.553-0.758,0.866-1.132c0.344-0.347,0.722-0.681,1.121-0.983
				c0.428-0.266,0.84-0.56,1.307-0.741c0.456-0.201,0.919-0.358,1.385-0.449c0.921-0.209,1.816-0.188,2.553-0.037
				c0.368,0.067,0.701,0.186,0.987,0.302c0.285,0.101,0.526,0.249,0.717,0.363c0.192,0.109,0.333,0.243,0.427,0.321
				c0.091,0.083,0.14,0.127,0.14,0.127s-0.056,0.034-0.16,0.098c-0.101,0.058-0.248,0.181-0.422,0.281
				c-0.351,0.239-0.818,0.532-1.319,0.891c-0.253,0.155-0.51,0.36-0.777,0.526c-0.259,0.199-0.536,0.359-0.799,0.563
				c-0.13,0.104-0.272,0.18-0.407,0.275c-0.129,0.106-0.263,0.205-0.4,0.296c-0.282,0.168-0.53,0.402-0.817,0.57
				c-0.266,0.204-0.54,0.399-0.822,0.586c-0.264,0.213-0.548,0.4-0.833,0.589c-0.264,0.213-0.546,0.404-0.831,0.585
				c-0.271,0.184-0.517,0.363-0.783,0.526c-0.26,0.159-0.539,0.309-0.769,0.489c-0.224,0.171-0.458,0.3-0.642,0.411
				c-0.176,0.115-0.356,0.184-0.461,0.239C178.484,188.546,178.426,188.574,178.426,188.574z"/>
		</g>
		<g>
			<path fill="#0D0D0D" d="M193.052,193.108c0,0-0.116,0.174-0.298,0.435c-0.181,0.251-0.43,0.607-0.735,0.971
				c-0.151,0.177-0.315,0.369-0.488,0.572c-0.176,0.182-0.361,0.374-0.553,0.573c-0.188,0.199-0.387,0.391-0.602,0.567
				c-0.217,0.171-0.417,0.373-0.63,0.556c-0.222,0.173-0.44,0.35-0.678,0.5c-0.221,0.17-0.437,0.34-0.666,0.489
				c-0.226,0.152-0.461,0.288-0.694,0.412c-0.245,0.113-0.439,0.26-0.654,0.369c-0.423,0.225-0.825,0.394-1.133,0.502
				c-0.305,0.111-0.513,0.159-0.513,0.159s-0.019-0.198,0.007-0.519c0.023-0.323,0.094-0.771,0.238-1.286
				c0.081-0.25,0.154-0.539,0.302-0.79c0.14-0.258,0.297-0.526,0.478-0.792c0.183-0.262,0.368-0.543,0.599-0.784
				c0.233-0.24,0.493-0.461,0.75-0.685c0.271-0.205,0.523-0.436,0.829-0.585c0.292-0.167,0.591-0.313,0.885-0.441
				c0.286-0.14,0.602-0.211,0.889-0.286c0.294-0.066,0.564-0.129,0.835-0.146c0.268-0.021,0.52-0.015,0.739-0.007
				c0.211-0.005,0.429,0.044,0.586,0.069C192.868,193.02,193.052,193.108,193.052,193.108z"/>
		</g>
		<g>
			<path fill="#0D0D0D" d="M140.162,83.217c0,0-1.62,0.543-3.882,1.121c-1.108,0.285-2.402,0.618-3.787,0.975
				c-0.338,0.096-0.684,0.172-1.032,0.255c-0.342,0.104-0.688,0.204-1.038,0.289c-0.707,0.168-1.389,0.403-2.088,0.597
				c-0.696,0.192-1.356,0.461-2.04,0.65c-0.631,0.283-1.308,0.473-1.914,0.741c-0.581,0.297-1.23,0.489-1.753,0.796
				c-0.524,0.302-1.098,0.527-1.558,0.823c-0.458,0.297-0.902,0.568-1.317,0.808c-0.398,0.253-0.708,0.521-1,0.723
				c-0.569,0.417-0.952,0.655-0.952,0.655s0.061-0.409,0.271-1.124c0.117-0.348,0.214-0.819,0.447-1.283
				c0.243-0.455,0.54-0.968,0.891-1.526c0.357-0.552,0.857-1.038,1.365-1.601c0.513-0.562,1.164-0.989,1.813-1.494
				c0.32-0.269,0.692-0.431,1.05-0.646c0.361-0.207,0.733-0.408,1.113-0.6c0.771-0.328,1.57-0.652,2.378-0.902
				c0.818-0.205,1.632-0.46,2.451-0.557c0.813-0.145,1.618-0.226,2.396-0.246c1.556-0.079,3.003,0.063,4.223,0.269
				c1.222,0.227,2.218,0.525,2.902,0.8C139.79,82.998,140.162,83.217,140.162,83.217z"/>
		</g>
	</g>
	<g>
		<path fill="#009B3E" d="M106.663,75.873c0,0-0.912-2.903-4.371-8.943c0,0,44.08-23.25-5.164-20.854c0,0,1.554-33.026-14.468-2.616
			c0,0-27.397-20.256-7.628,8.108c0,0-59.845-9.377-5.726,15.913c0,0-5.861,39.965,8.922,5.278l14.476,12.896L106.663,75.873z"/>
		<g>
			<g>
				<path fill="#0D0D0D" d="M104.156,73.503c0,0-0.319-0.539-0.902-1.522c-0.073-0.124-0.15-0.254-0.23-0.391
					c-0.117-0.187-0.239-0.382-0.367-0.587c-0.261-0.42-0.545-0.876-0.851-1.368c-0.597-0.993-1.392-2.187-2.127-3.52
					c0.799-0.488,1.646-1.006,2.538-1.551c0.458-0.289,0.926-0.584,1.406-0.887c0.45-0.297,0.91-0.602,1.38-0.912
					c1.293-0.914,2.676-1.931,4.096-3.049c1.418-1.118,2.881-2.343,4.261-3.675c0.688-0.665,1.353-1.359,1.945-2.068
					c0.294-0.354,0.57-0.711,0.809-1.062c0.238-0.345,0.456-0.727,0.448-0.778c0.071-0.244,0.088-0.489-0.03-0.685
					c-0.118-0.196-0.342-0.288-0.522-0.32c-0.019,0.018-0.34-0.092-0.763-0.203c-0.411-0.113-0.879-0.206-1.355-0.291
					c-0.955-0.174-2.02-0.27-3.087-0.353c-2.16-0.144-4.427-0.156-6.703-0.106l-1.711,0.049c-0.935,0.038-1.867,0.075-2.797,0.112
					c-2.368,0.11-4.721,0.22-7.054,0.329c0.075-2.583,0.255-5.24,0.206-7.697l-0.039-1.477l-0.039-0.846
					c-0.034-0.557-0.068-1.108-0.116-1.643c-0.05-0.531-0.096-1.063-0.169-1.555c-0.043-0.32-0.086-0.637-0.129-0.952
					c0.021-0.028,0.045-0.081,0.05-0.164c0.016-0.2-0.159-0.346-0.398-0.304c-0.073,0.025-0.104-0.011-0.239,0.083
					c-0.255,0.249-0.509,0.496-0.76,0.74c-0.525,0.56-1.105,1.187-1.624,1.77c-0.371,0.438-0.746,0.879-1.123,1.324
					c-0.19,0.228-0.369,0.477-0.556,0.719c-0.07,0.081-0.236,0.338-0.38,0.555l-0.436,0.659c-1.175,1.725-2.236,3.562-3.336,5.204
					c-1.615-1.309-3.207-2.618-4.768-3.772c-0.978-0.718-1.967-1.443-2.967-2.176c-0.644-0.462-1.373-0.94-2.192-1.37
					c-0.41-0.211-0.842-0.416-1.304-0.566c-0.452-0.138-0.972-0.278-1.429-0.1c-0.466,0.204-0.529,0.74-0.491,1.161
					c0.036,0.444,0.16,0.884,0.31,1.323c0.302,0.879,0.733,1.752,1.2,2.634l0.363,0.661l0.439,0.757
					c0.317,0.544,0.709,1.171,1.076,1.758c0.748,1.188,1.527,2.353,2.309,3.503l1.533,2.255l-2.678-0.423
					c-4.297-0.679-8.546-1.159-12.484-1.432c-1.971-0.135-3.87-0.214-5.664-0.219c-0.882-0.006-1.802,0.017-2.571,0.052
					c-0.388,0.018-0.699,0.041-0.987,0.065c-0.298,0.029-0.589,0.054-0.873,0.095c-1.122,0.159-2.188,0.362-2.934,0.951
					c-0.364,0.3-0.523,0.797-0.37,1.21c0.124,0.413,0.37,0.746,0.61,1.026c1.001,1.109,1.875,1.637,2.219,1.944
					c0.125,0.092,0.312,0.228,0.554,0.405c0.346,0.226,0.771,0.504,1.27,0.83c1.028,0.642,2.386,1.433,4.013,2.313
					c1.633,0.873,3.533,1.833,5.629,2.841c1.054,0.492,2.152,1.005,3.284,1.533c1.51,0.693,3.066,1.407,4.656,2.136
					c-0.136,1.121-0.273,2.257-0.412,3.404c-0.05,0.5-0.101,1.002-0.151,1.507l-0.106,1.238c-0.083,0.981-0.087,1.253-0.113,1.781
					l-0.04,1.398c-0.01,0.912,0.005,1.779,0.09,2.589c0.045,0.404,0.104,0.796,0.216,1.163c0.056,0.183,0.127,0.36,0.238,0.517
					c0.101,0.153,0.301,0.284,0.519,0.215c0.422-0.158,0.693-0.566,0.941-0.909c0.244-0.359,0.454-0.724,0.642-1.08
					c0.378-0.713,0.68-1.389,0.945-2.003c0.701-1.739,1.327-3.293,1.84-4.567l1.339-3.323l2.828,2.391
					c2.805,2.372,4.521,3.823,4.521,3.823s1.189,1.093,3.028,2.784c0.907,0.852,1.975,1.853,3.138,2.944
					c0.288,0.273,0.582,0.553,0.881,0.837l0.224,0.214l0.105,0.109l0.188,0.198c0.268,0.284,0.542,0.577,0.82,0.873
					c0.478-0.261,0.963-0.525,1.447-0.79c1.001-0.604,1.997-1.206,2.972-1.795c1.938-1.144,3.757-2.157,5.275-2.903
					c3.037-1.491,4.868-1.909,4.03-0.147c-0.346,0.727-1.708,2.108-3.846,3.982c-1.069,0.937-2.333,1.997-3.76,3.161
					c-0.359,0.291-0.727,0.588-1.102,0.892c-0.189,0.152-0.38,0.306-0.573,0.46l-0.292,0.233l-0.452,0.346
					c-1.312,0.989-2.673,2.017-4.08,3.078c-1.611-1.346-3.289-2.746-5.025-4.195c-1.184-0.973-2.407-1.978-3.663-3.01
					c-2.508-2.098-5.146-4.306-7.862-6.578c1.798-0.402,3.609-0.808,5.421-1.213l-0.429,1.069l-0.478,1.161l-0.556,1.313
					l-0.845,1.886c-1.151,2.488-2.415,5.014-3.746,6.965l-0.5,0.722l-0.498,0.599c-0.336,0.435-0.658,0.715-0.986,1.043
					c-0.646,0.571-1.269,1-1.878,1.284c-0.62,0.28-1.207,0.473-2,0.492c-0.39,0.017-0.949-0.084-1.366-0.267
					c-0.417-0.171-0.711-0.378-0.979-0.584c-1.011-0.841-1.75-1.878-2.282-3.741c-0.511-1.856-0.622-4.523-0.533-7.297
					c0.045-1.392,0.132-2.813,0.245-4.234c0.092-1.028,0.184-2.05,0.275-3.064l0.118-1.139l0.017-0.172l0.001-0.027l0.002-0.054
					l0.009-0.201l-0.251-0.098c-0.796-0.381-1.582-0.757-2.353-1.126c-1.697-0.831-3.331-1.644-4.884-2.468
					c-1.555-0.814-3.031-1.634-4.418-2.443c-0.693-0.409-1.365-0.809-2.013-1.222c-0.323-0.199-0.642-0.402-0.954-0.613
					l-0.463-0.307c-0.168-0.114-0.254-0.161-0.554-0.383c-2.056-1.404-3.85-2.983-4.912-4.419c-1.083-1.455-1.47-2.742-1.553-3.893
					c-0.016-0.584,0.031-1.143,0.166-1.66c0.146-0.505,0.332-0.94,0.528-1.271c0.385-0.676,0.771-1.035,0.98-1.251
					c0.457-0.417,1.52-1.423,4.138-2.081c0.66-0.146,1.379-0.312,2.203-0.394c0.408-0.049,0.824-0.108,1.27-0.13
					c0.221-0.016,0.444-0.032,0.672-0.047c0.233-0.018,0.464-0.034,0.628-0.036c0.358-0.012,0.725-0.023,1.102-0.036
					c0.283-0.002,0.573-0.004,0.869-0.006c0.585,0.01,1.197,0.02,1.835,0.03c5.074,0.158,11.443,0.82,18.599,1.947
					c-1.176,1.881-2.375,3.799-3.574,5.717c-0.744-1.099-1.5-2.218-2.245-3.386c-0.378-0.602-0.759-1.208-1.143-1.817l-0.67-1.116
					l-0.922-1.606c-1.193-2.149-2.194-4.385-2.498-6.258c-0.159-0.938-0.179-1.786-0.045-2.546c0.141-0.768,0.361-1.48,0.918-2.23
					c0.29-0.364,0.668-0.702,1.042-0.921c0.375-0.226,0.742-0.382,1.117-0.491c0.748-0.213,1.525-0.297,2.414-0.228
					c1.758,0.112,3.961,0.954,6.129,2.104c0.543,0.282,1.085,0.584,1.623,0.895l1.529,0.914c0.498,0.316,0.994,0.632,1.487,0.946
					c0.238,0.166,0.474,0.33,0.707,0.492c0.099-0.133,0.183-0.325,0.273-0.482c0.168-0.294,0.335-0.585,0.5-0.873
					c0.941-1.575,1.896-3.062,3.01-4.567c0.314-0.397,0.626-0.792,0.936-1.182c0.087-0.103,0.136-0.18,0.254-0.303l0.373-0.378
					l0.741-0.753c0.25-0.242,0.483-0.517,0.743-0.729l0.801-0.582l0.794-0.573l0.833-0.376c1.097-0.538,2.253-0.645,3.388-0.503
					c0.574,0.05,1.101,0.294,1.596,0.521l0.71,0.399l0.612,0.518c1.594,1.389,2.446,3.676,2.958,5.689
					c0.104,0.426,0.198,0.848,0.283,1.262c0.059,0.321,0.116,0.635,0.173,0.942c0.105,0.604,0.189,1.171,0.262,1.708
					c0.146,1.071,0.243,2.012,0.327,2.825c0.02,0.185,0.039,0.363,0.057,0.536l0.039,0.056c0.026,0.032,0.053,0.045,0.081,0.056
					c0.092,0.032,0.162,0.025,0.212,0.001c0.058-0.038,0.091-0.071,0.104-0.089c0.137-0.021-0.463-0.023,1.055-0.041
					c2.122-0.02,4.418,0.038,6.837,0.261c2.424,0.236,4.947,0.578,7.665,1.443l1.041,0.375c0.402,0.174,0.741,0.301,1.184,0.528
					c0.965,0.507,1.909,1.058,2.651,1.794c0.748,0.722,1.351,1.56,1.74,2.484c0.392,0.924,0.536,1.927,0.481,2.899
					c-0.052,0.974-0.292,1.926-0.688,2.811c-0.21,0.436-0.418,0.871-0.67,1.278l-0.387,0.601l-0.333,0.446
					c-0.854,1.104-1.673,1.894-2.483,2.625c-1.614,1.425-3.108,2.475-4.376,3.318c-1.268,0.839-2.308,1.459-3.03,1.881
					c-0.723,0.413-1.125,0.643-1.125,0.643s-0.902,0.553-2.313,1.324c-0.354,0.189-0.738,0.395-1.148,0.614l-0.305,0.158
					l-0.163,0.071c-0.104,0.043-0.212,0.087-0.321,0.133c-0.48,0.184-1.001,0.382-1.538,0.587c0.027,0.343,0.22,0.775,0.337,1.213
					l0.211,0.692l0.109,0.363l0.181,0.556c0.501,1.542,0.87,2.895,0.929,3.875c0.091,0.958-0.109,1.523-0.55,1.375
					C106.074,75.72,105.374,74.991,104.156,73.503z"/>
			</g>
		</g>
	</g>
	
		<path fill="#FF6600" stroke="#0D0D0D" stroke-width="4" stroke-linecap="round" stroke-linejoin="round" stroke-miterlimit="10" d="
		M195.162,197.948"/>
	<path fill="#339933" d="M75.354,67.702"/>
</g>
</svg>
