<?xml version="1.0" encoding="utf-8"?>
<!-- Generator: Adobe Illustrator 16.0.0, SVG Export Plug-In . SVG Version: 6.00 Build 0)  -->
<!DOCTYPE svg PUBLIC "-//W3C//DTD SVG 1.1//EN" "http://www.w3.org/Graphics/SVG/1.1/DTD/svg11.dtd">
<svg version="1.1" id="Calque_1" xmlns="http://www.w3.org/2000/svg" xmlns:xlink="http://www.w3.org/1999/xlink" x="0px" y="0px"
	 width="250px" height="250px" viewBox="0 0 250 250" enable-background="new 0 0 250 250" xml:space="preserve">
<g>
	<g>
		<path fill="#9E124F" stroke="#030303" stroke-width="3" stroke-miterlimit="10" d="M191.211,184.43
			c-3.233,2.578,0.094,12.157,2.014,14.668c1.915,2.51,11.946,9.057,8.584,12.608c-3.353,3.543-7.162,1.011-8.424-1.608
			c-1.267-2.626-6.184-22.578-15.672-20.227c-9.489,2.352-3.823,13.875-4.959,16.469c-1.14,2.589-3.775,2.479-4.633,1.495
			c-0.857-0.99,4.119-16.087-2.699-15.348c-6.807,0.746-6.472,14.343-6.516,17.99c-0.03,3.653,0.956,17.704-3.787,17.288
			c-4.744-0.419,1.899-14.451,1.728-19.315c-0.171-4.86,1.144-12.266-3.531-13.607c-4.677-1.339-7.262,4.014-7.942,7.885
			c-0.69,3.878-0.91,11.053-9.192,9.905c-8.284-1.144,0.354-10.288,1.294-12.051c0.946-1.753,7.345-9.365,4.922-12.813
			c-2.427-3.438-10.265-3.317-15.089-0.988c-4.822,2.33-10.185,6.799-11.295,4.376c-1.107-2.418,5.351-3.9,8.929-5.551
			c3.576-1.654,12.23-4.884,10.778-8.616c-1.455-3.73-4.372-4.809-7.374-5.071c-3.011-0.271-9.041-0.92-7.216-4.764
			c1.829-3.852,6.783,0.043,9.612-1.364c2.829-1.405,5.766-4.417,5.319-8.89c-0.442-4.478-3.778-7.877-7.089-7.975
			c-3.319-0.102-10.229-3.78-7.885-7.949c2.336-4.163,9.309,4.403,11.692,5.006c2.385,0.603,6.664,0.988,7.201-0.471
			c0.543-1.464-1.258-4.561,0.061-5.476c1.321-0.921,8.283,2.415,9.523-0.876c1.243-3.292-2.112-6.801-4.148-8.04
			c-2.037-1.236-9.891-6.453-5.837-9.897c4.063-3.445,6.659,4.18,9.778,7.039c3.123,2.873,6.916,5.051,9.175,3.633
			c2.252-1.425,2.676-6.165,2.039-8.448c-0.624-2.273-3.106-11.856,1.138-11.012c4.251,0.847,0.944,10.536,1.539,13.277
			c0.594,2.742,3.396,8.964,9.121,9.78c5.722,0.817,7.684-2.442,8.264-4.162c0.537-1.599,0.677-5.834,3.892-5.035
			c3.218,0.807-1.037,5.763-1.067,8.16c-0.04,2.397,1.845,6.73,6.727,5.303c4.88-1.429,7.165-3.303,8.136-4.276
			c0.965-0.963,5.448-6.533,7.213-2.973c1.764,3.563-5.395,4.927-7.633,7.715c-2.239,2.785-5.034,8.284-0.385,10.768
			c4.646,2.487,9.077,0.452,11.202-1.059c2.122-1.513,9.907-7.078,11.976-1.133c2.069,5.948-9.417,3.416-12.891,4.369
			c-3.477,0.945-7.478,2.792-7.213,4.968c0.265,2.17,3.721,3.044,5.068,2.92c1.346-0.124,5.475-0.618,5.829,2.05
			c0.358,2.67-3.812,2.947-6.844,1.885c-3.033-1.062-6.808-1.192-9.417,2.11c-2.608,3.303-2.889,6.603-2.024,8.551
			c0.944,2.106,9.872,7.598,14.721,9.249c4.838,1.652,15.16,1.436,13.329,6.539c-1.841,5.104-12.022-1.645-14.424-3.047
			C204.415,187.004,195.602,180.924,191.211,184.43z"/>
		<path fill="#9E124F" stroke="#030303" stroke-width="3" stroke-miterlimit="10" d="M138.619,221.283
			c-3.211-3.568-12.589,7.133-7.229,11.573C136.752,237.295,141.524,224.521,138.619,221.283z"/>
		<path fill="#9E124F" stroke="#030303" stroke-width="3" stroke-miterlimit="10" d="M186.994,208.797
			c-2.765,0.256-5.524-6.425-1.237-7.039C190.045,201.14,189.759,208.549,186.994,208.797z"/>
		<path fill="#9E124F" stroke="#030303" stroke-width="3" stroke-miterlimit="10" d="M174.679,123.168
			c-2.778-0.216-5.925-8.793,0.446-8.503C181.5,114.943,177.444,123.382,174.679,123.168z"/>
		<path fill="#9E124F" stroke="#030303" stroke-width="3" stroke-miterlimit="10" d="M137.722,98.996
			c-4.453,1.232-4.74,13.009,2.278,12.942C147.007,111.877,144.645,97.074,137.722,98.996z"/>
		<path fill="#9E124F" stroke="#030303" stroke-width="3" stroke-miterlimit="10" d="M133.652,113.121
			c-3.38,0.761-0.754,6.153,3.047,5.253C140.499,117.469,137.031,112.354,133.652,113.121z"/>
		<path fill="#9E124F" stroke="#030303" stroke-width="3" stroke-miterlimit="10" d="M138.704,135.581
			c-1.958,3.15-10.179,1.644-8.234-4.598C132.412,124.746,140.656,132.428,138.704,135.581z"/>
		<path fill="#9E124F" stroke="#030303" stroke-width="3" stroke-miterlimit="10" d="M150.083,116.022
			c-2.596,2.125-5.176-4.115-2.58-5.337C150.095,109.461,153.358,113.355,150.083,116.022z"/>
	</g>
	<g>
		<path fill="#EDDAAB" stroke="#030303" stroke-width="3" stroke-miterlimit="10" d="M128.833,212.146
			c0.09-4.017,4.381-21.011,0.063-28.49c-3.151-5.483-9.038-9.625-17.757-9.873c0,0-5.64,0.244-10.578,2.721
			c-4.937,2.474-8.373,6.602-8.373,6.602c-4.08,5.36-3.803,11.057-3.157,13.724c3.417,14.079,32.95,30.337,36.869,28.831
			C129.826,224.158,128.691,218.056,128.833,212.146z"/>
		<path fill="#B17F4A" stroke="#030303" stroke-width="3" stroke-miterlimit="10" d="M89.598,176.326c0,0,2.117-3.164,8.822-5.545
			c6.706-2.381,12.719-4.478,12.719-4.478s4.486,2.278,3.5,7.679c-0.985,5.4-17.794,9.725-20.36,9.771
			C91.711,183.801,87.798,181.658,89.598,176.326z"/>
		<path fill="#CA9E67" stroke="#030303" stroke-width="3" stroke-miterlimit="10" d="M86.14,168.918c0,0,2.117-3.163,8.822-5.543
			c6.706-2.382,12.72-4.478,12.72-4.478s4.486,2.277,3.501,7.679c-0.985,5.399-17.795,9.724-20.362,9.771
			C88.254,176.394,84.34,174.251,86.14,168.918z"/>
		<path fill="#7D4E24" stroke="#030303" stroke-width="3" stroke-miterlimit="10" d="M85.471,169.544
			c0.358,0.294,0.922,0.449,1.632,0.497c0,0,6.024,0.888,13.139-2.298c7.114-3.184,8.787-7.389,8.787-7.389
			c0.409-0.526,0.319-1.373,0.474-1.854c1.777-5.454-20.484-31.102-24.575-41.664c-4.317-11.152-19.207-39.67-20.188-41.275
			c-0.973-1.612-6.525-15.518-7.029-16.864c-0.508-1.345-8.092-17.376-13.161-26.907c-5.075-9.529-9.807-16.582-14.337-15.453
			c-4.536,1.126,0.988,14.021,6.368,24.019c3.183,5.936,5.42,11.325,7.583,16.14c2.161,4.814,8.575,16.984,10.244,20.56
			c1.68,3.577,8.557,20.9,10.274,26.419c1.71,5.534,7.973,24.673,10.043,35.253C76.789,149.31,82.17,166.827,85.471,169.544z"/>
		<g>
			<path fill="#EDDAAB" d="M119.296,182.836c0,0,8.159,7.167,5.626,21.117"/>
			<g>
				<path fill="#030303" d="M118.85,183.931c5.32,4.798,6.204,13.103,5.157,19.713c-0.222,1.403,1.572,2.247,1.83,0.619
					c1.219-7.698,0.039-16.99-6.095-22.521C118.683,180.786,117.984,183.149,118.85,183.931L118.85,183.931z"/>
			</g>
		</g>
		<g>
			<g>
				<path fill="#030303" d="M95.497,188.702c-6.117,9.722,8.041,19.548,14.745,23.289c0.814,0.455,3-0.676,1.895-1.293
					c-6.106-3.408-20.066-12.739-14.352-21.824C98.455,187.811,95.992,187.915,95.497,188.702L95.497,188.702z"/>
			</g>
		</g>
		<path fill="none" stroke="#030303" stroke-width="1.6717" stroke-miterlimit="10" d="M109.667,194.039
			c0,0,8.644,5.715,8.342,26.076"/>
		<path fill="#9E124F" stroke="#030303" stroke-width="3" stroke-miterlimit="10" d="M102.881,215.02
			c-1.598-1.245,0.329-3.972,2.115-4.326c1.788-0.354,6.047-0.059,8.569-1.033c2.522-0.975,4.421-6.047,6.885-7.244
			c2.463-1.2,6.849-0.039,9.013,2.016c2.165,2.054,0.238,4.271,0.228,7.526c-0.011,3.255,1.321,12.598-2.576,14.833
			C123.217,229.025,104.479,216.265,102.881,215.02z"/>
	</g>
</g>
</svg>
