<?xml version="1.0" encoding="utf-8"?>
<!-- Generator: Adobe Illustrator 16.0.0, SVG Export Plug-In . SVG Version: 6.00 Build 0)  -->
<!DOCTYPE svg PUBLIC "-//W3C//DTD SVG 1.1//EN" "http://www.w3.org/Graphics/SVG/1.1/DTD/svg11.dtd">
<svg version="1.1" id="Calque_1" xmlns="http://www.w3.org/2000/svg" xmlns:xlink="http://www.w3.org/1999/xlink" x="0px" y="0px"
	 width="250px" height="250px" viewBox="0 0 250 250" enable-background="new 0 0 250 250" xml:space="preserve">
<g>
	<g>
		<path fill-rule="evenodd" clip-rule="evenodd" fill="none" d="M238.869,25.026c94.204,0,188.411,0,282.613,0
			c0,66.648,0,133.299,0,199.947c-94.314,0-188.636,0-282.949,0c0-66.314,0-132.625,0-198.938
			C238.504,25.558,238.478,25.083,238.869,25.026z M322.545,66.36c-11.383,14.635-20.949,36.557-19.827,63.176
			c1.088,25.805,10.792,44.613,24.867,58.137c14.352,13.785,35.29,22.957,61.16,20.834c23.938-1.965,42.511-12.791,55.111-27.893
			c12.306-14.746,21.472-36.105,19.154-63.176c-2.056-24-12.52-43.771-25.876-57.127c-13.586-13.586-33.131-25.301-60.151-23.188
			C352.558,39.034,333.952,51.692,322.545,66.36z"/>
	</g>
</g>
<g>
	<g>
		<linearGradient id="SVGID_1_" gradientUnits="userSpaceOnUse" x1="107.4922" y1="235.2021" x2="184.7395" y2="76.8217">
			<stop  offset="0" style="stop-color:#ED6A0B"/>
			<stop  offset="0.2239" style="stop-color:#EE6F0F"/>
			<stop  offset="0.4805" style="stop-color:#F07D1A"/>
			<stop  offset="0.7522" style="stop-color:#F4932D"/>
			<stop  offset="1" style="stop-color:#F8AF44"/>
		</linearGradient>
		<polygon fill-rule="evenodd" clip-rule="evenodd" fill="url(#SVGID_1_)" points="121.8,50.892 41.697,203.111 205.317,201.618 
			123.507,46.956 		"/>
		<g>
			
				<path fill-rule="evenodd" clip-rule="evenodd" fill="#CACACA" stroke="#000000" stroke-width="4" stroke-linecap="round" stroke-linejoin="round" stroke-miterlimit="10" d="
				M122.612,45.165c0.198,0,0.397,0,0.597,0c5.342,5.248,8.05,12.4,11.645,18.811c25.239,45.009,52.422,89.56,73.449,139.136
				c-54.46,1.729-112.525,2.807-166.605,0c21.527-51.454,50.154-98.193,74.942-147.496
				C118.552,51.812,120.284,48.018,122.612,45.165z M122.91,48.748c-6.735,12.957-13.158,26.032-20.005,39.113
				c-19.041,36.378-38.177,73.337-57.327,109.279c-0.706,1.325-2.157,2.744-1.791,4.478c53.841,0,107.687,0,161.53,0
				C180.477,149.227,152.394,97.49,122.91,48.748z"/>
		</g>
	</g>
	<g>
		<path d="M136.342,106.814c0,0,10.608,18.213,18.452,36.517c7.849,18.301,10.142,28.693,10.142,28.693s-2.313-26.028-9.202-38.546
			C148.687,120.679,143.6,113.517,136.342,106.814z"/>
	</g>
</g>
</svg>
