<?xml version="1.0" encoding="utf-8"?>
<!-- Generator: Adobe Illustrator 15.0.0, SVG Export Plug-In . SVG Version: 6.00 Build 0)  -->
<!DOCTYPE svg PUBLIC "-//W3C//DTD SVG 1.1//EN" "http://www.w3.org/Graphics/SVG/1.1/DTD/svg11.dtd">
<svg version="1.1" id="Ebene_1" xmlns="http://www.w3.org/2000/svg" xmlns:xlink="http://www.w3.org/1999/xlink" x="0px" y="0px"
	 width="250px" height="250px" viewBox="0 0 250 250" enable-background="new 0 0 250 250" xml:space="preserve">
<g>
	<defs>
		<rect id="SVGID_1_" width="250" height="250"/>
	</defs>
	<clipPath id="SVGID_2_">
		<use xlink:href="#SVGID_1_"  overflow="visible"/>
	</clipPath>
	<g clip-path="url(#SVGID_2_)">
		<defs>
			<rect id="SVGID_3_" width="250" height="250"/>
		</defs>
		<clipPath id="SVGID_4_">
			<use xlink:href="#SVGID_3_"  overflow="visible"/>
		</clipPath>
		<path clip-path="url(#SVGID_4_)" d="M127.049,23.865c-11.531,0-21.248,6.543-26.646,15.857c-3.928-1.978-8.172-3.378-12.868-3.378
			c-16.074,0-29.117,13.039-29.117,29.115c0,16.07,13.043,29.117,29.117,29.117c10.065,0,18.428-5.492,23.657-13.258
			c4.716,2.867,9.939,4.94,15.857,4.94c3.799,0,7.293-0.967,10.66-2.211c2.123,3.607,4.902,6.568,8.318,8.968
			c-0.029,0.541-0.26,1.008-0.26,1.561c0,16.068,13.043,29.117,29.115,29.117c16.074,0,29.117-13.049,29.117-29.117
			c0-9.859-5.236-18.133-12.738-23.397c0.029-0.544,0.26-1.011,0.26-1.56c0-16.078-13.043-29.117-29.118-29.117
			c-2.585,0-4.884,0.922-7.276,1.56C150.158,31.42,139.564,23.865,127.049,23.865"/>
		<path clip-path="url(#SVGID_4_)" fill="#B2B2B2" d="M127.049,28.023c-11.564,0-21.354,7.328-25.217,17.549
			c-4.097-2.953-8.867-5.07-14.297-5.07c-13.775,0-24.957,11.179-24.957,24.957c0,13.775,11.182,24.957,24.957,24.957
			c10.098,0,18.688-6.057,22.618-14.688c4.662,3.815,10.41,6.369,16.896,6.369c4.473,0,8.502-1.328,12.219-3.25
			c1.658,4.16,4.578,7.426,8.059,10.139c-0.746,2.478-1.559,4.947-1.559,7.67c0,14.924,12.113,27.037,27.037,27.037
			s27.035-12.113,27.035-27.037c0-9.822-5.547-18.012-13.387-22.748c0.26-1.446,0.908-2.77,0.908-4.289
			c0-13.78-11.182-24.957-24.958-24.957c-3.544,0-6.948,0.74-10.007,2.08C148.846,35.954,139.02,28.023,127.049,28.023"/>
		<path clip-path="url(#SVGID_4_)" fill="#B2B2B2" d="M156.227,75.857c-9.447,0-17.096,6.447-19.627,15.08
			c-2.885-1.516-6.012-2.601-9.488-2.601c-11.481,0-20.799,9.314-20.799,20.798c0,2.405,0.674,4.606,1.43,6.758
			c-5.711,3.201-9.748,9.104-9.748,16.119c0,10.33,8.384,18.717,18.716,18.717h79.032c10.334,0,18.717-8.387,18.717-18.717
			c0-7.015-4.037-12.918-9.748-16.119c0.756-2.152,1.43-4.353,1.43-6.758c0-11.484-9.318-20.798-20.797-20.798
			c-3.482,0-6.605,1.085-9.488,2.601C173.32,82.304,165.672,75.857,156.227,75.857"/>
		<path clip-path="url(#SVGID_4_)" fill="none" stroke="#000000" stroke-width="4.16" stroke-miterlimit="2" d="M156.227,75.857
			c-9.447,0-17.096,6.447-19.627,15.08c-2.885-1.516-6.012-2.601-9.488-2.601c-11.481,0-20.799,9.314-20.799,20.798
			c0,2.405,0.674,4.606,1.43,6.758c-5.711,3.201-9.748,9.104-9.748,16.119c0,10.33,8.384,18.717,18.716,18.717h79.032
			c10.334,0,18.717-8.387,18.717-18.717c0-7.015-4.037-12.918-9.748-16.119c0.756-2.152,1.43-4.353,1.43-6.758
			c0-11.484-9.318-20.798-20.797-20.798c-3.482,0-6.605,1.085-9.488,2.601C173.32,82.304,165.672,75.857,156.227,75.857z"/>
	</g>
	<g clip-path="url(#SVGID_2_)">
		<defs>
			<path id="SVGID_5_" d="M137.943,93.926c-2.781-1.43-6.438-3.469-9.793-3.469c-11.3,0-19.781,8.067-19.781,18.905
				c0,2.275,1.111,5.548,1.84,7.579c-5.507,3.032-10.134,7.864-10.134,14.031c0,9.756,6.429,17.679,18.046,17.679h76.207
				c11.529,0,18.053-7.923,18.053-17.679c0-6.625-4.631-11.093-10.138-14.121c0.729-2.031,1.933-5.214,1.933-7.489
				c0-10.838-8.803-18.995-19.873-18.995c-3.354,0-6.832,2.031-9.608,3.461c-2.698-10.068-9.36-15.891-18.468-15.891
				S140.738,83.494,137.943,93.926"/>
		</defs>
		<clipPath id="SVGID_6_">
			<use xlink:href="#SVGID_5_"  overflow="visible"/>
		</clipPath>
		<defs>
			<filter id="Adobe_OpacityMaskFilter" filterUnits="userSpaceOnUse" x="67.796" y="26.671" width="176.864" height="173.244">
				<feColorMatrix  type="matrix" values="1 0 0 0 0  0 1 0 0 0  0 0 1 0 0  0 0 0 1 0"/>
			</filter>
		</defs>
		<mask maskUnits="userSpaceOnUse" x="67.796" y="26.671" width="176.864" height="173.244" id="SVGID_7_">
			<g filter="url(#Adobe_OpacityMaskFilter)">
				
					<linearGradient id="SVGID_8_" gradientUnits="userSpaceOnUse" x1="0" y1="249.8857" x2="1" y2="249.8857" gradientTransform="matrix(58.2625 37.7767 -37.7767 58.2625 9559.709 -14469.2959)">
					<stop  offset="0" style="stop-color:#FFFFFF"/>
					<stop  offset="1" style="stop-color:#000000"/>
				</linearGradient>
				<polygon clip-path="url(#SVGID_6_)" fill="url(#SVGID_8_)" points="67.796,127.721 179.141,199.915 244.66,98.866 
					133.315,26.671 				"/>
			</g>
		</mask>
		
			<linearGradient id="SVGID_9_" gradientUnits="userSpaceOnUse" x1="0" y1="249.8867" x2="1" y2="249.8867" gradientTransform="matrix(58.2625 37.7767 -37.7767 58.2625 9559.709 -14469.3262)">
			<stop  offset="0" style="stop-color:#FFFFFF"/>
			<stop  offset="1" style="stop-color:#FFFFFF"/>
		</linearGradient>
		<polygon clip-path="url(#SVGID_6_)" mask="url(#SVGID_7_)" fill="url(#SVGID_9_)" points="67.796,127.721 179.141,199.915 
			244.66,98.866 133.314,26.671 		"/>
	</g>
	<g clip-path="url(#SVGID_2_)">
		<defs>
			<rect id="SVGID_10_" width="250" height="250"/>
		</defs>
		<clipPath id="SVGID_11_">
			<use xlink:href="#SVGID_10_"  overflow="visible"/>
		</clipPath>
		<path clip-path="url(#SVGID_11_)" d="M208.037,109.824c-0.004,11.164-13.596,15.445-13.596,15.445s9.766-6.759,9.717-15.412
			L208.037,109.824z"/>
		<path clip-path="url(#SVGID_11_)" fill="#B2B2B2" d="M93.773,59.15c-9.443,0-17.098,6.447-19.627,15.078
			c-2.881-1.514-6.008-2.599-9.49-2.599c-11.479,0-20.797,9.318-20.797,20.798c0,2.409,0.678,4.61,1.43,6.758
			c-5.716,3.205-9.749,9.104-9.749,16.119c0,10.33,8.388,18.717,18.717,18.717h79.032c10.334,0,18.717-8.387,18.717-18.717
			c0-7.015-4.033-12.914-9.748-16.119c0.756-2.148,1.43-4.349,1.43-6.758c0-11.48-9.314-20.798-20.797-20.798
			c-3.482,0-6.605,1.085-9.49,2.599C110.872,65.598,103.216,59.15,93.773,59.15"/>
		<path clip-path="url(#SVGID_11_)" fill="none" stroke="#000000" stroke-width="4.16" stroke-miterlimit="2" d="M93.773,59.15
			c-9.443,0-17.098,6.447-19.627,15.078c-2.881-1.514-6.008-2.599-9.49-2.599c-11.479,0-20.797,9.318-20.797,20.798
			c0,2.409,0.678,4.61,1.43,6.758c-5.716,3.205-9.749,9.104-9.749,16.119c0,10.33,8.388,18.717,18.717,18.717h79.032
			c10.334,0,18.717-8.387,18.717-18.717c0-7.015-4.033-12.914-9.748-16.119c0.756-2.148,1.43-4.349,1.43-6.758
			c0-11.48-9.314-20.798-20.797-20.798c-3.482,0-6.605,1.085-9.49,2.599C110.872,65.598,103.216,59.15,93.773,59.15z"/>
		<path clip-path="url(#SVGID_11_)" d="M145.584,93.117c-0.004,11.168-13.596,15.449-13.596,15.449s9.77-6.763,9.721-15.412
			L145.584,93.117z"/>
		<path clip-path="url(#SVGID_11_)" fill="#729FCF" d="M148.689,225.225c-4.162-2.387-5.59-7.684-3.188-11.816
			c5.336-8.346,12.441-6.197,16.072-14.992C166.629,203.76,164.754,231.461,148.689,225.225"/>
		<path clip-path="url(#SVGID_11_)" fill="none" stroke="#000000" stroke-width="3" stroke-miterlimit="2" d="M148.689,225.225
			c-4.162-2.387-5.59-7.684-3.188-11.816c5.336-8.346,12.441-6.197,16.072-14.992C166.629,203.76,164.754,231.461,148.689,225.225z"
			/>
		<g opacity="0.4611" clip-path="url(#SVGID_11_)" enable-background="new    ">
			<g>
				<defs>
					<rect id="SVGID_12_" x="146.182" y="204.27" width="16.026" height="20.034"/>
				</defs>
				<clipPath id="SVGID_13_">
					<use xlink:href="#SVGID_12_"  overflow="visible"/>
				</clipPath>
				<g clip-path="url(#SVGID_13_)">
					<defs>
						<path id="SVGID_14_" d="M159.445,220.686c-1.965,3.459-6.311,4.648-9.711,2.645c-3.396-1.994-4.563-6.424-2.598-9.883
							c1.961-3.463,10.438-1.814,13.404-9.178C163.937,206.271,161.406,217.223,159.445,220.686"/>
					</defs>
					<clipPath id="SVGID_15_">
						<use xlink:href="#SVGID_14_"  overflow="visible"/>
					</clipPath>
					<defs>
						
							<filter id="Adobe_OpacityMaskFilter_1_" filterUnits="userSpaceOnUse" x="136.214" y="196.005" width="36.681" height="37.595">
							<feColorMatrix  type="matrix" values="1 0 0 0 0  0 1 0 0 0  0 0 1 0 0  0 0 0 1 0"/>
						</filter>
					</defs>
					<mask maskUnits="userSpaceOnUse" x="136.214" y="196.005" width="36.681" height="37.595" id="SVGID_16_">
						<g filter="url(#Adobe_OpacityMaskFilter_1_)">
							
								<radialGradient id="SVGID_17_" cx="-0.0024" cy="250" r="1.001" gradientTransform="matrix(6.1585 3.615 -5.4007 9.5296 1503.4607 -2165.3301)" gradientUnits="userSpaceOnUse">
								<stop  offset="0" style="stop-color:#FFFFFF"/>
								<stop  offset="1" style="stop-color:#000000"/>
							</radialGradient>
							<polygon clip-path="url(#SVGID_15_)" fill="url(#SVGID_17_)" points="136.214,220.076 159.253,233.6 172.895,209.528 
								149.856,196.005 							"/>
						</g>
					</mask>
					
						<radialGradient id="SVGID_18_" cx="-0.0024" cy="250" r="1.001" gradientTransform="matrix(6.1585 3.615 -5.4007 9.5296 1503.4607 -2165.3301)" gradientUnits="userSpaceOnUse">
						<stop  offset="0" style="stop-color:#FFFFFF"/>
						<stop  offset="1" style="stop-color:#FFFFFF"/>
					</radialGradient>
					<polygon clip-path="url(#SVGID_15_)" mask="url(#SVGID_16_)" fill="url(#SVGID_18_)" points="136.214,220.076 159.253,233.6 
						172.895,209.528 149.856,196.005 					"/>
				</g>
			</g>
		</g>
	</g>
	<g clip-path="url(#SVGID_2_)">
		<defs>
			<path id="SVGID_19_" d="M154.285,224.301c0,0-10.436-10.219,3.916-15.709c-0.288-0.311-0.732-0.453-1.281-0.453
				C151.816,208.14,137.597,220.42,154.285,224.301"/>
		</defs>
		<clipPath id="SVGID_20_">
			<use xlink:href="#SVGID_19_"  overflow="visible"/>
		</clipPath>
		<defs>
			<filter id="Adobe_OpacityMaskFilter_2_" filterUnits="userSpaceOnUse" x="133.664" y="201.987" width="28.471" height="28.465">
				<feColorMatrix  type="matrix" values="1 0 0 0 0  0 1 0 0 0  0 0 1 0 0  0 0 0 1 0"/>
			</filter>
		</defs>
		<mask maskUnits="userSpaceOnUse" x="133.664" y="201.987" width="28.471" height="28.465" id="SVGID_21_">
			<g filter="url(#Adobe_OpacityMaskFilter_2_)">
				
					<linearGradient id="SVGID_22_" gradientUnits="userSpaceOnUse" x1="0" y1="250.3828" x2="1" y2="250.3828" gradientTransform="matrix(3.5828 13.5601 -12.2391 3.9669 3209.9963 -785.9973)">
					<stop  offset="0" style="stop-color:#FFFFFF"/>
					<stop  offset="1" style="stop-color:#000000"/>
				</linearGradient>
				<polygon clip-path="url(#SVGID_20_)" fill="url(#SVGID_22_)" points="133.663,209.414 139.223,230.452 162.135,223.026 
					156.576,201.987 				"/>
			</g>
		</mask>
		
			<linearGradient id="SVGID_23_" gradientUnits="userSpaceOnUse" x1="0" y1="250.3828" x2="1" y2="250.3828" gradientTransform="matrix(3.5828 13.5601 -12.2391 3.9669 3209.9927 -786.0013)">
			<stop  offset="0" style="stop-color:#FFFFFF"/>
			<stop  offset="1" style="stop-color:#FFFFFF"/>
		</linearGradient>
		<polygon clip-path="url(#SVGID_20_)" mask="url(#SVGID_21_)" fill="url(#SVGID_23_)" points="133.664,209.414 139.223,230.452 
			162.135,223.026 156.576,201.987 		"/>
	</g>
	<g clip-path="url(#SVGID_2_)">
		<defs>
			<rect id="SVGID_24_" width="250" height="250"/>
		</defs>
		<clipPath id="SVGID_25_">
			<use xlink:href="#SVGID_24_"  overflow="visible"/>
		</clipPath>
		<path clip-path="url(#SVGID_25_)" fill="#729FCF" d="M68.563,185.191c-4.162-2.387-5.592-7.684-3.189-11.814
			c5.337-8.346,12.443-6.197,16.072-14.994C86.501,163.729,84.626,191.428,68.563,185.191"/>
		<path clip-path="url(#SVGID_25_)" fill="none" stroke="#000000" stroke-width="3" stroke-miterlimit="2" d="M68.563,185.191
			c-4.162-2.387-5.592-7.684-3.189-11.814c5.337-8.346,12.443-6.197,16.072-14.994C86.501,163.729,84.626,191.428,68.563,185.191z"
			/>
		<g opacity="0.4611" clip-path="url(#SVGID_25_)" enable-background="new    ">
			<g>
				<defs>
					<rect id="SVGID_26_" x="66.055" y="164.236" width="16.024" height="20.035"/>
				</defs>
				<clipPath id="SVGID_27_">
					<use xlink:href="#SVGID_26_"  overflow="visible"/>
				</clipPath>
				<g clip-path="url(#SVGID_27_)">
					<defs>
						<path id="SVGID_28_" d="M79.318,180.654c-1.964,3.457-6.31,4.646-9.711,2.645c-3.396-1.996-4.562-6.426-2.597-9.883
							c1.959-3.463,10.437-1.816,13.404-9.18C83.809,166.24,81.277,177.191,79.318,180.654"/>
					</defs>
					<clipPath id="SVGID_29_">
						<use xlink:href="#SVGID_28_"  overflow="visible"/>
					</clipPath>
					<defs>
						<filter id="Adobe_OpacityMaskFilter_3_" filterUnits="userSpaceOnUse" x="56.087" y="155.971" width="36.68" height="37.595">
							<feColorMatrix  type="matrix" values="1 0 0 0 0  0 1 0 0 0  0 0 1 0 0  0 0 0 1 0"/>
						</filter>
					</defs>
					<mask maskUnits="userSpaceOnUse" x="56.087" y="155.971" width="36.68" height="37.595" id="SVGID_30_">
						<g filter="url(#Adobe_OpacityMaskFilter_3_)">
							
								<radialGradient id="SVGID_31_" cx="-0.0024" cy="250" r="1.001" gradientTransform="matrix(6.1593 3.6154 -5.4013 9.5308 1423.5005 -2205.6572)" gradientUnits="userSpaceOnUse">
								<stop  offset="0" style="stop-color:#FFFFFF"/>
								<stop  offset="1" style="stop-color:#000000"/>
							</radialGradient>
							<polygon clip-path="url(#SVGID_29_)" fill="url(#SVGID_31_)" points="56.087,180.043 79.125,193.565 92.767,169.494 
								69.729,155.971 							"/>
						</g>
					</mask>
					
						<radialGradient id="SVGID_32_" cx="-0.0024" cy="250" r="1.001" gradientTransform="matrix(6.1593 3.6154 -5.4013 9.5308 1423.5005 -2205.6572)" gradientUnits="userSpaceOnUse">
						<stop  offset="0" style="stop-color:#FFFFFF"/>
						<stop  offset="1" style="stop-color:#FFFFFF"/>
					</radialGradient>
					<polygon clip-path="url(#SVGID_29_)" mask="url(#SVGID_30_)" fill="url(#SVGID_32_)" points="56.087,180.043 79.125,193.565 
						92.767,169.494 69.729,155.971 					"/>
				</g>
			</g>
		</g>
	</g>
	<g clip-path="url(#SVGID_2_)">
		<defs>
			<path id="SVGID_33_" d="M74.158,184.268c0,0-10.435-10.219,3.916-15.707c-0.288-0.311-0.733-0.453-1.283-0.453
				C71.685,168.108,57.468,180.387,74.158,184.268"/>
		</defs>
		<clipPath id="SVGID_34_">
			<use xlink:href="#SVGID_33_"  overflow="visible"/>
		</clipPath>
		<defs>
			<filter id="Adobe_OpacityMaskFilter_4_" filterUnits="userSpaceOnUse" x="53.535" y="161.955" width="28.473" height="28.465">
				<feColorMatrix  type="matrix" values="1 0 0 0 0  0 1 0 0 0  0 0 1 0 0  0 0 0 1 0"/>
			</filter>
		</defs>
		<mask maskUnits="userSpaceOnUse" x="53.535" y="161.955" width="28.473" height="28.465" id="SVGID_35_">
			<g filter="url(#Adobe_OpacityMaskFilter_4_)">
				
					<linearGradient id="SVGID_36_" gradientUnits="userSpaceOnUse" x1="0" y1="250.3838" x2="1" y2="250.3838" gradientTransform="matrix(3.5826 13.5592 -12.2383 3.9666 3129.6746 -825.9722)">
					<stop  offset="0" style="stop-color:#FFFFFF"/>
					<stop  offset="1" style="stop-color:#000000"/>
				</linearGradient>
				<polygon clip-path="url(#SVGID_34_)" fill="url(#SVGID_36_)" points="53.535,169.382 59.093,190.42 82.007,182.993 
					76.449,161.955 				"/>
			</g>
		</mask>
		
			<linearGradient id="SVGID_37_" gradientUnits="userSpaceOnUse" x1="0" y1="250.3838" x2="1" y2="250.3838" gradientTransform="matrix(3.5826 13.5592 -12.2383 3.9666 3129.6746 -825.9722)">
			<stop  offset="0" style="stop-color:#FFFFFF"/>
			<stop  offset="1" style="stop-color:#FFFFFF"/>
		</linearGradient>
		<polygon clip-path="url(#SVGID_34_)" mask="url(#SVGID_35_)" fill="url(#SVGID_37_)" points="53.535,169.382 59.093,190.42 
			82.007,182.993 76.449,161.955 		"/>
	</g>
	<g clip-path="url(#SVGID_2_)">
		<defs>
			<rect id="SVGID_38_" width="250" height="250"/>
		</defs>
		<clipPath id="SVGID_39_">
			<use xlink:href="#SVGID_38_"  overflow="visible"/>
		</clipPath>
		<path clip-path="url(#SVGID_39_)" fill="#729FCF" d="M184.744,213.205c-4.168-2.387-5.596-7.684-3.193-11.816
			c5.336-8.344,12.441-6.197,16.076-14.992C202.678,191.742,200.805,219.441,184.744,213.205"/>
		<path clip-path="url(#SVGID_39_)" fill="none" stroke="#000000" stroke-width="3" stroke-miterlimit="2" d="M184.744,213.205
			c-4.168-2.387-5.596-7.684-3.193-11.816c5.336-8.344,12.441-6.197,16.076-14.992C202.678,191.742,200.805,219.441,184.744,213.205
			z"/>
		<g opacity="0.4611" clip-path="url(#SVGID_39_)" enable-background="new    ">
			<g>
				<defs>
					<rect id="SVGID_40_" x="182.232" y="192.25" width="16.027" height="20.035"/>
				</defs>
				<clipPath id="SVGID_41_">
					<use xlink:href="#SVGID_40_"  overflow="visible"/>
				</clipPath>
				<g clip-path="url(#SVGID_41_)">
					<defs>
						<path id="SVGID_42_" d="M195.494,208.666c-1.959,3.459-6.311,4.648-9.707,2.646c-3.398-1.995-4.564-6.425-2.602-9.884
							c1.965-3.461,10.439-1.814,13.404-9.178C199.99,194.254,197.459,205.205,195.494,208.666"/>
					</defs>
					<clipPath id="SVGID_43_">
						<use xlink:href="#SVGID_42_"  overflow="visible"/>
					</clipPath>
					<defs>
						
							<filter id="Adobe_OpacityMaskFilter_5_" filterUnits="userSpaceOnUse" x="172.266" y="183.983" width="36.682" height="37.597">
							<feColorMatrix  type="matrix" values="1 0 0 0 0  0 1 0 0 0  0 0 1 0 0  0 0 0 1 0"/>
						</filter>
					</defs>
					<mask maskUnits="userSpaceOnUse" x="172.266" y="183.983" width="36.682" height="37.597" id="SVGID_44_">
						<g filter="url(#Adobe_OpacityMaskFilter_5_)">
							
								<radialGradient id="SVGID_45_" cx="-0.002" cy="250" r="1.0008" gradientTransform="matrix(6.1586 3.615 -5.4008 9.5297 1539.5305 -2177.386)" gradientUnits="userSpaceOnUse">
								<stop  offset="0" style="stop-color:#FFFFFF"/>
								<stop  offset="1" style="stop-color:#000000"/>
							</radialGradient>
							<polygon clip-path="url(#SVGID_43_)" fill="url(#SVGID_45_)" points="172.266,208.056 195.306,221.58 208.947,197.508 
								185.907,183.983 							"/>
						</g>
					</mask>
					
						<radialGradient id="SVGID_46_" cx="-0.0024" cy="250" r="1.001" gradientTransform="matrix(6.1586 3.615 -5.4008 9.5297 1539.5305 -2177.3843)" gradientUnits="userSpaceOnUse">
						<stop  offset="0" style="stop-color:#FFFFFF"/>
						<stop  offset="1" style="stop-color:#FFFFFF"/>
					</radialGradient>
					<polygon clip-path="url(#SVGID_43_)" mask="url(#SVGID_44_)" fill="url(#SVGID_46_)" points="172.266,208.056 195.306,221.58 
						208.947,197.508 185.907,183.983 					"/>
				</g>
			</g>
		</g>
	</g>
	<g clip-path="url(#SVGID_2_)">
		<defs>
			<path id="SVGID_47_" d="M190.338,212.281c0,0-10.438-10.22,3.912-15.707c-0.289-0.312-0.732-0.453-1.283-0.453
				C187.863,196.122,173.647,208.401,190.338,212.281"/>
		</defs>
		<clipPath id="SVGID_48_">
			<use xlink:href="#SVGID_47_"  overflow="visible"/>
		</clipPath>
		<defs>
			<filter id="Adobe_OpacityMaskFilter_6_" filterUnits="userSpaceOnUse" x="169.714" y="189.97" width="28.469" height="28.462">
				<feColorMatrix  type="matrix" values="1 0 0 0 0  0 1 0 0 0  0 0 1 0 0  0 0 0 1 0"/>
			</filter>
		</defs>
		<mask maskUnits="userSpaceOnUse" x="169.714" y="189.97" width="28.469" height="28.462" id="SVGID_49_">
			<g filter="url(#Adobe_OpacityMaskFilter_6_)">
				
					<linearGradient id="SVGID_50_" gradientUnits="userSpaceOnUse" x1="0" y1="250.3828" x2="1" y2="250.3828" gradientTransform="matrix(3.5828 13.5601 -12.2391 3.9669 3246.0432 -798.0129)">
					<stop  offset="0" style="stop-color:#FFFFFF"/>
					<stop  offset="1" style="stop-color:#000000"/>
				</linearGradient>
				<polygon clip-path="url(#SVGID_48_)" fill="url(#SVGID_50_)" points="169.714,197.396 175.272,218.432 198.183,211.006 
					192.625,189.97 				"/>
			</g>
		</mask>
		
			<linearGradient id="SVGID_51_" gradientUnits="userSpaceOnUse" x1="0" y1="250.3828" x2="1" y2="250.3828" gradientTransform="matrix(3.5828 13.5601 -12.2391 3.9669 3246.0474 -798.017)">
			<stop  offset="0" style="stop-color:#FFFFFF"/>
			<stop  offset="1" style="stop-color:#FFFFFF"/>
		</linearGradient>
		<polygon clip-path="url(#SVGID_48_)" mask="url(#SVGID_49_)" fill="url(#SVGID_51_)" points="169.714,197.396 175.272,218.432 
			198.183,211.006 192.625,189.97 		"/>
	</g>
	<g clip-path="url(#SVGID_2_)">
		<defs>
			<rect id="SVGID_52_" width="250" height="250"/>
		</defs>
		<clipPath id="SVGID_53_">
			<use xlink:href="#SVGID_52_"  overflow="visible"/>
		</clipPath>
		<path clip-path="url(#SVGID_53_)" fill="#729FCF" d="M60.549,225.225c-4.162-2.387-5.59-7.676-3.188-11.813
			c5.336-8.345,12.442-6.192,16.073-14.987C78.488,203.768,76.615,231.469,60.549,225.225"/>
		<path clip-path="url(#SVGID_53_)" fill="none" stroke="#000000" stroke-width="3" stroke-miterlimit="2" d="M60.549,225.225
			c-4.162-2.387-5.59-7.676-3.188-11.813c5.336-8.345,12.442-6.192,16.073-14.987C78.488,203.768,76.615,231.469,60.549,225.225z"/>
		<g opacity="0.4611" clip-path="url(#SVGID_53_)" enable-background="new    ">
			<g>
				<defs>
					<rect id="SVGID_54_" x="58.043" y="204.277" width="16.024" height="20.032"/>
				</defs>
				<clipPath id="SVGID_55_">
					<use xlink:href="#SVGID_54_"  overflow="visible"/>
				</clipPath>
				<g clip-path="url(#SVGID_55_)">
					<defs>
						<path id="SVGID_56_" d="M71.305,220.689c-1.963,3.463-6.315,4.648-9.711,2.648c-3.395-1.994-4.561-6.424-2.598-9.891
							c1.961-3.459,10.44-1.807,13.404-9.17C75.797,206.271,73.266,217.227,71.305,220.689"/>
					</defs>
					<clipPath id="SVGID_57_">
						<use xlink:href="#SVGID_56_"  overflow="visible"/>
					</clipPath>
					<defs>
						
							<filter id="Adobe_OpacityMaskFilter_7_" filterUnits="userSpaceOnUse" x="48.077" y="196.012" width="36.677" height="37.591">
							<feColorMatrix  type="matrix" values="1 0 0 0 0  0 1 0 0 0  0 0 1 0 0  0 0 0 1 0"/>
						</filter>
					</defs>
					<mask maskUnits="userSpaceOnUse" x="48.077" y="196.012" width="36.677" height="37.591" id="SVGID_58_">
						<g filter="url(#Adobe_OpacityMaskFilter_7_)">
							
								<radialGradient id="SVGID_59_" cx="-0.0024" cy="250" r="1.001" gradientTransform="matrix(6.1587 3.6151 -5.4008 9.5298 1415.3506 -2165.3799)" gradientUnits="userSpaceOnUse">
								<stop  offset="0" style="stop-color:#FFFFFF"/>
								<stop  offset="1" style="stop-color:#000000"/>
							</radialGradient>
							<polygon clip-path="url(#SVGID_57_)" fill="url(#SVGID_59_)" points="48.077,220.081 71.113,233.603 84.753,209.534 
								61.717,196.012 							"/>
						</g>
					</mask>
					
						<radialGradient id="SVGID_60_" cx="-0.0024" cy="250" r="1.001" gradientTransform="matrix(6.1587 3.6151 -5.4008 9.5298 1415.3506 -2165.3799)" gradientUnits="userSpaceOnUse">
						<stop  offset="0" style="stop-color:#FFFFFF"/>
						<stop  offset="1" style="stop-color:#FFFFFF"/>
					</radialGradient>
					<polygon clip-path="url(#SVGID_57_)" mask="url(#SVGID_58_)" fill="url(#SVGID_60_)" points="48.077,220.081 71.113,233.603 
						84.753,209.534 61.717,196.012 					"/>
				</g>
			</g>
		</g>
	</g>
	<g clip-path="url(#SVGID_2_)">
		<defs>
			<path id="SVGID_61_" d="M66.145,224.309c0,0-10.434-10.219,3.916-15.713c-0.289-0.311-0.732-0.453-1.281-0.453
				C63.677,208.144,49.454,220.424,66.145,224.309"/>
		</defs>
		<clipPath id="SVGID_62_">
			<use xlink:href="#SVGID_61_"  overflow="visible"/>
		</clipPath>
		<defs>
			<filter id="Adobe_OpacityMaskFilter_8_" filterUnits="userSpaceOnUse" x="45.52" y="201.991" width="28.476" height="28.47">
				<feColorMatrix  type="matrix" values="1 0 0 0 0  0 1 0 0 0  0 0 1 0 0  0 0 0 1 0"/>
			</filter>
		</defs>
		<mask maskUnits="userSpaceOnUse" x="45.52" y="201.991" width="28.476" height="28.47" id="SVGID_63_">
			<g filter="url(#Adobe_OpacityMaskFilter_8_)">
				
					<linearGradient id="SVGID_64_" gradientUnits="userSpaceOnUse" x1="0" y1="250.3828" x2="1" y2="250.3828" gradientTransform="matrix(3.5833 13.5622 -12.241 3.9675 3122.335 -786.1456)">
					<stop  offset="0" style="stop-color:#FFFFFF"/>
					<stop  offset="1" style="stop-color:#000000"/>
				</linearGradient>
				<polygon clip-path="url(#SVGID_62_)" fill="url(#SVGID_64_)" points="45.52,209.418 51.08,230.461 73.996,223.034 
					68.436,201.991 				"/>
			</g>
		</mask>
		
			<linearGradient id="SVGID_65_" gradientUnits="userSpaceOnUse" x1="0" y1="250.3828" x2="1" y2="250.3828" gradientTransform="matrix(3.5833 13.5622 -12.241 3.9675 3122.3289 -786.1475)">
			<stop  offset="0" style="stop-color:#FFFFFF"/>
			<stop  offset="1" style="stop-color:#FFFFFF"/>
		</linearGradient>
		<polygon clip-path="url(#SVGID_62_)" mask="url(#SVGID_63_)" fill="url(#SVGID_65_)" points="45.52,209.418 51.08,230.461 
			73.996,223.034 68.436,201.991 		"/>
	</g>
	<g clip-path="url(#SVGID_2_)">
		<defs>
			<rect id="SVGID_66_" width="250" height="250"/>
		</defs>
		<clipPath id="SVGID_67_">
			<use xlink:href="#SVGID_66_"  overflow="visible"/>
		</clipPath>
		<path clip-path="url(#SVGID_67_)" fill="#729FCF" d="M100.609,205.193c-4.166-2.387-5.594-7.686-3.193-11.816
			c5.338-8.346,12.443-6.197,16.078-14.992C118.545,183.729,116.67,211.43,100.609,205.193"/>
		<path clip-path="url(#SVGID_67_)" fill="none" stroke="#000000" stroke-width="3" stroke-miterlimit="2" d="M100.609,205.193
			c-4.166-2.387-5.594-7.686-3.193-11.816c5.338-8.346,12.443-6.197,16.078-14.992C118.545,183.729,116.67,211.43,100.609,205.193z"
			/>
		<g opacity="0.4611" clip-path="url(#SVGID_67_)" enable-background="new    ">
			<g>
				<defs>
					<rect id="SVGID_68_" x="98.099" y="184.236" width="16.026" height="20.036"/>
				</defs>
				<clipPath id="SVGID_69_">
					<use xlink:href="#SVGID_68_"  overflow="visible"/>
				</clipPath>
				<g clip-path="url(#SVGID_69_)">
					<defs>
						<path id="SVGID_70_" d="M111.361,200.654c-1.961,3.459-6.31,4.648-9.707,2.645c-3.4-1.996-4.566-6.424-2.601-9.883
							c1.963-3.463,10.437-1.816,13.404-9.18C115.855,186.24,113.324,197.191,111.361,200.654"/>
					</defs>
					<clipPath id="SVGID_71_">
						<use xlink:href="#SVGID_70_"  overflow="visible"/>
					</clipPath>
					<defs>
						<filter id="Adobe_OpacityMaskFilter_9_" filterUnits="userSpaceOnUse" x="88.129" y="175.97" width="36.685" height="37.6">
							<feColorMatrix  type="matrix" values="1 0 0 0 0  0 1 0 0 0  0 0 1 0 0  0 0 0 1 0"/>
						</filter>
					</defs>
					<mask maskUnits="userSpaceOnUse" x="88.129" y="175.97" width="36.685" height="37.6" id="SVGID_72_">
						<g filter="url(#Adobe_OpacityMaskFilter_9_)">
							
								<radialGradient id="SVGID_73_" cx="-0.0029" cy="250" r="1.0012" gradientTransform="matrix(6.1585 3.6149 -5.4006 9.5295 1455.3699 -2185.3472)" gradientUnits="userSpaceOnUse">
								<stop  offset="0" style="stop-color:#FFFFFF"/>
								<stop  offset="1" style="stop-color:#000000"/>
							</radialGradient>
							<polygon clip-path="url(#SVGID_71_)" fill="url(#SVGID_73_)" points="88.129,200.044 111.17,213.569 124.814,189.495 
								101.772,175.97 							"/>
						</g>
					</mask>
					
						<radialGradient id="SVGID_74_" cx="-0.0024" cy="250" r="1.001" gradientTransform="matrix(6.1585 3.6149 -5.4006 9.5295 1455.3699 -2185.3511)" gradientUnits="userSpaceOnUse">
						<stop  offset="0" style="stop-color:#FFFFFF"/>
						<stop  offset="1" style="stop-color:#FFFFFF"/>
					</radialGradient>
					<polygon clip-path="url(#SVGID_71_)" mask="url(#SVGID_72_)" fill="url(#SVGID_74_)" points="88.129,200.044 111.17,213.569 
						124.814,189.495 101.772,175.97 					"/>
				</g>
			</g>
		</g>
	</g>
	<g clip-path="url(#SVGID_2_)">
		<defs>
			<path id="SVGID_75_" d="M106.205,204.269c0,0-10.44-10.22,3.912-15.708c-0.289-0.312-0.733-0.453-1.283-0.453
				C103.728,188.107,89.514,200.387,106.205,204.269"/>
		</defs>
		<clipPath id="SVGID_76_">
			<use xlink:href="#SVGID_75_"  overflow="visible"/>
		</clipPath>
		<defs>
			<filter id="Adobe_OpacityMaskFilter_10_" filterUnits="userSpaceOnUse" x="85.581" y="181.956" width="28.47" height="28.464">
				<feColorMatrix  type="matrix" values="1 0 0 0 0  0 1 0 0 0  0 0 1 0 0  0 0 0 1 0"/>
			</filter>
		</defs>
		<mask maskUnits="userSpaceOnUse" x="85.581" y="181.956" width="28.47" height="28.464" id="SVGID_77_">
			<g filter="url(#Adobe_OpacityMaskFilter_10_)">
				
					<linearGradient id="SVGID_78_" gradientUnits="userSpaceOnUse" x1="0" y1="250.3828" x2="1" y2="250.3828" gradientTransform="matrix(3.5833 13.562 -12.2408 3.9674 3162.3372 -806.1757)">
					<stop  offset="0" style="stop-color:#FFFFFF"/>
					<stop  offset="1" style="stop-color:#000000"/>
				</linearGradient>
				<polygon clip-path="url(#SVGID_76_)" fill="url(#SVGID_78_)" points="85.581,189.382 91.139,210.42 114.05,202.994 
					108.492,181.956 				"/>
			</g>
		</mask>
		
			<linearGradient id="SVGID_79_" gradientUnits="userSpaceOnUse" x1="0" y1="250.3828" x2="1" y2="250.3828" gradientTransform="matrix(3.5833 13.562 -12.2408 3.9674 3162.3394 -806.166)">
			<stop  offset="0" style="stop-color:#FFFFFF"/>
			<stop  offset="1" style="stop-color:#FFFFFF"/>
		</linearGradient>
		<polygon clip-path="url(#SVGID_76_)" mask="url(#SVGID_77_)" fill="url(#SVGID_79_)" points="85.581,189.382 91.139,210.42 
			114.05,202.994 108.492,181.956 		"/>
	</g>
	<g clip-path="url(#SVGID_2_)">
		<defs>
			<rect id="SVGID_80_" width="250" height="250"/>
		</defs>
		<clipPath id="SVGID_81_">
			<use xlink:href="#SVGID_80_"  overflow="visible"/>
		</clipPath>
		<path clip-path="url(#SVGID_81_)" fill="#729FCF" d="M156.699,185.191c-4.168-2.387-5.596-7.684-3.193-11.814
			c5.338-8.346,12.441-6.197,16.076-14.994C174.633,163.729,172.76,191.428,156.699,185.191"/>
		<path clip-path="url(#SVGID_81_)" fill="none" stroke="#000000" stroke-width="3" stroke-miterlimit="2" d="M156.699,185.191
			c-4.168-2.387-5.596-7.684-3.193-11.814c5.338-8.346,12.441-6.197,16.076-14.994C174.633,163.729,172.76,191.428,156.699,185.191z
			"/>
		<g opacity="0.4611" clip-path="url(#SVGID_81_)" enable-background="new    ">
			<g>
				<defs>
					<rect id="SVGID_82_" x="154.188" y="164.236" width="16.026" height="20.035"/>
				</defs>
				<clipPath id="SVGID_83_">
					<use xlink:href="#SVGID_82_"  overflow="visible"/>
				</clipPath>
				<g clip-path="url(#SVGID_83_)">
					<defs>
						<path id="SVGID_84_" d="M167.451,180.654c-1.961,3.457-6.313,4.646-9.707,2.645c-3.4-1.996-4.566-6.426-2.604-9.883
							c1.965-3.463,10.439-1.816,13.404-9.18C171.945,166.24,169.414,177.191,167.451,180.654"/>
					</defs>
					<clipPath id="SVGID_85_">
						<use xlink:href="#SVGID_84_"  overflow="visible"/>
					</clipPath>
					<defs>
						
							<filter id="Adobe_OpacityMaskFilter_11_" filterUnits="userSpaceOnUse" x="144.22" y="155.97" width="36.684" height="37.598">
							<feColorMatrix  type="matrix" values="1 0 0 0 0  0 1 0 0 0  0 0 1 0 0  0 0 0 1 0"/>
						</filter>
					</defs>
					<mask maskUnits="userSpaceOnUse" x="144.22" y="155.97" width="36.684" height="37.598" id="SVGID_86_">
						<g filter="url(#Adobe_OpacityMaskFilter_11_)">
							
								<radialGradient id="SVGID_87_" cx="-0.002" cy="250" r="1.0008" gradientTransform="matrix(6.1585 3.615 -5.4007 9.5296 1511.4697 -2205.3643)" gradientUnits="userSpaceOnUse">
								<stop  offset="0" style="stop-color:#FFFFFF"/>
								<stop  offset="1" style="stop-color:#000000"/>
							</radialGradient>
							<polygon clip-path="url(#SVGID_85_)" fill="url(#SVGID_87_)" points="144.22,180.043 167.261,193.567 180.903,169.494 
								157.862,155.97 							"/>
						</g>
					</mask>
					
						<radialGradient id="SVGID_88_" cx="-0.002" cy="250" r="1.0008" gradientTransform="matrix(6.1585 3.615 -5.4007 9.5296 1511.4697 -2205.3701)" gradientUnits="userSpaceOnUse">
						<stop  offset="0" style="stop-color:#FFFFFF"/>
						<stop  offset="1" style="stop-color:#FFFFFF"/>
					</radialGradient>
					<polygon clip-path="url(#SVGID_85_)" mask="url(#SVGID_86_)" fill="url(#SVGID_88_)" points="144.22,180.043 167.261,193.567 
						180.903,169.494 157.862,155.97 					"/>
				</g>
			</g>
		</g>
	</g>
	<g clip-path="url(#SVGID_2_)">
		<defs>
			<path id="SVGID_89_" d="M162.293,184.268c0,0-10.438-10.219,3.914-15.707c-0.289-0.311-0.733-0.453-1.284-0.453
				C159.817,168.108,145.602,180.387,162.293,184.268"/>
		</defs>
		<clipPath id="SVGID_90_">
			<use xlink:href="#SVGID_89_"  overflow="visible"/>
		</clipPath>
		<defs>
			<filter id="Adobe_OpacityMaskFilter_12_" filterUnits="userSpaceOnUse" x="141.669" y="161.955" width="28.472" height="28.465">
				<feColorMatrix  type="matrix" values="1 0 0 0 0  0 1 0 0 0  0 0 1 0 0  0 0 0 1 0"/>
			</filter>
		</defs>
		<mask maskUnits="userSpaceOnUse" x="141.669" y="161.955" width="28.472" height="28.465" id="SVGID_91_">
			<g filter="url(#Adobe_OpacityMaskFilter_12_)">
				
					<linearGradient id="SVGID_92_" gradientUnits="userSpaceOnUse" x1="0" y1="250.3828" x2="1" y2="250.3828" gradientTransform="matrix(3.5827 13.5598 -12.2389 3.9668 3217.9543 -826.0122)">
					<stop  offset="0" style="stop-color:#FFFFFF"/>
					<stop  offset="1" style="stop-color:#000000"/>
				</linearGradient>
				<polygon clip-path="url(#SVGID_90_)" fill="url(#SVGID_92_)" points="141.669,169.382 147.228,190.42 170.141,182.993 
					164.582,161.955 				"/>
			</g>
		</mask>
		
			<linearGradient id="SVGID_93_" gradientUnits="userSpaceOnUse" x1="0" y1="250.3828" x2="1" y2="250.3828" gradientTransform="matrix(3.5827 13.5598 -12.2389 3.9668 3217.9543 -826.0122)">
			<stop  offset="0" style="stop-color:#FFFFFF"/>
			<stop  offset="1" style="stop-color:#FFFFFF"/>
		</linearGradient>
		<polygon clip-path="url(#SVGID_90_)" mask="url(#SVGID_91_)" fill="url(#SVGID_93_)" points="141.669,169.382 147.228,190.42 
			170.141,182.993 164.582,161.955 		"/>
	</g>
</g>
</svg>
