<?xml version="1.0" encoding="utf-8"?>
<!-- Generator: Adobe Illustrator 16.0.0, SVG Export Plug-In . SVG Version: 6.00 Build 0)  -->
<!DOCTYPE svg PUBLIC "-//W3C//DTD SVG 1.1//EN" "http://www.w3.org/Graphics/SVG/1.1/DTD/svg11.dtd">
<svg version="1.1" id="Calque_1" xmlns="http://www.w3.org/2000/svg" xmlns:xlink="http://www.w3.org/1999/xlink" x="0px" y="0px"
	 width="250px" height="250px" viewBox="0 0 250 250" enable-background="new 0 0 250 250" xml:space="preserve">
<g>
	<g>
		<path fill="#FFFFFF" stroke="#000000" stroke-width="2.544" stroke-miterlimit="10" d="M61.186,128.186
			c0,0,0.695,9.215,0.346,12.176c-0.346,2.955-3.478,7.477-3.478,7.477s26.959,8.871,42.96,6.262
			c16.005-2.609,46.095-13.217,50.442-14.955c4.348-1.744,10.514-3.613,11.907-4.139c1.391-0.521,3.695,1.232,3.695,1.232
			l-7.13-12.699c0,0-0.35-2.59-0.698-8.156c-0.346-5.566-1.167-14.506-1.167-14.506L82.23,115.488L61.186,128.186z"/>
		<path fill="#C7C6C7" d="M155.654,60.697c-5.374,0-10.308,2-14.184,5.336c-8.43-8.875-22.834-14.73-39.194-14.73
			c-21.781,0-40.102,10.375-45.458,24.453c-10.147,0.49,14.57,50.246,16.691,51.717c1.985,0.879,4.506,1.406,7.254,1.406
			c5.564,0,10.205-2.158,11.314-5.029c1.011,2.096,3.05,3.531,5.405,3.531c3.165,0,5.764-2.59,6.059-5.896
			c3.858,4.225,9.369,6.871,15.486,6.871c9.495,0,17.523-6.357,20.189-15.111c2.107,0.65,4.456,1.025,6.947,1.025
			c6.617,0,9.658-1.881,12.13-5.551C156,98.002,168.117,60.697,155.654,60.697z"/>
		<path fill="#FFFFFF" stroke="#000000" stroke-width="2.544" stroke-miterlimit="10" d="M179.189,81.313
			c0-13.252-10.105-23.998-22.569-23.998c-5.375,0-10.311,2.002-14.185,5.336c-8.431-8.877-22.833-14.727-39.193-14.727
			c-21.785,0-40.104,10.373-45.458,24.451c-10.15,0.49-18.246,10.258-18.246,22.238c0,5.256,1.559,10.082,4.163,13.887
			c-1.057,2.104-1.663,4.438-1.663,6.908c0,9.029,7.866,16.35,17.568,16.35c6.271,0,11.759-3.068,14.869-7.67
			c1.982,0.883,4.504,1.408,7.254,1.408c5.564,0,10.206-2.156,11.313-5.025c1.012,2.094,3.05,3.529,5.406,3.529
			c3.165,0,5.763-2.592,6.06-5.896c3.857,4.223,9.369,6.871,15.487,6.871c9.492,0,17.518-6.357,20.188-15.113
			c2.104,0.65,4.454,1.025,6.945,1.025c6.616,0,12.295-2.572,14.766-6.242C171.813,102.117,179.189,92.631,179.189,81.313z"/>
		<path fill="#DADADA" stroke="#000000" stroke-width="2.544" stroke-miterlimit="10" d="M155.966,61.568
			c-5.846,0-11.142,2.344-15.007,6.139c-2.308-4.592-8.417-7.879-15.614-7.879c-8.737,0-15.883,4.842-16.544,10.986
			c2.219-3.461,5.502-5.66,9.177-5.66c5.529,0,10.181,4.973,11.62,11.754c2.379-2.129,5.337-3.406,8.555-3.406
			c6.424,0,11.842,5.037,13.582,11.938c0.374,0.953,0.715,1.934,0.942,2.848c0.87,3.479,1.044,6.609,1.044,6.609
			s4.696-4.004,6.088-6.609c0.718-1.344,1.428-3.967,1.958-6.207c1.155,3.008,1.868,7.014,1.868,11.426
			c0,3.703-0.503,7.117-1.35,9.9c8.739-2.695,15.09-10.83,15.09-20.447C177.373,71.146,167.787,61.568,155.966,61.568z"/>
	</g>
	<g id="mütze_1_">
		<g id="XMLID_25_">
			<g>
				<path fill="#282A5E" d="M212.963,153.029c0,0,22.231,5.461,15.517,14.891c-6.711,9.441-34.605,22.652-48.449,24.127
					c-13.841,1.469-50.064,1.07-55.792-0.838c-2.514-0.844-7.128-5.242-7.128-5.242s39.222-25.594,55.787-28.32
					C189.466,154.92,212.963,153.029,212.963,153.029z"/>
				<path fill="#282A5E" d="M156.14,116.369c2.917-0.891,8.225-1.25,10.888-1.09c3.349,0.211,16.57,8.176,17.618,9.441
					c1.052,1.252,17.824,5.449,19.505,5.449s3.561,3.781,4.41,4.406c0.833,0.629,2.095,1.252,3.768,0.629
					c1.681-0.629,3.778,2.305,3.778,2.305l-5.451,8.6c0,0-33.354,5.457-43.628,8.396c-10.273,2.93-53.91,24.957-53.91,24.957
					s-3.974-2.311-6.494-1.682c-2.514,0.637-4.198-0.629-6.088-4.613c-1.891-3.98,2.938-9.643,6.088-13.631
					c3.145-3.99,6.494-7.133,9.641-9.023c3.151-1.891,3.569-5.453,6.089-10.482c2.513-5.041,13.001-14.268,18.034-19.303
					c5.03-5.029,15.738-4.406,15.738-4.406L156.14,116.369z"/>
				<path fill="#F9B334" d="M210.656,146.109l2.307,6.92c0,0-23.497,1.891-40.065,4.617c-16.565,2.727-55.787,28.32-55.787,28.32
					l-3.994-6.504c0,0,43.631-22.027,53.91-24.957C177.302,151.566,210.656,146.109,210.656,146.109z"/>
			</g>
			<g>
				<path fill="none" stroke="#000000" stroke-width="2.6876" stroke-miterlimit="10" d="M212.963,153.029l-2.307-6.92
					c0,0-33.354,5.457-43.628,8.396c-10.278,2.93-53.91,24.957-53.91,24.957l3.994,6.504c0,0,39.222-25.594,55.787-28.32
					C189.466,154.92,212.963,153.029,212.963,153.029s22.231,5.461,15.517,14.891c-6.711,9.441-34.605,22.652-48.449,24.127
					c-13.841,1.469-50.064,1.07-55.792-0.838c-2.514-0.844-7.128-5.242-7.128-5.242"/>
				<path fill="none" stroke="#000000" stroke-width="2.6876" stroke-miterlimit="10" d="M210.656,146.109l5.451-8.6
					c0,0-2.097-2.934-3.778-2.305c-1.673,0.623-2.936,0-3.768-0.629c-0.849-0.625-2.728-4.406-4.41-4.406
					s-18.453-4.197-19.509-5.449c-1.045-1.266-14.266-9.23-17.618-9.441c-2.66-0.16-7.968,0.199-10.884,1.09
					c-0.757,0.229-1.358,0.492-1.701,0.803c-1.679,1.459-2.932,2.094-2.932,2.094"/>
				<path fill="none" stroke="#000000" stroke-width="2.6876" stroke-miterlimit="10" d="M156.126,116.322
					c0,0-10.708-0.623-15.738,4.406c-5.033,5.035-15.521,14.262-18.037,19.303c-2.517,5.029-2.938,8.592-6.088,10.482
					c-3.145,1.891-6.494,5.033-9.639,9.021c-3.15,3.99-7.979,9.652-6.088,13.633c1.891,3.984,3.575,5.25,6.088,4.613
					c2.516-0.629,6.494,1.682,6.494,1.682"/>
			</g>
		</g>
		<path fill="#F9B334" d="M186.715,124.547l-16.791,4.424c-1.648-1.643-4.043-2.41-6.395-1.789c-2.48,0.652-4.25,2.67-4.781,5.088
			l-16.375,4.316l-2.561,0.994l3.635,1.432c0,0,1.899-0.609,3.732-0.656c1.833-0.049,1.725,1.605,1.725,1.605
			s2.947-2.402,4.294-2.646c1.345-0.246,1.935,2.416,1.935,2.416s0.995-1.992,2.139-2.184c0.703-0.121,2.329,0.723,3.462,1.381
			c1.648,1.617,4.021,2.357,6.35,1.744c2.437-0.641,4.188-2.598,4.75-4.957c0.667-1.139,1.695-2.744,2.384-2.994
			c1.095-0.398,2.941,0.855,2.941,0.855s-0.797-2.611,0.494-3.059c1.292-0.451,5.044,0.189,5.044,0.189s-0.912-1.387,0.708-2.25
			c1.616-0.859,3.572-1.262,3.572-1.262l2.457-3.033L186.715,124.547z"/>
	</g>
	<g id="hammer_1_">
		<path fill="#3BA9E0" stroke="#000000" stroke-width="2.6125" stroke-miterlimit="10" d="M54.667,166.305
			c0,0-4.558-2.434-7.239-0.162c-2.687,2.271-5.752,5.877-5.252,7.957c0.506,2.072,0.389,4.973,0.389,4.973
			s-3.113,3.551-4.478,5.543c-1.363,1.994-3.198,4.969-3.198,4.969s-5.164,1.115-8.054-1.131c-2.894-2.246-5.247-3.508-6.03-5.277
			c-0.785-1.766-0.497-4.6-0.497-4.6l7.698-9.852c0,0,3.856-0.066,4.748-1.084c0.887-1.01,3.07-2.84,2.586-4.65
			c-0.484-1.805-0.215-3.391-1.458-4.412c-1.241-1.02-2.59-1.279-2.59-1.279s3.392-13.195,10.168-18.543
			c6.78-5.352,10.677-7.131,10.677-7.131s9.056-6.693,9.126-6.871c0.07-0.172,3.725,4.193,3.725,4.193L51.31,141.652l15.399-10.873
			l2.999,3.375c0,0-5.262,2.889-7.974,5.627c-2.71,2.744-5.97,4.627-6.58,6.961c-0.613,2.334,0.16,5.682,1.56,6.896
			c1.399,1.225,4.283,2.385,4.283,2.385"/>
		<path fill="#946137" stroke="#000000" stroke-width="2.6125" stroke-miterlimit="10" d="M60.717,155.922l87.769,32.811
			c0,0,0.935,5.1-1.154,7.945c-2.089,2.844-6.083,5.398-6.083,5.398l-86.583-35.771c0,0-0.133-4.234,1.32-6.182
			C57.443,158.174,60.717,155.922,60.717,155.922z"/>
		<path fill="none" stroke="#000000" stroke-width="2.6125" stroke-miterlimit="10" d="M28.005,168.725c0,0,2.363,5.178,5.557,7.262
			c3.193,2.09,5.16,2.92,6.634,3.064s2.369,0.021,2.369,0.021"/>
		<path fill="#7E4F25" d="M57.138,162.328l87.054,35.406c0,0-1.957,2.076-2.751,2.445c-0.793,0.365-85.153-34.523-85.153-34.523
			s0.026-1.479,0.24-2.121C56.749,162.9,57.138,162.328,57.138,162.328z"/>
	</g>
</g>
</svg>
