<?xml version="1.0" encoding="utf-8"?>
<!-- Generator: Adobe Illustrator 16.0.0, SVG Export Plug-In . SVG Version: 6.00 Build 0)  -->
<!DOCTYPE svg PUBLIC "-//W3C//DTD SVG 1.1//EN" "http://www.w3.org/Graphics/SVG/1.1/DTD/svg11.dtd">
<svg version="1.1" id="Calque_1" xmlns="http://www.w3.org/2000/svg" xmlns:xlink="http://www.w3.org/1999/xlink" x="0px" y="0px"
	 width="250px" height="250px" viewBox="0 0 250 250" enable-background="new 0 0 250 250" xml:space="preserve">
<g>
	<g>
		<linearGradient id="SVGID_1_" gradientUnits="userSpaceOnUse" x1="183.1504" y1="172.6074" x2="197.0615" y2="172.6074">
			<stop  offset="0" style="stop-color:#F9B347"/>
			<stop  offset="1" style="stop-color:#F49735"/>
		</linearGradient>
		<path fill="url(#SVGID_1_)" stroke="#000000" stroke-width="2.8172" stroke-miterlimit="10" d="M196.894,195.169
			c0,0,2.723-37.99-13.743-45.122l0.148,4.171l0.708,3.479c0,0,10.293,1.473,9.126,36.587"/>
		
			<path fill="#432918" stroke="#000000" stroke-width="2.8172" stroke-linecap="square" stroke-linejoin="bevel" stroke-miterlimit="10" d="
			M193.133,194.284c0,0-3.592,5.552-3.027,10.738c0.565,5.186,4.584,7.52,5.751,8.298c1.168,0.778,4.073-2.982,4.073-8.687
			c0-5.705-3.036-9.465-3.036-9.465L193.133,194.284z"/>
		<g>
			<linearGradient id="SVGID_2_" gradientUnits="userSpaceOnUse" x1="147.7456" y1="209.3887" x2="168.7646" y2="209.3887">
				<stop  offset="0" style="stop-color:#F9B347"/>
				<stop  offset="1" style="stop-color:#F49735"/>
			</linearGradient>
			<path fill="url(#SVGID_2_)" d="M152.032,185.834c0,0,2.333,13.743,1.815,16.337c-0.52,2.593-8.816,32.246-5.186,34.405
				c3.631,2.158,12.187,1.639,14.262-1.732c2.074-3.371,2.074-17.374,2.074-17.374l3.767-20.745l-1.691-15.817"/>
			<path d="M152.032,185.834c0.777,3.448,1.479,6.913,2.027,10.417c0.257,1.764,0.536,3.488,0.561,5.372
				c-0.021,0.255-0.034,0.523-0.072,0.77l-0.136,0.672l-0.284,1.3l-0.574,2.584c-0.748,3.445-1.532,6.877-2.215,10.324
				c-0.67,3.447-1.355,6.893-1.81,10.338c-0.227,1.717-0.401,3.445-0.428,5.106c-0.013,0.818,0.023,1.655,0.172,2.29
				c0.056,0.305,0.231,0.538,0.142,0.427l-0.026-0.021l-0.096-0.05l0.148,0.074l0.296,0.148l0.293,0.146l0.234,0.078
				c0.582,0.235,1.445,0.416,2.208,0.527c0.796,0.096,1.608,0.157,2.423,0.128c1.624-0.03,3.263-0.301,4.688-0.837
				c0.686-0.284,1.368-0.622,1.78-1.06c0.14-0.095,0.176-0.223,0.277-0.324l0.067-0.079l0.035-0.04
				c0.055-0.097-0.066,0.122-0.05,0.092l0.009-0.019l0.019-0.037l0.146-0.297c0.241-0.432,0.267-0.7,0.389-1.019
				c0.439-1.493,0.682-3.25,0.873-4.948c0.381-3.433,0.579-6.951,0.65-10.427l0.003-0.13l0.017-0.088
				c0.662-3.452,1.394-6.891,2.088-10.336c0.693-3.445,1.453-6.879,2.176-10.319l-0.007,0.204l-0.539-7.941
				c-0.168-2.648-0.315-5.299-0.441-7.952c0.438,2.619,0.854,5.241,1.25,7.865l1.153,7.876l0.012,0.079l-0.02,0.125
				c-0.532,3.475-1.028,6.956-1.59,10.426c-0.562,3.47-1.084,6.945-1.679,10.409l0.02-0.218c0.013,3.58-0.07,7.122-0.403,10.711
				c-0.194,1.804-0.397,3.567-0.932,5.47c-0.169,0.513-0.356,1.108-0.549,1.449l-0.144,0.299l-0.018,0.037l-0.009,0.019
				c0.011-0.018-0.118,0.213-0.072,0.126l-0.066,0.092l-0.135,0.183c-0.188,0.229-0.358,0.51-0.576,0.682
				c-0.825,0.84-1.773,1.291-2.699,1.688c-1.871,0.732-3.774,1.014-5.674,1.031c-1.922-0.002-3.757-0.153-5.771-0.927l-0.386-0.152
				l-0.297-0.151l-0.294-0.151l-0.147-0.075c0.013,0.008-0.16-0.089-0.107-0.062l-0.041-0.027l-0.082-0.058l-0.159-0.121
				c-0.758-0.702-0.881-1.354-1.036-1.894c-0.236-1.09-0.237-2.033-0.222-2.975c0.057-1.868,0.306-3.651,0.581-5.425
				c0.577-3.537,1.31-7.011,2.164-10.453c0.85-3.441,1.741-6.867,2.722-10.263l0.728-2.547l0.358-1.268l0.165-0.617
				c0.038-0.187,0.051-0.36,0.082-0.543c0.099-1.647-0.031-3.44-0.156-5.18C152.767,192.862,152.407,189.348,152.032,185.834z"/>
		</g>
		<g>
			<linearGradient id="SVGID_3_" gradientUnits="userSpaceOnUse" x1="112.5654" y1="208.8281" x2="127.3398" y2="208.8281">
				<stop  offset="0" style="stop-color:#F9B347"/>
				<stop  offset="1" style="stop-color:#F49735"/>
			</linearGradient>
			<path fill="url(#SVGID_3_)" d="M113.654,178.054c0,0-3.306,14.301,1.603,28.56c4.084,11.863-2.9,25.768,0.602,31.256
				c2.352,3.688,8.954,0.402,11.02,0c0,0,1.038-18.325,0-22.732c-1.035-4.408,0.462-35.008,0.462-35.008"/>
			<path d="M113.654,178.054c-0.244,1.49-0.389,2.992-0.486,4.493c-0.115,1.5-0.152,3.004-0.165,4.504
				c0.013,1.501,0.049,2.998,0.146,4.491l0.189,2.233l0.276,2.221c0.233,1.473,0.472,2.941,0.813,4.388
				c0.139,0.73,0.355,1.44,0.546,2.156c0.186,0.718,0.39,1.429,0.643,2.125c0.456,1.387,1.006,2.83,1.356,4.403
				c0.351,1.532,0.557,3.09,0.654,4.645c0.193,3.113-0.023,6.207-0.393,9.232c-0.35,3.022-0.865,6.015-1.032,8.905
				c-0.08,1.436-0.045,2.863,0.278,4.06c0.164,0.604,0.387,1.109,0.751,1.525c0.238,0.269,0.671,0.556,1.179,0.666
				c1.049,0.26,2.442,0.064,3.792-0.287c0.683-0.174,1.372-0.393,2.075-0.626c0.725-0.233,1.374-0.479,2.332-0.693l-1.13,1.295
				c0.282-4.78,0.453-9.591,0.543-14.367c0.03-2.378,0.045-4.793-0.172-7.06l-0.268-1.748c-0.087-0.726-0.097-1.291-0.122-1.926
				c-0.036-1.233-0.031-2.448-0.018-3.663c0.041-2.425,0.103-4.84,0.233-7.252c0.124-2.411,0.252-4.82,0.417-7.227
				c0.34-4.813,0.719-9.621,1.246-14.419c0.07,4.825,0.064,9.645,0.095,14.461c0.012,4.814,0.039,9.633,0.16,14.418
				c0.04,1.194,0.087,2.388,0.173,3.561c0.043,0.566,0.101,1.205,0.171,1.674c0.015,0.213,0.113,0.6,0.147,0.823
				c0.06,0.329,0.133,0.669,0.178,0.991c0.308,2.524,0.346,4.937,0.383,7.373c0.034,2.429-0.019,4.849-0.088,7.267
				c-0.071,2.419-0.163,4.828-0.284,7.252l-0.053,1.059l-1.077,0.236c-0.516,0.113-1.285,0.397-1.997,0.619
				c-0.731,0.233-1.483,0.465-2.265,0.656c-1.556,0.361-3.245,0.695-5.154,0.238c-0.955-0.246-1.895-0.745-2.63-1.635
				c-0.613-0.736-1.008-1.653-1.226-2.504c-0.446-1.731-0.391-3.367-0.287-4.934c0.249-3.133,0.83-6.089,1.23-9.052
				c0.404-2.955,0.727-5.897,0.639-8.818c-0.042-1.459-0.185-2.908-0.461-4.327c-0.254-1.386-0.737-2.788-1.141-4.292
				c-0.225-0.736-0.4-1.485-0.555-2.237c-0.161-0.752-0.347-1.497-0.453-2.257c-0.273-1.51-0.452-3.03-0.601-4.551l-0.136-2.286
				l-0.047-2.285c0.002-1.523,0.05-3.044,0.164-4.559C112.467,183.993,112.899,180.981,113.654,178.054z"/>
		</g>
		
			<path fill="#432918" stroke="#000000" stroke-width="2.8172" stroke-linecap="square" stroke-linejoin="bevel" stroke-miterlimit="10" d="
			M129.095,40.523c0,0,5.558,5.96,5.687,8.063c0,0-0.771-0.378-4.03-0.928c-3.263-0.551,9.658,18.317,4.542,15.567
			c-8.056-4.331,0.597,4.093,1.192,7.42c0.598,3.326-0.473,0.243-3.694-1.151c-3.696-1.599,3.269,6.104,3.523,11.684
			c0.257,5.581-4.774-1.505-4.774-1.505s12.516,21.866,3.241,13.744c-1.985-1.737,5.564,10.553,1.887,8.95
			c-1.461-0.638-5.68-2.753-4.638-0.699c1.381,2.72,4.202,6.412,4.35,6.588c4.221,4.989,0.064,6.141-6.59,4.222
			c-6.651-1.919-9.465-22.771-9.465-22.771V65.273l7.035-27.761L129.095,40.523"/>
		<linearGradient id="SVGID_4_" gradientUnits="userSpaceOnUse" x1="104.8359" y1="124.624" x2="183.6743" y2="124.624">
			<stop  offset="0" style="stop-color:#F9B347"/>
			<stop  offset="1" style="stop-color:#F49735"/>
		</linearGradient>
		
			<path fill="url(#SVGID_4_)" stroke="#000000" stroke-width="2.8172" stroke-linecap="square" stroke-linejoin="bevel" stroke-miterlimit="10" d="
			M104.836,68.364l3.112,73.126c0,0-13.484,34.749,16.337,42.269c29.822,7.52,53.42-5.705,53.42-5.705s18.93-32.154-10.632-36.822
			c0,0-13.74-3.112-22.818-2.854c-9.077,0.26-16.915-7.778-16.915-27.486c0-7.426-2.534-47.715-2.534-47.715"/>
		<g>
			<linearGradient id="SVGID_5_" gradientUnits="userSpaceOnUse" x1="120.644" y1="203.1563" x2="143.3398" y2="203.1563">
				<stop  offset="0" style="stop-color:#F9B347"/>
				<stop  offset="1" style="stop-color:#F49735"/>
			</linearGradient>
			<path fill="url(#SVGID_5_)" d="M122.332,165.315c0,0-5.187,24.325,2.623,42.146c6.09,13.895,1.988,28.225,4.442,31.324
				c2.965,3.746,12.735,2.544,13.863-2.21c0.994-4.195-7.765-30.058-6.143-38.873c1.359-7.397,1.172-20.687,1.172-20.687"/>
			<path d="M122.332,165.315c0,0-0.394,2.337-0.735,6.452c-0.355,4.106-0.621,10.021-0.008,17.023
				c0.295,3.498,0.891,7.26,1.897,11.116c0.515,1.924,1.148,3.868,1.94,5.787c0.4,0.948,0.853,1.943,1.272,2.97
				c0.427,1.064,0.804,2.123,1.123,3.221c1.321,4.375,1.897,9.082,2.043,13.801c0.067,2.36,0.019,4.733,0.016,7.06
				c0.002,1.159,0.013,2.319,0.13,3.38c0.058,0.524,0.146,1.043,0.285,1.407c0.046,0.159,0.191,0.362,0.149,0.334l0.295,0.331
				c0.065,0.051,0.123,0.1,0.18,0.155c1.334,1.076,3.628,1.411,5.669,1.165c2.042-0.226,4.169-1.11,5.024-2.496
				c0.105-0.169,0.185-0.343,0.251-0.521l0.041-0.136l0.022-0.067l0.011-0.033c-0.039,0.198-0.006,0.024-0.013,0.055l0.059-0.421
				c-0.003-0.271-0.011-0.866-0.079-1.386c-0.12-1.071-0.307-2.185-0.509-3.285c-0.416-2.208-0.898-4.401-1.376-6.562
				c-0.971-4.317-1.904-8.515-2.632-12.539s-1.322-7.869-1.306-11.533c0.03-0.921,0.057-1.822,0.231-2.725
				c0.14-0.845,0.326-1.659,0.432-2.438c0.262-1.559,0.45-3.083,0.606-4.505c0.306-2.852,0.48-5.355,0.604-7.418
				c0.244-4.126,0.336-6.492,0.337-6.492c0,0,0.031,0.591,0.089,1.699c0.049,1.107,0.133,2.734,0.148,4.807
				c0.023,2.072,0.027,4.59-0.075,7.484c-0.06,1.451-0.127,2.982-0.298,4.626c-0.072,0.829-0.213,1.642-0.31,2.477
				c-0.114,0.772-0.1,1.615-0.086,2.464c0.167,3.435,0.887,7.192,1.732,11.131c0.871,3.942,1.924,8.081,2.968,12.394
				c0.526,2.156,1.058,4.354,1.534,6.618c0.231,1.138,0.459,2.284,0.599,3.503c0.067,0.626,0.131,1.188,0.078,2.074l-0.059,0.44
				l-0.029,0.162l-0.02,0.07l-0.041,0.141l-0.084,0.281c-0.129,0.369-0.294,0.724-0.493,1.052c-0.809,1.319-2.011,2.167-3.217,2.759
				c-1.223,0.575-2.502,0.923-3.801,1.084c-1.298,0.168-2.622,0.148-3.949-0.085c-1.319-0.255-2.674-0.727-3.86-1.709l-0.471-0.445
				l-0.292-0.334c-0.389-0.509-0.52-0.83-0.673-1.228c-0.266-0.749-0.351-1.41-0.423-2.057c-0.131-1.288-0.126-2.491-0.123-3.687
				c0.021-2.382,0.082-4.699,0.034-6.991c-0.048-4.575-0.509-9.049-1.667-13.194c-0.28-1.035-0.618-2.058-0.962-3.027
				c-0.369-1.003-0.777-1.985-1.174-3.016c-0.769-2.05-1.364-4.103-1.834-6.118c-0.933-4.036-1.317-7.927-1.473-11.5
				c-0.172-3.578-0.015-6.855,0.192-9.742c0.215-2.889,0.529-5.391,0.834-7.442c0.302-2.053,0.642-3.647,0.867-4.733
				C122.199,165.893,122.332,165.315,122.332,165.315z"/>
		</g>
		<g>
			<linearGradient id="SVGID_6_" gradientUnits="userSpaceOnUse" x1="158.4243" y1="194.2842" x2="187.5586" y2="194.2842">
				<stop  offset="0" style="stop-color:#F9B347"/>
				<stop  offset="1" style="stop-color:#F49735"/>
			</linearGradient>
			<path fill="url(#SVGID_6_)" d="M181.205,151.992c0,0,5.575,8.688,6.354,37.472c0,0-3.886,34.748-3.552,43.176
				c0.195,4.916-16.345,5.751-15.639-0.518c0.646-5.725,6.225-37.824,6.225-37.824s-22.3-15.727-14.521-38.805"/>
			<path d="M181.205,151.992c0.844,1.358,1.441,2.854,2.02,4.346c0.55,1.504,1.029,3.035,1.438,4.583
				c0.214,0.772,0.418,1.548,0.593,2.329c0.18,0.78,0.381,1.558,0.53,2.344l0.479,2.355l0.41,2.368
				c0.286,1.578,0.481,3.168,0.709,4.755c0.179,1.591,0.358,3.184,0.518,4.778c0.129,1.596,0.275,3.191,0.39,4.789l0.268,4.797
				c0.001,0.033,0.001,0.066-0.002,0.099l-0.004,0.04c-0.837,8.393-1.582,16.803-2.282,25.201
				c-0.334,4.199-0.647,8.404-0.834,12.589c-0.058,1.049-0.069,2.084-0.096,3.123c-0.016,0.521,0.011,1.019,0.01,1.529l0.004,0.84
				c-0.021,0.504-0.137,0.919-0.308,1.303c-0.351,0.775-0.897,1.309-1.431,1.721c-0.542,0.403-1.102,0.702-1.661,0.94
				c-1.121,0.478-2.249,0.747-3.38,0.924c-2.263,0.328-4.546,0.312-6.855-0.284c-1.145-0.322-2.34-0.78-3.396-1.772
				c-0.517-0.494-0.978-1.164-1.202-1.929c-0.118-0.379-0.171-0.773-0.178-1.152c-0.016-0.374,0.047-0.786,0.079-1.003
				c0.558-4.171,1.296-8.407,1.974-12.556c1.383-8.338,2.846-16.654,4.354-24.967l0.516,1.246c-0.817-0.606-1.516-1.204-2.237-1.839
				c-0.713-0.628-1.396-1.286-2.069-1.952c-1.332-1.347-2.578-2.774-3.74-4.268c-1.161-1.494-2.232-3.059-3.195-4.689
				c-0.481-0.815-0.925-1.652-1.339-2.505c-0.402-0.857-0.805-1.715-1.137-2.603c-0.362-0.875-0.645-1.781-0.934-2.681
				c-0.256-0.912-0.513-1.821-0.679-2.754c-0.196-0.924-0.307-1.865-0.412-2.801l-0.11-1.408c-0.024-0.47-0.018-0.941-0.027-1.411
				c-0.033-0.938,0.066-1.877,0.119-2.81c0.122-0.929,0.2-1.86,0.406-2.772c0.149-0.922,0.401-1.82,0.661-2.712
				c0.241-0.896,0.604-1.757,0.897-2.631c-0.206,0.904-0.477,1.787-0.625,2.697c-0.164,0.907-0.323,1.811-0.409,2.725
				c-0.135,0.907-0.142,1.825-0.192,2.735c0.018,0.912-0.012,1.825,0.09,2.73c0.044,0.453,0.071,0.906,0.128,1.356l0.208,1.345
				c0.169,0.89,0.342,1.779,0.597,2.647c0.229,0.874,0.506,1.733,0.801,2.586c0.323,0.843,0.637,1.688,1.028,2.502
				c0.36,0.826,0.789,1.622,1.215,2.415c0.438,0.788,0.906,1.558,1.389,2.319c0.978,1.515,2.056,2.965,3.218,4.345
				c1.16,1.382,2.41,2.688,3.714,3.932c0.655,0.617,1.318,1.228,2.006,1.805c0.678,0.571,1.403,1.155,2.081,1.635
				c0.408,0.287,0.593,0.773,0.518,1.235l-0.002,0.011l-4.124,24.982c-0.665,4.187-1.362,8.273-1.905,12.475
				c-0.042,0.305-0.059,0.419-0.051,0.573c0.003,0.147,0.023,0.281,0.064,0.406c0.07,0.251,0.218,0.487,0.458,0.724
				c0.481,0.476,1.299,0.858,2.176,1.099c1.779,0.479,3.807,0.529,5.713,0.257c0.953-0.141,1.894-0.368,2.719-0.717
				c0.819-0.327,1.536-0.862,1.695-1.268c0.047-0.097,0.063-0.201,0.072-0.224l0-0.743c0-0.545-0.014-1.104,0.007-1.637
				c0.041-1.071,0.068-2.146,0.14-3.205c0.245-4.249,0.614-8.462,1.004-12.675c0.778-8.424,1.754-16.814,2.759-25.209l-0.006,0.139
				l-0.101-4.762c-0.049-1.586-0.13-3.171-0.193-4.758c-0.094-1.584-0.207-3.167-0.32-4.75c-0.166-1.577-0.25-3.166-0.451-4.74
				l-0.273-2.365l-0.342-2.356c-0.103-0.788-0.259-1.565-0.393-2.348c-0.129-0.784-0.288-1.562-0.457-2.337
				c-0.154-0.78-0.338-1.552-0.533-2.321c-0.179-0.774-0.411-1.532-0.615-2.302C182.42,154.935,181.942,153.408,181.205,151.992z"/>
		</g>
		
			<path fill="#432918" stroke="#000000" stroke-width="2.8172" stroke-linecap="square" stroke-linejoin="bevel" stroke-miterlimit="10" d="
			M168.765,229.239c0,0,2.791,4.309,14.908,1.196l0.283,2.754c0,0-1.674,3.594-7.597,3.379c-5.923-0.216-7.829-3.034-7.829-3.034
			L168.765,229.239z"/>
		
			<path fill="#432918" stroke="#000000" stroke-width="2.8172" stroke-linecap="square" stroke-linejoin="bevel" stroke-miterlimit="10" d="
			M147.745,231.563c0,0,2.288,3.657,15.438,0v2.778c0,0-2.438,3.032-5.695,3.294c-3.342,0.27-3.187,1.368-8.826-1.06
			C147.745,236.182,147.745,231.563,147.745,231.563z"/>
		
			<path fill="#432918" stroke="#000000" stroke-width="2.8172" stroke-linecap="square" stroke-linejoin="bevel" stroke-miterlimit="10" d="
			M128.121,236.576c0,0,7.278,1.063,14.188-1.667c0,0,0.413,0.509,0.71,0.935c0.296,0.425,0.703,4.112-5.374,4.56
			C131.569,240.852,129.856,240.36,128.121,236.576z"/>
		
			<path fill="#432918" stroke="#000000" stroke-width="2.8172" stroke-linecap="square" stroke-linejoin="bevel" stroke-miterlimit="10" d="
			M127.099,233.189c-0.022,0.608-12.34,1.72-12.34,1.72s0.397,5.362,7.005,4.438C128.369,238.421,127.099,233.189,127.099,233.189z"
			/>
		<linearGradient id="SVGID_7_" gradientUnits="userSpaceOnUse" x1="153.5229" y1="151.0713" x2="170.8789" y2="151.0713">
			<stop  offset="0" style="stop-color:#BD8B38"/>
			<stop  offset="0.1275" style="stop-color:#B28032"/>
			<stop  offset="0.4108" style="stop-color:#A06C27"/>
			<stop  offset="0.6997" style="stop-color:#966121"/>
			<stop  offset="1" style="stop-color:#925D1F"/>
		</linearGradient>
		<path fill="url(#SVGID_7_)" stroke="#000000" stroke-width="2.8172" stroke-miterlimit="10" d="M153.977,143.903
			c0,0,1.706-1.705,3.667-1.365c1.963,0.342,9.126,3.07,11.94,3.838c2.813,0.769,0.512,8.444-1.877,10.917
			c-2.387,2.473-4.093,4.605-6.651-2.389c-2.56-6.992-4.009-7.078-4.009-7.078S152.016,146.632,153.977,143.903z"/>
		<linearGradient id="SVGID_8_" gradientUnits="userSpaceOnUse" x1="164.3433" y1="164.165" x2="175.5474" y2="164.165">
			<stop  offset="0" style="stop-color:#BD8B38"/>
			<stop  offset="0.1275" style="stop-color:#B28032"/>
			<stop  offset="0.4108" style="stop-color:#A06C27"/>
			<stop  offset="0.6997" style="stop-color:#966121"/>
			<stop  offset="1" style="stop-color:#925D1F"/>
		</linearGradient>
		<path fill="url(#SVGID_8_)" stroke="#000000" stroke-width="2.8172" stroke-miterlimit="10" d="M172.568,157.293
			c0,0-8.869,7.078-8.188,9.552c0.683,2.474,6.389,4.691,8.609,4.18C175.212,170.512,177.601,156.185,172.568,157.293z"/>
		<linearGradient id="SVGID_9_" gradientUnits="userSpaceOnUse" x1="173.9014" y1="151.5156" x2="179.4355" y2="151.5156">
			<stop  offset="0" style="stop-color:#BD8B38"/>
			<stop  offset="0.1275" style="stop-color:#B28032"/>
			<stop  offset="0.4108" style="stop-color:#A06C27"/>
			<stop  offset="0.6997" style="stop-color:#966121"/>
			<stop  offset="1" style="stop-color:#925D1F"/>
		</linearGradient>
		<path fill="url(#SVGID_9_)" stroke="#000000" stroke-width="2.8172" stroke-miterlimit="10" d="M175.895,148.168
			c0,0-2.898,1.108-1.705,4.521c1.192,3.411,2.899,1.791,3.923,1.791S181.356,149.335,175.895,148.168z"/>
		<linearGradient id="SVGID_10_" gradientUnits="userSpaceOnUse" x1="170.686" y1="176.6016" x2="182.7148" y2="176.6016">
			<stop  offset="0" style="stop-color:#BD8B38"/>
			<stop  offset="0.1275" style="stop-color:#B28032"/>
			<stop  offset="0.4108" style="stop-color:#A06C27"/>
			<stop  offset="0.6997" style="stop-color:#966121"/>
			<stop  offset="1" style="stop-color:#925D1F"/>
		</linearGradient>
		<path fill="url(#SVGID_10_)" stroke="#000000" stroke-width="2.8172" stroke-miterlimit="10" d="M178.369,171.099
			c0,0-10.234,3.592-7.079,7.516s8.271,3.839,10.489,3.07C183.997,180.917,182.036,171.599,178.369,171.099z"/>
		<linearGradient id="SVGID_11_" gradientUnits="userSpaceOnUse" x1="140.7305" y1="163.1396" x2="151.9463" y2="163.1396">
			<stop  offset="0" style="stop-color:#BD8B38"/>
			<stop  offset="0.1275" style="stop-color:#B28032"/>
			<stop  offset="0.4108" style="stop-color:#A06C27"/>
			<stop  offset="0.6997" style="stop-color:#966121"/>
			<stop  offset="1" style="stop-color:#925D1F"/>
		</linearGradient>
		<path fill="url(#SVGID_11_)" stroke="#000000" stroke-width="2.8172" stroke-miterlimit="10" d="M147.745,158.317
			c0,0,5.465-1.194,3.929,3.069c-1.535,4.265-4.69,7.505-5.373,6.567C145.618,167.016,133.24,158.99,147.745,158.317z"/>
		<linearGradient id="SVGID_12_" gradientUnits="userSpaceOnUse" x1="143.2422" y1="150.2334" x2="152.8667" y2="150.2334">
			<stop  offset="0" style="stop-color:#BD8B38"/>
			<stop  offset="0.1275" style="stop-color:#B28032"/>
			<stop  offset="0.4108" style="stop-color:#A06C27"/>
			<stop  offset="0.6997" style="stop-color:#966121"/>
			<stop  offset="1" style="stop-color:#925D1F"/>
		</linearGradient>
		<path fill="url(#SVGID_12_)" stroke="#000000" stroke-width="2.8172" stroke-miterlimit="10" d="M146.339,147.059
			c0,0-6.263,4.605-0.976,7.164s8.271-0.333,7.332-4.176C151.759,146.206,151.067,143.222,146.339,147.059z"/>
		<linearGradient id="SVGID_13_" gradientUnits="userSpaceOnUse" x1="132.0405" y1="155.8252" x2="139.3687" y2="155.8252">
			<stop  offset="0" style="stop-color:#BD8B38"/>
			<stop  offset="0.1275" style="stop-color:#B28032"/>
			<stop  offset="0.4108" style="stop-color:#A06C27"/>
			<stop  offset="0.6997" style="stop-color:#966121"/>
			<stop  offset="1" style="stop-color:#925D1F"/>
		</linearGradient>
		<path fill="url(#SVGID_13_)" stroke="#000000" stroke-width="2.8172" stroke-miterlimit="10" d="M138.893,151.992
			c0,0-7.262,1.378-6.834,4.447c0.427,3.07,3.412,2.923,4.861,3.21S140.268,152.916,138.893,151.992z"/>
		<linearGradient id="SVGID_14_" gradientUnits="userSpaceOnUse" x1="126.8271" y1="144.4004" x2="138.0625" y2="144.4004">
			<stop  offset="0" style="stop-color:#BD8B38"/>
			<stop  offset="0.1275" style="stop-color:#B28032"/>
			<stop  offset="0.4108" style="stop-color:#A06C27"/>
			<stop  offset="0.6997" style="stop-color:#966121"/>
			<stop  offset="1" style="stop-color:#925D1F"/>
		</linearGradient>
		<path fill="url(#SVGID_14_)" stroke="#000000" stroke-width="2.8172" stroke-miterlimit="10" d="M128.987,138.872
			c0,0-4.86,1.704,0,7.76c4.863,6.057,8.614,2.475,8.956,2.475C138.284,149.106,138.54,136.826,128.987,138.872z"/>
		<linearGradient id="SVGID_15_" gradientUnits="userSpaceOnUse" x1="117.146" y1="151.7383" x2="129.3271" y2="151.7383">
			<stop  offset="0" style="stop-color:#BD8B38"/>
			<stop  offset="0.1275" style="stop-color:#B28032"/>
			<stop  offset="0.4108" style="stop-color:#A06C27"/>
			<stop  offset="0.6997" style="stop-color:#966121"/>
			<stop  offset="1" style="stop-color:#925D1F"/>
		</linearGradient>
		<path fill="url(#SVGID_15_)" stroke="#000000" stroke-width="2.8172" stroke-miterlimit="10" d="M121.569,145.779
			c0,0-3.412-1.022-4.35,7.165c-0.939,8.187,7.418,3.41,7.418,3.41S137.006,153.711,121.569,145.779z"/>
		<linearGradient id="SVGID_16_" gradientUnits="userSpaceOnUse" x1="115.2568" y1="137.4238" x2="123.3818" y2="137.4238">
			<stop  offset="0" style="stop-color:#BD8B38"/>
			<stop  offset="0.1275" style="stop-color:#B28032"/>
			<stop  offset="0.4108" style="stop-color:#A06C27"/>
			<stop  offset="0.6997" style="stop-color:#966121"/>
			<stop  offset="1" style="stop-color:#925D1F"/>
		</linearGradient>
		<path fill="url(#SVGID_16_)" stroke="#000000" stroke-width="2.8172" stroke-miterlimit="10" d="M121.015,132.73
			c0,0-5.758,3.208-5.758,5.911s5.116,3.812,6.313,3.386C122.763,141.601,125.236,134.437,121.015,132.73z"/>
		<linearGradient id="SVGID_17_" gradientUnits="userSpaceOnUse" x1="138.0615" y1="139.9961" x2="150.1387" y2="139.9961">
			<stop  offset="0" style="stop-color:#BD8B38"/>
			<stop  offset="0.1275" style="stop-color:#B28032"/>
			<stop  offset="0.4108" style="stop-color:#A06C27"/>
			<stop  offset="0.6997" style="stop-color:#966121"/>
			<stop  offset="1" style="stop-color:#925D1F"/>
		</linearGradient>
		<path fill="url(#SVGID_17_)" stroke="#000000" stroke-width="2.8172" stroke-miterlimit="10" d="M138.062,137.423
			c0,0,0.137,5.879,5.853,5.071c5.713-0.809,6.225-3.366,6.225-3.366l-3.8-0.754L138.062,137.423z"/>
		<linearGradient id="SVGID_18_" gradientUnits="userSpaceOnUse" x1="118.0757" y1="123.7207" x2="128.3965" y2="123.7207">
			<stop  offset="0" style="stop-color:#BD8B38"/>
			<stop  offset="0.1275" style="stop-color:#B28032"/>
			<stop  offset="0.4108" style="stop-color:#A06C27"/>
			<stop  offset="0.6997" style="stop-color:#966121"/>
			<stop  offset="1" style="stop-color:#925D1F"/>
		</linearGradient>
		<path fill="url(#SVGID_18_)" stroke="#000000" stroke-width="2.8172" stroke-miterlimit="10" d="M125.893,117.124
			c0,0-3.383-1.365-6.965,5.459c-3.582,6.821,5.288,7.846,5.288,7.846s4.344-0.296,4.176-4.711
			C128.225,121.303,125.893,117.124,125.893,117.124z"/>
		<linearGradient id="SVGID_19_" gradientUnits="userSpaceOnUse" x1="114.7651" y1="116.6982" x2="121.0381" y2="116.6982">
			<stop  offset="0" style="stop-color:#BD8B38"/>
			<stop  offset="0.1275" style="stop-color:#B28032"/>
			<stop  offset="0.4108" style="stop-color:#A06C27"/>
			<stop  offset="0.6997" style="stop-color:#966121"/>
			<stop  offset="1" style="stop-color:#925D1F"/>
		</linearGradient>
		<path fill="url(#SVGID_19_)" stroke="#000000" stroke-width="2.8172" stroke-miterlimit="10" d="M117.146,114.65
			c0,0-3.68,2.133-1.889,3.752c1.79,1.621,6.14-1.192,5.758-2.813C120.63,113.968,117.146,114.65,117.146,114.65z"/>
		<linearGradient id="SVGID_20_" gradientUnits="userSpaceOnUse" x1="123.2368" y1="109.6182" x2="127.1816" y2="109.6182">
			<stop  offset="0" style="stop-color:#BD8B38"/>
			<stop  offset="0.1275" style="stop-color:#B28032"/>
			<stop  offset="0.4108" style="stop-color:#A06C27"/>
			<stop  offset="0.6997" style="stop-color:#966121"/>
			<stop  offset="1" style="stop-color:#925D1F"/>
		</linearGradient>
		<path fill="url(#SVGID_20_)" stroke="#000000" stroke-width="2.8172" stroke-miterlimit="10" d="M126.828,105.013
			c0,0-3.631,3.07-3.591,5.715c0.036,2.645,2.795,3.496,3.591,3.496C127.623,114.224,126.828,105.013,126.828,105.013z"/>
		<linearGradient id="SVGID_21_" gradientUnits="userSpaceOnUse" x1="117.0078" y1="105.4609" x2="123.4829" y2="105.4609">
			<stop  offset="0" style="stop-color:#BD8B38"/>
			<stop  offset="0.1275" style="stop-color:#B28032"/>
			<stop  offset="0.4108" style="stop-color:#A06C27"/>
			<stop  offset="0.6997" style="stop-color:#966121"/>
			<stop  offset="1" style="stop-color:#925D1F"/>
		</linearGradient>
		<path fill="url(#SVGID_21_)" stroke="#000000" stroke-width="2.8172" stroke-miterlimit="10" d="M120.288,101.858
			c0,0,2.434-0.598,3.094,0.682s-2.048,7.506-4.063,6.567c-2.015-0.939-2.952-3.392-1.83-4.852
			C118.608,102.797,120.288,101.858,120.288,101.858z"/>
		<linearGradient id="SVGID_22_" gradientUnits="userSpaceOnUse" x1="117.2969" y1="92.7314" x2="125.4219" y2="92.7314">
			<stop  offset="0" style="stop-color:#BD8B38"/>
			<stop  offset="0.1275" style="stop-color:#B28032"/>
			<stop  offset="0.4108" style="stop-color:#A06C27"/>
			<stop  offset="0.6997" style="stop-color:#966121"/>
			<stop  offset="1" style="stop-color:#925D1F"/>
		</linearGradient>
		<path fill="url(#SVGID_22_)" stroke="#000000" stroke-width="2.8172" stroke-miterlimit="10" d="M123.055,88.039
			c0,0-5.758,3.206-5.758,5.91c0,2.703,5.116,3.812,6.313,3.386C124.804,96.908,127.276,89.744,123.055,88.039z"/>
		<linearGradient id="SVGID_23_" gradientUnits="userSpaceOnUse" x1="61.6787" y1="26.1328" x2="87.6816" y2="26.1328">
			<stop  offset="0" style="stop-color:#F9B347"/>
			<stop  offset="1" style="stop-color:#F49735"/>
		</linearGradient>
		<path fill="url(#SVGID_23_)" stroke="#000000" stroke-width="2.8172" stroke-miterlimit="10" d="M87.682,27.763
			c0,0-1.557-11.478-17.764-12.125c-16.207-0.648-5.964,20.615,8.882,21.004"/>
		<linearGradient id="SVGID_24_" gradientUnits="userSpaceOnUse" x1="105.1353" y1="17.4688" x2="112.2715" y2="17.4688">
			<stop  offset="0" style="stop-color:#F9B347"/>
			<stop  offset="1" style="stop-color:#F49735"/>
		</linearGradient>
		<path fill="url(#SVGID_24_)" stroke="#000000" stroke-width="2.8172" stroke-miterlimit="10" d="M105.21,25.934
			c0,0-0.539-13.483,1.275-16.077c1.816-2.593,5.786,1.557,5.786,1.557s-3.451,13.224-2.155,14.521"/>
		<linearGradient id="SVGID_25_" gradientUnits="userSpaceOnUse" x1="87.9224" y1="17.4697" x2="97.1509" y2="17.4697">
			<stop  offset="0" style="stop-color:#F9B347"/>
			<stop  offset="1" style="stop-color:#F49735"/>
		</linearGradient>
		<path fill="url(#SVGID_25_)" stroke="#000000" stroke-width="2.8172" stroke-miterlimit="10" d="M92.219,25.621
			c0,0-2.073-10.632-3.89-11.67c-1.814-1.036,2.853-5.705,5.964-4.407c3.112,1.296,2.853,14.002,2.853,14.002"/>
		
			<path fill="#432918" stroke="#000000" stroke-width="2.8172" stroke-linecap="square" stroke-linejoin="bevel" stroke-miterlimit="10" d="
			M131.54,40.921"/>
		<linearGradient id="SVGID_26_" gradientUnits="userSpaceOnUse" x1="68.0127" y1="59.7891" x2="128.3916" y2="59.7891">
			<stop  offset="0" style="stop-color:#F9B347"/>
			<stop  offset="1" style="stop-color:#F49735"/>
		</linearGradient>
		<path fill="url(#SVGID_26_)" stroke="#000000" stroke-width="2.8172" stroke-miterlimit="10" d="M99.48,24.065
			c0,0-18.664,1.612-22.82,18.93c-1.555,6.482-0.52,14.262-1.555,15.559c-1.039,1.297-9.845,17.055-6.225,23.728
			c4.854,8.945,8.039,16.596,29.691,11.799s28.654-32.934,28.654-32.934S137.08,22.509,99.48,24.065z"/>
		
			<path fill="#FFFFFF" stroke="#000000" stroke-width="2.8172" stroke-linecap="square" stroke-linejoin="bevel" stroke-miterlimit="10" d="
			M82.854,57.106l13.489,1.037c0,0,3.755-10.242-2.34-13.354C87.91,41.678,81.944,46.993,82.854,57.106z"/>
		
			<path fill="#FFFFFF" stroke="#000000" stroke-width="2.8172" stroke-linecap="square" stroke-linejoin="bevel" stroke-miterlimit="10" d="
			M99.762,58.948l13.491,1.036c0,0,3.753-10.242-2.34-13.354C104.817,43.518,98.854,48.835,99.762,58.948z"/>
		<path stroke="#000000" stroke-width="2.8172" stroke-linecap="square" stroke-linejoin="bevel" stroke-miterlimit="10" d="
			M100.182,58.979l12.635,0.973c0,0,3.218-6.525-4.665-7.087C100.27,52.303,100.799,56.746,100.182,58.979z"/>
		<path stroke="#000000" stroke-width="2.8172" stroke-linecap="square" stroke-linejoin="bevel" stroke-miterlimit="10" d="
			M83.482,56.679l12.635,0.972c0,0,3.217-6.523-4.665-7.087C83.568,50.001,84.099,54.446,83.482,56.679z"/>
		<g>
			<path d="M92.538,83.976c0,0,1.628-4.989,4.612-4.222"/>
			<path d="M92.538,83.976c0,0-0.083-0.138-0.16-0.375c-0.081-0.236-0.157-0.568-0.175-0.955c-0.04-0.769,0.207-1.75,0.895-2.563
				c0.17-0.197,0.359-0.393,0.587-0.555c0.199-0.176,0.472-0.305,0.714-0.42c0.247-0.115,0.542-0.17,0.787-0.217
				c0.271-0.021,0.53-0.005,0.75,0.023c0.231,0.059,0.429,0.147,0.589,0.228c0.161,0.064,0.28,0.209,0.374,0.291
				c0.184,0.187,0.253,0.32,0.253,0.32s-0.119,0.086-0.328,0.235c-0.092,0.072-0.196,0.132-0.295,0.23
				c-0.084,0.089-0.179,0.189-0.283,0.299c-0.074,0.102-0.153,0.212-0.238,0.328c-0.074,0.133-0.146,0.22-0.222,0.341
				c-0.076,0.127-0.157,0.219-0.248,0.351l-0.292,0.367c-0.217,0.239-0.456,0.509-0.728,0.747c-0.262,0.25-0.557,0.477-0.84,0.676
				c-0.291,0.193-0.563,0.358-0.779,0.471C92.688,83.91,92.538,83.976,92.538,83.976z"/>
		</g>
		<g>
			<path d="M83.313,83.33c0,0-1.629-4.989-4.615-4.221"/>
			<path d="M83.313,83.33c0,0-0.15-0.065-0.361-0.177c-0.215-0.112-0.488-0.277-0.779-0.471c-0.283-0.199-0.578-0.426-0.84-0.676
				c-0.272-0.238-0.511-0.507-0.728-0.747l-0.292-0.367c-0.091-0.132-0.172-0.223-0.249-0.351c-0.077-0.121-0.148-0.207-0.223-0.34
				c-0.084-0.117-0.164-0.228-0.238-0.329c-0.104-0.108-0.198-0.209-0.283-0.298c-0.099-0.099-0.203-0.159-0.295-0.23
				c-0.209-0.149-0.328-0.235-0.328-0.235s0.069-0.134,0.253-0.32c0.093-0.082,0.212-0.228,0.374-0.292
				c0.16-0.079,0.358-0.168,0.589-0.228c0.22-0.027,0.479-0.045,0.75-0.023c0.245,0.047,0.54,0.102,0.787,0.217
				c0.242,0.115,0.516,0.244,0.715,0.42c0.228,0.161,0.417,0.356,0.587,0.555c0.688,0.812,0.936,1.794,0.896,2.563
				c-0.018,0.386-0.094,0.719-0.175,0.955C83.397,83.192,83.313,83.33,83.313,83.33z"/>
		</g>
		<g>
			<path d="M82.76,42.505c0,0,0.106-0.254,0.379-0.631c0.269-0.381,0.701-0.891,1.313-1.399c0.605-0.52,1.407-1.005,2.332-1.405
				c0.47-0.176,0.957-0.377,1.48-0.477c0.26-0.056,0.521-0.128,0.787-0.169l0.809-0.083c0.541-0.061,1.087-0.018,1.619,0.014
				c0.533,0.021,1.046,0.171,1.539,0.269c0.493,0.108,0.942,0.319,1.369,0.48c0.43,0.155,0.794,0.408,1.135,0.61
				c0.333,0.219,0.642,0.4,0.876,0.633c0.246,0.208,0.443,0.414,0.605,0.577c0.323,0.33,0.482,0.543,0.482,0.543
				s-0.282,0.001-0.73-0.04c-0.224-0.022-0.495-0.041-0.787-0.091c-0.289-0.059-0.641-0.04-0.992-0.082
				c-0.357-0.024-0.724-0.103-1.124-0.097c-0.396-0.006-0.798-0.069-1.217-0.065c-0.42,0.016-0.842-0.032-1.273-0.007
				c-0.43,0.036-0.865-0.004-1.298,0.064c-0.436,0.018-0.868,0.064-1.296,0.124c-0.432,0.035-0.849,0.131-1.268,0.181
				c-0.822,0.154-1.62,0.299-2.311,0.468c-0.701,0.148-1.299,0.304-1.734,0.409C83.014,42.441,82.76,42.505,82.76,42.505z"/>
		</g>
		<g>
			<path d="M102.224,41.089c0,0,0.152-0.229,0.492-0.548c0.336-0.323,0.856-0.742,1.554-1.126c0.693-0.396,1.571-0.722,2.555-0.94
				c0.495-0.083,1.011-0.189,1.544-0.188c0.266-0.005,0.535-0.026,0.805-0.017l0.81,0.07c0.542,0.043,1.07,0.188,1.587,0.319
				c0.52,0.121,0.996,0.365,1.461,0.555c0.463,0.199,0.865,0.491,1.253,0.73c0.393,0.233,0.703,0.551,0.999,0.813
				c0.286,0.277,0.555,0.514,0.741,0.786c0.202,0.251,0.357,0.491,0.486,0.682c0.255,0.385,0.371,0.624,0.371,0.624
				s-0.277-0.052-0.709-0.177c-0.215-0.064-0.478-0.134-0.755-0.238c-0.273-0.111-0.622-0.159-0.958-0.268
				c-0.346-0.091-0.691-0.237-1.085-0.308c-0.389-0.08-0.771-0.218-1.183-0.293c-0.415-0.064-0.821-0.19-1.249-0.247
				c-0.429-0.046-0.849-0.167-1.286-0.182c-0.431-0.065-0.864-0.102-1.296-0.123c-0.431-0.047-0.859-0.031-1.279-0.062
				c-0.837-0.005-1.647-0.013-2.358,0.022c-0.716,0.014-1.333,0.053-1.78,0.074C102.485,41.074,102.224,41.089,102.224,41.089z"/>
		</g>
		<g>
			<path fill="#F49735" d="M113.742,31.066c0,0,4.927-16.077,22.302-16.985c17.372-0.907,5.186,28.395-12.836,27.357"/>
			<path d="M113.742,31.066c0,0,0.062-0.285,0.214-0.815c0.161-0.525,0.387-1.308,0.794-2.257c0.394-0.955,0.921-2.104,1.675-3.344
				c0.345-0.642,0.812-1.259,1.26-1.945c0.477-0.664,1.035-1.325,1.617-2.016c1.232-1.311,2.636-2.727,4.411-3.851
				c1.711-1.22,3.747-2.154,5.919-2.913c1.106-0.293,2.239-0.609,3.398-0.829c0.585-0.077,1.174-0.153,1.766-0.23l0.892-0.105
				l0.224-0.025l0.056-0.007l0.129-0.002l0.107-0.001l0.43-0.003l0.862-0.005c0.306,0.01,0.669,0.062,1.001,0.095
				c0.692,0.045,1.334,0.245,1.989,0.416c1.295,0.443,2.573,1.203,3.517,2.323c0.949,1.124,1.426,2.509,1.653,3.825
				c0.239,1.334,0.174,2.64-0.013,3.88c-0.37,2.492-1.319,4.735-2.442,6.734c-1.123,2.01-2.504,3.756-3.964,5.247
				c-1.457,1.496-3.017,2.729-4.584,3.651c-1.56,0.931-3.088,1.608-4.5,2.013c-0.697,0.222-1.376,0.346-1.989,0.48
				c-0.63,0.072-1.201,0.156-1.718,0.197c-1.043,0.043-1.852,0.018-2.401-0.06c-0.546-0.054-0.838-0.082-0.838-0.082
				s0.292-0.024,0.839-0.071c0.272-0.031,0.607-0.034,0.996-0.104c0.386-0.069,0.83-0.149,1.327-0.239
				c0.49-0.114,1.023-0.278,1.602-0.434c0.561-0.228,1.185-0.405,1.811-0.701c1.271-0.546,2.606-1.357,3.97-2.343
				c1.359-0.999,2.681-2.274,3.935-3.729c1.244-1.466,2.375-3.158,3.329-5c0.959-1.839,1.635-3.889,1.935-5.945
				c0.313-2.046,0.011-4.172-1.117-5.528c-0.562-0.678-1.334-1.163-2.224-1.493c-0.47-0.118-0.935-0.285-1.404-0.313
				c-0.242-0.026-0.449-0.077-0.718-0.092l-0.863-0.007l-0.43-0.004h-0.107l-0.027-0.001c0.025,0-0.093,0.001,0.049-0.001
				l-0.05,0.005l-0.203,0.021l-0.809,0.081c-0.539,0.046-1.076,0.092-1.61,0.138c-1.055,0.155-2.083,0.399-3.098,0.617
				c-1.969,0.628-3.877,1.308-5.51,2.315c-0.409,0.249-0.833,0.465-1.216,0.729c-0.379,0.273-0.752,0.543-1.119,0.809l-0.553,0.39
				l-0.504,0.433c-0.334,0.287-0.663,0.568-0.984,0.844c-1.221,1.174-2.294,2.324-3.141,3.437c-0.429,0.552-0.818,1.08-1.153,1.586
				c-0.355,0.495-0.649,0.971-0.91,1.405C114.193,29.978,113.742,31.066,113.742,31.066z"/>
		</g>
		<path stroke="#000000" stroke-width="2.8172" stroke-linecap="square" stroke-linejoin="bevel" stroke-miterlimit="10" d="
			M61.678,21.219c0,0,13.971,4.038,17.861,11.696"/>
		<g>
			<path d="M104.147,91.227c0,0,0.211-0.312,0.581-0.857c0.365-0.527,0.885-1.28,1.51-2.185c1.229-1.782,2.854-4.094,4.099-6.506
				c1.288-2.401,2.051-4.927,2.147-6.977c0.033-0.512,0.034-0.988,0.018-1.421c-0.034-0.437-0.064-0.818-0.088-1.133
				c-0.104-0.626-0.142-1.019-0.142-1.019s0.255,0.274,0.665,0.817c0.169,0.284,0.413,0.628,0.608,1.061
				c0.096,0.22,0.199,0.453,0.307,0.699c0.098,0.252,0.166,0.526,0.256,0.813c0.31,1.15,0.416,2.586,0.195,4.073
				c-0.211,1.49-0.753,3-1.467,4.385c-1.446,2.782-3.622,4.986-5.431,6.337c-0.909,0.679-1.719,1.167-2.308,1.473
				C104.51,91.096,104.147,91.227,104.147,91.227z"/>
		</g>
		<path stroke="#000000" stroke-width="2.8172" stroke-linecap="square" stroke-linejoin="bevel" stroke-miterlimit="10" d="
			M123.482,37.513c0,0,10.233-16.123,21.321-18.211"/>
		
			<path fill="#432918" stroke="#000000" stroke-width="2.8172" stroke-linecap="square" stroke-linejoin="bevel" stroke-miterlimit="10" d="
			M99.48,24.065c0,0-28.578,8.544-9.645,7.351c3.422-0.217,2.022,3.24,0.841,4.264c-1.183,1.023,3.55,2.047,6.642-2.218
			c3.093-4.264,5.29,4.441,7.816,1.364c8.125-9.893,11.238,9.369,15.19,1.194C120.325,36.021,128.392,25.934,99.48,24.065z"/>
	</g>
	<g>
		<path fill="#F28C00" stroke="#000000" stroke-width="0.8456" stroke-miterlimit="10" d="M169.143,136.211
			c0,0,4.217,3.633,2.7,5.215c-1.518,1.583-3.764-1.077-3.764-1.077s-0.367,1.183-1.559,0.448c-1.19-0.734-0.688-1.039-0.688-1.039
			s-1.714,1.182-2.128-1.419c-0.413-2.601,1.001-4.55,1.001-4.55l3.542,0.294L169.143,136.211z"/>
		<path fill="#F28C00" stroke="#000000" stroke-width="0.8456" stroke-miterlimit="10" d="M162.316,136.439
			c0,0,3.585,1.449,2.324,3.368c-0.08,0.122-1.123,0.71-1.872-0.63c0,0,0.817,1.457-0.702,1.601
			c-1.622,0.153-2.604-1.187-3.234-2.081c-0.437-0.623-1.06,0.169-2.111,0.008c-0.947-0.146-0.709-1.517,0.571-1.978
			c1.164-0.419,0.856-1.636,0.856-1.636l0.188-0.466h4.039l0.434,1.064L162.316,136.439z"/>
		<path fill="#004A99" stroke="#000000" stroke-width="0.8456" stroke-miterlimit="10" d="M137.188,104.33
			c0,0-2.499-1.369-1.514,2.859c0,0,0.271,2.647,2.767,2.394c0,0-1.439,0.402-0.66,2.68s2.689,1.885,3.103,1.597
			c0,0-2.062,1.604,0.484,3.331c2.211,1.497,3.202-0.144,3.202-0.144s-0.951,2.207,1.625,3.044c2.577,0.838,3.841-0.29,3.841-0.29
			s-1.459,3.109,1.988,3.926c3.447,0.817,4.342-1.45,4.342-1.45l3.213-0.889l-19.697-17.101L137.188,104.33z"/>
		<path fill="#009FE3" stroke="#000000" stroke-width="0.8456" stroke-miterlimit="10" d="M155.369,113.695
			c-0.485-0.36-3.893-1.323-4.739-2.659c-0.847-1.335-3.82-2.433-4.273-3.168c-0.454-0.735-6.504-12.709-11.127-7.713
			c-2.339,2.528,3.967,5.542,3.967,5.542s-0.227,3.697,4.419,4.333c0,0-2.104,4.644,4.171,4.564c0,0-0.914,3.818,4.652,3.386
			c0,0-1.458,3.104,5.524,2.465c6.981-0.638,6.202-3.059,6.202-3.059l-1.637-3.622C162.528,113.765,157.629,115.371,155.369,113.695
			z"/>
		<path fill="#004A99" stroke="#000000" stroke-width="0.8456" stroke-miterlimit="10" d="M190.822,105.576
			c0,0,2.56-1.221,1.384,2.848c0,0-0.391,2.564-2.872,2.206c0,0,1.419,0.454,0.537,2.636c-0.881,2.182-2.771,1.716-3.171,1.416
			c0,0,1.985,1.652-0.636,3.218c-2.274,1.361-3.191-0.279-3.191-0.279s0.85,2.188-1.762,2.889c-2.612,0.701-3.824-0.452-3.824-0.452
			s1.317,3.091-2.163,3.732c-3.481,0.643-4.272-1.602-4.272-1.602l-3.169-1.008l20.45-15.764L190.822,105.576z"/>
		<path fill="#009FE3" stroke="#000000" stroke-width="0.8456" stroke-miterlimit="10" d="M172.236,113.884
			c0.5-0.328,3.948-1.116,4.854-2.377s3.926-2.198,4.413-2.894c0.486-0.695,7.073-12.074,11.464-7.012
			c2.223,2.563-4.214,5.216-4.214,5.216s0.06,3.606-4.61,4.02c0,0,1.892,4.61-4.373,4.255c0,0,0.74,3.755-4.802,3.09
			c0,0,1.315,3.082-5.629,2.153c-6.946-0.928-6.058-3.249-6.058-3.249l1.799-3.45C165.081,113.636,169.902,115.414,172.236,113.884z
			"/>
		<path fill="#009FE3" stroke="#000000" stroke-width="0.8456" stroke-miterlimit="10" d="M167.834,111.946
			c0,0-0.59,2.358-0.706,2.889c-0.117,0.532-0.612,1.742,0.336,3.329c0.948,1.588,4.858,4.742,5.83,8.439s1.309,10.434-10.208,10.08
			c-11.517-0.354-10.112-8.193-9.334-10.893c0.779-2.7,6.142-8.775,6.142-11.054c0-2.089,0.36-3.957,0.36-3.957l9.263-1.679
			L167.834,111.946z"/>
		<path fill="#009FE3" stroke="#000000" stroke-width="0.8456" stroke-miterlimit="10" d="M166.542,92.237
			c0,0,6.532,0.725,4.67,9.841c0,0,3.724,2.729,2.334,6.798c-1.251,3.666-5.712,3.07-5.712,3.07s-4.05,0.466-7.732-0.19
			c-3.127-0.557-4.22-1.488-4.808-3.544c-1.321-4.627,2.028-6.399,2.028-6.399s-1.925-7.844,4.25-9.575
			c0.843-0.236-1.477-2.337,0.59-2.596c0.51-0.064,0.59,0.279,1.088,1.217c0.367,0.689-0.372-2.232,0-2.522
			c0.373-0.289,2.295-0.984,1.316,2.758c0,0,0.22-3.706,1.708-2.896C167.764,89.006,166.542,92.237,166.542,92.237z"/>
		<path fill="#F28C00" stroke="#000000" stroke-width="0.8456" stroke-miterlimit="10" d="M166.076,106.78
			c0,0,1.323,2.661-1.498,2.827c-2.931,0.173-2.604-2.833-1.215-3.778C164.753,104.885,166.076,106.78,166.076,106.78z"/>
		
			<path fill="#F8AF44" stroke="#000000" stroke-width="0.8456" stroke-linecap="round" stroke-linejoin="round" stroke-miterlimit="10" d="
			M167.439,105.223c0,0-0.207-2.11-3.313-2.003c-3.147,0.108-3.055,1.604-2.688,2.158c0.368,0.556,1.349,1.505,2.05,1.915
			s0.926,0.548,0.926,0.548s0.64-0.272,1.336-0.67C166.703,106.627,167.606,106.009,167.439,105.223z"/>
		<g>
			<path fill="#004A99" d="M165.912,104.807c0,0-0.842,0.492-0.934,0.759"/>
			<path d="M165.912,104.807c0,0,0.005,0.161-0.032,0.304c-0.036,0.149-0.117,0.287-0.224,0.371
				c-0.114,0.079-0.253,0.105-0.388,0.094c-0.075,0.001-0.129-0.018-0.187-0.016c-0.057-0.001-0.102,0.006-0.102,0.006
				c0.002,0-0.025-0.025-0.048-0.083c-0.023-0.056-0.033-0.158-0.022-0.234c0.018-0.181,0.114-0.349,0.246-0.447
				c0.136-0.098,0.31-0.126,0.466-0.099C165.776,104.723,165.912,104.807,165.912,104.807z"/>
		</g>
		<g>
			<path fill="#004A99" d="M162.833,104.807c0,0,0.842,0.492,0.933,0.759"/>
			<path d="M162.833,104.807c0,0,0.136-0.084,0.291-0.104c0.156-0.027,0.33,0.001,0.466,0.099c0.132,0.099,0.228,0.267,0.246,0.447
				c0.011,0.076,0.001,0.179-0.022,0.234c-0.023,0.058-0.05,0.083-0.048,0.083c0,0-0.045-0.007-0.102-0.006
				c-0.058-0.002-0.112,0.016-0.187,0.016c-0.134,0.011-0.273-0.016-0.388-0.094c-0.107-0.084-0.188-0.222-0.224-0.371
				C162.828,104.968,162.833,104.807,162.833,104.807z"/>
		</g>
		<g>
			
				<path fill-rule="evenodd" clip-rule="evenodd" fill="#FFFFFF" stroke="#000000" stroke-width="0.8456" stroke-miterlimit="10" d="
				M168.248,102.205l-3.477-0.098c0,0-0.602-4.39,1.861-4.255C169.097,97.986,168.248,102.205,168.248,102.205z"/>
			<path fill-rule="evenodd" clip-rule="evenodd" stroke="#000000" stroke-width="0.8456" stroke-miterlimit="10" d="
				M168.248,102.286l-3.43-0.086c0,0-0.353-2.035,1.621-1.901C168.252,100.422,168.248,102.286,168.248,102.286z"/>
		</g>
		<g>
			
				<path fill-rule="evenodd" clip-rule="evenodd" fill="#FFFFFF" stroke="#000000" stroke-width="0.8456" stroke-miterlimit="10" d="
				M159.899,102.462l3.385-0.229c0,0,0.331-4.366-2.068-4.418C158.817,97.762,159.899,102.462,159.899,102.462z"/>
			<path fill-rule="evenodd" clip-rule="evenodd" stroke="#000000" stroke-width="0.8456" stroke-miterlimit="10" d="
				M159.899,102.462l3.338-0.221c0,0,0.288-1.892-1.632-2.015C159.894,100.117,159.899,102.462,159.899,102.462z"/>
		</g>
		<g>
			<path d="M169.516,97.23c0,0-0.291-0.162-0.727-0.405c-0.424-0.221-0.962-0.505-1.5-0.609c-0.267-0.064-0.537-0.08-0.796-0.061
				c-0.258,0.02-0.512,0.064-0.731,0.137c-0.107,0.039-0.224,0.05-0.31,0.094c-0.094,0.036-0.176,0.066-0.243,0.093
				c-0.141,0.049-0.229,0.073-0.229,0.073s0.04-0.076,0.124-0.204c0.086-0.127,0.208-0.319,0.424-0.48
				c0.104-0.088,0.214-0.19,0.362-0.252c0.143-0.068,0.29-0.164,0.467-0.192c0.342-0.109,0.74-0.104,1.111-0.033
				c0.368,0.091,0.714,0.241,0.985,0.444c0.282,0.189,0.492,0.422,0.655,0.627C169.428,96.879,169.516,97.23,169.516,97.23z"/>
		</g>
		<g>
			<path d="M158.339,96.854c0,0,0.147-0.332,0.538-0.681c0.191-0.178,0.444-0.355,0.741-0.503c0.297-0.148,0.642-0.257,1-0.309
				c0.358-0.048,0.729-0.033,1.059,0.047c0.168,0.021,0.319,0.095,0.462,0.15c0.146,0.048,0.27,0.126,0.38,0.2
				c0.454,0.278,0.633,0.604,0.642,0.588c0,0-0.091-0.01-0.237-0.035c-0.145-0.028-0.343-0.072-0.578-0.1
				c-0.464-0.07-1.043-0.099-1.615-0.014c-0.289,0.024-0.573,0.103-0.848,0.165c-0.272,0.074-0.531,0.152-0.759,0.226
				C158.653,96.748,158.339,96.854,158.339,96.854z"/>
		</g>
	</g>
	<g>
		
			<path fill="#7D4E24" stroke="#000000" stroke-width="1.7927" stroke-linecap="round" stroke-linejoin="round" stroke-miterlimit="10" d="
			M105.789,213.386c2.66-1.554,5.742,1.257,7.698,0s7.737-14.451,14.387-9.497c4.407,3.282,2.553,9.28-0.621,11.795
			c-3.173,2.513-5.389,2.87-7.272,3.01s-5.235-0.698-7.052,0c-1.816,0.699-10.276,8.026-10.276,8.026s-4.11,2.58-5.367,0
			c-1.258-2.579,2.721-5.426,2.721-5.426S103.397,214.783,105.789,213.386z"/>
		
			<path fill="#CA9E67" stroke="#000000" stroke-width="1.7927" stroke-linecap="round" stroke-linejoin="round" stroke-miterlimit="10" d="
			M117.381,208.476c1.234-1.951,4.764-8.522,10.493-4.587c4.53,3.11,3.054,8.843-0.12,11.356c-1.329,1.053-3.583,0.381-5.662-0.9
			c-0.291-0.18-1.755,0.103-2.036-0.098c-0.281-0.202,0.619-0.884,0.354-1.099C118.312,211.448,116.805,209.387,117.381,208.476z"/>
		
			<path fill="#936037" stroke="#000000" stroke-width="1.7927" stroke-linecap="round" stroke-linejoin="round" stroke-miterlimit="10" d="
			M79.299,189.848c12.073,1.919,19.229,10.499,20.396,17.058c1.169,6.56,0.539,12.4,0,14.197c2.337,0.628,4.403,5.93,3.235,8.714
			c3.145,1.351,3.747,3.325,3.267,5.034c-0.481,1.706-8.568,5.75-15.847,0.537c-6.919,5.425-14.196,4.854-19.588,1.708
			c-4.133,2.695-17.432,5.571-17.717,0.988c-0.113-1.817,1.815-3.145,3.117-3.684c-0.855-2.517,0-9.255,2.738-10.154
			C56.206,218.676,56.206,186.182,79.299,189.848z"/>
		
			<path fill="#CA9E67" stroke="#000000" stroke-width="1.7927" stroke-linecap="round" stroke-linejoin="round" stroke-miterlimit="10" d="
			M93.227,229.01c0,6.054-5.152,10.962-11.508,10.962s-11.508-4.908-11.508-10.962c0-6.055,5.152-10.963,11.508-10.963
			c0.425,0,0.922-0.596,1.335-0.554c0.347,0.036,0.61,0.704,0.946,0.77C89.263,219.27,93.227,223.698,93.227,229.01z"/>
		<g>
			<path fill="#936037" d="M65.91,213.015c0,0,0.54,21.566,0,22.373c-0.539,0.81-3.948,2.334-2.647,4.446
				c1.3,2.113,8.198,0.788,8.415-0.672c0.433,1.888,5.016,1.978,5.645-0.54c0.629-2.515-1.168-3.683-1.798-4.313
				c0.091-2.246-0.539-21.295-0.539-21.295"/>
			<path d="M65.91,213.015c0.286,3.106,0.442,6.218,0.638,9.329c0.153,3.113,0.278,6.226,0.308,9.354
				c0.006,0.783,0.012,1.567-0.017,2.363c0,0.193-0.021,0.408-0.034,0.613c-0.03,0.234,0.013,0.332-0.107,0.769
				c-0.025,0.091-0.055,0.18-0.087,0.267l-0.024,0.064l-0.013,0.032l-0.007,0.016c0.007-0.006-0.082,0.112-0.047,0.065l-0.045,0.057
				c-0.045,0.063-0.142,0.169-0.258,0.279c-0.216,0.204-0.348,0.305-0.513,0.439c-0.616,0.492-1.198,0.944-1.559,1.438
				c-0.378,0.524-0.389,0.816-0.168,1.234c0.119,0.297,0.706,0.55,1.362,0.646c0.659,0.105,1.386,0.09,2.099,0.02
				c0.714-0.08,1.435-0.219,2.1-0.436c0.331-0.109,0.653-0.233,0.92-0.376c0.13-0.07,0.251-0.148,0.315-0.208
				c0.081-0.057,0.067-0.112,0.028,0.051l1.742-0.067c0.028,0.032,0.031,0.066,0.043,0.107c0.04,0.033,0.053,0.074,0.091,0.117
				c0.086,0.084,0.209,0.166,0.356,0.244c0.163,0.064,0.33,0.131,0.522,0.167c0.187,0.037,0.386,0.07,0.586,0.068
				c0.797,0.035,1.648-0.236,2.055-0.71c0.091-0.124,0.201-0.235,0.239-0.386l0.043-0.105l0.012-0.026l0.006-0.013l0.003-0.007
				l0.001-0.003c0.004-0.02-0.031,0.162-0.016,0.084l0-0.003l0.015-0.093l0.06-0.371l0.06-0.371
				c0.008-0.108-0.019-0.169-0.021-0.255c-0.007-0.157-0.006-0.323-0.08-0.507l-0.074-0.272l-0.135-0.256
				c-0.07-0.178-0.213-0.334-0.329-0.502c-0.132-0.164-0.281-0.318-0.445-0.482l-0.56-0.532c-0.15-0.143-0.226-0.334-0.226-0.525
				v-0.054l0.005-5.299l0.049-5.307l0.066-5.327c0.022-1.776,0.05-3.553,0.114-5.331c0.174,1.771,0.312,3.542,0.444,5.314
				c0.128,1.773,0.293,3.541,0.378,5.319l0.267,5.342l0.223,5.351l-0.226-0.578l0.543,0.485c0.195,0.184,0.402,0.385,0.589,0.604
				c0.181,0.235,0.377,0.454,0.515,0.736l0.22,0.405l0.147,0.446c0.113,0.286,0.153,0.62,0.168,0.965
				c0.008,0.163,0.025,0.354,0.016,0.492l-0.049,0.373l-0.049,0.372l-0.012,0.093l-0.018,0.093l-0.002,0.008l-0.005,0.016
				l-0.01,0.03l-0.021,0.063l-0.086,0.246c-0.101,0.331-0.313,0.631-0.525,0.894c-0.226,0.265-0.485,0.472-0.76,0.652
				c-0.276,0.16-0.562,0.313-0.854,0.402c-0.583,0.204-1.181,0.294-1.781,0.275c-0.299,0.001-0.601-0.04-0.902-0.099
				c-0.301-0.057-0.605-0.161-0.906-0.286c-0.302-0.149-0.601-0.335-0.875-0.604c-0.133-0.137-0.252-0.313-0.366-0.477
				c-0.096-0.183-0.169-0.39-0.235-0.589l1.742-0.067c-0.102,0.556-0.388,0.814-0.594,1.013c-0.224,0.201-0.436,0.331-0.645,0.448
				c-0.418,0.228-0.825,0.386-1.235,0.514c-0.817,0.257-1.635,0.404-2.467,0.489c-0.833,0.073-1.677,0.091-2.557-0.055
				c-0.439-0.075-0.89-0.188-1.349-0.405c-0.228-0.105-0.459-0.252-0.678-0.432c-0.112-0.096-0.266-0.26-0.343-0.357l-0.085-0.118
				l-0.021-0.029l-0.011-0.015l-0.043-0.066l-0.006-0.012l-0.046-0.091c-0.271-0.453-0.414-1.082-0.322-1.666
				c0.086-0.599,0.382-1.052,0.668-1.428c0.595-0.744,1.292-1.218,1.895-1.683l0.386-0.305c0.029-0.02,0.072-0.049,0.145-0.142
				l0.047-0.056c0.038-0.052-0.044,0.063-0.038,0.051l-0.002-0.002l-0.004-0.004l-0.008-0.007l-0.021-0.018l0.041-0.387
				c0.016-0.183,0.04-0.355,0.046-0.551l0.11-2.304c0.097-3.097,0.151-6.21,0.22-9.32C65.741,219.244,65.773,216.131,65.91,213.015z
				"/>
		</g>
		<g>
			<path fill="#936037" d="M94.759,211.753c0,0-0.02,19.802,0.534,20.581c0.554,0.778,6.179,2.427,3.456,6.059
				c-1.467,1.955-6.103,0.778-6.39-0.668c-0.303,1.907-6.209,2.676-6.942,0.197s0.897-3.739,1.455-4.401
				c-0.209-2.238-0.677-21.29-0.677-21.29"/>
			<path d="M94.759,211.753c0.208,3.009,0.31,6.016,0.495,9.021c0.142,3.003,0.274,6.014,0.474,8.992
				c0.052,0.713,0.127,1.55,0.222,2.093c0.004,0.005-0.009,0.011-0.032,0.03l-0.002,0.001c0.061,0.076-0.086-0.102-0.068-0.08
				l0.013,0.012l0.026,0.024l0.051,0.049c0.031,0.028,0.076,0.078,0.088,0.072c0.04,0.014,0.064,0.026,0.106,0.055l0.226,0.13
				l0.989,0.554c0.676,0.398,1.373,0.841,1.987,1.498c0.613,0.624,1.12,1.67,0.966,2.71c-0.026,0.258-0.074,0.506-0.173,0.721
				c-0.092,0.216-0.158,0.468-0.287,0.644l-0.356,0.568l-0.023,0.035l-0.011,0.018l-0.006,0.009l-0.066,0.08l-0.048,0.052
				l-0.096,0.103c-0.075,0.074-0.104,0.127-0.216,0.219c-0.485,0.399-0.926,0.606-1.373,0.728c-0.451,0.141-0.895,0.186-1.332,0.204
				c-0.874,0.022-1.714-0.104-2.535-0.386c-0.41-0.154-0.816-0.312-1.221-0.592c-0.382-0.289-0.866-0.593-1.074-1.417l1.758-0.033
				c-0.066,0.233-0.144,0.499-0.261,0.691c-0.125,0.172-0.259,0.375-0.403,0.502c-0.144,0.122-0.292,0.255-0.441,0.357l-0.449,0.261
				c-0.601,0.288-1.204,0.465-1.811,0.568c-0.609,0.091-1.22,0.146-1.845,0.088c-0.31-0.008-0.629-0.081-0.942-0.134
				c-0.32-0.095-0.637-0.17-0.956-0.341c-0.314-0.134-0.635-0.369-0.907-0.644c-0.127-0.157-0.271-0.301-0.368-0.48
				c-0.091-0.186-0.175-0.377-0.25-0.567l-0.167-0.89c-0.033-0.312-0.015-0.718-0.002-1.068c0.073-0.333,0.13-0.673,0.256-0.983
				c0.135-0.307,0.268-0.617,0.459-0.876c0.17-0.283,0.378-0.507,0.574-0.744l0.551-0.584l-0.179,0.571l-0.056-5.345l-0.013-5.343
				c-0.009-1.78,0.032-3.562,0.053-5.341c0.021-1.779,0.047-3.557,0.11-5.334c0.176,1.771,0.315,3.541,0.449,5.311
				c0.133,1.77,0.287,3.536,0.391,5.305l0.326,5.302l0.283,5.301l0.002,0.052c0.011,0.197-0.06,0.383-0.182,0.52l-0.556,0.626
				c-0.146,0.189-0.308,0.372-0.41,0.565c-0.134,0.186-0.2,0.387-0.285,0.581c-0.075,0.195-0.091,0.407-0.141,0.604
				c0.02,0.194-0.014,0.339,0.006,0.568l0.149,0.72c0.04,0.058,0.069,0.115,0.092,0.179c0.029,0.061,0.1,0.102,0.138,0.16
				c0.113,0.101,0.237,0.215,0.427,0.286c0.164,0.095,0.384,0.139,0.587,0.203c0.226,0.028,0.441,0.087,0.681,0.087
				c0.466,0.042,0.953-0.009,1.422-0.082c0.232-0.05,0.468-0.092,0.685-0.17c0.229-0.06,0.423-0.16,0.621-0.246l0.259-0.153
				l0.194-0.159c0.062-0.052,0.062-0.097,0.11-0.135c0.022-0.038-0.001-0.05,0.034-0.068l1.758-0.034
				c-0.042-0.064,0.11,0.15,0.327,0.284c0.21,0.157,0.511,0.281,0.802,0.394c0.599,0.216,1.271,0.321,1.899,0.309
				c0.313-0.011,0.625-0.04,0.893-0.125c0.286-0.059,0.515-0.225,0.629-0.274c0.041-0.017,0.123-0.122,0.182-0.179l0.097-0.103
				l0.048-0.051c0.057-0.067-0.069,0.083-0.055,0.065l0.004-0.006l0.007-0.013l0.015-0.023l0.246-0.386
				c0.103-0.127,0.111-0.257,0.175-0.382c0.07-0.127,0.083-0.249,0.098-0.366c0.081-0.466-0.086-0.923-0.492-1.389
				c-0.4-0.46-0.969-0.866-1.577-1.243l-0.963-0.577l-0.258-0.158c-0.115-0.076-0.245-0.172-0.359-0.265
				c-0.069-0.053-0.086-0.077-0.123-0.113l-0.05-0.05l-0.025-0.024l-0.012-0.013c0.013,0.018-0.136-0.166-0.076-0.096l-0.007-0.016
				c-0.072-0.162-0.135-0.338-0.18-0.514c-0.141-0.942-0.133-1.613-0.165-2.4c-0.08-3.033-0.022-6.04,0.044-9.054
				C94.479,217.771,94.552,214.762,94.759,211.753z"/>
		</g>
		<g>
			<path d="M128.293,207.58c0,0,0.367,0.051,0.701,0.269c0.356,0.205,0.672,0.578,0.822,1.039c0.146,0.457,0.123,1.019-0.122,1.434
				c-0.1,0.2-0.267,0.361-0.396,0.433c-0.136,0.075-0.221,0.086-0.221,0.086s-0.047-0.091-0.12-0.191
				c-0.074-0.105-0.183-0.214-0.293-0.335c-0.237-0.231-0.44-0.519-0.556-0.88c-0.11-0.357-0.134-0.777-0.046-1.157
				C128.128,207.908,128.293,207.58,128.293,207.58z"/>
		</g>
		<linearGradient id="SVGID_27_" gradientUnits="userSpaceOnUse" x1="122.5386" y1="158.5059" x2="111.0379" y2="163.8451">
			<stop  offset="0" style="stop-color:#CA9E67"/>
			<stop  offset="1" style="stop-color:#EDDAAB"/>
		</linearGradient>
		
			<path fill="url(#SVGID_27_)" stroke="#000000" stroke-width="1.7927" stroke-linecap="round" stroke-linejoin="round" stroke-miterlimit="10" d="
			M110.551,166.765l9.224-14.917c0,0,1.421,5.369,0.762,5.699c-0.659,0.331-1.114-0.008-1.114-0.008s-2.558,13.823-7.53,13.487
			C106.919,170.691,110.551,166.765,110.551,166.765z"/>
		
			<path fill="#936037" stroke="#000000" stroke-width="1.7927" stroke-linecap="round" stroke-linejoin="round" stroke-miterlimit="10" d="
			M102.691,157.528c0,0,15.725-10.119,17.742-7.805c1.314,1.508-10.43,17.743-10.43,17.743L102.691,157.528z"/>
		<linearGradient id="SVGID_28_" gradientUnits="userSpaceOnUse" x1="50.5811" y1="146.251" x2="60.8487" y2="152.6171">
			<stop  offset="0" style="stop-color:#CA9E67"/>
			<stop  offset="1" style="stop-color:#EDDAAB"/>
		</linearGradient>
		
			<path fill="url(#SVGID_28_)" stroke="#000000" stroke-width="1.7927" stroke-linecap="round" stroke-linejoin="round" stroke-miterlimit="10" d="
			M51.28,141.567l5.028-5.029c0,0,7.767,19.797,5.438,20.821s-4.05,3.586-4.781,5.032c-1.281,2.532-5.127-4.901-5.686-9.186
			c-0.56-4.282,1.862-10.708,1.862-10.708L51.28,141.567z"/>
		<linearGradient id="SVGID_29_" gradientUnits="userSpaceOnUse" x1="60.6646" y1="161.498" x2="107.7774" y2="193.0452">
			<stop  offset="0" style="stop-color:#B17F4A"/>
			<stop  offset="1" style="stop-color:#936037"/>
		</linearGradient>
		<path fill="url(#SVGID_29_)" stroke="#000000" stroke-width="1.7927" stroke-miterlimit="10" d="M112.397,175.89
			c0,14.811-13.591,26.817-30.356,26.817s-27.563-12.104-29.426-26.817c-1.86-14.694,12.566-26.166,29.332-26.166
			S112.397,161.078,112.397,175.89z"/>
		<g>
			<path fill="#CA9E67" stroke="#000000" stroke-width="1.7927" stroke-miterlimit="10" d="M73.256,158.423
				c1.933,0.397,7.171-7.45,2.143-8.699C71.808,148.831,70.09,157.771,73.256,158.423z"/>
			<path fill="#CA9E67" stroke="#000000" stroke-width="1.7927" stroke-miterlimit="10" d="M92.677,159.028
				c1.895-0.551,2.857-9.938-2.172-8.69C86.913,151.227,89.572,159.932,92.677,159.028z"/>
			<path fill="#CA9E67" stroke="#000000" stroke-width="1.7927" stroke-miterlimit="10" d="M82.565,164.382
				c4.022,0.372,6.893-15.365,0.842-15.365C78.191,149.017,77.925,163.952,82.565,164.382z"/>
		</g>
		
			<path fill="#936037" stroke="#000000" stroke-width="1.7927" stroke-linecap="round" stroke-linejoin="round" stroke-miterlimit="10" d="
			M69.101,152.092c0,0-10.67-17.785-12.458-16.999c-1.787,0.785,5.296,20.897,5.296,20.897S67.442,152.685,69.101,152.092z"/>
		<linearGradient id="SVGID_30_" gradientUnits="userSpaceOnUse" x1="99.9121" y1="204.8604" x2="56.2103" y2="168.4508">
			<stop  offset="0" style="stop-color:#CA9E67"/>
			<stop  offset="1" style="stop-color:#EDDAAB"/>
		</linearGradient>
		
			<path fill="url(#SVGID_30_)" stroke="#000000" stroke-width="1.7927" stroke-linecap="round" stroke-linejoin="round" stroke-miterlimit="10" d="
			M81.762,177.896c3.367,0.358,6.303,2.864,6.303,2.864s6.568,0.479,10.242,2.007c5.515,2.291,8.093,7.563,7.878,8.937
			c-0.215,1.376-9.323,12.467-26.362,10.933c-17.039-1.536-24.2-15.143-23.628-17.578c0.573-2.435,5.993-4.947,8.953-5.802
			c4.727-1.363,10.528-0.357,10.528-0.357S78.396,177.537,81.762,177.896z"/>
		
			<path fill="#FFFFFF" stroke="#000000" stroke-width="1.7927" stroke-linecap="round" stroke-linejoin="round" stroke-miterlimit="10" d="
			M71.234,162.904c-7.591,1.813-5.715,12.512-4.87,13.312c0.845,0.798,10.636-0.54,11.155-1.043
			C78.038,174.673,78.825,161.092,71.234,162.904z"/>
		
			<path fill="#FFFFFF" stroke="#000000" stroke-width="1.7927" stroke-linecap="round" stroke-linejoin="round" stroke-miterlimit="10" d="
			M96.272,164.619c-7.544-0.337-8.834,10.438-8.277,11.435c0.556,0.998,10.003,2.389,10.626,2.05
			C99.243,177.765,103.816,164.954,96.272,164.619z"/>
		<g>
			<path fill="#7D4E24" stroke="#000000" stroke-width="1.1893" stroke-miterlimit="10" d="M80.638,186.458
				c0.835,0.031,3.919-1.99,3.919-3.852c0-1.865-5.524-2.378-6.038-0.58S79.064,186.401,80.638,186.458z"/>
			
				<path fill="none" stroke="#000000" stroke-width="1.1893" stroke-linecap="round" stroke-linejoin="round" stroke-miterlimit="10" d="
				M71.678,191.703c0,0,1.133,2.767,3.693,2.976c4.11,0.337,4.897-3.467,4.897-3.467s0,3.531,3.966,3.789
				c3.272,0.212,4.624-1.928,4.624-1.928"/>
			<g>
				<g>
					<g>
						<path d="M89.005,182.959c0,0,5.318-0.961,8.806-1.056c3.488-0.094,5.496-0.398,6.727-0.55s2.011,0.761,1.551,0.809
							s0.604,0.471-8.371,1.35s-8.595,0.598-8.595,0.598s-1.358-0.103-1.251-0.646C87.873,183.464,87.866,183.152,89.005,182.959z"
							/>
					</g>
				</g>
			</g>
			<g>
				<g>
					<g>
						<path d="M88.473,185.134c0,0,1.886,0.782,3.561,1.478c2,0.836,4.555,1.998,6.373,2.806c0.153,0.065,0.298,0.127,0.432,0.185
							l0.136,0.04c3.556,1.825,5.74,2.698,7.09,3.274c1.415,0.603,1.759,1.836,1.238,1.604c-0.505-0.226,0.34,0.701-8.913-3.434
							c0.049,0.015,0.104,0.03,0.159,0.047c-0.301-0.099-0.617-0.202-0.944-0.31c-2.663-1.071-4.461-1.98-5.849-2.632
							c-1.366-0.666-2.24-1.112-2.798-1.412c-1.118-0.599-0.978-0.601-0.978-0.602c0,0-1.392-0.927-0.981-1.319
							C86.998,184.859,87.159,184.595,88.473,185.134z"/>
					</g>
				</g>
			</g>
			<g>
				<g>
					<g>
						<path d="M87.569,187.537c0,0,1.127,1.013,2.632,2.283c0.376,0.315,0.778,0.646,1.188,0.951c0.254,0.18,0.497,0.35,0.731,0.516
							c0.214,0.193,0.418,0.377,0.622,0.562c0.826,0.754,1.63,1.522,2.307,2.231c2.708,2.838,4.456,4.306,5.5,5.229
							c1.045,0.924,0.945,2.171,0.561,1.819s0.1,0.81-7.348-6.071c-0.912-0.848-1.716-1.595-2.437-2.266l-0.257-0.241l-0.063-0.059
							l-0.015-0.015l-0.004-0.004c-0.028-0.021,0.233,0.176,0.12,0.091l-0.011-0.007l-0.042-0.027l-0.163-0.109
							c-0.208-0.145-0.385-0.285-0.556-0.422c-0.335-0.273-0.625-0.531-0.886-0.771c-1.038-0.961-1.649-1.619-2.044-2.048
							c-0.781-0.863-0.654-0.826-0.654-0.826s-0.893-1.25-0.38-1.486C86.371,186.867,86.609,186.676,87.569,187.537z"/>
					</g>
				</g>
			</g>
			<g>
				<g>
					<g>
						<path d="M72.86,182.085c0,0-1.244-0.237-2.868-0.665c-0.812-0.215-1.719-0.488-2.617-0.819
							c-0.222-0.094-0.441-0.187-0.678-0.287c-0.106-0.046-0.217-0.095-0.333-0.146c-0.117-0.059-0.254-0.149-0.376-0.226
							c-0.243-0.153-0.533-0.37-0.588-0.373c-0.053-0.028-0.104-0.061-0.153-0.098c-0.05-0.037-0.168-0.084-0.247-0.126
							c-2.857-1.364-4.769-1.782-5.854-2.113c-1.107-0.315-1.434-1.442-1.021-1.318c0.208,0.063,0.122-0.103,0.992,0.03
							c0.434,0.069,1.108,0.207,2.174,0.503c1.074,0.308,2.508,0.702,4.553,1.522c0.159,0.076,0.334,0.174,0.491,0.266
							c0.166,0.099,0.326,0.203,0.37,0.218c0.164,0.075,0.241,0.163,0.447,0.249c0.403,0.163,0.749,0.339,1.122,0.466
							c0.723,0.274,1.349,0.496,1.889,0.677c0.852,0.296,1.576,0.547,2.219,0.77c0.896,0.325,0.79,0.356,0.79,0.356
							s1.134,0.562,0.854,1.033C74.025,182.004,73.922,182.3,72.86,182.085z"/>
					</g>
				</g>
			</g>
			<g>
				<g>
					<g>
						<path d="M71.175,184.375c0,0-6.187,0.786-10.213,0.766c-1.161-0.005-2.126,0.008-3.063,0.038
							c-2.306-0.161-3.752-0.165-4.79-0.189c-1.432-0.034-2.18-1.053-1.645-1.03c0.45,0.018-0.317-0.422,6.42-0.218
							c0.966-0.061,2.021-0.126,3.278-0.205c10.397-0.584,9.943-0.315,9.943-0.315s1.56,0.146,1.404,0.688
							C72.509,183.908,72.5,184.22,71.175,184.375z"/>
					</g>
				</g>
			</g>
			<g>
				<g>
					<g>
						<path d="M71.266,186.732c0,0-1.954,0.861-3.724,1.643c-0.57,0.247-1.13,0.489-1.657,0.718c-0.3,0.127-0.589,0.25-0.872,0.37
							c-0.298,0.153-0.586,0.301-0.874,0.449c-0.555,0.275-1.099,0.545-1.741,0.863c-0.59,0.257-1.181,0.481-1.729,0.688
							c-0.598,0.226-1.11,0.42-1.556,0.588c-0.49,0.172-0.956,0.292-1.394,0.434c-0.876,0.271-1.647,0.521-2.329,0.752
							c-1.363,0.46-2.367,0.836-3.133,1.11c-1.531,0.55-2.698-0.095-2.123-0.291c0.287-0.099,0.073-0.165,1.188-0.681
							c0.558-0.258,1.447-0.627,2.897-1.169c0.831-0.301,1.68-0.607,2.625-0.949c0.528-0.186,1.081-0.38,1.678-0.59
							c0.569-0.249,1.175-0.515,1.836-0.804c1.317-0.532,2.459-1.161,3.455-1.641c0.999-0.49,1.943-0.792,2.696-1.104
							c1.534-0.594,2.527-0.959,3.167-1.157c1.283-0.416,1.18-0.313,1.18-0.313s1.73-0.399,1.716,0.173
							C72.573,185.823,72.65,186.126,71.266,186.732z"/>
					</g>
				</g>
			</g>
			
				<path fill="#7D4E24" stroke="#000000" stroke-width="1.1893" stroke-linecap="round" stroke-linejoin="round" stroke-miterlimit="10" d="
				M79.868,182.739c0.094,0.917,0.745,1.568,0.745,1.568"/>
		</g>
		<path stroke="#000000" stroke-width="1.7927" stroke-linecap="round" stroke-linejoin="round" stroke-miterlimit="10" d="
			M66.364,176.216c0,0-0.278-5.914,5.313-6.247c6.234-0.372,5.842,5.204,5.842,5.204L66.364,176.216z"/>
		<path stroke="#000000" stroke-width="1.7927" stroke-linecap="round" stroke-linejoin="round" stroke-miterlimit="10" d="
			M87.882,176.23c0,0,1.217-5.795,6.713-4.713c6.127,1.206,4.346,6.506,4.346,6.506L87.882,176.23z"/>
	</g>
</g>
</svg>
