<?xml version="1.0" encoding="utf-8"?>
<!-- Generator: Adobe Illustrator 16.0.0, SVG Export Plug-In . SVG Version: 6.00 Build 0)  -->
<!DOCTYPE svg PUBLIC "-//W3C//DTD SVG 1.1//EN" "http://www.w3.org/Graphics/SVG/1.1/DTD/svg11.dtd">
<svg version="1.1" id="Calque_1" xmlns="http://www.w3.org/2000/svg" xmlns:xlink="http://www.w3.org/1999/xlink" x="0px" y="0px"
	 width="250px" height="250px" viewBox="0 0 250 250" enable-background="new 0 0 250 250" xml:space="preserve">
<g>
	<g>
		<path fill-rule="evenodd" clip-rule="evenodd" fill="none" d="M89.912,117.442c51.656,0,103.312,0,154.966,0
			c0,36.545,0,73.092,0,109.637c-51.716,0-103.435,0-155.15,0c0-36.361,0-72.723,0-109.084
			C89.712,117.733,89.697,117.474,89.912,117.442z M135.794,140.106c-6.242,8.025-11.487,20.045-10.872,34.643
			c0.597,14.148,5.918,24.463,13.636,31.877c7.87,7.559,19.351,12.588,33.536,11.424c13.125-1.076,23.31-7.014,30.219-15.293
			c6.748-8.086,11.773-19.799,10.503-34.643c-1.127-13.16-6.865-24-14.188-31.324c-7.45-7.449-18.167-13.873-32.983-12.715
			C152.251,125.122,142.049,132.063,135.794,140.106z"/>
		
			<path fill-rule="evenodd" clip-rule="evenodd" stroke="#000000" stroke-width="4" stroke-linecap="round" stroke-linejoin="round" stroke-miterlimit="10" d="
			M165.645,124.075c14.816-1.158,25.533,5.266,32.983,12.715c7.324,7.324,13.061,18.164,14.188,31.324
			c1.271,14.844-3.755,26.557-10.503,34.643c-6.91,8.279-17.094,14.217-30.219,15.293c-14.186,1.164-25.667-3.865-33.536-11.424
			c-7.718-7.414-13.039-17.729-13.636-31.877c-0.615-14.598,4.63-26.617,10.872-34.643
			C142.049,132.063,152.251,125.122,165.645,124.075z M149.245,129.972c-14.009,7.098-24.096,22.307-22.664,43.303
			c0.928,13.613,5.517,23.764,12.714,31.508c7.091,7.633,17.68,13.588,31.326,12.531c13.134-1.016,22.82-6.613,29.666-14.557
			c6.717-7.793,11.792-18.273,11.24-32.984c-0.485-12.961-5.85-24.275-12.898-31.324c-7.278-7.279-17.248-13.422-31.325-12.898
			C160.277,125.81,154.345,127.39,149.245,129.972z"/>
		<linearGradient id="SVGID_1_" gradientUnits="userSpaceOnUse" x1="130.5029" y1="191.5186" x2="207.1333" y2="150.7734">
			<stop  offset="0" style="stop-color:#9E124F"/>
			<stop  offset="0.3147" style="stop-color:#9F1452"/>
			<stop  offset="0.5413" style="stop-color:#A11A5B"/>
			<stop  offset="0.7403" style="stop-color:#A4246B"/>
			<stop  offset="0.9224" style="stop-color:#A83281"/>
			<stop  offset="1" style="stop-color:#AB3A8D"/>
		</linearGradient>
		
			<path fill-rule="evenodd" clip-rule="evenodd" fill="url(#SVGID_1_)" stroke="#000000" stroke-width="4" stroke-linecap="round" stroke-linejoin="round" stroke-miterlimit="10" d="
			M167.303,125.55c14.077-0.523,24.046,5.619,31.325,12.898c7.049,7.049,12.413,18.363,12.898,31.324
			c0.552,14.711-4.522,25.191-11.24,32.984c-6.846,7.943-16.532,13.541-29.666,14.557c-13.646,1.057-24.235-4.898-31.326-12.531
			c-7.197-7.744-11.786-17.895-12.714-31.508c-1.432-20.996,8.655-36.205,22.664-43.303
			C154.345,127.39,160.277,125.81,167.303,125.55z"/>
	</g>
	<g>
		<path d="M190.353,147.212c0,0,10.208,8.826,10.543,21.309c0.337,12.482-1.118,14.139-0.854,17.008
			c0.27,2.867,0.312,1.783,0.312,1.783s1.813-6.01,2.724-8.35c0.911-2.348,4.206-9.057,1.019-17.982
			C200.905,152.048,193.835,148.542,190.353,147.212z"/>
	</g>
	<g>
		<g>
			<linearGradient id="SVGID_2_" gradientUnits="userSpaceOnUse" x1="47.0674" y1="223.3672" x2="99.0366" y2="116.8145">
				<stop  offset="0" style="stop-color:#009B3E"/>
				<stop  offset="0.1661" style="stop-color:#039C3E"/>
				<stop  offset="0.3118" style="stop-color:#0E9F3E"/>
				<stop  offset="0.4498" style="stop-color:#20A43E"/>
				<stop  offset="0.5832" style="stop-color:#3AAB3E"/>
				<stop  offset="0.7133" style="stop-color:#5AB53E"/>
				<stop  offset="0.8409" style="stop-color:#82C03E"/>
				<stop  offset="0.9642" style="stop-color:#B1CE3E"/>
				<stop  offset="1" style="stop-color:#C0D23E"/>
			</linearGradient>
			<path fill-rule="evenodd" clip-rule="evenodd" fill="url(#SVGID_2_)" d="M30.786,123.796c0,0-0.018,90.363,0.906,92.045
				s83.891,0,83.891,0v-90.957L30.786,123.796z"/>
		</g>
		<g>
			
				<path fill-rule="evenodd" clip-rule="evenodd" stroke="#000000" stroke-width="4" stroke-linecap="round" stroke-linejoin="round" d="
				M116.489,124.341c1.158,30.123,1.178,62.109,0,92.225c-26.366,3.277-57.648,1.742-85.522,0.906
				c-2.82-25.443-1.736-55.336-1.087-82.441c0.091-3.809-0.11-7.697,0.906-11.234C58.688,123.425,89.547,122.358,116.489,124.341z
				 M32.417,125.427c-2.919,28.383-1.496,60.729-0.725,90.414c27.964,0,55.927,0,83.891,0c0-30.318,0-60.637,0-90.957
				c-27.602,0-55.202,0-82.803,0C32.551,124.958,32.409,125.118,32.417,125.427z"/>
		</g>
	</g>
	<g>
		<path d="M103.435,153.651c0,0,1.876,12.857,2.15,25.131c0.277,12.273-0.804,18.744-0.804,18.744s4.667-15.418,3.607-24.162
			C107.304,164.423,106.044,159.155,103.435,153.651z"/>
	</g>
	<g>
		<linearGradient id="SVGID_3_" gradientUnits="userSpaceOnUse" x1="131.8623" y1="142.9805" x2="180.6649" y2="42.9203">
			<stop  offset="0" style="stop-color:#ED6A0B"/>
			<stop  offset="0.2239" style="stop-color:#EE6F0F"/>
			<stop  offset="0.4805" style="stop-color:#F07D1A"/>
			<stop  offset="0.7522" style="stop-color:#F4932D"/>
			<stop  offset="1" style="stop-color:#F8AF44"/>
		</linearGradient>
		<polygon fill-rule="evenodd" clip-rule="evenodd" fill="url(#SVGID_3_)" points="140.901,26.538 90.295,122.706 193.666,121.765 
			141.98,24.052 		"/>
		<g>
			
				<path fill-rule="evenodd" clip-rule="evenodd" fill="#CACACA" stroke="#000000" stroke-width="4" stroke-linecap="round" stroke-linejoin="round" stroke-miterlimit="10" d="
				M141.415,22.921c0.125,0,0.251,0,0.377,0c3.375,3.316,5.085,7.834,7.356,11.885c15.946,28.434,33.119,56.58,46.403,87.9
				c-34.406,1.092-71.09,1.773-105.257,0c13.601-32.506,31.687-62.035,47.347-93.184C138.85,27.118,139.944,24.722,141.415,22.921z
				 M141.603,25.185c-4.255,8.186-8.313,16.445-12.639,24.711c-12.029,22.982-24.119,46.332-36.217,69.039
				c-0.446,0.836-1.363,1.734-1.131,2.83c34.015,0,68.034,0,102.05,0C177.972,88.665,160.23,55.978,141.603,25.185z"/>
		</g>
	</g>
	<g>
		<path d="M150.887,61.646c0,0,5.705,9.795,9.924,19.641c4.221,9.842,5.455,15.432,5.455,15.432s-1.245-13.998-4.949-20.73
			C157.526,69.103,154.79,65.251,150.887,61.646z"/>
	</g>
</g>
</svg>
