<?xml version="1.0" encoding="utf-8"?>
<!-- Generator: Adobe Illustrator 16.0.0, SVG Export Plug-In . SVG Version: 6.00 Build 0)  -->
<!DOCTYPE svg PUBLIC "-//W3C//DTD SVG 1.1//EN" "http://www.w3.org/Graphics/SVG/1.1/DTD/svg11.dtd">
<svg version="1.1" id="Calque_1" xmlns="http://www.w3.org/2000/svg" xmlns:xlink="http://www.w3.org/1999/xlink" x="0px" y="0px"
	 width="250px" height="250px" viewBox="0 0 250 250" enable-background="new 0 0 250 250" xml:space="preserve">
<g>
	<g id="Ebene_6">
		<path fill="#EEEDED" stroke="#DADADA" stroke-miterlimit="10" d="M119.071,68.344c0,0,1.618,1.986,3.201,1.699
			s1.583-0.287,1.583-0.287l1.985-1.723l1.971,1.482l-0.801,7.963l-0.892,6.074l-3.433-7.186l-2.139-3.402l-1.145-1.732
			L119.071,68.344z"/>
		<path fill="none" stroke="#878787" stroke-miterlimit="10" d="M127.601,72.195l-0.743,6.656l-0.738,4.701l0.427,7.344l0.777,7.578
			l0.622,12.705c0,0,0.583,2.994,0.621,3.537c0.039,0.543,0.39,8.121,0.39,8.121v5.672c0,0-0.312,3.926-0.622,5.402
			c-0.312,1.477-1.011,6.139-1.128,6.84c-0.116,0.699-0.349,3.42-0.31,4.391c0.038,0.971,0.64,5.129,0.64,5.129
			s-2.622,0.35-2.816-0.389c-0.193-0.738-0.078-4.158,0-5.479c0.077-1.322,0.453-6.957,0.453-6.957l0.246-4.545
			c0,0,0.545-4.625,0.583-5.984c0.039-1.359-0.194-8.316-0.194-8.316l-0.116-2.525l-1.438-4.584"/>
	</g>
	<g id="hände">
		<path fill="none" stroke="#878787" stroke-width="0.3425" stroke-miterlimit="10" d="M129.422,106.674
			c0,0-0.761-1.496-1.241-3.887c-0.481-2.391-0.712-3.969-0.58-4.578c0.13-0.605,0.58-1.561,0.58-1.561"/>
		<path fill="#FCE097" stroke="#EFBA7A" stroke-width="0.6849" stroke-miterlimit="10" d="M129.839,102.354l-0.477-4.143
			l-0.781-1.268c0,0-2.446,1.031-3.515,1.268c-1.067,0.234-5.342,0.902-6.109,0.936c-0.769,0.035-1.893,0-1.893,0
			s-1.747,0.869-2.281,1.236s-3.314,2.002-3.314,2.002l-6.235,3.475c0,0-1.437,1.301-1.903,1.77
			c-0.468,0.467-2.737,2.279-3.104,2.658c-0.367,0.381-0.802,0.895-0.802,0.895s0.234,0.166,0.635,0.094
			c0.399-0.074,2.57-1.209,2.704-1.309c0.134-0.102,2.371-1.137,2.638-1.369c0.267-0.234,1.102-0.635,1.102-0.635l0.401,0.367
			l-1.27,1.604l-1.736,2.369c0,0-1.636,2.256-1.536,2.297c0.101,0.041,1.103-0.527,1.536-0.828c0.435-0.299,1.336-1.201,1.336-1.201
			l1.637-1.135l0.801-0.635l0.468,1.102l-0.968,1.336l-1.336,2.127c0,0-0.567,0.723-0.435,0.768
			c0.134,0.043,1.055-0.156,1.329-0.357c0.273-0.199,1.91-2.338,1.91-2.338l6.443-4.707l2.371-2.059c0,0,2.471-1.203,2.806-1.592
			c0.333-0.391,0.968-1.258,0.968-1.258l3.026,0.332l1.224,0.205l0.08,0.014"/>
		<polyline fill="#FCE097" stroke="#EFBA7A" stroke-width="0.3425" stroke-miterlimit="10" points="131.329,109.398 
			135.481,103.521 131.637,102.354 129.976,104.422 130.682,106.336 131.329,109.398 		"/>
		<path fill="#EFBA7A" d="M131.316,109.334l9.043-14.934c0,0-1.965-0.566-2.55-1.693c-0.587-1.129-2.012,0.602-2.164,0.828
			c-0.152,0.225-2.636,3.408-2.636,3.408l-2.205,6.447l-0.829,5.191L131.316,109.334z"/>
	</g>
	<g id="Ebene_10">
		<path d="M131.228,231.578c0,0,1.863,7.814,1.53,8.148c-0.334,0.336-0.828,1.596-2.07,1.174c-1.241-0.42-3.473-1.84-3.473-1.84
			l1.602-6.428L131.228,231.578z"/>
		<path fill="#154C7B" stroke="#154C7B" stroke-miterlimit="10" d="M130.917,230.838c0,0,1.863,7.814,1.529,8.148
			s-0.828,1.594-2.069,1.174s-3.473-1.842-3.473-1.842l1.602-6.428L130.917,230.838z"/>
		<path d="M117.255,224.199l4.611,8.666l3.297,2.406l-0.557-7.016l1.517,0.691l2.579,6.521c0,0,0.779,3.24,0.434,4.271
			c-0.347,1.031-2.354,2.063-4.361,1.102c-2.008-0.963-6.508-8.129-6.508-8.129s-2.493-3.633-2.423-4.457
			c0.069-0.82,0.622-3.502,0.622-3.502L117.255,224.199z"/>
		<path fill="#154C7B" stroke="#154C7B" stroke-miterlimit="10" d="M117.581,223.623l4.447,8.418l3.181,2.338l-0.537-6.814
			l1.465,0.67l2.486,6.336c0,0,0.752,3.148,0.418,4.148c-0.335,1.002-2.271,2.004-4.208,1.068c-1.937-0.934-6.276-7.895-6.276-7.895
			s-2.404-3.529-2.338-4.328s0.601-3.404,0.601-3.404L117.581,223.623z"/>
		<path d="M115.843,228.256c0,0,0.307,2.115,0.375,2.852c0.068,0.732,0.335,3.748,0.269,4.211c-0.067,0.463,0.868,0,0.868,0
			s0.467-1.875,0.534-2.076c0.066-0.199,0.377-0.529,0.377-0.529"/>
		<path fill="#124067" d="M128.439,235.914c0,0,0.936,1.469,0.334,2.471c-0.601,1.002-1.87,1.27-1.87,1.27l-0.768-0.268
			c0,0,1.77-0.934,1.97-1.602C128.307,237.117,128.439,235.914,128.439,235.914z"/>
		<path fill="#124067" d="M131.928,236.902c0,0,0.78,1.225,0.278,2.063c-0.501,0.836-1.56,1.059-1.56,1.059l-0.642-0.223
			c0,0,1.477-0.781,1.644-1.34C131.817,237.904,131.928,236.902,131.928,236.902z"/>
	</g>
	<g id="Ebene_11_1_">
		<path fill="#162239" stroke="#124067" stroke-width="0.3425" stroke-miterlimit="10" d="M109.807,179.443
			c0,0,6.198-1.557,9.962-2.764s11.286-4.664,11.286-4.664l8.617-2.555l1.368-0.836l-12.394-1.801l-14.596,6.695L109.807,179.443"/>
	</g>
	<g id="fueße">
		<path fill="#FCE097" stroke="#EFBA7A" stroke-width="0.6849" stroke-miterlimit="10" d="M111.612,168.6
			c0,0,2.002,12.355,2.136,13.156s2.204,10.15,2.337,11.553c0.134,1.402,0.668,5.609,0.602,6.344
			c-0.067,0.734-0.056,7.613,0.006,8.949c0.061,1.334,0.596,7.078,0.596,7.078l0.267,6.877c0,0,0,3.074,0.468,4.141
			c0.468,1.068,4.006,6.678,4.341,6.945c0.333,0.268,2.561,1.67,3.284,1.67c0.723,0,1.992-0.268,1.391-2.004
			c-0.464-1.338-2.234-5.451-3.023-7.268c-0.235-0.543-0.383-0.879-0.383-0.879l-0.867-1.67c0,0,0.801-9.75,1.202-11.219
			c0.4-1.469,0.533-8.348,0.734-8.883c0.2-0.533,0.473-3.672,0.473-3.672s0.138-9.016,0-9.482c-0.139-0.469,0.484-8.35,0.474-9.35
			c-0.012-1.002,0.455-14.09,0.455-14.09l0.535-5.275l0.558,2.27l0.711,14.76v12.754c0,0,0.066,8.748,0,10.484
			s-0.01,11.285-0.306,13.023c-0.296,1.736-2.428,10.217-2.428,10.217l-0.673,1.201l3.436,6.813c0,0,0.838,2.402,1.507,2.27
			c0.668-0.133,2.203,0.133,1.735-2.537c-0.467-2.672-0.4-4.809-0.267-6.145s2.137-12.287,2.137-12.287l1.87-8.414
			c0,0,1.27-7.814,1.336-8.814c0.066-1.002,0.868-7.547,0.936-8.082c0.066-0.533,1.134-9.07,1.201-9.811
			c0.067-0.738,2.271-17.701,2.271-17.701l-10.952-3.207l-9.082,3.873L111.612,168.6z"/>
		<path fill="none" stroke="#EFBA7A" stroke-width="0.6849" stroke-miterlimit="10" d="M136.472,195.031c0,0-1.087,5.289-1.487,6.09
			"/>
		<path fill="none" stroke="#EFBA7A" stroke-width="0.6849" stroke-miterlimit="10" d="M125.209,196.816c0,0-0.71,3.168-0.977,3.902
			c-0.267,0.738-2.204,8.684-2.204,8.684"/>
		<path fill="#EFBA7A" stroke="#EFBA7A" stroke-width="0.3425" stroke-miterlimit="10" d="M128.439,162.055l6.545,0.334
			c0,0-3.339,5.877-3.271,7.412c0.066,1.537-1.202,7.748-1.002,8.414c0.199,0.668,0,7.547-0.268,9.818
			c-0.267,2.27-0.602,6.814-0.534,8.783c0.066,1.967-0.468,7.043-0.668,8.713c-0.199,1.668-0.4,9.549-0.802,11.352
			c-0.4,1.803-1.735,7.146-1.735,7.146l-1.53,3.537l-0.673-1.334l2.495-8.66l0.604-2.76l0.321-13.689l-0.016-17.896l-0.505-15.156
			l-0.193-4.002L128.439,162.055z"/>
		<path fill="#EFBA7A" stroke="#EFBA7A" stroke-width="0.3425" stroke-miterlimit="10" d="M123.619,164.393l2.613,1.129
			l-0.331,7.018l-0.505,12.688l-0.169,9.582l-0.098,5.381l-0.43,3.203l-0.586,8.016l-1.073,8.887l-0.277,3.199l1.736,3.203
			l0.966,2.727c0,0-0.724-0.525-1.847-1.859s-1.991-4.539-1.991-5.607s1.469-10.684,1.669-12.555
			c0.201-1.871,0.577-8.883,0.322-10.219c-0.255-1.334-0.146-13.154,0-15.691c0.146-2.539-0.322-16.295-0.322-16.295l-0.2-2.805
			H123.619L123.619,164.393z"/>
	</g>
	<g id="rock_1_">
		<path fill="#3BA9E0" stroke="#154C7B" stroke-miterlimit="10" d="M107.701,151.949c0,0,0.104,14.5,0.972,18.883
			c0.867,4.383,1.134,8.299,1.134,8.299s8.549-4.756,10.686-5.875c2.138-1.117,13.156-4.102,14.559-4.289
			c1.402-0.186,5.969-0.746,5.99-0.652c0.021,0.092,1.089-8.395,0.955-10.072c-0.133-1.678-0.576-8.766-0.955-10.631
			c-0.381-1.865,0-1.459,0-1.459l-9.986,2.139l-2.708,1.127l-3.664,0.262l-8.167,1.148l-3.722,1.016L107.701,151.949z"/>
		<path fill="#154C7B" d="M108.609,170.486l-0.503-5.203l-0.428-8.869l-0.116-4.447l5.926-0.229l2.927-0.592
			c0,0-3.939,3.748-4.006,4.867c-0.066,1.117-1.085,3.814-1.077,5.129s-0.192,3.879,0.143,4.998c0.334,1.117,0,3.09,0,3.09
			l-0.033,1.211l-1.634,1.732L108.609,170.486z"/>
	</g>
	<g id="kittel">
		<path fill="#FCE097" d="M111.564,48.518c0,0,1.86,4.336,1.862,5.748c0.001,1.41-0.65,5.371-0.65,5.371l3.711,7.26l3.399,2.252
			l1.109,0.705l1.276,0.189l1.583-0.287l1.317-1.902l0.6-8.344c0,0-3.21-1.441-3.285-1.861c-0.074-0.42-0.448-5.129-0.448-5.129
			s-9.131-4.305-9.055-4.484c0.075-0.18-1.206,0.613-1.206,0.613L111.564,48.518z"/>
		<g>
			<path fill="#EFBA7A" d="M112.355,49.051l5.731,3.469c0,0-1.412-0.439-2.15,1.041c-0.74,1.48-0.716,4.289-0.716,4.289
				s-1.3,0.336-1.401,1.113c-0.103,0.777-0.766-0.092-0.766-0.092s0.306-1.635,0.407-3.777c0.045-0.943-0.265-2.258-0.627-3.439
				c-0.462-1.506-1.007-2.791-1.007-2.791L112.355,49.051z"/>
			<path fill="#EFBA7A" d="M113.599,59.438c-0.291,0-0.607-0.395-0.668-0.473l-0.041-0.055l0.012-0.066
				c0.004-0.018,0.307-1.65,0.406-3.758c0.038-0.783-0.171-1.922-0.619-3.387c-0.454-1.48-0.997-2.764-1.002-2.775l-0.137-0.322
				l0.886,0.318l6.806,4.119l-1.2-0.373c-0.001,0-0.181-0.053-0.434-0.053c-0.47,0-1.114,0.174-1.534,1.016
				c-0.714,1.432-0.699,4.193-0.698,4.221v0.119l-0.115,0.029c-0.334,0.088-1.217,0.432-1.289,0.984
				C113.918,59.379,113.715,59.438,113.599,59.438L113.599,59.438z M113.216,58.83c0.127,0.152,0.301,0.303,0.383,0.303
				c0.004,0,0.004-0.002,0.004-0.002s0.043-0.027,0.064-0.189c0.096-0.73,1.063-1.1,1.402-1.207c0.003-0.555,0.061-2.9,0.73-4.24
				c0.46-0.922,1.176-1.145,1.648-1.182l-5.157-3.121l-0.192-0.068c0.191,0.477,0.56,1.432,0.883,2.486
				c0.459,1.498,0.672,2.672,0.633,3.492C113.524,56.984,113.274,58.494,113.216,58.83z"/>
		</g>
		<path fill="#EFBA7A" d="M123.424,60.959c-0.004-0.016-0.513-1.639-0.915-2.645c-0.413-1.031-0.615-4.889-0.623-5.053l0.307-0.014
			c0.001,0.039,0.207,3.969,0.603,4.953c0.405,1.016,0.917,2.65,0.923,2.666L123.424,60.959z"/>
		<path fill="#EFBA7A" d="M121.421,61.531c-0.43-0.428-1.001-3.324-1.064-3.652l0.301-0.057c0.233,1.205,0.706,3.221,0.979,3.494
			L121.421,61.531z"/>
		<path fill="none" stroke="#878787" stroke-miterlimit="10" d="M136.999,105.08c0,0,0.194,6.916,0.233,7.771
			c0.039,0.854,1.049,7.965,1.049,7.965l0.972,6.102l0.854,8.703c0,0,0.233,3.576,0.312,4.469c0.103,1.184,0.208,3.207,0.271,3.848
			c0.039,0.389,0.35,2.215,0.35,2.215l-9.986,2.137l-3.638,1.127"/>
		<path fill="#DADADA" stroke="#878787" stroke-miterlimit="10" d="M111.347,59.168l-1.533,1.799c0,0,5.736,5.24,6.38,6.203
			c0.646,0.961,3.386,4.277,3.386,4.277s-0.262-2.246,0.155-3.316c0.419-1.068,0.938-2.352,0.938-2.352s-6.386-3.85-7.088-4.92
			c-0.702-1.068-1.429-2.564-1.429-2.564L111.347,59.168z"/>
		<path fill="#F6F6F6" stroke="#878787" stroke-miterlimit="10" d="M110.401,60.279l-6.989,4.592l-5.5,2.084
			c0,0-2.138,6.309-1.924,10.693c0.214,4.383,0.535,6.629,1.604,8.66c1.068,2.031,2.997,5.561,2.997,5.561s0.078,1.98,0.311,2.836
			c0.233,0.855,1.477,4.934,1.477,4.934l2.682,6.607l3.342,7.498l1.903,3.303c0,0,0.388,0.156,1.477,0
			c1.088-0.154,2.254-0.738,3.109-0.893c0.854-0.154,6.371-1.594,6.839-1.594c0.465,0,4.546-1.826,5.284-2.059
			c0.738-0.234,4.196-1.438,4.196-1.438s0.272-1.711,0-2.875c-0.272-1.166-1.243-4.08-1.243-4.08l-0.428-0.428l-6.528,2.137
			c0,0-4.157,0.932-4.701,1.088c-0.545,0.156-2.682,0.582-3.226,0.543c-0.544-0.037-1.049-0.037-1.088-0.465s0.35-0.973,0.116-1.4
			c-0.232-0.426-1.01-1.32-1.088-1.67c-0.077-0.35,0.194-1.555,0-2.02c-0.194-0.469-1.243-1.4-1.359-1.865
			c-0.117-0.467,0-1.555-0.039-2.021c-0.039-0.465-0.816-4.119-0.816-4.119l-0.388-2.215c0,0,0.154-0.777,0-1.012
			c-0.155-0.232-1.283-1.965-1.283-1.965s-0.272-2.035-0.389-2.541s-0.738-2.176-1.243-2.564s-1.399-1.049-1.399-1.049
			s0-3.42-0.505-5.014c-0.504-1.592-1.282-4.375-1.865-5.334c-0.582-0.961-1.748-2.902-2.215-3.408
			c-0.466-0.506-1.243-1.088-1.243-1.088"/>
		<path fill="none" stroke="#878787" stroke-miterlimit="10" d="M113.918,107.488c0,0,0.077,1.361,0,2.41
			c-0.078,1.049-0.272,2.332-0.467,2.682s-0.505,0.504-0.505,0.504"/>
		<path fill="none" stroke="#878787" stroke-miterlimit="10" d="M113.651,107.488c0,0-0.316,1.012-0.705,1.75
			s-1.205,1.941-1.205,1.941"/>
		<polyline fill="none" stroke="#878787" stroke-miterlimit="10" points="119.707,71.662 122.538,76.053 125.459,82.23 
			126.119,83.553 123.243,85.611 		"/>
		<path fill="none" stroke="#878787" stroke-miterlimit="10" d="M144.074,77.213l1.591,3.541c0,0,3.036,5.193,4.561,7.703"/>
		<path fill="none" stroke="#878787" stroke-miterlimit="10" d="M136.844,89.109c0,0,0.854-4.586,0.389-6.916
			c-0.466-2.332-1.943-6.256-1.943-6.256"/>
		<path fill="none" stroke="#878787" stroke-miterlimit="10" d="M124.683,149.678c0.037,0.205-7.967,1.059-8.551,1.215
			c-0.582,0.156-4.663,1.051-5.711,1.012c-1.05-0.039-2.72-0.234-2.72-0.234l-0.972-0.426c0,0,0.271-8.938,0.311-9.289
			c0.038-0.35,0.427-7.148,0.427-7.148l0.621-4.975c0,0,1.011-4.701,1.089-5.674c0.078-0.971,1.011-4.195,1.127-4.74
			c0.117-0.545,0.385-2.309,0.385-2.309"/>
		<path fill="#DADADA" stroke="#878787" stroke-miterlimit="10" d="M112.053,123.654c0,0,3.458-0.313,4.546-0.467
			s6.063-1.088,6.063-1.166s-1.594,5.445-1.594,6.9s1.01,6.428,1.01,6.428s-3.613,0.777-4.469,1.244
			c-0.854,0.467-6.14,3.73-6.14,3.73s0.855-6.723,0.855-8.549s0.116-5.635,0-6.373S112.053,123.654,112.053,123.654z"/>
		<path fill="#FCE097" stroke="#EFBA7A" stroke-miterlimit="10" d="M141.551,94.455c0,0,1.126-1.746,2.106-2.887
			c1.066-1.242,2.229-2.344,2.306-2.424c0.146-0.156,0.215-0.586-0.129-0.48c-0.343,0.105-1.159,0.266-1.848,0.902
			c-0.688,0.635-2.88,2.803-2.88,2.803l2.633-3.898l2.555-2.227c0,0,0.734-0.742,0.792-1.035c0.058-0.291,0.267-0.408,0.044-0.561
			c-0.222-0.152-2.048,0.77-2.579,1.182c-0.53,0.41-2.15,1.383-2.15,1.383l-1.862,2.697l-0.803,0.84l3.123-5.059l3.468-3.311
			c0,0,0.553-0.432,0.437-0.643c-0.117-0.211,0.199-0.789-0.152-0.582c-0.353,0.205-4.339,2.695-4.339,2.695l-3.71,5.273
			l2.811-5.346l3.088-3.801l0.11-0.533l-0.565-0.045l-3.596,3.029l-3.345,4.285c0,0-0.88,0.732-1.377,1.498
			c-0.497,0.762-1.291,2.287-1.567,3.229c-0.278,0.941-0.786,2.682-1.109,3.34c-0.32,0.658-0.841,2.051-0.841,2.051"/>
		<path fill="none" stroke="#DADADA" stroke-miterlimit="10" d="M129.422,106.674"/>
		<path fill="none" stroke="#878787" stroke-miterlimit="10" d="M129.527,106.557c0,0-0.529-1.041-0.984-2.775"/>
		<polyline fill="#FCE097" stroke="#EFBA7A" stroke-miterlimit="10" points="125.557,104.373 127.871,104.758 130.805,105.209 
			129.976,103.557 129.839,102.354 		"/>
		<path fill="#F6F6F6" stroke="#878787" stroke-miterlimit="10" d="M150.226,88.457c0.396,0.65,0.689,1.121,0.801,1.273
			c0.544,0.738,1.01,1.594,0.894,1.982s-0.543,0.621-0.543,0.621l1.476,0.699c0,0,0.816,0.195,0.777,0.738
			c-0.039,0.545-0.389,1.945-0.389,1.945l1.594,2.68c0,0,0.815,2.293,0.738,2.721c-0.078,0.426-0.428,1.32-0.933,1.631
			c-0.506,0.311-5.751,1.672-8.16,1.75c-2.409,0.076-3.147,0.193-3.147,0.193s-1.865,0.193-2.837,0.232s-3.575-0.156-4.353,0
			s-6.722,1.75-6.722,1.75s0.738-3.42,0.505-5.402c-0.232-1.98-0.544-3.07-0.66-3.342c-0.117-0.271-0.887-1.242-0.887-1.242
			l4.461-0.352c0,0,2.021-0.115,2.486-0.389c0.468-0.271,2.216-1.01,2.799-1.01c0.582,0,2.473-0.271,2.965-0.389
			c0.493-0.115,2.514-0.465,3.097-0.465s1.399-0.117,1.981-0.117c0.583,0,1.943,0.154,1.943,0.154"/>
		<path fill="none" stroke="#878787" stroke-miterlimit="10" d="M138.862,94.883c0,0,2.062,1.221,2.449,1.92
			c0.389,0.701,0.545,0.971,0.545,0.971"/>
		<path fill="none" stroke="#878787" stroke-miterlimit="10" d="M141.856,94.4c0,0,1.748,0.461,2.176,1.316
			c0.427,0.854,0.971,0.932,0.971,0.932"/>
		<path fill="none" stroke="#878787" stroke-miterlimit="10" d="M144.763,94.057c0,0,1.018,0.422,1.641,0.826
			c0.621,0.404,1.709,1.447,1.709,1.447"/>
	</g>
	<g id="kullis">
		<path stroke="#000000" stroke-width="0.3425" stroke-miterlimit="10" d="M135.756,122.021c0,0,0.854-3.459,0.972-4.002
			c0.116-0.545,0.547-2.244,0.547-2.244l0.968,0.225l0.62,0.271l-1.062,3.342l-0.764,2.898L135.756,122.021z"/>
		<polygon stroke="#000000" stroke-width="0.3425" stroke-miterlimit="10" points="137.815,115.775 138.339,114.6 138.862,114.717 
			138.592,115.775 138.546,116.133 		"/>
		<path fill="#3D3D3B" d="M135.095,115.775c0,0,0.971-0.262,1.049,0s0,3.953,0,3.953l-0.191,2.48l-1.168-0.188l0.233-5.322
			L135.095,115.775z"/>
		<path fill="none" stroke="#000000" stroke-width="0.5137" stroke-miterlimit="10" d="M138.853,116.484
			c0,0,0.586-0.037,0.469,0.545c-0.116,0.582-0.622,2.119-0.622,2.119l-0.369,0.834h-0.291"/>
		<path fill="#DADADA" stroke="#878787" stroke-width="0.6849" stroke-miterlimit="10" d="M132.919,121.361l6.955,1.943
			c0,0-0.699,2.02-0.621,3.652c0.077,1.631,0.466,4.701,0.621,5.361c0.156,0.66,0.661,2.189,0.661,2.189s-4.041,0.26-4.701,0.492
			c-0.661,0.232-3.459,0.895-3.459,0.895s0.66-4.896,0.66-6.102s0.078-5.439,0.078-5.943
			C133.113,123.342,132.919,121.361,132.919,121.361z"/>
		<path fill="#EEEDED" d="M112.329,123.971l5.344-0.607c0,0-1.907,6.271-1.907,7.578c0,1.305,0.563,5.738,0.563,5.738l-4.548,2.744
			l0.775-7.184l0.078-5.434l-0.049-1.215L112.329,123.971"/>
	</g>
	<g id="shrit">
		<path fill="#EEEDED" stroke="#B3B2B2" stroke-width="0.6849" stroke-miterlimit="10" d="M120.073,95.924
			c-0.196,0-0.364-0.008-0.496-0.021c-0.68-0.07-2.271-1.129-2.745-1.482c-0.274-0.205-0.283-0.709-0.078-0.984
			c0.206-0.275,0.696-0.504,0.972-0.299c0.685,0.512,1.753,1.498,1.982,1.529c0.483,0.051,2.054-0.025,2.901-0.4
			c0.638-0.281,0.813-1.146,0.965-2.164c0.04-0.279,0.069-1.17-0.565-3.391c-0.077-0.266-0.778-1.916-1.241-3.008
			c-0.882-2.074-0.882-2.074-0.882-2.254c0-0.342,0.278-0.621,0.622-0.621c0.293,0,0.538,0.203,0.604,0.475
			c0.067,0.191,0.456,1.105,0.799,1.914c0.723,1.699,1.203,2.838,1.293,3.152c0.515,1.805,0.718,3.121,0.601,3.914
			c-0.15,1.01-0.376,2.537-1.69,3.119C122.254,95.783,120.919,95.924,120.073,95.924z"/>
		<path fill="#EEEDED" stroke="#B3B2B2" stroke-width="0.6849" stroke-miterlimit="10" d="M113.84,98.211
			c-0.278,0-0.546-0.064-0.796-0.191c-1.046-0.531-1.489-2.037-1.702-2.76c-0.021-0.072-0.04-0.137-0.057-0.188
			c-0.184-0.584-0.236-1.854-0.164-4.002c0.039-1.16,0.263-4.982,0.271-5.145c0.021-0.344,0.316-0.604,0.658-0.586
			c0.342,0.021,0.604,0.316,0.584,0.658c-0.003,0.041-0.233,3.971-0.272,5.113c-0.085,2.555,0.031,3.342,0.108,3.586
			c0.019,0.059,0.04,0.129,0.063,0.213c0.151,0.512,0.506,1.711,1.073,2c0.098,0.051,0.241,0.096,0.489,0.008
			c1.136-0.404,2.267-1.246,3.016-1.801c0.267-0.197,0.479-0.355,0.639-0.453c0.424-0.26,1.535-1.484,1.981-1.824
			c0.274-0.207,0.806,0.127,1.014,0.4c0.207,0.273,0.051,0.844-0.224,1.051c-0.066,0.053-1.559,1.088-2.123,1.434
			c-0.113,0.068-0.313,0.219-0.547,0.391c-0.759,0.563-2.028,1.506-3.337,1.973C114.287,98.17,114.061,98.211,113.84,98.211z"/>
		<circle fill="#DADADA" stroke="#585857" stroke-width="0.6849" stroke-miterlimit="10" cx="135.289" cy="80.866" r="3.653"/>
		<path d="M111.937,86.545c-0.344,0-0.674-0.191-0.837-0.52c-0.161-0.328-1.589-3.227-1.909-4.148
			c-0.026-0.072-0.059-0.162-0.097-0.264c-0.505-1.373-1.688-4.588,0.032-6.463c1.769-1.928,3.231-2.881,4.741-3.09l0.145-0.021
			c1.556-0.219,4.451-0.625,5.773,1.777c1.18,2.141,1.771,5.383,1.816,6.018c0.028,0.4,0.393,1.988,0.643,2.988
			c0.124,0.498-0.179,1.006-0.679,1.129c-0.499,0.127-1.006-0.178-1.131-0.678c-0.107-0.428-0.645-2.602-0.693-3.309
			c-0.039-0.557-0.625-3.498-1.589-5.25c-0.649-1.178-2.272-1.055-3.881-0.828l-0.147,0.02c-1.051,0.146-2.168,0.92-3.623,2.506
			c-0.951,1.037,0.023,3.686,0.344,4.557c0.042,0.115,0.079,0.215,0.106,0.297c0.239,0.688,1.396,3.072,1.821,3.934
			c0.228,0.461,0.038,1.021-0.424,1.248C112.217,86.514,112.075,86.545,111.937,86.545z"/>
		<path fill="#F6F6F6" stroke="#878787" stroke-width="0.6849" stroke-miterlimit="10" d="M135.289,82.756
			c-1.042,0-1.891-0.848-1.891-1.891c0-1.041,0.849-1.889,1.891-1.889s1.892,0.848,1.892,1.889
			C137.181,81.908,136.332,82.756,135.289,82.756z"/>
	</g>
	<path fill="#FCE097" d="M100.581,37.074l-0.69,3.115c0,0,0.63,1.127,1.955,1.77s3.381,0.979,3.381,0.979l3.397,3.049
		c0,0,1.612,1.67,2.172,2.049c0.563,0.379,6.199,3.793,6.378,3.887c0.177,0.09,3.031,1.705,4.354,1.279
		c1.322-0.428,1.998-1.121,2.595-1.852c0.597-0.732,4.728-6.209,4.728-6.209s2.402-3.908,2.723-4.471
		c0.322-0.564,1.144-2.945,1.047-4.504c-0.097-1.557-0.506-3.043-0.811-3.762c-0.306-0.717-1.64-3.451-1.778-3.738
		c-0.14-0.289-0.442-1.523-0.35-1.977c0.094-0.453,0.071-0.871,0.071-0.871l-12.345-1.217c0,0-9.268-3.752-9.36-3.758
		c-0.095-0.006-0.971,4.457-0.971,4.457s-0.439,1.324-0.566,1.51c-0.126,0.188-2.06,3.314-2.195,3.611
		c-0.136,0.299-0.869,1.973-0.813,2.922s0.587,3.74,1.329,4.875c0.741,1.135,2.127,2.398,2.127,2.398s-1.748-0.033-2.243-0.225
		C104.222,40.199,100.581,37.074,100.581,37.074z"/>
	<g>
		<path fill="#FFFFFF" d="M116.487,44.166l5.67,0.41l2.957-0.41c0,0-1.654,2.484-1.954,2.621c-0.301,0.137-4.375-0.311-4.375-0.311
			L116.487,44.166z"/>
		<path d="M122.861,46.863c-0.999,0-4.052-0.332-4.081-0.336l-0.02-0.002l-2.406-2.42l5.801,0.418l3.064-0.424l-0.063,0.096
			c-0.17,0.254-1.671,2.5-1.977,2.639C123.15,46.848,123.085,46.863,122.861,46.863z M118.809,46.428
			c0.253,0.027,3.099,0.334,4.053,0.334c0.208,0,0.264-0.016,0.277-0.021c0.205-0.092,1.206-1.516,1.87-2.508l-2.85,0.395h-0.006
			l-5.535-0.4L118.809,46.428z"/>
	</g>
	<g>
		<path fill="#EFBA7A" d="M129.606,26.076c0,0-3.646,0.357-4.943,0.16c-1.297-0.195-5.389-0.93-7.096-1.404
			c-1.707-0.477-5.79-1.783-5.79-1.783l5.038,2.77c0,0,7.568,1.967,8.182,1.859c0.615-0.105,4.189,0,4.189,0l0.46-0.158
			L129.606,26.076z"/>
		<path fill="#EFBA7A" d="M124.936,27.836c-0.955,0-7.866-1.793-8.159-1.869l-0.034-0.014l-5.038-2.77l0.12-0.279
			c0.041,0.012,4.1,1.309,5.784,1.779c1.674,0.467,5.772,1.203,7.078,1.402c0.251,0.037,0.614,0.057,1.082,0.057
			c1.566,0,3.801-0.219,3.822-0.221l0.163-0.016l0.049,1.723l-0.593,0.203h-0.027c-0.016-0.002-1.602-0.047-2.825-0.047
			c-0.887,0-1.215,0.023-1.333,0.045C124.999,27.834,124.97,27.836,124.936,27.836z M116.872,25.676
			c0.406,0.105,7.171,1.852,8.063,1.852c0.015,0,0.027,0,0.036,0c0.193-0.033,0.646-0.049,1.386-0.049
			c1.14,0,2.589,0.039,2.806,0.045l0.327-0.111l-0.032-1.17c-0.548,0.051-2.355,0.207-3.69,0.207c-0.481,0-0.862-0.021-1.127-0.063
			c-1.353-0.203-5.402-0.93-7.114-1.408c-1.035-0.287-2.962-0.889-4.309-1.313L116.872,25.676z"/>
	</g>
	<path fill="#593217" d="M104.832,15.52c0,0-0.078-0.994,0.193-1.27c2.312-2.354,7.59-4.184,7.59-4.184s5.136-1.615,8.186-1.115
		c2.799,0.457,3.546-0.211,7.204,1.846c0.813,0.459,1.696,1.146,2.839,1.943c2.527,1.76,5.245,9.377,5.436,11.6
		c0.477,5.523,0.481,7.07,0.345,8.768c-0.191,2.373-0.009,2.912-0.343,4.768c-0.335,1.857-2.615,13.912-2.644,14.105
		c-0.027,0.193-0.19,4.211-0.19,4.211s0.382,2.375,1.43,4.723c0.731,1.639,1.999,4.512,2.692,5.148
		c0.693,0.635-0.034,0.156-0.034,0.156l-4.906-2.678l-5.628-2.688l-1.018-0.477c0,0-1.24-1.373-1.484-1.506
		c-0.242-0.131-1.949-1.43-1.949-1.43l-0.392-2.467l-0.119-1.721c0,0,0.838-0.377,1.09-0.686c0.253-0.311,3.022-3.705,3.022-3.705
		l3.296-4.623l1.952-3.275c0,0,0.997-1.816,1.109-3.309c0.111-1.49,0.167-2.971-0.266-4.111c-0.434-1.141-1.686-3.922-1.824-4.17
		c-0.137-0.248-0.759-1.344-0.748-2.016c0.012-0.67,0.232-1.379,0.232-1.379s-3.126,0.484-4.789,0.332
		c-1.663-0.154-6.521-1.244-6.521-1.244s-5.414-1.488-5.904-1.672s-4.642-2-4.642-2l-0.68,2.453l-0.784,2.842
		c0,0-1.481,2.264-1.559,2.395c-0.077,0.133-1.512,2.576-1.486,3.703s0.229,3.521,1.018,4.914s2.402,2.912,2.402,2.912
		s-1.73,0.074-2.746-0.375c-1.019-0.447-3.632-3.229-3.632-3.229l-0.613,2.121c0,0-0.346,0.877,0.263,1.535
		c0.61,0.658,2.061,1.588,2.622,1.803c0.563,0.219,2.636,0.701,2.636,0.701s1.157,1.107,1.443,1.381
		c0.284,0.275,2.666,2.467,2.874,2.689s1.972,1.404,1.972,1.404l0.999,3.006c0,0,0.567,2.115,0.551,2.891
		c-0.019,0.777,0,1.801,0,1.801s-1.564,1.93-1.763,2.08c-0.199,0.15-1.374,1.391-1.374,1.391l0.077,0.484l-0.788,0.742
		c0,0-1.926,2.17-2.167,2.74c-0.242,0.57-0.919,2.236-0.664,2.895c0.257,0.658,0.605,1.225,0.958,0.914
		c0.352-0.311,0.791-1.514,0.791-1.514l0.19,0.924c0,0-0.298,1.689-0.932,1.764c-0.632,0.074-1.371,0.104-1.851-0.451
		c-0.479-0.557-0.799-2.379-0.799-2.379l-0.093-1.229l-1.689,1.668l-1.698,2.107l0.911-4.826l-1.769,3.162
		c0,0,0.481-4.688,0.411-5.904s-0.813-8.402-1.048-9.641c-0.234-1.236-0.959-3.873-1.42-5.072c-0.462-1.197-2.059-5.32-2.291-5.98
		c-0.231-0.658-1.355-3.641-1.545-5.734s-0.22-5.064,0.178-6.809c0.399-1.742,0.924-4.17,1.852-5.559
		c0.927-1.391,2.965-3.738,3.946-4.527c0.979-0.789,2.884-2.07,2.884-2.07S104.133,15.084,104.832,15.52z"/>
	<g>
		<path fill="#FFFFFF" d="M109.151,33.389c0.12,1.547,1.975,2.777,4.243,2.777c1.402,0,2.647-0.471,3.42-1.193
			c-0.979-1.393-2.731-2.322-4.73-2.322C111.007,32.65,110.003,32.92,109.151,33.389z"/>
		<path d="M113.395,36.32c-2.338,0-4.269-1.283-4.396-2.922l-0.009-0.098l0.087-0.047c0.902-0.494,1.942-0.756,3.007-0.756
			c1.989,0,3.804,0.893,4.856,2.385l0.077,0.109l-0.098,0.092C116.081,35.869,114.796,36.32,113.395,36.32z M109.314,33.475
			c0.185,1.432,1.951,2.539,4.08,2.539c1.249,0,2.439-0.396,3.215-1.064c-1.004-1.346-2.685-2.145-4.525-2.145
			C111.106,32.805,110.151,33.035,109.314,33.475z"/>
	</g>
	<g>
		<path fill="#FFFFFF" d="M126.83,30.51c-2.42,0.717-4.074,2.469-3.936,4.061c0.846,0.098,1.801,0.016,2.769-0.27
			c2.421-0.717,4.074-2.469,3.936-4.063C128.753,30.143,127.798,30.223,126.83,30.51z"/>
		<path d="M123.591,34.762L123.591,34.762c-0.242,0-0.482-0.012-0.714-0.039l-0.124-0.014l-0.011-0.123
			c-0.147-1.682,1.593-3.496,4.045-4.223c0.708-0.209,1.419-0.316,2.115-0.316c0.242,0,0.482,0.014,0.714,0.039l0.124,0.016
			l0.011,0.125c0.146,1.68-1.592,3.494-4.045,4.221C124.998,34.656,124.286,34.762,123.591,34.762z M123.04,34.434
			c0.18,0.016,0.364,0.023,0.551,0.023c0.666,0,1.35-0.102,2.028-0.303c2.253-0.668,3.871-2.273,3.834-3.775
			c-0.18-0.018-0.363-0.025-0.55-0.025c-0.667,0-1.35,0.102-2.028,0.303C124.622,31.322,123.003,32.928,123.04,34.434z"/>
	</g>
	<g>
		<ellipse fill="#056734" cx="112.673" cy="33.925" rx="2.236" ry="2.142"/>
		<path d="M112.673,36.221c-1.318,0-2.391-1.031-2.391-2.295c0-1.266,1.072-2.295,2.391-2.295c1.317,0,2.39,1.029,2.39,2.295
			S113.99,36.221,112.673,36.221z M112.673,31.938c-1.149,0-2.084,0.893-2.084,1.988s0.935,1.988,2.084,1.988
			s2.084-0.893,2.084-1.988S113.822,31.938,112.673,31.938z"/>
	</g>
	<g>
		<ellipse fill="#056734" cx="125.109" cy="32.245" rx="2.275" ry="2.046"/>
		<path d="M125.11,34.443c-1.34,0-2.428-0.986-2.428-2.199c0-1.211,1.088-2.197,2.428-2.197c1.339,0,2.429,0.986,2.429,2.197
			C127.539,33.457,126.449,34.443,125.11,34.443z M125.11,30.352c-1.17,0-2.122,0.85-2.122,1.893s0.952,1.893,2.122,1.893
			c1.171,0,2.122-0.85,2.122-1.893S126.281,30.352,125.11,30.352z"/>
	</g>
	<path fill="#422A19" d="M106.326,40.824c-0.858,0-2.431-0.248-4.072-1.756c-2.364-2.174-2.956-3.701-2.979-3.766l0.286-0.107
		c0.005,0.014,0.597,1.531,2.9,3.646c1.734,1.594,3.401,1.707,4.108,1.666c-0.341-0.279-0.927-0.801-1.52-1.518
		c-0.989-1.203-1.576-3.07-1.695-5.396c-0.118-2.299,1.922-5.258,2.792-6.52c0.095-0.137,0.175-0.254,0.237-0.348
		c0.613-0.92,1.312-5.014,1.318-5.053l0.303,0.051c-0.029,0.172-0.716,4.197-1.366,5.172c-0.063,0.096-0.145,0.213-0.239,0.35
		c-0.854,1.238-2.852,4.137-2.739,6.334c0.116,2.26,0.679,4.063,1.627,5.215c0.869,1.057,1.752,1.691,1.761,1.697l0.276,0.197
		l-0.332,0.078C106.963,40.773,106.72,40.824,106.326,40.824z"/>
	<path fill="#422A19" d="M101.275,69.049l0.708-4.193l-1.28,2.422l-0.277-0.131c0.002-0.004,0.252-0.678,0.501-3.406
		c0.262-2.881-0.671-11.029-1.34-13.949c-0.394-1.721-1.086-3.48-1.888-5.518c-0.631-1.6-1.345-3.414-2.071-5.59
		c-1.668-5.006-1.608-9.57,0.192-14.799c1.758-5.098,8.059-8.738,8.122-8.775l0.061-0.033l0.679,0.23l0.013-0.91l0.307,0.004
		l-0.019,1.334l-0.946-0.324c-0.642,0.383-6.297,3.848-7.926,8.576c-1.778,5.158-1.838,9.662-0.19,14.6
		c0.723,2.17,1.435,3.98,2.064,5.576c0.806,2.049,1.503,3.818,1.901,5.561c0.674,2.936,1.609,11.143,1.346,14.045
		c-0.1,1.092-0.199,1.859-0.284,2.393l1.655-3.127l-0.825,4.885c2.762-3.486,2.985-3.486,3.072-3.486
		c0.221,0,0.235,0.24,0.275,0.957c0.059,1.014,0.166,2.898,1.043,3.137c1.454,0.398,1.853,0.045,2.114-0.791
		c0.121-0.391,0.166-0.76,0.176-1.064c-0.185,0.455-0.469,0.963-0.854,1.086c-0.157,0.051-0.403,0.061-0.682-0.18
		c-1.067-0.926,0.042-3.598,0.545-4.414c0.515-0.838,2.004-2.33,2.067-2.395l0.216,0.217c-0.015,0.016-1.526,1.531-2.022,2.338
		c-0.519,0.844-1.462,3.279-0.605,4.021c0.139,0.121,0.265,0.16,0.388,0.121c0.401-0.131,0.763-1.072,0.897-1.639l0.156-0.66
		l0.143,0.664c0.008,0.037,0.197,0.945-0.132,1.994c-0.352,1.127-1.026,1.396-2.486,0.998c-1.09-0.297-1.201-2.25-1.269-3.416
		c-0.012-0.209-0.025-0.439-0.042-0.584c-0.452,0.428-1.88,2.162-3.131,3.754L101.275,69.049z"/>
	<path fill="#422A19" d="M125.813,26.477c-0.415,0-0.759-0.01-0.969-0.023c-0.961-0.064-6.202-1.148-9.105-1.922
		c-2.837-0.758-6.153-2.111-7.714-3.152c-1.556-1.037-3.186-5.139-3.253-5.313l0.285-0.111c0.016,0.041,1.661,4.186,3.138,5.17
		c1.537,1.023,4.813,2.361,7.624,3.111c2.89,0.77,8.097,1.85,9.046,1.912c1.049,0.07,4.395-0.016,4.971-0.303l0.137,0.273
		C129.441,26.383,127.22,26.477,125.813,26.477z"/>
	<path fill="#EFBA7A" d="M121.106,53.377c-0.356,0-0.759-0.043-1.209-0.148c-2.174-0.512-6.391-3.291-6.568-3.408
		c-0.119-0.068-3.09-1.807-4.114-2.832c-0.946-0.945-3.457-3.346-3.795-3.668c-0.335-0.039-2.114-0.283-3.655-1.23l-0.187-0.115
		c-1.507-0.926-2.071-1.271-1.801-2.664c0.211-1.084,0.356-1.439,0.43-1.557c0.032-0.105,0.136-0.418,0.266-0.547l0.215,0.219
		c-0.063,0.063-0.152,0.297-0.192,0.438l-0.017,0.055l-0.019,0.01c-0.031,0.053-0.166,0.34-0.381,1.441
		c-0.23,1.186,0.169,1.43,1.659,2.344l0.188,0.117c1.61,0.99,3.559,1.189,3.577,1.191l0.054,0.004l0.037,0.037
		c0.028,0.027,2.826,2.699,3.838,3.709c0.997,1,4.028,2.771,4.06,2.789c0.051,0.033,4.356,2.871,6.477,3.371
		c1.994,0.469,2.973-0.396,3.048-0.467l3.953-4.846c0.122-0.174,3.468-4.959,4.524-7.008c0.988-1.918,1.103-4.348,0.879-5.98
		c-0.183-1.344-1.91-4.902-2.475-5.889c-0.539-0.945-0.409-2.199-0.265-2.561l0.285,0.113c-0.121,0.301-0.229,1.465,0.247,2.295
		c0.517,0.906,2.313,4.549,2.511,6c0.229,1.68,0.11,4.18-0.911,6.162c-1.079,2.094-4.514,6.998-4.549,7.049l-0.006,0.008
		l-3.973,4.869C123.201,52.711,122.517,53.377,121.106,53.377z"/>
	<g>
		<path fill="#881815" d="M115.65,43.813c0,0,0.075,0.02,0.197,0.049c0.425,0.102,1.422,0.336,1.722,0.336
			c0.382,0,3.449-0.703,4.281-0.449c0.83,0.258,0.447,0.383,0.83,0.258c0.384-0.129,0.768-0.385,1.215-0.449
			c0.447-0.063,1.533,0.576,1.533,0.576s-0.383,0.447-0.83,0.51c-0.447,0.064-2.494,0.385-3.771,0.256l-3.312-0.305L115.65,43.813z"
			/>
		<path fill="#58120C" d="M121.508,45.082c-0.259,0-0.492-0.01-0.695-0.031l-3.334-0.309l-1.887-0.789l0.096-0.289
			c0,0,0.075,0.02,0.195,0.047c0.859,0.207,1.489,0.332,1.687,0.332c0.098,0,0.453-0.063,0.865-0.135
			c0.836-0.146,2.1-0.369,2.892-0.369c0.246,0,0.433,0.021,0.569,0.063c0.424,0.131,0.558,0.234,0.628,0.293
			c0.024-0.008,0.066-0.021,0.11-0.035c0.133-0.045,0.267-0.105,0.409-0.172c0.259-0.115,0.525-0.238,0.831-0.281
			c0.027-0.006,0.058-0.008,0.09-0.008c0.507,0,1.438,0.539,1.543,0.602l0.159,0.092l-0.12,0.141
			c-0.018,0.02-0.426,0.492-0.925,0.563l-0.102,0.016C124.008,44.885,122.653,45.082,121.508,45.082z M117.553,44.441l3.289,0.305
			c0.194,0.02,0.417,0.029,0.666,0.029c1.124,0,2.463-0.195,2.967-0.27l0.103-0.014c0.238-0.035,0.464-0.203,0.602-0.326
			c-0.339-0.182-0.917-0.461-1.215-0.461c-0.017,0-0.032,0.002-0.047,0.004c-0.261,0.037-0.508,0.15-0.747,0.258
			c-0.144,0.066-0.292,0.135-0.44,0.182c-0.122,0.043-0.174,0.059-0.23,0.059c-0.082,0-0.132-0.043-0.164-0.07
			c-0.047-0.041-0.145-0.123-0.529-0.24c-0.106-0.033-0.268-0.051-0.479-0.051c-0.767,0-2.013,0.219-2.838,0.363
			c-0.522,0.092-0.801,0.141-0.919,0.141c-0.075,0-0.185-0.014-0.316-0.033L117.553,44.441z"/>
	</g>
	<g>
		<path fill="#881815" d="M115.75,43.938c0,0,1.928,2.902,3.846,3.668c1.916,0.768,3.024,0.527,4.1-0.877
			c0.245-0.318,0.61-0.793,0.795-1.133c0.56-1.039,0.833-1.355,0.833-1.355s-0.338,0.203-0.859,0.826
			c-0.385,0.459-1.234,1.287-1.994,1.424c-1.789,0.32-2.232,0.035-3.319-0.475c-0.516-0.242-1.309-0.723-1.998-1.16
			C116.389,44.369,115.75,43.938,115.75,43.938z"/>
		<path fill="#58120C" d="M121.431,48.188c-0.532,0-1.151-0.143-1.893-0.439c-1.939-0.775-3.836-3.607-3.916-3.727
			c-0.041-0.063-0.032-0.143,0.02-0.193c0.053-0.053,0.133-0.061,0.193-0.02c0.007,0.004,0.646,0.438,1.399,0.916
			c0.875,0.555,1.561,0.953,1.981,1.152l0.183,0.086c0.646,0.307,1.071,0.508,1.8,0.508c0.337,0,0.744-0.043,1.244-0.133
			c0.702-0.125,1.527-0.92,1.904-1.371c0.531-0.635,0.883-0.848,0.898-0.857c0.064-0.039,0.147-0.025,0.195,0.033
			c0.049,0.057,0.048,0.141-0.002,0.199c-0.001,0.002-0.273,0.322-0.813,1.326c-0.182,0.336-0.522,0.781-0.771,1.107l-0.037,0.045
			C123.094,47.768,122.356,48.188,121.431,48.188z M116.374,44.533c0.689,0.898,1.997,2.418,3.277,2.93
			c0.705,0.281,1.287,0.418,1.779,0.418c0.821,0,1.482-0.383,2.144-1.246l0.035-0.045c0.244-0.318,0.577-0.754,0.746-1.066
			c0.051-0.096,0.1-0.184,0.145-0.266c-0.279,0.314-1.153,1.23-2.003,1.383c-0.525,0.094-0.939,0.137-1.299,0.137
			c-0.798,0-1.273-0.227-1.931-0.537l-0.183-0.086c-0.438-0.207-1.115-0.6-2.016-1.17C116.819,44.824,116.581,44.67,116.374,44.533z
			"/>
	</g>
	<g>
		<path d="M122.616,26.045c0,0-1.149,1.023-0.958,1.598c0.192,0.576,0.256,0.959,1.022,0.385c0.768-0.576,1.342-1.791,1.342-1.791
			L122.616,26.045z"/>
		<path d="M122.1,28.463L122.1,28.463c-0.334,0-0.44-0.326-0.553-0.672l-0.033-0.1c-0.218-0.652,0.877-1.65,1.003-1.76l0.052-0.049
			l1.684,0.23l-0.091,0.189c-0.023,0.051-0.6,1.254-1.388,1.846C122.482,28.367,122.275,28.463,122.1,28.463z M122.667,26.207
			c-0.413,0.379-0.975,1.053-0.863,1.387l0.034,0.104c0.104,0.32,0.161,0.459,0.262,0.459l0,0c0.069,0,0.21-0.043,0.489-0.254
			c0.552-0.414,1.008-1.188,1.199-1.543L122.667,26.207z"/>
	</g>
	<g>
		<path d="M106.447,29.496c0,0,2.045-4.092,4.666-3.643c2.62,0.447,5.368,1.471,4.729,2.236c-0.638,0.768-1.789,0.447-2.108,0.129
			c-0.32-0.32-1.215-1.023-1.727-1.088c-0.511-0.064-1.341-0.639-2.428,0.193c-1.087,0.83-2.174,1.469-2.558,1.916
			C106.639,29.689,106.447,29.496,106.447,29.496z"/>
		<path d="M106.569,29.689c-0.137,0-0.217-0.07-0.23-0.086l-0.078-0.078l0.049-0.098c0.077-0.152,1.911-3.762,4.4-3.762
			c0.144,0,0.287,0.012,0.429,0.035c1.798,0.309,4.59,1.086,4.917,1.973c0.066,0.182,0.034,0.359-0.096,0.516
			c-0.364,0.438-0.847,0.529-1.188,0.529c-0.496,0-0.952-0.197-1.147-0.393c-0.334-0.334-1.191-0.986-1.637-1.043
			c-0.125-0.016-0.261-0.057-0.405-0.1c-0.235-0.07-0.501-0.152-0.8-0.152c-0.384,0-0.747,0.135-1.111,0.414
			c-0.429,0.328-0.86,0.629-1.24,0.893c-0.575,0.4-1.072,0.746-1.293,1.002C106.94,29.572,106.748,29.689,106.569,29.689z
			 M110.71,25.973c-1.944,0-3.536,2.541-3.994,3.35c0.052-0.037,0.115-0.094,0.189-0.182c0.247-0.287,0.734-0.625,1.351-1.055
			c0.378-0.262,0.807-0.561,1.23-0.885c0.419-0.32,0.843-0.477,1.297-0.477c0.343,0,0.646,0.092,0.888,0.166
			c0.138,0.041,0.257,0.076,0.355,0.088c0.597,0.076,1.539,0.855,1.815,1.131c0.147,0.148,0.537,0.301,0.931,0.301
			c0.274,0,0.664-0.072,0.952-0.418c0.058-0.072,0.072-0.135,0.043-0.211c-0.211-0.576-2.312-1.373-4.681-1.777
			C110.963,25.982,110.835,25.973,110.71,25.973z"/>
	</g>
	<g>
		<path d="M130.415,28.602c0.09-0.121,0.185-0.305,0.275-0.512c-0.533,0.068-1.084,0.104-1.649,0.104
			c-0.353,0-0.843-0.014-1.184-0.039c-3.152,0.793-5.241,2.738-5.241,5.018c0,0.389,0.067,0.77,0.191,1.137
			c0.047-0.016,0.093-0.029,0.137-0.043c-0.051-1.561,1.58-3.248,3.943-3.947c0.967-0.287,1.922-0.367,2.768-0.271
			c0.013,0.15,0.011,0.299-0.008,0.449c0.623-0.602,1.161-1.246,1.605-1.924C130.733,28.777,130.185,28.908,130.415,28.602z"/>
		<path d="M122.71,34.496l-0.047-0.139c-0.132-0.391-0.199-0.789-0.199-1.186c0-2.32,2.102-4.348,5.356-5.166l0.024-0.008L127.87,28
			c0.349,0.027,0.84,0.039,1.171,0.039c0.546,0,1.095-0.033,1.631-0.1l0.268-0.035l-0.109,0.248
			c-0.086,0.195-0.165,0.35-0.241,0.467c0.146-0.025,0.369-0.096,0.606-0.191l0.451-0.18l-0.267,0.406
			c-0.447,0.686-0.994,1.342-1.626,1.951l-0.308,0.297l0.049-0.426c0.012-0.096,0.018-0.193,0.015-0.291
			c-0.179-0.016-0.364-0.023-0.551-0.023c-0.667,0-1.349,0.102-2.029,0.303c-2.234,0.662-3.882,2.293-3.831,3.795l0.004,0.117
			l-0.166,0.051c-0.028,0.008-0.057,0.018-0.086,0.025L122.71,34.496z M127.87,28.309c-3.099,0.787-5.1,2.693-5.1,4.863
			c0,0.199,0.019,0.402,0.056,0.604c0.255-1.5,1.853-2.963,4.017-3.604c0.709-0.209,1.421-0.316,2.116-0.316
			c0.242,0,0.482,0.014,0.714,0.039l0.125,0.016l0.01,0.123c0.003,0.027,0.004,0.055,0.007,0.08
			c0.387-0.398,0.737-0.814,1.048-1.244c-0.137,0.037-0.274,0.068-0.38,0.068c-0.157,0-0.225-0.07-0.253-0.127
			c-0.043-0.086-0.022-0.188,0.063-0.301c0.044-0.059,0.092-0.137,0.142-0.234c-0.46,0.047-0.928,0.07-1.393,0.07
			C128.712,28.346,128.227,28.334,127.87,28.309z"/>
	</g>
	<g>
		<ellipse cx="124.796" cy="32.62" rx="1.637" ry="1.517"/>
		<path d="M124.796,34.289c-0.986,0-1.789-0.748-1.789-1.67c0-0.92,0.803-1.668,1.789-1.668c0.987,0,1.789,0.748,1.789,1.668
			C126.585,33.541,125.783,34.289,124.796,34.289z M124.796,31.258c-0.817,0-1.482,0.611-1.482,1.363
			c0,0.75,0.665,1.361,1.482,1.361s1.483-0.611,1.483-1.361C126.279,31.869,125.613,31.258,124.796,31.258z"/>
	</g>
	<path d="M116.815,34.973c0,0-1.626-4.688-4.063-4.545c-2.438,0.139-3.554,0.727-4.188,0.633c-0.636-0.094-1.204-0.25-1.204-0.25
		s0.097,0.646,0.267,1.102c0.172,0.455,0.542,0.729,0.542,0.729s-0.395,0.238-0.839,0.152c-0.443-0.086-0.1,0.764,0.344,0.848
		s1.395,0.258,1.395,0.258l0.167-0.662c0.872-0.426,1.889-0.646,2.965-0.598C114.196,32.734,115.902,33.535,116.815,34.973z"/>
	<g>
		<ellipse cx="112.615" cy="34.687" rx="1.438" ry="1.343"/>
		<path d="M112.615,36.182c-0.878,0-1.591-0.67-1.591-1.496c0-0.824,0.713-1.494,1.591-1.494c0.877,0,1.591,0.67,1.591,1.494
			C114.206,35.512,113.492,36.182,112.615,36.182z M112.615,33.498c-0.708,0-1.285,0.533-1.285,1.188
			c0,0.656,0.577,1.189,1.285,1.189s1.284-0.533,1.284-1.189C113.899,34.031,113.323,33.498,112.615,33.498z"/>
	</g>
	<circle fill="#FFFFFF" cx="112.233" cy="34.03" r="0.456"/>
	<circle fill="#FFFFFF" cx="125.114" cy="32.196" r="0.452"/>
	<circle fill="#FFFFFF" cx="112.966" cy="33.735" r="0.188"/>
	<circle fill="#FFFFFF" cx="125.919" cy="32.525" r="0.266"/>
	<g>
		<ellipse fill="#431B46" cx="104.832" cy="42.787" rx="1.072" ry="0.971"/>
		<path fill="#2F112F" d="M104.832,43.809c-0.619,0-1.124-0.457-1.124-1.021c0-0.563,0.505-1.021,1.124-1.021
			s1.122,0.459,1.122,1.021C105.954,43.352,105.451,43.809,104.832,43.809z M104.832,41.869c-0.563,0-1.021,0.412-1.021,0.918
			c0,0.508,0.458,0.92,1.021,0.92s1.021-0.412,1.021-0.92C105.854,42.281,105.396,41.869,104.832,41.869z"/>
	</g>
	
		<linearGradient id="SVGID_1_" gradientUnits="userSpaceOnUse" x1="115.0313" y1="-3920.4014" x2="131.5332" y2="-3920.4014" gradientTransform="matrix(1 0 0 -1 0.04 -3904.8809)">
		<stop  offset="0" style="stop-color:#422A19;stop-opacity:0"/>
		<stop  offset="0.0099" style="stop-color:#482D1A;stop-opacity:0.0278"/>
		<stop  offset="0.059" style="stop-color:#644025;stop-opacity:0.1659"/>
		<stop  offset="0.1128" style="stop-color:#794E2D;stop-opacity:0.317"/>
		<stop  offset="0.1728" style="stop-color:#885833;stop-opacity:0.4858"/>
		<stop  offset="0.2442" style="stop-color:#905E36;stop-opacity:0.6862"/>
		<stop  offset="0.3558" style="stop-color:#936037"/>
		<stop  offset="0.535" style="stop-color:#946237;stop-opacity:0.8551"/>
		<stop  offset="0.5996" style="stop-color:#9B693D;stop-opacity:0.8029"/>
		<stop  offset="0.6456" style="stop-color:#A47447;stop-opacity:0.7657"/>
		<stop  offset="0.6825" style="stop-color:#B38453;stop-opacity:0.7358"/>
		<stop  offset="0.714" style="stop-color:#C69A64;stop-opacity:0.7103"/>
		<stop  offset="0.7178" style="stop-color:#C89D66;stop-opacity:0.7073"/>
		<stop  offset="1" style="stop-color:#422A19;stop-opacity:0"/>
	</linearGradient>
	<path fill="url(#SVGID_1_)" d="M118.607,11.539c6.819,0.613,12.182,4.539,12.94,9.145c0.017-0.219,0.025-0.438,0.025-0.66
		c0-5.338-4.996-9.666-11.16-9.666c-1.936,0-3.756,0.428-5.342,1.178C116.21,11.434,117.396,11.432,118.607,11.539z"/>
	<path fill="#422A19" d="M132.185,61.92c-2.711-2.771-3.577-6.436-2.21-8.697c-0.087,0.088-0.173,0.18-0.253,0.275
		c-1.965,2.299-1.403,6,1.252,8.266c0.832,0.713,1.773,1.199,2.733,1.457C133.178,62.848,132.666,62.412,132.185,61.92z"/>
	<path fill="#422A19" d="M127.821,59.271c-2.104-2.15-2.776-4.996-1.717-6.752c-0.067,0.068-0.133,0.139-0.196,0.213
		c-1.524,1.785-1.089,4.658,0.972,6.418c0.647,0.553,1.377,0.93,2.122,1.131C128.592,59.992,128.195,59.654,127.821,59.271z"/>
	<path fill="#422A19" d="M105.399,51.08c2.357,4.096,2.645,8.375,0.842,10.221c0.105-0.057,0.21-0.119,0.311-0.188
		c2.429-1.639,2.466-5.828,0.084-9.361c-0.749-1.109-1.646-2.021-2.602-2.701C104.521,49.674,104.98,50.352,105.399,51.08z"/>
	<path fill="#422A19" d="M102.381,52.438c1.862,5.865,1.837,11.025,0.079,12.402c0.1-0.02,0.197-0.047,0.294-0.082
		c2.312-0.854,2.627-5.771,0.702-10.982c-0.604-1.637-1.356-3.107-2.177-4.328C101.679,50.393,102.051,51.396,102.381,52.438z"/>
	
		<linearGradient id="SVGID_2_" gradientUnits="userSpaceOnUse" x1="109.7656" y1="-3922.2124" x2="130.3789" y2="-3922.2124" gradientTransform="matrix(1 0 0 -1 0.04 -3904.8809)">
		<stop  offset="0" style="stop-color:#422A19;stop-opacity:0"/>
		<stop  offset="0.0099" style="stop-color:#482D1A;stop-opacity:0.0278"/>
		<stop  offset="0.059" style="stop-color:#644025;stop-opacity:0.1659"/>
		<stop  offset="0.1128" style="stop-color:#794E2D;stop-opacity:0.317"/>
		<stop  offset="0.1728" style="stop-color:#885833;stop-opacity:0.4858"/>
		<stop  offset="0.2442" style="stop-color:#905E36;stop-opacity:0.6862"/>
		<stop  offset="0.3558" style="stop-color:#936037"/>
		<stop  offset="0.535" style="stop-color:#946237;stop-opacity:0.8551"/>
		<stop  offset="0.5996" style="stop-color:#9B693D;stop-opacity:0.8029"/>
		<stop  offset="0.6456" style="stop-color:#A47447;stop-opacity:0.7657"/>
		<stop  offset="0.6825" style="stop-color:#B38453;stop-opacity:0.7358"/>
		<stop  offset="0.714" style="stop-color:#C69A64;stop-opacity:0.7103"/>
		<stop  offset="0.7178" style="stop-color:#C89D66;stop-opacity:0.7073"/>
		<stop  offset="1" style="stop-color:#422A19;stop-opacity:0"/>
	</linearGradient>
	<path fill="url(#SVGID_2_)" d="M130.419,21.777c-0.004-0.219-0.018-0.439-0.042-0.66c-0.019-0.162-0.043-0.322-0.071-0.48
		c-0.038-0.455-0.167-0.893-0.369-1.303c-1.667-4.309-7.436-7.059-13.91-6.332c-2.301,0.258-4.418,0.926-6.221,1.883
		c1.343-0.252,2.752-0.414,4.205-0.469c3.912-0.143,7.512,0.512,10.357,1.723c-0.308-0.027-0.621-0.043-0.939-0.041
		c-1.189,0.01-2.305,0.232-3.277,0.615c0.699-0.055,1.427-0.063,2.173-0.014c2.377,0.158,4.47,0.854,5.925,1.848
		C129.298,19.508,130.046,20.598,130.419,21.777z"/>
	
		<linearGradient id="SVGID_3_" gradientUnits="userSpaceOnUse" x1="108.0078" y1="-3926.9189" x2="130.2266" y2="-3926.9189" gradientTransform="matrix(1 0 0 -1 0.04 -3904.8809)">
		<stop  offset="0" style="stop-color:#422A19;stop-opacity:0"/>
		<stop  offset="0.0099" style="stop-color:#482D1A;stop-opacity:0.0278"/>
		<stop  offset="0.059" style="stop-color:#644025;stop-opacity:0.1659"/>
		<stop  offset="0.1128" style="stop-color:#794E2D;stop-opacity:0.317"/>
		<stop  offset="0.1728" style="stop-color:#885833;stop-opacity:0.4858"/>
		<stop  offset="0.2442" style="stop-color:#905E36;stop-opacity:0.6862"/>
		<stop  offset="0.3558" style="stop-color:#936037"/>
		<stop  offset="0.535" style="stop-color:#946237;stop-opacity:0.8551"/>
		<stop  offset="0.5996" style="stop-color:#9B693D;stop-opacity:0.8029"/>
		<stop  offset="0.6456" style="stop-color:#A47447;stop-opacity:0.7657"/>
		<stop  offset="0.6825" style="stop-color:#B38453;stop-opacity:0.7358"/>
		<stop  offset="0.714" style="stop-color:#C69A64;stop-opacity:0.7103"/>
		<stop  offset="0.7178" style="stop-color:#C89D66;stop-opacity:0.7073"/>
		<stop  offset="1" style="stop-color:#422A19;stop-opacity:0"/>
	</linearGradient>
	<path fill="url(#SVGID_3_)" d="M129.981,25.287c-3.102,0.117-6.738-0.232-10.544-1.109c-4.5-1.037-8.468-2.637-11.39-4.443
		l0.066,0.068c0.257-0.268,0.338-0.629,0.338-0.998l-0.12-0.037c2.924,1.807,6.893,3.404,11.392,4.443
		c3.804,0.877,7.443,1.227,10.543,1.107l-0.165,0.01c0.002,0.352-0.291,0.605-0.303,0.963"/>
	<path d="M121.64,39.576c-0.408,0-0.807-0.072-1.156-0.211l0.113-0.285c0.313,0.123,0.674,0.189,1.043,0.189
		c1.093,0,1.982-0.564,1.982-1.258c0-0.324-0.199-0.633-0.557-0.869l0.168-0.256c0.447,0.295,0.694,0.695,0.694,1.125
		C123.928,38.875,122.901,39.576,121.64,39.576z"/>
	
		<linearGradient id="SVGID_4_" gradientUnits="userSpaceOnUse" x1="103.2207" y1="-3934.9321" x2="103.8036" y2="-3925.5029" gradientTransform="matrix(1 0 0 -1 0.04 -3904.8809)">
		<stop  offset="0" style="stop-color:#422A19;stop-opacity:0"/>
		<stop  offset="0.0099" style="stop-color:#482D1A;stop-opacity:0.0278"/>
		<stop  offset="0.059" style="stop-color:#644025;stop-opacity:0.1659"/>
		<stop  offset="0.1128" style="stop-color:#794E2D;stop-opacity:0.317"/>
		<stop  offset="0.1728" style="stop-color:#885833;stop-opacity:0.4858"/>
		<stop  offset="0.2442" style="stop-color:#905E36;stop-opacity:0.6862"/>
		<stop  offset="0.3558" style="stop-color:#936037"/>
		<stop  offset="0.535" style="stop-color:#946237;stop-opacity:0.8551"/>
		<stop  offset="0.5996" style="stop-color:#9B693D;stop-opacity:0.8029"/>
		<stop  offset="0.6456" style="stop-color:#A47447;stop-opacity:0.7657"/>
		<stop  offset="0.6825" style="stop-color:#B38453;stop-opacity:0.7358"/>
		<stop  offset="0.714" style="stop-color:#C69A64;stop-opacity:0.7103"/>
		<stop  offset="0.7178" style="stop-color:#C89D66;stop-opacity:0.7073"/>
		<stop  offset="1" style="stop-color:#422A19;stop-opacity:0"/>
	</linearGradient>
	<path fill="url(#SVGID_4_)" d="M102.487,31.363c-0.424-1.051-0.628-2.336-0.533-3.707c0.135-1.936,0.836-3.619,1.819-4.664
		c0,0-1.769,4.363-0.921,4.186c0.849-0.18,1.889-4.244,1.889-4.244c0.452,1.361,0.378,3.186-0.317,4.996
		c-0.493,1.285-1.222,2.363-2.048,3.135"/>
	
		<ellipse transform="matrix(0.4582 -0.8888 0.8888 0.4582 23.1492 131.56)" fill="#B33720" cx="119.492" cy="46.791" rx="0.319" ry="0.779"/>
	
		<ellipse transform="matrix(0.4614 -0.8872 0.8872 0.4614 23.2841 132.5509)" fill="#B33720" cx="120.806" cy="47.1" rx="0.22" ry="0.538"/>
	<path opacity="0.48" fill="#941C80" enable-background="new    " d="M105.077,42.35c0.395,0.164,0.623,0.549,0.573,0.918
		c0.039-0.051,0.073-0.105,0.098-0.168c0.175-0.418-0.062-0.914-0.524-1.105c-0.462-0.191-0.979-0.008-1.152,0.41
		c-0.026,0.063-0.041,0.125-0.05,0.188C104.248,42.297,104.682,42.186,105.077,42.35z"/>
	
		<linearGradient id="SVGID_5_" gradientUnits="userSpaceOnUse" x1="109.623" y1="-3923.1704" x2="127.3017" y2="-3925.8572" gradientTransform="matrix(1 0 0 -1 0.04 -3904.8809)">
		<stop  offset="0" style="stop-color:#422A19;stop-opacity:0"/>
		<stop  offset="0.0099" style="stop-color:#482D1A;stop-opacity:0.0278"/>
		<stop  offset="0.059" style="stop-color:#644025;stop-opacity:0.1659"/>
		<stop  offset="0.1128" style="stop-color:#794E2D;stop-opacity:0.317"/>
		<stop  offset="0.1728" style="stop-color:#885833;stop-opacity:0.4858"/>
		<stop  offset="0.2442" style="stop-color:#905E36;stop-opacity:0.6862"/>
		<stop  offset="0.3558" style="stop-color:#936037"/>
		<stop  offset="0.535" style="stop-color:#946237;stop-opacity:0.8551"/>
		<stop  offset="0.5996" style="stop-color:#9B693D;stop-opacity:0.8029"/>
		<stop  offset="0.6456" style="stop-color:#A47447;stop-opacity:0.7657"/>
		<stop  offset="0.6825" style="stop-color:#B38453;stop-opacity:0.7358"/>
		<stop  offset="0.714" style="stop-color:#C69A64;stop-opacity:0.7103"/>
		<stop  offset="0.7178" style="stop-color:#C89D66;stop-opacity:0.7073"/>
		<stop  offset="1" style="stop-color:#422A19;stop-opacity:0"/>
	</linearGradient>
	<path fill="url(#SVGID_5_)" d="M127.381,21.348c-2.546,0.176-5.502-0.104-8.557-0.9c-3.612-0.941-6.751-2.449-9.019-4.18h0.013
		c0.035,0.365,0.333,1.111-0.307,1.072l-0.013-0.01c2.268,1.732,5.406,3.238,9.02,4.182c0.436,0.113,0.872,0.217,1.313,0.313
		c0.43,0.092,0.861,0.174,1.295,0.248c0.422,0.072,0.847,0.135,1.271,0.188c0.414,0.051,0.828,0.092,1.243,0.125
		c0.402,0.031,0.806,0.053,1.209,0.066c0.389,0.012,0.779,0.012,1.168,0.004c0.189-0.002,0.378-0.008,0.567-0.018
		c0.094-0.004,0.186-0.008,0.278-0.014c0.046-0.002,0.094-0.006,0.14-0.008c0.031-0.002,0.1,0,0.053-0.041
		c-0.015-0.016-0.034-0.021-0.047-0.039c-0.045-0.064-0.049-0.154-0.045-0.229c0.004-0.09,0.027-0.172,0.046-0.26
		c0.009-0.041,0.011-0.07,0.026-0.109c0.024-0.057,0.069-0.105,0.104-0.156c0.021-0.029,0.043-0.064,0.068-0.09
		c0.015-0.014,0.032-0.025,0.047-0.039c0.019-0.02,0.039-0.035,0.059-0.051s0.042-0.043,0.066-0.053"/>
	
		<linearGradient id="SVGID_6_" gradientUnits="userSpaceOnUse" x1="101.248" y1="-3935.0122" x2="101.248" y2="-3926.0107" gradientTransform="matrix(1 0 0 -1 0.04 -3904.8809)">
		<stop  offset="0" style="stop-color:#422A19;stop-opacity:0"/>
		<stop  offset="0.0099" style="stop-color:#482D1A;stop-opacity:0.0278"/>
		<stop  offset="0.059" style="stop-color:#644025;stop-opacity:0.1659"/>
		<stop  offset="0.1128" style="stop-color:#794E2D;stop-opacity:0.317"/>
		<stop  offset="0.1728" style="stop-color:#885833;stop-opacity:0.4858"/>
		<stop  offset="0.2442" style="stop-color:#905E36;stop-opacity:0.6862"/>
		<stop  offset="0.3558" style="stop-color:#936037"/>
		<stop  offset="0.535" style="stop-color:#946237;stop-opacity:0.8551"/>
		<stop  offset="0.5996" style="stop-color:#9B693D;stop-opacity:0.8029"/>
		<stop  offset="0.6456" style="stop-color:#A47447;stop-opacity:0.7657"/>
		<stop  offset="0.6825" style="stop-color:#B38453;stop-opacity:0.7358"/>
		<stop  offset="0.714" style="stop-color:#C69A64;stop-opacity:0.7103"/>
		<stop  offset="0.7178" style="stop-color:#C89D66;stop-opacity:0.7073"/>
		<stop  offset="1" style="stop-color:#422A19;stop-opacity:0"/>
	</linearGradient>
	<path fill="url(#SVGID_6_)" d="M101.41,30.176c-0.425,0-0.851,0-1.276,0l0.144,0.182c-0.423-1.049-0.627-2.334-0.532-3.705
		c0.128-1.854,0.777-3.477,1.694-4.527l0.022,0.086c0.523,0,0.938,0.008,1.379,0.152l0.012-0.246
		c-0.982,1.045-1.685,2.729-1.818,4.664c-0.096,1.371,0.109,2.658,0.532,3.705"/>
	
		<linearGradient id="SVGID_7_" gradientUnits="userSpaceOnUse" x1="98.6367" y1="-3933.7612" x2="99.0848" y2="-3924.6028" gradientTransform="matrix(1 0 0 -1 0.04 -3904.8809)">
		<stop  offset="0" style="stop-color:#422A19;stop-opacity:0"/>
		<stop  offset="0.0099" style="stop-color:#482D1A;stop-opacity:0.0278"/>
		<stop  offset="0.059" style="stop-color:#644025;stop-opacity:0.1659"/>
		<stop  offset="0.1128" style="stop-color:#794E2D;stop-opacity:0.317"/>
		<stop  offset="0.1728" style="stop-color:#885833;stop-opacity:0.4858"/>
		<stop  offset="0.2442" style="stop-color:#905E36;stop-opacity:0.6862"/>
		<stop  offset="0.3558" style="stop-color:#936037"/>
		<stop  offset="0.535" style="stop-color:#946237;stop-opacity:0.8551"/>
		<stop  offset="0.5996" style="stop-color:#9B693D;stop-opacity:0.8029"/>
		<stop  offset="0.6456" style="stop-color:#A47447;stop-opacity:0.7657"/>
		<stop  offset="0.6825" style="stop-color:#B38453;stop-opacity:0.7358"/>
		<stop  offset="0.714" style="stop-color:#C69A64;stop-opacity:0.7103"/>
		<stop  offset="0.7178" style="stop-color:#C89D66;stop-opacity:0.7073"/>
		<stop  offset="1" style="stop-color:#422A19;stop-opacity:0"/>
	</linearGradient>
	<path fill="url(#SVGID_7_)" d="M97.224,29.205c0.39,0,0.783-0.012,1.169,0.008c0.007,0.117,0.034,0.285,0.006,0.4l0.033,0.148
		c-0.325-1.193-0.386-2.613-0.108-4.09c0.391-2.084,1.365-3.82,2.564-4.828l-0.091,0.039c-0.304-0.246-0.954-0.268-1.378-0.256
		l0.121-0.035c-1.129,1.023-2.038,2.701-2.412,4.695c-0.275,1.477-0.216,2.896,0.11,4.088"/>
	<path fill="#422A19" d="M137.548,66.322c-0.183-0.295-4.498-7.318-4.303-11.221c0.199-3.949,0.763-6.521,1.357-9.242
		c0.718-3.277,1.531-6.99,1.822-13.855c0.349-8.24-1.437-14.648-5.16-18.535c-2.791-2.91-6.643-4.387-11.449-4.387
		c-5.478,0-10.785,1.951-14.942,5.494l-0.198-0.232c4.213-3.592,9.59-5.568,15.141-5.568c4.893,0,8.819,1.508,11.67,4.482
		c3.783,3.947,5.599,10.436,5.244,18.758c-0.291,6.893-1.107,10.619-1.827,13.91c-0.594,2.707-1.153,5.266-1.352,9.189
		c-0.19,3.809,4.214,10.975,4.258,11.047L137.548,66.322z"/>
	<path fill="#DADADA" stroke="#878787" stroke-width="0.6849" stroke-miterlimit="10" d="M123.306,68.346
		c0,0,2.23-1.604,2.319-3.957c0.089-2.352-0.131-4.5-0.771-4.977c-0.639-0.477-1.76-1.119-1.76-1.119l-0.557-2.031
		c0,0,3.439,1.178,3.896,2.031c0.456,0.855,1.946,4.012,1.946,4.012l-0.779,9.891L123.306,68.346z"/>
	<path d="M112.85,59.178c-0.086,0.107-0.161,0.215-0.226,0.324c-0.125,0.217-0.272,0.463-0.434,0.73
		c-0.592,0.984-1.586,2.635-1.609,3.416c-0.036,1.174,0.31,4.412,0.467,4.953c0.171,0.576,1.213,2.73,1.658,3.277
		c0.323,0.4,0.262,0.988-0.139,1.313c-0.4,0.322-0.988,0.262-1.312-0.139c-0.659-0.814-1.785-3.205-1.996-3.926
		c-0.242-0.822-0.582-4.291-0.543-5.537c0.039-1.268,1.059-2.961,1.877-4.32c0.152-0.254,0.294-0.488,0.413-0.697
		c0.568-0.99,1.617-1.75,2.252-2.146"/>
	<path fill="#FFFFFF" stroke="#878787" stroke-width="0.6849" stroke-miterlimit="10" d="M127.266,59.285l8.839,2.391
		c0,0,1.322,0.932,2.061,2.254c0.737,1.32,4.43,9.986,4.43,9.986l1.479,3.297"/>
	<path d="M122.288,55.572c0.711,0.002,1.306,0.012,1.51,0.037c1.113,0.145,3.358,2.65,3.381,2.674
		c0.708,0.814,2.727,3.625,3.271,4.672c0.563,1.078,2.546,5.967,2.949,7.264c0.402,1.295,2.146,8.457,2.221,8.76
		c0.122,0.502-0.187,1.006-0.687,1.127c-0.073,0.02-0.148,0.027-0.221,0.027c-0.421,0-0.801-0.287-0.904-0.713
		c-0.02-0.074-1.805-7.406-2.189-8.646c-0.396-1.27-2.36-6.068-2.823-6.959s-2.413-3.605-3.023-4.305
		c-0.657-0.754-1.871-1.846-2.278-2.057c-0.153-0.008-0.471-0.014-0.891-0.016"/>
</g>
</svg>
